<?xml version="1.0" encoding="UTF-8"?>
<svg xmlns="http://www.w3.org/2000/svg" version="1.1" width="400" height="400" viewBox="0 0 400 400"><rect x="0" y="0" width="400" height="400" fill="#f5f5f5"/><g transform="scale(14.815)"><g transform="translate(3,3)"><path fill-rule="evenodd" d="M9 0L9 2L8 2L8 4L9 4L9 5L10 5L10 4L9 4L9 2L10 2L10 3L11 3L11 6L10 6L10 7L9 7L9 6L8 6L8 7L9 7L9 9L8 9L8 8L6 8L6 9L5 9L5 8L3 8L3 9L2 9L2 10L0 10L0 11L2 11L2 10L3 10L3 11L4 11L4 12L2 12L2 13L7 13L7 12L8 12L8 11L10 11L10 12L11 12L11 13L12 13L12 12L13 12L13 10L12 10L12 12L11 12L11 9L10 9L10 7L11 7L11 6L12 6L12 7L13 7L13 5L12 5L12 3L13 3L13 2L12 2L12 0L11 0L11 1L10 1L10 0ZM11 2L11 3L12 3L12 2ZM17 8L17 9L15 9L15 13L17 13L17 14L18 14L18 16L16 16L16 17L15 17L15 18L13 18L13 19L15 19L15 21L17 21L17 20L18 20L18 21L20 21L20 20L21 20L21 18L19 18L19 19L20 19L20 20L18 20L18 18L17 18L17 17L19 17L19 16L20 16L20 17L21 17L21 14L20 14L20 13L21 13L21 12L20 12L20 11L21 11L21 10L20 10L20 9L19 9L19 8ZM6 9L6 10L8 10L8 9ZM17 9L17 10L16 10L16 11L18 11L18 10L19 10L19 11L20 11L20 10L19 10L19 9ZM6 11L6 12L7 12L7 11ZM0 12L0 13L1 13L1 12ZM17 12L17 13L19 13L19 12ZM8 13L8 15L9 15L9 16L8 16L8 18L9 18L9 16L10 16L10 19L9 19L9 20L10 20L10 21L11 21L11 20L12 20L12 19L11 19L11 18L12 18L12 17L13 17L13 16L15 16L15 14L14 14L14 13L13 13L13 16L10 16L10 13ZM10 19L10 20L11 20L11 19ZM16 19L16 20L17 20L17 19ZM13 20L13 21L14 21L14 20ZM0 0L0 7L7 7L7 0ZM1 1L1 6L6 6L6 1ZM2 2L2 5L5 5L5 2ZM14 0L14 7L21 7L21 0ZM15 1L15 6L20 6L20 1ZM16 2L16 5L19 5L19 2ZM0 14L0 21L7 21L7 14ZM1 15L1 20L6 20L6 15ZM2 16L2 19L5 19L5 16Z" fill="#282828"/></g></g></svg>
