<?xml version="1.0" encoding="UTF-8"?>
<svg xmlns="http://www.w3.org/2000/svg" version="1.1" width="400" height="400" viewBox="0 0 400 400"><rect x="0" y="0" width="400" height="400" fill="#f5f5f5"/><g transform="scale(14.815)"><g transform="translate(3,3)"><path fill-rule="evenodd" d="M9 0L9 1L8 1L8 7L9 7L9 8L5 8L5 9L7 9L7 10L6 10L6 11L5 11L5 10L4 10L4 9L3 9L3 8L2 8L2 10L0 10L0 11L2 11L2 12L1 12L1 13L2 13L2 12L3 12L3 13L5 13L5 12L6 12L6 13L7 13L7 12L6 12L6 11L8 11L8 12L9 12L9 10L8 10L8 9L10 9L10 11L11 11L11 9L10 9L10 8L12 8L12 7L13 7L13 6L12 6L12 7L11 7L11 6L10 6L10 7L9 7L9 5L10 5L10 4L11 4L11 5L13 5L13 4L12 4L12 2L13 2L13 1L10 1L10 0ZM9 1L9 2L10 2L10 1ZM9 3L9 4L10 4L10 3ZM13 8L13 9L12 9L12 11L13 11L13 12L10 12L10 13L8 13L8 16L10 16L10 15L12 15L12 16L11 16L11 17L12 17L12 16L14 16L14 17L13 17L13 18L12 18L12 21L13 21L13 20L14 20L14 19L15 19L15 21L21 21L21 20L20 20L20 19L21 19L21 18L19 18L19 17L21 17L21 16L20 16L20 14L17 14L17 15L16 15L16 16L17 16L17 18L16 18L16 17L15 17L15 15L13 15L13 14L12 14L12 13L17 13L17 12L16 12L16 11L18 11L18 12L19 12L19 11L18 11L18 9L20 9L20 8L15 8L15 9L14 9L14 8ZM13 9L13 11L15 11L15 10L14 10L14 9ZM16 9L16 10L17 10L17 9ZM3 10L3 12L4 12L4 10ZM20 11L20 13L21 13L21 11ZM10 13L10 14L9 14L9 15L10 15L10 14L11 14L11 13ZM17 15L17 16L19 16L19 15ZM9 17L9 18L8 18L8 19L10 19L10 20L9 20L9 21L10 21L10 20L11 20L11 18L10 18L10 17ZM18 18L18 19L19 19L19 18ZM16 19L16 20L17 20L17 19ZM0 0L0 7L7 7L7 0ZM1 1L1 6L6 6L6 1ZM2 2L2 5L5 5L5 2ZM14 0L14 7L21 7L21 0ZM15 1L15 6L20 6L20 1ZM16 2L16 5L19 5L19 2ZM0 14L0 21L7 21L7 14ZM1 15L1 20L6 20L6 15ZM2 16L2 19L5 19L5 16Z" fill="#282828"/></g></g></svg>
