<?xml version="1.0" encoding="UTF-8"?>
<svg xmlns="http://www.w3.org/2000/svg" version="1.1" width="400" height="400" viewBox="0 0 400 400"><rect x="0" y="0" width="400" height="400" fill="#f5f5f5"/><g transform="scale(14.815)"><g transform="translate(3,3)"><path fill-rule="evenodd" d="M11 0L11 2L10 2L10 1L8 1L8 2L10 2L10 3L9 3L9 4L10 4L10 3L12 3L12 4L11 4L11 5L10 5L10 7L9 7L9 5L8 5L8 8L4 8L4 9L7 9L7 10L6 10L6 11L7 11L7 10L8 10L8 11L10 11L10 12L11 12L11 13L10 13L10 14L9 14L9 13L8 13L8 17L9 17L9 20L10 20L10 21L11 21L11 20L12 20L12 21L15 21L15 20L13 20L13 19L14 19L14 18L15 18L15 19L16 19L16 20L17 20L17 19L18 19L18 21L21 21L21 20L20 20L20 19L19 19L19 18L21 18L21 16L20 16L20 15L21 15L21 14L20 14L20 15L19 15L19 16L18 16L18 14L19 14L19 13L21 13L21 9L20 9L20 8L19 8L19 9L17 9L17 10L16 10L16 8L14 8L14 9L13 9L13 10L11 10L11 9L12 9L12 7L13 7L13 3L12 3L12 2L13 2L13 1L12 1L12 0ZM11 5L11 7L10 7L10 8L8 8L8 10L9 10L9 9L11 9L11 7L12 7L12 5ZM0 9L0 11L1 11L1 9ZM2 9L2 10L3 10L3 11L2 11L2 13L3 13L3 12L4 12L4 13L5 13L5 10L3 10L3 9ZM14 9L14 10L13 10L13 11L12 11L12 13L11 13L11 14L10 14L10 15L9 15L9 16L11 16L11 18L10 18L10 19L12 19L12 16L13 16L13 17L15 17L15 15L16 15L16 16L17 16L17 17L16 17L16 18L17 18L17 17L18 17L18 18L19 18L19 17L18 17L18 16L17 16L17 13L19 13L19 10L18 10L18 12L16 12L16 11L15 11L15 9ZM10 10L10 11L11 11L11 10ZM14 11L14 13L12 13L12 14L11 14L11 16L12 16L12 15L15 15L15 14L14 14L14 13L15 13L15 11ZM6 12L6 13L7 13L7 12ZM0 0L0 7L7 7L7 0ZM1 1L1 6L6 6L6 1ZM2 2L2 5L5 5L5 2ZM14 0L14 7L21 7L21 0ZM15 1L15 6L20 6L20 1ZM16 2L16 5L19 5L19 2ZM0 14L0 21L7 21L7 14ZM1 15L1 20L6 20L6 15ZM2 16L2 19L5 19L5 16Z" fill="#282828"/></g></g></svg>
