<?xml version="1.0" encoding="UTF-8"?>
<svg xmlns="http://www.w3.org/2000/svg" version="1.1" width="400" height="400" viewBox="0 0 400 400"><rect x="0" y="0" width="400" height="400" fill="#f5f5f5"/><g transform="scale(14.815)"><g transform="translate(3,3)"><path fill-rule="evenodd" d="M12 0L12 1L11 1L11 2L10 2L10 1L8 1L8 7L9 7L9 4L10 4L10 5L12 5L12 7L13 7L13 5L12 5L12 4L11 4L11 2L13 2L13 0ZM9 2L9 3L10 3L10 2ZM10 6L10 8L5 8L5 10L6 10L6 11L7 11L7 12L6 12L6 13L8 13L8 16L9 16L9 18L8 18L8 19L9 19L9 21L12 21L12 20L11 20L11 19L9 19L9 18L10 18L10 17L14 17L14 18L12 18L12 19L15 19L15 21L21 21L21 20L20 20L20 19L21 19L21 18L19 18L19 17L21 17L21 16L20 16L20 13L18 13L18 12L16 12L16 11L18 11L18 10L16 10L16 9L19 9L19 10L20 10L20 12L21 12L21 10L20 10L20 8L15 8L15 10L14 10L14 11L15 11L15 13L18 13L18 14L17 14L17 15L16 15L16 16L17 16L17 18L16 18L16 17L15 17L15 14L13 14L13 13L14 13L14 12L13 12L13 11L12 11L12 12L13 12L13 13L12 13L12 15L13 15L13 16L9 16L9 13L10 13L10 10L9 10L9 9L11 9L11 10L12 10L12 9L14 9L14 8L11 8L11 6ZM2 8L2 9L3 9L3 11L2 11L2 10L1 10L1 9L0 9L0 11L2 11L2 12L1 12L1 13L5 13L5 11L4 11L4 9L3 9L3 8ZM6 9L6 10L7 10L7 11L9 11L9 10L7 10L7 9ZM3 11L3 12L4 12L4 11ZM8 12L8 13L9 13L9 12ZM10 14L10 15L11 15L11 14ZM17 15L17 16L19 16L19 15ZM18 18L18 19L19 19L19 18ZM16 19L16 20L17 20L17 19ZM0 0L0 7L7 7L7 0ZM1 1L1 6L6 6L6 1ZM2 2L2 5L5 5L5 2ZM14 0L14 7L21 7L21 0ZM15 1L15 6L20 6L20 1ZM16 2L16 5L19 5L19 2ZM0 14L0 21L7 21L7 14ZM1 15L1 20L6 20L6 15ZM2 16L2 19L5 19L5 16Z" fill="#282828"/></g></g></svg>
