<?xml version="1.0" encoding="UTF-8"?>
<svg xmlns="http://www.w3.org/2000/svg" version="1.1" width="400" height="400" viewBox="0 0 400 400"><rect x="0" y="0" width="400" height="400" fill="#f5f5f5"/><g transform="scale(14.815)"><g transform="translate(3,3)"><path fill-rule="evenodd" d="M10 0L10 1L8 1L8 7L9 7L9 8L5 8L5 9L4 9L4 10L3 10L3 11L2 11L2 10L1 10L1 9L0 9L0 13L3 13L3 12L4 12L4 13L5 13L5 12L6 12L6 13L8 13L8 16L9 16L9 18L8 18L8 19L9 19L9 18L13 18L13 19L12 19L12 21L21 21L21 20L20 20L20 19L21 19L21 18L19 18L19 17L21 17L21 16L20 16L20 13L21 13L21 10L19 10L19 9L20 9L20 8L15 8L15 10L13 10L13 9L14 9L14 8L13 8L13 9L12 9L12 7L13 7L13 6L12 6L12 5L13 5L13 2L10 2L10 1L11 1L11 0ZM12 0L12 1L13 1L13 0ZM9 2L9 3L10 3L10 2ZM11 3L11 4L10 4L10 5L9 5L9 7L10 7L10 8L11 8L11 7L12 7L12 6L11 6L11 4L12 4L12 3ZM10 6L10 7L11 7L11 6ZM2 8L2 9L3 9L3 8ZM5 9L5 10L4 10L4 12L5 12L5 10L8 10L8 11L9 11L9 10L10 10L10 9ZM11 9L11 12L10 12L10 13L9 13L9 12L8 12L8 13L9 13L9 14L10 14L10 13L13 13L13 10L12 10L12 9ZM16 9L16 10L18 10L18 11L16 11L16 12L18 12L18 13L15 13L15 12L14 12L14 13L15 13L15 14L12 14L12 15L11 15L11 16L10 16L10 15L9 15L9 16L10 16L10 17L12 17L12 15L15 15L15 17L16 17L16 18L17 18L17 16L19 16L19 15L17 15L17 14L19 14L19 13L20 13L20 12L19 12L19 10L18 10L18 9ZM6 11L6 12L7 12L7 11ZM16 15L16 16L17 16L17 15ZM13 16L13 17L14 17L14 16ZM18 18L18 19L19 19L19 18ZM10 19L10 20L9 20L9 21L10 21L10 20L11 20L11 19ZM13 19L13 20L15 20L15 19ZM16 19L16 20L17 20L17 19ZM0 0L0 7L7 7L7 0ZM1 1L1 6L6 6L6 1ZM2 2L2 5L5 5L5 2ZM14 0L14 7L21 7L21 0ZM15 1L15 6L20 6L20 1ZM16 2L16 5L19 5L19 2ZM0 14L0 21L7 21L7 14ZM1 15L1 20L6 20L6 15ZM2 16L2 19L5 19L5 16Z" fill="#282828"/></g></g></svg>
