<?xml version="1.0" encoding="UTF-8"?>
<svg xmlns="http://www.w3.org/2000/svg" version="1.1" width="400" height="400" viewBox="0 0 400 400"><rect x="0" y="0" width="400" height="400" fill="#f5f5f5"/><g transform="scale(14.815)"><g transform="translate(3,3)"><path fill-rule="evenodd" d="M8 0L8 1L9 1L9 2L8 2L8 3L9 3L9 4L8 4L8 5L9 5L9 6L8 6L8 8L9 8L9 12L8 12L8 11L7 11L7 10L5 10L5 9L7 9L7 8L5 8L5 9L3 9L3 10L4 10L4 11L3 11L3 12L2 12L2 11L0 11L0 13L1 13L1 12L2 12L2 13L3 13L3 12L4 12L4 13L5 13L5 12L6 12L6 13L7 13L7 12L8 12L8 14L10 14L10 13L12 13L12 14L11 14L11 15L12 15L12 14L13 14L13 13L14 13L14 12L15 12L15 13L18 13L18 17L17 17L17 16L16 16L16 17L14 17L14 16L15 16L15 14L14 14L14 16L12 16L12 17L10 17L10 16L9 16L9 15L8 15L8 16L9 16L9 17L10 17L10 18L9 18L9 19L10 19L10 20L12 20L12 21L14 21L14 19L13 19L13 20L12 20L12 19L11 19L11 18L12 18L12 17L13 17L13 18L15 18L15 21L16 21L16 19L17 19L17 20L18 20L18 21L19 21L19 20L20 20L20 19L21 19L21 18L19 18L19 20L18 20L18 17L19 17L19 16L21 16L21 13L20 13L20 15L19 15L19 13L18 13L18 12L16 12L16 10L18 10L18 9L19 9L19 8L18 8L18 9L17 9L17 8L16 8L16 9L15 9L15 8L14 8L14 9L13 9L13 8L12 8L12 7L13 7L13 6L12 6L12 7L11 7L11 6L10 6L10 5L13 5L13 4L12 4L12 3L11 3L11 2L12 2L12 0L11 0L11 1L9 1L9 0ZM9 2L9 3L10 3L10 4L11 4L11 3L10 3L10 2ZM9 6L9 7L10 7L10 6ZM11 8L11 10L10 10L10 12L9 12L9 13L10 13L10 12L14 12L14 11L12 11L12 10L13 10L13 9L12 9L12 8ZM20 8L20 10L19 10L19 11L20 11L20 10L21 10L21 8ZM1 9L1 10L2 10L2 9ZM14 9L14 10L15 10L15 9ZM4 11L4 12L5 12L5 11ZM6 11L6 12L7 12L7 11ZM16 14L16 15L17 15L17 14ZM16 17L16 18L17 18L17 17ZM0 0L0 7L7 7L7 0ZM1 1L1 6L6 6L6 1ZM2 2L2 5L5 5L5 2ZM14 0L14 7L21 7L21 0ZM15 1L15 6L20 6L20 1ZM16 2L16 5L19 5L19 2ZM0 14L0 21L7 21L7 14ZM1 15L1 20L6 20L6 15ZM2 16L2 19L5 19L5 16Z" fill="#282828"/></g></g></svg>
