<?xml version="1.0" encoding="UTF-8"?>
<svg xmlns="http://www.w3.org/2000/svg" version="1.1" width="400" height="400" viewBox="0 0 400 400"><rect x="0" y="0" width="400" height="400" fill="#f5f5f5"/><g transform="scale(14.815)"><g transform="translate(3,3)"><path fill-rule="evenodd" d="M8 0L8 3L9 3L9 4L10 4L10 5L8 5L8 10L6 10L6 9L7 9L7 8L6 8L6 9L5 9L5 8L2 8L2 9L3 9L3 10L4 10L4 11L5 11L5 12L3 12L3 11L2 11L2 10L0 10L0 11L1 11L1 12L0 12L0 13L7 13L7 12L6 12L6 11L8 11L8 10L9 10L9 11L11 11L11 12L14 12L14 14L13 14L13 13L11 13L11 16L13 16L13 15L14 15L14 16L16 16L16 17L17 17L17 18L18 18L18 17L19 17L19 16L20 16L20 15L21 15L21 14L20 14L20 15L19 15L19 12L18 12L18 10L19 10L19 11L20 11L20 13L21 13L21 11L20 11L20 10L19 10L19 9L21 9L21 8L18 8L18 9L17 9L17 13L18 13L18 17L17 17L17 14L16 14L16 12L15 12L15 11L16 11L16 10L15 10L15 9L16 9L16 8L13 8L13 9L14 9L14 10L12 10L12 9L11 9L11 8L12 8L12 7L13 7L13 6L12 6L12 5L11 5L11 4L13 4L13 2L12 2L12 1L10 1L10 2L12 2L12 3L9 3L9 0ZM9 6L9 7L10 7L10 6ZM11 6L11 7L12 7L12 6ZM10 9L10 10L11 10L11 9ZM5 10L5 11L6 11L6 10ZM14 10L14 11L15 11L15 10ZM8 12L8 14L9 14L9 13L10 13L10 12ZM12 14L12 15L13 15L13 14ZM15 14L15 15L16 15L16 14ZM8 16L8 19L9 19L9 21L11 21L11 20L12 20L12 21L13 21L13 20L12 20L12 19L11 19L11 18L13 18L13 17L11 17L11 18L10 18L10 17L9 17L9 16ZM14 17L14 20L15 20L15 21L16 21L16 20L15 20L15 19L16 19L16 18L15 18L15 17ZM9 18L9 19L10 19L10 18ZM17 19L17 20L18 20L18 21L19 21L19 20L20 20L20 19L19 19L19 20L18 20L18 19ZM0 0L0 7L7 7L7 0ZM1 1L1 6L6 6L6 1ZM2 2L2 5L5 5L5 2ZM14 0L14 7L21 7L21 0ZM15 1L15 6L20 6L20 1ZM16 2L16 5L19 5L19 2ZM0 14L0 21L7 21L7 14ZM1 15L1 20L6 20L6 15ZM2 16L2 19L5 19L5 16Z" fill="#282828"/></g></g></svg>
