<?xml version="1.0" encoding="UTF-8"?>
<svg xmlns="http://www.w3.org/2000/svg" version="1.1" width="400" height="400" viewBox="0 0 400 400"><rect x="0" y="0" width="400" height="400" fill="#f5f5f5"/><g transform="scale(14.815)"><g transform="translate(3,3)"><path fill-rule="evenodd" d="M11 0L11 1L12 1L12 3L11 3L11 2L10 2L10 1L8 1L8 7L9 7L9 8L5 8L5 10L4 10L4 9L3 9L3 8L2 8L2 9L1 9L1 12L0 12L0 13L1 13L1 12L2 12L2 13L3 13L3 11L2 11L2 10L4 10L4 11L5 11L5 12L4 12L4 13L8 13L8 16L10 16L10 17L9 17L9 18L8 18L8 19L9 19L9 18L10 18L10 20L11 20L11 21L12 21L12 20L14 20L14 19L15 19L15 21L21 21L21 20L20 20L20 19L21 19L21 18L19 18L19 17L21 17L21 16L20 16L20 14L21 14L21 11L20 11L20 12L18 12L18 13L17 13L17 12L16 12L16 11L17 11L17 10L16 10L16 9L19 9L19 10L21 10L21 9L20 9L20 8L15 8L15 9L14 9L14 8L13 8L13 6L12 6L12 8L10 8L10 7L11 7L11 4L12 4L12 3L13 3L13 1L12 1L12 0ZM9 2L9 5L10 5L10 2ZM9 6L9 7L10 7L10 6ZM9 8L9 9L6 9L6 10L5 10L5 11L6 11L6 12L8 12L8 13L9 13L9 15L10 15L10 16L11 16L11 17L12 17L12 18L11 18L11 19L12 19L12 18L13 18L13 19L14 19L14 17L13 17L13 16L15 16L15 17L16 17L16 18L17 18L17 16L19 16L19 15L17 15L17 13L15 13L15 15L13 15L13 16L12 16L12 14L14 14L14 13L13 13L13 12L14 12L14 10L13 10L13 9L12 9L12 10L11 10L11 9L10 9L10 8ZM6 10L6 11L8 11L8 12L9 12L9 13L10 13L10 15L11 15L11 14L12 14L12 13L10 13L10 11L11 11L11 10L10 10L10 11L8 11L8 10ZM16 15L16 16L17 16L17 15ZM18 18L18 19L19 19L19 18ZM16 19L16 20L17 20L17 19ZM0 0L0 7L7 7L7 0ZM1 1L1 6L6 6L6 1ZM2 2L2 5L5 5L5 2ZM14 0L14 7L21 7L21 0ZM15 1L15 6L20 6L20 1ZM16 2L16 5L19 5L19 2ZM0 14L0 21L7 21L7 14ZM1 15L1 20L6 20L6 15ZM2 16L2 19L5 19L5 16Z" fill="#282828"/></g></g></svg>
