<?xml version="1.0" encoding="UTF-8"?>
<svg xmlns="http://www.w3.org/2000/svg" version="1.1" width="400" height="400" viewBox="0 0 400 400"><rect x="0" y="0" width="400" height="400" fill="#f5f5f5"/><g transform="scale(14.815)"><g transform="translate(3,3)"><path fill-rule="evenodd" d="M8 0L8 2L10 2L10 3L8 3L8 7L9 7L9 8L10 8L10 9L11 9L11 10L12 10L12 9L13 9L13 10L14 10L14 11L12 11L12 13L13 13L13 14L11 14L11 15L10 15L10 13L11 13L11 11L10 11L10 10L9 10L9 12L6 12L6 11L8 11L8 10L5 10L5 9L4 9L4 8L3 8L3 9L4 9L4 11L5 11L5 12L3 12L3 10L0 10L0 11L2 11L2 12L3 12L3 13L5 13L5 12L6 12L6 13L8 13L8 14L9 14L9 15L10 15L10 16L9 16L9 17L8 17L8 18L9 18L9 21L13 21L13 20L14 20L14 21L15 21L15 20L14 20L14 19L13 19L13 18L12 18L12 20L10 20L10 19L11 19L11 15L13 15L13 14L14 14L14 16L12 16L12 17L14 17L14 18L15 18L15 17L17 17L17 18L16 18L16 21L19 21L19 20L20 20L20 19L21 19L21 16L18 16L18 15L19 15L19 14L20 14L20 15L21 15L21 12L20 12L20 13L19 13L19 14L18 14L18 12L19 12L19 11L20 11L20 9L21 9L21 8L19 8L19 9L18 9L18 8L15 8L15 9L18 9L18 11L17 11L17 12L16 12L16 13L15 13L15 12L14 12L14 11L15 11L15 10L14 10L14 9L13 9L13 5L12 5L12 2L13 2L13 1L12 1L12 0ZM10 1L10 2L12 2L12 1ZM10 3L10 4L9 4L9 7L10 7L10 6L11 6L11 7L12 7L12 6L11 6L11 5L10 5L10 4L11 4L11 3ZM6 8L6 9L7 9L7 8ZM11 8L11 9L12 9L12 8ZM0 12L0 13L1 13L1 12ZM9 12L9 13L10 13L10 12ZM13 12L13 13L14 13L14 12ZM16 14L16 15L17 15L17 14ZM14 16L14 17L15 17L15 16ZM17 16L17 17L18 17L18 16ZM9 17L9 18L10 18L10 17ZM17 18L17 20L18 20L18 19L20 19L20 18ZM0 0L0 7L7 7L7 0ZM1 1L1 6L6 6L6 1ZM2 2L2 5L5 5L5 2ZM14 0L14 7L21 7L21 0ZM15 1L15 6L20 6L20 1ZM16 2L16 5L19 5L19 2ZM0 14L0 21L7 21L7 14ZM1 15L1 20L6 20L6 15ZM2 16L2 19L5 19L5 16Z" fill="#282828"/></g></g></svg>
