<?xml version="1.0" encoding="UTF-8"?>
<svg xmlns="http://www.w3.org/2000/svg" version="1.1" width="400" height="400" viewBox="0 0 400 400"><rect x="0" y="0" width="400" height="400" fill="#f5f5f5"/><g transform="scale(14.815)"><g transform="translate(3,3)"><path fill-rule="evenodd" d="M10 0L10 1L8 1L8 7L9 7L9 8L5 8L5 9L9 9L9 12L11 12L11 10L10 10L10 9L12 9L12 8L10 8L10 7L11 7L11 6L12 6L12 7L13 7L13 6L12 6L12 5L13 5L13 4L12 4L12 3L13 3L13 2L12 2L12 3L10 3L10 2L11 2L11 1L12 1L12 0ZM10 4L10 5L9 5L9 7L10 7L10 5L12 5L12 4ZM2 8L2 9L0 9L0 10L3 10L3 11L0 11L0 12L1 12L1 13L3 13L3 11L4 11L4 13L8 13L8 16L9 16L9 13L8 13L8 12L5 12L5 11L8 11L8 10L4 10L4 9L3 9L3 8ZM13 8L13 10L12 10L12 11L14 11L14 12L13 12L13 13L14 13L14 14L13 14L13 15L11 15L11 16L10 16L10 17L9 17L9 18L8 18L8 19L9 19L9 20L10 20L10 21L21 21L21 20L20 20L20 19L21 19L21 18L19 18L19 17L21 17L21 16L20 16L20 14L19 14L19 13L20 13L20 11L21 11L21 10L20 10L20 8L15 8L15 9L14 9L14 8ZM16 9L16 10L17 10L17 11L16 11L16 12L18 12L18 13L15 13L15 14L14 14L14 15L13 15L13 16L11 16L11 17L10 17L10 18L12 18L12 19L10 19L10 20L12 20L12 19L13 19L13 20L14 20L14 19L13 19L13 18L14 18L14 17L16 17L16 18L17 18L17 16L19 16L19 15L17 15L17 14L18 14L18 13L19 13L19 11L20 11L20 10L19 10L19 9ZM11 13L11 14L12 14L12 13ZM14 15L14 16L15 16L15 15ZM16 15L16 16L17 16L17 15ZM18 18L18 19L19 19L19 18ZM16 19L16 20L17 20L17 19ZM0 0L0 7L7 7L7 0ZM1 1L1 6L6 6L6 1ZM2 2L2 5L5 5L5 2ZM14 0L14 7L21 7L21 0ZM15 1L15 6L20 6L20 1ZM16 2L16 5L19 5L19 2ZM0 14L0 21L7 21L7 14ZM1 15L1 20L6 20L6 15ZM2 16L2 19L5 19L5 16Z" fill="#282828"/></g></g></svg>
