<?xml version="1.0" encoding="UTF-8"?>
<svg xmlns="http://www.w3.org/2000/svg" version="1.1" width="400" height="400" viewBox="0 0 400 400"><rect x="0" y="0" width="400" height="400" fill="#f5f5f5"/><g transform="scale(14.815)"><g transform="translate(3,3)"><path fill-rule="evenodd" d="M11 0L11 2L12 2L12 3L11 3L11 5L10 5L10 7L9 7L9 6L8 6L8 7L9 7L9 9L8 9L8 8L6 8L6 9L8 9L8 11L7 11L7 10L5 10L5 8L3 8L3 9L2 9L2 10L1 10L1 9L0 9L0 11L1 11L1 12L0 12L0 13L1 13L1 12L2 12L2 13L3 13L3 12L4 12L4 11L7 11L7 12L5 12L5 13L7 13L7 12L8 12L8 11L9 11L9 13L8 13L8 15L10 15L10 18L9 18L9 16L8 16L8 18L9 18L9 19L10 19L10 20L9 20L9 21L10 21L10 20L11 20L11 19L10 19L10 18L11 18L11 17L12 17L12 20L13 20L13 21L14 21L14 20L15 20L15 21L17 21L17 20L18 20L18 21L20 21L20 20L21 20L21 18L19 18L19 19L20 19L20 20L18 20L18 18L17 18L17 17L19 17L19 16L20 16L20 17L21 17L21 13L20 13L20 11L21 11L21 10L20 10L20 9L19 9L19 8L17 8L17 9L14 9L14 12L13 12L13 11L12 11L12 9L13 9L13 8L12 8L12 7L13 7L13 6L12 6L12 7L11 7L11 5L12 5L12 4L13 4L13 0ZM9 1L9 2L8 2L8 4L10 4L10 1ZM10 7L10 8L11 8L11 9L10 9L10 10L9 10L9 11L10 11L10 10L11 10L11 9L12 9L12 8L11 8L11 7ZM2 10L2 11L4 11L4 10ZM16 10L16 11L18 11L18 10ZM19 10L19 11L20 11L20 10ZM11 11L11 12L10 12L10 14L11 14L11 15L12 15L12 17L14 17L14 19L13 19L13 20L14 20L14 19L15 19L15 17L16 17L16 16L18 16L18 14L20 14L20 13L19 13L19 12L17 12L17 13L15 13L15 15L14 15L14 16L13 16L13 15L12 15L12 13L11 13L11 12L12 12L12 11ZM13 13L13 14L14 14L14 13ZM17 13L17 14L18 14L18 13ZM14 16L14 17L15 17L15 16ZM16 19L16 20L17 20L17 19ZM0 0L0 7L7 7L7 0ZM1 1L1 6L6 6L6 1ZM2 2L2 5L5 5L5 2ZM14 0L14 7L21 7L21 0ZM15 1L15 6L20 6L20 1ZM16 2L16 5L19 5L19 2ZM0 14L0 21L7 21L7 14ZM1 15L1 20L6 20L6 15ZM2 16L2 19L5 19L5 16Z" fill="#282828"/></g></g></svg>
