<?xml version="1.0" encoding="UTF-8"?>
<svg xmlns="http://www.w3.org/2000/svg" version="1.1" width="400" height="400" viewBox="0 0 400 400"><rect x="0" y="0" width="400" height="400" fill="#f5f5f5"/><g transform="scale(14.815)"><g transform="translate(3,3)"><path fill-rule="evenodd" d="M10 0L10 1L8 1L8 7L9 7L9 5L10 5L10 4L11 4L11 6L10 6L10 8L11 8L11 6L12 6L12 7L13 7L13 5L12 5L12 4L11 4L11 2L10 2L10 1L11 1L11 0ZM12 0L12 1L13 1L13 0ZM12 2L12 3L13 3L13 2ZM9 3L9 4L10 4L10 3ZM2 8L2 11L1 11L1 13L2 13L2 11L3 11L3 13L5 13L5 12L4 12L4 10L6 10L6 11L9 11L9 12L8 12L8 16L9 16L9 18L8 18L8 19L9 19L9 18L11 18L11 17L12 17L12 16L14 16L14 17L15 17L15 18L13 18L13 19L12 19L12 20L11 20L11 19L10 19L10 20L9 20L9 21L13 21L13 19L15 19L15 21L21 21L21 20L20 20L20 19L21 19L21 18L19 18L19 17L21 17L21 16L20 16L20 14L21 14L21 13L20 13L20 12L21 12L21 10L20 10L20 8L15 8L15 10L14 10L14 8L13 8L13 9L11 9L11 10L10 10L10 9L9 9L9 8L5 8L5 9L4 9L4 10L3 10L3 8ZM0 9L0 10L1 10L1 9ZM6 9L6 10L9 10L9 9ZM16 9L16 10L17 10L17 11L16 11L16 12L18 12L18 11L19 11L19 12L20 12L20 10L18 10L18 9ZM10 11L10 12L9 12L9 14L11 14L11 15L10 15L10 17L11 17L11 15L14 15L14 14L15 14L15 17L16 17L16 18L17 18L17 16L19 16L19 15L17 15L17 14L20 14L20 13L14 13L14 12L13 12L13 11ZM6 12L6 13L7 13L7 12ZM10 12L10 13L12 13L12 12ZM13 13L13 14L14 14L14 13ZM16 15L16 16L17 16L17 15ZM18 18L18 19L19 19L19 18ZM16 19L16 20L17 20L17 19ZM0 0L0 7L7 7L7 0ZM1 1L1 6L6 6L6 1ZM2 2L2 5L5 5L5 2ZM14 0L14 7L21 7L21 0ZM15 1L15 6L20 6L20 1ZM16 2L16 5L19 5L19 2ZM0 14L0 21L7 21L7 14ZM1 15L1 20L6 20L6 15ZM2 16L2 19L5 19L5 16Z" fill="#282828"/></g></g></svg>
