<?xml version="1.0" encoding="UTF-8"?>
<svg xmlns="http://www.w3.org/2000/svg" version="1.1" width="400" height="400" viewBox="0 0 400 400"><rect x="0" y="0" width="400" height="400" fill="#f5f5f5"/><g transform="scale(14.815)"><g transform="translate(3,3)"><path fill-rule="evenodd" d="M8 0L8 2L10 2L10 3L8 3L8 7L9 7L9 9L11 9L11 10L13 10L13 11L11 11L11 13L10 13L10 12L9 12L9 13L8 13L8 14L9 14L9 15L10 15L10 14L11 14L11 15L13 15L13 16L10 16L10 17L8 17L8 18L9 18L9 21L10 21L10 19L11 19L11 21L12 21L12 20L13 20L13 18L14 18L14 19L15 19L15 17L17 17L17 18L16 18L16 21L19 21L19 20L20 20L20 19L21 19L21 16L18 16L18 15L19 15L19 14L20 14L20 15L21 15L21 14L20 14L20 13L17 13L17 12L18 12L18 11L19 11L19 10L21 10L21 8L19 8L19 9L18 9L18 8L15 8L15 9L17 9L17 10L18 10L18 11L17 11L17 12L16 12L16 13L15 13L15 12L14 12L14 13L13 13L13 11L14 11L14 10L13 10L13 9L11 9L11 8L12 8L12 7L13 7L13 2L12 2L12 1L13 1L13 0L11 0L11 2L10 2L10 1L9 1L9 0ZM11 2L11 4L12 4L12 2ZM9 5L9 7L10 7L10 6L11 6L11 7L12 7L12 5ZM3 8L3 9L4 9L4 10L2 10L2 11L3 11L3 13L5 13L5 12L6 12L6 13L7 13L7 12L8 12L8 11L10 11L10 10L8 10L8 11L7 11L7 10L6 10L6 9L7 9L7 8L6 8L6 9L4 9L4 8ZM0 9L0 10L1 10L1 9ZM4 10L4 12L5 12L5 11L6 11L6 12L7 12L7 11L6 11L6 10ZM0 11L0 13L2 13L2 12L1 12L1 11ZM20 11L20 12L21 12L21 11ZM9 13L9 14L10 14L10 13ZM12 13L12 14L13 14L13 15L14 15L14 14L15 14L15 13L14 13L14 14L13 14L13 13ZM16 14L16 15L17 15L17 14ZM14 16L14 17L15 17L15 16ZM17 16L17 17L18 17L18 16ZM17 18L17 20L18 20L18 19L20 19L20 18ZM14 20L14 21L15 21L15 20ZM0 0L0 7L7 7L7 0ZM1 1L1 6L6 6L6 1ZM2 2L2 5L5 5L5 2ZM14 0L14 7L21 7L21 0ZM15 1L15 6L20 6L20 1ZM16 2L16 5L19 5L19 2ZM0 14L0 21L7 21L7 14ZM1 15L1 20L6 20L6 15ZM2 16L2 19L5 19L5 16Z" fill="#282828"/></g></g></svg>
