<?xml version="1.0" encoding="UTF-8"?>
<svg xmlns="http://www.w3.org/2000/svg" version="1.1" width="400" height="400" viewBox="0 0 400 400"><rect x="0" y="0" width="400" height="400" fill="#f5f5f5"/><g transform="scale(14.815)"><g transform="translate(3,3)"><path fill-rule="evenodd" d="M8 0L8 2L9 2L9 3L8 3L8 7L9 7L9 8L10 8L10 7L11 7L11 8L13 8L13 6L12 6L12 7L11 7L11 6L10 6L10 5L9 5L9 3L10 3L10 4L12 4L12 5L13 5L13 3L11 3L11 2L12 2L12 0ZM10 1L10 2L11 2L11 1ZM9 6L9 7L10 7L10 6ZM3 8L3 9L0 9L0 10L2 10L2 11L3 11L3 12L2 12L2 13L5 13L5 12L4 12L4 10L5 10L5 9L4 9L4 8ZM6 8L6 9L7 9L7 8ZM15 8L15 9L13 9L13 10L12 10L12 9L11 9L11 10L10 10L10 11L9 11L9 10L6 10L6 11L8 11L8 14L9 14L9 17L8 17L8 18L9 18L9 21L13 21L13 20L15 20L15 19L13 19L13 15L14 15L14 14L11 14L11 15L10 15L10 13L13 13L13 12L14 12L14 13L15 13L15 17L14 17L14 18L15 18L15 17L17 17L17 18L16 18L16 21L19 21L19 20L20 20L20 19L21 19L21 16L18 16L18 15L19 15L19 14L17 14L17 12L16 12L16 13L15 13L15 9L18 9L18 10L17 10L17 11L21 11L21 8L19 8L19 9L18 9L18 8ZM19 9L19 10L20 10L20 9ZM0 11L0 12L1 12L1 11ZM6 12L6 13L7 13L7 12ZM9 12L9 13L10 13L10 12ZM19 12L19 13L20 13L20 15L21 15L21 12ZM16 14L16 15L17 15L17 14ZM11 15L11 16L10 16L10 17L11 17L11 18L10 18L10 20L12 20L12 19L11 19L11 18L12 18L12 15ZM17 16L17 17L18 17L18 16ZM17 18L17 20L18 20L18 19L20 19L20 18ZM0 0L0 7L7 7L7 0ZM1 1L1 6L6 6L6 1ZM2 2L2 5L5 5L5 2ZM14 0L14 7L21 7L21 0ZM15 1L15 6L20 6L20 1ZM16 2L16 5L19 5L19 2ZM0 14L0 21L7 21L7 14ZM1 15L1 20L6 20L6 15ZM2 16L2 19L5 19L5 16Z" fill="#282828"/></g></g></svg>
