<?xml version="1.0" encoding="UTF-8"?>
<svg xmlns="http://www.w3.org/2000/svg" version="1.1" width="400" height="400" viewBox="0 0 400 400"><rect x="0" y="0" width="400" height="400" fill="#ffffff"/><g transform="scale(7.843)"><g transform="translate(15,15)"><path fill-rule="evenodd" d="M8 0L8 1L10 1L10 2L8 2L8 3L10 3L10 4L8 4L8 5L11 5L11 6L10 6L10 9L7 9L7 8L5 8L5 9L4 9L4 10L3 10L3 9L0 9L0 11L1 11L1 13L5 13L5 12L6 12L6 13L7 13L7 12L6 12L6 11L8 11L8 10L9 10L9 12L8 12L8 14L9 14L9 15L8 15L8 16L9 16L9 17L10 17L10 18L9 18L9 20L10 20L10 18L11 18L11 19L12 19L12 20L11 20L11 21L12 21L12 20L13 20L13 21L14 21L14 20L15 20L15 21L16 21L16 19L17 19L17 20L18 20L18 21L19 21L19 20L20 20L20 19L21 19L21 18L19 18L19 20L18 20L18 17L19 17L19 16L21 16L21 14L20 14L20 15L19 15L19 14L18 14L18 17L17 17L17 16L16 16L16 17L15 17L15 14L11 14L11 13L12 13L12 11L13 11L13 13L18 13L18 12L19 12L19 11L20 11L20 13L21 13L21 11L20 11L20 9L21 9L21 8L20 8L20 9L19 9L19 8L18 8L18 10L17 10L17 8L16 8L16 9L15 9L15 8L14 8L14 9L12 9L12 8L11 8L11 6L12 6L12 7L13 7L13 5L12 5L12 4L13 4L13 3L10 3L10 2L12 2L12 1L11 1L11 0ZM8 6L8 8L9 8L9 6ZM6 9L6 10L7 10L7 9ZM10 9L10 11L11 11L11 9ZM14 9L14 10L13 10L13 11L15 11L15 9ZM16 10L16 12L18 12L18 11L19 11L19 10L18 10L18 11L17 11L17 10ZM2 11L2 12L4 12L4 11ZM9 13L9 14L10 14L10 13ZM16 14L16 15L17 15L17 14ZM10 15L10 17L11 17L11 18L12 18L12 19L13 19L13 20L14 20L14 17L13 17L13 18L12 18L12 17L11 17L11 15ZM12 15L12 16L13 16L13 15ZM16 17L16 18L17 18L17 17ZM0 0L0 7L7 7L7 0ZM1 1L1 6L6 6L6 1ZM2 2L2 5L5 5L5 2ZM14 0L14 7L21 7L21 0ZM15 1L15 6L20 6L20 1ZM16 2L16 5L19 5L19 2ZM0 14L0 21L7 21L7 14ZM1 15L1 20L6 20L6 15ZM2 16L2 19L5 19L5 16Z" fill="#004b96"/></g></g></svg>
