<?xml version="1.0" encoding="UTF-8"?>
<svg xmlns="http://www.w3.org/2000/svg" version="1.1" width="400" height="400" viewBox="0 0 400 400"><rect x="0" y="0" width="400" height="400" fill="#f5f5f5"/><g transform="scale(14.815)"><g transform="translate(3,3)"><path fill-rule="evenodd" d="M10 1L10 3L9 3L9 2L8 2L8 4L9 4L9 5L10 5L10 7L11 7L11 8L10 8L10 9L11 9L11 8L12 8L12 7L13 7L13 6L12 6L12 7L11 7L11 5L12 5L12 3L13 3L13 2L12 2L12 1ZM10 4L10 5L11 5L11 4ZM8 6L8 7L9 7L9 6ZM3 8L3 9L1 9L1 10L0 10L0 13L1 13L1 11L2 11L2 10L3 10L3 11L4 11L4 10L5 10L5 8ZM6 8L6 9L8 9L8 15L9 15L9 16L8 16L8 18L9 18L9 19L11 19L11 17L12 17L12 18L13 18L13 19L12 19L12 20L13 20L13 21L17 21L17 20L18 20L18 21L20 21L20 20L21 20L21 18L19 18L19 19L20 19L20 20L18 20L18 18L17 18L17 17L19 17L19 16L20 16L20 17L21 17L21 13L17 13L17 11L16 11L16 10L17 10L17 9L19 9L19 10L18 10L18 12L20 12L20 11L19 11L19 10L21 10L21 9L19 9L19 8L17 8L17 9L13 9L13 10L12 10L12 11L11 11L11 12L10 12L10 13L9 13L9 11L10 11L10 10L9 10L9 9L8 9L8 8ZM6 10L6 11L7 11L7 10ZM13 11L13 13L14 13L14 16L15 16L15 17L13 17L13 18L14 18L14 19L13 19L13 20L14 20L14 19L15 19L15 17L16 17L16 16L18 16L18 14L17 14L17 13L15 13L15 11ZM2 12L2 13L3 13L3 12ZM4 12L4 13L7 13L7 12ZM10 13L10 14L9 14L9 15L10 15L10 17L9 17L9 18L10 18L10 17L11 17L11 16L12 16L12 15L13 15L13 14L12 14L12 13ZM10 14L10 15L12 15L12 14ZM16 19L16 20L17 20L17 19ZM10 20L10 21L11 21L11 20ZM0 0L0 7L7 7L7 0ZM1 1L1 6L6 6L6 1ZM2 2L2 5L5 5L5 2ZM14 0L14 7L21 7L21 0ZM15 1L15 6L20 6L20 1ZM16 2L16 5L19 5L19 2ZM0 14L0 21L7 21L7 14ZM1 15L1 20L6 20L6 15ZM2 16L2 19L5 19L5 16Z" fill="#282828"/></g></g></svg>
