<?xml version="1.0" encoding="UTF-8"?>
<svg xmlns="http://www.w3.org/2000/svg" version="1.1" width="400" height="400" viewBox="0 0 400 400"><rect x="0" y="0" width="400" height="400" fill="#f5f5f5"/><g transform="scale(14.815)"><g transform="translate(3,3)"><path fill-rule="evenodd" d="M11 0L11 2L9 2L9 1L8 1L8 7L9 7L9 4L10 4L10 5L11 5L11 2L13 2L13 1L12 1L12 0ZM12 3L12 4L13 4L13 3ZM12 5L12 7L13 7L13 5ZM10 6L10 7L11 7L11 6ZM2 8L2 9L3 9L3 8ZM5 8L5 10L2 10L2 11L3 11L3 12L1 12L1 13L3 13L3 12L4 12L4 13L5 13L5 12L6 12L6 13L8 13L8 16L9 16L9 17L10 17L10 20L9 20L9 21L10 21L10 20L11 20L11 17L10 17L10 16L12 16L12 17L13 17L13 18L12 18L12 19L13 19L13 20L12 20L12 21L14 21L14 20L15 20L15 21L21 21L21 20L20 20L20 19L21 19L21 18L19 18L19 17L21 17L21 16L20 16L20 14L21 14L21 13L20 13L20 12L21 12L21 11L19 11L19 13L18 13L18 14L17 14L17 15L16 15L16 16L17 16L17 18L16 18L16 17L15 17L15 13L17 13L17 12L16 12L16 11L18 11L18 9L19 9L19 10L21 10L21 9L20 9L20 8L15 8L15 9L14 9L14 8L10 8L10 9L9 9L9 8ZM0 9L0 10L1 10L1 9ZM6 9L6 10L5 10L5 11L6 11L6 12L8 12L8 13L9 13L9 16L10 16L10 14L12 14L12 16L13 16L13 17L14 17L14 18L13 18L13 19L14 19L14 18L15 18L15 17L14 17L14 16L13 16L13 14L12 14L12 12L13 12L13 13L15 13L15 12L13 12L13 11L14 11L14 9L13 9L13 11L12 11L12 9L10 9L10 10L9 10L9 9L8 9L8 10L9 10L9 12L8 12L8 11L6 11L6 10L7 10L7 9ZM16 9L16 10L17 10L17 9ZM10 11L10 12L9 12L9 13L10 13L10 12L12 12L12 11ZM17 15L17 16L19 16L19 15ZM8 18L8 19L9 19L9 18ZM18 18L18 19L19 19L19 18ZM16 19L16 20L17 20L17 19ZM0 0L0 7L7 7L7 0ZM1 1L1 6L6 6L6 1ZM2 2L2 5L5 5L5 2ZM14 0L14 7L21 7L21 0ZM15 1L15 6L20 6L20 1ZM16 2L16 5L19 5L19 2ZM0 14L0 21L7 21L7 14ZM1 15L1 20L6 20L6 15ZM2 16L2 19L5 19L5 16Z" fill="#282828"/></g></g></svg>
