<?xml version="1.0" encoding="UTF-8"?>
<svg xmlns="http://www.w3.org/2000/svg" version="1.1" width="400" height="400" viewBox="0 0 400 400"><rect x="0" y="0" width="400" height="400" fill="#f5f5f5"/><g transform="scale(14.815)"><g transform="translate(3,3)"><path fill-rule="evenodd" d="M10 0L10 1L9 1L9 2L8 2L8 4L10 4L10 5L9 5L9 6L8 6L8 7L9 7L9 9L8 9L8 8L6 8L6 9L5 9L5 8L3 8L3 9L1 9L1 11L0 11L0 13L3 13L3 12L5 12L5 13L8 13L8 15L10 15L10 13L8 13L8 12L11 12L11 13L12 13L12 14L11 14L11 15L12 15L12 16L13 16L13 17L12 17L12 19L13 19L13 17L14 17L14 18L15 18L15 19L14 19L14 20L15 20L15 21L17 21L17 20L18 20L18 21L20 21L20 20L21 20L21 18L19 18L19 19L20 19L20 20L18 20L18 18L17 18L17 17L19 17L19 16L20 16L20 17L21 17L21 14L20 14L20 13L21 13L21 12L19 12L19 14L18 14L18 16L16 16L16 17L14 17L14 16L15 16L15 13L17 13L17 11L18 11L18 9L19 9L19 11L21 11L21 10L20 10L20 9L19 9L19 8L17 8L17 9L14 9L14 11L13 11L13 6L12 6L12 7L11 7L11 6L10 6L10 5L11 5L11 3L12 3L12 2L13 2L13 0ZM10 1L10 2L9 2L9 3L11 3L11 1ZM12 4L12 5L13 5L13 4ZM9 6L9 7L10 7L10 6ZM10 8L10 9L11 9L11 8ZM3 9L3 10L2 10L2 11L3 11L3 10L5 10L5 9ZM6 9L6 10L8 10L8 9ZM9 10L9 11L12 11L12 10ZM16 10L16 11L17 11L17 10ZM5 11L5 12L7 12L7 11ZM14 11L14 12L13 12L13 13L14 13L14 12L15 12L15 11ZM13 15L13 16L14 16L14 15ZM8 16L8 18L9 18L9 19L11 19L11 17L10 17L10 16ZM9 17L9 18L10 18L10 17ZM16 19L16 20L17 20L17 19ZM10 20L10 21L13 21L13 20ZM0 0L0 7L7 7L7 0ZM1 1L1 6L6 6L6 1ZM2 2L2 5L5 5L5 2ZM14 0L14 7L21 7L21 0ZM15 1L15 6L20 6L20 1ZM16 2L16 5L19 5L19 2ZM0 14L0 21L7 21L7 14ZM1 15L1 20L6 20L6 15ZM2 16L2 19L5 19L5 16Z" fill="#282828"/></g></g></svg>
