<?xml version="1.0" encoding="UTF-8"?>
<svg xmlns="http://www.w3.org/2000/svg" version="1.1" width="400" height="400" viewBox="0 0 400 400"><rect x="0" y="0" width="400" height="400" fill="#f5f5f5"/><g transform="scale(14.815)"><g transform="translate(3,3)"><path fill-rule="evenodd" d="M8 0L8 2L10 2L10 3L8 3L8 7L9 7L9 6L10 6L10 7L11 7L11 8L9 8L9 10L8 10L8 9L7 9L7 8L6 8L6 9L5 9L5 10L4 10L4 8L3 8L3 9L2 9L2 11L3 11L3 12L4 12L4 13L5 13L5 12L6 12L6 13L7 13L7 12L6 12L6 11L7 11L7 10L8 10L8 11L9 11L9 10L11 10L11 12L12 12L12 13L11 13L11 14L12 14L12 18L11 18L11 16L10 16L10 14L9 14L9 13L10 13L10 12L9 12L9 13L8 13L8 14L9 14L9 17L8 17L8 18L9 18L9 17L10 17L10 18L11 18L11 19L10 19L10 20L9 20L9 21L10 21L10 20L12 20L12 21L14 21L14 20L15 20L15 19L14 19L14 20L13 20L13 18L14 18L14 17L17 17L17 18L16 18L16 21L19 21L19 20L20 20L20 19L21 19L21 16L18 16L18 15L19 15L19 14L20 14L20 15L21 15L21 14L20 14L20 13L21 13L21 12L20 12L20 11L21 11L21 8L19 8L19 9L18 9L18 8L15 8L15 9L14 9L14 10L11 10L11 8L12 8L12 9L13 9L13 6L12 6L12 4L13 4L13 0L10 0L10 1L9 1L9 0ZM10 1L10 2L11 2L11 3L12 3L12 1ZM9 4L9 5L10 5L10 4ZM11 6L11 7L12 7L12 6ZM0 9L0 12L1 12L1 13L2 13L2 12L1 12L1 9ZM6 9L6 10L5 10L5 11L6 11L6 10L7 10L7 9ZM15 9L15 10L14 10L14 11L13 11L13 12L14 12L14 11L15 11L15 13L13 13L13 14L15 14L15 13L16 13L16 12L17 12L17 11L18 11L18 10L17 10L17 9ZM3 10L3 11L4 11L4 10ZM19 10L19 11L20 11L20 10ZM18 12L18 14L19 14L19 12ZM16 14L16 15L17 15L17 14ZM13 16L13 17L14 17L14 16ZM17 16L17 17L18 17L18 16ZM17 18L17 20L18 20L18 19L20 19L20 18ZM0 0L0 7L7 7L7 0ZM1 1L1 6L6 6L6 1ZM2 2L2 5L5 5L5 2ZM14 0L14 7L21 7L21 0ZM15 1L15 6L20 6L20 1ZM16 2L16 5L19 5L19 2ZM0 14L0 21L7 21L7 14ZM1 15L1 20L6 20L6 15ZM2 16L2 19L5 19L5 16Z" fill="#282828"/></g></g></svg>
