<?xml version="1.0" encoding="UTF-8"?>
<svg xmlns="http://www.w3.org/2000/svg" version="1.1" width="400" height="400" viewBox="0 0 400 400"><rect x="0" y="0" width="400" height="400" fill="#ffffff"/><g transform="scale(7.843)"><g transform="translate(15,15)"><path fill-rule="evenodd" d="M9 0L9 1L8 1L8 2L9 2L9 3L10 3L10 7L9 7L9 5L8 5L8 8L4 8L4 9L2 9L2 10L1 10L1 9L0 9L0 11L4 11L4 12L2 12L2 13L4 13L4 12L5 12L5 11L4 11L4 9L5 9L5 10L6 10L6 11L7 11L7 10L6 10L6 9L8 9L8 12L6 12L6 13L8 13L8 17L9 17L9 18L10 18L10 17L11 17L11 19L10 19L10 20L9 20L9 21L12 21L12 18L13 18L13 21L15 21L15 19L16 19L16 20L17 20L17 19L18 19L18 21L21 21L21 20L20 20L20 19L19 19L19 18L21 18L21 16L20 16L20 15L21 15L21 14L20 14L20 15L19 15L19 16L18 16L18 14L19 14L19 13L20 13L20 11L21 11L21 9L20 9L20 8L19 8L19 10L16 10L16 8L14 8L14 9L15 9L15 10L14 10L14 12L13 12L13 10L12 10L12 8L13 8L13 6L12 6L12 5L13 5L13 4L11 4L11 1L10 1L10 0ZM12 0L12 1L13 1L13 0ZM12 2L12 3L13 3L13 2ZM11 6L11 7L10 7L10 8L11 8L11 7L12 7L12 6ZM8 8L8 9L9 9L9 12L8 12L8 13L9 13L9 12L10 12L10 10L11 10L11 14L9 14L9 15L10 15L10 16L9 16L9 17L10 17L10 16L11 16L11 14L13 14L13 15L12 15L12 17L13 17L13 16L14 16L14 15L16 15L16 16L17 16L17 17L16 17L16 18L17 18L17 17L18 17L18 18L19 18L19 17L18 17L18 16L17 16L17 14L18 14L18 13L19 13L19 12L18 12L18 11L17 11L17 12L16 12L16 11L15 11L15 14L13 14L13 13L12 13L12 10L11 10L11 9L9 9L9 8ZM0 12L0 13L1 13L1 12ZM17 12L17 13L18 13L18 12ZM0 0L0 7L7 7L7 0ZM1 1L1 6L6 6L6 1ZM2 2L2 5L5 5L5 2ZM14 0L14 7L21 7L21 0ZM15 1L15 6L20 6L20 1ZM16 2L16 5L19 5L19 2ZM0 14L0 21L7 21L7 14ZM1 15L1 20L6 20L6 15ZM2 16L2 19L5 19L5 16Z" fill="#004b96"/></g></g></svg>
