<?xml version="1.0" encoding="UTF-8"?>
<svg xmlns="http://www.w3.org/2000/svg" version="1.1" width="400" height="400" viewBox="0 0 400 400"><rect x="0" y="0" width="400" height="400" fill="#f5f5f5"/><g transform="scale(14.815)"><g transform="translate(3,3)"><path fill-rule="evenodd" d="M8 0L8 1L9 1L9 0ZM10 0L10 1L12 1L12 2L11 2L11 3L10 3L10 2L8 2L8 3L10 3L10 4L8 4L8 5L9 5L9 6L8 6L8 8L10 8L10 9L9 9L9 10L8 10L8 9L7 9L7 8L5 8L5 9L3 9L3 10L2 10L2 9L1 9L1 10L0 10L0 11L1 11L1 12L3 12L3 13L4 13L4 12L6 12L6 13L7 13L7 12L8 12L8 11L9 11L9 12L10 12L10 10L12 10L12 11L11 11L11 13L10 13L10 14L9 14L9 13L8 13L8 14L9 14L9 15L8 15L8 16L10 16L10 18L9 18L9 19L10 19L10 18L11 18L11 19L14 19L14 18L15 18L15 21L16 21L16 19L17 19L17 20L18 20L18 21L19 21L19 20L20 20L20 19L21 19L21 18L19 18L19 20L18 20L18 17L19 17L19 16L21 16L21 12L19 12L19 11L20 11L20 10L21 10L21 8L20 8L20 10L19 10L19 11L18 11L18 9L19 9L19 8L18 8L18 9L17 9L17 8L16 8L16 9L15 9L15 8L14 8L14 9L15 9L15 10L13 10L13 9L11 9L11 8L12 8L12 7L13 7L13 5L11 5L11 4L13 4L13 3L12 3L12 2L13 2L13 0ZM9 6L9 7L10 7L10 8L11 8L11 7L12 7L12 6L11 6L11 7L10 7L10 6ZM6 9L6 10L7 10L7 9ZM1 10L1 11L2 11L2 10ZM16 10L16 12L18 12L18 14L17 14L17 13L15 13L15 12L14 12L14 11L12 11L12 12L13 12L13 14L12 14L12 13L11 13L11 15L10 15L10 16L11 16L11 18L12 18L12 17L13 17L13 18L14 18L14 17L16 17L16 18L17 18L17 17L18 17L18 14L19 14L19 15L20 15L20 14L19 14L19 12L18 12L18 11L17 11L17 10ZM6 11L6 12L7 12L7 11ZM14 13L14 14L13 14L13 15L12 15L12 16L14 16L14 14L15 14L15 13ZM16 14L16 15L17 15L17 14ZM16 16L16 17L17 17L17 16ZM9 20L9 21L11 21L11 20ZM0 0L0 7L7 7L7 0ZM1 1L1 6L6 6L6 1ZM2 2L2 5L5 5L5 2ZM14 0L14 7L21 7L21 0ZM15 1L15 6L20 6L20 1ZM16 2L16 5L19 5L19 2ZM0 14L0 21L7 21L7 14ZM1 15L1 20L6 20L6 15ZM2 16L2 19L5 19L5 16Z" fill="#282828"/></g></g></svg>
