<?xml version="1.0" encoding="UTF-8"?>
<svg xmlns="http://www.w3.org/2000/svg" version="1.1" width="400" height="400" viewBox="0 0 400 400"><rect x="0" y="0" width="400" height="400" fill="#f5f5f5"/><g transform="scale(14.815)"><g transform="translate(3,3)"><path fill-rule="evenodd" d="M8 0L8 1L9 1L9 3L8 3L8 4L9 4L9 5L10 5L10 8L8 8L8 9L10 9L10 8L11 8L11 9L12 9L12 8L11 8L11 5L12 5L12 1L11 1L11 0ZM10 2L10 4L11 4L11 2ZM8 6L8 7L9 7L9 6ZM12 6L12 7L13 7L13 6ZM2 8L2 9L3 9L3 10L0 10L0 11L3 11L3 12L5 12L5 13L8 13L8 14L11 14L11 15L10 15L10 16L9 16L9 15L8 15L8 17L10 17L10 18L8 18L8 19L9 19L9 20L10 20L10 18L12 18L12 17L13 17L13 18L14 18L14 19L12 19L12 20L11 20L11 21L13 21L13 20L14 20L14 21L15 21L15 20L14 20L14 19L15 19L15 18L14 18L14 17L16 17L16 16L18 16L18 18L20 18L20 19L21 19L21 18L20 18L20 17L21 17L21 16L20 16L20 17L19 17L19 16L18 16L18 15L19 15L19 14L20 14L20 10L18 10L18 8L17 8L17 10L16 10L16 11L17 11L17 12L16 12L16 13L15 13L15 11L13 11L13 10L14 10L14 8L13 8L13 10L12 10L12 11L13 11L13 12L14 12L14 13L13 13L13 14L11 14L11 12L9 12L9 11L10 11L10 10L9 10L9 11L8 11L8 10L6 10L6 9L7 9L7 8L4 8L4 9L3 9L3 8ZM20 8L20 9L21 9L21 8ZM5 11L5 12L8 12L8 11ZM18 11L18 12L19 12L19 11ZM0 12L0 13L1 13L1 12ZM16 13L16 15L18 15L18 14L17 14L17 13ZM13 14L13 15L11 15L11 16L10 16L10 17L12 17L12 16L13 16L13 17L14 17L14 15L15 15L15 14ZM16 18L16 19L17 19L17 18ZM18 19L18 21L19 21L19 19ZM16 20L16 21L17 21L17 20ZM20 20L20 21L21 21L21 20ZM0 0L0 7L7 7L7 0ZM1 1L1 6L6 6L6 1ZM2 2L2 5L5 5L5 2ZM14 0L14 7L21 7L21 0ZM15 1L15 6L20 6L20 1ZM16 2L16 5L19 5L19 2ZM0 14L0 21L7 21L7 14ZM1 15L1 20L6 20L6 15ZM2 16L2 19L5 19L5 16Z" fill="#282828"/></g></g></svg>
