<?xml version="1.0" encoding="UTF-8"?>
<svg xmlns="http://www.w3.org/2000/svg" version="1.1" width="400" height="400" viewBox="0 0 400 400"><rect x="0" y="0" width="400" height="400" fill="#f5f5f5"/><g transform="scale(14.815)"><g transform="translate(3,3)"><path fill-rule="evenodd" d="M8 0L8 1L9 1L9 2L10 2L10 3L8 3L8 4L10 4L10 7L9 7L9 6L8 6L8 7L9 7L9 8L8 8L8 9L7 9L7 8L4 8L4 10L3 10L3 12L2 12L2 10L1 10L1 9L0 9L0 11L1 11L1 12L0 12L0 13L4 13L4 12L6 12L6 13L8 13L8 14L9 14L9 15L8 15L8 17L9 17L9 18L8 18L8 19L9 19L9 18L10 18L10 17L9 17L9 15L12 15L12 16L11 16L11 18L12 18L12 19L14 19L14 18L12 18L12 17L13 17L13 15L12 15L12 14L13 14L13 12L14 12L14 13L15 13L15 14L14 14L14 15L15 15L15 17L16 17L16 16L18 16L18 18L20 18L20 19L21 19L21 18L20 18L20 17L21 17L21 16L20 16L20 17L19 17L19 16L18 16L18 15L19 15L19 13L20 13L20 14L21 14L21 13L20 13L20 9L21 9L21 8L20 8L20 9L19 9L19 10L18 10L18 11L17 11L17 10L16 10L16 11L17 11L17 12L16 12L16 13L15 13L15 12L14 12L14 11L15 11L15 10L14 10L14 8L13 8L13 9L12 9L12 7L13 7L13 6L12 6L12 7L11 7L11 4L12 4L12 5L13 5L13 2L12 2L12 3L11 3L11 0ZM12 0L12 1L13 1L13 0ZM2 8L2 9L3 9L3 8ZM9 8L9 11L8 11L8 10L7 10L7 9L5 9L5 11L6 11L6 12L7 12L7 11L8 11L8 12L9 12L9 11L10 11L10 10L11 10L11 11L12 11L12 12L10 12L10 13L11 13L11 14L12 14L12 12L13 12L13 11L12 11L12 10L11 10L11 9L10 9L10 8ZM17 8L17 9L18 9L18 8ZM6 10L6 11L7 11L7 10ZM18 11L18 12L19 12L19 11ZM16 13L16 15L18 15L18 14L17 14L17 13ZM16 18L16 19L17 19L17 18ZM18 19L18 21L19 21L19 19ZM9 20L9 21L10 21L10 20ZM11 20L11 21L13 21L13 20ZM16 20L16 21L17 21L17 20ZM20 20L20 21L21 21L21 20ZM0 0L0 7L7 7L7 0ZM1 1L1 6L6 6L6 1ZM2 2L2 5L5 5L5 2ZM14 0L14 7L21 7L21 0ZM15 1L15 6L20 6L20 1ZM16 2L16 5L19 5L19 2ZM0 14L0 21L7 21L7 14ZM1 15L1 20L6 20L6 15ZM2 16L2 19L5 19L5 16Z" fill="#282828"/></g></g></svg>
