<?xml version="1.0" encoding="UTF-8"?>
<svg xmlns="http://www.w3.org/2000/svg" version="1.1" width="400" height="400" viewBox="0 0 400 400"><rect x="0" y="0" width="400" height="400" fill="#f5f5f5"/><g transform="scale(14.815)"><g transform="translate(3,3)"><path fill-rule="evenodd" d="M8 0L8 1L9 1L9 2L8 2L8 3L9 3L9 2L11 2L11 1L10 1L10 0ZM12 0L12 1L13 1L13 0ZM12 2L12 3L10 3L10 4L11 4L11 6L10 6L10 9L11 9L11 10L13 10L13 9L12 9L12 8L11 8L11 6L12 6L12 7L13 7L13 6L12 6L12 5L13 5L13 4L12 4L12 3L13 3L13 2ZM8 4L8 5L9 5L9 4ZM8 6L8 8L9 8L9 6ZM5 8L5 9L2 9L2 10L1 10L1 9L0 9L0 10L1 10L1 11L0 11L0 13L1 13L1 12L2 12L2 11L3 11L3 10L6 10L6 11L7 11L7 12L5 12L5 11L4 11L4 12L3 12L3 13L7 13L7 12L8 12L8 14L11 14L11 16L9 16L9 15L8 15L8 16L9 16L9 17L11 17L11 16L12 16L12 17L13 17L13 18L9 18L9 19L13 19L13 18L14 18L14 17L15 17L15 19L14 19L14 21L16 21L16 19L17 19L17 20L18 20L18 21L19 21L19 20L20 20L20 19L21 19L21 18L19 18L19 20L18 20L18 17L19 17L19 16L21 16L21 14L20 14L20 12L21 12L21 11L20 11L20 10L19 10L19 8L18 8L18 10L17 10L17 8L16 8L16 9L15 9L15 8L14 8L14 9L15 9L15 12L14 12L14 13L13 13L13 11L12 11L12 12L11 12L11 11L10 11L10 10L9 10L9 9L8 9L8 10L9 10L9 11L7 11L7 10L6 10L6 9L7 9L7 8ZM20 8L20 9L21 9L21 8ZM16 10L16 12L17 12L17 13L15 13L15 14L14 14L14 15L13 15L13 16L14 16L14 15L15 15L15 17L16 17L16 18L17 18L17 17L18 17L18 14L19 14L19 15L20 15L20 14L19 14L19 12L20 12L20 11L19 11L19 10L18 10L18 11L17 11L17 10ZM9 11L9 12L10 12L10 13L11 13L11 14L12 14L12 13L11 13L11 12L10 12L10 11ZM18 11L18 12L19 12L19 11ZM16 14L16 15L17 15L17 14ZM16 16L16 17L17 17L17 16ZM9 20L9 21L10 21L10 20ZM12 20L12 21L13 21L13 20ZM0 0L0 7L7 7L7 0ZM1 1L1 6L6 6L6 1ZM2 2L2 5L5 5L5 2ZM14 0L14 7L21 7L21 0ZM15 1L15 6L20 6L20 1ZM16 2L16 5L19 5L19 2ZM0 14L0 21L7 21L7 14ZM1 15L1 20L6 20L6 15ZM2 16L2 19L5 19L5 16Z" fill="#282828"/></g></g></svg>
