<?xml version="1.0" encoding="UTF-8"?>
<svg xmlns="http://www.w3.org/2000/svg" version="1.1" width="400" height="400" viewBox="0 0 400 400"><rect x="0" y="0" width="400" height="400" fill="#f5f5f5"/><g transform="scale(14.815)"><g transform="translate(3,3)"><path fill-rule="evenodd" d="M8 0L8 2L10 2L10 3L11 3L11 4L10 4L10 5L12 5L12 3L11 3L11 2L12 2L12 1L11 1L11 2L10 2L10 1L9 1L9 0ZM8 3L8 7L9 7L9 8L10 8L10 9L9 9L9 10L8 10L8 11L7 11L7 10L5 10L5 11L4 11L4 8L3 8L3 9L0 9L0 13L5 13L5 11L7 11L7 12L6 12L6 13L7 13L7 12L8 12L8 14L9 14L9 17L8 17L8 18L9 18L9 21L10 21L10 19L11 19L11 20L14 20L14 21L15 21L15 20L14 20L14 19L11 19L11 18L13 18L13 16L14 16L14 15L13 15L13 12L14 12L14 13L15 13L15 17L14 17L14 18L15 18L15 17L17 17L17 18L16 18L16 21L19 21L19 20L20 20L20 19L21 19L21 16L18 16L18 15L19 15L19 14L20 14L20 15L21 15L21 13L20 13L20 12L21 12L21 11L20 11L20 10L21 10L21 8L19 8L19 9L18 9L18 8L15 8L15 9L14 9L14 10L13 10L13 9L12 9L12 10L11 10L11 8L13 8L13 6L12 6L12 7L11 7L11 6L10 6L10 7L9 7L9 3ZM10 7L10 8L11 8L11 7ZM6 8L6 9L7 9L7 8ZM15 9L15 13L16 13L16 12L17 12L17 14L16 14L16 15L17 15L17 14L18 14L18 12L19 12L19 11L18 11L18 10L17 10L17 9ZM19 9L19 10L20 10L20 9ZM2 10L2 12L4 12L4 11L3 11L3 10ZM9 10L9 11L8 11L8 12L9 12L9 14L10 14L10 15L11 15L11 16L10 16L10 17L12 17L12 16L13 16L13 15L11 15L11 14L12 14L12 11L11 11L11 10ZM10 11L10 12L11 12L11 11ZM17 11L17 12L18 12L18 11ZM10 13L10 14L11 14L11 13ZM17 16L17 17L18 17L18 16ZM17 18L17 20L18 20L18 19L20 19L20 18ZM0 0L0 7L7 7L7 0ZM1 1L1 6L6 6L6 1ZM2 2L2 5L5 5L5 2ZM14 0L14 7L21 7L21 0ZM15 1L15 6L20 6L20 1ZM16 2L16 5L19 5L19 2ZM0 14L0 21L7 21L7 14ZM1 15L1 20L6 20L6 15ZM2 16L2 19L5 19L5 16Z" fill="#282828"/></g></g></svg>
