<?xml version="1.0" encoding="UTF-8"?>
<svg xmlns="http://www.w3.org/2000/svg" version="1.1" width="400" height="400" viewBox="0 0 400 400"><rect x="0" y="0" width="400" height="400" fill="#f5f5f5"/><g transform="scale(14.815)"><g transform="translate(3,3)"><path fill-rule="evenodd" d="M8 0L8 1L9 1L9 2L10 2L10 4L11 4L11 6L10 6L10 8L8 8L8 9L7 9L7 8L4 8L4 9L3 9L3 8L2 8L2 9L0 9L0 12L1 12L1 13L4 13L4 12L5 12L5 13L8 13L8 14L9 14L9 15L8 15L8 17L10 17L10 18L8 18L8 19L10 19L10 18L13 18L13 19L14 19L14 18L15 18L15 17L16 17L16 16L18 16L18 18L20 18L20 19L21 19L21 18L20 18L20 17L21 17L21 16L20 16L20 17L19 17L19 16L18 16L18 15L19 15L19 14L20 14L20 13L21 13L21 10L19 10L19 9L18 9L18 8L17 8L17 10L16 10L16 11L17 11L17 10L19 10L19 12L18 12L18 13L19 13L19 14L18 14L18 15L16 15L16 13L17 13L17 12L16 12L16 13L15 13L15 11L14 11L14 10L15 10L15 9L14 9L14 8L13 8L13 5L12 5L12 4L11 4L11 1L10 1L10 0ZM12 1L12 3L13 3L13 1ZM8 3L8 4L9 4L9 3ZM8 6L8 7L9 7L9 6ZM11 6L11 10L9 10L9 9L8 9L8 10L9 10L9 11L8 11L8 13L9 13L9 14L10 14L10 13L11 13L11 16L10 16L10 15L9 15L9 16L10 16L10 17L11 17L11 16L12 16L12 17L13 17L13 16L14 16L14 17L15 17L15 16L14 16L14 15L15 15L15 14L14 14L14 15L13 15L13 16L12 16L12 14L13 14L13 11L12 11L12 10L14 10L14 9L13 9L13 8L12 8L12 6ZM20 8L20 9L21 9L21 8ZM4 9L4 10L5 10L5 9ZM6 9L6 10L7 10L7 9ZM1 10L1 11L2 11L2 12L4 12L4 11L2 11L2 10ZM6 11L6 12L7 12L7 11ZM10 11L10 12L9 12L9 13L10 13L10 12L12 12L12 11ZM16 18L16 19L17 19L17 18ZM11 19L11 20L9 20L9 21L11 21L11 20L12 20L12 21L13 21L13 20L12 20L12 19ZM18 19L18 21L19 21L19 19ZM16 20L16 21L17 21L17 20ZM20 20L20 21L21 21L21 20ZM0 0L0 7L7 7L7 0ZM1 1L1 6L6 6L6 1ZM2 2L2 5L5 5L5 2ZM14 0L14 7L21 7L21 0ZM15 1L15 6L20 6L20 1ZM16 2L16 5L19 5L19 2ZM0 14L0 21L7 21L7 14ZM1 15L1 20L6 20L6 15ZM2 16L2 19L5 19L5 16Z" fill="#282828"/></g></g></svg>
