<?xml version="1.0" encoding="UTF-8"?>
<svg xmlns="http://www.w3.org/2000/svg" version="1.1" width="400" height="400" viewBox="0 0 400 400"><rect x="0" y="0" width="400" height="400" fill="#f5f5f5"/><g transform="scale(14.815)"><g transform="translate(3,3)"><path fill-rule="evenodd" d="M12 0L12 2L11 2L11 1L10 1L10 2L9 2L9 1L8 1L8 2L9 2L9 5L8 5L8 8L4 8L4 9L3 9L3 10L2 10L2 9L0 9L0 11L1 11L1 10L2 10L2 11L3 11L3 10L4 10L4 12L3 12L3 13L4 13L4 12L6 12L6 13L7 13L7 12L6 12L6 11L7 11L7 10L8 10L8 8L9 8L9 5L10 5L10 8L11 8L11 10L9 10L9 11L8 11L8 17L9 17L9 15L10 15L10 17L11 17L11 18L9 18L9 19L11 19L11 20L9 20L9 21L14 21L14 20L15 20L15 19L16 19L16 20L17 20L17 19L18 19L18 21L21 21L21 20L20 20L20 19L19 19L19 18L21 18L21 16L20 16L20 15L21 15L21 13L20 13L20 12L18 12L18 11L19 11L19 10L20 10L20 11L21 11L21 9L20 9L20 8L19 8L19 9L18 9L18 10L16 10L16 8L14 8L14 9L12 9L12 7L13 7L13 6L12 6L12 5L13 5L13 4L12 4L12 3L13 3L13 0ZM10 2L10 3L11 3L11 2ZM11 4L11 5L12 5L12 4ZM11 6L11 7L12 7L12 6ZM6 9L6 10L5 10L5 11L6 11L6 10L7 10L7 9ZM11 10L11 11L10 11L10 13L9 13L9 14L11 14L11 11L12 11L12 10ZM13 10L13 12L12 12L12 13L13 13L13 12L14 12L14 14L13 14L13 15L14 15L14 16L15 16L15 15L16 15L16 16L17 16L17 17L16 17L16 18L17 18L17 17L18 17L18 18L19 18L19 17L18 17L18 16L19 16L19 15L20 15L20 13L18 13L18 12L16 12L16 11L15 11L15 10ZM14 11L14 12L15 12L15 11ZM17 14L17 16L18 16L18 14ZM11 16L11 17L12 17L12 18L14 18L14 19L15 19L15 18L14 18L14 17L12 17L12 16ZM0 0L0 7L7 7L7 0ZM1 1L1 6L6 6L6 1ZM2 2L2 5L5 5L5 2ZM14 0L14 7L21 7L21 0ZM15 1L15 6L20 6L20 1ZM16 2L16 5L19 5L19 2ZM0 14L0 21L7 21L7 14ZM1 15L1 20L6 20L6 15ZM2 16L2 19L5 19L5 16Z" fill="#282828"/></g></g></svg>
