<?xml version="1.0" encoding="UTF-8"?>
<svg xmlns="http://www.w3.org/2000/svg" version="1.1" width="400" height="400" viewBox="0 0 400 400"><rect x="0" y="0" width="400" height="400" fill="#f5f5f5"/><g transform="scale(14.815)"><g transform="translate(3,3)"><path fill-rule="evenodd" d="M9 0L9 1L8 1L8 2L9 2L9 5L8 5L8 8L4 8L4 9L3 9L3 10L2 10L2 11L1 11L1 10L0 10L0 11L1 11L1 12L0 12L0 13L2 13L2 12L3 12L3 11L4 11L4 12L6 12L6 13L8 13L8 17L9 17L9 18L10 18L10 19L9 19L9 20L11 20L11 18L12 18L12 19L13 19L13 21L15 21L15 19L16 19L16 20L17 20L17 19L18 19L18 21L21 21L21 20L20 20L20 19L19 19L19 18L21 18L21 16L20 16L20 15L21 15L21 14L20 14L20 15L19 15L19 16L18 16L18 12L20 12L20 11L21 11L21 10L19 10L19 11L18 11L18 10L16 10L16 8L14 8L14 9L13 9L13 6L12 6L12 5L10 5L10 4L13 4L13 2L11 2L11 3L10 3L10 2L9 2L9 1L10 1L10 0ZM11 0L11 1L13 1L13 0ZM9 5L9 8L8 8L8 9L9 9L9 11L8 11L8 10L7 10L7 9L6 9L6 10L7 10L7 11L6 11L6 12L7 12L7 11L8 11L8 13L9 13L9 11L11 11L11 12L12 12L12 9L9 9L9 8L12 8L12 6L11 6L11 7L10 7L10 5ZM19 8L19 9L20 9L20 8ZM4 9L4 11L5 11L5 9ZM14 9L14 10L13 10L13 11L14 11L14 12L13 12L13 14L15 14L15 15L16 15L16 16L17 16L17 17L16 17L16 18L17 18L17 17L18 17L18 18L19 18L19 17L18 17L18 16L17 16L17 12L16 12L16 11L15 11L15 9ZM14 12L14 13L15 13L15 12ZM10 13L10 14L9 14L9 15L12 15L12 13ZM9 16L9 17L10 17L10 18L11 18L11 17L13 17L13 19L14 19L14 18L15 18L15 16ZM0 0L0 7L7 7L7 0ZM1 1L1 6L6 6L6 1ZM2 2L2 5L5 5L5 2ZM14 0L14 7L21 7L21 0ZM15 1L15 6L20 6L20 1ZM16 2L16 5L19 5L19 2ZM0 14L0 21L7 21L7 14ZM1 15L1 20L6 20L6 15ZM2 16L2 19L5 19L5 16Z" fill="#282828"/></g></g></svg>
