<?xml version="1.0" encoding="UTF-8"?>
<svg xmlns="http://www.w3.org/2000/svg" version="1.1" width="400" height="400" viewBox="0 0 400 400"><rect x="0" y="0" width="400" height="400" fill="#f5f5f5"/><g transform="scale(14.815)"><g transform="translate(3,3)"><path fill-rule="evenodd" d="M12 0L12 1L13 1L13 0ZM8 1L8 7L9 7L9 8L5 8L5 9L4 9L4 10L3 10L3 8L2 8L2 9L1 9L1 11L0 11L0 12L1 12L1 11L2 11L2 12L3 12L3 13L8 13L8 16L9 16L9 14L10 14L10 13L11 13L11 14L12 14L12 15L11 15L11 16L12 16L12 17L13 17L13 18L14 18L14 19L11 19L11 17L10 17L10 19L9 19L9 18L8 18L8 19L9 19L9 21L10 21L10 20L11 20L11 21L14 21L14 19L15 19L15 21L21 21L21 20L20 20L20 19L21 19L21 18L19 18L19 17L21 17L21 16L20 16L20 14L21 14L21 13L20 13L20 12L21 12L21 11L19 11L19 9L20 9L20 10L21 10L21 9L20 9L20 8L15 8L15 10L14 10L14 8L13 8L13 9L12 9L12 13L11 13L11 6L10 6L10 5L11 5L11 4L12 4L12 7L13 7L13 3L11 3L11 4L10 4L10 5L9 5L9 3L10 3L10 2L11 2L11 1ZM9 6L9 7L10 7L10 6ZM9 8L9 9L8 9L8 10L7 10L7 9L6 9L6 10L5 10L5 11L4 11L4 12L8 12L8 13L10 13L10 10L9 10L9 9L10 9L10 8ZM16 9L16 10L18 10L18 9ZM2 10L2 11L3 11L3 10ZM6 10L6 11L7 11L7 10ZM8 10L8 12L9 12L9 10ZM13 10L13 12L14 12L14 14L13 14L13 13L12 13L12 14L13 14L13 15L12 15L12 16L13 16L13 17L16 17L16 18L17 18L17 16L19 16L19 15L17 15L17 13L19 13L19 11L18 11L18 12L17 12L17 11L16 11L16 12L17 12L17 13L15 13L15 11L14 11L14 10ZM13 15L13 16L14 16L14 15ZM16 15L16 16L17 16L17 15ZM18 18L18 19L19 19L19 18ZM16 19L16 20L17 20L17 19ZM0 0L0 7L7 7L7 0ZM1 1L1 6L6 6L6 1ZM2 2L2 5L5 5L5 2ZM14 0L14 7L21 7L21 0ZM15 1L15 6L20 6L20 1ZM16 2L16 5L19 5L19 2ZM0 14L0 21L7 21L7 14ZM1 15L1 20L6 20L6 15ZM2 16L2 19L5 19L5 16Z" fill="#282828"/></g></g></svg>
