<?xml version="1.0" encoding="UTF-8"?>
<svg xmlns="http://www.w3.org/2000/svg" version="1.1" width="400" height="400" viewBox="0 0 400 400"><rect x="0" y="0" width="400" height="400" fill="#f5f5f5"/><g transform="scale(14.815)"><g transform="translate(3,3)"><path fill-rule="evenodd" d="M9 0L9 1L8 1L8 7L9 7L9 3L10 3L10 8L11 8L11 9L10 9L10 10L9 10L9 8L5 8L5 9L4 9L4 10L3 10L3 8L2 8L2 9L0 9L0 10L1 10L1 11L0 11L0 13L1 13L1 11L2 11L2 10L3 10L3 12L2 12L2 13L4 13L4 11L5 11L5 13L7 13L7 12L6 12L6 11L7 11L7 10L6 10L6 11L5 11L5 9L8 9L8 10L9 10L9 11L8 11L8 12L9 12L9 11L10 11L10 10L12 10L12 8L13 8L13 9L14 9L14 10L13 10L13 12L14 12L14 13L17 13L17 15L16 15L16 16L17 16L17 18L16 18L16 17L15 17L15 18L14 18L14 16L15 16L15 15L14 15L14 16L13 16L13 15L12 15L12 16L11 16L11 14L13 14L13 13L11 13L11 14L10 14L10 13L8 13L8 16L9 16L9 18L8 18L8 19L10 19L10 16L11 16L11 18L12 18L12 17L13 17L13 18L14 18L14 19L12 19L12 20L11 20L11 21L14 21L14 20L15 20L15 21L21 21L21 20L20 20L20 19L21 19L21 18L19 18L19 17L21 17L21 16L20 16L20 13L21 13L21 12L20 12L20 11L21 11L21 10L20 10L20 11L19 11L19 13L18 13L18 11L17 11L17 10L16 10L16 9L18 9L18 10L19 10L19 9L20 9L20 8L15 8L15 9L14 9L14 8L13 8L13 5L11 5L11 4L13 4L13 2L12 2L12 3L10 3L10 0ZM11 0L11 1L13 1L13 0ZM11 6L11 8L12 8L12 6ZM14 10L14 12L15 12L15 10ZM11 11L11 12L12 12L12 11ZM16 11L16 12L17 12L17 11ZM17 15L17 16L19 16L19 15ZM18 18L18 19L19 19L19 18ZM16 19L16 20L17 20L17 19ZM9 20L9 21L10 21L10 20ZM0 0L0 7L7 7L7 0ZM1 1L1 6L6 6L6 1ZM2 2L2 5L5 5L5 2ZM14 0L14 7L21 7L21 0ZM15 1L15 6L20 6L20 1ZM16 2L16 5L19 5L19 2ZM0 14L0 21L7 21L7 14ZM1 15L1 20L6 20L6 15ZM2 16L2 19L5 19L5 16Z" fill="#282828"/></g></g></svg>
