<?xml version="1.0" encoding="UTF-8"?>
<svg xmlns="http://www.w3.org/2000/svg" version="1.1" width="400" height="400" viewBox="0 0 400 400"><rect x="0" y="0" width="400" height="400" fill="#f5f5f5"/><g transform="scale(14.815)"><g transform="translate(3,3)"><path fill-rule="evenodd" d="M9 0L9 1L8 1L8 2L9 2L9 1L10 1L10 0ZM11 0L11 2L10 2L10 5L8 5L8 8L4 8L4 9L7 9L7 10L5 10L5 11L4 11L4 10L3 10L3 9L2 9L2 10L3 10L3 11L4 11L4 13L5 13L5 12L6 12L6 13L8 13L8 17L10 17L10 18L9 18L9 20L10 20L10 21L13 21L13 20L10 20L10 19L11 19L11 18L13 18L13 19L16 19L16 20L17 20L17 19L18 19L18 21L21 21L21 20L20 20L20 19L19 19L19 18L21 18L21 16L20 16L20 15L21 15L21 12L19 12L19 10L16 10L16 8L14 8L14 9L15 9L15 10L14 10L14 11L16 11L16 12L17 12L17 16L16 16L16 15L15 15L15 17L10 17L10 15L11 15L11 16L12 16L12 14L13 14L13 16L14 16L14 14L13 14L13 13L14 13L14 12L13 12L13 6L12 6L12 7L11 7L11 6L10 6L10 5L12 5L12 4L13 4L13 3L11 3L11 2L12 2L12 0ZM9 6L9 8L8 8L8 10L7 10L7 11L6 11L6 12L7 12L7 11L8 11L8 12L10 12L10 11L9 11L9 8L10 8L10 9L11 9L11 10L12 10L12 9L11 9L11 7L10 7L10 6ZM19 8L19 9L20 9L20 8ZM0 9L0 12L1 12L1 13L3 13L3 12L2 12L2 11L1 11L1 9ZM20 10L20 11L21 11L21 10ZM11 11L11 14L12 14L12 13L13 13L13 12L12 12L12 11ZM17 11L17 12L18 12L18 16L17 16L17 17L16 17L16 18L17 18L17 17L18 17L18 18L19 18L19 17L18 17L18 16L19 16L19 15L20 15L20 13L19 13L19 12L18 12L18 11ZM9 14L9 15L10 15L10 14ZM0 0L0 7L7 7L7 0ZM1 1L1 6L6 6L6 1ZM2 2L2 5L5 5L5 2ZM14 0L14 7L21 7L21 0ZM15 1L15 6L20 6L20 1ZM16 2L16 5L19 5L19 2ZM0 14L0 21L7 21L7 14ZM1 15L1 20L6 20L6 15ZM2 16L2 19L5 19L5 16Z" fill="#282828"/></g></g></svg>
