<?xml version="1.0" encoding="UTF-8"?>
<svg xmlns="http://www.w3.org/2000/svg" version="1.1" width="400" height="400" viewBox="0 0 400 400"><rect x="0" y="0" width="400" height="400" fill="#f5f5f5"/><g transform="scale(14.815)"><g transform="translate(3,3)"><path fill-rule="evenodd" d="M9 0L9 1L8 1L8 7L9 7L9 6L10 6L10 8L5 8L5 9L4 9L4 12L2 12L2 11L1 11L1 10L3 10L3 8L2 8L2 9L1 9L1 10L0 10L0 11L1 11L1 12L0 12L0 13L5 13L5 9L8 9L8 11L7 11L7 10L6 10L6 11L7 11L7 12L6 12L6 13L7 13L7 12L8 12L8 11L9 11L9 13L8 13L8 16L9 16L9 17L10 17L10 18L12 18L12 16L13 16L13 17L14 17L14 18L13 18L13 19L11 19L11 21L12 21L12 20L13 20L13 21L21 21L21 20L20 20L20 19L21 19L21 18L19 18L19 17L21 17L21 16L20 16L20 14L21 14L21 12L20 12L20 8L15 8L15 9L14 9L14 8L13 8L13 5L12 5L12 2L13 2L13 0L12 0L12 2L11 2L11 3L10 3L10 2L9 2L9 1L11 1L11 0ZM10 5L10 6L11 6L11 7L12 7L12 5ZM10 8L10 10L9 10L9 11L13 11L13 12L10 12L10 14L9 14L9 16L10 16L10 17L11 17L11 16L10 16L10 15L14 15L14 16L15 16L15 17L16 17L16 18L17 18L17 16L19 16L19 15L17 15L17 13L18 13L18 14L20 14L20 13L19 13L19 10L18 10L18 9L16 9L16 10L18 10L18 11L16 11L16 12L17 12L17 13L15 13L15 12L14 12L14 11L15 11L15 10L14 10L14 9L13 9L13 8L12 8L12 9L13 9L13 10L11 10L11 8ZM11 13L11 14L12 14L12 13ZM13 13L13 14L14 14L14 13ZM16 15L16 16L17 16L17 15ZM8 18L8 19L9 19L9 20L10 20L10 19L9 19L9 18ZM14 18L14 20L15 20L15 18ZM18 18L18 19L19 19L19 18ZM16 19L16 20L17 20L17 19ZM0 0L0 7L7 7L7 0ZM1 1L1 6L6 6L6 1ZM2 2L2 5L5 5L5 2ZM14 0L14 7L21 7L21 0ZM15 1L15 6L20 6L20 1ZM16 2L16 5L19 5L19 2ZM0 14L0 21L7 21L7 14ZM1 15L1 20L6 20L6 15ZM2 16L2 19L5 19L5 16Z" fill="#282828"/></g></g></svg>
