<?xml version="1.0" encoding="UTF-8"?>
<svg xmlns="http://www.w3.org/2000/svg" version="1.1" width="400" height="400" viewBox="0 0 400 400"><rect x="0" y="0" width="400" height="400" fill="#f5f5f5"/><g transform="scale(14.815)"><g transform="translate(3,3)"><path fill-rule="evenodd" d="M9 0L9 1L10 1L10 2L9 2L9 4L8 4L8 5L10 5L10 4L11 4L11 3L13 3L13 1L12 1L12 0L11 0L11 1L10 1L10 0ZM11 1L11 2L12 2L12 1ZM12 4L12 5L11 5L11 6L10 6L10 7L11 7L11 8L9 8L9 6L8 6L8 8L6 8L6 9L4 9L4 8L2 8L2 9L4 9L4 10L2 10L2 11L3 11L3 13L7 13L7 12L9 12L9 13L8 13L8 15L9 15L9 17L8 17L8 19L9 19L9 21L12 21L12 20L10 20L10 18L11 18L11 19L12 19L12 18L11 18L11 17L13 17L13 19L14 19L14 20L13 20L13 21L14 21L14 20L16 20L16 21L17 21L17 20L16 20L16 18L20 18L20 17L21 17L21 16L20 16L20 15L21 15L21 14L20 14L20 13L21 13L21 12L19 12L19 11L18 11L18 10L19 10L19 9L18 9L18 10L17 10L17 11L15 11L15 8L13 8L13 9L12 9L12 7L13 7L13 4ZM11 6L11 7L12 7L12 6ZM16 8L16 9L17 9L17 8ZM6 9L6 10L5 10L5 11L4 11L4 12L7 12L7 11L9 11L9 9L8 9L8 10L7 10L7 9ZM10 9L10 10L12 10L12 9ZM13 9L13 10L14 10L14 9ZM6 10L6 11L7 11L7 10ZM20 10L20 11L21 11L21 10ZM0 11L0 12L1 12L1 13L2 13L2 12L1 12L1 11ZM11 11L11 12L10 12L10 13L9 13L9 15L11 15L11 16L10 16L10 17L11 17L11 16L13 16L13 15L14 15L14 17L15 17L15 15L14 15L14 14L16 14L16 15L17 15L17 16L18 16L18 17L20 17L20 16L18 16L18 15L19 15L19 12L16 12L16 13L15 13L15 12L13 12L13 15L12 15L12 14L10 14L10 13L11 13L11 12L12 12L12 11ZM17 13L17 14L18 14L18 13ZM18 19L18 20L19 20L19 21L20 21L20 20L21 20L21 19ZM0 0L0 7L7 7L7 0ZM1 1L1 6L6 6L6 1ZM2 2L2 5L5 5L5 2ZM14 0L14 7L21 7L21 0ZM15 1L15 6L20 6L20 1ZM16 2L16 5L19 5L19 2ZM0 14L0 21L7 21L7 14ZM1 15L1 20L6 20L6 15ZM2 16L2 19L5 19L5 16Z" fill="#282828"/></g></g></svg>
