<?xml version="1.0" encoding="UTF-8"?>
<svg xmlns="http://www.w3.org/2000/svg" version="1.1" width="400" height="400" viewBox="0 0 400 400"><rect x="0" y="0" width="400" height="400" fill="#f5f5f5"/><g transform="scale(14.815)"><g transform="translate(3,3)"><path fill-rule="evenodd" d="M9 0L9 2L8 2L8 4L10 4L10 5L11 5L11 6L10 6L10 9L13 9L13 6L12 6L12 4L13 4L13 3L12 3L12 1L13 1L13 0L12 0L12 1L11 1L11 0ZM10 1L10 2L11 2L11 1ZM8 6L8 7L9 7L9 6ZM11 6L11 7L12 7L12 6ZM3 8L3 9L4 9L4 10L2 10L2 9L1 9L1 10L2 10L2 11L4 11L4 13L7 13L7 12L6 12L6 11L8 11L8 10L9 10L9 9L8 9L8 8L6 8L6 9L8 9L8 10L6 10L6 11L5 11L5 8ZM17 8L17 9L14 9L14 11L15 11L15 12L13 12L13 11L12 11L12 10L10 10L10 11L9 11L9 12L8 12L8 15L9 15L9 16L8 16L8 18L9 18L9 19L10 19L10 18L11 18L11 17L13 17L13 16L14 16L14 17L15 17L15 18L14 18L14 20L13 20L13 19L12 19L12 20L11 20L11 21L12 21L12 20L13 20L13 21L17 21L17 20L18 20L18 21L20 21L20 20L21 20L21 18L19 18L19 19L20 19L20 20L18 20L18 18L17 18L17 17L19 17L19 16L20 16L20 17L21 17L21 13L20 13L20 12L21 12L21 11L19 11L19 8ZM16 10L16 11L17 11L17 10ZM18 11L18 13L13 13L13 12L9 12L9 14L10 14L10 13L11 13L11 15L15 15L15 17L16 17L16 16L18 16L18 14L20 14L20 13L19 13L19 11ZM0 12L0 13L2 13L2 12ZM9 16L9 18L10 18L10 16ZM16 19L16 20L17 20L17 19ZM9 20L9 21L10 21L10 20ZM0 0L0 7L7 7L7 0ZM1 1L1 6L6 6L6 1ZM2 2L2 5L5 5L5 2ZM14 0L14 7L21 7L21 0ZM15 1L15 6L20 6L20 1ZM16 2L16 5L19 5L19 2ZM0 14L0 21L7 21L7 14ZM1 15L1 20L6 20L6 15ZM2 16L2 19L5 19L5 16Z" fill="#282828"/></g></g></svg>
