<?xml version="1.0" encoding="UTF-8"?>
<svg xmlns="http://www.w3.org/2000/svg" version="1.1" width="400" height="400" viewBox="0 0 400 400"><rect x="0" y="0" width="400" height="400" fill="#f5f5f5"/><g transform="scale(14.815)"><g transform="translate(3,3)"><path fill-rule="evenodd" d="M9 0L9 1L8 1L8 7L9 7L9 2L11 2L11 3L10 3L10 5L11 5L11 4L13 4L13 2L12 2L12 0L11 0L11 1L10 1L10 0ZM10 6L10 7L11 7L11 6ZM12 6L12 8L11 8L11 9L12 9L12 10L10 10L10 12L9 12L9 13L8 13L8 12L6 12L6 11L9 11L9 8L5 8L5 9L4 9L4 10L3 10L3 8L2 8L2 10L1 10L1 11L4 11L4 12L6 12L6 13L8 13L8 16L9 16L9 14L10 14L10 15L11 15L11 16L10 16L10 17L9 17L9 18L8 18L8 19L10 19L10 20L9 20L9 21L11 21L11 19L12 19L12 18L13 18L13 19L14 19L14 18L15 18L15 21L21 21L21 20L20 20L20 19L21 19L21 18L19 18L19 17L21 17L21 16L20 16L20 14L18 14L18 13L17 13L17 12L16 12L16 11L17 11L17 10L16 10L16 9L20 9L20 8L15 8L15 10L14 10L14 8L13 8L13 6ZM5 9L5 10L4 10L4 11L5 11L5 10L7 10L7 9ZM13 10L13 12L14 12L14 10ZM20 10L20 12L19 12L19 11L18 11L18 12L19 12L19 13L20 13L20 12L21 12L21 10ZM11 11L11 14L15 14L15 15L12 15L12 17L10 17L10 18L12 18L12 17L13 17L13 16L15 16L15 17L16 17L16 18L17 18L17 16L19 16L19 15L17 15L17 13L12 13L12 11ZM1 12L1 13L3 13L3 12ZM16 15L16 16L17 16L17 15ZM18 18L18 19L19 19L19 18ZM16 19L16 20L17 20L17 19ZM12 20L12 21L14 21L14 20ZM0 0L0 7L7 7L7 0ZM1 1L1 6L6 6L6 1ZM2 2L2 5L5 5L5 2ZM14 0L14 7L21 7L21 0ZM15 1L15 6L20 6L20 1ZM16 2L16 5L19 5L19 2ZM0 14L0 21L7 21L7 14ZM1 15L1 20L6 20L6 15ZM2 16L2 19L5 19L5 16Z" fill="#282828"/></g></g></svg>
