<?xml version="1.0" encoding="UTF-8"?>
<svg xmlns="http://www.w3.org/2000/svg" version="1.1" width="400" height="400" viewBox="0 0 400 400"><rect x="0" y="0" width="400" height="400" fill="#f5f5f5"/><g transform="scale(14.815)"><g transform="translate(3,3)"><path fill-rule="evenodd" d="M9 0L9 3L10 3L10 4L8 4L8 5L11 5L11 2L12 2L12 8L11 8L11 6L10 6L10 8L9 8L9 6L8 6L8 8L6 8L6 9L5 9L5 10L4 10L4 8L2 8L2 11L1 11L1 9L0 9L0 11L1 11L1 13L2 13L2 11L3 11L3 13L8 13L8 15L9 15L9 16L10 16L10 17L8 17L8 19L9 19L9 20L10 20L10 21L15 21L15 20L16 20L16 21L17 21L17 20L16 20L16 18L20 18L20 17L21 17L21 16L20 16L20 15L21 15L21 14L20 14L20 13L21 13L21 9L20 9L20 11L19 11L19 10L18 10L18 9L17 9L17 8L16 8L16 9L17 9L17 10L18 10L18 11L15 11L15 13L16 13L16 12L17 12L17 14L18 14L18 13L19 13L19 15L18 15L18 16L17 16L17 15L16 15L16 14L14 14L14 16L13 16L13 13L14 13L14 11L12 11L12 12L11 12L11 10L10 10L10 11L9 11L9 10L8 10L8 9L12 9L12 10L13 10L13 9L14 9L14 10L15 10L15 8L13 8L13 2L12 2L12 0ZM10 1L10 2L11 2L11 1ZM6 9L6 10L5 10L5 11L4 11L4 10L3 10L3 11L4 11L4 12L7 12L7 11L8 11L8 12L9 12L9 15L10 15L10 16L12 16L12 17L11 17L11 20L12 20L12 17L13 17L13 18L15 18L15 17L13 17L13 16L12 16L12 13L13 13L13 12L12 12L12 13L11 13L11 15L10 15L10 12L9 12L9 11L8 11L8 10L7 10L7 9ZM6 10L6 11L7 11L7 10ZM18 11L18 12L19 12L19 11ZM18 16L18 17L20 17L20 16ZM13 19L13 20L14 20L14 19ZM18 19L18 20L19 20L19 21L20 21L20 20L21 20L21 19ZM0 0L0 7L7 7L7 0ZM1 1L1 6L6 6L6 1ZM2 2L2 5L5 5L5 2ZM14 0L14 7L21 7L21 0ZM15 1L15 6L20 6L20 1ZM16 2L16 5L19 5L19 2ZM0 14L0 21L7 21L7 14ZM1 15L1 20L6 20L6 15ZM2 16L2 19L5 19L5 16Z" fill="#282828"/></g></g></svg>
