<?xml version="1.0" encoding="UTF-8"?>
<svg xmlns="http://www.w3.org/2000/svg" version="1.1" width="400" height="400" viewBox="0 0 400 400"><rect x="0" y="0" width="400" height="400" fill="#f5f5f5"/><g transform="scale(14.815)"><g transform="translate(3,3)"><path fill-rule="evenodd" d="M11 0L11 1L12 1L12 3L11 3L11 2L9 2L9 1L8 1L8 7L9 7L9 5L10 5L10 8L5 8L5 9L3 9L3 8L2 8L2 9L1 9L1 11L2 11L2 12L1 12L1 13L2 13L2 12L5 12L5 11L7 11L7 10L8 10L8 12L6 12L6 13L8 13L8 16L9 16L9 15L10 15L10 18L8 18L8 19L10 19L10 18L11 18L11 19L12 19L12 20L11 20L11 21L14 21L14 20L15 20L15 21L21 21L21 20L20 20L20 19L21 19L21 18L19 18L19 17L21 17L21 16L20 16L20 14L19 14L19 12L20 12L20 13L21 13L21 11L19 11L19 10L21 10L21 9L20 9L20 8L15 8L15 10L14 10L14 12L13 12L13 10L12 10L12 7L13 7L13 6L12 6L12 5L13 5L13 4L12 4L12 3L13 3L13 0ZM9 3L9 4L11 4L11 3ZM11 6L11 7L12 7L12 6ZM13 8L13 9L14 9L14 8ZM2 9L2 11L5 11L5 10L3 10L3 9ZM6 9L6 10L7 10L7 9ZM8 9L8 10L9 10L9 9ZM10 9L10 11L9 11L9 12L8 12L8 13L9 13L9 12L10 12L10 15L12 15L12 16L11 16L11 18L12 18L12 19L13 19L13 20L14 20L14 19L13 19L13 18L14 18L14 16L13 16L13 13L11 13L11 12L10 12L10 11L11 11L11 9ZM16 9L16 10L17 10L17 11L16 11L16 12L17 12L17 11L18 11L18 12L19 12L19 11L18 11L18 10L19 10L19 9L18 9L18 10L17 10L17 9ZM15 13L15 14L14 14L14 15L15 15L15 17L16 17L16 18L17 18L17 16L19 16L19 15L17 15L17 14L18 14L18 13ZM16 15L16 16L17 16L17 15ZM12 16L12 17L13 17L13 16ZM18 18L18 19L19 19L19 18ZM16 19L16 20L17 20L17 19ZM0 0L0 7L7 7L7 0ZM1 1L1 6L6 6L6 1ZM2 2L2 5L5 5L5 2ZM14 0L14 7L21 7L21 0ZM15 1L15 6L20 6L20 1ZM16 2L16 5L19 5L19 2ZM0 14L0 21L7 21L7 14ZM1 15L1 20L6 20L6 15ZM2 16L2 19L5 19L5 16Z" fill="#282828"/></g></g></svg>
