<?xml version="1.0" encoding="UTF-8"?>
<svg xmlns="http://www.w3.org/2000/svg" version="1.1" width="400" height="400" viewBox="0 0 400 400"><rect x="0" y="0" width="400" height="400" fill="#f5f5f5"/><g transform="scale(14.815)"><g transform="translate(3,3)"><path fill-rule="evenodd" d="M8 0L8 1L9 1L9 3L8 3L8 4L9 4L9 3L10 3L10 8L11 8L11 10L12 10L12 8L13 8L13 12L12 12L12 11L10 11L10 9L9 9L9 8L8 8L8 9L9 9L9 11L10 11L10 12L12 12L12 13L8 13L8 12L6 12L6 11L7 11L7 10L6 10L6 9L7 9L7 8L4 8L4 9L5 9L5 10L2 10L2 11L5 11L5 13L8 13L8 14L9 14L9 15L8 15L8 17L10 17L10 18L8 18L8 19L9 19L9 20L11 20L11 19L10 19L10 18L12 18L12 17L13 17L13 15L14 15L14 17L16 17L16 16L18 16L18 18L20 18L20 19L21 19L21 18L20 18L20 17L21 17L21 16L20 16L20 17L19 17L19 16L18 16L18 15L19 15L19 14L21 14L21 13L19 13L19 12L20 12L20 11L21 11L21 8L20 8L20 11L19 11L19 10L16 10L16 11L17 11L17 12L16 12L16 13L14 13L14 11L15 11L15 9L14 9L14 8L13 8L13 6L12 6L12 5L11 5L11 3L12 3L12 4L13 4L13 1L11 1L11 0L10 0L10 1L9 1L9 0ZM10 1L10 3L11 3L11 1ZM8 6L8 7L9 7L9 6ZM11 6L11 7L12 7L12 6ZM2 8L2 9L3 9L3 8ZM17 8L17 9L18 9L18 8ZM0 9L0 10L1 10L1 9ZM5 10L5 11L6 11L6 10ZM0 11L0 13L2 13L2 12L1 12L1 11ZM18 11L18 12L19 12L19 11ZM16 13L16 15L18 15L18 14L17 14L17 13ZM11 14L11 15L13 15L13 14ZM10 16L10 17L12 17L12 16ZM13 18L13 19L15 19L15 18ZM16 18L16 19L17 19L17 18ZM18 19L18 21L19 21L19 19ZM12 20L12 21L15 21L15 20ZM16 20L16 21L17 21L17 20ZM20 20L20 21L21 21L21 20ZM0 0L0 7L7 7L7 0ZM1 1L1 6L6 6L6 1ZM2 2L2 5L5 5L5 2ZM14 0L14 7L21 7L21 0ZM15 1L15 6L20 6L20 1ZM16 2L16 5L19 5L19 2ZM0 14L0 21L7 21L7 14ZM1 15L1 20L6 20L6 15ZM2 16L2 19L5 19L5 16Z" fill="#282828"/></g></g></svg>
