<?xml version="1.0" encoding="UTF-8"?>
<svg xmlns="http://www.w3.org/2000/svg" version="1.1" width="400" height="400" viewBox="0 0 400 400"><rect x="0" y="0" width="400" height="400" fill="#f5f5f5"/><g transform="scale(14.815)"><g transform="translate(3,3)"><path fill-rule="evenodd" d="M8 0L8 1L9 1L9 0ZM10 0L10 2L8 2L8 3L10 3L10 5L11 5L11 6L10 6L10 7L9 7L9 6L8 6L8 8L11 8L11 6L12 6L12 7L13 7L13 5L11 5L11 4L12 4L12 3L13 3L13 0ZM10 2L10 3L12 3L12 2ZM8 4L8 5L9 5L9 4ZM5 8L5 9L7 9L7 10L6 10L6 11L5 11L5 10L4 10L4 9L3 9L3 10L2 10L2 11L0 11L0 12L3 12L3 13L4 13L4 12L3 12L3 11L5 11L5 13L7 13L7 12L6 12L6 11L8 11L8 12L10 12L10 13L12 13L12 14L10 14L10 16L9 16L9 15L8 15L8 16L9 16L9 18L10 18L10 19L9 19L9 21L14 21L14 20L15 20L15 21L16 21L16 19L17 19L17 20L18 20L18 21L19 21L19 20L20 20L20 19L21 19L21 18L19 18L19 20L18 20L18 17L19 17L19 16L21 16L21 14L20 14L20 12L21 12L21 11L20 11L20 12L19 12L19 13L18 13L18 11L17 11L17 12L16 12L16 10L19 10L19 8L18 8L18 9L17 9L17 8L16 8L16 9L15 9L15 8L14 8L14 11L15 11L15 13L14 13L14 12L13 12L13 13L12 13L12 11L13 11L13 9L12 9L12 10L10 10L10 9L9 9L9 10L10 10L10 11L8 11L8 9L7 9L7 8ZM20 8L20 9L21 9L21 8ZM0 9L0 10L1 10L1 9ZM10 11L10 12L11 12L11 11ZM8 13L8 14L9 14L9 13ZM15 13L15 14L13 14L13 15L15 15L15 17L14 17L14 16L12 16L12 15L11 15L11 18L12 18L12 17L13 17L13 19L15 19L15 17L16 17L16 18L17 18L17 17L18 17L18 14L17 14L17 13ZM16 14L16 15L17 15L17 14ZM19 14L19 15L20 15L20 14ZM16 16L16 17L17 17L17 16ZM10 19L10 20L12 20L12 19ZM0 0L0 7L7 7L7 0ZM1 1L1 6L6 6L6 1ZM2 2L2 5L5 5L5 2ZM14 0L14 7L21 7L21 0ZM15 1L15 6L20 6L20 1ZM16 2L16 5L19 5L19 2ZM0 14L0 21L7 21L7 14ZM1 15L1 20L6 20L6 15ZM2 16L2 19L5 19L5 16Z" fill="#282828"/></g></g></svg>
