<?xml version="1.0" encoding="UTF-8"?>
<svg xmlns="http://www.w3.org/2000/svg" version="1.1" width="400" height="400" viewBox="0 0 400 400"><rect x="0" y="0" width="400" height="400" fill="#ffffff"/><g transform="scale(7.843)"><g transform="translate(15,15)"><path fill-rule="evenodd" d="M10 0L10 1L11 1L11 0ZM12 0L12 1L13 1L13 0ZM8 1L8 7L9 7L9 5L11 5L11 4L12 4L12 7L13 7L13 2L11 2L11 3L10 3L10 2L9 2L9 1ZM10 6L10 7L11 7L11 6ZM2 8L2 9L0 9L0 11L1 11L1 12L0 12L0 13L4 13L4 12L5 12L5 11L8 11L8 10L6 10L6 9L9 9L9 12L8 12L8 16L9 16L9 17L10 17L10 16L11 16L11 14L9 14L9 13L10 13L10 12L11 12L11 13L12 13L12 14L13 14L13 15L14 15L14 16L15 16L15 15L14 15L14 13L17 13L17 15L16 15L16 16L17 16L17 18L16 18L16 17L15 17L15 20L12 20L12 19L14 19L14 18L12 18L12 17L11 17L11 18L10 18L10 19L9 19L9 18L8 18L8 19L9 19L9 21L10 21L10 20L12 20L12 21L21 21L21 20L20 20L20 19L21 19L21 18L19 18L19 17L21 17L21 16L20 16L20 14L21 14L21 12L20 12L20 10L21 10L21 9L20 9L20 8L15 8L15 9L14 9L14 8L12 8L12 10L11 10L11 8L5 8L5 9L3 9L3 8ZM2 9L2 10L3 10L3 11L2 11L2 12L4 12L4 10L3 10L3 9ZM13 9L13 11L15 11L15 10L14 10L14 9ZM16 9L16 10L17 10L17 11L16 11L16 12L17 12L17 13L18 13L18 14L20 14L20 13L19 13L19 12L17 12L17 11L19 11L19 10L20 10L20 9L18 9L18 10L17 10L17 9ZM10 10L10 11L11 11L11 10ZM6 12L6 13L7 13L7 12ZM13 12L13 13L14 13L14 12ZM9 15L9 16L10 16L10 15ZM17 15L17 16L19 16L19 15ZM18 18L18 19L19 19L19 18ZM16 19L16 20L17 20L17 19ZM0 0L0 7L7 7L7 0ZM1 1L1 6L6 6L6 1ZM2 2L2 5L5 5L5 2ZM14 0L14 7L21 7L21 0ZM15 1L15 6L20 6L20 1ZM16 2L16 5L19 5L19 2ZM0 14L0 21L7 21L7 14ZM1 15L1 20L6 20L6 15ZM2 16L2 19L5 19L5 16Z" fill="#004b96"/></g></g></svg>
