<?xml version="1.0" encoding="UTF-8"?>
<svg xmlns="http://www.w3.org/2000/svg" version="1.1" width="400" height="400" viewBox="0 0 400 400"><rect x="0" y="0" width="400" height="400" fill="#f5f5f5"/><g transform="scale(14.815)"><g transform="translate(3,3)"><path fill-rule="evenodd" d="M8 0L8 3L9 3L9 2L10 2L10 4L9 4L9 5L8 5L8 9L7 9L7 8L6 8L6 9L5 9L5 8L2 8L2 9L0 9L0 10L2 10L2 11L3 11L3 10L4 10L4 9L5 9L5 11L4 11L4 13L5 13L5 11L8 11L8 10L9 10L9 12L10 12L10 14L11 14L11 15L10 15L10 16L8 16L8 19L9 19L9 20L11 20L11 19L10 19L10 16L11 16L11 18L13 18L13 20L14 20L14 19L16 19L16 18L13 18L13 17L12 17L12 13L14 13L14 12L15 12L15 14L14 14L14 15L15 15L15 16L16 16L16 17L17 17L17 18L18 18L18 17L19 17L19 16L20 16L20 15L21 15L21 13L20 13L20 12L18 12L18 11L19 11L19 9L21 9L21 8L18 8L18 9L17 9L17 10L18 10L18 11L17 11L17 13L18 13L18 17L17 17L17 14L16 14L16 12L15 12L15 11L16 11L16 10L15 10L15 9L16 9L16 8L13 8L13 3L11 3L11 2L13 2L13 1L12 1L12 0L11 0L11 1L9 1L9 0ZM10 5L10 6L9 6L9 8L10 8L10 10L12 10L12 12L11 12L11 13L12 13L12 12L13 12L13 9L12 9L12 5ZM10 6L10 7L11 7L11 6ZM2 9L2 10L3 10L3 9ZM6 9L6 10L7 10L7 9ZM14 10L14 11L15 11L15 10ZM20 10L20 11L21 11L21 10ZM0 11L0 12L1 12L1 13L3 13L3 12L1 12L1 11ZM6 12L6 13L7 13L7 12ZM8 13L8 14L9 14L9 13ZM19 13L19 15L20 15L20 13ZM15 14L15 15L16 15L16 14ZM17 19L17 20L18 20L18 21L19 21L19 20L20 20L20 19L19 19L19 20L18 20L18 19ZM15 20L15 21L16 21L16 20ZM0 0L0 7L7 7L7 0ZM1 1L1 6L6 6L6 1ZM2 2L2 5L5 5L5 2ZM14 0L14 7L21 7L21 0ZM15 1L15 6L20 6L20 1ZM16 2L16 5L19 5L19 2ZM0 14L0 21L7 21L7 14ZM1 15L1 20L6 20L6 15ZM2 16L2 19L5 19L5 16Z" fill="#282828"/></g></g></svg>
