<?xml version="1.0" encoding="UTF-8"?>
<svg xmlns="http://www.w3.org/2000/svg" version="1.1" width="400" height="400" viewBox="0 0 400 400"><rect x="0" y="0" width="400" height="400" fill="#f5f5f5"/><g transform="scale(14.815)"><g transform="translate(3,3)"><path fill-rule="evenodd" d="M8 0L8 1L10 1L10 0ZM9 2L9 3L8 3L8 4L10 4L10 7L9 7L9 6L8 6L8 7L9 7L9 8L8 8L8 11L9 11L9 13L8 13L8 12L6 12L6 13L8 13L8 14L9 14L9 15L8 15L8 17L11 17L11 18L12 18L12 17L13 17L13 20L12 20L12 19L10 19L10 20L9 20L9 21L10 21L10 20L12 20L12 21L15 21L15 20L14 20L14 19L15 19L15 17L16 17L16 16L18 16L18 18L20 18L20 19L21 19L21 18L20 18L20 17L21 17L21 16L20 16L20 17L19 17L19 16L18 16L18 15L19 15L19 13L21 13L21 12L19 12L19 11L21 11L21 10L20 10L20 9L21 9L21 8L20 8L20 9L18 9L18 8L17 8L17 9L18 9L18 10L19 10L19 11L18 11L18 12L16 12L16 13L15 13L15 11L14 11L14 13L13 13L13 10L15 10L15 9L14 9L14 8L12 8L12 7L13 7L13 5L11 5L11 4L12 4L12 2L11 2L11 4L10 4L10 2ZM11 6L11 7L10 7L10 8L11 8L11 7L12 7L12 6ZM2 8L2 9L0 9L0 10L1 10L1 11L0 11L0 13L1 13L1 11L2 11L2 13L5 13L5 12L3 12L3 11L2 11L2 9L3 9L3 10L4 10L4 11L5 11L5 10L6 10L6 11L7 11L7 10L6 10L6 9L7 9L7 8L4 8L4 9L3 9L3 8ZM4 9L4 10L5 10L5 9ZM9 9L9 11L10 11L10 10L11 10L11 9ZM12 9L12 10L13 10L13 9ZM16 10L16 11L17 11L17 10ZM10 12L10 13L11 13L11 12ZM18 12L18 13L19 13L19 12ZM12 13L12 14L10 14L10 16L11 16L11 15L12 15L12 14L13 14L13 13ZM14 13L14 14L15 14L15 13ZM16 13L16 15L18 15L18 14L17 14L17 13ZM13 15L13 17L14 17L14 16L15 16L15 15ZM8 18L8 19L9 19L9 18ZM16 18L16 19L17 19L17 18ZM18 19L18 21L19 21L19 19ZM16 20L16 21L17 21L17 20ZM20 20L20 21L21 21L21 20ZM0 0L0 7L7 7L7 0ZM1 1L1 6L6 6L6 1ZM2 2L2 5L5 5L5 2ZM14 0L14 7L21 7L21 0ZM15 1L15 6L20 6L20 1ZM16 2L16 5L19 5L19 2ZM0 14L0 21L7 21L7 14ZM1 15L1 20L6 20L6 15ZM2 16L2 19L5 19L5 16Z" fill="#282828"/></g></g></svg>
