<?xml version="1.0" encoding="UTF-8"?>
<svg xmlns="http://www.w3.org/2000/svg" version="1.1" width="400" height="400" viewBox="0 0 400 400"><rect x="0" y="0" width="400" height="400" fill="#f5f5f5"/><g transform="scale(14.815)"><g transform="translate(3,3)"><path fill-rule="evenodd" d="M8 0L8 1L9 1L9 0ZM11 0L11 1L10 1L10 2L8 2L8 3L9 3L9 4L8 4L8 5L9 5L9 6L8 6L8 8L9 8L9 10L6 10L6 9L7 9L7 8L5 8L5 9L4 9L4 10L3 10L3 9L2 9L2 10L1 10L1 9L0 9L0 10L1 10L1 11L0 11L0 13L1 13L1 12L3 12L3 13L5 13L5 10L6 10L6 11L10 11L10 9L11 9L11 10L12 10L12 8L9 8L9 6L10 6L10 7L11 7L11 6L12 6L12 7L13 7L13 6L12 6L12 5L13 5L13 4L11 4L11 6L10 6L10 5L9 5L9 4L10 4L10 3L11 3L11 1L13 1L13 0ZM12 2L12 3L13 3L13 2ZM14 8L14 9L13 9L13 10L14 10L14 12L15 12L15 13L14 13L14 14L13 14L13 15L14 15L14 17L13 17L13 18L11 18L11 16L10 16L10 14L11 14L11 15L12 15L12 14L11 14L11 13L10 13L10 14L9 14L9 13L8 13L8 14L9 14L9 15L8 15L8 16L9 16L9 19L10 19L10 21L11 21L11 20L13 20L13 21L16 21L16 19L17 19L17 20L18 20L18 21L19 21L19 20L20 20L20 19L21 19L21 18L19 18L19 20L18 20L18 17L19 17L19 16L21 16L21 14L20 14L20 12L21 12L21 11L20 11L20 12L18 12L18 13L17 13L17 12L16 12L16 10L17 10L17 11L19 11L19 10L21 10L21 8L20 8L20 9L19 9L19 8L18 8L18 9L17 9L17 8L16 8L16 9L15 9L15 8ZM14 9L14 10L15 10L15 9ZM12 11L12 13L13 13L13 11ZM6 12L6 13L7 13L7 12ZM15 13L15 14L14 14L14 15L15 15L15 17L14 17L14 18L13 18L13 20L15 20L15 19L14 19L14 18L15 18L15 17L16 17L16 18L17 18L17 17L18 17L18 14L19 14L19 15L20 15L20 14L19 14L19 13L18 13L18 14L17 14L17 13ZM16 14L16 15L17 15L17 14ZM16 16L16 17L17 17L17 16ZM10 18L10 19L11 19L11 18ZM0 0L0 7L7 7L7 0ZM1 1L1 6L6 6L6 1ZM2 2L2 5L5 5L5 2ZM14 0L14 7L21 7L21 0ZM15 1L15 6L20 6L20 1ZM16 2L16 5L19 5L19 2ZM0 14L0 21L7 21L7 14ZM1 15L1 20L6 20L6 15ZM2 16L2 19L5 19L5 16Z" fill="#282828"/></g></g></svg>
