<?xml version="1.0" encoding="UTF-8"?>
<svg xmlns="http://www.w3.org/2000/svg" version="1.1" width="400" height="400" viewBox="0 0 400 400"><rect x="0" y="0" width="400" height="400" fill="#f5f5f5"/><g transform="scale(14.815)"><g transform="translate(3,3)"><path fill-rule="evenodd" d="M10 0L10 1L9 1L9 2L8 2L8 4L9 4L9 5L10 5L10 8L9 8L9 9L8 9L8 8L6 8L6 9L5 9L5 8L3 8L3 10L1 10L1 11L2 11L2 12L0 12L0 13L2 13L2 12L3 12L3 13L4 13L4 12L5 12L5 13L8 13L8 15L9 15L9 16L8 16L8 18L9 18L9 21L10 21L10 18L9 18L9 16L11 16L11 18L12 18L12 20L11 20L11 21L12 21L12 20L13 20L13 21L17 21L17 20L18 20L18 21L20 21L20 20L21 20L21 18L19 18L19 19L20 19L20 20L18 20L18 18L17 18L17 17L19 17L19 16L20 16L20 17L21 17L21 14L18 14L18 16L16 16L16 17L15 17L15 20L13 20L13 19L14 19L14 16L15 16L15 15L14 15L14 16L13 16L13 15L9 15L9 14L12 14L12 11L13 11L13 12L14 12L14 11L15 11L15 13L13 13L13 14L15 14L15 13L17 13L17 12L19 12L19 13L20 13L20 12L21 12L21 11L20 11L20 10L21 10L21 9L19 9L19 8L17 8L17 9L15 9L15 10L14 10L14 9L13 9L13 10L11 10L11 9L10 9L10 8L13 8L13 6L12 6L12 5L13 5L13 4L11 4L11 3L13 3L13 1L11 1L11 0ZM10 1L10 3L11 3L11 1ZM8 6L8 7L9 7L9 6ZM11 6L11 7L12 7L12 6ZM6 9L6 10L7 10L7 11L6 11L6 12L9 12L9 13L10 13L10 12L11 12L11 11L10 11L10 10L8 10L8 9ZM17 9L17 10L16 10L16 11L17 11L17 10L18 10L18 11L19 11L19 12L20 12L20 11L19 11L19 9ZM3 10L3 12L4 12L4 11L5 11L5 10ZM12 17L12 18L13 18L13 17ZM16 19L16 20L17 20L17 19ZM0 0L0 7L7 7L7 0ZM1 1L1 6L6 6L6 1ZM2 2L2 5L5 5L5 2ZM14 0L14 7L21 7L21 0ZM15 1L15 6L20 6L20 1ZM16 2L16 5L19 5L19 2ZM0 14L0 21L7 21L7 14ZM1 15L1 20L6 20L6 15ZM2 16L2 19L5 19L5 16Z" fill="#282828"/></g></g></svg>
