<?xml version="1.0" encoding="UTF-8"?>
<svg xmlns="http://www.w3.org/2000/svg" version="1.1" width="400" height="400" viewBox="0 0 400 400"><rect x="0" y="0" width="400" height="400" fill="#f5f5f5"/><g transform="scale(14.815)"><g transform="translate(3,3)"><path fill-rule="evenodd" d="M8 0L8 1L9 1L9 2L8 2L8 3L9 3L9 2L12 2L12 3L10 3L10 4L8 4L8 5L10 5L10 4L11 4L11 6L10 6L10 7L11 7L11 9L10 9L10 10L9 10L9 9L7 9L7 8L5 8L5 9L3 9L3 10L2 10L2 9L1 9L1 10L0 10L0 12L2 12L2 11L4 11L4 13L5 13L5 10L6 10L6 11L8 11L8 10L9 10L9 11L10 11L10 12L6 12L6 13L8 13L8 14L9 14L9 15L8 15L8 16L9 16L9 15L10 15L10 14L11 14L11 16L10 16L10 18L9 18L9 20L12 20L12 21L16 21L16 19L17 19L17 20L18 20L18 21L19 21L19 20L20 20L20 19L21 19L21 18L19 18L19 20L18 20L18 17L19 17L19 16L21 16L21 14L20 14L20 13L21 13L21 12L20 12L20 13L19 13L19 11L21 11L21 10L19 10L19 11L18 11L18 9L19 9L19 8L18 8L18 9L17 9L17 8L16 8L16 9L15 9L15 8L14 8L14 9L15 9L15 13L17 13L17 14L16 14L16 15L17 15L17 14L18 14L18 17L17 17L17 16L16 16L16 17L15 17L15 18L14 18L14 15L13 15L13 13L14 13L14 12L13 12L13 13L12 13L12 14L11 14L11 11L13 11L13 10L11 10L11 9L12 9L12 8L13 8L13 6L12 6L12 5L13 5L13 4L12 4L12 3L13 3L13 0ZM8 6L8 8L9 8L9 6ZM11 6L11 7L12 7L12 6ZM20 8L20 9L21 9L21 8ZM6 9L6 10L7 10L7 9ZM16 10L16 12L17 12L17 10ZM18 13L18 14L19 14L19 15L20 15L20 14L19 14L19 13ZM11 16L11 18L10 18L10 19L12 19L12 17L13 17L13 16ZM16 17L16 18L17 18L17 17ZM14 19L14 20L15 20L15 19ZM0 0L0 7L7 7L7 0ZM1 1L1 6L6 6L6 1ZM2 2L2 5L5 5L5 2ZM14 0L14 7L21 7L21 0ZM15 1L15 6L20 6L20 1ZM16 2L16 5L19 5L19 2ZM0 14L0 21L7 21L7 14ZM1 15L1 20L6 20L6 15ZM2 16L2 19L5 19L5 16Z" fill="#282828"/></g></g></svg>
