<?xml version="1.0" encoding="UTF-8"?>
<svg xmlns="http://www.w3.org/2000/svg" version="1.1" width="400" height="400" viewBox="0 0 400 400"><rect x="0" y="0" width="400" height="400" fill="#f5f5f5"/><g transform="scale(14.815)"><g transform="translate(3,3)"><path fill-rule="evenodd" d="M8 0L8 1L9 1L9 2L8 2L8 3L9 3L9 2L10 2L10 4L8 4L8 5L10 5L10 4L11 4L11 5L13 5L13 4L11 4L11 3L13 3L13 2L12 2L12 1L13 1L13 0L10 0L10 1L9 1L9 0ZM10 1L10 2L11 2L11 1ZM8 6L8 8L10 8L10 9L9 9L9 10L8 10L8 9L7 9L7 8L5 8L5 9L3 9L3 10L1 10L1 9L0 9L0 10L1 10L1 11L0 11L0 12L1 12L1 13L4 13L4 12L5 12L5 13L8 13L8 14L9 14L9 15L8 15L8 16L10 16L10 17L9 17L9 18L10 18L10 20L11 20L11 21L12 21L12 18L14 18L14 17L15 17L15 19L13 19L13 21L16 21L16 19L17 19L17 20L18 20L18 21L19 21L19 20L20 20L20 19L21 19L21 18L19 18L19 20L18 20L18 17L19 17L19 16L21 16L21 12L20 12L20 11L21 11L21 8L20 8L20 9L19 9L19 8L18 8L18 10L17 10L17 8L16 8L16 9L15 9L15 8L14 8L14 9L12 9L12 8L13 8L13 6L12 6L12 8L11 8L11 6L10 6L10 7L9 7L9 6ZM5 9L5 10L7 10L7 11L5 11L5 12L7 12L7 11L8 11L8 10L7 10L7 9ZM10 9L10 10L9 10L9 12L8 12L8 13L9 13L9 14L10 14L10 16L15 16L15 17L16 17L16 18L17 18L17 17L18 17L18 12L17 12L17 10L16 10L16 12L17 12L17 13L14 13L14 14L10 14L10 13L12 13L12 12L13 12L13 11L14 11L14 12L15 12L15 11L14 11L14 10L15 10L15 9L14 9L14 10L12 10L12 9ZM3 10L3 11L1 11L1 12L4 12L4 10ZM10 10L10 12L12 12L12 10ZM18 10L18 11L20 11L20 10ZM19 13L19 15L20 15L20 13ZM16 14L16 15L17 15L17 14ZM16 16L16 17L17 17L17 16ZM11 17L11 18L12 18L12 17ZM0 0L0 7L7 7L7 0ZM1 1L1 6L6 6L6 1ZM2 2L2 5L5 5L5 2ZM14 0L14 7L21 7L21 0ZM15 1L15 6L20 6L20 1ZM16 2L16 5L19 5L19 2ZM0 14L0 21L7 21L7 14ZM1 15L1 20L6 20L6 15ZM2 16L2 19L5 19L5 16Z" fill="#282828"/></g></g></svg>
