<?xml version="1.0" encoding="UTF-8"?>
<svg xmlns="http://www.w3.org/2000/svg" version="1.1" width="400" height="400" viewBox="0 0 400 400"><rect x="0" y="0" width="400" height="400" fill="#f5f5f5"/><g transform="scale(14.815)"><g transform="translate(3,3)"><path fill-rule="evenodd" d="M9 0L9 1L8 1L8 2L10 2L10 5L12 5L12 7L11 7L11 6L10 6L10 8L9 8L9 5L8 5L8 8L4 8L4 9L2 9L2 13L5 13L5 12L6 12L6 13L8 13L8 17L9 17L9 20L10 20L10 21L12 21L12 20L13 20L13 21L14 21L14 20L15 20L15 19L16 19L16 20L17 20L17 19L18 19L18 21L21 21L21 20L20 20L20 19L19 19L19 18L21 18L21 16L20 16L20 15L21 15L21 13L19 13L19 12L21 12L21 11L19 11L19 10L21 10L21 9L20 9L20 8L19 8L19 10L18 10L18 9L17 9L17 10L16 10L16 8L14 8L14 10L15 10L15 11L14 11L14 12L13 12L13 13L12 13L12 11L13 11L13 8L12 8L12 7L13 7L13 4L11 4L11 3L13 3L13 2L11 2L11 1L10 1L10 0ZM8 8L8 9L4 9L4 10L3 10L3 11L4 11L4 10L5 10L5 11L6 11L6 12L10 12L10 13L9 13L9 14L10 14L10 15L9 15L9 17L10 17L10 15L11 15L11 19L15 19L15 15L16 15L16 16L17 16L17 17L16 17L16 18L17 18L17 17L18 17L18 18L19 18L19 17L18 17L18 16L19 16L19 15L20 15L20 14L19 14L19 13L17 13L17 12L19 12L19 11L18 11L18 10L17 10L17 12L16 12L16 11L15 11L15 13L13 13L13 14L12 14L12 13L11 13L11 12L10 12L10 11L11 11L11 9L12 9L12 8L11 8L11 9L9 9L9 8ZM0 10L0 13L1 13L1 10ZM6 10L6 11L7 11L7 10ZM9 10L9 11L10 11L10 10ZM10 13L10 14L11 14L11 15L12 15L12 14L11 14L11 13ZM17 14L17 16L18 16L18 14ZM13 15L13 16L12 16L12 17L13 17L13 18L14 18L14 15ZM0 0L0 7L7 7L7 0ZM1 1L1 6L6 6L6 1ZM2 2L2 5L5 5L5 2ZM14 0L14 7L21 7L21 0ZM15 1L15 6L20 6L20 1ZM16 2L16 5L19 5L19 2ZM0 14L0 21L7 21L7 14ZM1 15L1 20L6 20L6 15ZM2 16L2 19L5 19L5 16Z" fill="#282828"/></g></g></svg>
