<?xml version="1.0" encoding="UTF-8"?>
<svg xmlns="http://www.w3.org/2000/svg" version="1.1" width="400" height="400" viewBox="0 0 400 400"><rect x="0" y="0" width="400" height="400" fill="#f5f5f5"/><g transform="scale(14.815)"><g transform="translate(3,3)"><path fill-rule="evenodd" d="M9 0L9 1L10 1L10 4L8 4L8 5L10 5L10 7L9 7L9 6L8 6L8 8L6 8L6 9L4 9L4 8L2 8L2 9L3 9L3 10L6 10L6 11L2 11L2 10L0 10L0 11L1 11L1 12L0 12L0 13L2 13L2 12L4 12L4 13L5 13L5 12L6 12L6 13L8 13L8 15L10 15L10 14L11 14L11 15L12 15L12 13L13 13L13 12L14 12L14 14L13 14L13 17L12 17L12 18L11 18L11 17L10 17L10 16L9 16L9 17L8 17L8 19L9 19L9 17L10 17L10 18L11 18L11 19L10 19L10 20L9 20L9 21L10 21L10 20L11 20L11 19L12 19L12 21L13 21L13 19L12 19L12 18L15 18L15 19L14 19L14 21L15 21L15 20L16 20L16 21L17 21L17 20L16 20L16 18L20 18L20 17L21 17L21 16L20 16L20 15L21 15L21 14L20 14L20 12L21 12L21 9L17 9L17 8L16 8L16 9L17 9L17 11L15 11L15 12L14 12L14 10L15 10L15 8L13 8L13 6L12 6L12 5L13 5L13 4L11 4L11 3L12 3L12 2L13 2L13 0L12 0L12 1L10 1L10 0ZM10 4L10 5L11 5L11 4ZM11 6L11 8L10 8L10 9L11 9L11 10L9 10L9 9L6 9L6 10L8 10L8 11L6 11L6 12L9 12L9 11L12 11L12 12L13 12L13 10L14 10L14 9L11 9L11 8L12 8L12 6ZM18 10L18 13L17 13L17 12L16 12L16 13L15 13L15 14L14 14L14 15L15 15L15 14L16 14L16 15L17 15L17 16L18 16L18 17L20 17L20 16L18 16L18 15L19 15L19 10ZM9 13L9 14L10 14L10 13ZM14 16L14 17L15 17L15 16ZM18 19L18 20L19 20L19 21L20 21L20 20L21 20L21 19ZM0 0L0 7L7 7L7 0ZM1 1L1 6L6 6L6 1ZM2 2L2 5L5 5L5 2ZM14 0L14 7L21 7L21 0ZM15 1L15 6L20 6L20 1ZM16 2L16 5L19 5L19 2ZM0 14L0 21L7 21L7 14ZM1 15L1 20L6 20L6 15ZM2 16L2 19L5 19L5 16Z" fill="#282828"/></g></g></svg>
