<?xml version="1.0" encoding="UTF-8"?>
<svg xmlns="http://www.w3.org/2000/svg" version="1.1" width="400" height="400" viewBox="0 0 400 400"><rect x="0" y="0" width="400" height="400" fill="#f5f5f5"/><g transform="scale(14.815)"><g transform="translate(3,3)"><path fill-rule="evenodd" d="M8 0L8 3L10 3L10 8L9 8L9 5L8 5L8 9L7 9L7 8L6 8L6 9L5 9L5 8L2 8L2 9L3 9L3 10L2 10L2 11L0 11L0 12L1 12L1 13L2 13L2 11L4 11L4 12L3 12L3 13L4 13L4 12L5 12L5 10L6 10L6 11L8 11L8 9L10 9L10 11L12 11L12 12L13 12L13 13L14 13L14 14L16 14L16 15L14 15L14 17L13 17L13 19L12 19L12 17L11 17L11 18L10 18L10 20L9 20L9 21L10 21L10 20L11 20L11 21L13 21L13 19L14 19L14 21L16 21L16 20L15 20L15 19L16 19L16 18L15 18L15 19L14 19L14 17L15 17L15 16L16 16L16 17L17 17L17 18L18 18L18 17L19 17L19 16L20 16L20 15L21 15L21 13L20 13L20 15L19 15L19 12L21 12L21 10L20 10L20 9L21 9L21 8L18 8L18 9L19 9L19 10L20 10L20 11L19 11L19 12L18 12L18 10L17 10L17 12L18 12L18 13L17 13L17 14L16 14L16 12L15 12L15 11L16 11L16 10L15 10L15 9L16 9L16 8L13 8L13 6L12 6L12 5L13 5L13 4L12 4L12 3L13 3L13 1L11 1L11 2L12 2L12 3L10 3L10 1L9 1L9 0ZM11 4L11 5L12 5L12 4ZM11 6L11 8L10 8L10 9L11 9L11 10L12 10L12 11L13 11L13 10L12 10L12 9L11 9L11 8L12 8L12 6ZM0 9L0 10L1 10L1 9ZM4 9L4 10L5 10L5 9ZM6 9L6 10L7 10L7 9ZM6 12L6 13L7 13L7 12ZM8 12L8 14L9 14L9 15L10 15L10 16L8 16L8 19L9 19L9 17L10 17L10 16L11 16L11 15L12 15L12 13L11 13L11 15L10 15L10 13L9 13L9 12ZM14 12L14 13L15 13L15 12ZM17 14L17 17L18 17L18 14ZM17 19L17 20L18 20L18 21L19 21L19 20L20 20L20 19L19 19L19 20L18 20L18 19ZM0 0L0 7L7 7L7 0ZM1 1L1 6L6 6L6 1ZM2 2L2 5L5 5L5 2ZM14 0L14 7L21 7L21 0ZM15 1L15 6L20 6L20 1ZM16 2L16 5L19 5L19 2ZM0 14L0 21L7 21L7 14ZM1 15L1 20L6 20L6 15ZM2 16L2 19L5 19L5 16Z" fill="#282828"/></g></g></svg>
