<?xml version="1.0" encoding="UTF-8"?>
<svg xmlns="http://www.w3.org/2000/svg" version="1.1" width="400" height="400" viewBox="0 0 400 400"><rect x="0" y="0" width="400" height="400" fill="#f5f5f5"/><g transform="scale(14.815)"><g transform="translate(3,3)"><path fill-rule="evenodd" d="M9 0L9 1L8 1L8 7L9 7L9 8L5 8L5 10L4 10L4 9L3 9L3 8L2 8L2 9L3 9L3 10L0 10L0 13L4 13L4 12L5 12L5 10L6 10L6 11L7 11L7 12L6 12L6 13L7 13L7 12L9 12L9 11L13 11L13 10L12 10L12 9L14 9L14 10L15 10L15 13L14 13L14 12L11 12L11 13L13 13L13 14L12 14L12 15L11 15L11 16L10 16L10 15L9 15L9 14L10 14L10 13L8 13L8 16L9 16L9 18L8 18L8 19L9 19L9 18L12 18L12 19L14 19L14 18L15 18L15 20L14 20L14 21L21 21L21 20L20 20L20 19L21 19L21 18L19 18L19 17L21 17L21 16L20 16L20 13L19 13L19 12L16 12L16 11L19 11L19 9L20 9L20 8L15 8L15 9L14 9L14 8L12 8L12 7L13 7L13 5L12 5L12 2L11 2L11 4L10 4L10 1L12 1L12 0ZM9 4L9 5L10 5L10 4ZM9 6L9 7L10 7L10 6ZM11 6L11 7L12 7L12 6ZM9 8L9 9L12 9L12 8ZM6 9L6 10L8 10L8 9ZM16 9L16 10L18 10L18 9ZM3 10L3 11L1 11L1 12L3 12L3 11L4 11L4 10ZM20 10L20 12L21 12L21 10ZM15 13L15 15L12 15L12 16L11 16L11 17L12 17L12 16L13 16L13 17L14 17L14 16L15 16L15 17L16 17L16 18L17 18L17 16L19 16L19 15L17 15L17 14L19 14L19 13ZM16 15L16 16L17 16L17 15ZM18 18L18 19L19 19L19 18ZM10 19L10 20L11 20L11 19ZM16 19L16 20L17 20L17 19ZM0 0L0 7L7 7L7 0ZM1 1L1 6L6 6L6 1ZM2 2L2 5L5 5L5 2ZM14 0L14 7L21 7L21 0ZM15 1L15 6L20 6L20 1ZM16 2L16 5L19 5L19 2ZM0 14L0 21L7 21L7 14ZM1 15L1 20L6 20L6 15ZM2 16L2 19L5 19L5 16Z" fill="#282828"/></g></g></svg>
