<?xml version="1.0" encoding="UTF-8"?>
<svg xmlns="http://www.w3.org/2000/svg" version="1.1" width="400" height="400" viewBox="0 0 400 400"><rect x="0" y="0" width="400" height="400" fill="#f5f5f5"/><g transform="scale(14.815)"><g transform="translate(3,3)"><path fill-rule="evenodd" d="M8 0L8 1L9 1L9 2L8 2L8 3L9 3L9 4L8 4L8 5L9 5L9 6L8 6L8 8L9 8L9 6L10 6L10 8L11 8L11 9L13 9L13 8L12 8L12 7L13 7L13 6L12 6L12 7L11 7L11 6L10 6L10 5L9 5L9 4L11 4L11 5L12 5L12 2L13 2L13 0L11 0L11 1L12 1L12 2L11 2L11 3L9 3L9 2L10 2L10 0ZM5 8L5 10L3 10L3 9L1 9L1 11L0 11L0 13L2 13L2 12L3 12L3 11L5 11L5 10L6 10L6 11L7 11L7 12L6 12L6 13L7 13L7 12L8 12L8 14L9 14L9 13L11 13L11 14L10 14L10 15L11 15L11 14L13 14L13 16L12 16L12 17L11 17L11 19L10 19L10 18L9 18L9 19L10 19L10 20L9 20L9 21L14 21L14 20L15 20L15 21L16 21L16 19L17 19L17 20L18 20L18 21L19 21L19 20L20 20L20 19L21 19L21 18L19 18L19 20L18 20L18 17L19 17L19 16L21 16L21 14L20 14L20 15L19 15L19 14L18 14L18 13L20 13L20 12L21 12L21 11L20 11L20 10L21 10L21 8L20 8L20 9L19 9L19 8L18 8L18 9L17 9L17 8L16 8L16 9L15 9L15 8L14 8L14 10L12 10L12 12L10 12L10 11L11 11L11 10L10 10L10 9L7 9L7 8ZM6 9L6 10L7 10L7 9ZM14 10L14 11L13 11L13 13L14 13L14 14L15 14L15 15L14 15L14 16L15 16L15 17L12 17L12 18L13 18L13 19L11 19L11 20L14 20L14 19L15 19L15 17L16 17L16 18L17 18L17 17L18 17L18 14L17 14L17 13L14 13L14 11L15 11L15 10ZM16 10L16 12L18 12L18 11L19 11L19 10L18 10L18 11L17 11L17 10ZM1 11L1 12L2 12L2 11ZM8 11L8 12L9 12L9 11ZM4 12L4 13L5 13L5 12ZM16 14L16 15L17 15L17 14ZM8 15L8 16L9 16L9 17L10 17L10 16L9 16L9 15ZM16 16L16 17L17 17L17 16ZM0 0L0 7L7 7L7 0ZM1 1L1 6L6 6L6 1ZM2 2L2 5L5 5L5 2ZM14 0L14 7L21 7L21 0ZM15 1L15 6L20 6L20 1ZM16 2L16 5L19 5L19 2ZM0 14L0 21L7 21L7 14ZM1 15L1 20L6 20L6 15ZM2 16L2 19L5 19L5 16Z" fill="#282828"/></g></g></svg>
