<?xml version="1.0" encoding="UTF-8"?>
<svg xmlns="http://www.w3.org/2000/svg" version="1.1" width="400" height="400" viewBox="0 0 400 400"><rect x="0" y="0" width="400" height="400" fill="#f5f5f5"/><g transform="scale(14.815)"><g transform="translate(3,3)"><path fill-rule="evenodd" d="M10 0L10 1L9 1L9 4L8 4L8 5L9 5L9 6L8 6L8 8L6 8L6 9L8 9L8 10L5 10L5 9L4 9L4 8L2 8L2 10L1 10L1 12L2 12L2 11L4 11L4 13L5 13L5 11L9 11L9 10L10 10L10 13L11 13L11 16L10 16L10 17L11 17L11 18L9 18L9 17L8 17L8 19L11 19L11 20L10 20L10 21L11 21L11 20L12 20L12 21L13 21L13 20L12 20L12 19L13 19L13 18L14 18L14 15L15 15L15 19L14 19L14 21L15 21L15 20L16 20L16 21L17 21L17 20L16 20L16 18L20 18L20 17L21 17L21 16L20 16L20 15L21 15L21 12L20 12L20 13L19 13L19 15L18 15L18 16L17 16L17 15L16 15L16 14L14 14L14 15L13 15L13 16L12 16L12 12L11 12L11 11L12 11L12 7L13 7L13 5L12 5L12 7L11 7L11 6L10 6L10 4L11 4L11 3L12 3L12 4L13 4L13 0ZM10 1L10 2L11 2L11 1ZM9 6L9 9L10 9L10 10L11 10L11 9L10 9L10 8L11 8L11 7L10 7L10 6ZM13 8L13 10L15 10L15 8ZM16 8L16 9L17 9L17 10L18 10L18 11L19 11L19 10L20 10L20 9L17 9L17 8ZM3 9L3 10L4 10L4 9ZM14 11L14 12L13 12L13 13L14 13L14 12L15 12L15 13L16 13L16 12L17 12L17 13L18 13L18 12L17 12L17 11ZM6 12L6 13L7 13L7 12ZM8 12L8 15L10 15L10 14L9 14L9 12ZM11 16L11 17L12 17L12 16ZM18 16L18 17L20 17L20 16ZM11 18L11 19L12 19L12 18ZM18 19L18 20L19 20L19 21L20 21L20 20L21 20L21 19ZM0 0L0 7L7 7L7 0ZM1 1L1 6L6 6L6 1ZM2 2L2 5L5 5L5 2ZM14 0L14 7L21 7L21 0ZM15 1L15 6L20 6L20 1ZM16 2L16 5L19 5L19 2ZM0 14L0 21L7 21L7 14ZM1 15L1 20L6 20L6 15ZM2 16L2 19L5 19L5 16Z" fill="#282828"/></g></g></svg>
