<?xml version="1.0" encoding="UTF-8"?>
<svg xmlns="http://www.w3.org/2000/svg" version="1.1" width="400" height="400" viewBox="0 0 400 400"><rect x="0" y="0" width="400" height="400" fill="#f5f5f5"/><g transform="scale(14.815)"><g transform="translate(3,3)"><path fill-rule="evenodd" d="M9 0L9 1L8 1L8 7L9 7L9 5L11 5L11 6L10 6L10 7L11 7L11 8L12 8L12 9L11 9L11 10L10 10L10 11L9 11L9 8L5 8L5 9L4 9L4 11L2 11L2 12L1 12L1 10L0 10L0 12L1 12L1 13L2 13L2 12L3 12L3 13L4 13L4 11L5 11L5 10L6 10L6 11L9 11L9 13L8 13L8 12L6 12L6 13L8 13L8 16L9 16L9 18L8 18L8 19L9 19L9 18L10 18L10 20L9 20L9 21L12 21L12 20L14 20L14 18L13 18L13 16L14 16L14 17L15 17L15 21L21 21L21 20L20 20L20 19L21 19L21 18L19 18L19 17L21 17L21 16L20 16L20 14L19 14L19 13L20 13L20 12L21 12L21 9L20 9L20 8L15 8L15 11L14 11L14 8L13 8L13 4L12 4L12 2L13 2L13 1L12 1L12 0L11 0L11 2L10 2L10 0ZM9 2L9 3L10 3L10 4L11 4L11 5L12 5L12 4L11 4L11 3L10 3L10 2ZM11 6L11 7L12 7L12 6ZM2 8L2 10L3 10L3 8ZM6 9L6 10L7 10L7 9ZM12 9L12 13L9 13L9 16L13 16L13 15L14 15L14 14L15 14L15 17L16 17L16 18L17 18L17 16L19 16L19 15L17 15L17 14L18 14L18 13L13 13L13 12L14 12L14 11L13 11L13 9ZM16 9L16 10L18 10L18 11L16 11L16 12L18 12L18 11L19 11L19 12L20 12L20 11L19 11L19 10L18 10L18 9ZM10 11L10 12L11 12L11 11ZM12 13L12 14L10 14L10 15L12 15L12 14L13 14L13 13ZM16 15L16 16L17 16L17 15ZM10 17L10 18L11 18L11 17ZM18 18L18 19L19 19L19 18ZM11 19L11 20L12 20L12 19ZM16 19L16 20L17 20L17 19ZM0 0L0 7L7 7L7 0ZM1 1L1 6L6 6L6 1ZM2 2L2 5L5 5L5 2ZM14 0L14 7L21 7L21 0ZM15 1L15 6L20 6L20 1ZM16 2L16 5L19 5L19 2ZM0 14L0 21L7 21L7 14ZM1 15L1 20L6 20L6 15ZM2 16L2 19L5 19L5 16Z" fill="#282828"/></g></g></svg>
