<?xml version="1.0" encoding="UTF-8"?>
<svg xmlns="http://www.w3.org/2000/svg" version="1.1" width="400" height="400" viewBox="0 0 400 400"><rect x="0" y="0" width="400" height="400" fill="#f5f5f5"/><g transform="scale(14.815)"><g transform="translate(3,3)"><path fill-rule="evenodd" d="M8 0L8 1L9 1L9 0ZM10 0L10 3L8 3L8 4L10 4L10 5L9 5L9 6L8 6L8 7L9 7L9 8L8 8L8 9L7 9L7 8L4 8L4 9L5 9L5 11L3 11L3 13L5 13L5 11L7 11L7 12L6 12L6 13L7 13L7 12L8 12L8 14L9 14L9 15L8 15L8 17L9 17L9 18L8 18L8 19L9 19L9 18L13 18L13 17L12 17L12 16L14 16L14 18L15 18L15 17L16 17L16 16L18 16L18 18L20 18L20 19L21 19L21 18L20 18L20 17L21 17L21 16L20 16L20 17L19 17L19 16L18 16L18 15L19 15L19 14L20 14L20 13L21 13L21 11L20 11L20 12L19 12L19 11L17 11L17 10L19 10L19 9L18 9L18 8L17 8L17 10L16 10L16 11L17 11L17 12L16 12L16 13L14 13L14 14L13 14L13 11L14 11L14 8L12 8L12 9L11 9L11 8L10 8L10 7L11 7L11 6L12 6L12 7L13 7L13 5L12 5L12 4L11 4L11 2L12 2L12 0ZM10 5L10 6L9 6L9 7L10 7L10 6L11 6L11 5ZM2 8L2 9L1 9L1 10L0 10L0 13L1 13L1 12L2 12L2 11L1 11L1 10L2 10L2 9L3 9L3 8ZM20 8L20 10L21 10L21 8ZM6 9L6 10L7 10L7 9ZM9 9L9 10L8 10L8 11L9 11L9 12L10 12L10 13L9 13L9 14L10 14L10 13L11 13L11 15L13 15L13 14L12 14L12 11L13 11L13 9L12 9L12 11L11 11L11 10L10 10L10 9ZM10 11L10 12L11 12L11 11ZM16 13L16 15L18 15L18 13ZM9 15L9 17L10 17L10 15ZM16 18L16 19L17 19L17 18ZM10 19L10 20L9 20L9 21L12 21L12 19ZM14 19L14 21L15 21L15 19ZM18 19L18 21L19 21L19 19ZM16 20L16 21L17 21L17 20ZM20 20L20 21L21 21L21 20ZM0 0L0 7L7 7L7 0ZM1 1L1 6L6 6L6 1ZM2 2L2 5L5 5L5 2ZM14 0L14 7L21 7L21 0ZM15 1L15 6L20 6L20 1ZM16 2L16 5L19 5L19 2ZM0 14L0 21L7 21L7 14ZM1 15L1 20L6 20L6 15ZM2 16L2 19L5 19L5 16Z" fill="#282828"/></g></g></svg>
