<?xml version="1.0" encoding="UTF-8"?>
<svg xmlns="http://www.w3.org/2000/svg" version="1.1" width="400" height="400" viewBox="0 0 400 400"><rect x="0" y="0" width="400" height="400" fill="#f5f5f5"/><g transform="scale(14.815)"><g transform="translate(3,3)"><path fill-rule="evenodd" d="M8 0L8 1L9 1L9 3L8 3L8 4L9 4L9 5L10 5L10 4L11 4L11 6L10 6L10 7L11 7L11 6L12 6L12 8L13 8L13 9L14 9L14 10L12 10L12 9L11 9L11 8L8 8L8 9L7 9L7 8L4 8L4 9L5 9L5 10L3 10L3 8L2 8L2 9L1 9L1 10L0 10L0 13L1 13L1 12L3 12L3 11L5 11L5 10L6 10L6 11L7 11L7 12L4 12L4 13L8 13L8 14L9 14L9 13L11 13L11 10L12 10L12 14L15 14L15 15L14 15L14 17L13 17L13 19L14 19L14 20L12 20L12 17L10 17L10 16L12 16L12 15L11 15L11 14L10 14L10 16L9 16L9 15L8 15L8 17L9 17L9 18L8 18L8 19L10 19L10 18L11 18L11 21L14 21L14 20L15 20L15 19L14 19L14 18L15 18L15 17L16 17L16 16L18 16L18 18L20 18L20 19L21 19L21 18L20 18L20 17L21 17L21 16L20 16L20 17L19 17L19 16L18 16L18 15L19 15L19 14L21 14L21 13L19 13L19 12L18 12L18 11L17 11L17 10L18 10L18 8L17 8L17 10L16 10L16 11L17 11L17 12L16 12L16 13L14 13L14 12L15 12L15 9L14 9L14 8L13 8L13 5L12 5L12 4L13 4L13 1L11 1L11 0ZM10 1L10 3L9 3L9 4L10 4L10 3L11 3L11 4L12 4L12 2L11 2L11 1ZM8 6L8 7L9 7L9 6ZM20 8L20 9L21 9L21 8ZM6 9L6 10L7 10L7 9ZM9 9L9 12L10 12L10 10L11 10L11 9ZM2 10L2 11L3 11L3 10ZM13 11L13 12L14 12L14 11ZM20 11L20 12L21 12L21 11ZM16 13L16 15L18 15L18 13ZM16 18L16 19L17 19L17 18ZM18 19L18 21L19 21L19 19ZM9 20L9 21L10 21L10 20ZM16 20L16 21L17 21L17 20ZM20 20L20 21L21 21L21 20ZM0 0L0 7L7 7L7 0ZM1 1L1 6L6 6L6 1ZM2 2L2 5L5 5L5 2ZM14 0L14 7L21 7L21 0ZM15 1L15 6L20 6L20 1ZM16 2L16 5L19 5L19 2ZM0 14L0 21L7 21L7 14ZM1 15L1 20L6 20L6 15ZM2 16L2 19L5 19L5 16Z" fill="#282828"/></g></g></svg>
