<?xml version="1.0" encoding="UTF-8"?>
<svg xmlns="http://www.w3.org/2000/svg" version="1.1" width="400" height="400" viewBox="0 0 400 400"><rect x="0" y="0" width="400" height="400" fill="#f5f5f5"/><g transform="scale(14.815)"><g transform="translate(3,3)"><path fill-rule="evenodd" d="M8 0L8 1L9 1L9 0ZM10 1L10 2L11 2L11 5L10 5L10 4L9 4L9 3L8 3L8 4L9 4L9 5L10 5L10 7L9 7L9 6L8 6L8 7L9 7L9 8L8 8L8 9L7 9L7 8L4 8L4 9L3 9L3 8L2 8L2 10L1 10L1 9L0 9L0 10L1 10L1 13L3 13L3 12L2 12L2 10L3 10L3 11L4 11L4 13L7 13L7 12L6 12L6 11L8 11L8 12L11 12L11 11L8 11L8 9L9 9L9 10L10 10L10 9L9 9L9 8L12 8L12 9L11 9L11 10L12 10L12 11L13 11L13 12L12 12L12 13L10 13L10 15L8 15L8 17L9 17L9 18L8 18L8 19L9 19L9 21L10 21L10 19L11 19L11 18L12 18L12 17L11 17L11 18L10 18L10 16L12 16L12 15L11 15L11 14L13 14L13 12L14 12L14 13L15 13L15 14L14 14L14 15L15 15L15 17L16 17L16 16L18 16L18 18L20 18L20 19L21 19L21 18L20 18L20 17L21 17L21 16L20 16L20 17L19 17L19 16L18 16L18 15L19 15L19 14L20 14L20 12L19 12L19 13L18 13L18 12L16 12L16 13L15 13L15 10L14 10L14 8L12 8L12 7L13 7L13 4L12 4L12 3L13 3L13 2L12 2L12 1ZM11 6L11 7L12 7L12 6ZM17 8L17 9L18 9L18 8ZM20 8L20 9L19 9L19 10L16 10L16 11L19 11L19 10L21 10L21 8ZM5 9L5 10L4 10L4 11L6 11L6 10L7 10L7 9ZM12 9L12 10L13 10L13 9ZM8 13L8 14L9 14L9 13ZM16 13L16 15L18 15L18 13ZM13 16L13 18L14 18L14 19L15 19L15 18L14 18L14 16ZM16 18L16 19L17 19L17 18ZM18 19L18 21L19 21L19 19ZM16 20L16 21L17 21L17 20ZM20 20L20 21L21 21L21 20ZM0 0L0 7L7 7L7 0ZM1 1L1 6L6 6L6 1ZM2 2L2 5L5 5L5 2ZM14 0L14 7L21 7L21 0ZM15 1L15 6L20 6L20 1ZM16 2L16 5L19 5L19 2ZM0 14L0 21L7 21L7 14ZM1 15L1 20L6 20L6 15ZM2 16L2 19L5 19L5 16Z" fill="#282828"/></g></g></svg>
