<?xml version="1.0" encoding="UTF-8"?>
<svg xmlns="http://www.w3.org/2000/svg" version="1.1" width="400" height="400" viewBox="0 0 400 400"><rect x="0" y="0" width="400" height="400" fill="#f5f5f5"/><g transform="scale(14.815)"><g transform="translate(3,3)"><path fill-rule="evenodd" d="M9 0L9 1L8 1L8 2L9 2L9 3L10 3L10 4L9 4L9 5L8 5L8 8L4 8L4 9L3 9L3 10L2 10L2 9L0 9L0 11L2 11L2 12L3 12L3 13L7 13L7 12L8 12L8 11L10 11L10 13L12 13L12 15L10 15L10 14L9 14L9 13L8 13L8 17L10 17L10 18L9 18L9 19L10 19L10 18L11 18L11 20L9 20L9 21L13 21L13 20L14 20L14 19L16 19L16 20L17 20L17 19L18 19L18 21L21 21L21 20L20 20L20 19L19 19L19 18L21 18L21 16L20 16L20 15L21 15L21 14L20 14L20 15L19 15L19 16L18 16L18 12L19 12L19 13L20 13L20 12L21 12L21 11L17 11L17 10L19 10L19 9L20 9L20 10L21 10L21 9L20 9L20 8L19 8L19 9L17 9L17 10L16 10L16 8L14 8L14 9L15 9L15 10L14 10L14 12L13 12L13 13L12 13L12 11L13 11L13 9L12 9L12 8L13 8L13 5L12 5L12 7L11 7L11 5L10 5L10 4L11 4L11 3L12 3L12 4L13 4L13 2L12 2L12 1L13 1L13 0L12 0L12 1L10 1L10 0ZM9 1L9 2L10 2L10 3L11 3L11 2L10 2L10 1ZM9 5L9 8L8 8L8 9L9 9L9 10L10 10L10 11L11 11L11 10L12 10L12 9L10 9L10 5ZM4 9L4 10L5 10L5 11L4 11L4 12L5 12L5 11L6 11L6 12L7 12L7 11L6 11L6 10L7 10L7 9ZM15 11L15 15L14 15L14 13L13 13L13 15L14 15L14 16L13 16L13 17L14 17L14 18L15 18L15 17L14 17L14 16L15 16L15 15L16 15L16 16L17 16L17 17L16 17L16 18L17 18L17 17L18 17L18 18L19 18L19 17L18 17L18 16L17 16L17 12L16 12L16 11ZM0 12L0 13L1 13L1 12ZM10 16L10 17L11 17L11 18L12 18L12 16ZM12 19L12 20L13 20L13 19ZM0 0L0 7L7 7L7 0ZM1 1L1 6L6 6L6 1ZM2 2L2 5L5 5L5 2ZM14 0L14 7L21 7L21 0ZM15 1L15 6L20 6L20 1ZM16 2L16 5L19 5L19 2ZM0 14L0 21L7 21L7 14ZM1 15L1 20L6 20L6 15ZM2 16L2 19L5 19L5 16Z" fill="#282828"/></g></g></svg>
