<?xml version="1.0" encoding="UTF-8"?>
<svg xmlns="http://www.w3.org/2000/svg" version="1.1" width="400" height="400" viewBox="0 0 400 400"><rect x="0" y="0" width="400" height="400" fill="#f5f5f5"/><g transform="scale(14.815)"><g transform="translate(3,3)"><path fill-rule="evenodd" d="M8 0L8 2L10 2L10 3L12 3L12 2L10 2L10 0ZM11 0L11 1L13 1L13 0ZM8 3L8 7L9 7L9 8L11 8L11 6L10 6L10 7L9 7L9 3ZM11 4L11 5L13 5L13 4ZM12 6L12 7L13 7L13 6ZM3 8L3 9L0 9L0 10L1 10L1 11L0 11L0 12L2 12L2 11L3 11L3 13L4 13L4 11L5 11L5 13L7 13L7 12L6 12L6 11L8 11L8 12L9 12L9 10L12 10L12 11L10 11L10 13L8 13L8 14L10 14L10 15L9 15L9 16L10 16L10 15L11 15L11 18L10 18L10 20L11 20L11 21L12 21L12 20L13 20L13 19L11 19L11 18L12 18L12 17L14 17L14 16L15 16L15 17L17 17L17 18L16 18L16 21L19 21L19 20L20 20L20 19L21 19L21 16L18 16L18 15L19 15L19 14L20 14L20 15L21 15L21 11L20 11L20 13L19 13L19 14L17 14L17 13L18 13L18 12L19 12L19 10L20 10L20 9L21 9L21 8L19 8L19 10L18 10L18 11L17 11L17 12L16 12L16 13L15 13L15 15L14 15L14 13L13 13L13 12L14 12L14 11L15 11L15 10L14 10L14 11L13 11L13 9L9 9L9 10L8 10L8 9L7 9L7 8L6 8L6 9L5 9L5 10L3 10L3 9L4 9L4 8ZM15 8L15 9L18 9L18 8ZM6 9L6 10L5 10L5 11L6 11L6 10L7 10L7 9ZM11 12L11 13L10 13L10 14L12 14L12 12ZM16 14L16 15L17 15L17 14ZM17 16L17 17L18 17L18 16ZM8 17L8 18L9 18L9 17ZM17 18L17 20L18 20L18 19L20 19L20 18ZM14 19L14 20L15 20L15 19ZM0 0L0 7L7 7L7 0ZM1 1L1 6L6 6L6 1ZM2 2L2 5L5 5L5 2ZM14 0L14 7L21 7L21 0ZM15 1L15 6L20 6L20 1ZM16 2L16 5L19 5L19 2ZM0 14L0 21L7 21L7 14ZM1 15L1 20L6 20L6 15ZM2 16L2 19L5 19L5 16Z" fill="#282828"/></g></g></svg>
