<?xml version="1.0" encoding="UTF-8"?>
<svg xmlns="http://www.w3.org/2000/svg" version="1.1" width="400" height="400" viewBox="0 0 400 400"><rect x="0" y="0" width="400" height="400" fill="#f5f5f5"/><g transform="scale(14.815)"><g transform="translate(3,3)"><path fill-rule="evenodd" d="M8 0L8 3L9 3L9 5L8 5L8 9L7 9L7 8L6 8L6 9L5 9L5 8L2 8L2 9L5 9L5 11L4 11L4 10L2 10L2 11L1 11L1 10L0 10L0 11L1 11L1 13L4 13L4 12L5 12L5 13L7 13L7 12L8 12L8 11L9 11L9 10L11 10L11 11L10 11L10 12L11 12L11 13L8 13L8 14L11 14L11 13L13 13L13 10L12 10L12 9L14 9L14 10L15 10L15 11L16 11L16 10L15 10L15 9L16 9L16 8L9 8L9 6L10 6L10 7L11 7L11 5L13 5L13 4L12 4L12 3L9 3L9 2L12 2L12 0L11 0L11 1L9 1L9 0ZM10 4L10 5L11 5L11 4ZM12 6L12 7L13 7L13 6ZM18 8L18 9L17 9L17 10L18 10L18 9L21 9L21 8ZM6 9L6 10L7 10L7 9ZM19 10L19 12L18 12L18 13L17 13L17 14L16 14L16 12L14 12L14 14L13 14L13 15L12 15L12 16L13 16L13 15L14 15L14 16L16 16L16 17L17 17L17 18L18 18L18 17L19 17L19 16L20 16L20 15L21 15L21 12L20 12L20 11L21 11L21 10ZM2 11L2 12L3 12L3 11ZM6 11L6 12L7 12L7 11ZM11 11L11 12L12 12L12 11ZM19 12L19 15L20 15L20 12ZM15 14L15 15L16 15L16 14ZM17 14L17 17L18 17L18 14ZM9 15L9 16L8 16L8 19L9 19L9 18L10 18L10 20L9 20L9 21L10 21L10 20L11 20L11 21L12 21L12 20L13 20L13 21L14 21L14 20L15 20L15 21L16 21L16 20L15 20L15 19L16 19L16 18L15 18L15 19L14 19L14 20L13 20L13 18L14 18L14 17L12 17L12 18L10 18L10 17L11 17L11 15ZM9 16L9 17L10 17L10 16ZM11 19L11 20L12 20L12 19ZM17 19L17 20L18 20L18 21L19 21L19 20L20 20L20 19L19 19L19 20L18 20L18 19ZM0 0L0 7L7 7L7 0ZM1 1L1 6L6 6L6 1ZM2 2L2 5L5 5L5 2ZM14 0L14 7L21 7L21 0ZM15 1L15 6L20 6L20 1ZM16 2L16 5L19 5L19 2ZM0 14L0 21L7 21L7 14ZM1 15L1 20L6 20L6 15ZM2 16L2 19L5 19L5 16Z" fill="#282828"/></g></g></svg>
