<?xml version="1.0" encoding="UTF-8"?>
<svg xmlns="http://www.w3.org/2000/svg" version="1.1" width="400" height="400" viewBox="0 0 400 400"><rect x="0" y="0" width="400" height="400" fill="#f5f5f5"/><g transform="scale(14.815)"><g transform="translate(3,3)"><path fill-rule="evenodd" d="M8 1L8 7L9 7L9 5L10 5L10 8L13 8L13 9L14 9L14 11L13 11L13 10L12 10L12 9L9 9L9 8L5 8L5 9L4 9L4 10L3 10L3 8L2 8L2 10L3 10L3 11L1 11L1 10L0 10L0 11L1 11L1 12L3 12L3 11L5 11L5 12L6 12L6 13L7 13L7 12L8 12L8 11L7 11L7 10L11 10L11 11L10 11L10 12L9 12L9 13L8 13L8 16L9 16L9 18L8 18L8 19L9 19L9 18L11 18L11 19L10 19L10 20L9 20L9 21L11 21L11 19L12 19L12 21L13 21L13 19L14 19L14 18L15 18L15 20L14 20L14 21L21 21L21 20L20 20L20 19L21 19L21 18L19 18L19 17L21 17L21 16L20 16L20 14L21 14L21 12L20 12L20 14L19 14L19 13L17 13L17 12L16 12L16 11L17 11L17 10L18 10L18 9L19 9L19 10L21 10L21 9L20 9L20 8L15 8L15 9L14 9L14 8L13 8L13 5L12 5L12 3L10 3L10 2L12 2L12 1L10 1L10 2L9 2L9 1ZM9 3L9 4L10 4L10 3ZM11 5L11 7L12 7L12 5ZM6 9L6 10L7 10L7 9ZM16 9L16 10L17 10L17 9ZM6 11L6 12L7 12L7 11ZM14 11L14 12L15 12L15 11ZM10 12L10 13L9 13L9 15L10 15L10 17L12 17L12 18L14 18L14 17L12 17L12 16L14 16L14 15L15 15L15 17L16 17L16 18L17 18L17 16L19 16L19 15L17 15L17 13L15 13L15 14L14 14L14 15L13 15L13 12L12 12L12 15L10 15L10 14L11 14L11 12ZM16 15L16 16L17 16L17 15ZM18 18L18 19L19 19L19 18ZM16 19L16 20L17 20L17 19ZM0 0L0 7L7 7L7 0ZM1 1L1 6L6 6L6 1ZM2 2L2 5L5 5L5 2ZM14 0L14 7L21 7L21 0ZM15 1L15 6L20 6L20 1ZM16 2L16 5L19 5L19 2ZM0 14L0 21L7 21L7 14ZM1 15L1 20L6 20L6 15ZM2 16L2 19L5 19L5 16Z" fill="#282828"/></g></g></svg>
