<?xml version="1.0" encoding="UTF-8"?>
<svg xmlns="http://www.w3.org/2000/svg" version="1.1" width="400" height="400" viewBox="0 0 400 400"><rect x="0" y="0" width="400" height="400" fill="#f5f5f5"/><g transform="scale(14.815)"><g transform="translate(3,3)"><path fill-rule="evenodd" d="M10 0L10 1L8 1L8 7L9 7L9 2L10 2L10 3L11 3L11 4L10 4L10 8L11 8L11 5L12 5L12 4L13 4L13 3L11 3L11 0ZM12 6L12 7L13 7L13 6ZM2 8L2 9L3 9L3 8ZM5 8L5 10L1 10L1 11L0 11L0 13L1 13L1 12L2 12L2 13L8 13L8 16L9 16L9 14L10 14L10 15L11 15L11 14L12 14L12 16L10 16L10 17L9 17L9 18L8 18L8 19L10 19L10 17L12 17L12 18L11 18L11 20L9 20L9 21L11 21L11 20L12 20L12 21L13 21L13 19L14 19L14 20L15 20L15 21L21 21L21 20L20 20L20 19L21 19L21 18L19 18L19 17L21 17L21 16L20 16L20 14L19 14L19 10L16 10L16 9L20 9L20 8L15 8L15 13L18 13L18 14L17 14L17 15L16 15L16 16L17 16L17 18L16 18L16 17L15 17L15 18L13 18L13 17L14 17L14 16L15 16L15 15L14 15L14 14L13 14L13 13L11 13L11 11L9 11L9 10L8 10L8 9L9 9L9 8ZM12 8L12 9L11 9L11 10L14 10L14 8ZM6 9L6 10L5 10L5 11L6 11L6 12L7 12L7 11L8 11L8 12L9 12L9 11L8 11L8 10L7 10L7 9ZM6 10L6 11L7 11L7 10ZM20 10L20 11L21 11L21 10ZM2 11L2 12L4 12L4 11ZM13 11L13 12L14 12L14 11ZM16 11L16 12L18 12L18 11ZM10 13L10 14L11 14L11 13ZM17 15L17 16L19 16L19 15ZM12 16L12 17L13 17L13 16ZM12 18L12 19L13 19L13 18ZM18 18L18 19L19 19L19 18ZM16 19L16 20L17 20L17 19ZM0 0L0 7L7 7L7 0ZM1 1L1 6L6 6L6 1ZM2 2L2 5L5 5L5 2ZM14 0L14 7L21 7L21 0ZM15 1L15 6L20 6L20 1ZM16 2L16 5L19 5L19 2ZM0 14L0 21L7 21L7 14ZM1 15L1 20L6 20L6 15ZM2 16L2 19L5 19L5 16Z" fill="#282828"/></g></g></svg>
