<?xml version="1.0" encoding="UTF-8"?>
<svg xmlns="http://www.w3.org/2000/svg" version="1.1" width="400" height="400" viewBox="0 0 400 400"><rect x="0" y="0" width="400" height="400" fill="#f5f5f5"/><g transform="scale(14.815)"><g transform="translate(3,3)"><path fill-rule="evenodd" d="M8 0L8 2L9 2L9 0ZM10 0L10 1L13 1L13 0ZM12 2L12 5L11 5L11 3L8 3L8 7L9 7L9 11L7 11L7 10L8 10L8 9L7 9L7 8L6 8L6 9L7 9L7 10L6 10L6 11L4 11L4 8L3 8L3 9L2 9L2 10L3 10L3 11L4 11L4 13L5 13L5 12L6 12L6 13L8 13L8 14L9 14L9 13L10 13L10 15L11 15L11 16L10 16L10 17L8 17L8 18L9 18L9 20L11 20L11 21L15 21L15 20L13 20L13 19L15 19L15 18L13 18L13 17L12 17L12 18L11 18L11 19L10 19L10 17L11 17L11 16L12 16L12 15L13 15L13 16L14 16L14 17L17 17L17 18L16 18L16 21L19 21L19 20L20 20L20 19L21 19L21 16L18 16L18 15L19 15L19 14L20 14L20 15L21 15L21 14L20 14L20 13L19 13L19 9L21 9L21 8L19 8L19 9L18 9L18 8L15 8L15 9L18 9L18 10L17 10L17 11L18 11L18 12L16 12L16 13L15 13L15 11L13 11L13 10L14 10L14 9L13 9L13 8L12 8L12 7L13 7L13 6L12 6L12 5L13 5L13 2ZM9 4L9 5L10 5L10 4ZM9 6L9 7L10 7L10 8L11 8L11 7L12 7L12 6L11 6L11 7L10 7L10 6ZM0 9L0 11L1 11L1 12L0 12L0 13L1 13L1 12L2 12L2 13L3 13L3 12L2 12L2 11L1 11L1 9ZM11 9L11 11L12 11L12 10L13 10L13 9ZM6 11L6 12L7 12L7 11ZM10 12L10 13L12 13L12 14L13 14L13 15L15 15L15 14L13 14L13 13L14 13L14 12L13 12L13 13L12 13L12 12ZM17 13L17 14L16 14L16 15L17 15L17 14L19 14L19 13ZM17 16L17 17L18 17L18 16ZM17 18L17 20L18 20L18 19L20 19L20 18ZM0 0L0 7L7 7L7 0ZM1 1L1 6L6 6L6 1ZM2 2L2 5L5 5L5 2ZM14 0L14 7L21 7L21 0ZM15 1L15 6L20 6L20 1ZM16 2L16 5L19 5L19 2ZM0 14L0 21L7 21L7 14ZM1 15L1 20L6 20L6 15ZM2 16L2 19L5 19L5 16Z" fill="#282828"/></g></g></svg>
