<?xml version="1.0" encoding="UTF-8"?>
<svg xmlns="http://www.w3.org/2000/svg" version="1.1" width="400" height="400" viewBox="0 0 400 400"><rect x="0" y="0" width="400" height="400" fill="#f5f5f5"/><g transform="scale(14.815)"><g transform="translate(3,3)"><path fill-rule="evenodd" d="M9 0L9 1L10 1L10 2L11 2L11 3L10 3L10 4L8 4L8 5L10 5L10 7L11 7L11 8L10 8L10 9L9 9L9 6L8 6L8 8L6 8L6 9L8 9L8 10L11 10L11 11L8 11L8 12L6 12L6 13L8 13L8 15L9 15L9 14L10 14L10 15L11 15L11 16L10 16L10 17L8 17L8 19L10 19L10 20L9 20L9 21L10 21L10 20L11 20L11 16L13 16L13 17L12 17L12 18L13 18L13 17L14 17L14 15L15 15L15 18L14 18L14 20L12 20L12 21L14 21L14 20L16 20L16 21L17 21L17 20L16 20L16 18L20 18L20 17L21 17L21 16L20 16L20 15L21 15L21 12L20 12L20 13L19 13L19 15L18 15L18 16L17 16L17 15L16 15L16 14L14 14L14 13L16 13L16 12L17 12L17 14L18 14L18 12L17 12L17 11L14 11L14 10L11 10L11 9L12 9L12 8L13 8L13 9L15 9L15 8L13 8L13 6L12 6L12 4L13 4L13 2L12 2L12 1L11 1L11 0ZM11 3L11 4L10 4L10 5L11 5L11 4L12 4L12 3ZM11 6L11 7L12 7L12 6ZM2 8L2 9L1 9L1 10L0 10L0 12L1 12L1 13L2 13L2 12L1 12L1 11L3 11L3 13L5 13L5 11L4 11L4 10L5 10L5 9L4 9L4 8ZM16 8L16 9L17 9L17 10L18 10L18 11L19 11L19 9L17 9L17 8ZM3 9L3 10L4 10L4 9ZM20 9L20 11L21 11L21 9ZM6 10L6 11L7 11L7 10ZM11 11L11 12L12 12L12 14L13 14L13 13L14 13L14 12L13 12L13 11ZM10 13L10 14L11 14L11 13ZM18 16L18 17L20 17L20 16ZM18 19L18 20L19 20L19 21L20 21L20 20L21 20L21 19ZM0 0L0 7L7 7L7 0ZM1 1L1 6L6 6L6 1ZM2 2L2 5L5 5L5 2ZM14 0L14 7L21 7L21 0ZM15 1L15 6L20 6L20 1ZM16 2L16 5L19 5L19 2ZM0 14L0 21L7 21L7 14ZM1 15L1 20L6 20L6 15ZM2 16L2 19L5 19L5 16Z" fill="#282828"/></g></g></svg>
