<?xml version="1.0" encoding="UTF-8"?>
<svg xmlns="http://www.w3.org/2000/svg" version="1.1" width="400" height="400" viewBox="0 0 400 400"><rect x="0" y="0" width="400" height="400" fill="#f5f5f5"/><g transform="scale(14.815)"><g transform="translate(3,3)"><path fill-rule="evenodd" d="M9 0L9 1L10 1L10 0ZM11 0L11 1L12 1L12 3L13 3L13 1L12 1L12 0ZM9 2L9 3L10 3L10 4L11 4L11 3L10 3L10 2ZM8 4L8 5L9 5L9 6L8 6L8 8L6 8L6 9L5 9L5 10L1 10L1 9L0 9L0 12L1 12L1 13L4 13L4 12L5 12L5 10L6 10L6 11L7 11L7 12L6 12L6 13L8 13L8 15L13 15L13 17L15 17L15 18L13 18L13 19L14 19L14 20L13 20L13 21L15 21L15 20L16 20L16 21L17 21L17 20L16 20L16 18L20 18L20 17L21 17L21 16L20 16L20 15L21 15L21 10L20 10L20 9L19 9L19 10L18 10L18 9L17 9L17 8L16 8L16 9L17 9L17 11L15 11L15 10L14 10L14 9L15 9L15 8L11 8L11 9L12 9L12 10L14 10L14 11L15 11L15 12L13 12L13 11L10 11L10 12L9 12L9 13L8 13L8 10L10 10L10 9L9 9L9 6L10 6L10 7L11 7L11 6L12 6L12 7L13 7L13 4L12 4L12 5L9 5L9 4ZM2 8L2 9L4 9L4 8ZM6 9L6 10L7 10L7 9ZM19 10L19 11L20 11L20 10ZM1 11L1 12L3 12L3 11ZM17 11L17 12L16 12L16 13L13 13L13 15L14 15L14 16L15 16L15 14L16 14L16 15L17 15L17 16L18 16L18 17L20 17L20 16L18 16L18 15L19 15L19 14L20 14L20 12L19 12L19 13L18 13L18 11ZM10 12L10 13L9 13L9 14L12 14L12 13L11 13L11 12ZM17 13L17 14L18 14L18 13ZM9 16L9 17L8 17L8 19L9 19L9 21L11 21L11 20L12 20L12 17L10 17L10 16ZM9 17L9 18L10 18L10 17ZM10 19L10 20L11 20L11 19ZM18 19L18 20L19 20L19 21L20 21L20 20L21 20L21 19ZM0 0L0 7L7 7L7 0ZM1 1L1 6L6 6L6 1ZM2 2L2 5L5 5L5 2ZM14 0L14 7L21 7L21 0ZM15 1L15 6L20 6L20 1ZM16 2L16 5L19 5L19 2ZM0 14L0 21L7 21L7 14ZM1 15L1 20L6 20L6 15ZM2 16L2 19L5 19L5 16Z" fill="#282828"/></g></g></svg>
