<?xml version="1.0" encoding="UTF-8"?>
<svg xmlns="http://www.w3.org/2000/svg" version="1.1" width="400" height="400" viewBox="0 0 400 400"><rect x="0" y="0" width="400" height="400" fill="#f5f5f5"/><g transform="scale(14.815)"><g transform="translate(3,3)"><path fill-rule="evenodd" d="M9 1L9 2L10 2L10 4L8 4L8 5L9 5L9 6L8 6L8 8L6 8L6 9L8 9L8 10L5 10L5 11L4 11L4 8L2 8L2 9L1 9L1 10L2 10L2 9L3 9L3 11L2 11L2 12L1 12L1 13L4 13L4 12L5 12L5 11L9 11L9 12L8 12L8 15L10 15L10 16L9 16L9 17L8 17L8 19L9 19L9 20L10 20L10 21L11 21L11 20L10 20L10 19L12 19L12 18L13 18L13 20L12 20L12 21L13 21L13 20L14 20L14 21L15 21L15 20L16 20L16 21L17 21L17 20L16 20L16 18L20 18L20 17L21 17L21 16L20 16L20 15L21 15L21 14L20 14L20 13L21 13L21 12L20 12L20 13L19 13L19 12L18 12L18 10L19 10L19 11L21 11L21 9L17 9L17 8L16 8L16 9L17 9L17 11L14 11L14 12L13 12L13 11L12 11L12 10L14 10L14 9L15 9L15 8L13 8L13 5L12 5L12 10L11 10L11 9L10 9L10 10L9 10L9 8L10 8L10 7L11 7L11 6L10 6L10 5L11 5L11 4L12 4L12 3L13 3L13 1ZM11 2L11 3L12 3L12 2ZM9 6L9 7L10 7L10 6ZM3 11L3 12L4 12L4 11ZM6 12L6 13L7 13L7 12ZM9 12L9 13L10 13L10 14L11 14L11 13L12 13L12 12ZM16 12L16 13L14 13L14 14L13 14L13 15L12 15L12 17L13 17L13 18L14 18L14 17L15 17L15 14L16 14L16 15L17 15L17 16L18 16L18 17L20 17L20 16L18 16L18 15L19 15L19 13L18 13L18 14L17 14L17 12ZM10 16L10 17L11 17L11 16ZM13 16L13 17L14 17L14 16ZM9 18L9 19L10 19L10 18ZM14 19L14 20L15 20L15 19ZM18 19L18 20L19 20L19 21L20 21L20 20L21 20L21 19ZM0 0L0 7L7 7L7 0ZM1 1L1 6L6 6L6 1ZM2 2L2 5L5 5L5 2ZM14 0L14 7L21 7L21 0ZM15 1L15 6L20 6L20 1ZM16 2L16 5L19 5L19 2ZM0 14L0 21L7 21L7 14ZM1 15L1 20L6 20L6 15ZM2 16L2 19L5 19L5 16Z" fill="#282828"/></g></g></svg>
