<?xml version="1.0" encoding="UTF-8"?>
<svg xmlns="http://www.w3.org/2000/svg" version="1.1" width="400" height="400" viewBox="0 0 400 400"><rect x="0" y="0" width="400" height="400" fill="#f5f5f5"/><g transform="scale(14.815)"><g transform="translate(3,3)"><path fill-rule="evenodd" d="M10 0L10 2L9 2L9 4L8 4L8 5L9 5L9 6L8 6L8 8L6 8L6 9L4 9L4 8L2 8L2 9L1 9L1 10L0 10L0 12L3 12L3 13L4 13L4 12L5 12L5 13L8 13L8 15L9 15L9 14L10 14L10 16L9 16L9 17L8 17L8 19L9 19L9 20L10 20L10 19L9 19L9 18L10 18L10 16L11 16L11 18L12 18L12 19L11 19L11 21L12 21L12 19L13 19L13 18L14 18L14 20L13 20L13 21L15 21L15 20L16 20L16 21L17 21L17 20L16 20L16 18L20 18L20 17L21 17L21 16L20 16L20 15L21 15L21 14L19 14L19 15L18 15L18 16L17 16L17 15L16 15L16 14L15 14L15 15L13 15L13 14L14 14L14 13L16 13L16 12L19 12L19 10L20 10L20 9L17 9L17 8L16 8L16 9L17 9L17 11L15 11L15 12L13 12L13 9L14 9L14 10L15 10L15 8L13 8L13 6L12 6L12 7L11 7L11 5L12 5L12 3L13 3L13 2L11 2L11 0ZM12 0L12 1L13 1L13 0ZM10 2L10 3L11 3L11 2ZM9 4L9 5L11 5L11 4ZM9 6L9 7L10 7L10 8L9 8L9 9L6 9L6 10L4 10L4 9L3 9L3 12L4 12L4 11L5 11L5 12L7 12L7 11L6 11L6 10L8 10L8 11L9 11L9 9L10 9L10 12L9 12L9 13L11 13L11 12L12 12L12 14L13 14L13 12L12 12L12 11L11 11L11 9L13 9L13 8L11 8L11 7L10 7L10 6ZM1 10L1 11L2 11L2 10ZM20 11L20 12L21 12L21 11ZM11 15L11 16L12 16L12 15ZM13 16L13 17L14 17L14 16ZM18 16L18 17L20 17L20 16ZM18 19L18 20L19 20L19 21L20 21L20 20L21 20L21 19ZM0 0L0 7L7 7L7 0ZM1 1L1 6L6 6L6 1ZM2 2L2 5L5 5L5 2ZM14 0L14 7L21 7L21 0ZM15 1L15 6L20 6L20 1ZM16 2L16 5L19 5L19 2ZM0 14L0 21L7 21L7 14ZM1 15L1 20L6 20L6 15ZM2 16L2 19L5 19L5 16Z" fill="#282828"/></g></g></svg>
