<?xml version="1.0" encoding="UTF-8"?>
<svg xmlns="http://www.w3.org/2000/svg" version="1.1" width="400" height="400" viewBox="0 0 400 400"><rect x="0" y="0" width="400" height="400" fill="#f5f5f5"/><g transform="scale(14.815)"><g transform="translate(3,3)"><path fill-rule="evenodd" d="M11 0L11 1L12 1L12 0ZM8 1L8 2L10 2L10 1ZM11 2L11 3L10 3L10 4L11 4L11 5L12 5L12 8L11 8L11 6L10 6L10 7L9 7L9 5L8 5L8 8L4 8L4 9L1 9L1 10L2 10L2 11L1 11L1 12L0 12L0 13L1 13L1 12L2 12L2 13L5 13L5 11L3 11L3 10L4 10L4 9L5 9L5 10L6 10L6 11L7 11L7 12L6 12L6 13L7 13L7 12L8 12L8 10L9 10L9 13L8 13L8 17L10 17L10 18L9 18L9 19L10 19L10 20L9 20L9 21L11 21L11 20L15 20L15 19L16 19L16 20L17 20L17 19L18 19L18 21L21 21L21 20L20 20L20 19L19 19L19 18L21 18L21 16L20 16L20 15L21 15L21 14L20 14L20 15L19 15L19 16L18 16L18 14L19 14L19 13L20 13L20 12L21 12L21 11L20 11L20 10L21 10L21 9L20 9L20 8L19 8L19 9L20 9L20 10L18 10L18 9L17 9L17 10L16 10L16 8L14 8L14 9L15 9L15 11L16 11L16 12L17 12L17 13L18 13L18 14L17 14L17 16L16 16L16 15L15 15L15 13L14 13L14 15L13 15L13 14L12 14L12 13L13 13L13 12L14 12L14 10L13 10L13 9L12 9L12 8L13 8L13 5L12 5L12 4L13 4L13 2ZM11 3L11 4L12 4L12 3ZM8 8L8 9L9 9L9 10L10 10L10 12L11 12L11 13L10 13L10 14L9 14L9 16L10 16L10 14L11 14L11 13L12 13L12 12L11 12L11 11L12 11L12 10L10 10L10 8ZM6 9L6 10L7 10L7 9ZM17 10L17 12L18 12L18 13L19 13L19 12L20 12L20 11L18 11L18 10ZM11 15L11 17L12 17L12 16L13 16L13 17L14 17L14 19L15 19L15 15L14 15L14 16L13 16L13 15ZM17 16L17 17L16 17L16 18L17 18L17 17L18 17L18 18L19 18L19 17L18 17L18 16ZM10 18L10 19L13 19L13 18ZM0 0L0 7L7 7L7 0ZM1 1L1 6L6 6L6 1ZM2 2L2 5L5 5L5 2ZM14 0L14 7L21 7L21 0ZM15 1L15 6L20 6L20 1ZM16 2L16 5L19 5L19 2ZM0 14L0 21L7 21L7 14ZM1 15L1 20L6 20L6 15ZM2 16L2 19L5 19L5 16Z" fill="#282828"/></g></g></svg>
