<?xml version="1.0" encoding="UTF-8"?>
<svg xmlns="http://www.w3.org/2000/svg" version="1.1" width="400" height="400" viewBox="0 0 400 400"><rect x="0" y="0" width="400" height="400" fill="#f5f5f5"/><g transform="scale(14.815)"><g transform="translate(3,3)"><path fill-rule="evenodd" d="M9 0L9 1L10 1L10 2L9 2L9 4L8 4L8 5L10 5L10 3L11 3L11 4L12 4L12 7L13 7L13 0L12 0L12 1L10 1L10 0ZM11 2L11 3L12 3L12 2ZM8 6L8 8L6 8L6 9L10 9L10 10L9 10L9 12L6 12L6 13L8 13L8 15L10 15L10 16L9 16L9 17L8 17L8 19L9 19L9 21L10 21L10 20L11 20L11 21L15 21L15 20L16 20L16 21L17 21L17 20L16 20L16 18L20 18L20 17L21 17L21 16L20 16L20 15L21 15L21 13L20 13L20 12L21 12L21 10L18 10L18 9L17 9L17 8L16 8L16 9L17 9L17 11L15 11L15 8L12 8L12 9L10 9L10 8L11 8L11 6L10 6L10 8L9 8L9 6ZM2 8L2 9L1 9L1 10L3 10L3 11L2 11L2 12L1 12L1 11L0 11L0 13L2 13L2 12L3 12L3 11L4 11L4 13L5 13L5 11L8 11L8 10L4 10L4 8ZM12 9L12 11L11 11L11 10L10 10L10 11L11 11L11 13L9 13L9 14L11 14L11 16L10 16L10 18L9 18L9 19L11 19L11 20L13 20L13 19L14 19L14 20L15 20L15 18L14 18L14 17L15 17L15 16L14 16L14 15L15 15L15 14L16 14L16 15L17 15L17 16L18 16L18 17L20 17L20 16L18 16L18 15L19 15L19 14L20 14L20 13L19 13L19 12L20 12L20 11L18 11L18 12L16 12L16 13L13 13L13 14L14 14L14 15L12 15L12 14L11 14L11 13L12 13L12 12L15 12L15 11L13 11L13 9ZM11 16L11 17L12 17L12 18L11 18L11 19L13 19L13 16ZM18 19L18 20L19 20L19 21L20 21L20 20L21 20L21 19ZM0 0L0 7L7 7L7 0ZM1 1L1 6L6 6L6 1ZM2 2L2 5L5 5L5 2ZM14 0L14 7L21 7L21 0ZM15 1L15 6L20 6L20 1ZM16 2L16 5L19 5L19 2ZM0 14L0 21L7 21L7 14ZM1 15L1 20L6 20L6 15ZM2 16L2 19L5 19L5 16Z" fill="#282828"/></g></g></svg>
