<?xml version="1.0" encoding="UTF-8"?>
<svg xmlns="http://www.w3.org/2000/svg" version="1.1" width="400" height="400" viewBox="0 0 400 400"><rect x="0" y="0" width="400" height="400" fill="#f5f5f5"/><g transform="scale(14.815)"><g transform="translate(3,3)"><path fill-rule="evenodd" d="M9 0L9 1L8 1L8 7L9 7L9 6L10 6L10 8L5 8L5 9L3 9L3 8L2 8L2 11L3 11L3 12L2 12L2 13L3 13L3 12L4 12L4 13L8 13L8 16L9 16L9 15L10 15L10 17L9 17L9 18L8 18L8 19L9 19L9 20L10 20L10 19L11 19L11 18L12 18L12 21L13 21L13 20L15 20L15 21L21 21L21 20L20 20L20 19L21 19L21 18L19 18L19 17L21 17L21 16L20 16L20 12L21 12L21 11L20 11L20 10L21 10L21 9L20 9L20 8L15 8L15 9L14 9L14 8L12 8L12 7L13 7L13 5L12 5L12 4L11 4L11 3L13 3L13 2L11 2L11 3L10 3L10 4L11 4L11 5L12 5L12 7L11 7L11 6L10 6L10 5L9 5L9 2L10 2L10 0ZM11 0L11 1L13 1L13 0ZM6 9L6 10L5 10L5 11L6 11L6 12L8 12L8 13L9 13L9 14L11 14L11 12L12 12L12 15L11 15L11 16L12 16L12 18L14 18L14 19L15 19L15 17L16 17L16 18L17 18L17 16L19 16L19 15L17 15L17 14L18 14L18 13L19 13L19 9L16 9L16 10L17 10L17 11L16 11L16 12L17 12L17 13L14 13L14 12L15 12L15 11L14 11L14 9L12 9L12 10L13 10L13 11L14 11L14 12L12 12L12 11L11 11L11 9L9 9L9 10L8 10L8 9ZM3 10L3 11L4 11L4 10ZM6 10L6 11L7 11L7 10ZM0 11L0 12L1 12L1 11ZM8 11L8 12L11 12L11 11ZM13 14L13 16L14 16L14 17L15 17L15 16L14 16L14 15L15 15L15 14ZM16 15L16 16L17 16L17 15ZM10 17L10 18L11 18L11 17ZM18 18L18 19L19 19L19 18ZM16 19L16 20L17 20L17 19ZM0 0L0 7L7 7L7 0ZM1 1L1 6L6 6L6 1ZM2 2L2 5L5 5L5 2ZM14 0L14 7L21 7L21 0ZM15 1L15 6L20 6L20 1ZM16 2L16 5L19 5L19 2ZM0 14L0 21L7 21L7 14ZM1 15L1 20L6 20L6 15ZM2 16L2 19L5 19L5 16Z" fill="#282828"/></g></g></svg>
