<?xml version="1.0" encoding="UTF-8"?>
<svg xmlns="http://www.w3.org/2000/svg" version="1.1" width="400" height="400" viewBox="0 0 400 400"><rect x="0" y="0" width="400" height="400" fill="#f5f5f5"/><g transform="scale(14.815)"><g transform="translate(3,3)"><path fill-rule="evenodd" d="M8 0L8 2L9 2L9 0ZM12 0L12 3L11 3L11 2L10 2L10 3L8 3L8 7L9 7L9 9L7 9L7 8L6 8L6 9L5 9L5 10L4 10L4 8L3 8L3 9L2 9L2 11L0 11L0 12L2 12L2 13L3 13L3 12L4 12L4 13L7 13L7 12L8 12L8 14L9 14L9 13L10 13L10 14L11 14L11 12L9 12L9 10L10 10L10 11L11 11L11 10L10 10L10 9L12 9L12 11L13 11L13 12L15 12L15 10L14 10L14 9L13 9L13 6L12 6L12 7L11 7L11 6L10 6L10 7L9 7L9 4L10 4L10 5L11 5L11 4L12 4L12 5L13 5L13 4L12 4L12 3L13 3L13 0ZM10 3L10 4L11 4L11 3ZM15 8L15 9L17 9L17 12L16 12L16 13L12 13L12 15L10 15L10 16L9 16L9 17L8 17L8 18L9 18L9 21L10 21L10 19L11 19L11 21L12 21L12 20L13 20L13 21L14 21L14 20L13 20L13 19L14 19L14 17L17 17L17 18L16 18L16 21L19 21L19 20L20 20L20 19L21 19L21 16L18 16L18 15L19 15L19 14L20 14L20 15L21 15L21 14L20 14L20 13L21 13L21 8L19 8L19 9L20 9L20 10L18 10L18 8ZM6 9L6 10L5 10L5 12L7 12L7 11L6 11L6 10L7 10L7 9ZM18 11L18 13L19 13L19 12L20 12L20 11ZM14 14L14 15L13 15L13 16L12 16L12 18L11 18L11 19L13 19L13 17L14 17L14 16L15 16L15 14ZM16 14L16 15L17 15L17 14ZM10 16L10 17L11 17L11 16ZM17 16L17 17L18 17L18 16ZM17 18L17 20L18 20L18 19L20 19L20 18ZM0 0L0 7L7 7L7 0ZM1 1L1 6L6 6L6 1ZM2 2L2 5L5 5L5 2ZM14 0L14 7L21 7L21 0ZM15 1L15 6L20 6L20 1ZM16 2L16 5L19 5L19 2ZM0 14L0 21L7 21L7 14ZM1 15L1 20L6 20L6 15ZM2 16L2 19L5 19L5 16Z" fill="#282828"/></g></g></svg>
