<?xml version="1.0" encoding="UTF-8"?>
<svg xmlns="http://www.w3.org/2000/svg" version="1.1" width="400" height="400" viewBox="0 0 400 400"><rect x="0" y="0" width="400" height="400" fill="#f5f5f5"/><g transform="scale(14.815)"><g transform="translate(3,3)"><path fill-rule="evenodd" d="M8 0L8 1L10 1L10 2L8 2L8 3L9 3L9 4L8 4L8 5L11 5L11 6L10 6L10 7L9 7L9 6L8 6L8 8L9 8L9 9L8 9L8 10L6 10L6 9L7 9L7 8L5 8L5 9L2 9L2 11L0 11L0 13L2 13L2 11L4 11L4 13L7 13L7 12L8 12L8 14L10 14L10 15L8 15L8 16L9 16L9 19L10 19L10 18L12 18L12 17L14 17L14 18L15 18L15 19L14 19L14 20L13 20L13 19L11 19L11 21L16 21L16 19L17 19L17 20L18 20L18 21L19 21L19 20L20 20L20 19L21 19L21 18L19 18L19 20L18 20L18 17L19 17L19 16L21 16L21 13L20 13L20 10L19 10L19 12L16 12L16 10L17 10L17 11L18 11L18 10L17 10L17 8L16 8L16 9L15 9L15 8L14 8L14 9L15 9L15 11L14 11L14 10L13 10L13 11L14 11L14 12L15 12L15 13L13 13L13 12L12 12L12 11L11 11L11 9L13 9L13 8L11 8L11 6L12 6L12 7L13 7L13 5L12 5L12 2L13 2L13 1L11 1L11 0ZM10 8L10 9L11 9L11 8ZM18 8L18 9L19 9L19 8ZM20 8L20 9L21 9L21 8ZM0 9L0 10L1 10L1 9ZM5 10L5 12L7 12L7 11L6 11L6 10ZM8 11L8 12L9 12L9 13L10 13L10 12L11 12L11 15L12 15L12 12L11 12L11 11ZM15 13L15 16L14 16L14 17L16 17L16 18L17 18L17 17L18 17L18 14L19 14L19 15L20 15L20 14L19 14L19 13L18 13L18 14L17 14L17 13ZM13 14L13 15L14 15L14 14ZM16 14L16 15L17 15L17 14ZM16 16L16 17L17 17L17 16ZM0 0L0 7L7 7L7 0ZM1 1L1 6L6 6L6 1ZM2 2L2 5L5 5L5 2ZM14 0L14 7L21 7L21 0ZM15 1L15 6L20 6L20 1ZM16 2L16 5L19 5L19 2ZM0 14L0 21L7 21L7 14ZM1 15L1 20L6 20L6 15ZM2 16L2 19L5 19L5 16Z" fill="#282828"/></g></g></svg>
