<?xml version="1.0" encoding="UTF-8"?>
<svg xmlns="http://www.w3.org/2000/svg" version="1.1" width="400" height="400" viewBox="0 0 400 400"><rect x="0" y="0" width="400" height="400" fill="#f5f5f5"/><g transform="scale(14.815)"><g transform="translate(3,3)"><path fill-rule="evenodd" d="M10 0L10 1L12 1L12 0ZM8 1L8 7L9 7L9 8L5 8L5 9L3 9L3 8L2 8L2 9L3 9L3 11L4 11L4 12L2 12L2 11L1 11L1 9L0 9L0 11L1 11L1 12L2 12L2 13L5 13L5 12L6 12L6 13L7 13L7 12L6 12L6 11L8 11L8 12L11 12L11 13L8 13L8 16L9 16L9 14L10 14L10 15L11 15L11 16L10 16L10 18L11 18L11 17L12 17L12 18L13 18L13 19L15 19L15 21L21 21L21 20L20 20L20 19L21 19L21 18L19 18L19 17L21 17L21 16L20 16L20 14L21 14L21 12L20 12L20 10L21 10L21 9L20 9L20 8L15 8L15 10L14 10L14 8L12 8L12 7L13 7L13 6L12 6L12 7L11 7L11 4L12 4L12 5L13 5L13 4L12 4L12 3L11 3L11 2L10 2L10 3L9 3L9 1ZM10 3L10 4L9 4L9 7L10 7L10 4L11 4L11 3ZM10 8L10 10L11 10L11 12L12 12L12 13L11 13L11 15L12 15L12 13L13 13L13 14L14 14L14 13L15 13L15 15L14 15L14 16L13 16L13 17L16 17L16 18L17 18L17 16L19 16L19 15L17 15L17 13L18 13L18 14L20 14L20 12L17 12L17 11L16 11L16 12L17 12L17 13L15 13L15 11L13 11L13 9L12 9L12 10L11 10L11 8ZM5 9L5 10L4 10L4 11L6 11L6 10L7 10L7 9ZM8 9L8 11L9 11L9 9ZM16 9L16 10L17 10L17 9ZM18 9L18 10L20 10L20 9ZM12 11L12 12L13 12L13 13L14 13L14 12L13 12L13 11ZM16 15L16 16L17 16L17 15ZM8 18L8 19L9 19L9 18ZM18 18L18 19L19 19L19 18ZM11 19L11 20L9 20L9 21L11 21L11 20L12 20L12 21L13 21L13 20L12 20L12 19ZM16 19L16 20L17 20L17 19ZM0 0L0 7L7 7L7 0ZM1 1L1 6L6 6L6 1ZM2 2L2 5L5 5L5 2ZM14 0L14 7L21 7L21 0ZM15 1L15 6L20 6L20 1ZM16 2L16 5L19 5L19 2ZM0 14L0 21L7 21L7 14ZM1 15L1 20L6 20L6 15ZM2 16L2 19L5 19L5 16Z" fill="#282828"/></g></g></svg>
