<?xml version="1.0" encoding="UTF-8"?>
<svg xmlns="http://www.w3.org/2000/svg" version="1.1" width="400" height="400" viewBox="0 0 400 400"><rect x="0" y="0" width="400" height="400" fill="#f5f5f5"/><g transform="scale(14.815)"><g transform="translate(3,3)"><path fill-rule="evenodd" d="M8 0L8 3L9 3L9 0ZM12 0L12 1L11 1L11 2L10 2L10 4L9 4L9 5L8 5L8 9L7 9L7 8L6 8L6 9L7 9L7 10L6 10L6 11L3 11L3 10L5 10L5 8L2 8L2 10L1 10L1 11L0 11L0 13L2 13L2 12L1 12L1 11L3 11L3 12L4 12L4 13L5 13L5 12L6 12L6 13L7 13L7 12L10 12L10 13L8 13L8 14L10 14L10 15L9 15L9 16L8 16L8 19L9 19L9 16L11 16L11 17L12 17L12 18L13 18L13 19L12 19L12 20L11 20L11 18L10 18L10 20L9 20L9 21L10 21L10 20L11 20L11 21L13 21L13 20L14 20L14 21L16 21L16 20L14 20L14 19L16 19L16 18L15 18L15 16L16 16L16 17L17 17L17 18L18 18L18 17L19 17L19 16L20 16L20 15L21 15L21 10L19 10L19 9L21 9L21 8L18 8L18 9L17 9L17 13L18 13L18 17L17 17L17 14L16 14L16 12L15 12L15 13L14 13L14 12L10 12L10 11L11 11L11 9L12 9L12 10L13 10L13 11L14 11L14 10L15 10L15 11L16 11L16 10L15 10L15 9L16 9L16 8L11 8L11 5L12 5L12 3L13 3L13 2L12 2L12 1L13 1L13 0ZM11 2L11 3L12 3L12 2ZM9 5L9 9L10 9L10 5ZM12 6L12 7L13 7L13 6ZM6 11L6 12L7 12L7 11ZM18 11L18 12L19 12L19 15L20 15L20 12L19 12L19 11ZM11 13L11 15L12 15L12 17L13 17L13 18L14 18L14 16L15 16L15 15L16 15L16 14L15 14L15 15L12 15L12 14L13 14L13 13ZM17 19L17 20L18 20L18 21L19 21L19 20L20 20L20 19L19 19L19 20L18 20L18 19ZM0 0L0 7L7 7L7 0ZM1 1L1 6L6 6L6 1ZM2 2L2 5L5 5L5 2ZM14 0L14 7L21 7L21 0ZM15 1L15 6L20 6L20 1ZM16 2L16 5L19 5L19 2ZM0 14L0 21L7 21L7 14ZM1 15L1 20L6 20L6 15ZM2 16L2 19L5 19L5 16Z" fill="#282828"/></g></g></svg>
