<?xml version="1.0" encoding="UTF-8"?>
<svg xmlns="http://www.w3.org/2000/svg" version="1.1" width="400" height="400" viewBox="0 0 400 400"><rect x="0" y="0" width="400" height="400" fill="#f5f5f5"/><g transform="scale(14.815)"><g transform="translate(3,3)"><path fill-rule="evenodd" d="M9 0L9 1L8 1L8 2L9 2L9 5L8 5L8 8L4 8L4 10L2 10L2 9L1 9L1 11L0 11L0 12L1 12L1 13L5 13L5 11L8 11L8 12L10 12L10 13L11 13L11 12L12 12L12 15L13 15L13 16L14 16L14 17L12 17L12 16L10 16L10 15L11 15L11 14L10 14L10 15L9 15L9 13L8 13L8 17L9 17L9 18L11 18L11 19L9 19L9 20L10 20L10 21L11 21L11 20L12 20L12 21L13 21L13 20L15 20L15 19L16 19L16 20L17 20L17 19L18 19L18 21L21 21L21 20L20 20L20 19L19 19L19 18L21 18L21 16L20 16L20 15L21 15L21 14L20 14L20 12L19 12L19 11L20 11L20 8L19 8L19 9L17 9L17 10L16 10L16 8L14 8L14 9L15 9L15 10L14 10L14 12L12 12L12 11L11 11L11 12L10 12L10 11L9 11L9 10L13 10L13 9L9 9L9 10L8 10L8 8L10 8L10 7L11 7L11 8L13 8L13 6L12 6L12 5L13 5L13 3L12 3L12 0L11 0L11 3L10 3L10 2L9 2L9 1L10 1L10 0ZM11 3L11 4L10 4L10 5L9 5L9 7L10 7L10 5L11 5L11 4L12 4L12 3ZM11 6L11 7L12 7L12 6ZM5 9L5 10L4 10L4 11L3 11L3 12L4 12L4 11L5 11L5 10L7 10L7 9ZM15 11L15 13L14 13L14 14L13 14L13 15L16 15L16 16L17 16L17 17L16 17L16 18L17 18L17 17L18 17L18 18L19 18L19 17L18 17L18 16L19 16L19 15L20 15L20 14L19 14L19 13L18 13L18 16L17 16L17 12L16 12L16 11ZM6 12L6 13L7 13L7 12ZM9 16L9 17L10 17L10 16ZM14 17L14 18L13 18L13 19L15 19L15 17ZM0 0L0 7L7 7L7 0ZM1 1L1 6L6 6L6 1ZM2 2L2 5L5 5L5 2ZM14 0L14 7L21 7L21 0ZM15 1L15 6L20 6L20 1ZM16 2L16 5L19 5L19 2ZM0 14L0 21L7 21L7 14ZM1 15L1 20L6 20L6 15ZM2 16L2 19L5 19L5 16Z" fill="#282828"/></g></g></svg>
