<?xml version="1.0" encoding="UTF-8"?>
<svg xmlns="http://www.w3.org/2000/svg" version="1.1" width="400" height="400" viewBox="0 0 400 400"><rect x="0" y="0" width="400" height="400" fill="#f5f5f5"/><g transform="scale(14.815)"><g transform="translate(3,3)"><path fill-rule="evenodd" d="M9 0L9 1L8 1L8 7L9 7L9 6L10 6L10 7L11 7L11 6L12 6L12 7L13 7L13 5L12 5L12 4L13 4L13 3L12 3L12 2L13 2L13 0L11 0L11 1L10 1L10 0ZM9 1L9 2L10 2L10 3L11 3L11 4L12 4L12 3L11 3L11 2L12 2L12 1L11 1L11 2L10 2L10 1ZM9 4L9 5L10 5L10 6L11 6L11 5L10 5L10 4ZM2 8L2 9L1 9L1 10L2 10L2 12L1 12L1 11L0 11L0 12L1 12L1 13L2 13L2 12L3 12L3 11L5 11L5 12L6 12L6 13L7 13L7 12L8 12L8 16L9 16L9 18L8 18L8 19L9 19L9 18L11 18L11 17L12 17L12 15L11 15L11 13L9 13L9 12L10 12L10 9L12 9L12 10L13 10L13 9L14 9L14 11L12 11L12 12L13 12L13 13L12 13L12 14L13 14L13 16L14 16L14 17L15 17L15 21L21 21L21 20L20 20L20 19L21 19L21 18L19 18L19 17L21 17L21 16L20 16L20 14L21 14L21 13L20 13L20 11L21 11L21 10L20 10L20 8L15 8L15 9L14 9L14 8L13 8L13 9L12 9L12 8L5 8L5 9L4 9L4 10L3 10L3 8ZM5 9L5 11L6 11L6 12L7 12L7 11L8 11L8 12L9 12L9 9ZM16 9L16 10L18 10L18 12L17 12L17 11L16 11L16 12L17 12L17 13L15 13L15 11L14 11L14 13L13 13L13 14L14 14L14 15L15 15L15 17L16 17L16 18L17 18L17 16L19 16L19 15L17 15L17 13L18 13L18 14L20 14L20 13L19 13L19 11L20 11L20 10L18 10L18 9ZM6 10L6 11L7 11L7 10ZM14 13L14 14L15 14L15 13ZM9 15L9 16L10 16L10 17L11 17L11 15ZM16 15L16 16L17 16L17 15ZM18 18L18 19L19 19L19 18ZM11 19L11 20L12 20L12 19ZM13 19L13 20L14 20L14 19ZM16 19L16 20L17 20L17 19ZM0 0L0 7L7 7L7 0ZM1 1L1 6L6 6L6 1ZM2 2L2 5L5 5L5 2ZM14 0L14 7L21 7L21 0ZM15 1L15 6L20 6L20 1ZM16 2L16 5L19 5L19 2ZM0 14L0 21L7 21L7 14ZM1 15L1 20L6 20L6 15ZM2 16L2 19L5 19L5 16Z" fill="#282828"/></g></g></svg>
