<?xml version="1.0" encoding="UTF-8"?>
<svg xmlns="http://www.w3.org/2000/svg" version="1.1" width="400" height="400" viewBox="0 0 400 400"><rect x="0" y="0" width="400" height="400" fill="#f5f5f5"/><g transform="scale(14.815)"><g transform="translate(3,3)"><path fill-rule="evenodd" d="M9 0L9 1L10 1L10 2L9 2L9 4L8 4L8 5L9 5L9 6L8 6L8 8L6 8L6 9L7 9L7 10L5 10L5 9L4 9L4 8L2 8L2 9L4 9L4 10L5 10L5 11L4 11L4 12L2 12L2 10L1 10L1 9L0 9L0 11L1 11L1 13L4 13L4 12L5 12L5 13L8 13L8 15L9 15L9 14L10 14L10 15L11 15L11 16L12 16L12 15L11 15L11 13L12 13L12 14L13 14L13 12L11 12L11 11L10 11L10 10L9 10L9 8L10 8L10 9L11 9L11 6L10 6L10 2L12 2L12 1L13 1L13 0L12 0L12 1L10 1L10 0ZM12 3L12 4L11 4L11 5L12 5L12 4L13 4L13 3ZM9 6L9 7L10 7L10 6ZM12 6L12 8L13 8L13 10L12 10L12 11L13 11L13 10L14 10L14 9L15 9L15 8L13 8L13 6ZM16 8L16 9L17 9L17 11L14 11L14 13L16 13L16 12L18 12L18 13L17 13L17 14L19 14L19 15L18 15L18 16L17 16L17 15L16 15L16 14L14 14L14 15L13 15L13 16L14 16L14 15L15 15L15 17L14 17L14 18L12 18L12 17L11 17L11 19L13 19L13 20L9 20L9 21L15 21L15 20L16 20L16 21L17 21L17 20L16 20L16 18L20 18L20 17L21 17L21 16L20 16L20 15L21 15L21 13L19 13L19 11L20 11L20 9L17 9L17 8ZM8 10L8 11L5 11L5 12L8 12L8 13L9 13L9 12L10 12L10 11L9 11L9 10ZM18 10L18 11L19 11L19 10ZM9 16L9 17L8 17L8 19L10 19L10 18L9 18L9 17L10 17L10 16ZM18 16L18 17L20 17L20 16ZM18 19L18 20L19 20L19 21L20 21L20 20L21 20L21 19ZM0 0L0 7L7 7L7 0ZM1 1L1 6L6 6L6 1ZM2 2L2 5L5 5L5 2ZM14 0L14 7L21 7L21 0ZM15 1L15 6L20 6L20 1ZM16 2L16 5L19 5L19 2ZM0 14L0 21L7 21L7 14ZM1 15L1 20L6 20L6 15ZM2 16L2 19L5 19L5 16Z" fill="#282828"/></g></g></svg>
