<?xml version="1.0" encoding="UTF-8"?>
<svg xmlns="http://www.w3.org/2000/svg" version="1.1" width="400" height="400" viewBox="0 0 400 400"><rect x="0" y="0" width="400" height="400" fill="#f5f5f5"/><g transform="scale(14.815)"><g transform="translate(3,3)"><path fill-rule="evenodd" d="M10 0L10 2L8 2L8 4L9 4L9 3L10 3L10 4L11 4L11 6L10 6L10 5L9 5L9 6L8 6L8 7L9 7L9 9L8 9L8 8L6 8L6 9L8 9L8 10L6 10L6 11L8 11L8 12L5 12L5 8L3 8L3 9L0 9L0 10L2 10L2 11L4 11L4 12L3 12L3 13L8 13L8 15L9 15L9 14L10 14L10 16L8 16L8 18L9 18L9 20L10 20L10 21L11 21L11 20L12 20L12 17L13 17L13 19L14 19L14 18L15 18L15 21L17 21L17 20L18 20L18 21L20 21L20 20L21 20L21 18L19 18L19 19L20 19L20 20L18 20L18 18L17 18L17 17L19 17L19 16L20 16L20 17L21 17L21 14L20 14L20 13L19 13L19 12L21 12L21 10L19 10L19 8L17 8L17 9L15 9L15 10L14 10L14 13L13 13L13 12L12 12L12 13L10 13L10 12L11 12L11 11L13 11L13 6L12 6L12 4L13 4L13 2L12 2L12 4L11 4L11 3L10 3L10 2L11 2L11 0ZM9 6L9 7L10 7L10 6ZM11 6L11 9L12 9L12 6ZM3 9L3 10L4 10L4 9ZM9 9L9 10L10 10L10 9ZM17 9L17 10L16 10L16 11L17 11L17 13L14 13L14 14L15 14L15 17L16 17L16 16L18 16L18 12L19 12L19 10L18 10L18 9ZM17 10L17 11L18 11L18 10ZM0 11L0 12L1 12L1 13L2 13L2 12L1 12L1 11ZM8 12L8 13L9 13L9 12ZM12 13L12 14L11 14L11 15L12 15L12 16L13 16L13 17L14 17L14 16L13 16L13 15L12 15L12 14L13 14L13 13ZM10 19L10 20L11 20L11 19ZM16 19L16 20L17 20L17 19ZM0 0L0 7L7 7L7 0ZM1 1L1 6L6 6L6 1ZM2 2L2 5L5 5L5 2ZM14 0L14 7L21 7L21 0ZM15 1L15 6L20 6L20 1ZM16 2L16 5L19 5L19 2ZM0 14L0 21L7 21L7 14ZM1 15L1 20L6 20L6 15ZM2 16L2 19L5 19L5 16Z" fill="#282828"/></g></g></svg>
