<?xml version="1.0" encoding="UTF-8"?>
<svg xmlns="http://www.w3.org/2000/svg" version="1.1" width="400" height="400" viewBox="0 0 400 400"><rect x="0" y="0" width="400" height="400" fill="#f5f5f5"/><g transform="scale(14.815)"><g transform="translate(3,3)"><path fill-rule="evenodd" d="M8 0L8 1L9 1L9 3L8 3L8 4L9 4L9 5L10 5L10 7L11 7L11 5L12 5L12 3L13 3L13 2L12 2L12 1L13 1L13 0L11 0L11 2L12 2L12 3L11 3L11 5L10 5L10 1L9 1L9 0ZM8 6L8 7L9 7L9 6ZM12 6L12 8L10 8L10 9L13 9L13 10L14 10L14 8L13 8L13 6ZM2 8L2 10L3 10L3 12L0 12L0 13L3 13L3 12L4 12L4 13L5 13L5 11L4 11L4 9L7 9L7 8L4 8L4 9L3 9L3 8ZM8 8L8 9L9 9L9 8ZM17 8L17 10L16 10L16 11L17 11L17 10L18 10L18 8ZM20 8L20 9L21 9L21 8ZM6 10L6 11L7 11L7 12L6 12L6 13L7 13L7 12L8 12L8 11L9 11L9 13L8 13L8 14L9 14L9 13L10 13L10 12L11 12L11 11L12 11L12 10ZM19 10L19 11L18 11L18 12L16 12L16 13L15 13L15 15L14 15L14 16L13 16L13 15L12 15L12 14L11 14L11 15L12 15L12 17L11 17L11 16L10 16L10 15L8 15L8 17L9 17L9 18L8 18L8 19L9 19L9 21L10 21L10 20L11 20L11 21L13 21L13 20L14 20L14 17L16 17L16 16L18 16L18 18L20 18L20 19L21 19L21 18L20 18L20 17L21 17L21 16L20 16L20 17L19 17L19 16L18 16L18 15L19 15L19 14L21 14L21 13L19 13L19 14L18 14L18 12L21 12L21 10ZM12 12L12 13L13 13L13 12ZM16 13L16 15L18 15L18 14L17 14L17 13ZM10 17L10 19L11 19L11 20L13 20L13 17L12 17L12 18L11 18L11 17ZM16 18L16 19L17 19L17 18ZM18 19L18 21L19 21L19 19ZM16 20L16 21L17 21L17 20ZM20 20L20 21L21 21L21 20ZM0 0L0 7L7 7L7 0ZM1 1L1 6L6 6L6 1ZM2 2L2 5L5 5L5 2ZM14 0L14 7L21 7L21 0ZM15 1L15 6L20 6L20 1ZM16 2L16 5L19 5L19 2ZM0 14L0 21L7 21L7 14ZM1 15L1 20L6 20L6 15ZM2 16L2 19L5 19L5 16Z" fill="#282828"/></g></g></svg>
