<?xml version="1.0" encoding="UTF-8"?>
<svg xmlns="http://www.w3.org/2000/svg" version="1.1" width="400" height="400" viewBox="0 0 400 400"><rect x="0" y="0" width="400" height="400" fill="#f5f5f5"/><g transform="scale(14.815)"><g transform="translate(3,3)"><path fill-rule="evenodd" d="M12 0L12 1L13 1L13 0ZM8 1L8 7L9 7L9 8L5 8L5 9L7 9L7 10L4 10L4 9L3 9L3 8L2 8L2 11L3 11L3 13L4 13L4 11L7 11L7 12L5 12L5 13L8 13L8 16L9 16L9 17L10 17L10 16L11 16L11 18L10 18L10 19L9 19L9 18L8 18L8 19L9 19L9 20L11 20L11 21L13 21L13 19L14 19L14 20L15 20L15 21L21 21L21 20L20 20L20 19L21 19L21 18L19 18L19 17L21 17L21 16L20 16L20 14L19 14L19 13L18 13L18 11L17 11L17 10L18 10L18 9L20 9L20 8L15 8L15 9L14 9L14 8L13 8L13 6L12 6L12 8L11 8L11 9L10 9L10 10L13 10L13 11L11 11L11 12L10 12L10 11L9 11L9 12L8 12L8 9L9 9L9 8L10 8L10 7L11 7L11 5L13 5L13 4L12 4L12 2L11 2L11 4L10 4L10 2L9 2L9 1ZM9 5L9 7L10 7L10 5ZM12 8L12 9L13 9L13 8ZM16 9L16 10L17 10L17 9ZM19 10L19 12L20 12L20 13L21 13L21 11L20 11L20 10ZM0 11L0 13L1 13L1 11ZM14 11L14 12L11 12L11 13L13 13L13 17L12 17L12 18L11 18L11 19L13 19L13 17L14 17L14 14L15 14L15 17L16 17L16 18L17 18L17 16L19 16L19 15L17 15L17 14L18 14L18 13L15 13L15 11ZM16 11L16 12L17 12L17 11ZM9 12L9 14L10 14L10 12ZM11 14L11 15L12 15L12 14ZM16 15L16 16L17 16L17 15ZM14 18L14 19L15 19L15 18ZM18 18L18 19L19 19L19 18ZM16 19L16 20L17 20L17 19ZM0 0L0 7L7 7L7 0ZM1 1L1 6L6 6L6 1ZM2 2L2 5L5 5L5 2ZM14 0L14 7L21 7L21 0ZM15 1L15 6L20 6L20 1ZM16 2L16 5L19 5L19 2ZM0 14L0 21L7 21L7 14ZM1 15L1 20L6 20L6 15ZM2 16L2 19L5 19L5 16Z" fill="#282828"/></g></g></svg>
