<?xml version="1.0" encoding="UTF-8"?>
<svg xmlns="http://www.w3.org/2000/svg" version="1.1" width="400" height="400" viewBox="0 0 400 400"><rect x="0" y="0" width="400" height="400" fill="#f5f5f5"/><g transform="scale(14.815)"><g transform="translate(3,3)"><path fill-rule="evenodd" d="M9 0L9 1L8 1L8 2L9 2L9 1L10 1L10 3L9 3L9 5L8 5L8 8L4 8L4 9L0 9L0 10L4 10L4 11L8 11L8 12L9 12L9 13L8 13L8 17L10 17L10 18L11 18L11 19L10 19L10 20L9 20L9 21L10 21L10 20L11 20L11 21L12 21L12 20L11 20L11 19L12 19L12 17L13 17L13 21L14 21L14 18L15 18L15 19L16 19L16 20L17 20L17 19L18 19L18 21L21 21L21 20L20 20L20 19L19 19L19 18L21 18L21 16L20 16L20 15L21 15L21 14L20 14L20 15L19 15L19 16L18 16L18 14L17 14L17 16L16 16L16 15L14 15L14 16L15 16L15 17L13 17L13 15L12 15L12 14L13 14L13 13L11 13L11 12L10 12L10 11L12 11L12 10L13 10L13 9L12 9L12 8L13 8L13 5L11 5L11 1L12 1L12 2L13 2L13 1L12 1L12 0ZM12 3L12 4L13 4L13 3ZM10 5L10 6L9 6L9 8L8 8L8 9L4 9L4 10L8 10L8 9L9 9L9 11L10 11L10 9L11 9L11 10L12 10L12 9L11 9L11 7L12 7L12 6L11 6L11 5ZM10 6L10 7L11 7L11 6ZM9 8L9 9L10 9L10 8ZM14 8L14 9L15 9L15 11L14 11L14 13L15 13L15 11L16 11L16 12L18 12L18 13L19 13L19 12L20 12L20 13L21 13L21 12L20 12L20 11L19 11L19 9L20 9L20 8L19 8L19 9L18 9L18 10L16 10L16 8ZM0 11L0 12L2 12L2 13L5 13L5 12L2 12L2 11ZM18 11L18 12L19 12L19 11ZM6 12L6 13L7 13L7 12ZM9 13L9 15L10 15L10 17L11 17L11 16L12 16L12 15L11 15L11 14L10 14L10 13ZM17 16L17 17L16 17L16 18L17 18L17 17L18 17L18 18L19 18L19 17L18 17L18 16ZM0 0L0 7L7 7L7 0ZM1 1L1 6L6 6L6 1ZM2 2L2 5L5 5L5 2ZM14 0L14 7L21 7L21 0ZM15 1L15 6L20 6L20 1ZM16 2L16 5L19 5L19 2ZM0 14L0 21L7 21L7 14ZM1 15L1 20L6 20L6 15ZM2 16L2 19L5 19L5 16Z" fill="#282828"/></g></g></svg>
