<?xml version="1.0" encoding="UTF-8"?>
<svg xmlns="http://www.w3.org/2000/svg" version="1.1" width="400" height="400" viewBox="0 0 400 400"><rect x="0" y="0" width="400" height="400" fill="#f5f5f5"/><g transform="scale(14.815)"><g transform="translate(3,3)"><path fill-rule="evenodd" d="M9 0L9 1L8 1L8 2L9 2L9 3L10 3L10 4L9 4L9 5L8 5L8 8L4 8L4 9L7 9L7 10L5 10L5 11L3 11L3 9L0 9L0 13L1 13L1 10L2 10L2 11L3 11L3 12L2 12L2 13L3 13L3 12L4 12L4 13L5 13L5 12L6 12L6 13L8 13L8 17L9 17L9 19L10 19L10 18L12 18L12 19L11 19L11 21L12 21L12 19L13 19L13 21L14 21L14 19L16 19L16 20L17 20L17 19L18 19L18 21L21 21L21 20L20 20L20 19L19 19L19 18L21 18L21 16L20 16L20 15L21 15L21 14L20 14L20 13L21 13L21 9L20 9L20 8L19 8L19 9L17 9L17 10L16 10L16 8L14 8L14 9L13 9L13 6L12 6L12 5L13 5L13 4L11 4L11 3L12 3L12 2L11 2L11 1L10 1L10 0ZM10 2L10 3L11 3L11 2ZM10 4L10 5L9 5L9 8L8 8L8 10L7 10L7 11L6 11L6 12L9 12L9 11L8 11L8 10L11 10L11 11L12 11L12 10L13 10L13 11L14 11L14 12L13 12L13 13L12 13L12 14L11 14L11 15L12 15L12 16L13 16L13 19L14 19L14 17L15 17L15 16L13 16L13 15L12 15L12 14L13 14L13 13L15 13L15 15L16 15L16 16L17 16L17 17L16 17L16 18L17 18L17 17L18 17L18 18L19 18L19 17L18 17L18 16L19 16L19 15L20 15L20 14L19 14L19 13L20 13L20 10L19 10L19 11L18 11L18 10L17 10L17 12L16 12L16 11L15 11L15 10L13 10L13 9L12 9L12 8L10 8L10 6L11 6L11 7L12 7L12 6L11 6L11 4ZM9 8L9 9L10 9L10 8ZM11 9L11 10L12 10L12 9ZM10 12L10 13L9 13L9 15L10 15L10 13L11 13L11 12ZM17 14L17 16L18 16L18 14ZM10 16L10 17L11 17L11 16ZM9 20L9 21L10 21L10 20ZM0 0L0 7L7 7L7 0ZM1 1L1 6L6 6L6 1ZM2 2L2 5L5 5L5 2ZM14 0L14 7L21 7L21 0ZM15 1L15 6L20 6L20 1ZM16 2L16 5L19 5L19 2ZM0 14L0 21L7 21L7 14ZM1 15L1 20L6 20L6 15ZM2 16L2 19L5 19L5 16Z" fill="#282828"/></g></g></svg>
