<?xml version="1.0" encoding="UTF-8"?>
<svg xmlns="http://www.w3.org/2000/svg" version="1.1" width="400" height="400" viewBox="0 0 400 400"><rect x="0" y="0" width="400" height="400" fill="#f5f5f5"/><g transform="scale(14.815)"><g transform="translate(3,3)"><path fill-rule="evenodd" d="M8 0L8 3L10 3L10 4L11 4L11 5L8 5L8 9L7 9L7 8L6 8L6 9L7 9L7 10L6 10L6 11L4 11L4 10L5 10L5 8L2 8L2 9L1 9L1 10L0 10L0 11L2 11L2 10L3 10L3 11L4 11L4 12L1 12L1 13L8 13L8 14L9 14L9 16L8 16L8 19L9 19L9 21L10 21L10 17L12 17L12 18L11 18L11 19L12 19L12 20L13 20L13 21L16 21L16 20L14 20L14 19L16 19L16 18L14 18L14 17L15 17L15 16L16 16L16 17L17 17L17 18L18 18L18 17L19 17L19 16L20 16L20 15L21 15L21 13L19 13L19 12L21 12L21 11L20 11L20 10L19 10L19 9L21 9L21 8L18 8L18 9L17 9L17 10L18 10L18 11L19 11L19 12L17 12L17 13L18 13L18 17L17 17L17 14L16 14L16 12L14 12L14 11L16 11L16 10L14 10L14 9L16 9L16 8L12 8L12 9L13 9L13 11L12 11L12 12L11 12L11 10L10 10L10 9L11 9L11 5L12 5L12 4L13 4L13 3L11 3L11 1L12 1L12 2L13 2L13 0L10 0L10 2L9 2L9 0ZM9 6L9 9L8 9L8 10L9 10L9 11L8 11L8 12L9 12L9 14L10 14L10 15L11 15L11 16L15 16L15 15L16 15L16 14L15 14L15 15L11 15L11 14L12 14L12 13L14 13L14 12L12 12L12 13L11 13L11 12L10 12L10 10L9 10L9 9L10 9L10 6ZM12 6L12 7L13 7L13 6ZM3 9L3 10L4 10L4 9ZM6 11L6 12L7 12L7 11ZM19 14L19 15L20 15L20 14ZM9 16L9 17L10 17L10 16ZM13 18L13 19L14 19L14 18ZM17 19L17 20L18 20L18 21L19 21L19 20L20 20L20 19L19 19L19 20L18 20L18 19ZM0 0L0 7L7 7L7 0ZM1 1L1 6L6 6L6 1ZM2 2L2 5L5 5L5 2ZM14 0L14 7L21 7L21 0ZM15 1L15 6L20 6L20 1ZM16 2L16 5L19 5L19 2ZM0 14L0 21L7 21L7 14ZM1 15L1 20L6 20L6 15ZM2 16L2 19L5 19L5 16Z" fill="#282828"/></g></g></svg>
