<?xml version="1.0" encoding="UTF-8"?>
<svg xmlns="http://www.w3.org/2000/svg" version="1.1" width="400" height="400" viewBox="0 0 400 400"><rect x="0" y="0" width="400" height="400" fill="#f5f5f5"/><g transform="scale(14.815)"><g transform="translate(3,3)"><path fill-rule="evenodd" d="M9 0L9 2L8 2L8 4L9 4L9 5L10 5L10 7L9 7L9 6L8 6L8 7L9 7L9 8L10 8L10 9L8 9L8 8L6 8L6 9L5 9L5 8L3 8L3 9L2 9L2 11L1 11L1 10L0 10L0 11L1 11L1 12L0 12L0 13L1 13L1 12L2 12L2 13L8 13L8 15L9 15L9 16L8 16L8 18L9 18L9 19L11 19L11 18L12 18L12 17L13 17L13 19L12 19L12 21L17 21L17 20L18 20L18 21L20 21L20 20L21 20L21 18L19 18L19 19L20 19L20 20L18 20L18 18L17 18L17 17L19 17L19 16L20 16L20 17L21 17L21 13L20 13L20 14L18 14L18 13L19 13L19 12L20 12L20 11L21 11L21 10L18 10L18 9L19 9L19 8L17 8L17 9L13 9L13 6L12 6L12 8L11 8L11 4L12 4L12 5L13 5L13 4L12 4L12 3L13 3L13 2L12 2L12 1L13 1L13 0L12 0L12 1L11 1L11 3L10 3L10 0ZM3 9L3 10L4 10L4 12L8 12L8 13L9 13L9 14L10 14L10 15L13 15L13 14L15 14L15 15L14 15L14 16L15 16L15 17L16 17L16 16L18 16L18 14L17 14L17 13L14 13L14 12L15 12L15 11L14 11L14 10L12 10L12 11L11 11L11 10L7 10L7 9L6 9L6 10L4 10L4 9ZM6 10L6 11L7 11L7 10ZM16 10L16 11L17 11L17 12L18 12L18 10ZM8 11L8 12L9 12L9 11ZM12 11L12 13L10 13L10 14L12 14L12 13L13 13L13 11ZM9 16L9 18L11 18L11 17L12 17L12 16L11 16L11 17L10 17L10 16ZM14 18L14 20L15 20L15 18ZM16 19L16 20L17 20L17 19ZM9 20L9 21L10 21L10 20ZM0 0L0 7L7 7L7 0ZM1 1L1 6L6 6L6 1ZM2 2L2 5L5 5L5 2ZM14 0L14 7L21 7L21 0ZM15 1L15 6L20 6L20 1ZM16 2L16 5L19 5L19 2ZM0 14L0 21L7 21L7 14ZM1 15L1 20L6 20L6 15ZM2 16L2 19L5 19L5 16Z" fill="#282828"/></g></g></svg>
