<?xml version="1.0" encoding="UTF-8"?>
<svg xmlns="http://www.w3.org/2000/svg" version="1.1" width="400" height="400" viewBox="0 0 400 400"><rect x="0" y="0" width="400" height="400" fill="#f5f5f5"/><g transform="scale(14.815)"><g transform="translate(3,3)"><path fill-rule="evenodd" d="M12 0L12 1L13 1L13 0ZM8 1L8 7L9 7L9 5L10 5L10 3L11 3L11 6L10 6L10 9L11 9L11 10L9 10L9 8L5 8L5 9L4 9L4 10L6 10L6 11L7 11L7 12L6 12L6 13L7 13L7 12L8 12L8 16L9 16L9 15L10 15L10 18L8 18L8 19L10 19L10 20L11 20L11 21L13 21L13 20L12 20L12 19L13 19L13 18L14 18L14 19L15 19L15 20L14 20L14 21L21 21L21 20L20 20L20 19L21 19L21 18L19 18L19 17L21 17L21 16L20 16L20 13L21 13L21 12L20 12L20 13L18 13L18 12L19 12L19 11L17 11L17 10L18 10L18 9L20 9L20 8L15 8L15 10L12 10L12 9L11 9L11 8L12 8L12 7L13 7L13 5L12 5L12 4L13 4L13 3L12 3L12 2L11 2L11 1L10 1L10 3L9 3L9 1ZM11 6L11 7L12 7L12 6ZM2 8L2 9L1 9L1 12L0 12L0 13L4 13L4 12L2 12L2 11L3 11L3 10L2 10L2 9L3 9L3 8ZM13 8L13 9L14 9L14 8ZM6 9L6 10L8 10L8 12L9 12L9 14L10 14L10 15L11 15L11 18L10 18L10 19L11 19L11 18L13 18L13 15L11 15L11 14L12 14L12 13L13 13L13 12L14 12L14 14L15 14L15 15L14 15L14 16L15 16L15 17L16 17L16 18L17 18L17 16L19 16L19 15L17 15L17 13L15 13L15 11L12 11L12 12L9 12L9 10L8 10L8 9ZM16 9L16 10L17 10L17 9ZM20 10L20 11L21 11L21 10ZM16 11L16 12L17 12L17 11ZM10 13L10 14L11 14L11 13ZM16 15L16 16L17 16L17 15ZM18 18L18 19L19 19L19 18ZM16 19L16 20L17 20L17 19ZM0 0L0 7L7 7L7 0ZM1 1L1 6L6 6L6 1ZM2 2L2 5L5 5L5 2ZM14 0L14 7L21 7L21 0ZM15 1L15 6L20 6L20 1ZM16 2L16 5L19 5L19 2ZM0 14L0 21L7 21L7 14ZM1 15L1 20L6 20L6 15ZM2 16L2 19L5 19L5 16Z" fill="#282828"/></g></g></svg>
