<?xml version="1.0" encoding="UTF-8"?>
<svg xmlns="http://www.w3.org/2000/svg" version="1.1" width="400" height="400" viewBox="0 0 400 400"><rect x="0" y="0" width="400" height="400" fill="#f5f5f5"/><g transform="scale(14.815)"><g transform="translate(3,3)"><path fill-rule="evenodd" d="M9 0L9 3L10 3L10 4L11 4L11 5L12 5L12 7L11 7L11 6L10 6L10 5L9 5L9 4L8 4L8 5L9 5L9 6L8 6L8 8L6 8L6 9L5 9L5 10L4 10L4 8L2 8L2 9L0 9L0 11L1 11L1 12L2 12L2 13L3 13L3 12L2 12L2 11L4 11L4 13L7 13L7 12L6 12L6 11L8 11L8 10L9 10L9 12L8 12L8 15L9 15L9 16L10 16L10 17L12 17L12 18L13 18L13 17L15 17L15 19L11 19L11 18L10 18L10 19L9 19L9 17L8 17L8 19L9 19L9 21L12 21L12 20L16 20L16 21L17 21L17 20L16 20L16 18L20 18L20 17L21 17L21 16L20 16L20 15L21 15L21 14L20 14L20 13L21 13L21 12L18 12L18 11L20 11L20 10L21 10L21 9L20 9L20 10L19 10L19 9L18 9L18 10L17 10L17 11L14 11L14 10L13 10L13 11L14 11L14 14L12 14L12 9L11 9L11 11L10 11L10 10L9 10L9 9L10 9L10 8L9 8L9 6L10 6L10 7L11 7L11 8L12 8L12 7L13 7L13 4L12 4L12 1L13 1L13 0L11 0L11 2L10 2L10 0ZM13 8L13 9L15 9L15 8ZM16 8L16 9L17 9L17 8ZM6 9L6 10L5 10L5 11L6 11L6 10L7 10L7 9ZM9 12L9 14L11 14L11 16L12 16L12 14L11 14L11 13L10 13L10 12ZM16 12L16 13L15 13L15 14L16 14L16 15L17 15L17 16L18 16L18 17L20 17L20 16L18 16L18 15L19 15L19 14L18 14L18 13L17 13L17 12ZM13 15L13 16L15 16L15 15ZM10 19L10 20L11 20L11 19ZM18 19L18 20L19 20L19 21L20 21L20 20L21 20L21 19ZM0 0L0 7L7 7L7 0ZM1 1L1 6L6 6L6 1ZM2 2L2 5L5 5L5 2ZM14 0L14 7L21 7L21 0ZM15 1L15 6L20 6L20 1ZM16 2L16 5L19 5L19 2ZM0 14L0 21L7 21L7 14ZM1 15L1 20L6 20L6 15ZM2 16L2 19L5 19L5 16Z" fill="#282828"/></g></g></svg>
