<?xml version="1.0" encoding="UTF-8"?>
<svg xmlns="http://www.w3.org/2000/svg" version="1.1" width="400" height="400" viewBox="0 0 400 400"><rect x="0" y="0" width="400" height="400" fill="#f5f5f5"/><g transform="scale(14.815)"><g transform="translate(3,3)"><path fill-rule="evenodd" d="M10 0L10 1L9 1L9 2L10 2L10 3L9 3L9 4L8 4L8 5L9 5L9 4L12 4L12 5L13 5L13 3L12 3L12 2L11 2L11 1L12 1L12 0ZM10 5L10 8L9 8L9 6L8 6L8 8L6 8L6 9L5 9L5 10L4 10L4 11L5 11L5 12L2 12L2 13L5 13L5 12L6 12L6 13L8 13L8 15L10 15L10 14L11 14L11 16L10 16L10 17L12 17L12 18L10 18L10 19L9 19L9 17L8 17L8 19L9 19L9 21L15 21L15 20L16 20L16 21L17 21L17 20L16 20L16 18L20 18L20 17L21 17L21 16L20 16L20 15L21 15L21 14L19 14L19 13L20 13L20 11L21 11L21 10L20 10L20 9L17 9L17 8L16 8L16 9L17 9L17 11L14 11L14 10L13 10L13 9L15 9L15 8L13 8L13 6L12 6L12 7L11 7L11 5ZM2 8L2 9L4 9L4 8ZM11 8L11 11L12 11L12 9L13 9L13 8ZM0 9L0 11L1 11L1 9ZM6 9L6 10L5 10L5 11L6 11L6 12L7 12L7 11L9 11L9 12L10 12L10 11L9 11L9 10L10 10L10 9L9 9L9 10L8 10L8 9ZM6 10L6 11L7 11L7 10ZM17 11L17 12L16 12L16 13L15 13L15 12L13 12L13 14L12 14L12 13L11 13L11 14L12 14L12 15L13 15L13 16L12 16L12 17L13 17L13 19L14 19L14 20L15 20L15 19L14 19L14 17L15 17L15 14L16 14L16 15L17 15L17 16L18 16L18 17L20 17L20 16L18 16L18 15L19 15L19 14L17 14L17 12L19 12L19 11ZM9 13L9 14L10 14L10 13ZM13 16L13 17L14 17L14 16ZM10 19L10 20L12 20L12 19ZM18 19L18 20L19 20L19 21L20 21L20 20L21 20L21 19ZM0 0L0 7L7 7L7 0ZM1 1L1 6L6 6L6 1ZM2 2L2 5L5 5L5 2ZM14 0L14 7L21 7L21 0ZM15 1L15 6L20 6L20 1ZM16 2L16 5L19 5L19 2ZM0 14L0 21L7 21L7 14ZM1 15L1 20L6 20L6 15ZM2 16L2 19L5 19L5 16Z" fill="#282828"/></g></g></svg>
