<?xml version="1.0" encoding="UTF-8"?>
<svg xmlns="http://www.w3.org/2000/svg" version="1.1" width="400" height="400" viewBox="0 0 400 400"><rect x="0" y="0" width="400" height="400" fill="#f5f5f5"/><g transform="scale(14.815)"><g transform="translate(3,3)"><path fill-rule="evenodd" d="M9 0L9 1L8 1L8 2L9 2L9 1L12 1L12 0ZM10 2L10 3L9 3L9 5L8 5L8 8L4 8L4 9L0 9L0 13L1 13L1 12L2 12L2 13L4 13L4 12L2 12L2 11L3 11L3 10L4 10L4 11L5 11L5 12L6 12L6 13L7 13L7 12L6 12L6 11L10 11L10 10L11 10L11 8L12 8L12 7L13 7L13 6L12 6L12 5L13 5L13 4L11 4L11 5L10 5L10 3L11 3L11 2ZM12 2L12 3L13 3L13 2ZM9 5L9 8L8 8L8 9L5 9L5 11L6 11L6 10L9 10L9 9L10 9L10 8L11 8L11 7L12 7L12 6L11 6L11 7L10 7L10 5ZM14 8L14 10L15 10L15 11L16 11L16 12L18 12L18 13L19 13L19 12L20 12L20 15L19 15L19 16L18 16L18 14L17 14L17 16L16 16L16 15L14 15L14 14L15 14L15 12L14 12L14 11L12 11L12 12L14 12L14 13L11 13L11 12L8 12L8 17L10 17L10 18L9 18L9 19L10 19L10 21L11 21L11 19L10 19L10 18L11 18L11 17L12 17L12 15L13 15L13 17L14 17L14 18L15 18L15 19L16 19L16 20L17 20L17 19L18 19L18 21L21 21L21 20L20 20L20 19L19 19L19 18L21 18L21 16L20 16L20 15L21 15L21 9L20 9L20 8L19 8L19 10L16 10L16 8ZM19 10L19 11L18 11L18 12L19 12L19 11L20 11L20 10ZM9 13L9 14L10 14L10 13ZM11 14L11 15L9 15L9 16L11 16L11 15L12 15L12 14ZM14 16L14 17L15 17L15 16ZM17 16L17 17L16 17L16 18L17 18L17 17L18 17L18 18L19 18L19 17L18 17L18 16ZM13 19L13 20L12 20L12 21L15 21L15 20L14 20L14 19ZM0 0L0 7L7 7L7 0ZM1 1L1 6L6 6L6 1ZM2 2L2 5L5 5L5 2ZM14 0L14 7L21 7L21 0ZM15 1L15 6L20 6L20 1ZM16 2L16 5L19 5L19 2ZM0 14L0 21L7 21L7 14ZM1 15L1 20L6 20L6 15ZM2 16L2 19L5 19L5 16Z" fill="#282828"/></g></g></svg>
