<?xml version="1.0" encoding="UTF-8"?>
<svg xmlns="http://www.w3.org/2000/svg" version="1.1" width="400" height="400" viewBox="0 0 400 400"><rect x="0" y="0" width="400" height="400" fill="#f5f5f5"/><g transform="scale(14.815)"><g transform="translate(3,3)"><path fill-rule="evenodd" d="M9 0L9 1L10 1L10 2L11 2L11 1L10 1L10 0ZM12 0L12 3L10 3L10 4L9 4L9 2L8 2L8 4L9 4L9 6L8 6L8 7L9 7L9 9L10 9L10 10L9 10L9 11L8 11L8 8L6 8L6 9L5 9L5 8L3 8L3 9L2 9L2 10L3 10L3 11L1 11L1 10L0 10L0 13L1 13L1 12L3 12L3 13L4 13L4 12L3 12L3 11L5 11L5 10L6 10L6 11L7 11L7 12L5 12L5 13L7 13L7 12L8 12L8 15L9 15L9 16L8 16L8 18L9 18L9 16L10 16L10 15L11 15L11 18L10 18L10 20L9 20L9 21L10 21L10 20L11 20L11 21L12 21L12 19L13 19L13 20L15 20L15 21L17 21L17 20L18 20L18 21L20 21L20 20L21 20L21 18L19 18L19 19L20 19L20 20L18 20L18 18L17 18L17 17L19 17L19 16L20 16L20 17L21 17L21 9L20 9L20 10L19 10L19 11L18 11L18 12L19 12L19 11L20 11L20 13L19 13L19 14L18 14L18 13L17 13L17 11L16 11L16 10L18 10L18 9L19 9L19 8L17 8L17 9L15 9L15 10L14 10L14 11L15 11L15 13L17 13L17 14L18 14L18 16L16 16L16 17L15 17L15 19L14 19L14 18L13 18L13 15L14 15L14 16L15 16L15 15L14 15L14 13L12 13L12 12L10 12L10 11L13 11L13 9L11 9L11 8L10 8L10 7L11 7L11 6L12 6L12 8L13 8L13 6L12 6L12 5L13 5L13 0ZM10 4L10 6L9 6L9 7L10 7L10 6L11 6L11 4ZM3 9L3 10L5 10L5 9ZM6 9L6 10L7 10L7 9ZM10 13L10 14L9 14L9 15L10 15L10 14L12 14L12 15L13 15L13 14L12 14L12 13ZM16 19L16 20L17 20L17 19ZM0 0L0 7L7 7L7 0ZM1 1L1 6L6 6L6 1ZM2 2L2 5L5 5L5 2ZM14 0L14 7L21 7L21 0ZM15 1L15 6L20 6L20 1ZM16 2L16 5L19 5L19 2ZM0 14L0 21L7 21L7 14ZM1 15L1 20L6 20L6 15ZM2 16L2 19L5 19L5 16Z" fill="#282828"/></g></g></svg>
