<?xml version="1.0" encoding="UTF-8"?>
<svg xmlns="http://www.w3.org/2000/svg" version="1.1" width="400" height="400" viewBox="0 0 400 400"><rect x="0" y="0" width="400" height="400" fill="#f5f5f5"/><g transform="scale(14.815)"><g transform="translate(3,3)"><path fill-rule="evenodd" d="M8 1L8 2L9 2L9 5L8 5L8 8L4 8L4 9L0 9L0 11L2 11L2 13L8 13L8 17L10 17L10 18L9 18L9 20L10 20L10 21L11 21L11 20L12 20L12 21L14 21L14 20L15 20L15 19L16 19L16 20L17 20L17 19L18 19L18 21L21 21L21 20L20 20L20 19L19 19L19 18L21 18L21 16L20 16L20 15L21 15L21 14L20 14L20 11L21 11L21 9L20 9L20 8L19 8L19 9L17 9L17 10L16 10L16 8L14 8L14 9L15 9L15 11L16 11L16 12L17 12L17 16L16 16L16 15L15 15L15 16L13 16L13 17L14 17L14 18L13 18L13 19L11 19L11 17L12 17L12 16L11 16L11 17L10 17L10 14L11 14L11 15L12 15L12 13L13 13L13 14L14 14L14 10L12 10L12 9L13 9L13 8L11 8L11 6L12 6L12 7L13 7L13 6L12 6L12 5L13 5L13 4L12 4L12 3L13 3L13 2L12 2L12 1L10 1L10 2L9 2L9 1ZM11 2L11 3L12 3L12 2ZM10 4L10 6L9 6L9 7L10 7L10 6L11 6L11 5L12 5L12 4ZM8 8L8 13L9 13L9 14L10 14L10 13L9 13L9 12L11 12L11 11L12 11L12 10L11 10L11 8L10 8L10 10L9 10L9 8ZM5 9L5 10L3 10L3 11L5 11L5 12L7 12L7 11L5 11L5 10L7 10L7 9ZM19 9L19 10L18 10L18 11L17 11L17 12L18 12L18 13L19 13L19 10L20 10L20 9ZM10 10L10 11L11 11L11 10ZM0 12L0 13L1 13L1 12ZM18 14L18 16L17 16L17 17L16 17L16 18L17 18L17 17L18 17L18 18L19 18L19 17L18 17L18 16L19 16L19 15L20 15L20 14ZM14 18L14 19L13 19L13 20L14 20L14 19L15 19L15 18ZM0 0L0 7L7 7L7 0ZM1 1L1 6L6 6L6 1ZM2 2L2 5L5 5L5 2ZM14 0L14 7L21 7L21 0ZM15 1L15 6L20 6L20 1ZM16 2L16 5L19 5L19 2ZM0 14L0 21L7 21L7 14ZM1 15L1 20L6 20L6 15ZM2 16L2 19L5 19L5 16Z" fill="#282828"/></g></g></svg>
