<?xml version="1.0" encoding="UTF-8"?>
<svg xmlns="http://www.w3.org/2000/svg" version="1.1" width="400" height="400" viewBox="0 0 400 400"><rect x="0" y="0" width="400" height="400" fill="#f5f5f5"/><g transform="scale(14.815)"><g transform="translate(3,3)"><path fill-rule="evenodd" d="M8 0L8 2L9 2L9 3L8 3L8 7L9 7L9 5L10 5L10 4L11 4L11 5L13 5L13 4L11 4L11 2L9 2L9 0ZM10 0L10 1L12 1L12 0ZM12 2L12 3L13 3L13 2ZM10 6L10 7L11 7L11 6ZM12 6L12 7L13 7L13 6ZM3 8L3 10L2 10L2 9L0 9L0 10L2 10L2 11L0 11L0 12L5 12L5 13L7 13L7 12L5 12L5 11L7 11L7 10L8 10L8 9L7 9L7 8L6 8L6 9L7 9L7 10L5 10L5 11L4 11L4 8ZM9 8L9 9L10 9L10 10L9 10L9 11L10 11L10 12L9 12L9 13L8 13L8 14L10 14L10 15L12 15L12 16L11 16L11 18L10 18L10 16L9 16L9 17L8 17L8 18L9 18L9 20L10 20L10 19L11 19L11 21L12 21L12 20L13 20L13 19L14 19L14 18L15 18L15 17L17 17L17 18L16 18L16 21L19 21L19 20L20 20L20 19L21 19L21 16L18 16L18 15L19 15L19 14L17 14L17 12L18 12L18 11L17 11L17 12L16 12L16 13L15 13L15 12L14 12L14 11L15 11L15 10L14 10L14 9L13 9L13 8ZM15 8L15 9L17 9L17 10L18 10L18 8ZM19 8L19 10L20 10L20 11L21 11L21 10L20 10L20 9L21 9L21 8ZM11 9L11 10L10 10L10 11L11 11L11 12L12 12L12 14L13 14L13 15L15 15L15 14L13 14L13 13L14 13L14 12L12 12L12 11L14 11L14 10L13 10L13 9ZM11 10L11 11L12 11L12 10ZM19 12L19 13L21 13L21 12ZM10 13L10 14L11 14L11 13ZM16 14L16 15L17 15L17 14ZM20 14L20 15L21 15L21 14ZM12 16L12 19L13 19L13 17L15 17L15 16ZM17 16L17 17L18 17L18 16ZM17 18L17 20L18 20L18 19L20 19L20 18ZM0 0L0 7L7 7L7 0ZM1 1L1 6L6 6L6 1ZM2 2L2 5L5 5L5 2ZM14 0L14 7L21 7L21 0ZM15 1L15 6L20 6L20 1ZM16 2L16 5L19 5L19 2ZM0 14L0 21L7 21L7 14ZM1 15L1 20L6 20L6 15ZM2 16L2 19L5 19L5 16Z" fill="#282828"/></g></g></svg>
