<?xml version="1.0" encoding="UTF-8"?>
<svg xmlns="http://www.w3.org/2000/svg" version="1.1" width="400" height="400" viewBox="0 0 400 400"><rect x="0" y="0" width="400" height="400" fill="#f5f5f5"/><g transform="scale(14.815)"><g transform="translate(3,3)"><path fill-rule="evenodd" d="M8 0L8 3L9 3L9 4L10 4L10 7L9 7L9 5L8 5L8 9L10 9L10 7L11 7L11 10L10 10L10 11L9 11L9 10L8 10L8 11L9 11L9 13L8 13L8 14L9 14L9 16L8 16L8 19L10 19L10 18L9 18L9 17L11 17L11 16L13 16L13 17L12 17L12 18L13 18L13 20L12 20L12 19L11 19L11 21L13 21L13 20L14 20L14 21L16 21L16 20L14 20L14 18L15 18L15 19L16 19L16 18L15 18L15 17L14 17L14 16L13 16L13 14L9 14L9 13L12 13L12 12L13 12L13 13L14 13L14 12L15 12L15 14L14 14L14 15L15 15L15 16L16 16L16 17L17 17L17 18L18 18L18 17L19 17L19 16L20 16L20 15L21 15L21 14L20 14L20 15L19 15L19 11L20 11L20 10L18 10L18 9L21 9L21 8L18 8L18 9L17 9L17 10L18 10L18 11L17 11L17 13L18 13L18 17L17 17L17 14L16 14L16 12L15 12L15 11L16 11L16 10L15 10L15 11L14 11L14 12L13 12L13 11L12 11L12 9L13 9L13 10L14 10L14 9L16 9L16 8L13 8L13 6L12 6L12 5L13 5L13 3L12 3L12 2L13 2L13 1L12 1L12 0L11 0L11 1L9 1L9 0ZM11 3L11 4L12 4L12 3ZM11 6L11 7L12 7L12 6ZM2 8L2 9L1 9L1 10L2 10L2 11L0 11L0 12L2 12L2 13L4 13L4 12L5 12L5 11L7 11L7 10L6 10L6 9L7 9L7 8L6 8L6 9L5 9L5 8ZM3 9L3 11L2 11L2 12L3 12L3 11L5 11L5 10L4 10L4 9ZM11 11L11 12L12 12L12 11ZM6 12L6 13L7 13L7 12ZM20 12L20 13L21 13L21 12ZM15 14L15 15L16 15L16 14ZM10 15L10 16L11 16L11 15ZM17 19L17 20L18 20L18 21L19 21L19 20L20 20L20 19L19 19L19 20L18 20L18 19ZM9 20L9 21L10 21L10 20ZM0 0L0 7L7 7L7 0ZM1 1L1 6L6 6L6 1ZM2 2L2 5L5 5L5 2ZM14 0L14 7L21 7L21 0ZM15 1L15 6L20 6L20 1ZM16 2L16 5L19 5L19 2ZM0 14L0 21L7 21L7 14ZM1 15L1 20L6 20L6 15ZM2 16L2 19L5 19L5 16Z" fill="#282828"/></g></g></svg>
