<?xml version="1.0" encoding="UTF-8"?>
<svg xmlns="http://www.w3.org/2000/svg" version="1.1" width="400" height="400" viewBox="0 0 400 400"><rect x="0" y="0" width="400" height="400" fill="#f5f5f5"/><g transform="scale(14.815)"><g transform="translate(3,3)"><path fill-rule="evenodd" d="M8 0L8 1L10 1L10 2L11 2L11 3L9 3L9 2L8 2L8 3L9 3L9 4L8 4L8 5L10 5L10 4L11 4L11 3L12 3L12 4L13 4L13 2L12 2L12 1L13 1L13 0L11 0L11 1L10 1L10 0ZM8 6L8 8L9 8L9 6ZM10 6L10 7L11 7L11 8L10 8L10 10L14 10L14 9L15 9L15 13L13 13L13 12L12 12L12 11L9 11L9 10L8 10L8 9L7 9L7 8L5 8L5 9L1 9L1 11L0 11L0 13L2 13L2 11L4 11L4 13L7 13L7 12L6 12L6 11L8 11L8 14L10 14L10 16L9 16L9 15L8 15L8 16L9 16L9 20L10 20L10 21L11 21L11 20L13 20L13 21L16 21L16 19L17 19L17 20L18 20L18 21L19 21L19 20L20 20L20 19L21 19L21 18L19 18L19 20L18 20L18 17L19 17L19 16L21 16L21 14L20 14L20 15L19 15L19 13L20 13L20 12L21 12L21 8L20 8L20 10L18 10L18 9L19 9L19 8L18 8L18 9L17 9L17 8L16 8L16 9L15 9L15 8L14 8L14 9L13 9L13 8L12 8L12 7L13 7L13 6L12 6L12 7L11 7L11 6ZM6 9L6 10L4 10L4 11L6 11L6 10L7 10L7 9ZM16 10L16 12L17 12L17 13L15 13L15 14L13 14L13 15L12 15L12 17L11 17L11 16L10 16L10 17L11 17L11 19L12 19L12 17L16 17L16 18L17 18L17 17L18 17L18 13L19 13L19 12L20 12L20 11L17 11L17 10ZM9 12L9 13L10 13L10 14L11 14L11 13L12 13L12 12L11 12L11 13L10 13L10 12ZM16 14L16 15L17 15L17 14ZM13 15L13 16L15 16L15 15ZM16 16L16 17L17 17L17 16ZM13 18L13 19L14 19L14 18ZM0 0L0 7L7 7L7 0ZM1 1L1 6L6 6L6 1ZM2 2L2 5L5 5L5 2ZM14 0L14 7L21 7L21 0ZM15 1L15 6L20 6L20 1ZM16 2L16 5L19 5L19 2ZM0 14L0 21L7 21L7 14ZM1 15L1 20L6 20L6 15ZM2 16L2 19L5 19L5 16Z" fill="#282828"/></g></g></svg>
