<?xml version="1.0" encoding="UTF-8"?>
<svg xmlns="http://www.w3.org/2000/svg" version="1.1" width="400" height="400" viewBox="0 0 400 400"><rect x="0" y="0" width="400" height="400" fill="#f5f5f5"/><g transform="scale(14.815)"><g transform="translate(3,3)"><path fill-rule="evenodd" d="M10 0L10 2L9 2L9 1L8 1L8 2L9 2L9 3L10 3L10 7L9 7L9 5L8 5L8 8L4 8L4 10L2 10L2 9L1 9L1 10L2 10L2 12L0 12L0 13L2 13L2 12L3 12L3 13L8 13L8 17L9 17L9 18L10 18L10 19L9 19L9 21L10 21L10 20L11 20L11 21L13 21L13 19L14 19L14 18L15 18L15 19L16 19L16 20L17 20L17 19L18 19L18 21L21 21L21 20L20 20L20 19L19 19L19 18L21 18L21 16L20 16L20 15L21 15L21 14L20 14L20 15L19 15L19 16L18 16L18 14L19 14L19 13L20 13L20 12L21 12L21 9L20 9L20 8L19 8L19 9L20 9L20 10L19 10L19 13L17 13L17 16L16 16L16 15L15 15L15 11L16 11L16 12L17 12L17 11L18 11L18 9L17 9L17 10L16 10L16 8L14 8L14 10L13 10L13 12L12 12L12 9L13 9L13 6L12 6L12 9L11 9L11 11L10 11L10 10L9 10L9 11L8 11L8 10L6 10L6 9L8 9L8 8L9 8L9 9L10 9L10 7L11 7L11 4L12 4L12 5L13 5L13 2L12 2L12 0ZM11 2L11 3L12 3L12 2ZM5 10L5 12L7 12L7 11L6 11L6 10ZM9 11L9 12L8 12L8 13L9 13L9 14L10 14L10 15L9 15L9 16L10 16L10 15L11 15L11 14L12 14L12 17L10 17L10 18L11 18L11 19L12 19L12 18L13 18L13 17L14 17L14 16L15 16L15 15L14 15L14 14L13 14L13 13L11 13L11 12L10 12L10 11ZM9 12L9 13L10 13L10 14L11 14L11 13L10 13L10 12ZM13 15L13 16L14 16L14 15ZM17 16L17 17L16 17L16 18L17 18L17 17L18 17L18 18L19 18L19 17L18 17L18 16ZM0 0L0 7L7 7L7 0ZM1 1L1 6L6 6L6 1ZM2 2L2 5L5 5L5 2ZM14 0L14 7L21 7L21 0ZM15 1L15 6L20 6L20 1ZM16 2L16 5L19 5L19 2ZM0 14L0 21L7 21L7 14ZM1 15L1 20L6 20L6 15ZM2 16L2 19L5 19L5 16Z" fill="#282828"/></g></g></svg>
