<?xml version="1.0" encoding="UTF-8"?>
<svg xmlns="http://www.w3.org/2000/svg" version="1.1" width="400" height="400" viewBox="0 0 400 400"><rect x="0" y="0" width="400" height="400" fill="#f5f5f5"/><g transform="scale(14.815)"><g transform="translate(3,3)"><path fill-rule="evenodd" d="M8 0L8 1L9 1L9 3L8 3L8 4L9 4L9 5L10 5L10 7L9 7L9 6L8 6L8 7L9 7L9 8L8 8L8 10L10 10L10 9L9 9L9 8L11 8L11 9L12 9L12 10L14 10L14 8L11 8L11 6L12 6L12 7L13 7L13 6L12 6L12 5L10 5L10 4L11 4L11 3L12 3L12 4L13 4L13 2L10 2L10 0ZM9 3L9 4L10 4L10 3ZM2 8L2 9L0 9L0 13L2 13L2 12L3 12L3 13L4 13L4 12L5 12L5 11L7 11L7 12L6 12L6 13L8 13L8 14L9 14L9 13L10 13L10 15L11 15L11 14L13 14L13 13L14 13L14 11L13 11L13 13L12 13L12 12L11 12L11 13L10 13L10 11L9 11L9 13L8 13L8 11L7 11L7 10L5 10L5 11L4 11L4 10L3 10L3 11L1 11L1 10L2 10L2 9L3 9L3 8ZM4 8L4 9L7 9L7 8ZM17 8L17 9L18 9L18 8ZM20 8L20 10L19 10L19 11L18 11L18 10L16 10L16 11L18 11L18 12L19 12L19 11L20 11L20 10L21 10L21 8ZM16 12L16 13L15 13L15 14L14 14L14 15L12 15L12 17L11 17L11 16L9 16L9 15L8 15L8 17L9 17L9 18L8 18L8 19L9 19L9 18L10 18L10 17L11 17L11 19L10 19L10 20L9 20L9 21L10 21L10 20L12 20L12 21L13 21L13 20L14 20L14 21L15 21L15 18L14 18L14 17L16 17L16 16L18 16L18 18L20 18L20 19L21 19L21 18L20 18L20 17L21 17L21 16L20 16L20 17L19 17L19 16L18 16L18 15L19 15L19 14L21 14L21 12L20 12L20 13L19 13L19 14L18 14L18 15L16 15L16 13L17 13L17 12ZM14 15L14 16L15 16L15 15ZM12 18L12 19L13 19L13 18ZM16 18L16 19L17 19L17 18ZM18 19L18 21L19 21L19 19ZM16 20L16 21L17 21L17 20ZM20 20L20 21L21 21L21 20ZM0 0L0 7L7 7L7 0ZM1 1L1 6L6 6L6 1ZM2 2L2 5L5 5L5 2ZM14 0L14 7L21 7L21 0ZM15 1L15 6L20 6L20 1ZM16 2L16 5L19 5L19 2ZM0 14L0 21L7 21L7 14ZM1 15L1 20L6 20L6 15ZM2 16L2 19L5 19L5 16Z" fill="#282828"/></g></g></svg>
