<?xml version="1.0" encoding="UTF-8"?>
<svg xmlns="http://www.w3.org/2000/svg" version="1.1" width="400" height="400" viewBox="0 0 400 400"><rect x="0" y="0" width="400" height="400" fill="#f5f5f5"/><g transform="scale(14.815)"><g transform="translate(3,3)"><path fill-rule="evenodd" d="M8 0L8 1L9 1L9 2L10 2L10 3L8 3L8 4L11 4L11 3L12 3L12 7L11 7L11 5L9 5L9 6L8 6L8 7L9 7L9 6L10 6L10 7L11 7L11 8L10 8L10 10L9 10L9 8L8 8L8 9L7 9L7 8L4 8L4 9L5 9L5 11L4 11L4 10L3 10L3 11L2 11L2 12L1 12L1 10L0 10L0 12L1 12L1 13L5 13L5 12L6 12L6 13L7 13L7 12L8 12L8 14L9 14L9 12L10 12L10 11L11 11L11 13L10 13L10 15L11 15L11 16L12 16L12 17L11 17L11 19L10 19L10 18L8 18L8 19L10 19L10 20L9 20L9 21L14 21L14 19L15 19L15 17L16 17L16 16L18 16L18 18L20 18L20 19L21 19L21 18L20 18L20 17L21 17L21 16L20 16L20 17L19 17L19 16L18 16L18 15L19 15L19 14L20 14L20 12L21 12L21 10L20 10L20 9L21 9L21 8L20 8L20 9L18 9L18 8L17 8L17 10L16 10L16 11L17 11L17 10L20 10L20 11L18 11L18 12L16 12L16 13L15 13L15 9L14 9L14 8L13 8L13 1L12 1L12 2L11 2L11 0L10 0L10 1L9 1L9 0ZM2 8L2 9L3 9L3 8ZM12 8L12 9L13 9L13 8ZM6 9L6 10L7 10L7 11L6 11L6 12L7 12L7 11L8 11L8 12L9 12L9 10L7 10L7 9ZM11 10L11 11L13 11L13 12L12 12L12 13L13 13L13 14L14 14L14 15L13 15L13 17L12 17L12 18L13 18L13 19L11 19L11 20L13 20L13 19L14 19L14 16L15 16L15 13L13 13L13 12L14 12L14 11L13 11L13 10ZM16 13L16 15L18 15L18 14L19 14L19 13L18 13L18 14L17 14L17 13ZM11 14L11 15L12 15L12 14ZM8 15L8 17L10 17L10 16L9 16L9 15ZM16 18L16 19L17 19L17 18ZM18 19L18 21L19 21L19 19ZM16 20L16 21L17 21L17 20ZM20 20L20 21L21 21L21 20ZM0 0L0 7L7 7L7 0ZM1 1L1 6L6 6L6 1ZM2 2L2 5L5 5L5 2ZM14 0L14 7L21 7L21 0ZM15 1L15 6L20 6L20 1ZM16 2L16 5L19 5L19 2ZM0 14L0 21L7 21L7 14ZM1 15L1 20L6 20L6 15ZM2 16L2 19L5 19L5 16Z" fill="#282828"/></g></g></svg>
