<?xml version="1.0" encoding="UTF-8"?>
<svg xmlns="http://www.w3.org/2000/svg" version="1.1" width="400" height="400" viewBox="0 0 400 400"><rect x="0" y="0" width="400" height="400" fill="#f5f5f5"/><g transform="scale(14.815)"><g transform="translate(3,3)"><path fill-rule="evenodd" d="M10 0L10 1L11 1L11 0ZM12 0L12 1L13 1L13 0ZM8 2L8 4L10 4L10 7L9 7L9 6L8 6L8 7L9 7L9 8L10 8L10 9L8 9L8 8L6 8L6 9L5 9L5 8L3 8L3 10L2 10L2 9L1 9L1 10L0 10L0 13L5 13L5 11L4 11L4 9L5 9L5 10L6 10L6 11L7 11L7 12L6 12L6 13L7 13L7 12L8 12L8 15L10 15L10 14L9 14L9 13L12 13L12 12L11 12L11 11L10 11L10 12L8 12L8 11L7 11L7 10L6 10L6 9L8 9L8 10L10 10L10 9L11 9L11 8L12 8L12 11L13 11L13 12L14 12L14 10L13 10L13 6L12 6L12 7L11 7L11 5L12 5L12 4L11 4L11 3L9 3L9 2ZM12 2L12 3L13 3L13 2ZM10 7L10 8L11 8L11 7ZM17 8L17 9L15 9L15 13L14 13L14 14L12 14L12 15L14 15L14 16L10 16L10 18L9 18L9 16L8 16L8 18L9 18L9 20L10 20L10 21L17 21L17 20L18 20L18 21L20 21L20 20L21 20L21 18L19 18L19 19L20 19L20 20L18 20L18 18L17 18L17 17L19 17L19 16L20 16L20 17L21 17L21 14L19 14L19 13L21 13L21 11L20 11L20 10L21 10L21 9L20 9L20 10L19 10L19 8ZM1 10L1 12L2 12L2 10ZM16 10L16 11L18 11L18 12L17 12L17 13L15 13L15 17L16 17L16 16L18 16L18 14L17 14L17 13L19 13L19 10ZM3 11L3 12L4 12L4 11ZM12 17L12 18L10 18L10 19L11 19L11 20L12 20L12 18L14 18L14 19L15 19L15 18L14 18L14 17ZM16 19L16 20L17 20L17 19ZM0 0L0 7L7 7L7 0ZM1 1L1 6L6 6L6 1ZM2 2L2 5L5 5L5 2ZM14 0L14 7L21 7L21 0ZM15 1L15 6L20 6L20 1ZM16 2L16 5L19 5L19 2ZM0 14L0 21L7 21L7 14ZM1 15L1 20L6 20L6 15ZM2 16L2 19L5 19L5 16Z" fill="#282828"/></g></g></svg>
