<?xml version="1.0" encoding="UTF-8"?>
<svg xmlns="http://www.w3.org/2000/svg" version="1.1" width="400" height="400" viewBox="0 0 400 400"><rect x="0" y="0" width="400" height="400" fill="#ffffff"/><g transform="scale(7.843)"><g transform="translate(15,15)"><path fill-rule="evenodd" d="M11 0L11 1L9 1L9 2L8 2L8 4L10 4L10 2L11 2L11 1L12 1L12 3L11 3L11 5L12 5L12 8L13 8L13 5L12 5L12 3L13 3L13 1L12 1L12 0ZM9 5L9 6L8 6L8 7L9 7L9 6L10 6L10 8L9 8L9 10L11 10L11 11L12 11L12 10L13 10L13 12L15 12L15 13L13 13L13 14L15 14L15 13L17 13L17 14L18 14L18 16L16 16L16 17L15 17L15 16L13 16L13 17L12 17L12 18L11 18L11 16L12 16L12 13L11 13L11 12L10 12L10 11L8 11L8 10L6 10L6 11L8 11L8 15L10 15L10 17L9 17L9 16L8 16L8 18L10 18L10 19L13 19L13 17L14 17L14 19L15 19L15 20L14 20L14 21L17 21L17 20L18 20L18 21L20 21L20 20L21 20L21 18L19 18L19 19L20 19L20 20L18 20L18 18L17 18L17 17L19 17L19 16L20 16L20 17L21 17L21 14L19 14L19 13L21 13L21 11L20 11L20 10L18 10L18 11L16 11L16 10L17 10L17 9L19 9L19 8L17 8L17 9L10 9L10 8L11 8L11 6L10 6L10 5ZM3 8L3 9L2 9L2 10L4 10L4 12L3 12L3 11L2 11L2 13L7 13L7 12L5 12L5 10L4 10L4 9L5 9L5 8ZM6 8L6 9L8 9L8 8ZM0 10L0 12L1 12L1 10ZM14 10L14 11L15 11L15 10ZM18 11L18 12L20 12L20 11ZM9 12L9 13L10 13L10 12ZM10 14L10 15L11 15L11 14ZM16 19L16 20L17 20L17 19ZM11 20L11 21L13 21L13 20ZM0 0L0 7L7 7L7 0ZM1 1L1 6L6 6L6 1ZM2 2L2 5L5 5L5 2ZM14 0L14 7L21 7L21 0ZM15 1L15 6L20 6L20 1ZM16 2L16 5L19 5L19 2ZM0 14L0 21L7 21L7 14ZM1 15L1 20L6 20L6 15ZM2 16L2 19L5 19L5 16Z" fill="#004b96"/></g></g></svg>
