<?xml version="1.0" encoding="UTF-8"?>
<svg xmlns="http://www.w3.org/2000/svg" version="1.1" width="400" height="400" viewBox="0 0 400 400"><rect x="0" y="0" width="400" height="400" fill="#f5f5f5"/><g transform="scale(14.815)"><g transform="translate(3,3)"><path fill-rule="evenodd" d="M8 0L8 2L9 2L9 3L8 3L8 7L9 7L9 5L10 5L10 4L11 4L11 6L10 6L10 7L11 7L11 6L12 6L12 7L13 7L13 6L12 6L12 5L13 5L13 4L11 4L11 3L10 3L10 1L9 1L9 0ZM11 1L11 2L12 2L12 3L13 3L13 2L12 2L12 1ZM9 3L9 4L10 4L10 3ZM3 8L3 9L2 9L2 10L0 10L0 11L1 11L1 12L0 12L0 13L2 13L2 12L3 12L3 13L5 13L5 12L3 12L3 11L2 11L2 10L3 10L3 9L4 9L4 8ZM6 8L6 9L7 9L7 10L4 10L4 11L8 11L8 12L9 12L9 11L8 11L8 9L7 9L7 8ZM9 8L9 9L10 9L10 8ZM11 8L11 9L13 9L13 10L10 10L10 11L13 11L13 10L14 10L14 12L12 12L12 13L11 13L11 12L10 12L10 15L9 15L9 16L11 16L11 19L10 19L10 18L9 18L9 17L8 17L8 18L9 18L9 21L10 21L10 20L12 20L12 21L14 21L14 20L15 20L15 19L14 19L14 17L17 17L17 18L16 18L16 21L19 21L19 20L20 20L20 19L21 19L21 16L18 16L18 15L19 15L19 13L20 13L20 12L21 12L21 11L20 11L20 12L19 12L19 10L18 10L18 12L16 12L16 13L14 13L14 12L15 12L15 9L18 9L18 8L15 8L15 9L13 9L13 8ZM19 8L19 9L20 9L20 10L21 10L21 8ZM6 12L6 13L7 13L7 12ZM8 13L8 14L9 14L9 13ZM12 13L12 14L11 14L11 16L12 16L12 14L13 14L13 15L14 15L14 13ZM16 14L16 15L17 15L17 14ZM20 14L20 15L21 15L21 14ZM13 16L13 17L12 17L12 20L14 20L14 19L13 19L13 17L14 17L14 16ZM17 16L17 17L18 17L18 16ZM17 18L17 20L18 20L18 19L20 19L20 18ZM0 0L0 7L7 7L7 0ZM1 1L1 6L6 6L6 1ZM2 2L2 5L5 5L5 2ZM14 0L14 7L21 7L21 0ZM15 1L15 6L20 6L20 1ZM16 2L16 5L19 5L19 2ZM0 14L0 21L7 21L7 14ZM1 15L1 20L6 20L6 15ZM2 16L2 19L5 19L5 16Z" fill="#282828"/></g></g></svg>
