<?xml version="1.0" encoding="UTF-8"?>
<svg xmlns="http://www.w3.org/2000/svg" version="1.1" width="400" height="400" viewBox="0 0 400 400"><rect x="0" y="0" width="400" height="400" fill="#ffffff"/><g transform="scale(7.843)"><g transform="translate(15,15)"><path fill-rule="evenodd" d="M8 0L8 1L9 1L9 2L11 2L11 3L10 3L10 5L9 5L9 6L8 6L8 7L9 7L9 8L8 8L8 9L7 9L7 8L4 8L4 9L3 9L3 8L2 8L2 9L1 9L1 10L2 10L2 11L1 11L1 13L2 13L2 12L3 12L3 13L7 13L7 12L8 12L8 14L9 14L9 13L10 13L10 15L8 15L8 17L9 17L9 18L8 18L8 19L9 19L9 20L10 20L10 21L12 21L12 20L11 20L11 19L10 19L10 17L9 17L9 16L11 16L11 18L15 18L15 17L16 17L16 16L18 16L18 18L20 18L20 19L21 19L21 18L20 18L20 17L21 17L21 16L20 16L20 17L19 17L19 16L18 16L18 15L19 15L19 14L18 14L18 15L16 15L16 13L19 13L19 12L18 12L18 11L20 11L20 12L21 12L21 11L20 11L20 9L21 9L21 8L20 8L20 9L19 9L19 10L18 10L18 8L17 8L17 10L16 10L16 11L17 11L17 12L16 12L16 13L15 13L15 11L14 11L14 10L15 10L15 9L14 9L14 8L12 8L12 9L9 9L9 8L11 8L11 6L10 6L10 5L11 5L11 4L13 4L13 0L12 0L12 2L11 2L11 1L9 1L9 0ZM8 3L8 4L9 4L9 3ZM12 5L12 7L13 7L13 5ZM9 6L9 7L10 7L10 6ZM2 9L2 10L3 10L3 11L4 11L4 12L7 12L7 11L8 11L8 12L10 12L10 13L11 13L11 11L12 11L12 13L14 13L14 14L15 14L15 13L14 13L14 11L13 11L13 9L12 9L12 10L11 10L11 11L10 11L10 10L9 10L9 11L8 11L8 10L7 10L7 9L4 9L4 10L3 10L3 9ZM6 10L6 11L7 11L7 10ZM20 13L20 14L21 14L21 13ZM11 14L11 16L12 16L12 17L15 17L15 15L13 15L13 14ZM12 15L12 16L13 16L13 15ZM16 18L16 19L17 19L17 18ZM13 19L13 21L15 21L15 19ZM18 19L18 21L19 21L19 19ZM16 20L16 21L17 21L17 20ZM20 20L20 21L21 21L21 20ZM0 0L0 7L7 7L7 0ZM1 1L1 6L6 6L6 1ZM2 2L2 5L5 5L5 2ZM14 0L14 7L21 7L21 0ZM15 1L15 6L20 6L20 1ZM16 2L16 5L19 5L19 2ZM0 14L0 21L7 21L7 14ZM1 15L1 20L6 20L6 15ZM2 16L2 19L5 19L5 16Z" fill="#004b96"/></g></g></svg>
