<?xml version="1.0" encoding="UTF-8"?>
<svg xmlns="http://www.w3.org/2000/svg" version="1.1" width="400" height="400" viewBox="0 0 400 400"><rect x="0" y="0" width="400" height="400" fill="#f5f5f5"/><g transform="scale(14.815)"><g transform="translate(3,3)"><path fill-rule="evenodd" d="M9 0L9 2L8 2L8 4L9 4L9 6L8 6L8 7L9 7L9 6L10 6L10 7L11 7L11 8L10 8L10 9L8 9L8 8L6 8L6 9L5 9L5 8L3 8L3 9L2 9L2 10L0 10L0 13L1 13L1 11L2 11L2 10L4 10L4 11L3 11L3 12L2 12L2 13L4 13L4 12L5 12L5 13L8 13L8 15L9 15L9 16L8 16L8 18L9 18L9 20L10 20L10 21L11 21L11 20L10 20L10 19L11 19L11 18L10 18L10 17L12 17L12 19L14 19L14 18L15 18L15 21L17 21L17 20L18 20L18 21L20 21L20 20L21 20L21 18L19 18L19 19L20 19L20 20L18 20L18 18L17 18L17 17L19 17L19 16L20 16L20 17L21 17L21 14L19 14L19 12L18 12L18 11L21 11L21 9L20 9L20 10L18 10L18 11L16 11L16 10L17 10L17 9L19 9L19 8L17 8L17 9L15 9L15 10L14 10L14 9L13 9L13 8L12 8L12 7L13 7L13 5L12 5L12 7L11 7L11 4L9 4L9 3L10 3L10 0ZM11 0L11 2L12 2L12 0ZM12 3L12 4L13 4L13 3ZM11 8L11 9L10 9L10 10L12 10L12 8ZM4 9L4 10L5 10L5 9ZM6 9L6 10L7 10L7 11L5 11L5 12L7 12L7 11L9 11L9 15L10 15L10 14L11 14L11 16L12 16L12 17L13 17L13 18L14 18L14 17L13 17L13 16L12 16L12 15L14 15L14 16L15 16L15 17L16 17L16 16L18 16L18 13L15 13L15 12L12 12L12 13L10 13L10 12L11 12L11 11L9 11L9 10L7 10L7 9ZM13 10L13 11L14 11L14 10ZM20 12L20 13L21 13L21 12ZM12 13L12 14L15 14L15 13ZM9 16L9 17L10 17L10 16ZM16 19L16 20L17 20L17 19ZM12 20L12 21L13 21L13 20ZM0 0L0 7L7 7L7 0ZM1 1L1 6L6 6L6 1ZM2 2L2 5L5 5L5 2ZM14 0L14 7L21 7L21 0ZM15 1L15 6L20 6L20 1ZM16 2L16 5L19 5L19 2ZM0 14L0 21L7 21L7 14ZM1 15L1 20L6 20L6 15ZM2 16L2 19L5 19L5 16Z" fill="#282828"/></g></g></svg>
