<?xml version="1.0" encoding="UTF-8"?>
<svg xmlns="http://www.w3.org/2000/svg" version="1.1" width="400" height="400" viewBox="0 0 400 400"><rect x="0" y="0" width="400" height="400" fill="#f5f5f5"/><g transform="scale(14.815)"><g transform="translate(3,3)"><path fill-rule="evenodd" d="M9 0L9 1L8 1L8 7L9 7L9 6L10 6L10 7L11 7L11 6L10 6L10 5L12 5L12 8L11 8L11 9L10 9L10 8L5 8L5 9L3 9L3 8L2 8L2 10L1 10L1 13L5 13L5 12L4 12L4 10L5 10L5 9L7 9L7 10L6 10L6 11L7 11L7 12L6 12L6 13L8 13L8 16L10 16L10 18L8 18L8 19L10 19L10 20L11 20L11 21L21 21L21 20L20 20L20 19L21 19L21 18L19 18L19 17L21 17L21 16L20 16L20 14L21 14L21 13L20 13L20 14L17 14L17 15L16 15L16 16L17 16L17 18L16 18L16 17L14 17L14 16L15 16L15 14L12 14L12 13L11 13L11 12L14 12L14 13L19 13L19 11L18 11L18 10L16 10L16 9L20 9L20 8L15 8L15 11L14 11L14 8L13 8L13 4L11 4L11 3L13 3L13 2L11 2L11 1L13 1L13 0L11 0L11 1L10 1L10 0ZM10 2L10 3L11 3L11 2ZM9 4L9 5L10 5L10 4ZM8 9L8 10L9 10L9 11L11 11L11 10L10 10L10 9ZM12 9L12 11L13 11L13 9ZM2 10L2 11L3 11L3 10ZM20 10L20 11L21 11L21 10ZM16 11L16 12L17 12L17 11ZM9 12L9 14L11 14L11 18L12 18L12 19L13 19L13 20L15 20L15 18L14 18L14 17L13 17L13 18L12 18L12 14L11 14L11 13L10 13L10 12ZM17 15L17 16L19 16L19 15ZM18 18L18 19L19 19L19 18ZM16 19L16 20L17 20L17 19ZM0 0L0 7L7 7L7 0ZM1 1L1 6L6 6L6 1ZM2 2L2 5L5 5L5 2ZM14 0L14 7L21 7L21 0ZM15 1L15 6L20 6L20 1ZM16 2L16 5L19 5L19 2ZM0 14L0 21L7 21L7 14ZM1 15L1 20L6 20L6 15ZM2 16L2 19L5 19L5 16Z" fill="#282828"/></g></g></svg>
