<?xml version="1.0" encoding="UTF-8"?>
<svg xmlns="http://www.w3.org/2000/svg" version="1.1" width="400" height="400" viewBox="0 0 400 400"><rect x="0" y="0" width="400" height="400" fill="#f5f5f5"/><g transform="scale(14.815)"><g transform="translate(3,3)"><path fill-rule="evenodd" d="M9 0L9 2L10 2L10 3L9 3L9 4L8 4L8 5L13 5L13 3L12 3L12 2L13 2L13 1L12 1L12 2L11 2L11 0ZM8 6L8 8L6 8L6 9L4 9L4 8L2 8L2 9L3 9L3 11L2 11L2 10L1 10L1 9L0 9L0 10L1 10L1 11L0 11L0 12L1 12L1 13L3 13L3 12L4 12L4 11L5 11L5 13L8 13L8 15L9 15L9 14L10 14L10 15L11 15L11 16L9 16L9 17L8 17L8 19L9 19L9 17L12 17L12 19L11 19L11 20L10 20L10 21L11 21L11 20L12 20L12 19L14 19L14 20L13 20L13 21L14 21L14 20L16 20L16 21L17 21L17 20L16 20L16 18L20 18L20 17L21 17L21 16L20 16L20 15L21 15L21 12L20 12L20 11L21 11L21 9L20 9L20 10L19 10L19 9L18 9L18 10L17 10L17 11L15 11L15 13L14 13L14 15L13 15L13 14L10 14L10 13L11 13L11 12L14 12L14 9L15 9L15 8L13 8L13 6L12 6L12 7L11 7L11 6L10 6L10 7L11 7L11 8L13 8L13 9L12 9L12 10L13 10L13 11L11 11L11 10L10 10L10 9L9 9L9 6ZM16 8L16 9L17 9L17 8ZM6 9L6 10L7 10L7 11L6 11L6 12L9 12L9 10L8 10L8 9ZM17 11L17 12L16 12L16 13L15 13L15 14L16 14L16 15L17 15L17 16L18 16L18 17L20 17L20 16L18 16L18 15L19 15L19 14L20 14L20 12L19 12L19 11ZM17 12L17 14L18 14L18 13L19 13L19 12ZM12 15L12 17L13 17L13 18L15 18L15 15L14 15L14 16L13 16L13 15ZM18 19L18 20L19 20L19 21L20 21L20 20L21 20L21 19ZM0 0L0 7L7 7L7 0ZM1 1L1 6L6 6L6 1ZM2 2L2 5L5 5L5 2ZM14 0L14 7L21 7L21 0ZM15 1L15 6L20 6L20 1ZM16 2L16 5L19 5L19 2ZM0 14L0 21L7 21L7 14ZM1 15L1 20L6 20L6 15ZM2 16L2 19L5 19L5 16Z" fill="#282828"/></g></g></svg>
