<?xml version="1.0" encoding="UTF-8"?>
<svg xmlns="http://www.w3.org/2000/svg" version="1.1" width="400" height="400" viewBox="0 0 400 400"><rect x="0" y="0" width="400" height="400" fill="#f5f5f5"/><g transform="scale(14.815)"><g transform="translate(3,3)"><path fill-rule="evenodd" d="M10 0L10 3L9 3L9 2L8 2L8 4L9 4L9 5L13 5L13 3L12 3L12 4L11 4L11 0ZM12 0L12 2L13 2L13 0ZM8 6L8 7L9 7L9 8L10 8L10 7L11 7L11 6L10 6L10 7L9 7L9 6ZM12 6L12 9L11 9L11 10L10 10L10 9L9 9L9 10L10 10L10 11L11 11L11 12L12 12L12 13L13 13L13 14L11 14L11 13L10 13L10 12L9 12L9 11L8 11L8 8L6 8L6 9L5 9L5 8L3 8L3 9L1 9L1 11L0 11L0 12L1 12L1 13L2 13L2 12L3 12L3 13L8 13L8 15L9 15L9 16L8 16L8 18L9 18L9 21L12 21L12 19L13 19L13 20L14 20L14 21L17 21L17 20L18 20L18 21L20 21L20 20L21 20L21 18L19 18L19 19L20 19L20 20L18 20L18 18L17 18L17 17L19 17L19 16L20 16L20 17L21 17L21 13L20 13L20 11L19 11L19 8L17 8L17 9L14 9L14 10L15 10L15 11L12 11L12 10L13 10L13 6ZM4 9L4 11L5 11L5 9ZM6 9L6 10L7 10L7 9ZM16 10L16 11L18 11L18 12L17 12L17 13L15 13L15 14L13 14L13 15L14 15L14 17L16 17L16 16L18 16L18 14L20 14L20 13L18 13L18 12L19 12L19 11L18 11L18 10ZM6 11L6 12L7 12L7 11ZM13 12L13 13L14 13L14 12ZM9 13L9 15L10 15L10 17L9 17L9 18L11 18L11 19L12 19L12 17L11 17L11 16L12 16L12 15L11 15L11 14L10 14L10 13ZM17 13L17 14L18 14L18 13ZM13 18L13 19L14 19L14 18ZM16 19L16 20L17 20L17 19ZM0 0L0 7L7 7L7 0ZM1 1L1 6L6 6L6 1ZM2 2L2 5L5 5L5 2ZM14 0L14 7L21 7L21 0ZM15 1L15 6L20 6L20 1ZM16 2L16 5L19 5L19 2ZM0 14L0 21L7 21L7 14ZM1 15L1 20L6 20L6 15ZM2 16L2 19L5 19L5 16Z" fill="#282828"/></g></g></svg>
