<?xml version="1.0" encoding="UTF-8"?>
<svg xmlns="http://www.w3.org/2000/svg" version="1.1" width="400" height="400" viewBox="0 0 400 400"><rect x="0" y="0" width="400" height="400" fill="#f5f5f5"/><g transform="scale(14.815)"><g transform="translate(3,3)"><path fill-rule="evenodd" d="M8 0L8 1L10 1L10 0ZM12 0L12 2L13 2L13 0ZM9 2L9 3L8 3L8 4L9 4L9 5L10 5L10 7L9 7L9 6L8 6L8 7L9 7L9 8L8 8L8 9L7 9L7 8L4 8L4 10L5 10L5 11L3 11L3 8L2 8L2 10L1 10L1 9L0 9L0 10L1 10L1 11L0 11L0 13L5 13L5 12L6 12L6 13L7 13L7 12L6 12L6 11L9 11L9 12L8 12L8 14L10 14L10 13L9 13L9 12L11 12L11 11L12 11L12 12L13 12L13 13L12 13L12 14L11 14L11 15L10 15L10 17L9 17L9 15L8 15L8 17L9 17L9 18L8 18L8 19L10 19L10 21L11 21L11 20L12 20L12 21L15 21L15 18L14 18L14 16L13 16L13 17L12 17L12 18L14 18L14 20L13 20L13 19L10 19L10 17L11 17L11 15L13 15L13 13L14 13L14 15L15 15L15 17L16 17L16 16L18 16L18 18L20 18L20 19L21 19L21 18L20 18L20 17L21 17L21 16L20 16L20 17L19 17L19 16L18 16L18 15L19 15L19 14L20 14L20 13L17 13L17 12L16 12L16 13L14 13L14 11L13 11L13 9L14 9L14 10L15 10L15 9L14 9L14 8L13 8L13 6L12 6L12 5L13 5L13 4L12 4L12 5L10 5L10 4L11 4L11 2ZM9 3L9 4L10 4L10 3ZM11 6L11 8L12 8L12 6ZM17 8L17 9L18 9L18 8ZM20 8L20 9L19 9L19 10L16 10L16 11L19 11L19 12L21 12L21 11L19 11L19 10L21 10L21 8ZM6 9L6 10L7 10L7 9ZM9 9L9 10L10 10L10 11L11 11L11 9ZM1 11L1 12L2 12L2 11ZM16 13L16 15L18 15L18 14L17 14L17 13ZM16 18L16 19L17 19L17 18ZM18 19L18 21L19 21L19 19ZM16 20L16 21L17 21L17 20ZM20 20L20 21L21 21L21 20ZM0 0L0 7L7 7L7 0ZM1 1L1 6L6 6L6 1ZM2 2L2 5L5 5L5 2ZM14 0L14 7L21 7L21 0ZM15 1L15 6L20 6L20 1ZM16 2L16 5L19 5L19 2ZM0 14L0 21L7 21L7 14ZM1 15L1 20L6 20L6 15ZM2 16L2 19L5 19L5 16Z" fill="#282828"/></g></g></svg>
