<?xml version="1.0" encoding="UTF-8"?>
<svg xmlns="http://www.w3.org/2000/svg" version="1.1" width="400" height="400" viewBox="0 0 400 400"><rect x="0" y="0" width="400" height="400" fill="#f5f5f5"/><g transform="scale(14.815)"><g transform="translate(3,3)"><path fill-rule="evenodd" d="M9 0L9 1L8 1L8 2L9 2L9 3L10 3L10 5L8 5L8 8L4 8L4 11L3 11L3 10L2 10L2 9L0 9L0 12L1 12L1 13L2 13L2 12L1 12L1 10L2 10L2 11L3 11L3 13L4 13L4 11L5 11L5 13L8 13L8 17L9 17L9 19L11 19L11 18L10 18L10 17L13 17L13 18L15 18L15 19L14 19L14 20L13 20L13 19L12 19L12 20L11 20L11 21L15 21L15 19L16 19L16 20L17 20L17 19L18 19L18 21L21 21L21 20L20 20L20 19L19 19L19 18L21 18L21 16L20 16L20 15L21 15L21 14L20 14L20 15L19 15L19 16L18 16L18 14L19 14L19 13L20 13L20 12L21 12L21 11L18 11L18 9L17 9L17 10L16 10L16 8L14 8L14 9L15 9L15 11L14 11L14 10L13 10L13 9L12 9L12 8L13 8L13 6L12 6L12 5L13 5L13 4L11 4L11 3L12 3L12 2L13 2L13 1L12 1L12 2L11 2L11 1L10 1L10 0ZM9 1L9 2L10 2L10 3L11 3L11 2L10 2L10 1ZM10 5L10 6L9 6L9 8L8 8L8 9L6 9L6 10L5 10L5 11L6 11L6 12L8 12L8 13L9 13L9 14L10 14L10 13L12 13L12 11L13 11L13 10L12 10L12 9L11 9L11 8L10 8L10 6L11 6L11 7L12 7L12 6L11 6L11 5ZM9 8L9 9L10 9L10 10L9 10L9 11L10 11L10 10L11 10L11 9L10 9L10 8ZM19 8L19 10L20 10L20 8ZM6 10L6 11L7 11L7 10ZM15 11L15 15L14 15L14 16L13 16L13 15L11 15L11 16L13 16L13 17L15 17L15 15L16 15L16 16L17 16L17 17L16 17L16 18L17 18L17 17L18 17L18 18L19 18L19 17L18 17L18 16L17 16L17 14L18 14L18 11L17 11L17 12L16 12L16 11ZM9 12L9 13L10 13L10 12ZM9 20L9 21L10 21L10 20ZM0 0L0 7L7 7L7 0ZM1 1L1 6L6 6L6 1ZM2 2L2 5L5 5L5 2ZM14 0L14 7L21 7L21 0ZM15 1L15 6L20 6L20 1ZM16 2L16 5L19 5L19 2ZM0 14L0 21L7 21L7 14ZM1 15L1 20L6 20L6 15ZM2 16L2 19L5 19L5 16Z" fill="#282828"/></g></g></svg>
