<?xml version="1.0" encoding="UTF-8"?>
<svg xmlns="http://www.w3.org/2000/svg" version="1.1" width="400" height="400" viewBox="0 0 400 400"><rect x="0" y="0" width="400" height="400" fill="#f5f5f5"/><g transform="scale(14.815)"><g transform="translate(3,3)"><path fill-rule="evenodd" d="M9 0L9 2L10 2L10 4L8 4L8 5L10 5L10 7L9 7L9 6L8 6L8 8L6 8L6 9L4 9L4 8L2 8L2 9L1 9L1 10L0 10L0 12L1 12L1 13L5 13L5 12L6 12L6 13L8 13L8 15L9 15L9 13L10 13L10 14L11 14L11 13L10 13L10 12L11 12L11 10L14 10L14 9L15 9L15 8L12 8L12 9L11 9L11 10L10 10L10 9L9 9L9 8L11 8L11 6L12 6L12 7L13 7L13 5L12 5L12 4L13 4L13 2L11 2L11 0ZM12 0L12 1L13 1L13 0ZM10 4L10 5L11 5L11 4ZM16 8L16 9L17 9L17 11L15 11L15 13L16 13L16 12L17 12L17 13L18 13L18 14L19 14L19 15L18 15L18 16L17 16L17 15L16 15L16 14L13 14L13 15L12 15L12 16L9 16L9 17L8 17L8 19L9 19L9 20L10 20L10 19L12 19L12 18L11 18L11 17L13 17L13 18L14 18L14 19L13 19L13 21L15 21L15 20L16 20L16 21L17 21L17 20L16 20L16 18L20 18L20 17L21 17L21 16L20 16L20 15L21 15L21 13L20 13L20 12L21 12L21 11L20 11L20 10L21 10L21 9L17 9L17 8ZM2 9L2 10L1 10L1 12L3 12L3 11L4 11L4 12L5 12L5 11L6 11L6 12L7 12L7 11L6 11L6 10L7 10L7 9L6 9L6 10L5 10L5 11L4 11L4 9ZM8 10L8 11L10 11L10 10ZM18 10L18 11L17 11L17 12L18 12L18 13L19 13L19 14L20 14L20 13L19 13L19 10ZM8 12L8 13L9 13L9 12ZM12 12L12 13L13 13L13 12ZM18 16L18 17L20 17L20 16ZM9 17L9 18L10 18L10 17ZM14 17L14 18L15 18L15 17ZM14 19L14 20L15 20L15 19ZM18 19L18 20L19 20L19 21L20 21L20 20L21 20L21 19ZM0 0L0 7L7 7L7 0ZM1 1L1 6L6 6L6 1ZM2 2L2 5L5 5L5 2ZM14 0L14 7L21 7L21 0ZM15 1L15 6L20 6L20 1ZM16 2L16 5L19 5L19 2ZM0 14L0 21L7 21L7 14ZM1 15L1 20L6 20L6 15ZM2 16L2 19L5 19L5 16Z" fill="#282828"/></g></g></svg>
