<?xml version="1.0" encoding="UTF-8"?>
<svg xmlns="http://www.w3.org/2000/svg" version="1.1" width="400" height="400" viewBox="0 0 400 400"><rect x="0" y="0" width="400" height="400" fill="#f5f5f5"/><g transform="scale(14.815)"><g transform="translate(3,3)"><path fill-rule="evenodd" d="M9 0L9 1L8 1L8 7L9 7L9 8L5 8L5 10L3 10L3 8L2 8L2 10L1 10L1 9L0 9L0 10L1 10L1 11L2 11L2 13L5 13L5 11L7 11L7 10L8 10L8 9L9 9L9 8L10 8L10 9L12 9L12 11L11 11L11 10L9 10L9 11L8 11L8 12L6 12L6 13L8 13L8 16L10 16L10 17L9 17L9 18L8 18L8 19L9 19L9 18L10 18L10 19L11 19L11 21L12 21L12 20L13 20L13 19L12 19L12 16L13 16L13 17L14 17L14 18L15 18L15 21L21 21L21 20L20 20L20 19L21 19L21 18L19 18L19 17L21 17L21 16L20 16L20 14L17 14L17 15L16 15L16 16L17 16L17 18L16 18L16 17L15 17L15 16L13 16L13 15L12 15L12 16L11 16L11 15L10 15L10 14L11 14L11 12L12 12L12 11L14 11L14 12L13 12L13 14L15 14L15 13L18 13L18 12L19 12L19 13L20 13L20 12L21 12L21 11L20 11L20 8L15 8L15 10L13 10L13 9L14 9L14 8L13 8L13 6L12 6L12 5L13 5L13 4L12 4L12 5L11 5L11 3L13 3L13 2L12 2L12 0L11 0L11 3L10 3L10 2L9 2L9 1L10 1L10 0ZM10 5L10 6L9 6L9 7L10 7L10 6L11 6L11 7L12 7L12 6L11 6L11 5ZM12 8L12 9L13 9L13 8ZM6 9L6 10L7 10L7 9ZM16 9L16 10L18 10L18 9ZM2 10L2 11L3 11L3 12L4 12L4 11L3 11L3 10ZM10 11L10 12L11 12L11 11ZM16 11L16 12L18 12L18 11ZM8 12L8 13L9 13L9 14L10 14L10 13L9 13L9 12ZM17 15L17 16L19 16L19 15ZM10 17L10 18L11 18L11 17ZM18 18L18 19L19 19L19 18ZM16 19L16 20L17 20L17 19ZM9 20L9 21L10 21L10 20ZM0 0L0 7L7 7L7 0ZM1 1L1 6L6 6L6 1ZM2 2L2 5L5 5L5 2ZM14 0L14 7L21 7L21 0ZM15 1L15 6L20 6L20 1ZM16 2L16 5L19 5L19 2ZM0 14L0 21L7 21L7 14ZM1 15L1 20L6 20L6 15ZM2 16L2 19L5 19L5 16Z" fill="#282828"/></g></g></svg>
