<?xml version="1.0" encoding="UTF-8"?>
<svg xmlns="http://www.w3.org/2000/svg" version="1.1" width="400" height="400" viewBox="0 0 400 400"><rect x="0" y="0" width="400" height="400" fill="#f5f5f5"/><g transform="scale(14.815)"><g transform="translate(3,3)"><path fill-rule="evenodd" d="M10 0L10 1L9 1L9 4L8 4L8 5L9 5L9 6L8 6L8 8L6 8L6 9L4 9L4 8L2 8L2 10L3 10L3 12L2 12L2 11L0 11L0 12L2 12L2 13L4 13L4 12L5 12L5 13L7 13L7 12L5 12L5 11L7 11L7 10L6 10L6 9L8 9L8 11L9 11L9 12L10 12L10 15L9 15L9 13L8 13L8 15L9 15L9 17L8 17L8 19L9 19L9 21L10 21L10 20L11 20L11 21L14 21L14 19L12 19L12 18L13 18L13 17L15 17L15 20L16 20L16 21L17 21L17 20L16 20L16 18L20 18L20 17L21 17L21 16L20 16L20 15L21 15L21 14L20 14L20 13L17 13L17 14L19 14L19 15L18 15L18 16L17 16L17 15L16 15L16 14L15 14L15 13L16 13L16 12L21 12L21 11L18 11L18 10L19 10L19 9L18 9L18 10L17 10L17 11L15 11L15 10L13 10L13 11L12 11L12 10L11 10L11 9L9 9L9 6L10 6L10 7L11 7L11 6L12 6L12 9L15 9L15 8L13 8L13 6L12 6L12 5L13 5L13 2L11 2L11 3L10 3L10 1L12 1L12 0ZM11 3L11 4L12 4L12 3ZM10 5L10 6L11 6L11 5ZM16 8L16 9L17 9L17 8ZM3 9L3 10L4 10L4 9ZM20 9L20 10L21 10L21 9ZM9 10L9 11L11 11L11 10ZM13 11L13 13L11 13L11 14L13 14L13 15L12 15L12 16L11 16L11 15L10 15L10 17L13 17L13 16L14 16L14 15L15 15L15 14L14 14L14 13L15 13L15 11ZM18 16L18 17L20 17L20 16ZM10 18L10 19L11 19L11 18ZM18 19L18 20L19 20L19 21L20 21L20 20L21 20L21 19ZM0 0L0 7L7 7L7 0ZM1 1L1 6L6 6L6 1ZM2 2L2 5L5 5L5 2ZM14 0L14 7L21 7L21 0ZM15 1L15 6L20 6L20 1ZM16 2L16 5L19 5L19 2ZM0 14L0 21L7 21L7 14ZM1 15L1 20L6 20L6 15ZM2 16L2 19L5 19L5 16Z" fill="#282828"/></g></g></svg>
