<?xml version="1.0" encoding="UTF-8"?>
<svg xmlns="http://www.w3.org/2000/svg" version="1.1" width="400" height="400" viewBox="0 0 400 400"><rect x="0" y="0" width="400" height="400" fill="#f5f5f5"/><g transform="scale(14.815)"><g transform="translate(3,3)"><path fill-rule="evenodd" d="M8 0L8 1L9 1L9 2L8 2L8 3L9 3L9 4L8 4L8 5L9 5L9 6L8 6L8 8L9 8L9 6L10 6L10 8L11 8L11 9L8 9L8 10L10 10L10 12L6 12L6 11L7 11L7 10L6 10L6 11L5 11L5 12L4 12L4 13L5 13L5 12L6 12L6 13L8 13L8 14L11 14L11 15L8 15L8 16L10 16L10 17L9 17L9 19L10 19L10 21L11 21L11 19L12 19L12 21L13 21L13 20L14 20L14 21L16 21L16 19L17 19L17 20L18 20L18 21L19 21L19 20L20 20L20 19L21 19L21 18L19 18L19 20L18 20L18 17L19 17L19 16L21 16L21 14L20 14L20 13L21 13L21 8L20 8L20 9L19 9L19 8L18 8L18 9L17 9L17 8L16 8L16 9L15 9L15 8L14 8L14 9L13 9L13 10L12 10L12 11L13 11L13 12L14 12L14 11L15 11L15 13L17 13L17 14L16 14L16 15L17 15L17 14L18 14L18 17L17 17L17 16L16 16L16 17L15 17L15 15L14 15L14 13L13 13L13 16L12 16L12 17L11 17L11 15L12 15L12 14L11 14L11 13L12 13L12 12L11 12L11 9L12 9L12 8L11 8L11 6L12 6L12 7L13 7L13 6L12 6L12 5L13 5L13 1L12 1L12 0L11 0L11 1L12 1L12 3L11 3L11 2L10 2L10 0ZM9 2L9 3L10 3L10 4L9 4L9 5L12 5L12 4L11 4L11 3L10 3L10 2ZM5 8L5 9L2 9L2 10L3 10L3 11L2 11L2 12L1 12L1 13L2 13L2 12L3 12L3 11L4 11L4 10L5 10L5 9L7 9L7 8ZM18 9L18 10L19 10L19 9ZM13 10L13 11L14 11L14 10ZM16 10L16 12L17 12L17 13L18 13L18 14L19 14L19 15L20 15L20 14L19 14L19 13L18 13L18 12L17 12L17 10ZM19 11L19 12L20 12L20 11ZM10 12L10 13L11 13L11 12ZM13 16L13 18L12 18L12 19L13 19L13 18L14 18L14 20L15 20L15 17L14 17L14 16ZM16 17L16 18L17 18L17 17ZM0 0L0 7L7 7L7 0ZM1 1L1 6L6 6L6 1ZM2 2L2 5L5 5L5 2ZM14 0L14 7L21 7L21 0ZM15 1L15 6L20 6L20 1ZM16 2L16 5L19 5L19 2ZM0 14L0 21L7 21L7 14ZM1 15L1 20L6 20L6 15ZM2 16L2 19L5 19L5 16Z" fill="#282828"/></g></g></svg>
