<?xml version="1.0" encoding="UTF-8"?>
<svg xmlns="http://www.w3.org/2000/svg" version="1.1" width="400" height="400" viewBox="0 0 400 400"><rect x="0" y="0" width="400" height="400" fill="#f5f5f5"/><g transform="scale(14.815)"><g transform="translate(3,3)"><path fill-rule="evenodd" d="M9 0L9 1L8 1L8 7L9 7L9 8L5 8L5 9L4 9L4 10L3 10L3 11L2 11L2 13L3 13L3 12L4 12L4 13L5 13L5 12L6 12L6 13L7 13L7 12L8 12L8 16L9 16L9 15L10 15L10 14L9 14L9 13L11 13L11 14L12 14L12 15L11 15L11 16L12 16L12 15L13 15L13 13L11 13L11 11L12 11L12 12L14 12L14 14L15 14L15 13L17 13L17 15L16 15L16 16L17 16L17 18L16 18L16 17L15 17L15 15L14 15L14 16L13 16L13 18L11 18L11 17L10 17L10 18L11 18L11 20L10 20L10 19L9 19L9 18L8 18L8 19L9 19L9 20L10 20L10 21L11 21L11 20L12 20L12 21L13 21L13 18L14 18L14 17L15 17L15 19L14 19L14 21L21 21L21 20L20 20L20 19L21 19L21 18L19 18L19 17L21 17L21 16L20 16L20 14L21 14L21 11L20 11L20 10L19 10L19 9L20 9L20 8L15 8L15 12L14 12L14 8L13 8L13 6L12 6L12 8L11 8L11 6L10 6L10 7L9 7L9 4L10 4L10 5L13 5L13 4L10 4L10 2L11 2L11 3L12 3L12 1L11 1L11 0ZM2 8L2 9L3 9L3 8ZM9 8L9 9L8 9L8 10L9 10L9 11L8 11L8 12L10 12L10 11L11 11L11 10L12 10L12 11L13 11L13 8L12 8L12 9L10 9L10 8ZM0 9L0 12L1 12L1 9ZM5 9L5 10L7 10L7 9ZM16 9L16 10L17 10L17 11L16 11L16 12L17 12L17 13L18 13L18 9ZM6 11L6 12L7 12L7 11ZM19 11L19 12L20 12L20 11ZM17 15L17 16L19 16L19 15ZM18 18L18 19L19 19L19 18ZM16 19L16 20L17 20L17 19ZM0 0L0 7L7 7L7 0ZM1 1L1 6L6 6L6 1ZM2 2L2 5L5 5L5 2ZM14 0L14 7L21 7L21 0ZM15 1L15 6L20 6L20 1ZM16 2L16 5L19 5L19 2ZM0 14L0 21L7 21L7 14ZM1 15L1 20L6 20L6 15ZM2 16L2 19L5 19L5 16Z" fill="#282828"/></g></g></svg>
