<?xml version="1.0" encoding="UTF-8"?>
<svg xmlns="http://www.w3.org/2000/svg" version="1.1" width="400" height="400" viewBox="0 0 400 400"><rect x="0" y="0" width="400" height="400" fill="#f5f5f5"/><g transform="scale(14.815)"><g transform="translate(3,3)"><path fill-rule="evenodd" d="M9 0L9 1L10 1L10 2L8 2L8 4L11 4L11 5L10 5L10 7L11 7L11 5L12 5L12 1L11 1L11 0ZM10 2L10 3L11 3L11 2ZM8 6L8 7L9 7L9 6ZM12 6L12 8L13 8L13 6ZM3 8L3 10L1 10L1 11L0 11L0 13L1 13L1 11L3 11L3 13L4 13L4 12L5 12L5 13L8 13L8 15L9 15L9 16L8 16L8 18L9 18L9 19L10 19L10 20L11 20L11 19L13 19L13 20L14 20L14 16L10 16L10 15L12 15L12 14L13 14L13 13L12 13L12 12L11 12L11 11L12 11L12 10L15 10L15 12L14 12L14 14L15 14L15 13L17 13L17 14L18 14L18 16L16 16L16 17L15 17L15 21L17 21L17 20L18 20L18 21L20 21L20 20L21 20L21 18L19 18L19 19L20 19L20 20L18 20L18 18L17 18L17 17L19 17L19 16L20 16L20 17L21 17L21 13L18 13L18 12L17 12L17 11L16 11L16 10L17 10L17 9L19 9L19 8L17 8L17 9L10 9L10 10L11 10L11 11L8 11L8 10L6 10L6 11L5 11L5 10L4 10L4 9L5 9L5 8ZM6 8L6 9L8 9L8 8ZM3 10L3 11L4 11L4 10ZM18 10L18 11L20 11L20 10ZM6 11L6 12L8 12L8 11ZM9 12L9 15L10 15L10 14L12 14L12 13L10 13L10 12ZM9 17L9 18L10 18L10 19L11 19L11 18L13 18L13 17L11 17L11 18L10 18L10 17ZM16 19L16 20L17 20L17 19ZM0 0L0 7L7 7L7 0ZM1 1L1 6L6 6L6 1ZM2 2L2 5L5 5L5 2ZM14 0L14 7L21 7L21 0ZM15 1L15 6L20 6L20 1ZM16 2L16 5L19 5L19 2ZM0 14L0 21L7 21L7 14ZM1 15L1 20L6 20L6 15ZM2 16L2 19L5 19L5 16Z" fill="#282828"/></g></g></svg>
