<?xml version="1.0" encoding="UTF-8"?>
<svg xmlns="http://www.w3.org/2000/svg" version="1.1" width="400" height="400" viewBox="0 0 400 400"><rect x="0" y="0" width="400" height="400" fill="#f5f5f5"/><g transform="scale(14.815)"><g transform="translate(3,3)"><path fill-rule="evenodd" d="M8 0L8 2L9 2L9 3L8 3L8 7L9 7L9 3L10 3L10 2L9 2L9 1L11 1L11 0ZM12 1L12 2L13 2L13 1ZM11 3L11 4L10 4L10 5L11 5L11 4L12 4L12 3ZM12 5L12 7L11 7L11 6L10 6L10 7L11 7L11 9L8 9L8 11L7 11L7 10L5 10L5 9L4 9L4 8L3 8L3 9L1 9L1 10L3 10L3 9L4 9L4 11L5 11L5 12L6 12L6 13L8 13L8 14L10 14L10 15L11 15L11 16L12 16L12 17L10 17L10 16L9 16L9 17L8 17L8 18L9 18L9 17L10 17L10 19L11 19L11 20L10 20L10 21L11 21L11 20L12 20L12 19L13 19L13 17L17 17L17 18L16 18L16 21L19 21L19 20L20 20L20 19L21 19L21 16L18 16L18 15L19 15L19 14L20 14L20 15L21 15L21 13L18 13L18 12L19 12L19 11L17 11L17 12L16 12L16 13L15 13L15 11L14 11L14 10L15 10L15 9L17 9L17 10L19 10L19 9L20 9L20 10L21 10L21 8L19 8L19 9L18 9L18 8L15 8L15 9L14 9L14 10L13 10L13 9L12 9L12 8L13 8L13 5ZM6 8L6 9L7 9L7 8ZM9 10L9 11L12 11L12 13L14 13L14 16L15 16L15 13L14 13L14 12L13 12L13 11L12 11L12 10ZM2 11L2 12L0 12L0 13L2 13L2 12L3 12L3 13L4 13L4 12L3 12L3 11ZM6 11L6 12L7 12L7 11ZM8 12L8 13L11 13L11 12ZM11 14L11 15L12 15L12 14ZM16 14L16 15L17 15L17 14ZM17 16L17 17L18 17L18 16ZM11 18L11 19L12 19L12 18ZM14 18L14 20L13 20L13 21L15 21L15 18ZM17 18L17 20L18 20L18 19L20 19L20 18ZM0 0L0 7L7 7L7 0ZM1 1L1 6L6 6L6 1ZM2 2L2 5L5 5L5 2ZM14 0L14 7L21 7L21 0ZM15 1L15 6L20 6L20 1ZM16 2L16 5L19 5L19 2ZM0 14L0 21L7 21L7 14ZM1 15L1 20L6 20L6 15ZM2 16L2 19L5 19L5 16Z" fill="#282828"/></g></g></svg>
