<?xml version="1.0" encoding="UTF-8"?>
<svg xmlns="http://www.w3.org/2000/svg" version="1.1" width="400" height="400" viewBox="0 0 400 400"><rect x="0" y="0" width="400" height="400" fill="#f5f5f5"/><g transform="scale(14.815)"><g transform="translate(3,3)"><path fill-rule="evenodd" d="M8 0L8 1L9 1L9 0ZM11 0L11 1L10 1L10 2L9 2L9 3L8 3L8 4L9 4L9 6L8 6L8 7L9 7L9 6L10 6L10 7L11 7L11 6L12 6L12 9L11 9L11 8L10 8L10 9L11 9L11 10L10 10L10 11L11 11L11 12L10 12L10 13L11 13L11 14L12 14L12 15L11 15L11 17L10 17L10 16L9 16L9 15L8 15L8 17L9 17L9 18L8 18L8 19L10 19L10 20L12 20L12 21L13 21L13 20L12 20L12 19L13 19L13 17L14 17L14 15L15 15L15 17L16 17L16 16L18 16L18 18L20 18L20 19L21 19L21 18L20 18L20 17L21 17L21 16L20 16L20 17L19 17L19 16L18 16L18 15L19 15L19 14L20 14L20 13L19 13L19 14L18 14L18 15L16 15L16 13L17 13L17 12L16 12L16 13L15 13L15 11L14 11L14 13L13 13L13 14L12 14L12 12L13 12L13 9L14 9L14 8L13 8L13 5L12 5L12 2L11 2L11 1L13 1L13 0ZM10 2L10 4L11 4L11 2ZM2 8L2 10L1 10L1 11L0 11L0 13L1 13L1 12L2 12L2 13L5 13L5 12L6 12L6 13L8 13L8 14L9 14L9 13L8 13L8 12L9 12L9 10L8 10L8 9L9 9L9 8L8 8L8 9L7 9L7 8L4 8L4 9L3 9L3 8ZM17 8L17 10L16 10L16 11L18 11L18 12L19 12L19 11L21 11L21 10L20 10L20 9L21 9L21 8L20 8L20 9L18 9L18 8ZM6 9L6 10L7 10L7 9ZM3 10L3 11L2 11L2 12L4 12L4 11L5 11L5 10ZM18 10L18 11L19 11L19 10ZM6 11L6 12L8 12L8 11ZM14 13L14 14L15 14L15 13ZM12 15L12 16L13 16L13 15ZM11 17L11 18L10 18L10 19L12 19L12 17ZM16 18L16 19L17 19L17 18ZM18 19L18 21L19 21L19 19ZM16 20L16 21L17 21L17 20ZM20 20L20 21L21 21L21 20ZM0 0L0 7L7 7L7 0ZM1 1L1 6L6 6L6 1ZM2 2L2 5L5 5L5 2ZM14 0L14 7L21 7L21 0ZM15 1L15 6L20 6L20 1ZM16 2L16 5L19 5L19 2ZM0 14L0 21L7 21L7 14ZM1 15L1 20L6 20L6 15ZM2 16L2 19L5 19L5 16Z" fill="#282828"/></g></g></svg>
