<?xml version="1.0" encoding="UTF-8"?>
<svg xmlns="http://www.w3.org/2000/svg" version="1.1" width="400" height="400" viewBox="0 0 400 400"><rect x="0" y="0" width="400" height="400" fill="#f5f5f5"/><g transform="scale(14.815)"><g transform="translate(3,3)"><path fill-rule="evenodd" d="M8 0L8 1L9 1L9 0ZM10 0L10 1L13 1L13 0ZM9 2L9 3L8 3L8 4L9 4L9 6L8 6L8 7L9 7L9 6L10 6L10 8L8 8L8 9L7 9L7 8L4 8L4 9L5 9L5 11L4 11L4 10L3 10L3 8L2 8L2 13L3 13L3 11L4 11L4 12L6 12L6 13L8 13L8 14L9 14L9 15L8 15L8 17L12 17L12 18L11 18L11 19L9 19L9 18L8 18L8 19L9 19L9 21L10 21L10 20L11 20L11 21L12 21L12 20L11 20L11 19L12 19L12 18L13 18L13 19L14 19L14 21L15 21L15 17L16 17L16 16L18 16L18 18L20 18L20 19L21 19L21 18L20 18L20 17L21 17L21 16L20 16L20 17L19 17L19 16L18 16L18 15L19 15L19 14L20 14L20 11L21 11L21 8L20 8L20 10L19 10L19 9L18 9L18 8L17 8L17 9L18 9L18 10L19 10L19 11L17 11L17 10L16 10L16 11L17 11L17 12L16 12L16 13L14 13L14 11L15 11L15 10L13 10L13 9L14 9L14 8L13 8L13 5L12 5L12 4L13 4L13 3L12 3L12 2L11 2L11 3L12 3L12 4L11 4L11 5L12 5L12 8L13 8L13 9L12 9L12 10L11 10L11 9L10 9L10 8L11 8L11 6L10 6L10 4L9 4L9 3L10 3L10 2ZM6 9L6 10L7 10L7 11L6 11L6 12L8 12L8 13L9 13L9 12L10 12L10 13L11 13L11 10L10 10L10 11L9 11L9 9L8 9L8 10L7 10L7 9ZM0 11L0 12L1 12L1 11ZM12 12L12 14L10 14L10 15L12 15L12 17L14 17L14 16L15 16L15 14L13 14L13 12ZM17 12L17 13L16 13L16 15L18 15L18 14L19 14L19 12ZM17 13L17 14L18 14L18 13ZM12 14L12 15L13 15L13 14ZM16 18L16 19L17 19L17 18ZM18 19L18 21L19 21L19 19ZM16 20L16 21L17 21L17 20ZM20 20L20 21L21 21L21 20ZM0 0L0 7L7 7L7 0ZM1 1L1 6L6 6L6 1ZM2 2L2 5L5 5L5 2ZM14 0L14 7L21 7L21 0ZM15 1L15 6L20 6L20 1ZM16 2L16 5L19 5L19 2ZM0 14L0 21L7 21L7 14ZM1 15L1 20L6 20L6 15ZM2 16L2 19L5 19L5 16Z" fill="#282828"/></g></g></svg>
