<?xml version="1.0" encoding="UTF-8"?>
<svg xmlns="http://www.w3.org/2000/svg" version="1.1" width="400" height="400" viewBox="0 0 400 400"><rect x="0" y="0" width="400" height="400" fill="#f5f5f5"/><g transform="scale(14.815)"><g transform="translate(3,3)"><path fill-rule="evenodd" d="M8 0L8 1L9 1L9 2L10 2L10 3L8 3L8 4L9 4L9 5L13 5L13 3L12 3L12 2L13 2L13 0L11 0L11 2L10 2L10 0ZM10 3L10 4L11 4L11 3ZM8 6L8 7L9 7L9 6ZM10 6L10 7L11 7L11 6ZM12 6L12 7L13 7L13 6ZM2 8L2 9L1 9L1 10L0 10L0 11L1 11L1 13L2 13L2 12L3 12L3 13L5 13L5 12L6 12L6 13L8 13L8 14L9 14L9 15L8 15L8 17L10 17L10 18L8 18L8 19L9 19L9 21L10 21L10 20L11 20L11 21L13 21L13 20L11 20L11 19L12 19L12 18L13 18L13 17L10 17L10 16L13 16L13 14L12 14L12 13L14 13L14 10L13 10L13 9L14 9L14 8L12 8L12 9L10 9L10 8L8 8L8 9L7 9L7 8L4 8L4 9L3 9L3 8ZM17 8L17 9L18 9L18 11L17 11L17 10L16 10L16 11L17 11L17 12L16 12L16 13L15 13L15 16L14 16L14 19L15 19L15 17L16 17L16 16L18 16L18 18L20 18L20 19L21 19L21 18L20 18L20 17L21 17L21 16L20 16L20 17L19 17L19 16L18 16L18 15L19 15L19 13L18 13L18 12L19 12L19 9L18 9L18 8ZM20 8L20 12L21 12L21 8ZM5 9L5 10L7 10L7 9ZM9 9L9 10L8 10L8 12L9 12L9 10L10 10L10 9ZM2 10L2 11L4 11L4 12L5 12L5 11L4 11L4 10ZM12 10L12 11L13 11L13 10ZM6 11L6 12L7 12L7 11ZM10 11L10 12L11 12L11 11ZM16 13L16 15L18 15L18 13ZM10 14L10 15L12 15L12 14ZM10 18L10 19L11 19L11 18ZM16 18L16 19L17 19L17 18ZM18 19L18 21L19 21L19 19ZM14 20L14 21L15 21L15 20ZM16 20L16 21L17 21L17 20ZM20 20L20 21L21 21L21 20ZM0 0L0 7L7 7L7 0ZM1 1L1 6L6 6L6 1ZM2 2L2 5L5 5L5 2ZM14 0L14 7L21 7L21 0ZM15 1L15 6L20 6L20 1ZM16 2L16 5L19 5L19 2ZM0 14L0 21L7 21L7 14ZM1 15L1 20L6 20L6 15ZM2 16L2 19L5 19L5 16Z" fill="#282828"/></g></g></svg>
