<?xml version="1.0" encoding="UTF-8"?>
<svg xmlns="http://www.w3.org/2000/svg" version="1.1" width="400" height="400" viewBox="0 0 400 400"><rect x="0" y="0" width="400" height="400" fill="#f5f5f5"/><g transform="scale(14.815)"><g transform="translate(3,3)"><path fill-rule="evenodd" d="M10 0L10 1L12 1L12 0ZM8 2L8 4L10 4L10 5L11 5L11 4L10 4L10 3L12 3L12 7L11 7L11 6L10 6L10 8L11 8L11 11L12 11L12 12L13 12L13 13L11 13L11 12L10 12L10 11L9 11L9 10L10 10L10 9L8 9L8 8L6 8L6 9L7 9L7 10L4 10L4 11L5 11L5 12L6 12L6 13L7 13L7 12L8 12L8 15L10 15L10 16L8 16L8 18L9 18L9 21L10 21L10 19L11 19L11 17L12 17L12 18L13 18L13 19L14 19L14 17L13 17L13 15L12 15L12 14L14 14L14 16L15 16L15 14L14 14L14 13L18 13L18 16L16 16L16 17L15 17L15 20L13 20L13 21L17 21L17 20L18 20L18 21L20 21L20 20L21 20L21 18L19 18L19 19L20 19L20 20L18 20L18 18L17 18L17 17L19 17L19 16L20 16L20 17L21 17L21 10L20 10L20 9L19 9L19 8L17 8L17 9L14 9L14 10L13 10L13 8L12 8L12 7L13 7L13 3L12 3L12 2ZM8 6L8 7L9 7L9 6ZM3 8L3 9L1 9L1 10L0 10L0 11L2 11L2 12L0 12L0 13L4 13L4 12L3 12L3 11L2 11L2 10L3 10L3 9L5 9L5 8ZM17 9L17 10L16 10L16 11L17 11L17 10L19 10L19 9ZM14 10L14 11L15 11L15 10ZM6 11L6 12L7 12L7 11ZM8 11L8 12L9 12L9 13L10 13L10 12L9 12L9 11ZM18 11L18 13L20 13L20 11ZM10 14L10 15L11 15L11 14ZM16 19L16 20L17 20L17 19ZM0 0L0 7L7 7L7 0ZM1 1L1 6L6 6L6 1ZM2 2L2 5L5 5L5 2ZM14 0L14 7L21 7L21 0ZM15 1L15 6L20 6L20 1ZM16 2L16 5L19 5L19 2ZM0 14L0 21L7 21L7 14ZM1 15L1 20L6 20L6 15ZM2 16L2 19L5 19L5 16Z" fill="#282828"/></g></g></svg>
