<?xml version="1.0" encoding="UTF-8"?>
<svg xmlns="http://www.w3.org/2000/svg" version="1.1" width="400" height="400" viewBox="0 0 400 400"><rect x="0" y="0" width="400" height="400" fill="#f5f5f5"/><g transform="scale(14.815)"><g transform="translate(3,3)"><path fill-rule="evenodd" d="M9 0L9 1L8 1L8 7L9 7L9 6L10 6L10 7L11 7L11 8L10 8L10 9L11 9L11 8L12 8L12 10L10 10L10 12L9 12L9 13L8 13L8 11L7 11L7 10L6 10L6 11L5 11L5 12L4 12L4 11L2 11L2 12L0 12L0 13L3 13L3 12L4 12L4 13L8 13L8 16L9 16L9 15L11 15L11 16L10 16L10 17L9 17L9 18L8 18L8 19L9 19L9 20L12 20L12 21L13 21L13 20L14 20L14 21L21 21L21 20L20 20L20 19L21 19L21 18L19 18L19 17L21 17L21 16L20 16L20 13L19 13L19 14L17 14L17 15L16 15L16 16L17 16L17 18L16 18L16 17L15 17L15 18L14 18L14 19L13 19L13 18L11 18L11 19L10 19L10 17L11 17L11 16L12 16L12 17L14 17L14 15L15 15L15 13L17 13L17 12L18 12L18 11L19 11L19 12L20 12L20 11L19 11L19 10L16 10L16 9L20 9L20 10L21 10L21 9L20 9L20 8L15 8L15 9L14 9L14 8L13 8L13 6L12 6L12 7L11 7L11 5L13 5L13 3L12 3L12 4L11 4L11 3L10 3L10 4L9 4L9 2L10 2L10 1L11 1L11 2L13 2L13 1L11 1L11 0ZM10 4L10 5L11 5L11 4ZM2 8L2 9L1 9L1 10L0 10L0 11L1 11L1 10L5 10L5 9L8 9L8 10L9 10L9 8L5 8L5 9L3 9L3 8ZM13 9L13 10L12 10L12 11L11 11L11 13L10 13L10 14L11 14L11 13L12 13L12 14L14 14L14 13L15 13L15 10L14 10L14 9ZM13 10L13 12L12 12L12 13L13 13L13 12L14 12L14 10ZM6 11L6 12L7 12L7 11ZM16 11L16 12L17 12L17 11ZM17 15L17 16L19 16L19 15ZM18 18L18 19L19 19L19 18ZM14 19L14 20L15 20L15 19ZM16 19L16 20L17 20L17 19ZM0 0L0 7L7 7L7 0ZM1 1L1 6L6 6L6 1ZM2 2L2 5L5 5L5 2ZM14 0L14 7L21 7L21 0ZM15 1L15 6L20 6L20 1ZM16 2L16 5L19 5L19 2ZM0 14L0 21L7 21L7 14ZM1 15L1 20L6 20L6 15ZM2 16L2 19L5 19L5 16Z" fill="#282828"/></g></g></svg>
