<?xml version="1.0" encoding="UTF-8"?>
<svg xmlns="http://www.w3.org/2000/svg" version="1.1" width="400" height="400" viewBox="0 0 400 400"><rect x="0" y="0" width="400" height="400" fill="#f5f5f5"/><g transform="scale(14.815)"><g transform="translate(3,3)"><path fill-rule="evenodd" d="M9 0L9 1L8 1L8 7L9 7L9 8L5 8L5 9L4 9L4 10L2 10L2 9L3 9L3 8L2 8L2 9L0 9L0 10L1 10L1 11L4 11L4 12L5 12L5 11L10 11L10 12L9 12L9 13L8 13L8 12L6 12L6 13L8 13L8 16L9 16L9 18L8 18L8 19L9 19L9 20L10 20L10 19L11 19L11 20L12 20L12 21L13 21L13 17L11 17L11 16L14 16L14 17L15 17L15 18L14 18L14 20L15 20L15 21L21 21L21 20L20 20L20 19L21 19L21 18L19 18L19 17L21 17L21 16L20 16L20 14L21 14L21 13L20 13L20 14L19 14L19 12L20 12L20 11L21 11L21 10L20 10L20 11L19 11L19 10L18 10L18 9L20 9L20 8L15 8L15 9L14 9L14 8L13 8L13 9L14 9L14 10L15 10L15 11L14 11L14 12L15 12L15 13L14 13L14 15L13 15L13 14L10 14L10 12L11 12L11 10L9 10L9 9L10 9L10 8L12 8L12 7L13 7L13 5L12 5L12 3L13 3L13 1L12 1L12 2L10 2L10 4L9 4L9 1L11 1L11 0ZM10 4L10 5L11 5L11 4ZM9 6L9 7L10 7L10 6ZM11 6L11 7L12 7L12 6ZM6 9L6 10L8 10L8 9ZM16 9L16 10L17 10L17 11L16 11L16 12L17 12L17 13L15 13L15 17L16 17L16 18L17 18L17 16L19 16L19 15L17 15L17 13L18 13L18 12L19 12L19 11L18 11L18 10L17 10L17 9ZM0 12L0 13L3 13L3 12ZM16 15L16 16L17 16L17 15ZM10 17L10 18L11 18L11 19L12 19L12 18L11 18L11 17ZM18 18L18 19L19 19L19 18ZM16 19L16 20L17 20L17 19ZM0 0L0 7L7 7L7 0ZM1 1L1 6L6 6L6 1ZM2 2L2 5L5 5L5 2ZM14 0L14 7L21 7L21 0ZM15 1L15 6L20 6L20 1ZM16 2L16 5L19 5L19 2ZM0 14L0 21L7 21L7 14ZM1 15L1 20L6 20L6 15ZM2 16L2 19L5 19L5 16Z" fill="#282828"/></g></g></svg>
