<?xml version="1.0" encoding="UTF-8"?>
<svg xmlns="http://www.w3.org/2000/svg" version="1.1" width="400" height="400" viewBox="0 0 400 400"><rect x="0" y="0" width="400" height="400" fill="#f5f5f5"/><g transform="scale(14.815)"><g transform="translate(3,3)"><path fill-rule="evenodd" d="M8 0L8 1L9 1L9 0ZM10 0L10 1L11 1L11 0ZM8 2L8 3L9 3L9 4L8 4L8 5L10 5L10 7L9 7L9 6L8 6L8 8L9 8L9 9L7 9L7 8L5 8L5 9L3 9L3 10L1 10L1 11L0 11L0 13L1 13L1 11L3 11L3 10L6 10L6 11L7 11L7 12L3 12L3 13L8 13L8 14L9 14L9 15L8 15L8 16L9 16L9 17L10 17L10 18L9 18L9 19L10 19L10 20L9 20L9 21L10 21L10 20L11 20L11 21L16 21L16 19L17 19L17 20L18 20L18 21L19 21L19 20L20 20L20 19L21 19L21 18L19 18L19 20L18 20L18 17L19 17L19 16L21 16L21 8L20 8L20 10L19 10L19 8L18 8L18 10L19 10L19 11L18 11L18 13L17 13L17 12L16 12L16 10L17 10L17 8L16 8L16 9L15 9L15 8L14 8L14 9L15 9L15 10L14 10L14 11L15 11L15 12L14 12L14 14L12 14L12 15L14 15L14 16L15 16L15 13L17 13L17 14L16 14L16 15L17 15L17 14L18 14L18 17L17 17L17 16L16 16L16 17L13 17L13 18L12 18L12 17L11 17L11 15L10 15L10 14L11 14L11 13L13 13L13 12L11 12L11 11L10 11L10 12L9 12L9 9L12 9L12 11L13 11L13 9L12 9L12 8L11 8L11 5L10 5L10 3L11 3L11 4L12 4L12 7L13 7L13 4L12 4L12 3L11 3L11 2ZM6 9L6 10L7 10L7 9ZM8 12L8 13L9 13L9 12ZM19 12L19 13L18 13L18 14L19 14L19 15L20 15L20 12ZM9 15L9 16L10 16L10 15ZM16 17L16 18L17 18L17 17ZM10 18L10 19L11 19L11 18ZM13 19L13 20L14 20L14 19ZM0 0L0 7L7 7L7 0ZM1 1L1 6L6 6L6 1ZM2 2L2 5L5 5L5 2ZM14 0L14 7L21 7L21 0ZM15 1L15 6L20 6L20 1ZM16 2L16 5L19 5L19 2ZM0 14L0 21L7 21L7 14ZM1 15L1 20L6 20L6 15ZM2 16L2 19L5 19L5 16Z" fill="#282828"/></g></g></svg>
