<?xml version="1.0" encoding="UTF-8"?>
<svg xmlns="http://www.w3.org/2000/svg" version="1.1" width="400" height="400" viewBox="0 0 400 400"><rect x="0" y="0" width="400" height="400" fill="#f5f5f5"/><g transform="scale(14.815)"><g transform="translate(3,3)"><path fill-rule="evenodd" d="M8 0L8 1L10 1L10 0ZM11 0L11 3L10 3L10 4L11 4L11 3L12 3L12 1L13 1L13 0ZM8 2L8 3L9 3L9 2ZM8 4L8 5L9 5L9 6L8 6L8 8L12 8L12 7L13 7L13 4L12 4L12 5L11 5L11 6L10 6L10 5L9 5L9 4ZM9 6L9 7L10 7L10 6ZM11 6L11 7L12 7L12 6ZM5 8L5 9L0 9L0 11L1 11L1 12L0 12L0 13L1 13L1 12L4 12L4 13L5 13L5 10L6 10L6 11L7 11L7 12L6 12L6 13L7 13L7 12L8 12L8 11L9 11L9 9L8 9L8 11L7 11L7 10L6 10L6 9L7 9L7 8ZM14 8L14 10L13 10L13 11L11 11L11 9L10 9L10 12L11 12L11 13L8 13L8 14L10 14L10 15L11 15L11 14L12 14L12 12L15 12L15 13L13 13L13 14L15 14L15 13L17 13L17 14L16 14L16 15L17 15L17 14L18 14L18 17L17 17L17 16L16 16L16 17L13 17L13 18L12 18L12 17L10 17L10 16L9 16L9 15L8 15L8 16L9 16L9 17L10 17L10 18L9 18L9 20L10 20L10 21L12 21L12 19L14 19L14 20L13 20L13 21L16 21L16 19L17 19L17 20L18 20L18 21L19 21L19 20L20 20L20 19L21 19L21 18L19 18L19 20L18 20L18 17L19 17L19 16L21 16L21 10L18 10L18 9L19 9L19 8L18 8L18 9L17 9L17 8L16 8L16 9L15 9L15 8ZM20 8L20 9L21 9L21 8ZM2 10L2 11L3 11L3 10ZM14 10L14 11L15 11L15 10ZM16 10L16 12L17 12L17 11L18 11L18 12L19 12L19 13L18 13L18 14L19 14L19 15L20 15L20 14L19 14L19 13L20 13L20 12L19 12L19 11L18 11L18 10ZM12 15L12 16L14 16L14 15ZM16 17L16 18L17 18L17 17ZM10 18L10 20L11 20L11 19L12 19L12 18ZM14 18L14 19L15 19L15 18ZM0 0L0 7L7 7L7 0ZM1 1L1 6L6 6L6 1ZM2 2L2 5L5 5L5 2ZM14 0L14 7L21 7L21 0ZM15 1L15 6L20 6L20 1ZM16 2L16 5L19 5L19 2ZM0 14L0 21L7 21L7 14ZM1 15L1 20L6 20L6 15ZM2 16L2 19L5 19L5 16Z" fill="#282828"/></g></g></svg>
