<?xml version="1.0" encoding="UTF-8"?>
<svg xmlns="http://www.w3.org/2000/svg" version="1.1" width="400" height="400" viewBox="0 0 400 400"><rect x="0" y="0" width="400" height="400" fill="#f5f5f5"/><g transform="scale(14.815)"><g transform="translate(3,3)"><path fill-rule="evenodd" d="M8 0L8 1L9 1L9 2L8 2L8 3L9 3L9 4L8 4L8 5L9 5L9 6L8 6L8 8L9 8L9 9L7 9L7 8L5 8L5 9L3 9L3 10L2 10L2 9L0 9L0 11L2 11L2 13L3 13L3 12L4 12L4 13L5 13L5 12L6 12L6 13L7 13L7 12L8 12L8 14L9 14L9 12L10 12L10 11L9 11L9 9L10 9L10 8L13 8L13 5L12 5L12 7L11 7L11 3L12 3L12 4L13 4L13 3L12 3L12 2L13 2L13 0L12 0L12 1L11 1L11 0L10 0L10 1L9 1L9 0ZM10 1L10 2L11 2L11 1ZM9 4L9 5L10 5L10 4ZM9 6L9 7L10 7L10 6ZM14 8L14 9L13 9L13 10L12 10L12 11L13 11L13 12L11 12L11 14L12 14L12 15L10 15L10 17L9 17L9 21L10 21L10 17L12 17L12 15L13 15L13 18L11 18L11 19L12 19L12 20L13 20L13 19L14 19L14 21L16 21L16 19L17 19L17 20L18 20L18 21L19 21L19 20L20 20L20 19L21 19L21 18L19 18L19 20L18 20L18 17L19 17L19 16L21 16L21 13L19 13L19 14L18 14L18 11L20 11L20 12L21 12L21 11L20 11L20 9L21 9L21 8L20 8L20 9L19 9L19 8L18 8L18 10L17 10L17 8L16 8L16 9L15 9L15 8ZM6 9L6 10L5 10L5 11L6 11L6 12L7 12L7 11L6 11L6 10L7 10L7 9ZM14 9L14 10L13 10L13 11L14 11L14 12L15 12L15 9ZM3 10L3 11L4 11L4 10ZM16 10L16 12L17 12L17 10ZM8 11L8 12L9 12L9 11ZM0 12L0 13L1 13L1 12ZM12 13L12 14L13 14L13 13ZM15 13L15 14L14 14L14 15L15 15L15 17L14 17L14 18L15 18L15 17L16 17L16 18L17 18L17 17L18 17L18 14L17 14L17 13ZM16 14L16 15L17 15L17 14ZM19 14L19 15L20 15L20 14ZM8 15L8 16L9 16L9 15ZM16 16L16 17L17 17L17 16ZM0 0L0 7L7 7L7 0ZM1 1L1 6L6 6L6 1ZM2 2L2 5L5 5L5 2ZM14 0L14 7L21 7L21 0ZM15 1L15 6L20 6L20 1ZM16 2L16 5L19 5L19 2ZM0 14L0 21L7 21L7 14ZM1 15L1 20L6 20L6 15ZM2 16L2 19L5 19L5 16Z" fill="#282828"/></g></g></svg>
