<?xml version="1.0" encoding="UTF-8"?>
<svg xmlns="http://www.w3.org/2000/svg" version="1.1" width="400" height="400" viewBox="0 0 400 400"><rect x="0" y="0" width="400" height="400" fill="#f5f5f5"/><g transform="scale(14.815)"><g transform="translate(3,3)"><path fill-rule="evenodd" d="M8 0L8 3L9 3L9 5L8 5L8 9L7 9L7 8L6 8L6 9L7 9L7 10L5 10L5 8L2 8L2 9L3 9L3 10L5 10L5 11L7 11L7 12L6 12L6 13L8 13L8 14L10 14L10 15L9 15L9 16L8 16L8 19L10 19L10 18L12 18L12 20L13 20L13 21L14 21L14 20L15 20L15 21L16 21L16 20L15 20L15 19L16 19L16 18L14 18L14 20L13 20L13 17L14 17L14 16L16 16L16 17L17 17L17 18L18 18L18 17L19 17L19 16L20 16L20 15L21 15L21 13L20 13L20 15L19 15L19 13L18 13L18 12L19 12L19 11L17 11L17 14L16 14L16 12L15 12L15 11L16 11L16 10L15 10L15 9L16 9L16 8L13 8L13 9L12 9L12 7L13 7L13 6L12 6L12 7L11 7L11 6L10 6L10 8L9 8L9 5L10 5L10 3L11 3L11 2L10 2L10 3L9 3L9 1L12 1L12 2L13 2L13 0ZM12 3L12 4L11 4L11 5L13 5L13 3ZM18 8L18 9L17 9L17 10L18 10L18 9L19 9L19 10L20 10L20 9L21 9L21 8ZM0 9L0 11L2 11L2 13L5 13L5 12L4 12L4 11L2 11L2 10L1 10L1 9ZM8 9L8 11L9 11L9 13L10 13L10 14L15 14L15 15L16 15L16 14L15 14L15 12L13 12L13 13L11 13L11 11L12 11L12 9L11 9L11 10L10 10L10 9ZM13 9L13 11L15 11L15 10L14 10L14 9ZM9 10L9 11L10 11L10 10ZM20 11L20 12L21 12L21 11ZM0 12L0 13L1 13L1 12ZM17 14L17 17L18 17L18 14ZM10 15L10 17L9 17L9 18L10 18L10 17L11 17L11 16L12 16L12 15ZM17 19L17 20L18 20L18 21L19 21L19 20L20 20L20 19L19 19L19 20L18 20L18 19ZM9 20L9 21L10 21L10 20ZM0 0L0 7L7 7L7 0ZM1 1L1 6L6 6L6 1ZM2 2L2 5L5 5L5 2ZM14 0L14 7L21 7L21 0ZM15 1L15 6L20 6L20 1ZM16 2L16 5L19 5L19 2ZM0 14L0 21L7 21L7 14ZM1 15L1 20L6 20L6 15ZM2 16L2 19L5 19L5 16Z" fill="#282828"/></g></g></svg>
