<?xml version="1.0" encoding="UTF-8"?>
<svg xmlns="http://www.w3.org/2000/svg" version="1.1" width="400" height="400" viewBox="0 0 400 400"><rect x="0" y="0" width="400" height="400" fill="#f5f5f5"/><g transform="scale(14.815)"><g transform="translate(3,3)"><path fill-rule="evenodd" d="M8 0L8 2L9 2L9 3L8 3L8 7L9 7L9 10L8 10L8 9L7 9L7 8L6 8L6 9L7 9L7 10L5 10L5 9L4 9L4 8L3 8L3 9L1 9L1 11L2 11L2 13L3 13L3 12L4 12L4 13L5 13L5 12L4 12L4 11L7 11L7 12L6 12L6 13L7 13L7 12L8 12L8 14L9 14L9 12L8 12L8 11L10 11L10 13L11 13L11 14L10 14L10 15L9 15L9 17L8 17L8 18L9 18L9 19L11 19L11 20L12 20L12 19L15 19L15 17L17 17L17 18L16 18L16 21L19 21L19 20L20 20L20 19L21 19L21 16L18 16L18 15L19 15L19 14L18 14L18 13L17 13L17 12L19 12L19 13L20 13L20 12L21 12L21 11L20 11L20 10L21 10L21 8L19 8L19 9L20 9L20 10L18 10L18 8L15 8L15 9L17 9L17 10L18 10L18 11L17 11L17 12L16 12L16 13L15 13L15 10L14 10L14 11L13 11L13 10L11 10L11 9L13 9L13 8L12 8L12 7L13 7L13 6L12 6L12 7L11 7L11 6L10 6L10 5L9 5L9 4L10 4L10 2L11 2L11 1L12 1L12 2L13 2L13 1L12 1L12 0L11 0L11 1L10 1L10 2L9 2L9 0ZM11 3L11 5L13 5L13 4L12 4L12 3ZM9 6L9 7L10 7L10 6ZM3 9L3 11L4 11L4 9ZM7 10L7 11L8 11L8 10ZM10 10L10 11L11 11L11 12L12 12L12 13L13 13L13 14L12 14L12 15L11 15L11 16L10 16L10 17L9 17L9 18L10 18L10 17L11 17L11 18L13 18L13 17L14 17L14 16L15 16L15 15L14 15L14 14L15 14L15 13L13 13L13 12L12 12L12 11L11 11L11 10ZM19 11L19 12L20 12L20 11ZM0 12L0 13L1 13L1 12ZM16 14L16 15L17 15L17 14ZM20 14L20 15L21 15L21 14ZM12 15L12 16L11 16L11 17L13 17L13 16L14 16L14 15ZM17 16L17 17L18 17L18 16ZM17 18L17 20L18 20L18 19L20 19L20 18ZM13 20L13 21L14 21L14 20ZM0 0L0 7L7 7L7 0ZM1 1L1 6L6 6L6 1ZM2 2L2 5L5 5L5 2ZM14 0L14 7L21 7L21 0ZM15 1L15 6L20 6L20 1ZM16 2L16 5L19 5L19 2ZM0 14L0 21L7 21L7 14ZM1 15L1 20L6 20L6 15ZM2 16L2 19L5 19L5 16Z" fill="#282828"/></g></g></svg>
