<?xml version="1.0" encoding="UTF-8"?>
<svg xmlns="http://www.w3.org/2000/svg" version="1.1" width="400" height="400" viewBox="0 0 400 400"><rect x="0" y="0" width="400" height="400" fill="#f5f5f5"/><g transform="scale(14.815)"><g transform="translate(3,3)"><path fill-rule="evenodd" d="M10 0L10 1L8 1L8 7L9 7L9 6L10 6L10 8L5 8L5 10L6 10L6 11L7 11L7 12L6 12L6 13L7 13L7 12L8 12L8 16L9 16L9 12L8 12L8 11L10 11L10 12L11 12L11 13L10 13L10 17L9 17L9 18L8 18L8 19L9 19L9 20L10 20L10 19L9 19L9 18L10 18L10 17L11 17L11 16L12 16L12 17L13 17L13 18L15 18L15 21L21 21L21 20L20 20L20 19L21 19L21 18L19 18L19 17L21 17L21 16L20 16L20 14L21 14L21 13L20 13L20 12L21 12L21 11L20 11L20 10L21 10L21 9L20 9L20 8L15 8L15 9L14 9L14 8L13 8L13 9L12 9L12 7L13 7L13 4L12 4L12 3L13 3L13 2L11 2L11 1L13 1L13 0ZM9 2L9 5L10 5L10 6L11 6L11 7L12 7L12 6L11 6L11 5L12 5L12 4L11 4L11 2ZM10 4L10 5L11 5L11 4ZM2 8L2 11L1 11L1 9L0 9L0 11L1 11L1 13L4 13L4 9L3 9L3 8ZM10 8L10 9L6 9L6 10L7 10L7 11L8 11L8 10L10 10L10 11L11 11L11 12L14 12L14 11L15 11L15 10L14 10L14 11L12 11L12 9L11 9L11 8ZM16 9L16 10L17 10L17 11L16 11L16 12L18 12L18 11L19 11L19 10L20 10L20 9L19 9L19 10L18 10L18 9ZM2 11L2 12L3 12L3 11ZM11 13L11 14L12 14L12 16L13 16L13 17L14 17L14 16L15 16L15 17L16 17L16 18L17 18L17 16L19 16L19 15L17 15L17 13L15 13L15 15L14 15L14 14L12 14L12 13ZM19 13L19 14L20 14L20 13ZM13 15L13 16L14 16L14 15ZM16 15L16 16L17 16L17 15ZM11 18L11 19L12 19L12 18ZM18 18L18 19L19 19L19 18ZM16 19L16 20L17 20L17 19ZM13 20L13 21L14 21L14 20ZM0 0L0 7L7 7L7 0ZM1 1L1 6L6 6L6 1ZM2 2L2 5L5 5L5 2ZM14 0L14 7L21 7L21 0ZM15 1L15 6L20 6L20 1ZM16 2L16 5L19 5L19 2ZM0 14L0 21L7 21L7 14ZM1 15L1 20L6 20L6 15ZM2 16L2 19L5 19L5 16Z" fill="#004b96"/></g></g></svg>
