<?xml version="1.0" encoding="UTF-8"?>
<svg xmlns="http://www.w3.org/2000/svg" version="1.1" width="400" height="400" viewBox="0 0 400 400"><rect x="0" y="0" width="400" height="400" fill="#f5f5f5"/><g transform="scale(14.815)"><g transform="translate(3,3)"><path fill-rule="evenodd" d="M9 0L9 1L8 1L8 7L9 7L9 1L10 1L10 5L11 5L11 4L12 4L12 5L13 5L13 4L12 4L12 3L13 3L13 1L12 1L12 0ZM11 1L11 2L12 2L12 1ZM10 6L10 7L11 7L11 6ZM12 6L12 7L13 7L13 6ZM2 8L2 9L3 9L3 8ZM5 8L5 9L4 9L4 11L3 11L3 10L2 10L2 11L3 11L3 12L1 12L1 13L5 13L5 9L8 9L8 11L9 11L9 10L10 10L10 13L9 13L9 12L6 12L6 13L8 13L8 16L9 16L9 18L8 18L8 19L9 19L9 20L10 20L10 21L13 21L13 19L12 19L12 20L10 20L10 19L9 19L9 18L10 18L10 16L11 16L11 15L12 15L12 16L13 16L13 17L11 17L11 18L13 18L13 17L14 17L14 18L15 18L15 19L14 19L14 20L15 20L15 21L21 21L21 20L20 20L20 19L21 19L21 18L19 18L19 17L21 17L21 16L20 16L20 14L21 14L21 13L20 13L20 14L19 14L19 13L18 13L18 12L16 12L16 11L17 11L17 10L16 10L16 9L19 9L19 10L18 10L18 11L19 11L19 12L20 12L20 11L21 11L21 10L20 10L20 8L15 8L15 11L14 11L14 12L13 12L13 10L14 10L14 8L12 8L12 11L11 11L11 10L10 10L10 9L11 9L11 8L10 8L10 9L9 9L9 8ZM0 9L0 10L1 10L1 9ZM6 10L6 11L7 11L7 10ZM11 12L11 13L10 13L10 14L9 14L9 16L10 16L10 15L11 15L11 14L13 14L13 16L15 16L15 17L16 17L16 18L17 18L17 16L19 16L19 15L17 15L17 14L18 14L18 13L15 13L15 14L14 14L14 13L13 13L13 12ZM16 15L16 16L17 16L17 15ZM18 18L18 19L19 19L19 18ZM16 19L16 20L17 20L17 19ZM0 0L0 7L7 7L7 0ZM1 1L1 6L6 6L6 1ZM2 2L2 5L5 5L5 2ZM14 0L14 7L21 7L21 0ZM15 1L15 6L20 6L20 1ZM16 2L16 5L19 5L19 2ZM0 14L0 21L7 21L7 14ZM1 15L1 20L6 20L6 15ZM2 16L2 19L5 19L5 16Z" fill="#282828"/></g></g></svg>
