<?xml version="1.0" encoding="UTF-8"?>
<svg xmlns="http://www.w3.org/2000/svg" version="1.1" width="400" height="400" viewBox="0 0 400 400"><rect x="0" y="0" width="400" height="400" fill="#f5f5f5"/><g transform="scale(14.815)"><g transform="translate(3,3)"><path fill-rule="evenodd" d="M8 0L8 2L10 2L10 3L8 3L8 7L9 7L9 9L11 9L11 10L12 10L12 11L13 11L13 12L15 12L15 11L14 11L14 9L13 9L13 6L12 6L12 9L11 9L11 6L10 6L10 5L11 5L11 4L12 4L12 5L13 5L13 2L12 2L12 1L13 1L13 0L11 0L11 2L10 2L10 1L9 1L9 0ZM10 3L10 4L11 4L11 3ZM9 6L9 7L10 7L10 6ZM3 8L3 10L2 10L2 12L3 12L3 11L7 11L7 12L6 12L6 13L7 13L7 12L8 12L8 11L7 11L7 10L5 10L5 9L4 9L4 8ZM6 8L6 9L7 9L7 8ZM15 8L15 9L18 9L18 8ZM19 8L19 10L18 10L18 11L17 11L17 12L16 12L16 13L14 13L14 14L13 14L13 13L12 13L12 14L13 14L13 15L12 15L12 17L10 17L10 16L11 16L11 14L9 14L9 13L8 13L8 14L9 14L9 15L10 15L10 16L9 16L9 17L8 17L8 18L9 18L9 19L11 19L11 21L12 21L12 20L13 20L13 21L14 21L14 20L15 20L15 19L14 19L14 18L15 18L15 17L17 17L17 18L16 18L16 21L19 21L19 20L20 20L20 19L21 19L21 16L18 16L18 15L19 15L19 14L20 14L20 15L21 15L21 13L20 13L20 12L21 12L21 11L19 11L19 10L21 10L21 8ZM0 9L0 11L1 11L1 9ZM12 9L12 10L13 10L13 9ZM9 10L9 11L10 11L10 12L11 12L11 11L10 11L10 10ZM18 11L18 14L19 14L19 11ZM14 14L14 15L13 15L13 17L12 17L12 18L11 18L11 19L13 19L13 20L14 20L14 19L13 19L13 17L15 17L15 16L14 16L14 15L15 15L15 14ZM16 14L16 15L17 15L17 14ZM17 16L17 17L18 17L18 16ZM9 17L9 18L10 18L10 17ZM17 18L17 20L18 20L18 19L20 19L20 18ZM0 0L0 7L7 7L7 0ZM1 1L1 6L6 6L6 1ZM2 2L2 5L5 5L5 2ZM14 0L14 7L21 7L21 0ZM15 1L15 6L20 6L20 1ZM16 2L16 5L19 5L19 2ZM0 14L0 21L7 21L7 14ZM1 15L1 20L6 20L6 15ZM2 16L2 19L5 19L5 16Z" fill="#282828"/></g></g></svg>
