<?xml version="1.0" encoding="UTF-8"?>
<svg xmlns="http://www.w3.org/2000/svg" version="1.1" width="400" height="400" viewBox="0 0 400 400"><rect x="0" y="0" width="400" height="400" fill="#f5f5f5"/><g transform="scale(14.815)"><g transform="translate(3,3)"><path fill-rule="evenodd" d="M8 0L8 1L9 1L9 3L8 3L8 4L9 4L9 6L8 6L8 7L9 7L9 8L8 8L8 9L7 9L7 8L4 8L4 9L7 9L7 10L5 10L5 11L4 11L4 10L3 10L3 11L4 11L4 12L3 12L3 13L4 13L4 12L5 12L5 11L7 11L7 10L8 10L8 11L11 11L11 10L9 10L9 9L14 9L14 11L15 11L15 9L14 9L14 8L13 8L13 0L12 0L12 2L10 2L10 1L11 1L11 0L10 0L10 1L9 1L9 0ZM11 3L11 5L10 5L10 6L9 6L9 7L10 7L10 8L11 8L11 7L12 7L12 6L11 6L11 5L12 5L12 3ZM10 6L10 7L11 7L11 6ZM2 8L2 9L3 9L3 8ZM17 8L17 10L16 10L16 11L20 11L20 10L21 10L21 8L20 8L20 9L18 9L18 8ZM0 10L0 11L2 11L2 10ZM12 10L12 11L13 11L13 10ZM0 12L0 13L1 13L1 12ZM6 12L6 13L8 13L8 14L9 14L9 15L8 15L8 17L9 17L9 18L8 18L8 19L9 19L9 18L10 18L10 17L11 17L11 16L12 16L12 17L13 17L13 18L14 18L14 17L16 17L16 16L18 16L18 18L20 18L20 19L21 19L21 18L20 18L20 17L21 17L21 16L20 16L20 17L19 17L19 16L18 16L18 15L19 15L19 14L18 14L18 15L16 15L16 13L17 13L17 12L16 12L16 13L15 13L15 16L14 16L14 15L13 15L13 16L12 16L12 15L11 15L11 14L9 14L9 13L8 13L8 12ZM12 12L12 14L14 14L14 13L13 13L13 12ZM20 12L20 14L21 14L21 12ZM9 15L9 17L10 17L10 15ZM13 16L13 17L14 17L14 16ZM11 18L11 19L10 19L10 21L12 21L12 20L13 20L13 19L12 19L12 18ZM16 18L16 19L17 19L17 18ZM14 19L14 20L15 20L15 19ZM18 19L18 21L19 21L19 19ZM16 20L16 21L17 21L17 20ZM20 20L20 21L21 21L21 20ZM0 0L0 7L7 7L7 0ZM1 1L1 6L6 6L6 1ZM2 2L2 5L5 5L5 2ZM14 0L14 7L21 7L21 0ZM15 1L15 6L20 6L20 1ZM16 2L16 5L19 5L19 2ZM0 14L0 21L7 21L7 14ZM1 15L1 20L6 20L6 15ZM2 16L2 19L5 19L5 16Z" fill="#282828"/></g></g></svg>
