<?xml version="1.0" encoding="UTF-8"?>
<svg xmlns="http://www.w3.org/2000/svg" version="1.1" width="400" height="400" viewBox="0 0 400 400"><rect x="0" y="0" width="400" height="400" fill="#f5f5f5"/><g transform="scale(14.815)"><g transform="translate(3,3)"><path fill-rule="evenodd" d="M9 0L9 1L10 1L10 3L11 3L11 4L10 4L10 5L9 5L9 6L8 6L8 7L9 7L9 6L10 6L10 7L11 7L11 9L10 9L10 8L9 8L9 9L8 9L8 8L6 8L6 9L7 9L7 10L6 10L6 11L9 11L9 12L11 12L11 13L8 13L8 15L10 15L10 16L11 16L11 17L12 17L12 18L10 18L10 20L11 20L11 21L12 21L12 20L13 20L13 17L14 17L14 18L15 18L15 21L17 21L17 20L18 20L18 21L20 21L20 20L21 20L21 18L19 18L19 19L20 19L20 20L18 20L18 18L17 18L17 17L19 17L19 16L20 16L20 17L21 17L21 14L20 14L20 12L19 12L19 10L21 10L21 9L19 9L19 8L17 8L17 9L15 9L15 11L13 11L13 10L14 10L14 9L13 9L13 4L12 4L12 3L11 3L11 1L12 1L12 2L13 2L13 1L12 1L12 0L11 0L11 1L10 1L10 0ZM8 2L8 4L9 4L9 2ZM11 6L11 7L12 7L12 6ZM3 8L3 10L2 10L2 9L1 9L1 11L0 11L0 13L3 13L3 12L4 12L4 13L7 13L7 12L4 12L4 10L5 10L5 8ZM9 9L9 10L10 10L10 9ZM11 9L11 12L12 12L12 9ZM17 9L17 10L16 10L16 11L18 11L18 9ZM1 11L1 12L3 12L3 11ZM13 12L13 13L12 13L12 14L10 14L10 15L12 15L12 16L13 16L13 14L14 14L14 17L16 17L16 16L18 16L18 14L19 14L19 13L18 13L18 12L17 12L17 13L15 13L15 12ZM17 13L17 14L18 14L18 13ZM8 16L8 18L9 18L9 16ZM11 19L11 20L12 20L12 19ZM16 19L16 20L17 20L17 19ZM0 0L0 7L7 7L7 0ZM1 1L1 6L6 6L6 1ZM2 2L2 5L5 5L5 2ZM14 0L14 7L21 7L21 0ZM15 1L15 6L20 6L20 1ZM16 2L16 5L19 5L19 2ZM0 14L0 21L7 21L7 14ZM1 15L1 20L6 20L6 15ZM2 16L2 19L5 19L5 16Z" fill="#282828"/></g></g></svg>
