<?xml version="1.0" encoding="UTF-8"?>
<svg xmlns="http://www.w3.org/2000/svg" version="1.1" width="400" height="400" viewBox="0 0 400 400"><rect x="0" y="0" width="400" height="400" fill="#f5f5f5"/><g transform="scale(14.815)"><g transform="translate(3,3)"><path fill-rule="evenodd" d="M9 0L9 1L12 1L12 2L11 2L11 4L9 4L9 2L8 2L8 4L9 4L9 6L8 6L8 7L9 7L9 6L10 6L10 9L9 9L9 11L7 11L7 10L5 10L5 8L3 8L3 9L0 9L0 12L1 12L1 13L2 13L2 12L1 12L1 10L3 10L3 9L4 9L4 10L5 10L5 11L3 11L3 12L6 12L6 13L8 13L8 15L9 15L9 14L10 14L10 16L8 16L8 18L9 18L9 21L10 21L10 20L11 20L11 19L13 19L13 20L14 20L14 17L15 17L15 21L17 21L17 20L18 20L18 21L20 21L20 20L21 20L21 18L19 18L19 19L20 19L20 20L18 20L18 18L17 18L17 17L19 17L19 16L20 16L20 17L21 17L21 14L20 14L20 13L19 13L19 14L18 14L18 13L17 13L17 12L19 12L19 11L21 11L21 9L20 9L20 10L19 10L19 11L16 11L16 10L18 10L18 9L19 9L19 8L17 8L17 9L14 9L14 10L11 10L11 6L10 6L10 5L12 5L12 2L13 2L13 0ZM12 6L12 7L13 7L13 6ZM6 8L6 9L8 9L8 8ZM10 10L10 12L8 12L8 13L10 13L10 14L11 14L11 13L13 13L13 14L14 14L14 15L15 15L15 17L16 17L16 16L18 16L18 14L17 14L17 13L15 13L15 14L14 14L14 13L13 13L13 12L14 12L14 11L13 11L13 12L11 12L11 10ZM6 11L6 12L7 12L7 11ZM11 15L11 16L10 16L10 19L11 19L11 18L13 18L13 17L14 17L14 16L13 16L13 15ZM12 16L12 17L13 17L13 16ZM16 19L16 20L17 20L17 19ZM0 0L0 7L7 7L7 0ZM1 1L1 6L6 6L6 1ZM2 2L2 5L5 5L5 2ZM14 0L14 7L21 7L21 0ZM15 1L15 6L20 6L20 1ZM16 2L16 5L19 5L19 2ZM0 14L0 21L7 21L7 14ZM1 15L1 20L6 20L6 15ZM2 16L2 19L5 19L5 16Z" fill="#282828"/></g></g></svg>
