<?xml version="1.0" encoding="UTF-8"?>
<svg xmlns="http://www.w3.org/2000/svg" version="1.1" width="400" height="400" viewBox="0 0 400 400"><rect x="0" y="0" width="400" height="400" fill="#f5f5f5"/><g transform="scale(14.815)"><g transform="translate(3,3)"><path fill-rule="evenodd" d="M8 0L8 1L9 1L9 2L8 2L8 3L9 3L9 4L8 4L8 5L10 5L10 7L9 7L9 6L8 6L8 8L9 8L9 9L10 9L10 11L11 11L11 12L10 12L10 13L11 13L11 12L13 12L13 15L12 15L12 14L11 14L11 16L12 16L12 17L13 17L13 18L11 18L11 17L10 17L10 16L9 16L9 15L8 15L8 16L9 16L9 18L10 18L10 20L9 20L9 21L14 21L14 18L15 18L15 21L16 21L16 19L17 19L17 20L18 20L18 21L19 21L19 20L20 20L20 19L21 19L21 18L19 18L19 20L18 20L18 17L19 17L19 16L21 16L21 13L19 13L19 12L20 12L20 11L21 11L21 8L20 8L20 9L19 9L19 8L18 8L18 10L17 10L17 8L16 8L16 9L15 9L15 8L14 8L14 9L13 9L13 8L12 8L12 9L13 9L13 11L12 11L12 10L11 10L11 5L13 5L13 4L12 4L12 3L13 3L13 2L11 2L11 5L10 5L10 1L13 1L13 0L10 0L10 1L9 1L9 0ZM12 6L12 7L13 7L13 6ZM5 8L5 9L4 9L4 10L5 10L5 9L7 9L7 8ZM0 9L0 11L3 11L3 12L4 12L4 13L5 13L5 12L6 12L6 13L7 13L7 12L8 12L8 14L9 14L9 11L7 11L7 10L6 10L6 11L5 11L5 12L4 12L4 11L3 11L3 10L2 10L2 9ZM14 10L14 11L13 11L13 12L14 12L14 11L15 11L15 10ZM16 10L16 12L17 12L17 13L15 13L15 15L14 15L14 16L15 16L15 17L16 17L16 18L17 18L17 17L18 17L18 14L17 14L17 13L18 13L18 12L19 12L19 11L20 11L20 10L18 10L18 12L17 12L17 10ZM6 11L6 12L7 12L7 11ZM1 12L1 13L2 13L2 12ZM16 14L16 15L17 15L17 14ZM19 14L19 15L20 15L20 14ZM16 16L16 17L17 17L17 16ZM11 19L11 20L13 20L13 19ZM0 0L0 7L7 7L7 0ZM1 1L1 6L6 6L6 1ZM2 2L2 5L5 5L5 2ZM14 0L14 7L21 7L21 0ZM15 1L15 6L20 6L20 1ZM16 2L16 5L19 5L19 2ZM0 14L0 21L7 21L7 14ZM1 15L1 20L6 20L6 15ZM2 16L2 19L5 19L5 16Z" fill="#282828"/></g></g></svg>
