<?xml version="1.0" encoding="UTF-8"?>
<svg xmlns="http://www.w3.org/2000/svg" version="1.1" width="400" height="400" viewBox="0 0 400 400"><rect x="0" y="0" width="400" height="400" fill="#f5f5f5"/><g transform="scale(14.815)"><g transform="translate(3,3)"><path fill-rule="evenodd" d="M9 0L9 1L10 1L10 2L12 2L12 3L10 3L10 4L8 4L8 5L11 5L11 6L10 6L10 7L9 7L9 6L8 6L8 8L6 8L6 9L4 9L4 8L2 8L2 9L4 9L4 12L3 12L3 10L1 10L1 11L2 11L2 13L8 13L8 15L9 15L9 17L8 17L8 19L9 19L9 20L10 20L10 21L11 21L11 20L12 20L12 21L13 21L13 20L14 20L14 21L15 21L15 20L16 20L16 21L17 21L17 20L16 20L16 18L20 18L20 17L21 17L21 16L20 16L20 15L21 15L21 12L19 12L19 13L20 13L20 14L19 14L19 15L18 15L18 16L17 16L17 15L16 15L16 14L13 14L13 13L16 13L16 12L18 12L18 11L21 11L21 10L20 10L20 9L18 9L18 10L17 10L17 11L13 11L13 9L14 9L14 10L15 10L15 8L13 8L13 9L11 9L11 8L12 8L12 7L13 7L13 6L12 6L12 5L13 5L13 2L12 2L12 0L11 0L11 1L10 1L10 0ZM11 4L11 5L12 5L12 4ZM11 6L11 7L12 7L12 6ZM16 8L16 9L17 9L17 8ZM6 9L6 10L5 10L5 11L6 11L6 12L8 12L8 13L10 13L10 12L11 12L11 9L9 9L9 11L10 11L10 12L8 12L8 11L6 11L6 10L7 10L7 9ZM0 12L0 13L1 13L1 12ZM11 13L11 14L12 14L12 15L10 15L10 20L11 20L11 19L12 19L12 18L13 18L13 19L15 19L15 18L14 18L14 17L15 17L15 15L14 15L14 16L13 16L13 14L12 14L12 13ZM17 13L17 14L18 14L18 13ZM11 16L11 18L12 18L12 17L13 17L13 16ZM18 16L18 17L20 17L20 16ZM18 19L18 20L19 20L19 21L20 21L20 20L21 20L21 19ZM0 0L0 7L7 7L7 0ZM1 1L1 6L6 6L6 1ZM2 2L2 5L5 5L5 2ZM14 0L14 7L21 7L21 0ZM15 1L15 6L20 6L20 1ZM16 2L16 5L19 5L19 2ZM0 14L0 21L7 21L7 14ZM1 15L1 20L6 20L6 15ZM2 16L2 19L5 19L5 16Z" fill="#282828"/></g></g></svg>
