<?xml version="1.0" encoding="UTF-8"?>
<svg xmlns="http://www.w3.org/2000/svg" version="1.1" width="400" height="400" viewBox="0 0 400 400"><rect x="0" y="0" width="400" height="400" fill="#f5f5f5"/><g transform="scale(14.815)"><g transform="translate(3,3)"><path fill-rule="evenodd" d="M8 0L8 1L10 1L10 2L8 2L8 3L11 3L11 1L10 1L10 0ZM12 0L12 1L13 1L13 0ZM12 2L12 5L11 5L11 4L8 4L8 5L9 5L9 6L8 6L8 8L9 8L9 6L10 6L10 7L11 7L11 6L12 6L12 7L13 7L13 6L12 6L12 5L13 5L13 2ZM5 8L5 10L4 10L4 9L1 9L1 10L0 10L0 11L1 11L1 10L2 10L2 11L3 11L3 10L4 10L4 12L3 12L3 13L7 13L7 12L5 12L5 10L6 10L6 11L7 11L7 10L8 10L8 9L7 9L7 8ZM11 8L11 10L10 10L10 11L9 11L9 13L8 13L8 14L9 14L9 15L8 15L8 16L9 16L9 21L10 21L10 20L11 20L11 19L12 19L12 21L13 21L13 20L15 20L15 21L16 21L16 19L17 19L17 20L18 20L18 21L19 21L19 20L20 20L20 19L21 19L21 18L19 18L19 20L18 20L18 17L19 17L19 16L21 16L21 12L20 12L20 11L21 11L21 8L20 8L20 9L19 9L19 8L18 8L18 10L17 10L17 8L16 8L16 9L15 9L15 8L14 8L14 9L12 9L12 8ZM6 9L6 10L7 10L7 9ZM14 9L14 10L15 10L15 9ZM12 10L12 11L11 11L11 12L10 12L10 14L11 14L11 13L12 13L12 14L14 14L14 12L12 12L12 11L13 11L13 10ZM16 10L16 12L18 12L18 13L15 13L15 17L16 17L16 18L17 18L17 17L18 17L18 14L19 14L19 15L20 15L20 12L18 12L18 11L20 11L20 10L18 10L18 11L17 11L17 10ZM1 12L1 13L2 13L2 12ZM16 14L16 15L17 15L17 14ZM10 15L10 16L11 16L11 17L10 17L10 19L11 19L11 17L12 17L12 18L14 18L14 17L12 17L12 16L13 16L13 15L12 15L12 16L11 16L11 15ZM16 16L16 17L17 17L17 16ZM0 0L0 7L7 7L7 0ZM1 1L1 6L6 6L6 1ZM2 2L2 5L5 5L5 2ZM14 0L14 7L21 7L21 0ZM15 1L15 6L20 6L20 1ZM16 2L16 5L19 5L19 2ZM0 14L0 21L7 21L7 14ZM1 15L1 20L6 20L6 15ZM2 16L2 19L5 19L5 16Z" fill="#282828"/></g></g></svg>
