<?xml version="1.0" encoding="UTF-8"?>
<svg xmlns="http://www.w3.org/2000/svg" version="1.1" width="400" height="400" viewBox="0 0 400 400"><rect x="0" y="0" width="400" height="400" fill="#f5f5f5"/><g transform="scale(14.815)"><g transform="translate(3,3)"><path fill-rule="evenodd" d="M9 0L9 1L11 1L11 2L10 2L10 3L9 3L9 4L8 4L8 5L9 5L9 6L8 6L8 8L6 8L6 9L9 9L9 11L10 11L10 12L11 12L11 11L15 11L15 12L12 12L12 13L11 13L11 14L9 14L9 13L8 13L8 15L11 15L11 17L10 17L10 16L9 16L9 17L8 17L8 19L9 19L9 20L10 20L10 21L11 21L11 19L13 19L13 20L12 20L12 21L15 21L15 20L16 20L16 21L17 21L17 20L16 20L16 18L20 18L20 17L21 17L21 16L20 16L20 15L21 15L21 14L19 14L19 15L18 15L18 16L17 16L17 15L16 15L16 14L15 14L15 15L13 15L13 16L12 16L12 13L13 13L13 14L14 14L14 13L16 13L16 12L17 12L17 14L18 14L18 12L17 12L17 11L19 11L19 12L21 12L21 9L19 9L19 10L17 10L17 11L15 11L15 8L12 8L12 7L13 7L13 2L12 2L12 1L11 1L11 0ZM10 3L10 6L9 6L9 7L10 7L10 6L11 6L11 7L12 7L12 5L11 5L11 4L12 4L12 3ZM2 8L2 9L0 9L0 12L1 12L1 13L2 13L2 12L4 12L4 13L7 13L7 12L8 12L8 10L6 10L6 11L7 11L7 12L4 12L4 11L5 11L5 9L4 9L4 8ZM10 8L10 11L11 11L11 9L12 9L12 8ZM16 8L16 9L17 9L17 8ZM1 10L1 12L2 12L2 10ZM3 10L3 11L4 11L4 10ZM13 16L13 17L11 17L11 18L10 18L10 19L11 19L11 18L14 18L14 16ZM18 16L18 17L20 17L20 16ZM18 19L18 20L19 20L19 21L20 21L20 20L21 20L21 19ZM0 0L0 7L7 7L7 0ZM1 1L1 6L6 6L6 1ZM2 2L2 5L5 5L5 2ZM14 0L14 7L21 7L21 0ZM15 1L15 6L20 6L20 1ZM16 2L16 5L19 5L19 2ZM0 14L0 21L7 21L7 14ZM1 15L1 20L6 20L6 15ZM2 16L2 19L5 19L5 16Z" fill="#282828"/></g></g></svg>
