<?xml version="1.0" encoding="UTF-8"?>
<svg xmlns="http://www.w3.org/2000/svg" version="1.1" width="400" height="400" viewBox="0 0 400 400"><rect x="0" y="0" width="400" height="400" fill="#f5f5f5"/><g transform="scale(14.815)"><g transform="translate(3,3)"><path fill-rule="evenodd" d="M9 0L9 2L10 2L10 3L9 3L9 4L8 4L8 5L9 5L9 6L8 6L8 8L6 8L6 9L7 9L7 10L6 10L6 11L7 11L7 12L5 12L5 13L8 13L8 15L10 15L10 16L9 16L9 17L8 17L8 19L9 19L9 20L10 20L10 21L12 21L12 20L11 20L11 18L12 18L12 19L14 19L14 18L12 18L12 17L10 17L10 16L14 16L14 17L15 17L15 20L13 20L13 21L15 21L15 20L16 20L16 21L17 21L17 20L16 20L16 18L20 18L20 17L21 17L21 16L20 16L20 15L21 15L21 12L20 12L20 11L19 11L19 10L20 10L20 9L19 9L19 10L18 10L18 9L17 9L17 8L16 8L16 9L17 9L17 11L14 11L14 14L15 14L15 16L14 16L14 15L13 15L13 14L10 14L10 13L9 13L9 12L8 12L8 10L9 10L9 11L11 11L11 13L12 13L12 11L13 11L13 10L14 10L14 9L15 9L15 8L13 8L13 6L12 6L12 8L13 8L13 10L11 10L11 5L13 5L13 4L11 4L11 5L9 5L9 4L10 4L10 3L12 3L12 2L13 2L13 1L12 1L12 2L10 2L10 1L11 1L11 0ZM9 6L9 7L10 7L10 6ZM2 8L2 9L3 9L3 10L2 10L2 12L1 12L1 13L2 13L2 12L3 12L3 13L4 13L4 12L3 12L3 11L5 11L5 9L4 9L4 8ZM9 8L9 9L10 9L10 8ZM0 9L0 10L1 10L1 9ZM18 11L18 12L16 12L16 13L15 13L15 14L16 14L16 15L17 15L17 16L18 16L18 17L20 17L20 16L18 16L18 15L19 15L19 14L18 14L18 12L19 12L19 11ZM9 18L9 19L10 19L10 18ZM18 19L18 20L19 20L19 21L20 21L20 20L21 20L21 19ZM0 0L0 7L7 7L7 0ZM1 1L1 6L6 6L6 1ZM2 2L2 5L5 5L5 2ZM14 0L14 7L21 7L21 0ZM15 1L15 6L20 6L20 1ZM16 2L16 5L19 5L19 2ZM0 14L0 21L7 21L7 14ZM1 15L1 20L6 20L6 15ZM2 16L2 19L5 19L5 16Z" fill="#282828"/></g></g></svg>
