<?xml version="1.0" encoding="UTF-8"?>
<svg xmlns="http://www.w3.org/2000/svg" version="1.1" width="400" height="400" viewBox="0 0 400 400"><rect x="0" y="0" width="400" height="400" fill="#f5f5f5"/><g transform="scale(14.815)"><g transform="translate(3,3)"><path fill-rule="evenodd" d="M8 0L8 3L9 3L9 4L10 4L10 5L8 5L8 12L6 12L6 11L7 11L7 10L2 10L2 9L5 9L5 8L2 8L2 9L1 9L1 11L2 11L2 12L1 12L1 13L2 13L2 12L4 12L4 13L8 13L8 14L9 14L9 13L10 13L10 15L9 15L9 16L8 16L8 19L9 19L9 16L10 16L10 17L11 17L11 16L13 16L13 15L14 15L14 16L16 16L16 17L17 17L17 18L18 18L18 17L19 17L19 16L20 16L20 15L21 15L21 12L19 12L19 13L20 13L20 15L19 15L19 14L18 14L18 17L17 17L17 14L16 14L16 12L15 12L15 11L16 11L16 10L15 10L15 9L16 9L16 8L12 8L12 7L13 7L13 6L12 6L12 7L11 7L11 6L10 6L10 5L13 5L13 0L12 0L12 2L9 2L9 1L11 1L11 0ZM10 3L10 4L11 4L11 3ZM9 6L9 8L10 8L10 6ZM6 8L6 9L7 9L7 8ZM11 8L11 10L12 10L12 11L9 11L9 12L8 12L8 13L9 13L9 12L10 12L10 13L13 13L13 10L12 10L12 8ZM18 8L18 9L17 9L17 10L18 10L18 11L21 11L21 10L20 10L20 9L21 9L21 8ZM9 9L9 10L10 10L10 9ZM18 9L18 10L19 10L19 9ZM14 10L14 11L15 11L15 10ZM17 12L17 13L18 13L18 12ZM14 13L14 15L16 15L16 14L15 14L15 13ZM11 14L11 15L10 15L10 16L11 16L11 15L13 15L13 14ZM13 17L13 19L12 19L12 21L13 21L13 20L14 20L14 21L16 21L16 20L14 20L14 17ZM10 18L10 20L9 20L9 21L11 21L11 18ZM15 18L15 19L16 19L16 18ZM17 19L17 20L18 20L18 21L19 21L19 20L20 20L20 19L19 19L19 20L18 20L18 19ZM0 0L0 7L7 7L7 0ZM1 1L1 6L6 6L6 1ZM2 2L2 5L5 5L5 2ZM14 0L14 7L21 7L21 0ZM15 1L15 6L20 6L20 1ZM16 2L16 5L19 5L19 2ZM0 14L0 21L7 21L7 14ZM1 15L1 20L6 20L6 15ZM2 16L2 19L5 19L5 16Z" fill="#282828"/></g></g></svg>
