<?xml version="1.0" encoding="UTF-8"?>
<svg xmlns="http://www.w3.org/2000/svg" version="1.1" width="400" height="400" viewBox="0 0 400 400"><rect x="0" y="0" width="400" height="400" fill="#f5f5f5"/><g transform="scale(14.815)"><g transform="translate(3,3)"><path fill-rule="evenodd" d="M9 0L9 2L8 2L8 4L9 4L9 3L10 3L10 5L11 5L11 4L13 4L13 3L11 3L11 1L12 1L12 0L11 0L11 1L10 1L10 0ZM8 6L8 7L9 7L9 6ZM10 6L10 7L11 7L11 6ZM12 6L12 7L13 7L13 6ZM3 8L3 9L5 9L5 10L6 10L6 11L4 11L4 12L3 12L3 11L2 11L2 12L3 12L3 13L4 13L4 12L6 12L6 13L8 13L8 15L9 15L9 16L8 16L8 18L9 18L9 16L10 16L10 15L11 15L11 14L12 14L12 15L13 15L13 14L14 14L14 16L15 16L15 13L17 13L17 14L18 14L18 16L16 16L16 17L14 17L14 18L15 18L15 19L14 19L14 20L13 20L13 19L12 19L12 18L13 18L13 16L11 16L11 18L10 18L10 19L9 19L9 21L10 21L10 20L11 20L11 21L12 21L12 20L13 20L13 21L17 21L17 20L18 20L18 21L20 21L20 20L21 20L21 18L19 18L19 19L20 19L20 20L18 20L18 18L17 18L17 17L19 17L19 16L20 16L20 17L21 17L21 14L20 14L20 12L21 12L21 10L20 10L20 9L19 9L19 8L17 8L17 9L14 9L14 10L12 10L12 9L11 9L11 8L10 8L10 9L11 9L11 10L10 10L10 12L9 12L9 11L8 11L8 12L6 12L6 11L7 11L7 10L6 10L6 9L8 9L8 10L9 10L9 9L8 9L8 8L6 8L6 9L5 9L5 8ZM0 9L0 13L1 13L1 10L2 10L2 9ZM17 9L17 10L16 10L16 11L17 11L17 12L18 12L18 14L19 14L19 10L18 10L18 9ZM14 10L14 11L15 11L15 10ZM17 10L17 11L18 11L18 10ZM11 11L11 12L10 12L10 13L9 13L9 12L8 12L8 13L9 13L9 14L11 14L11 12L13 12L13 11ZM14 12L14 13L15 13L15 12ZM12 13L12 14L13 14L13 13ZM16 19L16 20L17 20L17 19ZM0 0L0 7L7 7L7 0ZM1 1L1 6L6 6L6 1ZM2 2L2 5L5 5L5 2ZM14 0L14 7L21 7L21 0ZM15 1L15 6L20 6L20 1ZM16 2L16 5L19 5L19 2ZM0 14L0 21L7 21L7 14ZM1 15L1 20L6 20L6 15ZM2 16L2 19L5 19L5 16Z" fill="#282828"/></g></g></svg>
