<?xml version="1.0" encoding="UTF-8"?>
<svg xmlns="http://www.w3.org/2000/svg" version="1.1" width="400" height="400" viewBox="0 0 400 400"><rect x="0" y="0" width="400" height="400" fill="#f5f5f5"/><g transform="scale(14.815)"><g transform="translate(3,3)"><path fill-rule="evenodd" d="M9 0L9 1L8 1L8 2L9 2L9 3L10 3L10 4L9 4L9 5L8 5L8 8L4 8L4 9L3 9L3 10L2 10L2 9L1 9L1 10L2 10L2 12L1 12L1 11L0 11L0 12L1 12L1 13L5 13L5 11L7 11L7 12L6 12L6 13L7 13L7 12L8 12L8 17L10 17L10 19L9 19L9 21L11 21L11 20L10 20L10 19L11 19L11 18L12 18L12 19L16 19L16 20L17 20L17 19L18 19L18 21L21 21L21 20L20 20L20 19L19 19L19 18L21 18L21 16L20 16L20 15L21 15L21 14L20 14L20 12L21 12L21 11L20 11L20 10L19 10L19 9L20 9L20 8L19 8L19 9L18 9L18 10L16 10L16 8L14 8L14 11L16 11L16 12L17 12L17 16L16 16L16 15L13 15L13 14L12 14L12 15L11 15L11 16L9 16L9 15L10 15L10 14L9 14L9 12L10 12L10 13L11 13L11 12L12 12L12 13L13 13L13 9L12 9L12 10L9 10L9 9L10 9L10 8L12 8L12 7L13 7L13 3L12 3L12 1L13 1L13 0L12 0L12 1L11 1L11 0ZM10 1L10 3L11 3L11 4L10 4L10 5L9 5L9 8L8 8L8 9L9 9L9 8L10 8L10 6L11 6L11 7L12 7L12 3L11 3L11 1ZM4 9L4 10L3 10L3 12L4 12L4 10L5 10L5 9ZM6 9L6 10L7 10L7 9ZM18 10L18 11L19 11L19 12L20 12L20 11L19 11L19 10ZM8 11L8 12L9 12L9 11ZM10 11L10 12L11 12L11 11ZM18 13L18 16L17 16L17 17L16 17L16 18L17 18L17 17L18 17L18 18L19 18L19 17L18 17L18 16L19 16L19 15L20 15L20 14L19 14L19 13ZM12 15L12 16L13 16L13 15ZM12 17L12 18L15 18L15 17ZM12 20L12 21L13 21L13 20ZM0 0L0 7L7 7L7 0ZM1 1L1 6L6 6L6 1ZM2 2L2 5L5 5L5 2ZM14 0L14 7L21 7L21 0ZM15 1L15 6L20 6L20 1ZM16 2L16 5L19 5L19 2ZM0 14L0 21L7 21L7 14ZM1 15L1 20L6 20L6 15ZM2 16L2 19L5 19L5 16Z" fill="#282828"/></g></g></svg>
