<?xml version="1.0" encoding="UTF-8"?>
<svg xmlns="http://www.w3.org/2000/svg" version="1.1" width="400" height="400" viewBox="0 0 400 400"><rect x="0" y="0" width="400" height="400" fill="#f5f5f5"/><g transform="scale(14.815)"><g transform="translate(3,3)"><path fill-rule="evenodd" d="M8 0L8 1L9 1L9 2L8 2L8 3L10 3L10 4L8 4L8 5L9 5L9 6L8 6L8 8L9 8L9 9L7 9L7 8L5 8L5 9L7 9L7 10L6 10L6 11L4 11L4 10L3 10L3 9L2 9L2 10L1 10L1 9L0 9L0 10L1 10L1 11L2 11L2 12L1 12L1 13L3 13L3 12L4 12L4 13L8 13L8 14L9 14L9 13L10 13L10 16L9 16L9 15L8 15L8 16L9 16L9 19L11 19L11 20L10 20L10 21L11 21L11 20L12 20L12 21L16 21L16 19L17 19L17 20L18 20L18 21L19 21L19 20L20 20L20 19L21 19L21 18L19 18L19 20L18 20L18 17L19 17L19 16L21 16L21 12L20 12L20 11L21 11L21 8L20 8L20 9L19 9L19 8L18 8L18 9L19 9L19 10L20 10L20 11L19 11L19 14L18 14L18 17L17 17L17 16L16 16L16 17L15 17L15 19L14 19L14 17L13 17L13 16L12 16L12 17L13 17L13 18L12 18L12 19L11 19L11 15L12 15L12 14L14 14L14 13L18 13L18 10L17 10L17 8L16 8L16 9L15 9L15 8L14 8L14 9L15 9L15 12L14 12L14 13L13 13L13 12L12 12L12 11L13 11L13 10L12 10L12 9L13 9L13 8L11 8L11 6L12 6L12 7L13 7L13 6L12 6L12 5L13 5L13 2L12 2L12 1L11 1L11 0L10 0L10 1L9 1L9 0ZM10 1L10 2L11 2L11 1ZM11 4L11 5L10 5L10 6L9 6L9 7L10 7L10 6L11 6L11 5L12 5L12 4ZM10 9L10 13L11 13L11 11L12 11L12 10L11 10L11 9ZM2 10L2 11L3 11L3 10ZM7 10L7 11L6 11L6 12L9 12L9 10ZM16 10L16 12L17 12L17 10ZM16 14L16 15L17 15L17 14ZM19 14L19 15L20 15L20 14ZM14 15L14 16L15 16L15 15ZM16 17L16 18L17 18L17 17ZM0 0L0 7L7 7L7 0ZM1 1L1 6L6 6L6 1ZM2 2L2 5L5 5L5 2ZM14 0L14 7L21 7L21 0ZM15 1L15 6L20 6L20 1ZM16 2L16 5L19 5L19 2ZM0 14L0 21L7 21L7 14ZM1 15L1 20L6 20L6 15ZM2 16L2 19L5 19L5 16Z" fill="#282828"/></g></g></svg>
