<?xml version="1.0" encoding="UTF-8"?>
<svg xmlns="http://www.w3.org/2000/svg" version="1.1" width="400" height="400" viewBox="0 0 400 400"><rect x="0" y="0" width="400" height="400" fill="#f5f5f5"/><g transform="scale(14.815)"><g transform="translate(3,3)"><path fill-rule="evenodd" d="M8 0L8 1L9 1L9 0ZM11 0L11 1L10 1L10 4L11 4L11 3L12 3L12 5L10 5L10 7L9 7L9 6L8 6L8 8L10 8L10 7L11 7L11 8L12 8L12 7L13 7L13 2L12 2L12 1L13 1L13 0ZM8 2L8 3L9 3L9 2ZM8 4L8 5L9 5L9 4ZM11 6L11 7L12 7L12 6ZM5 8L5 12L3 12L3 13L5 13L5 12L6 12L6 13L8 13L8 14L9 14L9 15L8 15L8 16L10 16L10 17L9 17L9 21L10 21L10 17L11 17L11 16L12 16L12 17L13 17L13 19L14 19L14 18L15 18L15 20L12 20L12 21L16 21L16 19L17 19L17 20L18 20L18 21L19 21L19 20L20 20L20 19L21 19L21 18L19 18L19 20L18 20L18 17L19 17L19 16L21 16L21 13L20 13L20 15L19 15L19 14L18 14L18 17L17 17L17 16L16 16L16 17L15 17L15 13L18 13L18 12L20 12L20 11L18 11L18 10L20 10L20 9L21 9L21 8L20 8L20 9L19 9L19 8L18 8L18 10L17 10L17 8L16 8L16 9L15 9L15 8L14 8L14 9L15 9L15 11L13 11L13 10L12 10L12 9L10 9L10 10L12 10L12 11L13 11L13 12L12 12L12 13L10 13L10 12L11 12L11 11L8 11L8 10L9 10L9 9L8 9L8 10L6 10L6 9L7 9L7 8ZM0 9L0 10L1 10L1 11L3 11L3 10L4 10L4 9L2 9L2 10L1 10L1 9ZM16 10L16 12L17 12L17 10ZM6 11L6 12L7 12L7 11ZM0 12L0 13L2 13L2 12ZM8 12L8 13L9 13L9 12ZM14 12L14 13L15 13L15 12ZM10 14L10 15L12 15L12 14ZM13 14L13 15L14 15L14 14ZM16 14L16 15L17 15L17 14ZM13 16L13 17L14 17L14 16ZM16 17L16 18L17 18L17 17ZM0 0L0 7L7 7L7 0ZM1 1L1 6L6 6L6 1ZM2 2L2 5L5 5L5 2ZM14 0L14 7L21 7L21 0ZM15 1L15 6L20 6L20 1ZM16 2L16 5L19 5L19 2ZM0 14L0 21L7 21L7 14ZM1 15L1 20L6 20L6 15ZM2 16L2 19L5 19L5 16Z" fill="#282828"/></g></g></svg>
