<?xml version="1.0" encoding="UTF-8"?>
<svg xmlns="http://www.w3.org/2000/svg" version="1.1" width="400" height="400" viewBox="0 0 400 400"><rect x="0" y="0" width="400" height="400" fill="#f5f5f5"/><g transform="scale(14.815)"><g transform="translate(3,3)"><path fill-rule="evenodd" d="M8 0L8 3L9 3L9 4L10 4L10 5L8 5L8 9L7 9L7 8L6 8L6 9L7 9L7 10L6 10L6 11L2 11L2 9L5 9L5 8L2 8L2 9L1 9L1 10L0 10L0 11L2 11L2 12L0 12L0 13L2 13L2 12L3 12L3 13L5 13L5 12L6 12L6 13L7 13L7 12L8 12L8 14L9 14L9 11L7 11L7 10L9 10L9 8L10 8L10 7L11 7L11 8L13 8L13 10L12 10L12 9L10 9L10 15L9 15L9 16L8 16L8 19L9 19L9 20L10 20L10 21L11 21L11 20L12 20L12 21L16 21L16 20L13 20L13 18L14 18L14 17L15 17L15 16L16 16L16 17L17 17L17 18L18 18L18 17L19 17L19 16L20 16L20 15L21 15L21 14L20 14L20 15L19 15L19 13L21 13L21 11L20 11L20 10L21 10L21 8L18 8L18 9L17 9L17 10L19 10L19 11L20 11L20 12L17 12L17 14L16 14L16 12L15 12L15 11L16 11L16 10L15 10L15 11L13 11L13 10L14 10L14 9L16 9L16 8L13 8L13 6L12 6L12 7L11 7L11 4L12 4L12 5L13 5L13 4L12 4L12 3L10 3L10 2L13 2L13 1L12 1L12 0L11 0L11 1L10 1L10 0ZM9 6L9 7L10 7L10 6ZM19 9L19 10L20 10L20 9ZM6 11L6 12L7 12L7 11ZM11 11L11 14L12 14L12 16L9 16L9 19L10 19L10 20L11 20L11 19L12 19L12 18L13 18L13 16L14 16L14 14L12 14L12 11ZM13 12L13 13L15 13L15 12ZM15 14L15 15L16 15L16 14ZM17 14L17 17L18 17L18 14ZM11 17L11 18L10 18L10 19L11 19L11 18L12 18L12 17ZM15 18L15 19L16 19L16 18ZM17 19L17 20L18 20L18 21L19 21L19 20L20 20L20 19L19 19L19 20L18 20L18 19ZM0 0L0 7L7 7L7 0ZM1 1L1 6L6 6L6 1ZM2 2L2 5L5 5L5 2ZM14 0L14 7L21 7L21 0ZM15 1L15 6L20 6L20 1ZM16 2L16 5L19 5L19 2ZM0 14L0 21L7 21L7 14ZM1 15L1 20L6 20L6 15ZM2 16L2 19L5 19L5 16Z" fill="#004b96"/></g></g></svg>
