<?xml version="1.0" encoding="UTF-8"?>
<svg xmlns="http://www.w3.org/2000/svg" version="1.1" width="400" height="400" viewBox="0 0 400 400"><rect x="0" y="0" width="400" height="400" fill="#f5f5f5"/><g transform="scale(14.815)"><g transform="translate(3,3)"><path fill-rule="evenodd" d="M8 0L8 2L9 2L9 3L8 3L8 7L9 7L9 3L10 3L10 5L11 5L11 6L10 6L10 8L9 8L9 9L7 9L7 8L6 8L6 9L7 9L7 10L5 10L5 9L4 9L4 8L3 8L3 9L4 9L4 12L1 12L1 13L4 13L4 12L5 12L5 13L8 13L8 14L9 14L9 15L10 15L10 14L11 14L11 15L12 15L12 14L11 14L11 13L8 13L8 12L6 12L6 11L7 11L7 10L8 10L8 11L9 11L9 9L10 9L10 8L12 8L12 9L11 9L11 12L12 12L12 9L13 9L13 13L15 13L15 16L14 16L14 17L17 17L17 18L16 18L16 21L19 21L19 20L20 20L20 19L21 19L21 16L18 16L18 15L19 15L19 14L20 14L20 15L21 15L21 14L20 14L20 12L18 12L18 11L20 11L20 10L21 10L21 8L19 8L19 9L18 9L18 8L15 8L15 9L18 9L18 10L17 10L17 12L16 12L16 13L15 13L15 10L14 10L14 9L13 9L13 5L12 5L12 3L13 3L13 0L12 0L12 1L11 1L11 2L10 2L10 1L9 1L9 0ZM11 6L11 7L12 7L12 6ZM1 9L1 11L3 11L3 10L2 10L2 9ZM17 12L17 13L18 13L18 14L19 14L19 13L18 13L18 12ZM13 14L13 15L14 15L14 14ZM16 14L16 15L17 15L17 14ZM10 16L10 17L11 17L11 16ZM12 16L12 18L11 18L11 19L10 19L10 18L9 18L9 17L8 17L8 18L9 18L9 21L12 21L12 20L11 20L11 19L13 19L13 20L14 20L14 21L15 21L15 20L14 20L14 19L15 19L15 18L13 18L13 16ZM17 16L17 17L18 17L18 16ZM17 18L17 20L18 20L18 19L20 19L20 18ZM0 0L0 7L7 7L7 0ZM1 1L1 6L6 6L6 1ZM2 2L2 5L5 5L5 2ZM14 0L14 7L21 7L21 0ZM15 1L15 6L20 6L20 1ZM16 2L16 5L19 5L19 2ZM0 14L0 21L7 21L7 14ZM1 15L1 20L6 20L6 15ZM2 16L2 19L5 19L5 16Z" fill="#282828"/></g></g></svg>
