<?xml version="1.0" encoding="UTF-8"?>
<svg xmlns="http://www.w3.org/2000/svg" version="1.1" width="400" height="400" viewBox="0 0 400 400"><rect x="0" y="0" width="400" height="400" fill="#f5f5f5"/><g transform="scale(14.815)"><g transform="translate(3,3)"><path fill-rule="evenodd" d="M8 0L8 1L9 1L9 3L8 3L8 4L9 4L9 3L11 3L11 4L10 4L10 5L9 5L9 6L8 6L8 7L9 7L9 8L8 8L8 9L7 9L7 8L4 8L4 9L3 9L3 8L2 8L2 9L1 9L1 10L0 10L0 12L1 12L1 13L3 13L3 12L4 12L4 13L8 13L8 14L9 14L9 15L8 15L8 17L9 17L9 18L8 18L8 19L9 19L9 20L10 20L10 18L11 18L11 16L10 16L10 15L11 15L11 11L14 11L14 13L13 13L13 14L15 14L15 15L13 15L13 16L15 16L15 17L14 17L14 18L13 18L13 17L12 17L12 18L13 18L13 20L11 20L11 21L14 21L14 20L15 20L15 19L14 19L14 18L15 18L15 17L16 17L16 16L18 16L18 18L20 18L20 19L21 19L21 18L20 18L20 17L21 17L21 16L20 16L20 17L19 17L19 16L18 16L18 15L19 15L19 13L21 13L21 11L20 11L20 10L21 10L21 8L20 8L20 10L18 10L18 11L17 11L17 10L16 10L16 11L17 11L17 12L16 12L16 13L15 13L15 11L14 11L14 10L15 10L15 9L14 9L14 8L12 8L12 7L13 7L13 5L12 5L12 4L13 4L13 1L12 1L12 3L11 3L11 1L10 1L10 0ZM10 5L10 6L9 6L9 7L10 7L10 8L9 8L9 9L8 9L8 10L9 10L9 11L10 11L10 10L14 10L14 9L10 9L10 8L11 8L11 7L12 7L12 5ZM10 6L10 7L11 7L11 6ZM17 8L17 9L18 9L18 8ZM6 9L6 10L3 10L3 11L4 11L4 12L5 12L5 11L6 11L6 12L8 12L8 11L6 11L6 10L7 10L7 9ZM9 9L9 10L10 10L10 9ZM18 11L18 13L19 13L19 11ZM9 13L9 14L10 14L10 13ZM16 13L16 15L18 15L18 14L17 14L17 13ZM9 16L9 17L10 17L10 16ZM16 18L16 19L17 19L17 18ZM18 19L18 21L19 21L19 19ZM16 20L16 21L17 21L17 20ZM20 20L20 21L21 21L21 20ZM0 0L0 7L7 7L7 0ZM1 1L1 6L6 6L6 1ZM2 2L2 5L5 5L5 2ZM14 0L14 7L21 7L21 0ZM15 1L15 6L20 6L20 1ZM16 2L16 5L19 5L19 2ZM0 14L0 21L7 21L7 14ZM1 15L1 20L6 20L6 15ZM2 16L2 19L5 19L5 16Z" fill="#282828"/></g></g></svg>
