<?xml version="1.0" encoding="UTF-8"?>
<svg xmlns="http://www.w3.org/2000/svg" version="1.1" width="400" height="400" viewBox="0 0 400 400"><rect x="0" y="0" width="400" height="400" fill="#f5f5f5"/><g transform="scale(14.815)"><g transform="translate(3,3)"><path fill-rule="evenodd" d="M9 0L9 1L10 1L10 2L8 2L8 4L9 4L9 6L8 6L8 7L9 7L9 8L10 8L10 7L11 7L11 8L13 8L13 3L12 3L12 2L13 2L13 0L11 0L11 1L10 1L10 0ZM10 2L10 5L12 5L12 3L11 3L11 2ZM9 6L9 7L10 7L10 6ZM11 6L11 7L12 7L12 6ZM3 8L3 9L1 9L1 10L2 10L2 12L3 12L3 13L4 13L4 12L5 12L5 13L8 13L8 15L9 15L9 16L8 16L8 18L9 18L9 19L10 19L10 20L9 20L9 21L10 21L10 20L11 20L11 21L17 21L17 20L18 20L18 21L20 21L20 20L21 20L21 18L19 18L19 19L20 19L20 20L18 20L18 18L17 18L17 17L19 17L19 16L20 16L20 17L21 17L21 11L20 11L20 9L19 9L19 8L17 8L17 9L13 9L13 10L12 10L12 9L11 9L11 10L12 10L12 11L10 11L10 10L9 10L9 9L8 9L8 8L6 8L6 9L5 9L5 8ZM6 9L6 10L8 10L8 9ZM17 9L17 10L16 10L16 11L17 11L17 12L18 12L18 13L15 13L15 10L13 10L13 11L14 11L14 13L15 13L15 14L14 14L14 15L13 15L13 13L12 13L12 12L11 12L11 13L12 13L12 14L9 14L9 15L10 15L10 16L9 16L9 18L10 18L10 19L11 19L11 18L12 18L12 20L13 20L13 19L14 19L14 17L16 17L16 16L18 16L18 13L19 13L19 14L20 14L20 11L19 11L19 12L18 12L18 11L17 11L17 10L18 10L18 9ZM3 10L3 12L4 12L4 10ZM6 11L6 12L7 12L7 11ZM8 11L8 13L10 13L10 12L9 12L9 11ZM0 12L0 13L1 13L1 12ZM14 15L14 16L12 16L12 17L14 17L14 16L15 16L15 15ZM10 16L10 18L11 18L11 16ZM16 19L16 20L17 20L17 19ZM0 0L0 7L7 7L7 0ZM1 1L1 6L6 6L6 1ZM2 2L2 5L5 5L5 2ZM14 0L14 7L21 7L21 0ZM15 1L15 6L20 6L20 1ZM16 2L16 5L19 5L19 2ZM0 14L0 21L7 21L7 14ZM1 15L1 20L6 20L6 15ZM2 16L2 19L5 19L5 16Z" fill="#282828"/></g></g></svg>
