<?xml version="1.0" encoding="UTF-8"?>
<svg xmlns="http://www.w3.org/2000/svg" version="1.1" width="400" height="400" viewBox="0 0 400 400"><rect x="0" y="0" width="400" height="400" fill="#f5f5f5"/><g transform="scale(14.815)"><g transform="translate(3,3)"><path fill-rule="evenodd" d="M9 0L9 1L8 1L8 7L9 7L9 6L10 6L10 7L11 7L11 6L12 6L12 8L11 8L11 9L9 9L9 8L5 8L5 9L3 9L3 8L2 8L2 10L1 10L1 9L0 9L0 10L1 10L1 12L2 12L2 10L6 10L6 11L7 11L7 12L6 12L6 13L7 13L7 12L8 12L8 16L9 16L9 18L8 18L8 19L9 19L9 21L12 21L12 19L13 19L13 21L21 21L21 20L20 20L20 19L21 19L21 18L19 18L19 17L21 17L21 16L20 16L20 13L18 13L18 12L19 12L19 11L20 11L20 12L21 12L21 9L20 9L20 8L15 8L15 10L14 10L14 8L13 8L13 6L12 6L12 5L13 5L13 2L12 2L12 0L11 0L11 1L10 1L10 0ZM9 3L9 5L12 5L12 3L11 3L11 4L10 4L10 3ZM6 9L6 10L7 10L7 11L8 11L8 12L9 12L9 14L10 14L10 13L11 13L11 15L9 15L9 16L12 16L12 17L10 17L10 20L11 20L11 19L12 19L12 17L16 17L16 18L17 18L17 16L19 16L19 15L17 15L17 14L18 14L18 13L14 13L14 12L15 12L15 11L14 11L14 10L13 10L13 9L12 9L12 10L11 10L11 11L9 11L9 10L8 10L8 9ZM16 9L16 10L17 10L17 11L16 11L16 12L18 12L18 11L19 11L19 10L20 10L20 9L19 9L19 10L18 10L18 9ZM11 11L11 12L12 12L12 13L13 13L13 15L12 15L12 16L13 16L13 15L14 15L14 13L13 13L13 12L14 12L14 11ZM3 12L3 13L4 13L4 12ZM16 15L16 16L17 16L17 15ZM13 18L13 19L14 19L14 18ZM18 18L18 19L19 19L19 18ZM16 19L16 20L17 20L17 19ZM0 0L0 7L7 7L7 0ZM1 1L1 6L6 6L6 1ZM2 2L2 5L5 5L5 2ZM14 0L14 7L21 7L21 0ZM15 1L15 6L20 6L20 1ZM16 2L16 5L19 5L19 2ZM0 14L0 21L7 21L7 14ZM1 15L1 20L6 20L6 15ZM2 16L2 19L5 19L5 16Z" fill="#282828"/></g></g></svg>
