<?xml version="1.0" encoding="UTF-8"?>
<svg xmlns="http://www.w3.org/2000/svg" version="1.1" width="400" height="400" viewBox="0 0 400 400"><rect x="0" y="0" width="400" height="400" fill="#f5f5f5"/><g transform="scale(14.815)"><g transform="translate(3,3)"><path fill-rule="evenodd" d="M8 0L8 1L9 1L9 2L8 2L8 3L9 3L9 4L8 4L8 5L9 5L9 4L11 4L11 5L12 5L12 8L10 8L10 7L11 7L11 6L10 6L10 7L9 7L9 6L8 6L8 8L9 8L9 9L10 9L10 10L9 10L9 11L8 11L8 10L5 10L5 9L7 9L7 8L5 8L5 9L4 9L4 10L2 10L2 9L0 9L0 13L1 13L1 12L2 12L2 13L3 13L3 12L4 12L4 13L7 13L7 12L4 12L4 10L5 10L5 11L8 11L8 12L9 12L9 13L8 13L8 14L9 14L9 13L10 13L10 12L9 12L9 11L11 11L11 13L12 13L12 14L10 14L10 15L8 15L8 16L10 16L10 15L11 15L11 18L10 18L10 17L9 17L9 18L10 18L10 20L9 20L9 21L11 21L11 20L12 20L12 19L13 19L13 21L16 21L16 19L17 19L17 20L18 20L18 21L19 21L19 20L20 20L20 19L21 19L21 18L19 18L19 20L18 20L18 17L19 17L19 16L21 16L21 14L20 14L20 13L21 13L21 10L20 10L20 9L21 9L21 8L20 8L20 9L19 9L19 8L18 8L18 9L17 9L17 8L16 8L16 9L15 9L15 8L14 8L14 9L12 9L12 8L13 8L13 5L12 5L12 3L13 3L13 2L10 2L10 0ZM11 0L11 1L12 1L12 0ZM9 2L9 3L10 3L10 2ZM11 9L11 10L12 10L12 9ZM14 9L14 10L13 10L13 11L14 11L14 12L12 12L12 13L13 13L13 14L14 14L14 15L12 15L12 16L14 16L14 15L15 15L15 17L16 17L16 18L17 18L17 17L18 17L18 14L19 14L19 15L20 15L20 14L19 14L19 13L20 13L20 10L19 10L19 9L18 9L18 10L16 10L16 12L18 12L18 10L19 10L19 13L14 13L14 12L15 12L15 9ZM1 10L1 11L2 11L2 10ZM16 14L16 15L17 15L17 14ZM16 16L16 17L17 17L17 16ZM11 18L11 19L12 19L12 18ZM13 18L13 19L14 19L14 18ZM0 0L0 7L7 7L7 0ZM1 1L1 6L6 6L6 1ZM2 2L2 5L5 5L5 2ZM14 0L14 7L21 7L21 0ZM15 1L15 6L20 6L20 1ZM16 2L16 5L19 5L19 2ZM0 14L0 21L7 21L7 14ZM1 15L1 20L6 20L6 15ZM2 16L2 19L5 19L5 16Z" fill="#282828"/></g></g></svg>
