<?xml version="1.0" encoding="UTF-8"?>
<svg xmlns="http://www.w3.org/2000/svg" version="1.1" width="400" height="400" viewBox="0 0 400 400"><rect x="0" y="0" width="400" height="400" fill="#f5f5f5"/><g transform="scale(14.815)"><g transform="translate(3,3)"><path fill-rule="evenodd" d="M8 0L8 1L9 1L9 2L10 2L10 3L8 3L8 4L9 4L9 5L10 5L10 8L8 8L8 9L9 9L9 10L8 10L8 11L7 11L7 10L6 10L6 11L7 11L7 12L5 12L5 11L3 11L3 8L2 8L2 10L0 10L0 11L1 11L1 12L0 12L0 13L2 13L2 11L3 11L3 13L7 13L7 12L8 12L8 11L9 11L9 12L10 12L10 10L11 10L11 13L8 13L8 14L10 14L10 15L8 15L8 17L9 17L9 18L8 18L8 19L9 19L9 20L10 20L10 18L12 18L12 19L11 19L11 21L12 21L12 20L14 20L14 19L15 19L15 18L14 18L14 14L15 14L15 17L16 17L16 16L18 16L18 18L20 18L20 19L21 19L21 18L20 18L20 17L21 17L21 16L20 16L20 17L19 17L19 16L18 16L18 15L19 15L19 14L20 14L20 12L21 12L21 10L20 10L20 11L19 11L19 10L18 10L18 8L17 8L17 10L16 10L16 11L17 11L17 10L18 10L18 11L19 11L19 14L18 14L18 13L17 13L17 12L16 12L16 13L14 13L14 14L13 14L13 13L12 13L12 12L14 12L14 11L15 11L15 10L12 10L12 7L13 7L13 6L12 6L12 5L13 5L13 2L12 2L12 1L13 1L13 0L10 0L10 1L9 1L9 0ZM10 1L10 2L11 2L11 1ZM10 3L10 4L11 4L11 5L12 5L12 4L11 4L11 3ZM8 6L8 7L9 7L9 6ZM11 6L11 7L12 7L12 6ZM4 8L4 9L7 9L7 8ZM10 8L10 9L11 9L11 8ZM13 8L13 9L14 9L14 8ZM20 8L20 9L21 9L21 8ZM16 13L16 15L18 15L18 14L17 14L17 13ZM11 14L11 17L13 17L13 15L12 15L12 14ZM9 16L9 17L10 17L10 16ZM13 18L13 19L14 19L14 18ZM16 18L16 19L17 19L17 18ZM18 19L18 21L19 21L19 19ZM16 20L16 21L17 21L17 20ZM20 20L20 21L21 21L21 20ZM0 0L0 7L7 7L7 0ZM1 1L1 6L6 6L6 1ZM2 2L2 5L5 5L5 2ZM14 0L14 7L21 7L21 0ZM15 1L15 6L20 6L20 1ZM16 2L16 5L19 5L19 2ZM0 14L0 21L7 21L7 14ZM1 15L1 20L6 20L6 15ZM2 16L2 19L5 19L5 16Z" fill="#282828"/></g></g></svg>
