<?xml version="1.0" encoding="UTF-8"?>
<svg xmlns="http://www.w3.org/2000/svg" version="1.1" width="400" height="400" viewBox="0 0 400 400"><rect x="0" y="0" width="400" height="400" fill="#f5f5f5"/><g transform="scale(14.815)"><g transform="translate(3,3)"><path fill-rule="evenodd" d="M9 0L9 1L8 1L8 2L9 2L9 1L10 1L10 0ZM12 0L12 1L13 1L13 0ZM10 2L10 3L9 3L9 5L8 5L8 8L4 8L4 9L3 9L3 10L2 10L2 12L3 12L3 10L4 10L4 11L5 11L5 12L4 12L4 13L5 13L5 12L6 12L6 13L7 13L7 12L6 12L6 11L7 11L7 10L8 10L8 8L9 8L9 9L10 9L10 10L9 10L9 11L10 11L10 12L12 12L12 13L13 13L13 15L15 15L15 16L14 16L14 17L15 17L15 19L16 19L16 20L17 20L17 19L18 19L18 21L21 21L21 20L20 20L20 19L19 19L19 18L21 18L21 16L20 16L20 15L21 15L21 14L20 14L20 15L19 15L19 16L18 16L18 14L19 14L19 13L20 13L20 12L21 12L21 9L20 9L20 8L19 8L19 9L17 9L17 10L16 10L16 8L14 8L14 9L15 9L15 11L16 11L16 12L17 12L17 13L18 13L18 14L17 14L17 16L16 16L16 15L15 15L15 14L14 14L14 13L15 13L15 12L12 12L12 10L13 10L13 11L14 11L14 10L13 10L13 9L12 9L12 8L13 8L13 6L12 6L12 7L11 7L11 5L13 5L13 3L12 3L12 4L11 4L11 2ZM10 4L10 5L11 5L11 4ZM9 6L9 8L10 8L10 6ZM0 9L0 10L1 10L1 9ZM5 9L5 10L7 10L7 9ZM11 9L11 10L12 10L12 9ZM19 9L19 10L20 10L20 9ZM17 10L17 12L18 12L18 10ZM0 11L0 12L1 12L1 11ZM8 12L8 17L9 17L9 18L10 18L10 19L9 19L9 20L10 20L10 19L13 19L13 20L11 20L11 21L13 21L13 20L14 20L14 19L13 19L13 16L11 16L11 14L10 14L10 13L9 13L9 12ZM9 16L9 17L10 17L10 18L12 18L12 17L10 17L10 16ZM17 16L17 17L16 17L16 18L17 18L17 17L18 17L18 18L19 18L19 17L18 17L18 16ZM0 0L0 7L7 7L7 0ZM1 1L1 6L6 6L6 1ZM2 2L2 5L5 5L5 2ZM14 0L14 7L21 7L21 0ZM15 1L15 6L20 6L20 1ZM16 2L16 5L19 5L19 2ZM0 14L0 21L7 21L7 14ZM1 15L1 20L6 20L6 15ZM2 16L2 19L5 19L5 16Z" fill="#282828"/></g></g></svg>
