<?xml version="1.0" encoding="UTF-8"?>
<svg xmlns="http://www.w3.org/2000/svg" version="1.1" width="400" height="400" viewBox="0 0 400 400"><rect x="0" y="0" width="400" height="400" fill="#f5f5f5"/><g transform="scale(14.815)"><g transform="translate(3,3)"><path fill-rule="evenodd" d="M9 0L9 1L8 1L8 7L9 7L9 5L10 5L10 4L11 4L11 6L10 6L10 7L11 7L11 6L12 6L12 8L13 8L13 9L14 9L14 8L13 8L13 5L12 5L12 3L10 3L10 4L9 4L9 1L11 1L11 0ZM2 8L2 9L1 9L1 10L0 10L0 11L1 11L1 12L0 12L0 13L3 13L3 12L4 12L4 13L7 13L7 12L4 12L4 11L7 11L7 10L8 10L8 11L9 11L9 10L10 10L10 8L5 8L5 9L4 9L4 10L3 10L3 8ZM15 8L15 11L14 11L14 10L13 10L13 11L12 11L12 13L10 13L10 12L11 12L11 11L10 11L10 12L8 12L8 16L9 16L9 17L10 17L10 18L11 18L11 19L9 19L9 18L8 18L8 19L9 19L9 21L11 21L11 19L12 19L12 20L13 20L13 21L21 21L21 20L20 20L20 19L21 19L21 18L19 18L19 17L21 17L21 16L20 16L20 14L21 14L21 13L20 13L20 11L21 11L21 10L20 10L20 11L19 11L19 9L20 9L20 8ZM5 9L5 10L7 10L7 9ZM8 9L8 10L9 10L9 9ZM11 9L11 10L12 10L12 9ZM16 9L16 10L17 10L17 11L16 11L16 12L17 12L17 13L15 13L15 12L13 12L13 13L15 13L15 17L13 17L13 16L14 16L14 14L11 14L11 15L12 15L12 16L10 16L10 14L9 14L9 16L10 16L10 17L11 17L11 18L14 18L14 19L13 19L13 20L14 20L14 19L15 19L15 17L16 17L16 18L17 18L17 16L19 16L19 15L17 15L17 13L19 13L19 11L18 11L18 10L17 10L17 9ZM1 10L1 11L2 11L2 12L3 12L3 10ZM17 11L17 12L18 12L18 11ZM16 15L16 16L17 16L17 15ZM18 18L18 19L19 19L19 18ZM16 19L16 20L17 20L17 19ZM0 0L0 7L7 7L7 0ZM1 1L1 6L6 6L6 1ZM2 2L2 5L5 5L5 2ZM14 0L14 7L21 7L21 0ZM15 1L15 6L20 6L20 1ZM16 2L16 5L19 5L19 2ZM0 14L0 21L7 21L7 14ZM1 15L1 20L6 20L6 15ZM2 16L2 19L5 19L5 16Z" fill="#282828"/></g></g></svg>
