<?xml version="1.0" encoding="UTF-8"?>
<svg xmlns="http://www.w3.org/2000/svg" version="1.1" width="400" height="400" viewBox="0 0 400 400"><rect x="0" y="0" width="400" height="400" fill="#f5f5f5"/><g transform="scale(14.815)"><g transform="translate(3,3)"><path fill-rule="evenodd" d="M8 0L8 1L9 1L9 0ZM10 0L10 2L9 2L9 3L8 3L8 4L9 4L9 6L8 6L8 7L9 7L9 8L8 8L8 9L7 9L7 8L4 8L4 9L3 9L3 8L2 8L2 9L3 9L3 12L2 12L2 10L1 10L1 9L0 9L0 10L1 10L1 12L0 12L0 13L1 13L1 12L2 12L2 13L3 13L3 12L4 12L4 13L5 13L5 12L6 12L6 13L7 13L7 12L6 12L6 11L7 11L7 10L9 10L9 11L8 11L8 14L9 14L9 13L10 13L10 14L11 14L11 17L16 17L16 16L18 16L18 18L20 18L20 19L21 19L21 18L20 18L20 17L21 17L21 16L20 16L20 17L19 17L19 16L18 16L18 15L19 15L19 14L21 14L21 11L20 11L20 13L18 13L18 12L19 12L19 10L18 10L18 8L17 8L17 10L16 10L16 11L17 11L17 12L16 12L16 13L15 13L15 14L14 14L14 13L13 13L13 14L14 14L14 16L12 16L12 14L11 14L11 12L12 12L12 9L11 9L11 6L10 6L10 5L12 5L12 8L13 8L13 9L14 9L14 8L13 8L13 2L12 2L12 3L11 3L11 0ZM9 3L9 4L10 4L10 3ZM9 6L9 7L10 7L10 6ZM20 8L20 9L21 9L21 8ZM4 9L4 10L5 10L5 11L4 11L4 12L5 12L5 11L6 11L6 10L7 10L7 9L6 9L6 10L5 10L5 9ZM9 9L9 10L10 10L10 9ZM14 10L14 11L13 11L13 12L15 12L15 10ZM17 10L17 11L18 11L18 10ZM9 11L9 12L11 12L11 11ZM16 13L16 15L18 15L18 14L17 14L17 13ZM8 15L8 17L9 17L9 18L8 18L8 19L12 19L12 18L10 18L10 16L9 16L9 15ZM14 18L14 19L15 19L15 18ZM16 18L16 19L17 19L17 18ZM18 19L18 21L19 21L19 19ZM9 20L9 21L10 21L10 20ZM11 20L11 21L12 21L12 20ZM13 20L13 21L15 21L15 20ZM16 20L16 21L17 21L17 20ZM20 20L20 21L21 21L21 20ZM0 0L0 7L7 7L7 0ZM1 1L1 6L6 6L6 1ZM2 2L2 5L5 5L5 2ZM14 0L14 7L21 7L21 0ZM15 1L15 6L20 6L20 1ZM16 2L16 5L19 5L19 2ZM0 14L0 21L7 21L7 14ZM1 15L1 20L6 20L6 15ZM2 16L2 19L5 19L5 16Z" fill="#282828"/></g></g></svg>
