<?xml version="1.0" encoding="UTF-8"?>
<svg xmlns="http://www.w3.org/2000/svg" version="1.1" width="400" height="400" viewBox="0 0 400 400"><rect x="0" y="0" width="400" height="400" fill="#f5f5f5"/><g transform="scale(14.815)"><g transform="translate(3,3)"><path fill-rule="evenodd" d="M8 0L8 3L9 3L9 5L8 5L8 11L10 11L10 12L11 12L11 13L10 13L10 14L9 14L9 12L8 12L8 14L9 14L9 15L10 15L10 14L11 14L11 15L12 15L12 16L13 16L13 17L10 17L10 16L8 16L8 19L9 19L9 20L11 20L11 21L16 21L16 20L15 20L15 19L16 19L16 18L15 18L15 16L16 16L16 17L17 17L17 18L18 18L18 17L19 17L19 16L20 16L20 15L21 15L21 14L20 14L20 13L21 13L21 11L18 11L18 10L19 10L19 9L21 9L21 8L18 8L18 9L17 9L17 13L18 13L18 17L17 17L17 14L16 14L16 12L15 12L15 11L16 11L16 10L15 10L15 9L16 9L16 8L12 8L12 9L9 9L9 5L12 5L12 7L13 7L13 5L12 5L12 4L13 4L13 0L12 0L12 1L10 1L10 0ZM9 2L9 3L10 3L10 4L11 4L11 2ZM10 6L10 7L11 7L11 6ZM2 8L2 9L5 9L5 8ZM6 8L6 9L7 9L7 8ZM0 9L0 13L2 13L2 12L1 12L1 11L3 11L3 10L1 10L1 9ZM12 9L12 10L13 10L13 11L11 11L11 10L10 10L10 11L11 11L11 12L13 12L13 13L11 13L11 14L13 14L13 13L15 13L15 12L13 12L13 11L14 11L14 10L13 10L13 9ZM5 10L5 11L7 11L7 10ZM3 12L3 13L4 13L4 12ZM5 12L5 13L7 13L7 12ZM18 12L18 13L20 13L20 12ZM15 14L15 15L13 15L13 16L15 16L15 15L16 15L16 14ZM19 14L19 15L20 15L20 14ZM9 18L9 19L10 19L10 18ZM12 18L12 19L11 19L11 20L13 20L13 19L15 19L15 18ZM17 19L17 20L18 20L18 21L19 21L19 20L20 20L20 19L19 19L19 20L18 20L18 19ZM0 0L0 7L7 7L7 0ZM1 1L1 6L6 6L6 1ZM2 2L2 5L5 5L5 2ZM14 0L14 7L21 7L21 0ZM15 1L15 6L20 6L20 1ZM16 2L16 5L19 5L19 2ZM0 14L0 21L7 21L7 14ZM1 15L1 20L6 20L6 15ZM2 16L2 19L5 19L5 16Z" fill="#282828"/></g></g></svg>
