<?xml version="1.0" encoding="UTF-8"?>
<svg xmlns="http://www.w3.org/2000/svg" version="1.1" width="400" height="400" viewBox="0 0 400 400"><rect x="0" y="0" width="400" height="400" fill="#f5f5f5"/><g transform="scale(14.815)"><g transform="translate(3,3)"><path fill-rule="evenodd" d="M11 0L11 1L10 1L10 3L9 3L9 1L8 1L8 7L9 7L9 6L10 6L10 9L11 9L11 10L8 10L8 9L9 9L9 8L5 8L5 9L3 9L3 8L2 8L2 9L1 9L1 10L2 10L2 11L0 11L0 12L1 12L1 13L3 13L3 12L6 12L6 13L7 13L7 12L6 12L6 11L9 11L9 13L8 13L8 16L9 16L9 13L10 13L10 14L11 14L11 15L10 15L10 16L11 16L11 17L10 17L10 18L11 18L11 19L9 19L9 18L8 18L8 19L9 19L9 20L10 20L10 21L11 21L11 20L12 20L12 19L13 19L13 21L21 21L21 20L20 20L20 19L21 19L21 18L19 18L19 17L21 17L21 16L20 16L20 14L21 14L21 13L20 13L20 14L17 14L17 15L16 15L16 16L17 16L17 18L16 18L16 17L15 17L15 20L14 20L14 16L15 16L15 15L14 15L14 14L15 14L15 13L19 13L19 12L21 12L21 11L20 11L20 10L21 10L21 9L20 9L20 8L15 8L15 9L14 9L14 8L13 8L13 9L14 9L14 10L12 10L12 9L11 9L11 6L12 6L12 7L13 7L13 6L12 6L12 5L13 5L13 4L12 4L12 3L11 3L11 2L12 2L12 1L13 1L13 0ZM10 3L10 5L12 5L12 4L11 4L11 3ZM2 9L2 10L3 10L3 11L5 11L5 10L7 10L7 9L5 9L5 10L3 10L3 9ZM16 9L16 10L17 10L17 11L16 11L16 12L17 12L17 11L18 11L18 12L19 12L19 10L20 10L20 9ZM14 10L14 12L13 12L13 11L10 11L10 12L11 12L11 14L12 14L12 15L11 15L11 16L14 16L14 15L13 15L13 13L15 13L15 10ZM12 12L12 13L13 13L13 12ZM17 15L17 16L19 16L19 15ZM11 17L11 18L12 18L12 17ZM18 18L18 19L19 19L19 18ZM16 19L16 20L17 20L17 19ZM0 0L0 7L7 7L7 0ZM1 1L1 6L6 6L6 1ZM2 2L2 5L5 5L5 2ZM14 0L14 7L21 7L21 0ZM15 1L15 6L20 6L20 1ZM16 2L16 5L19 5L19 2ZM0 14L0 21L7 21L7 14ZM1 15L1 20L6 20L6 15ZM2 16L2 19L5 19L5 16Z" fill="#282828"/></g></g></svg>
