<?xml version="1.0" encoding="UTF-8"?>
<svg xmlns="http://www.w3.org/2000/svg" version="1.1" width="400" height="400" viewBox="0 0 400 400"><rect x="0" y="0" width="400" height="400" fill="#f5f5f5"/><g transform="scale(14.815)"><g transform="translate(3,3)"><path fill-rule="evenodd" d="M8 0L8 2L9 2L9 3L8 3L8 7L9 7L9 6L10 6L10 7L11 7L11 8L9 8L9 9L7 9L7 8L6 8L6 9L7 9L7 10L6 10L6 11L8 11L8 10L9 10L9 12L8 12L8 14L9 14L9 15L10 15L10 14L9 14L9 12L10 12L10 13L11 13L11 14L12 14L12 15L14 15L14 13L13 13L13 11L10 11L10 10L11 10L11 9L12 9L12 10L14 10L14 12L15 12L15 9L18 9L18 10L17 10L17 11L18 11L18 12L16 12L16 13L15 13L15 17L17 17L17 18L16 18L16 21L19 21L19 20L20 20L20 19L21 19L21 16L18 16L18 15L19 15L19 14L17 14L17 13L19 13L19 12L21 12L21 11L19 11L19 10L21 10L21 8L19 8L19 9L18 9L18 8L15 8L15 9L13 9L13 3L12 3L12 2L11 2L11 3L12 3L12 4L11 4L11 5L10 5L10 0ZM11 0L11 1L12 1L12 0ZM11 6L11 7L12 7L12 6ZM3 8L3 9L4 9L4 11L3 11L3 10L2 10L2 9L1 9L1 10L2 10L2 11L1 11L1 13L7 13L7 12L4 12L4 11L5 11L5 9L4 9L4 8ZM9 9L9 10L10 10L10 9ZM12 13L12 14L13 14L13 13ZM16 14L16 15L17 15L17 14ZM20 14L20 15L21 15L21 14ZM9 16L9 17L8 17L8 18L10 18L10 16ZM12 16L12 17L11 17L11 18L12 18L12 17L13 17L13 19L12 19L12 20L10 20L10 21L15 21L15 18L14 18L14 17L13 17L13 16ZM17 16L17 17L18 17L18 16ZM17 18L17 20L18 20L18 19L20 19L20 18ZM13 19L13 20L14 20L14 19ZM0 0L0 7L7 7L7 0ZM1 1L1 6L6 6L6 1ZM2 2L2 5L5 5L5 2ZM14 0L14 7L21 7L21 0ZM15 1L15 6L20 6L20 1ZM16 2L16 5L19 5L19 2ZM0 14L0 21L7 21L7 14ZM1 15L1 20L6 20L6 15ZM2 16L2 19L5 19L5 16Z" fill="#282828"/></g></g></svg>
