<?xml version="1.0" encoding="UTF-8"?>
<svg xmlns="http://www.w3.org/2000/svg" version="1.1" width="400" height="400" viewBox="0 0 400 400"><rect x="0" y="0" width="400" height="400" fill="#f5f5f5"/><g transform="scale(14.815)"><g transform="translate(3,3)"><path fill-rule="evenodd" d="M9 0L9 1L10 1L10 3L11 3L11 4L9 4L9 2L8 2L8 4L9 4L9 5L10 5L10 7L9 7L9 6L8 6L8 7L9 7L9 8L12 8L12 9L13 9L13 8L12 8L12 7L13 7L13 6L12 6L12 7L11 7L11 5L12 5L12 3L11 3L11 1L12 1L12 0L11 0L11 1L10 1L10 0ZM3 8L3 10L2 10L2 9L1 9L1 11L2 11L2 12L4 12L4 13L7 13L7 12L6 12L6 11L9 11L9 10L6 10L6 9L8 9L8 8L6 8L6 9L5 9L5 8ZM17 8L17 9L14 9L14 10L10 10L10 11L12 11L12 13L11 13L11 14L9 14L9 13L10 13L10 12L9 12L9 13L8 13L8 15L9 15L9 16L8 16L8 18L9 18L9 19L11 19L11 18L12 18L12 19L13 19L13 20L14 20L14 21L17 21L17 20L18 20L18 21L20 21L20 20L21 20L21 18L19 18L19 19L20 19L20 20L18 20L18 18L17 18L17 17L19 17L19 16L20 16L20 17L21 17L21 14L19 14L19 13L18 13L18 12L20 12L20 13L21 13L21 12L20 12L20 11L21 11L21 10L20 10L20 11L19 11L19 8ZM4 9L4 10L5 10L5 9ZM17 9L17 10L16 10L16 11L17 11L17 10L18 10L18 9ZM14 10L14 11L13 11L13 12L14 12L14 11L15 11L15 10ZM0 12L0 13L1 13L1 12ZM12 13L12 14L13 14L13 15L10 15L10 17L12 17L12 18L13 18L13 19L14 19L14 20L15 20L15 17L16 17L16 16L18 16L18 14L17 14L17 13L14 13L14 14L13 14L13 13ZM14 15L14 16L12 16L12 17L13 17L13 18L14 18L14 17L15 17L15 15ZM16 19L16 20L17 20L17 19ZM9 20L9 21L10 21L10 20ZM11 20L11 21L12 21L12 20ZM0 0L0 7L7 7L7 0ZM1 1L1 6L6 6L6 1ZM2 2L2 5L5 5L5 2ZM14 0L14 7L21 7L21 0ZM15 1L15 6L20 6L20 1ZM16 2L16 5L19 5L19 2ZM0 14L0 21L7 21L7 14ZM1 15L1 20L6 20L6 15ZM2 16L2 19L5 19L5 16Z" fill="#004b96"/></g></g></svg>
