<?xml version="1.0" encoding="UTF-8"?>
<svg xmlns="http://www.w3.org/2000/svg" version="1.1" width="400" height="400" viewBox="0 0 400 400"><rect x="0" y="0" width="400" height="400" fill="#f5f5f5"/><g transform="scale(14.815)"><g transform="translate(3,3)"><path fill-rule="evenodd" d="M8 0L8 1L9 1L9 2L8 2L8 3L9 3L9 2L11 2L11 0L10 0L10 1L9 1L9 0ZM12 0L12 1L13 1L13 0ZM12 2L12 3L10 3L10 4L8 4L8 5L10 5L10 7L11 7L11 8L12 8L12 9L11 9L11 10L10 10L10 8L9 8L9 6L8 6L8 8L9 8L9 9L7 9L7 8L5 8L5 10L6 10L6 11L3 11L3 10L4 10L4 9L2 9L2 11L1 11L1 10L0 10L0 13L1 13L1 12L2 12L2 13L5 13L5 12L6 12L6 13L7 13L7 12L6 12L6 11L9 11L9 12L8 12L8 14L9 14L9 12L10 12L10 14L11 14L11 15L8 15L8 16L9 16L9 19L10 19L10 17L13 17L13 15L12 15L12 12L14 12L14 10L15 10L15 13L14 13L14 14L15 14L15 13L17 13L17 14L16 14L16 15L17 15L17 14L18 14L18 17L17 17L17 16L16 16L16 17L14 17L14 19L15 19L15 21L16 21L16 19L17 19L17 20L18 20L18 21L19 21L19 20L20 20L20 19L21 19L21 18L19 18L19 20L18 20L18 17L19 17L19 16L21 16L21 14L20 14L20 15L19 15L19 13L20 13L20 11L21 11L21 8L20 8L20 10L19 10L19 12L16 12L16 10L17 10L17 11L18 11L18 10L17 10L17 8L16 8L16 9L15 9L15 8L14 8L14 10L13 10L13 8L12 8L12 7L13 7L13 4L12 4L12 3L13 3L13 2ZM11 4L11 7L12 7L12 4ZM18 8L18 9L19 9L19 8ZM6 9L6 10L7 10L7 9ZM9 10L9 11L10 11L10 10ZM11 10L11 11L12 11L12 10ZM2 11L2 12L3 12L3 11ZM14 15L14 16L15 16L15 15ZM16 17L16 18L17 18L17 17ZM12 18L12 19L13 19L13 18ZM9 20L9 21L13 21L13 20ZM0 0L0 7L7 7L7 0ZM1 1L1 6L6 6L6 1ZM2 2L2 5L5 5L5 2ZM14 0L14 7L21 7L21 0ZM15 1L15 6L20 6L20 1ZM16 2L16 5L19 5L19 2ZM0 14L0 21L7 21L7 14ZM1 15L1 20L6 20L6 15ZM2 16L2 19L5 19L5 16Z" fill="#282828"/></g></g></svg>
