<?xml version="1.0" encoding="UTF-8"?>
<svg xmlns="http://www.w3.org/2000/svg" version="1.1" width="400" height="400" viewBox="0 0 400 400"><rect x="0" y="0" width="400" height="400" fill="#f5f5f5"/><g transform="scale(14.815)"><g transform="translate(3,3)"><path fill-rule="evenodd" d="M9 0L9 1L8 1L8 2L9 2L9 3L10 3L10 2L9 2L9 1L11 1L11 3L12 3L12 4L11 4L11 5L12 5L12 7L11 7L11 6L10 6L10 4L9 4L9 5L8 5L8 8L4 8L4 10L6 10L6 11L3 11L3 10L2 10L2 9L1 9L1 10L0 10L0 12L1 12L1 13L8 13L8 17L9 17L9 15L10 15L10 16L11 16L11 14L12 14L12 13L11 13L11 14L9 14L9 13L8 13L8 12L6 12L6 11L9 11L9 10L10 10L10 11L11 11L11 12L12 12L12 10L10 10L10 9L11 9L11 8L13 8L13 5L12 5L12 4L13 4L13 0ZM9 6L9 7L10 7L10 6ZM8 8L8 10L9 10L9 8ZM14 8L14 9L13 9L13 10L14 10L14 11L16 11L16 12L17 12L17 13L18 13L18 12L17 12L17 11L20 11L20 12L21 12L21 11L20 11L20 10L19 10L19 9L20 9L20 8L19 8L19 9L17 9L17 10L16 10L16 8ZM6 9L6 10L7 10L7 9ZM14 9L14 10L15 10L15 9ZM1 10L1 12L3 12L3 11L2 11L2 10ZM14 12L14 13L15 13L15 12ZM19 13L19 14L20 14L20 15L19 15L19 16L18 16L18 14L17 14L17 16L16 16L16 15L15 15L15 14L13 14L13 17L12 17L12 18L11 18L11 17L10 17L10 18L11 18L11 21L13 21L13 20L12 20L12 18L13 18L13 19L14 19L14 20L15 20L15 19L16 19L16 20L17 20L17 19L18 19L18 21L21 21L21 20L20 20L20 19L19 19L19 18L21 18L21 16L20 16L20 15L21 15L21 13ZM17 16L17 17L16 17L16 18L17 18L17 17L18 17L18 18L19 18L19 17L18 17L18 16ZM14 17L14 19L15 19L15 17ZM9 19L9 20L10 20L10 19ZM0 0L0 7L7 7L7 0ZM1 1L1 6L6 6L6 1ZM2 2L2 5L5 5L5 2ZM14 0L14 7L21 7L21 0ZM15 1L15 6L20 6L20 1ZM16 2L16 5L19 5L19 2ZM0 14L0 21L7 21L7 14ZM1 15L1 20L6 20L6 15ZM2 16L2 19L5 19L5 16Z" fill="#282828"/></g></g></svg>
