<?xml version="1.0" encoding="UTF-8"?>
<svg xmlns="http://www.w3.org/2000/svg" version="1.1" width="400" height="400" viewBox="0 0 400 400"><rect x="0" y="0" width="400" height="400" fill="#f5f5f5"/><g transform="scale(14.815)"><g transform="translate(3,3)"><path fill-rule="evenodd" d="M8 0L8 2L10 2L10 3L8 3L8 7L9 7L9 6L10 6L10 8L9 8L9 9L11 9L11 10L10 10L10 12L8 12L8 14L9 14L9 15L10 15L10 16L9 16L9 17L8 17L8 18L9 18L9 20L10 20L10 21L12 21L12 19L10 19L10 18L9 18L9 17L10 17L10 16L11 16L11 15L12 15L12 17L11 17L11 18L13 18L13 20L14 20L14 21L15 21L15 20L14 20L14 19L15 19L15 18L13 18L13 17L14 17L14 16L15 16L15 17L17 17L17 18L16 18L16 21L19 21L19 20L20 20L20 19L21 19L21 16L18 16L18 15L19 15L19 14L18 14L18 13L19 13L19 12L20 12L20 15L21 15L21 12L20 12L20 11L21 11L21 10L20 10L20 9L21 9L21 8L19 8L19 10L20 10L20 11L19 11L19 12L18 12L18 11L17 11L17 12L16 12L16 13L15 13L15 9L17 9L17 10L18 10L18 8L15 8L15 9L14 9L14 10L13 10L13 6L12 6L12 7L11 7L11 6L10 6L10 5L13 5L13 4L12 4L12 3L13 3L13 1L11 1L11 2L10 2L10 1L9 1L9 0ZM10 3L10 4L11 4L11 3ZM3 8L3 9L0 9L0 10L1 10L1 11L0 11L0 12L1 12L1 13L4 13L4 12L5 12L5 13L7 13L7 12L6 12L6 11L9 11L9 10L5 10L5 9L4 9L4 8ZM6 8L6 9L7 9L7 8ZM11 8L11 9L12 9L12 8ZM2 10L2 12L3 12L3 10ZM4 10L4 11L5 11L5 10ZM12 10L12 13L13 13L13 12L14 12L14 11L13 11L13 10ZM10 12L10 13L11 13L11 12ZM17 12L17 13L18 13L18 12ZM14 13L14 14L12 14L12 15L13 15L13 16L14 16L14 14L15 14L15 13ZM16 14L16 15L17 15L17 14ZM17 16L17 17L18 17L18 16ZM17 18L17 20L18 20L18 19L20 19L20 18ZM0 0L0 7L7 7L7 0ZM1 1L1 6L6 6L6 1ZM2 2L2 5L5 5L5 2ZM14 0L14 7L21 7L21 0ZM15 1L15 6L20 6L20 1ZM16 2L16 5L19 5L19 2ZM0 14L0 21L7 21L7 14ZM1 15L1 20L6 20L6 15ZM2 16L2 19L5 19L5 16Z" fill="#282828"/></g></g></svg>
