<?xml version="1.0" encoding="UTF-8"?>
<svg xmlns="http://www.w3.org/2000/svg" version="1.1" width="400" height="400" viewBox="0 0 400 400"><rect x="0" y="0" width="400" height="400" fill="#f5f5f5"/><g transform="scale(14.815)"><g transform="translate(3,3)"><path fill-rule="evenodd" d="M9 0L9 1L8 1L8 2L10 2L10 3L9 3L9 5L8 5L8 8L4 8L4 9L8 9L8 11L7 11L7 10L5 10L5 12L6 12L6 13L8 13L8 17L10 17L10 18L9 18L9 19L10 19L10 20L9 20L9 21L15 21L15 19L16 19L16 20L17 20L17 19L18 19L18 21L21 21L21 20L20 20L20 19L19 19L19 18L21 18L21 16L20 16L20 15L21 15L21 14L20 14L20 13L21 13L21 11L20 11L20 8L19 8L19 9L17 9L17 10L16 10L16 8L14 8L14 9L13 9L13 2L10 2L10 0ZM11 0L11 1L13 1L13 0ZM11 3L11 4L10 4L10 5L12 5L12 3ZM9 6L9 7L10 7L10 9L9 9L9 8L8 8L8 9L9 9L9 11L8 11L8 12L9 12L9 13L10 13L10 12L11 12L11 13L12 13L12 12L13 12L13 13L14 13L14 14L13 14L13 17L14 17L14 15L16 15L16 16L17 16L17 17L16 17L16 18L17 18L17 17L18 17L18 18L19 18L19 17L18 17L18 16L19 16L19 15L20 15L20 14L19 14L19 11L18 11L18 13L17 13L17 12L16 12L16 11L15 11L15 10L14 10L14 11L13 11L13 10L10 10L10 9L12 9L12 8L11 8L11 7L12 7L12 6L11 6L11 7L10 7L10 6ZM0 9L0 11L2 11L2 12L0 12L0 13L3 13L3 11L4 11L4 10L3 10L3 9ZM6 11L6 12L7 12L7 11ZM9 11L9 12L10 12L10 11ZM11 11L11 12L12 12L12 11ZM14 11L14 12L15 12L15 11ZM9 14L9 16L10 16L10 17L11 17L11 18L10 18L10 19L11 19L11 20L12 20L12 19L11 19L11 18L12 18L12 16L10 16L10 15L11 15L11 14ZM17 14L17 16L18 16L18 14ZM14 18L14 19L13 19L13 20L14 20L14 19L15 19L15 18ZM0 0L0 7L7 7L7 0ZM1 1L1 6L6 6L6 1ZM2 2L2 5L5 5L5 2ZM14 0L14 7L21 7L21 0ZM15 1L15 6L20 6L20 1ZM16 2L16 5L19 5L19 2ZM0 14L0 21L7 21L7 14ZM1 15L1 20L6 20L6 15ZM2 16L2 19L5 19L5 16Z" fill="#282828"/></g></g></svg>
