<?xml version="1.0" encoding="UTF-8"?>
<svg xmlns="http://www.w3.org/2000/svg" version="1.1" width="400" height="400" viewBox="0 0 400 400"><rect x="0" y="0" width="400" height="400" fill="#f5f5f5"/><g transform="scale(14.815)"><g transform="translate(3,3)"><path fill-rule="evenodd" d="M8 0L8 1L9 1L9 3L8 3L8 4L9 4L9 5L10 5L10 4L9 4L9 3L10 3L10 2L11 2L11 5L12 5L12 4L13 4L13 1L12 1L12 2L11 2L11 1L9 1L9 0ZM8 6L8 7L9 7L9 8L8 8L8 9L9 9L9 8L12 8L12 9L14 9L14 8L12 8L12 7L13 7L13 6L12 6L12 7L11 7L11 6L10 6L10 7L9 7L9 6ZM2 8L2 9L1 9L1 10L2 10L2 11L3 11L3 10L4 10L4 13L7 13L7 12L8 12L8 11L9 11L9 12L12 12L12 13L13 13L13 14L14 14L14 13L15 13L15 15L14 15L14 16L12 16L12 15L11 15L11 13L10 13L10 15L8 15L8 17L9 17L9 18L8 18L8 19L9 19L9 21L12 21L12 20L11 20L11 19L10 19L10 17L11 17L11 16L12 16L12 18L13 18L13 19L14 19L14 21L15 21L15 18L14 18L14 17L16 17L16 16L18 16L18 18L20 18L20 19L21 19L21 18L20 18L20 17L21 17L21 16L20 16L20 17L19 17L19 16L18 16L18 15L19 15L19 14L20 14L20 12L21 12L21 11L20 11L20 10L19 10L19 9L18 9L18 8L17 8L17 9L18 9L18 10L16 10L16 11L18 11L18 12L16 12L16 13L15 13L15 12L14 12L14 10L13 10L13 11L11 11L11 9L10 9L10 11L9 11L9 10L5 10L5 9L7 9L7 8L4 8L4 9L3 9L3 8ZM20 8L20 9L21 9L21 8ZM2 9L2 10L3 10L3 9ZM0 11L0 12L1 12L1 11ZM5 11L5 12L7 12L7 11ZM2 12L2 13L3 13L3 12ZM13 12L13 13L14 13L14 12ZM8 13L8 14L9 14L9 13ZM16 13L16 15L18 15L18 14L19 14L19 13L18 13L18 14L17 14L17 13ZM16 18L16 19L17 19L17 18ZM18 19L18 21L19 21L19 19ZM16 20L16 21L17 21L17 20ZM20 20L20 21L21 21L21 20ZM0 0L0 7L7 7L7 0ZM1 1L1 6L6 6L6 1ZM2 2L2 5L5 5L5 2ZM14 0L14 7L21 7L21 0ZM15 1L15 6L20 6L20 1ZM16 2L16 5L19 5L19 2ZM0 14L0 21L7 21L7 14ZM1 15L1 20L6 20L6 15ZM2 16L2 19L5 19L5 16Z" fill="#282828"/></g></g></svg>
