<?xml version="1.0" encoding="UTF-8"?>
<svg xmlns="http://www.w3.org/2000/svg" version="1.1" width="400" height="400" viewBox="0 0 400 400"><rect x="0" y="0" width="400" height="400" fill="#f5f5f5"/><g transform="scale(14.815)"><g transform="translate(3,3)"><path fill-rule="evenodd" d="M9 1L9 2L8 2L8 4L9 4L9 3L10 3L10 2L12 2L12 3L11 3L11 4L10 4L10 5L9 5L9 6L8 6L8 7L9 7L9 9L11 9L11 8L12 8L12 9L13 9L13 10L8 10L8 8L6 8L6 9L5 9L5 8L3 8L3 9L0 9L0 11L1 11L1 10L2 10L2 12L5 12L5 11L3 11L3 10L6 10L6 11L7 11L7 12L6 12L6 13L8 13L8 15L10 15L10 14L11 14L11 15L13 15L13 16L12 16L12 17L13 17L13 16L14 16L14 15L13 15L13 14L15 14L15 13L17 13L17 14L18 14L18 16L16 16L16 17L14 17L14 18L15 18L15 19L14 19L14 20L12 20L12 18L9 18L9 17L11 17L11 16L8 16L8 18L9 18L9 20L10 20L10 21L11 21L11 20L12 20L12 21L17 21L17 20L18 20L18 21L20 21L20 20L21 20L21 18L19 18L19 19L20 19L20 20L18 20L18 18L17 18L17 17L19 17L19 16L20 16L20 17L21 17L21 12L20 12L20 11L21 11L21 10L20 10L20 9L19 9L19 8L17 8L17 9L13 9L13 5L12 5L12 7L11 7L11 4L13 4L13 1ZM9 6L9 7L10 7L10 8L11 8L11 7L10 7L10 6ZM6 9L6 10L7 10L7 11L8 11L8 12L9 12L9 13L11 13L11 12L10 12L10 11L8 11L8 10L7 10L7 9ZM17 9L17 10L16 10L16 11L17 11L17 12L18 12L18 11L19 11L19 10L18 10L18 9ZM13 10L13 12L12 12L12 13L13 13L13 12L14 12L14 11L15 11L15 10ZM0 12L0 13L1 13L1 12ZM19 13L19 14L20 14L20 13ZM10 19L10 20L11 20L11 19ZM16 19L16 20L17 20L17 19ZM0 0L0 7L7 7L7 0ZM1 1L1 6L6 6L6 1ZM2 2L2 5L5 5L5 2ZM14 0L14 7L21 7L21 0ZM15 1L15 6L20 6L20 1ZM16 2L16 5L19 5L19 2ZM0 14L0 21L7 21L7 14ZM1 15L1 20L6 20L6 15ZM2 16L2 19L5 19L5 16Z" fill="#282828"/></g></g></svg>
