<?xml version="1.0" encoding="UTF-8"?>
<svg xmlns="http://www.w3.org/2000/svg" version="1.1" width="400" height="400" viewBox="0 0 400 400"><rect x="0" y="0" width="400" height="400" fill="#f5f5f5"/><g transform="scale(14.815)"><g transform="translate(3,3)"><path fill-rule="evenodd" d="M11 0L11 3L12 3L12 4L10 4L10 2L8 2L8 4L9 4L9 5L11 5L11 6L10 6L10 8L11 8L11 6L12 6L12 8L13 8L13 5L12 5L12 4L13 4L13 2L12 2L12 0ZM8 6L8 7L9 7L9 6ZM3 8L3 9L0 9L0 11L1 11L1 12L3 12L3 13L4 13L4 12L6 12L6 13L8 13L8 15L9 15L9 16L8 16L8 18L9 18L9 21L10 21L10 19L12 19L12 20L11 20L11 21L12 21L12 20L13 20L13 19L12 19L12 17L13 17L13 16L14 16L14 15L13 15L13 14L14 14L14 13L12 13L12 10L13 10L13 11L15 11L15 13L17 13L17 14L18 14L18 16L16 16L16 17L14 17L14 19L15 19L15 20L14 20L14 21L17 21L17 20L18 20L18 21L20 21L20 20L21 20L21 18L19 18L19 19L20 19L20 20L18 20L18 18L17 18L17 17L19 17L19 16L20 16L20 17L21 17L21 12L20 12L20 11L19 11L19 12L18 12L18 9L19 9L19 8L17 8L17 9L15 9L15 10L13 10L13 9L12 9L12 10L10 10L10 9L8 9L8 8L6 8L6 9L7 9L7 10L6 10L6 11L5 11L5 10L3 10L3 9L5 9L5 8ZM20 9L20 10L21 10L21 9ZM7 10L7 11L6 11L6 12L7 12L7 11L8 11L8 12L10 12L10 13L9 13L9 15L10 15L10 13L11 13L11 11L8 11L8 10ZM16 10L16 11L17 11L17 10ZM3 11L3 12L4 12L4 11ZM17 12L17 13L18 13L18 14L20 14L20 12L19 12L19 13L18 13L18 12ZM11 14L11 15L12 15L12 14ZM10 16L10 18L11 18L11 17L12 17L12 16ZM16 19L16 20L17 20L17 19ZM0 0L0 7L7 7L7 0ZM1 1L1 6L6 6L6 1ZM2 2L2 5L5 5L5 2ZM14 0L14 7L21 7L21 0ZM15 1L15 6L20 6L20 1ZM16 2L16 5L19 5L19 2ZM0 14L0 21L7 21L7 14ZM1 15L1 20L6 20L6 15ZM2 16L2 19L5 19L5 16Z" fill="#282828"/></g></g></svg>
