<?xml version="1.0" encoding="UTF-8"?>
<svg xmlns="http://www.w3.org/2000/svg" version="1.1" width="400" height="400" viewBox="0 0 400 400"><rect x="0" y="0" width="400" height="400" fill="#f5f5f5"/><g transform="scale(14.815)"><g transform="translate(3,3)"><path fill-rule="evenodd" d="M11 0L11 2L10 2L10 1L9 1L9 2L8 2L8 4L9 4L9 3L11 3L11 4L10 4L10 7L11 7L11 8L10 8L10 9L9 9L9 10L12 10L12 11L13 11L13 12L12 12L12 14L11 14L11 13L10 13L10 15L11 15L11 16L12 16L12 17L13 17L13 16L14 16L14 17L15 17L15 18L13 18L13 19L12 19L12 20L13 20L13 19L14 19L14 20L15 20L15 21L17 21L17 20L18 20L18 21L20 21L20 20L21 20L21 18L19 18L19 19L20 19L20 20L18 20L18 18L17 18L17 17L19 17L19 16L20 16L20 17L21 17L21 14L18 14L18 13L19 13L19 12L18 12L18 11L16 11L16 10L17 10L17 9L18 9L18 10L19 10L19 11L20 11L20 12L21 12L21 10L19 10L19 8L17 8L17 9L15 9L15 10L14 10L14 9L12 9L12 8L13 8L13 5L11 5L11 4L13 4L13 1L12 1L12 0ZM11 2L11 3L12 3L12 2ZM8 6L8 7L9 7L9 6ZM11 6L11 7L12 7L12 6ZM3 8L3 10L2 10L2 9L0 9L0 10L1 10L1 13L2 13L2 12L3 12L3 13L8 13L8 15L9 15L9 12L8 12L8 10L6 10L6 11L5 11L5 12L4 12L4 11L3 11L3 10L5 10L5 8ZM6 8L6 9L8 9L8 8ZM6 11L6 12L7 12L7 11ZM10 11L10 12L11 12L11 11ZM14 12L14 13L15 13L15 14L13 14L13 15L12 15L12 16L13 16L13 15L15 15L15 17L16 17L16 16L18 16L18 14L17 14L17 13L15 13L15 12ZM8 16L8 18L9 18L9 20L10 20L10 21L11 21L11 20L10 20L10 16ZM16 19L16 20L17 20L17 19ZM0 0L0 7L7 7L7 0ZM1 1L1 6L6 6L6 1ZM2 2L2 5L5 5L5 2ZM14 0L14 7L21 7L21 0ZM15 1L15 6L20 6L20 1ZM16 2L16 5L19 5L19 2ZM0 14L0 21L7 21L7 14ZM1 15L1 20L6 20L6 15ZM2 16L2 19L5 19L5 16Z" fill="#282828"/></g></g></svg>
