<?xml version="1.0" encoding="UTF-8"?>
<svg xmlns="http://www.w3.org/2000/svg" version="1.1" width="400" height="400" viewBox="0 0 400 400"><rect x="0" y="0" width="400" height="400" fill="#f5f5f5"/><g transform="scale(14.815)"><g transform="translate(3,3)"><path fill-rule="evenodd" d="M9 0L9 1L10 1L10 2L8 2L8 4L9 4L9 5L10 5L10 7L9 7L9 6L8 6L8 7L9 7L9 9L10 9L10 8L11 8L11 9L12 9L12 10L11 10L11 11L9 11L9 10L8 10L8 8L6 8L6 9L5 9L5 8L3 8L3 9L0 9L0 10L3 10L3 11L0 11L0 13L1 13L1 12L3 12L3 13L4 13L4 12L3 12L3 11L5 11L5 12L6 12L6 13L8 13L8 15L10 15L10 16L8 16L8 18L9 18L9 19L10 19L10 18L13 18L13 17L12 17L12 15L14 15L14 14L15 14L15 13L17 13L17 12L18 12L18 13L19 13L19 12L20 12L20 13L21 13L21 11L19 11L19 10L18 10L18 9L19 9L19 8L17 8L17 9L13 9L13 6L12 6L12 5L10 5L10 2L11 2L11 3L12 3L12 4L13 4L13 2L12 2L12 1L13 1L13 0L12 0L12 1L10 1L10 0ZM11 6L11 8L12 8L12 6ZM3 9L3 10L4 10L4 9ZM6 9L6 10L5 10L5 11L6 11L6 12L8 12L8 11L6 11L6 10L7 10L7 9ZM12 10L12 11L11 11L11 12L12 12L12 11L13 11L13 13L11 13L11 14L10 14L10 15L12 15L12 14L14 14L14 11L15 11L15 10L14 10L14 11L13 11L13 10ZM16 10L16 11L18 11L18 12L19 12L19 11L18 11L18 10ZM9 12L9 13L10 13L10 12ZM18 14L18 16L16 16L16 17L15 17L15 18L14 18L14 20L13 20L13 19L11 19L11 20L10 20L10 21L14 21L14 20L15 20L15 21L17 21L17 20L18 20L18 21L20 21L20 20L21 20L21 18L19 18L19 19L20 19L20 20L18 20L18 18L17 18L17 17L19 17L19 16L20 16L20 17L21 17L21 14ZM10 16L10 17L9 17L9 18L10 18L10 17L11 17L11 16ZM16 19L16 20L17 20L17 19ZM0 0L0 7L7 7L7 0ZM1 1L1 6L6 6L6 1ZM2 2L2 5L5 5L5 2ZM14 0L14 7L21 7L21 0ZM15 1L15 6L20 6L20 1ZM16 2L16 5L19 5L19 2ZM0 14L0 21L7 21L7 14ZM1 15L1 20L6 20L6 15ZM2 16L2 19L5 19L5 16Z" fill="#282828"/></g></g></svg>
