<?xml version="1.0" encoding="UTF-8"?>
<svg xmlns="http://www.w3.org/2000/svg" version="1.1" width="400" height="400" viewBox="0 0 400 400"><rect x="0" y="0" width="400" height="400" fill="#f5f5f5"/><g transform="scale(14.815)"><g transform="translate(3,3)"><path fill-rule="evenodd" d="M8 0L8 1L9 1L9 0ZM10 0L10 2L9 2L9 3L8 3L8 4L9 4L9 6L8 6L8 7L9 7L9 6L10 6L10 8L11 8L11 9L13 9L13 10L12 10L12 11L11 11L11 10L10 10L10 9L9 9L9 8L8 8L8 9L7 9L7 8L4 8L4 10L6 10L6 11L8 11L8 12L9 12L9 11L11 11L11 12L10 12L10 13L8 13L8 14L9 14L9 15L8 15L8 17L9 17L9 15L11 15L11 14L10 14L10 13L13 13L13 15L14 15L14 13L15 13L15 16L10 16L10 18L8 18L8 19L9 19L9 20L10 20L10 21L12 21L12 19L11 19L11 17L12 17L12 18L13 18L13 21L15 21L15 20L14 20L14 19L15 19L15 17L16 17L16 16L18 16L18 18L20 18L20 19L21 19L21 18L20 18L20 17L21 17L21 16L20 16L20 17L19 17L19 16L18 16L18 15L19 15L19 14L20 14L20 11L21 11L21 8L20 8L20 11L19 11L19 10L16 10L16 11L18 11L18 15L16 15L16 13L17 13L17 12L16 12L16 13L15 13L15 12L14 12L14 13L13 13L13 12L12 12L12 11L15 11L15 9L14 9L14 8L12 8L12 7L13 7L13 6L12 6L12 7L11 7L11 6L10 6L10 5L12 5L12 4L13 4L13 2L12 2L12 3L10 3L10 2L11 2L11 0ZM12 0L12 1L13 1L13 0ZM9 3L9 4L10 4L10 3ZM2 8L2 9L1 9L1 10L0 10L0 11L1 11L1 12L2 12L2 13L3 13L3 12L5 12L5 11L2 11L2 9L3 9L3 8ZM17 8L17 9L18 9L18 8ZM6 9L6 10L7 10L7 9ZM8 9L8 10L9 10L9 9ZM6 12L6 13L7 13L7 12ZM16 18L16 19L17 19L17 18ZM18 19L18 21L19 21L19 19ZM16 20L16 21L17 21L17 20ZM20 20L20 21L21 21L21 20ZM0 0L0 7L7 7L7 0ZM1 1L1 6L6 6L6 1ZM2 2L2 5L5 5L5 2ZM14 0L14 7L21 7L21 0ZM15 1L15 6L20 6L20 1ZM16 2L16 5L19 5L19 2ZM0 14L0 21L7 21L7 14ZM1 15L1 20L6 20L6 15ZM2 16L2 19L5 19L5 16Z" fill="#282828"/></g></g></svg>
