<?xml version="1.0" encoding="UTF-8"?>
<svg xmlns="http://www.w3.org/2000/svg" version="1.1" width="400" height="400" viewBox="0 0 400 400"><rect x="0" y="0" width="400" height="400" fill="#f5f5f5"/><g transform="scale(14.815)"><g transform="translate(3,3)"><path fill-rule="evenodd" d="M10 0L10 1L9 1L9 2L8 2L8 4L9 4L9 5L10 5L10 1L11 1L11 6L10 6L10 7L11 7L11 9L10 9L10 8L9 8L9 10L8 10L8 8L6 8L6 9L5 9L5 8L3 8L3 10L2 10L2 9L0 9L0 10L1 10L1 12L0 12L0 13L3 13L3 12L4 12L4 13L5 13L5 12L6 12L6 13L8 13L8 15L9 15L9 16L8 16L8 18L9 18L9 17L10 17L10 18L11 18L11 16L12 16L12 15L14 15L14 18L15 18L15 19L13 19L13 17L12 17L12 19L10 19L10 21L13 21L13 20L15 20L15 21L17 21L17 20L18 20L18 21L20 21L20 20L21 20L21 18L19 18L19 19L20 19L20 20L18 20L18 18L17 18L17 17L19 17L19 16L20 16L20 17L21 17L21 9L20 9L20 10L19 10L19 8L17 8L17 9L14 9L14 10L13 10L13 9L12 9L12 8L13 8L13 4L12 4L12 3L13 3L13 0L12 0L12 1L11 1L11 0ZM8 6L8 7L9 7L9 6ZM11 6L11 7L12 7L12 6ZM4 9L4 10L5 10L5 9ZM6 9L6 10L7 10L7 9ZM11 9L11 11L10 11L10 10L9 10L9 11L8 11L8 12L9 12L9 13L10 13L10 14L9 14L9 15L10 15L10 14L11 14L11 15L12 15L12 14L11 14L11 13L13 13L13 14L14 14L14 13L13 13L13 12L15 12L15 11L13 11L13 10L12 10L12 9ZM17 9L17 10L16 10L16 11L17 11L17 12L18 12L18 11L19 11L19 10L18 10L18 9ZM2 11L2 12L3 12L3 11ZM6 11L6 12L7 12L7 11ZM12 11L12 12L13 12L13 11ZM10 12L10 13L11 13L11 12ZM15 13L15 17L16 17L16 16L18 16L18 13ZM19 13L19 14L20 14L20 13ZM16 19L16 20L17 20L17 19ZM0 0L0 7L7 7L7 0ZM1 1L1 6L6 6L6 1ZM2 2L2 5L5 5L5 2ZM14 0L14 7L21 7L21 0ZM15 1L15 6L20 6L20 1ZM16 2L16 5L19 5L19 2ZM0 14L0 21L7 21L7 14ZM1 15L1 20L6 20L6 15ZM2 16L2 19L5 19L5 16Z" fill="#282828"/></g></g></svg>
