<?xml version="1.0" encoding="UTF-8"?>
<svg xmlns="http://www.w3.org/2000/svg" version="1.1" width="400" height="400" viewBox="0 0 400 400"><rect x="0" y="0" width="400" height="400" fill="#f5f5f5"/><g transform="scale(14.815)"><g transform="translate(3,3)"><path fill-rule="evenodd" d="M8 0L8 3L9 3L9 5L8 5L8 9L7 9L7 8L6 8L6 9L7 9L7 10L5 10L5 8L2 8L2 9L0 9L0 10L2 10L2 9L3 9L3 11L2 11L2 12L1 12L1 13L2 13L2 12L3 12L3 11L4 11L4 10L5 10L5 12L4 12L4 13L7 13L7 12L8 12L8 11L9 11L9 12L10 12L10 14L9 14L9 13L8 13L8 14L9 14L9 15L10 15L10 16L8 16L8 19L9 19L9 17L13 17L13 18L14 18L14 19L12 19L12 18L10 18L10 20L9 20L9 21L11 21L11 19L12 19L12 20L14 20L14 19L16 19L16 18L14 18L14 16L13 16L13 15L15 15L15 16L16 16L16 17L17 17L17 18L18 18L18 17L19 17L19 16L20 16L20 15L21 15L21 14L20 14L20 13L21 13L21 11L20 11L20 13L18 13L18 17L17 17L17 14L16 14L16 12L15 12L15 11L16 11L16 10L15 10L15 9L16 9L16 8L13 8L13 4L12 4L12 8L11 8L11 6L10 6L10 8L9 8L9 5L10 5L10 3L13 3L13 0L12 0L12 1L11 1L11 0L10 0L10 1L9 1L9 0ZM10 1L10 2L11 2L11 1ZM12 8L12 9L13 9L13 8ZM18 8L18 10L17 10L17 12L19 12L19 11L18 11L18 10L20 10L20 9L21 9L21 8ZM8 9L8 10L9 10L9 9ZM10 9L10 12L11 12L11 11L12 11L12 12L13 12L13 13L11 13L11 15L13 15L13 13L14 13L14 12L13 12L13 11L14 11L14 10L13 10L13 11L12 11L12 10L11 10L11 9ZM6 11L6 12L7 12L7 11ZM15 14L15 15L16 15L16 14ZM19 14L19 15L20 15L20 14ZM17 19L17 20L18 20L18 21L19 21L19 20L20 20L20 19L19 19L19 20L18 20L18 19ZM15 20L15 21L16 21L16 20ZM0 0L0 7L7 7L7 0ZM1 1L1 6L6 6L6 1ZM2 2L2 5L5 5L5 2ZM14 0L14 7L21 7L21 0ZM15 1L15 6L20 6L20 1ZM16 2L16 5L19 5L19 2ZM0 14L0 21L7 21L7 14ZM1 15L1 20L6 20L6 15ZM2 16L2 19L5 19L5 16Z" fill="#282828"/></g></g></svg>
