<?xml version="1.0" encoding="UTF-8"?>
<svg xmlns="http://www.w3.org/2000/svg" version="1.1" width="400" height="400" viewBox="0 0 400 400"><rect x="0" y="0" width="400" height="400" fill="#f5f5f5"/><g transform="scale(14.815)"><g transform="translate(3,3)"><path fill-rule="evenodd" d="M11 0L11 1L12 1L12 2L11 2L11 3L9 3L9 2L8 2L8 4L9 4L9 6L8 6L8 7L9 7L9 9L8 9L8 8L6 8L6 9L7 9L7 10L6 10L6 11L7 11L7 12L6 12L6 13L7 13L7 12L9 12L9 13L8 13L8 15L10 15L10 17L9 17L9 16L8 16L8 18L9 18L9 19L10 19L10 17L11 17L11 19L12 19L12 20L11 20L11 21L13 21L13 18L14 18L14 20L15 20L15 21L17 21L17 20L18 20L18 21L20 21L20 20L21 20L21 18L19 18L19 19L20 19L20 20L18 20L18 18L17 18L17 17L19 17L19 16L20 16L20 17L21 17L21 14L18 14L18 16L16 16L16 17L15 17L15 13L20 13L20 12L19 12L19 11L21 11L21 9L19 9L19 8L17 8L17 9L13 9L13 8L10 8L10 7L11 7L11 6L12 6L12 7L13 7L13 4L12 4L12 2L13 2L13 1L12 1L12 0ZM9 6L9 7L10 7L10 6ZM3 8L3 9L4 9L4 10L2 10L2 12L3 12L3 11L4 11L4 13L5 13L5 11L4 11L4 10L5 10L5 8ZM0 9L0 11L1 11L1 9ZM9 9L9 10L8 10L8 11L9 11L9 12L10 12L10 15L12 15L12 14L13 14L13 13L15 13L15 10L13 10L13 9L11 9L11 10L12 10L12 12L11 12L11 11L9 11L9 10L10 10L10 9ZM17 9L17 10L16 10L16 11L17 11L17 12L18 12L18 11L17 11L17 10L19 10L19 9ZM0 12L0 13L1 13L1 12ZM12 12L12 13L13 13L13 12ZM11 16L11 17L12 17L12 16ZM13 16L13 17L14 17L14 16ZM16 19L16 20L17 20L17 19ZM9 20L9 21L10 21L10 20ZM0 0L0 7L7 7L7 0ZM1 1L1 6L6 6L6 1ZM2 2L2 5L5 5L5 2ZM14 0L14 7L21 7L21 0ZM15 1L15 6L20 6L20 1ZM16 2L16 5L19 5L19 2ZM0 14L0 21L7 21L7 14ZM1 15L1 20L6 20L6 15ZM2 16L2 19L5 19L5 16Z" fill="#282828"/></g></g></svg>
