<?xml version="1.0" encoding="UTF-8"?>
<svg xmlns="http://www.w3.org/2000/svg" version="1.1" width="400" height="400" viewBox="0 0 400 400"><rect x="0" y="0" width="400" height="400" fill="#f5f5f5"/><g transform="scale(14.815)"><g transform="translate(3,3)"><path fill-rule="evenodd" d="M8 0L8 2L10 2L10 4L9 4L9 3L8 3L8 7L9 7L9 8L10 8L10 7L11 7L11 9L8 9L8 10L10 10L10 11L7 11L7 10L5 10L5 9L4 9L4 8L3 8L3 9L0 9L0 10L3 10L3 11L1 11L1 12L0 12L0 13L2 13L2 12L4 12L4 13L7 13L7 12L8 12L8 14L9 14L9 15L10 15L10 16L11 16L11 17L10 17L10 18L9 18L9 17L8 17L8 18L9 18L9 21L10 21L10 20L11 20L11 21L14 21L14 20L11 20L11 19L10 19L10 18L12 18L12 19L13 19L13 17L12 17L12 16L11 16L11 15L10 15L10 14L9 14L9 13L12 13L12 14L13 14L13 12L11 12L11 11L12 11L12 10L11 10L11 9L12 9L12 7L13 7L13 5L12 5L12 4L11 4L11 3L12 3L12 2L13 2L13 0L12 0L12 1L11 1L11 0L10 0L10 1L9 1L9 0ZM9 5L9 7L10 7L10 6L11 6L11 7L12 7L12 5ZM6 8L6 9L7 9L7 8ZM15 8L15 9L17 9L17 12L16 12L16 13L15 13L15 12L14 12L14 13L15 13L15 15L14 15L14 18L15 18L15 17L17 17L17 18L16 18L16 21L19 21L19 20L20 20L20 19L21 19L21 16L18 16L18 15L19 15L19 14L20 14L20 15L21 15L21 14L20 14L20 13L21 13L21 12L18 12L18 11L21 11L21 8L19 8L19 10L18 10L18 8ZM4 10L4 12L7 12L7 11L5 11L5 10ZM13 10L13 11L15 11L15 10ZM17 12L17 13L18 13L18 12ZM16 14L16 15L17 15L17 14ZM17 16L17 17L18 17L18 16ZM17 18L17 20L18 20L18 19L20 19L20 18ZM0 0L0 7L7 7L7 0ZM1 1L1 6L6 6L6 1ZM2 2L2 5L5 5L5 2ZM14 0L14 7L21 7L21 0ZM15 1L15 6L20 6L20 1ZM16 2L16 5L19 5L19 2ZM0 14L0 21L7 21L7 14ZM1 15L1 20L6 20L6 15ZM2 16L2 19L5 19L5 16Z" fill="#282828"/></g></g></svg>
