<?xml version="1.0" encoding="UTF-8"?>
<svg xmlns="http://www.w3.org/2000/svg" version="1.1" width="400" height="400" viewBox="0 0 400 400"><rect x="0" y="0" width="400" height="400" fill="#f5f5f5"/><g transform="scale(14.815)"><g transform="translate(3,3)"><path fill-rule="evenodd" d="M9 1L9 2L10 2L10 4L11 4L11 5L12 5L12 9L15 9L15 8L13 8L13 5L12 5L12 4L11 4L11 2L12 2L12 3L13 3L13 1L11 1L11 2L10 2L10 1ZM8 4L8 5L9 5L9 6L8 6L8 8L6 8L6 9L4 9L4 8L2 8L2 9L0 9L0 10L1 10L1 11L2 11L2 12L0 12L0 13L3 13L3 12L4 12L4 13L8 13L8 15L10 15L10 16L9 16L9 17L8 17L8 19L9 19L9 21L10 21L10 19L9 19L9 17L11 17L11 15L10 15L10 14L12 14L12 17L14 17L14 18L15 18L15 20L16 20L16 21L17 21L17 20L16 20L16 18L20 18L20 17L21 17L21 16L20 16L20 15L21 15L21 14L20 14L20 13L21 13L21 12L20 12L20 11L21 11L21 9L20 9L20 11L18 11L18 9L17 9L17 8L16 8L16 9L17 9L17 11L15 11L15 12L14 12L14 13L13 13L13 14L12 14L12 13L10 13L10 12L11 12L11 11L12 11L12 12L13 12L13 10L11 10L11 9L10 9L10 8L11 8L11 6L10 6L10 5L9 5L9 4ZM9 6L9 7L10 7L10 6ZM2 9L2 11L4 11L4 12L8 12L8 13L9 13L9 12L8 12L8 11L6 11L6 10L8 10L8 9L6 9L6 10L4 10L4 9ZM9 9L9 10L10 10L10 11L11 11L11 10L10 10L10 9ZM17 11L17 12L16 12L16 13L15 13L15 14L16 14L16 15L17 15L17 16L18 16L18 17L20 17L20 16L18 16L18 15L19 15L19 14L17 14L17 13L18 13L18 11ZM19 12L19 13L20 13L20 12ZM13 14L13 16L14 16L14 17L15 17L15 15L14 15L14 14ZM12 18L12 20L13 20L13 18ZM18 19L18 20L19 20L19 21L20 21L20 20L21 20L21 19ZM0 0L0 7L7 7L7 0ZM1 1L1 6L6 6L6 1ZM2 2L2 5L5 5L5 2ZM14 0L14 7L21 7L21 0ZM15 1L15 6L20 6L20 1ZM16 2L16 5L19 5L19 2ZM0 14L0 21L7 21L7 14ZM1 15L1 20L6 20L6 15ZM2 16L2 19L5 19L5 16Z" fill="#282828"/></g></g></svg>
