<?xml version="1.0" encoding="UTF-8"?>
<svg xmlns="http://www.w3.org/2000/svg" version="1.1" width="400" height="400" viewBox="0 0 400 400"><rect x="0" y="0" width="400" height="400" fill="#f5f5f5"/><g transform="scale(14.815)"><g transform="translate(3,3)"><path fill-rule="evenodd" d="M9 0L9 1L8 1L8 7L9 7L9 5L11 5L11 6L10 6L10 7L11 7L11 6L12 6L12 8L10 8L10 9L9 9L9 8L5 8L5 9L4 9L4 10L2 10L2 9L3 9L3 8L2 8L2 9L0 9L0 10L2 10L2 11L3 11L3 12L5 12L5 11L4 11L4 10L5 10L5 9L7 9L7 10L6 10L6 11L7 11L7 12L6 12L6 13L8 13L8 16L10 16L10 17L9 17L9 18L8 18L8 19L9 19L9 21L10 21L10 19L9 19L9 18L10 18L10 17L11 17L11 18L12 18L12 20L11 20L11 21L12 21L12 20L13 20L13 21L21 21L21 20L20 20L20 19L21 19L21 18L19 18L19 17L21 17L21 16L20 16L20 14L21 14L21 10L20 10L20 11L17 11L17 10L16 10L16 9L20 9L20 8L15 8L15 10L13 10L13 9L14 9L14 8L13 8L13 6L12 6L12 5L13 5L13 4L12 4L12 2L13 2L13 1L12 1L12 2L11 2L11 4L10 4L10 1L11 1L11 0ZM12 8L12 9L10 9L10 10L8 10L8 11L11 11L11 12L13 12L13 13L11 13L11 15L10 15L10 16L11 16L11 15L13 15L13 14L14 14L14 13L15 13L15 16L14 16L14 17L16 17L16 18L17 18L17 16L19 16L19 15L17 15L17 13L15 13L15 12L14 12L14 11L13 11L13 10L12 10L12 9L13 9L13 8ZM16 11L16 12L17 12L17 11ZM8 12L8 13L9 13L9 12ZM18 12L18 13L20 13L20 12ZM16 15L16 16L17 16L17 15ZM12 16L12 18L13 18L13 19L14 19L14 20L15 20L15 19L14 19L14 18L13 18L13 16ZM18 18L18 19L19 19L19 18ZM16 19L16 20L17 20L17 19ZM0 0L0 7L7 7L7 0ZM1 1L1 6L6 6L6 1ZM2 2L2 5L5 5L5 2ZM14 0L14 7L21 7L21 0ZM15 1L15 6L20 6L20 1ZM16 2L16 5L19 5L19 2ZM0 14L0 21L7 21L7 14ZM1 15L1 20L6 20L6 15ZM2 16L2 19L5 19L5 16Z" fill="#282828"/></g></g></svg>
