<?xml version="1.0" encoding="UTF-8"?>
<svg xmlns="http://www.w3.org/2000/svg" version="1.1" width="400" height="400" viewBox="0 0 400 400"><rect x="0" y="0" width="400" height="400" fill="#f5f5f5"/><g transform="scale(14.815)"><g transform="translate(3,3)"><path fill-rule="evenodd" d="M9 0L9 1L8 1L8 2L9 2L9 4L10 4L10 5L8 5L8 8L4 8L4 9L2 9L2 13L3 13L3 11L4 11L4 12L6 12L6 13L8 13L8 17L9 17L9 20L10 20L10 21L12 21L12 20L13 20L13 19L14 19L14 21L15 21L15 19L16 19L16 20L17 20L17 19L18 19L18 21L21 21L21 20L20 20L20 19L19 19L19 18L21 18L21 16L20 16L20 15L21 15L21 14L20 14L20 13L19 13L19 14L20 14L20 15L19 15L19 16L18 16L18 13L17 13L17 16L16 16L16 15L14 15L14 14L15 14L15 12L14 12L14 11L16 11L16 12L20 12L20 11L21 11L21 10L20 10L20 8L19 8L19 9L17 9L17 10L16 10L16 8L14 8L14 9L13 9L13 5L12 5L12 3L13 3L13 2L11 2L11 3L10 3L10 0ZM11 0L11 1L12 1L12 0ZM9 6L9 7L10 7L10 8L8 8L8 9L6 9L6 10L4 10L4 11L6 11L6 12L9 12L9 11L10 11L10 14L11 14L11 15L10 15L10 16L11 16L11 17L12 17L12 19L13 19L13 18L14 18L14 19L15 19L15 16L14 16L14 15L13 15L13 17L12 17L12 16L11 16L11 15L12 15L12 14L13 14L13 13L12 13L12 14L11 14L11 12L12 12L12 10L10 10L10 8L11 8L11 9L12 9L12 6L11 6L11 7L10 7L10 6ZM0 9L0 10L1 10L1 9ZM14 9L14 10L13 10L13 11L14 11L14 10L15 10L15 9ZM6 10L6 11L7 11L7 10ZM8 10L8 11L9 11L9 10ZM0 12L0 13L1 13L1 12ZM17 16L17 17L16 17L16 18L17 18L17 17L18 17L18 18L19 18L19 17L18 17L18 16ZM10 18L10 20L11 20L11 18ZM0 0L0 7L7 7L7 0ZM1 1L1 6L6 6L6 1ZM2 2L2 5L5 5L5 2ZM14 0L14 7L21 7L21 0ZM15 1L15 6L20 6L20 1ZM16 2L16 5L19 5L19 2ZM0 14L0 21L7 21L7 14ZM1 15L1 20L6 20L6 15ZM2 16L2 19L5 19L5 16Z" fill="#282828"/></g></g></svg>
