<?xml version="1.0" encoding="UTF-8"?>
<svg xmlns="http://www.w3.org/2000/svg" version="1.1" width="400" height="400" viewBox="0 0 400 400"><rect x="0" y="0" width="400" height="400" fill="#f5f5f5"/><g transform="scale(14.815)"><g transform="translate(3,3)"><path fill-rule="evenodd" d="M8 0L8 3L9 3L9 4L10 4L10 3L11 3L11 5L8 5L8 9L9 9L9 10L5 10L5 8L2 8L2 9L3 9L3 10L5 10L5 11L3 11L3 12L2 12L2 11L1 11L1 12L0 12L0 13L3 13L3 12L4 12L4 13L5 13L5 11L10 11L10 12L12 12L12 11L14 11L14 12L15 12L15 14L13 14L13 13L12 13L12 14L13 14L13 16L14 16L14 15L15 15L15 16L16 16L16 17L17 17L17 18L18 18L18 17L19 17L19 16L20 16L20 15L21 15L21 14L20 14L20 11L21 11L21 10L20 10L20 9L21 9L21 8L18 8L18 10L17 10L17 11L18 11L18 10L20 10L20 11L19 11L19 13L18 13L18 17L17 17L17 14L16 14L16 12L15 12L15 11L16 11L16 10L15 10L15 9L16 9L16 8L12 8L12 7L13 7L13 6L12 6L12 5L13 5L13 3L12 3L12 2L13 2L13 1L12 1L12 0L11 0L11 2L10 2L10 0ZM9 6L9 9L10 9L10 8L11 8L11 10L14 10L14 9L12 9L12 8L11 8L11 7L12 7L12 6L11 6L11 7L10 7L10 6ZM6 8L6 9L7 9L7 8ZM0 9L0 10L1 10L1 9ZM6 12L6 13L8 13L8 14L9 14L9 15L10 15L10 14L11 14L11 13L10 13L10 14L9 14L9 12ZM15 14L15 15L16 15L16 14ZM19 14L19 15L20 15L20 14ZM11 15L11 16L10 16L10 18L11 18L11 19L9 19L9 16L8 16L8 19L9 19L9 20L11 20L11 21L16 21L16 20L14 20L14 19L13 19L13 18L11 18L11 17L12 17L12 15ZM15 18L15 19L16 19L16 18ZM11 19L11 20L12 20L12 19ZM17 19L17 20L18 20L18 21L19 21L19 20L20 20L20 19L19 19L19 20L18 20L18 19ZM0 0L0 7L7 7L7 0ZM1 1L1 6L6 6L6 1ZM2 2L2 5L5 5L5 2ZM14 0L14 7L21 7L21 0ZM15 1L15 6L20 6L20 1ZM16 2L16 5L19 5L19 2ZM0 14L0 21L7 21L7 14ZM1 15L1 20L6 20L6 15ZM2 16L2 19L5 19L5 16Z" fill="#282828"/></g></g></svg>
