<?xml version="1.0" encoding="UTF-8"?>
<svg xmlns="http://www.w3.org/2000/svg" version="1.1" width="400" height="400" viewBox="0 0 400 400"><rect x="0" y="0" width="400" height="400" fill="#f5f5f5"/><g transform="scale(14.815)"><g transform="translate(3,3)"><path fill-rule="evenodd" d="M8 0L8 3L9 3L9 0ZM10 0L10 4L9 4L9 5L8 5L8 9L7 9L7 8L6 8L6 9L7 9L7 10L6 10L6 11L5 11L5 12L2 12L2 10L3 10L3 11L4 11L4 10L3 10L3 9L5 9L5 8L2 8L2 9L1 9L1 10L0 10L0 11L1 11L1 12L0 12L0 13L1 13L1 12L2 12L2 13L8 13L8 14L9 14L9 15L11 15L11 16L10 16L10 17L9 17L9 16L8 16L8 19L9 19L9 18L10 18L10 17L11 17L11 16L12 16L12 15L13 15L13 13L14 13L14 12L15 12L15 14L14 14L14 16L13 16L13 18L14 18L14 16L16 16L16 17L17 17L17 18L18 18L18 17L19 17L19 16L20 16L20 15L21 15L21 11L20 11L20 10L21 10L21 8L18 8L18 10L19 10L19 11L20 11L20 15L19 15L19 13L18 13L18 11L17 11L17 13L18 13L18 17L17 17L17 14L16 14L16 12L15 12L15 11L16 11L16 10L15 10L15 11L14 11L14 12L13 12L13 11L12 11L12 10L13 10L13 9L16 9L16 8L13 8L13 3L11 3L11 1L12 1L12 0ZM9 5L9 7L10 7L10 5ZM11 5L11 8L12 8L12 5ZM9 8L9 9L8 9L8 11L9 11L9 9L10 9L10 8ZM11 9L11 10L10 10L10 11L11 11L11 12L8 12L8 13L9 13L9 14L10 14L10 13L11 13L11 12L12 12L12 13L13 13L13 12L12 12L12 11L11 11L11 10L12 10L12 9ZM19 9L19 10L20 10L20 9ZM6 11L6 12L7 12L7 11ZM11 14L11 15L12 15L12 14ZM15 14L15 15L16 15L16 14ZM11 18L11 19L10 19L10 20L11 20L11 21L13 21L13 20L15 20L15 21L16 21L16 20L15 20L15 19L16 19L16 18L15 18L15 19L13 19L13 20L12 20L12 18ZM17 19L17 20L18 20L18 21L19 21L19 20L20 20L20 19L19 19L19 20L18 20L18 19ZM0 0L0 7L7 7L7 0ZM1 1L1 6L6 6L6 1ZM2 2L2 5L5 5L5 2ZM14 0L14 7L21 7L21 0ZM15 1L15 6L20 6L20 1ZM16 2L16 5L19 5L19 2ZM0 14L0 21L7 21L7 14ZM1 15L1 20L6 20L6 15ZM2 16L2 19L5 19L5 16Z" fill="#282828"/></g></g></svg>
