<?xml version="1.0" encoding="UTF-8"?>
<svg xmlns="http://www.w3.org/2000/svg" version="1.1" width="400" height="400" viewBox="0 0 400 400"><rect x="0" y="0" width="400" height="400" fill="#f5f5f5"/><g transform="scale(14.815)"><g transform="translate(3,3)"><path fill-rule="evenodd" d="M9 1L9 2L8 2L8 4L9 4L9 3L10 3L10 7L9 7L9 6L8 6L8 7L9 7L9 8L10 8L10 7L11 7L11 8L12 8L12 9L8 9L8 8L6 8L6 9L7 9L7 10L6 10L6 11L5 11L5 12L3 12L3 11L2 11L2 9L1 9L1 11L2 11L2 12L3 12L3 13L7 13L7 12L8 12L8 15L9 15L9 16L8 16L8 18L9 18L9 19L10 19L10 18L12 18L12 19L11 19L11 20L9 20L9 21L12 21L12 19L14 19L14 17L15 17L15 21L17 21L17 20L18 20L18 21L20 21L20 20L21 20L21 18L19 18L19 19L20 19L20 20L18 20L18 18L17 18L17 17L19 17L19 16L20 16L20 17L21 17L21 14L20 14L20 13L18 13L18 12L19 12L19 11L16 11L16 10L17 10L17 9L18 9L18 10L19 10L19 8L17 8L17 9L14 9L14 10L13 10L13 6L12 6L12 5L13 5L13 2L12 2L12 3L11 3L11 2L10 2L10 1ZM11 4L11 5L12 5L12 4ZM11 6L11 7L12 7L12 6ZM3 8L3 9L4 9L4 10L5 10L5 8ZM7 10L7 11L6 11L6 12L7 12L7 11L12 11L12 12L10 12L10 13L12 13L12 14L9 14L9 15L10 15L10 16L11 16L11 15L12 15L12 16L13 16L13 17L12 17L12 18L13 18L13 17L14 17L14 14L15 14L15 17L16 17L16 16L18 16L18 13L14 13L14 12L15 12L15 10L14 10L14 12L13 12L13 11L12 11L12 10ZM0 12L0 13L1 13L1 12ZM13 13L13 14L12 14L12 15L13 15L13 14L14 14L14 13ZM9 17L9 18L10 18L10 17ZM16 19L16 20L17 20L17 19ZM13 20L13 21L14 21L14 20ZM0 0L0 7L7 7L7 0ZM1 1L1 6L6 6L6 1ZM2 2L2 5L5 5L5 2ZM14 0L14 7L21 7L21 0ZM15 1L15 6L20 6L20 1ZM16 2L16 5L19 5L19 2ZM0 14L0 21L7 21L7 14ZM1 15L1 20L6 20L6 15ZM2 16L2 19L5 19L5 16Z" fill="#282828"/></g></g></svg>
