<?xml version="1.0" encoding="UTF-8"?>
<svg xmlns="http://www.w3.org/2000/svg" version="1.1" width="400" height="400" viewBox="0 0 400 400"><rect x="0" y="0" width="400" height="400" fill="#f5f5f5"/><g transform="scale(14.815)"><g transform="translate(3,3)"><path fill-rule="evenodd" d="M9 0L9 1L8 1L8 7L9 7L9 8L5 8L5 9L8 9L8 10L6 10L6 11L5 11L5 10L4 10L4 9L3 9L3 8L2 8L2 9L0 9L0 11L1 11L1 13L4 13L4 11L5 11L5 12L6 12L6 13L8 13L8 16L9 16L9 17L10 17L10 18L8 18L8 19L9 19L9 20L10 20L10 18L11 18L11 17L12 17L12 19L13 19L13 17L12 17L12 16L13 16L13 15L11 15L11 14L12 14L12 13L17 13L17 15L16 15L16 16L17 16L17 18L16 18L16 17L15 17L15 16L14 16L14 18L15 18L15 19L14 19L14 20L13 20L13 21L21 21L21 20L20 20L20 19L21 19L21 18L19 18L19 17L21 17L21 16L20 16L20 14L19 14L19 13L18 13L18 12L19 12L19 11L18 11L18 12L16 12L16 11L17 11L17 10L16 10L16 9L18 9L18 10L19 10L19 9L20 9L20 8L15 8L15 9L14 9L14 8L11 8L11 6L10 6L10 5L12 5L12 7L13 7L13 5L12 5L12 4L13 4L13 2L12 2L12 1L13 1L13 0L12 0L12 1L11 1L11 3L12 3L12 4L9 4L9 2L10 2L10 0ZM9 6L9 7L10 7L10 6ZM9 8L9 11L6 11L6 12L9 12L9 13L10 13L10 12L9 12L9 11L10 11L10 10L13 10L13 11L12 11L12 12L15 12L15 10L14 10L14 9L10 9L10 8ZM2 9L2 10L3 10L3 9ZM2 11L2 12L3 12L3 11ZM20 11L20 12L21 12L21 11ZM9 14L9 16L10 16L10 17L11 17L11 16L10 16L10 14ZM14 14L14 15L15 15L15 14ZM17 15L17 16L19 16L19 15ZM18 18L18 19L19 19L19 18ZM16 19L16 20L17 20L17 19ZM11 20L11 21L12 21L12 20ZM0 0L0 7L7 7L7 0ZM1 1L1 6L6 6L6 1ZM2 2L2 5L5 5L5 2ZM14 0L14 7L21 7L21 0ZM15 1L15 6L20 6L20 1ZM16 2L16 5L19 5L19 2ZM0 14L0 21L7 21L7 14ZM1 15L1 20L6 20L6 15ZM2 16L2 19L5 19L5 16Z" fill="#282828"/></g></g></svg>
