<?xml version="1.0" encoding="UTF-8"?>
<svg xmlns="http://www.w3.org/2000/svg" version="1.1" width="400" height="400" viewBox="0 0 400 400"><rect x="0" y="0" width="400" height="400" fill="#f5f5f5"/><g transform="scale(14.815)"><g transform="translate(3,3)"><path fill-rule="evenodd" d="M9 0L9 1L8 1L8 2L10 2L10 3L9 3L9 5L8 5L8 8L4 8L4 9L8 9L8 8L9 8L9 10L4 10L4 11L3 11L3 10L2 10L2 12L1 12L1 13L2 13L2 12L4 12L4 13L5 13L5 12L4 12L4 11L7 11L7 12L6 12L6 13L7 13L7 12L8 12L8 11L9 11L9 12L12 12L12 13L10 13L10 14L12 14L12 15L11 15L11 16L12 16L12 17L11 17L11 18L12 18L12 19L11 19L11 20L10 20L10 21L11 21L11 20L12 20L12 21L13 21L13 18L12 18L12 17L14 17L14 16L15 16L15 18L14 18L14 21L15 21L15 19L16 19L16 20L17 20L17 19L18 19L18 21L21 21L21 20L20 20L20 19L19 19L19 18L21 18L21 16L20 16L20 15L21 15L21 13L20 13L20 12L19 12L19 13L18 13L18 14L17 14L17 16L16 16L16 15L14 15L14 14L12 14L12 13L13 13L13 12L14 12L14 13L15 13L15 11L16 11L16 12L18 12L18 11L19 11L19 9L20 9L20 8L19 8L19 9L18 9L18 10L16 10L16 8L14 8L14 10L15 10L15 11L13 11L13 12L12 12L12 11L9 11L9 10L11 10L11 9L13 9L13 5L12 5L12 4L13 4L13 3L11 3L11 2L12 2L12 1L13 1L13 0L11 0L11 2L10 2L10 0ZM10 4L10 5L11 5L11 7L10 7L10 6L9 6L9 8L12 8L12 5L11 5L11 4ZM0 9L0 11L1 11L1 9ZM20 10L20 11L21 11L21 10ZM8 13L8 17L9 17L9 19L10 19L10 15L9 15L9 13ZM19 13L19 14L18 14L18 16L17 16L17 17L16 17L16 18L17 18L17 17L18 17L18 18L19 18L19 17L18 17L18 16L19 16L19 15L20 15L20 13ZM12 15L12 16L13 16L13 15ZM0 0L0 7L7 7L7 0ZM1 1L1 6L6 6L6 1ZM2 2L2 5L5 5L5 2ZM14 0L14 7L21 7L21 0ZM15 1L15 6L20 6L20 1ZM16 2L16 5L19 5L19 2ZM0 14L0 21L7 21L7 14ZM1 15L1 20L6 20L6 15ZM2 16L2 19L5 19L5 16Z" fill="#282828"/></g></g></svg>
