<?xml version="1.0" encoding="UTF-8"?>
<svg xmlns="http://www.w3.org/2000/svg" version="1.1" width="400" height="400" viewBox="0 0 400 400"><rect x="0" y="0" width="400" height="400" fill="#f5f5f5"/><g transform="scale(14.815)"><g transform="translate(3,3)"><path fill-rule="evenodd" d="M8 0L8 1L11 1L11 0ZM12 0L12 2L11 2L11 3L10 3L10 2L9 2L9 3L8 3L8 4L9 4L9 5L10 5L10 7L9 7L9 6L8 6L8 7L9 7L9 8L8 8L8 9L7 9L7 8L4 8L4 9L3 9L3 8L2 8L2 10L1 10L1 11L2 11L2 13L7 13L7 12L9 12L9 13L8 13L8 14L10 14L10 16L9 16L9 15L8 15L8 17L9 17L9 18L8 18L8 19L9 19L9 21L10 21L10 19L12 19L12 20L11 20L11 21L12 21L12 20L13 20L13 21L15 21L15 19L14 19L14 18L15 18L15 17L16 17L16 16L18 16L18 18L20 18L20 19L21 19L21 18L20 18L20 17L21 17L21 16L20 16L20 17L19 17L19 16L18 16L18 15L19 15L19 14L20 14L20 12L18 12L18 11L21 11L21 8L20 8L20 10L19 10L19 9L18 9L18 8L17 8L17 10L16 10L16 11L17 11L17 12L16 12L16 13L14 13L14 12L15 12L15 9L14 9L14 8L13 8L13 4L12 4L12 3L13 3L13 0ZM9 3L9 4L10 4L10 5L11 5L11 8L9 8L9 9L11 9L11 12L12 12L12 14L11 14L11 13L10 13L10 14L11 14L11 15L13 15L13 16L12 16L12 19L13 19L13 18L14 18L14 17L15 17L15 14L14 14L14 15L13 15L13 12L14 12L14 9L13 9L13 8L12 8L12 4L10 4L10 3ZM11 8L11 9L12 9L12 8ZM4 9L4 12L7 12L7 11L8 11L8 10L7 10L7 9L6 9L6 10L5 10L5 9ZM2 10L2 11L3 11L3 10ZM6 10L6 11L7 11L7 10ZM12 10L12 11L13 11L13 10ZM17 10L17 11L18 11L18 10ZM9 11L9 12L10 12L10 11ZM17 12L17 13L16 13L16 15L18 15L18 14L19 14L19 13L18 13L18 12ZM10 17L10 18L11 18L11 17ZM16 18L16 19L17 19L17 18ZM18 19L18 21L19 21L19 19ZM16 20L16 21L17 21L17 20ZM20 20L20 21L21 21L21 20ZM0 0L0 7L7 7L7 0ZM1 1L1 6L6 6L6 1ZM2 2L2 5L5 5L5 2ZM14 0L14 7L21 7L21 0ZM15 1L15 6L20 6L20 1ZM16 2L16 5L19 5L19 2ZM0 14L0 21L7 21L7 14ZM1 15L1 20L6 20L6 15ZM2 16L2 19L5 19L5 16Z" fill="#282828"/></g></g></svg>
