<?xml version="1.0" encoding="UTF-8"?>
<svg xmlns="http://www.w3.org/2000/svg" version="1.1" width="400" height="400" viewBox="0 0 400 400"><rect x="0" y="0" width="400" height="400" fill="#f5f5f5"/><g transform="scale(14.815)"><g transform="translate(3,3)"><path fill-rule="evenodd" d="M10 0L10 2L8 2L8 4L9 4L9 6L8 6L8 7L9 7L9 6L10 6L10 7L11 7L11 6L10 6L10 5L13 5L13 4L12 4L12 3L13 3L13 1L12 1L12 0ZM11 1L11 2L10 2L10 3L9 3L9 4L11 4L11 3L12 3L12 1ZM12 6L12 7L13 7L13 6ZM3 8L3 9L5 9L5 10L1 10L1 11L3 11L3 12L2 12L2 13L3 13L3 12L4 12L4 13L7 13L7 12L6 12L6 11L9 11L9 12L8 12L8 15L9 15L9 16L8 16L8 18L10 18L10 19L11 19L11 17L12 17L12 18L13 18L13 17L14 17L14 18L15 18L15 19L14 19L14 20L15 20L15 21L17 21L17 20L18 20L18 21L20 21L20 20L21 20L21 18L19 18L19 19L20 19L20 20L18 20L18 18L17 18L17 17L19 17L19 16L20 16L20 17L21 17L21 13L19 13L19 12L18 12L18 16L16 16L16 17L15 17L15 15L13 15L13 16L12 16L12 13L11 13L11 14L10 14L10 15L9 15L9 13L10 13L10 10L8 10L8 8L6 8L6 9L5 9L5 8ZM9 8L9 9L10 9L10 8ZM11 8L11 9L13 9L13 8ZM17 8L17 9L15 9L15 11L13 11L13 10L12 10L12 11L11 11L11 12L12 12L12 11L13 11L13 14L15 14L15 13L17 13L17 11L20 11L20 12L21 12L21 9L20 9L20 10L17 10L17 9L19 9L19 8ZM6 9L6 10L7 10L7 9ZM16 10L16 11L17 11L17 10ZM4 11L4 12L5 12L5 11ZM0 12L0 13L1 13L1 12ZM14 12L14 13L15 13L15 12ZM12 19L12 20L10 20L10 21L13 21L13 19ZM16 19L16 20L17 20L17 19ZM0 0L0 7L7 7L7 0ZM1 1L1 6L6 6L6 1ZM2 2L2 5L5 5L5 2ZM14 0L14 7L21 7L21 0ZM15 1L15 6L20 6L20 1ZM16 2L16 5L19 5L19 2ZM0 14L0 21L7 21L7 14ZM1 15L1 20L6 20L6 15ZM2 16L2 19L5 19L5 16Z" fill="#282828"/></g></g></svg>
