<?xml version="1.0" encoding="UTF-8"?>
<svg xmlns="http://www.w3.org/2000/svg" version="1.1" width="400" height="400" viewBox="0 0 400 400"><rect x="0" y="0" width="400" height="400" fill="#f5f5f5"/><g transform="scale(14.815)"><g transform="translate(3,3)"><path fill-rule="evenodd" d="M11 0L11 1L9 1L9 2L8 2L8 4L9 4L9 5L10 5L10 7L9 7L9 6L8 6L8 7L9 7L9 8L10 8L10 7L11 7L11 9L10 9L10 11L8 11L8 10L9 10L9 9L8 9L8 8L6 8L6 9L5 9L5 8L3 8L3 9L1 9L1 10L3 10L3 11L1 11L1 12L0 12L0 13L3 13L3 11L4 11L4 13L7 13L7 12L5 12L5 11L8 11L8 12L9 12L9 13L8 13L8 15L10 15L10 12L11 12L11 14L12 14L12 15L11 15L11 16L8 16L8 18L10 18L10 19L9 19L9 20L10 20L10 19L11 19L11 20L12 20L12 21L17 21L17 20L18 20L18 21L20 21L20 20L21 20L21 18L19 18L19 19L20 19L20 20L18 20L18 18L17 18L17 17L19 17L19 16L20 16L20 17L21 17L21 14L20 14L20 13L21 13L21 11L20 11L20 10L21 10L21 9L19 9L19 8L17 8L17 9L15 9L15 10L14 10L14 11L13 11L13 12L11 12L11 9L12 9L12 10L13 10L13 6L12 6L12 7L11 7L11 5L12 5L12 4L13 4L13 2L12 2L12 4L11 4L11 5L10 5L10 3L9 3L9 2L11 2L11 1L13 1L13 0ZM4 9L4 11L5 11L5 9ZM6 9L6 10L8 10L8 9ZM17 9L17 10L16 10L16 11L18 11L18 12L19 12L19 11L18 11L18 10L19 10L19 9ZM14 12L14 14L13 14L13 13L12 13L12 14L13 14L13 15L12 15L12 16L11 16L11 17L10 17L10 18L11 18L11 19L12 19L12 20L15 20L15 18L14 18L14 17L12 17L12 16L13 16L13 15L14 15L14 16L15 16L15 17L16 17L16 16L18 16L18 13L15 13L15 12ZM14 14L14 15L15 15L15 14ZM11 17L11 18L12 18L12 19L14 19L14 18L12 18L12 17ZM16 19L16 20L17 20L17 19ZM0 0L0 7L7 7L7 0ZM1 1L1 6L6 6L6 1ZM2 2L2 5L5 5L5 2ZM14 0L14 7L21 7L21 0ZM15 1L15 6L20 6L20 1ZM16 2L16 5L19 5L19 2ZM0 14L0 21L7 21L7 14ZM1 15L1 20L6 20L6 15ZM2 16L2 19L5 19L5 16Z" fill="#282828"/></g></g></svg>
