<?xml version="1.0" encoding="UTF-8"?>
<svg xmlns="http://www.w3.org/2000/svg" version="1.1" width="400" height="400" viewBox="0 0 400 400"><rect x="0" y="0" width="400" height="400" fill="#f5f5f5"/><g transform="scale(14.815)"><g transform="translate(3,3)"><path fill-rule="evenodd" d="M9 0L9 1L8 1L8 7L9 7L9 3L10 3L10 1L11 1L11 2L12 2L12 3L11 3L11 4L13 4L13 0L12 0L12 1L11 1L11 0ZM10 5L10 7L11 7L11 8L13 8L13 9L14 9L14 8L13 8L13 5L12 5L12 7L11 7L11 5ZM2 8L2 9L0 9L0 10L1 10L1 13L7 13L7 12L8 12L8 11L7 11L7 10L6 10L6 11L5 11L5 10L4 10L4 9L3 9L3 8ZM5 8L5 9L9 9L9 10L10 10L10 12L9 12L9 13L8 13L8 16L9 16L9 18L8 18L8 19L9 19L9 18L10 18L10 20L11 20L11 21L14 21L14 20L15 20L15 21L21 21L21 20L20 20L20 19L21 19L21 18L19 18L19 17L21 17L21 16L20 16L20 14L21 14L21 13L20 13L20 12L21 12L21 9L20 9L20 8L15 8L15 10L11 10L11 9L9 9L9 8ZM2 9L2 10L3 10L3 9ZM16 9L16 10L18 10L18 11L16 11L16 12L18 12L18 11L19 11L19 10L18 10L18 9ZM2 11L2 12L5 12L5 11ZM6 11L6 12L7 12L7 11ZM11 11L11 12L10 12L10 13L9 13L9 14L10 14L10 13L11 13L11 14L12 14L12 13L11 13L11 12L12 12L12 11ZM13 11L13 13L15 13L15 14L13 14L13 15L14 15L14 16L15 16L15 17L13 17L13 18L12 18L12 20L14 20L14 19L13 19L13 18L15 18L15 17L16 17L16 18L17 18L17 16L19 16L19 15L17 15L17 14L20 14L20 13L15 13L15 11ZM10 15L10 18L11 18L11 16L12 16L12 15ZM16 15L16 16L17 16L17 15ZM18 18L18 19L19 19L19 18ZM16 19L16 20L17 20L17 19ZM0 0L0 7L7 7L7 0ZM1 1L1 6L6 6L6 1ZM2 2L2 5L5 5L5 2ZM14 0L14 7L21 7L21 0ZM15 1L15 6L20 6L20 1ZM16 2L16 5L19 5L19 2ZM0 14L0 21L7 21L7 14ZM1 15L1 20L6 20L6 15ZM2 16L2 19L5 19L5 16Z" fill="#282828"/></g></g></svg>
