<?xml version="1.0" encoding="UTF-8"?>
<svg xmlns="http://www.w3.org/2000/svg" version="1.1" width="400" height="400" viewBox="0 0 400 400"><rect x="0" y="0" width="400" height="400" fill="#f5f5f5"/><g transform="scale(14.815)"><g transform="translate(3,3)"><path fill-rule="evenodd" d="M10 0L10 1L8 1L8 2L10 2L10 3L9 3L9 4L10 4L10 5L8 5L8 8L4 8L4 9L0 9L0 12L1 12L1 13L2 13L2 12L1 12L1 10L2 10L2 11L4 11L4 12L3 12L3 13L4 13L4 12L5 12L5 11L7 11L7 12L6 12L6 13L7 13L7 12L9 12L9 13L8 13L8 17L9 17L9 16L10 16L10 19L9 19L9 21L10 21L10 19L11 19L11 20L12 20L12 16L14 16L14 15L15 15L15 17L14 17L14 18L15 18L15 19L16 19L16 20L17 20L17 19L18 19L18 21L21 21L21 20L20 20L20 19L19 19L19 18L21 18L21 16L20 16L20 15L21 15L21 13L18 13L18 14L17 14L17 16L16 16L16 15L15 15L15 14L13 14L13 15L11 15L11 14L12 14L12 13L13 13L13 12L14 12L14 13L15 13L15 12L14 12L14 11L13 11L13 9L12 9L12 8L13 8L13 5L11 5L11 4L10 4L10 3L11 3L11 2L12 2L12 4L13 4L13 1L11 1L11 0ZM10 5L10 6L9 6L9 7L10 7L10 6L11 6L11 8L12 8L12 6L11 6L11 5ZM8 8L8 10L7 10L7 9L6 9L6 10L7 10L7 11L8 11L8 10L10 10L10 13L9 13L9 15L10 15L10 16L11 16L11 15L10 15L10 14L11 14L11 11L12 11L12 12L13 12L13 11L12 11L12 10L11 10L11 9L10 9L10 8ZM14 8L14 10L15 10L15 11L16 11L16 12L17 12L17 11L18 11L18 12L19 12L19 11L20 11L20 8L19 8L19 9L18 9L18 10L16 10L16 8ZM4 9L4 11L5 11L5 9ZM18 10L18 11L19 11L19 10ZM18 14L18 16L17 16L17 17L16 17L16 18L17 18L17 17L18 17L18 18L19 18L19 17L18 17L18 16L19 16L19 15L20 15L20 14ZM13 19L13 21L15 21L15 20L14 20L14 19ZM0 0L0 7L7 7L7 0ZM1 1L1 6L6 6L6 1ZM2 2L2 5L5 5L5 2ZM14 0L14 7L21 7L21 0ZM15 1L15 6L20 6L20 1ZM16 2L16 5L19 5L19 2ZM0 14L0 21L7 21L7 14ZM1 15L1 20L6 20L6 15ZM2 16L2 19L5 19L5 16Z" fill="#282828"/></g></g></svg>
