<?xml version="1.0" encoding="UTF-8"?>
<svg xmlns="http://www.w3.org/2000/svg" version="1.1" width="400" height="400" viewBox="0 0 400 400"><rect x="0" y="0" width="400" height="400" fill="#f5f5f5"/><g transform="scale(14.815)"><g transform="translate(3,3)"><path fill-rule="evenodd" d="M8 0L8 1L10 1L10 0ZM11 0L11 2L12 2L12 5L13 5L13 2L12 2L12 1L13 1L13 0ZM8 3L8 4L9 4L9 5L11 5L11 3ZM8 6L8 7L9 7L9 8L8 8L8 9L7 9L7 8L4 8L4 9L3 9L3 8L2 8L2 9L3 9L3 10L2 10L2 11L1 11L1 12L2 12L2 11L3 11L3 12L4 12L4 13L7 13L7 12L6 12L6 11L7 11L7 10L8 10L8 11L11 11L11 12L10 12L10 14L9 14L9 12L8 12L8 14L9 14L9 15L8 15L8 17L9 17L9 18L8 18L8 19L9 19L9 18L10 18L10 20L9 20L9 21L10 21L10 20L13 20L13 19L14 19L14 20L15 20L15 18L14 18L14 16L13 16L13 15L12 15L12 14L14 14L14 15L15 15L15 17L16 17L16 16L18 16L18 18L20 18L20 19L21 19L21 18L20 18L20 17L21 17L21 16L20 16L20 17L19 17L19 16L18 16L18 15L19 15L19 14L18 14L18 12L19 12L19 13L20 13L20 14L21 14L21 12L19 12L19 10L16 10L16 11L18 11L18 12L16 12L16 13L15 13L15 12L14 12L14 11L15 11L15 10L14 10L14 11L11 11L11 10L12 10L12 9L14 9L14 8L13 8L13 6L12 6L12 7L11 7L11 6L10 6L10 7L9 7L9 6ZM9 8L9 9L8 9L8 10L10 10L10 9L12 9L12 8ZM17 8L17 9L18 9L18 8ZM20 8L20 11L21 11L21 8ZM6 9L6 10L7 10L7 9ZM4 10L4 12L5 12L5 10ZM11 12L11 13L13 13L13 12ZM16 13L16 15L18 15L18 14L17 14L17 13ZM10 14L10 15L11 15L11 14ZM9 16L9 17L10 17L10 18L11 18L11 17L12 17L12 16ZM16 18L16 19L17 19L17 18ZM18 19L18 21L19 21L19 19ZM16 20L16 21L17 21L17 20ZM20 20L20 21L21 21L21 20ZM0 0L0 7L7 7L7 0ZM1 1L1 6L6 6L6 1ZM2 2L2 5L5 5L5 2ZM14 0L14 7L21 7L21 0ZM15 1L15 6L20 6L20 1ZM16 2L16 5L19 5L19 2ZM0 14L0 21L7 21L7 14ZM1 15L1 20L6 20L6 15ZM2 16L2 19L5 19L5 16Z" fill="#282828"/></g></g></svg>
