<?xml version="1.0" encoding="UTF-8"?>
<svg xmlns="http://www.w3.org/2000/svg" version="1.1" width="400" height="400" viewBox="0 0 400 400"><rect x="0" y="0" width="400" height="400" fill="#f5f5f5"/><g transform="scale(14.815)"><g transform="translate(3,3)"><path fill-rule="evenodd" d="M8 0L8 2L9 2L9 3L8 3L8 7L9 7L9 10L8 10L8 9L7 9L7 8L6 8L6 9L5 9L5 10L3 10L3 9L4 9L4 8L3 8L3 9L2 9L2 10L1 10L1 9L0 9L0 10L1 10L1 11L0 11L0 13L1 13L1 12L2 12L2 13L4 13L4 11L9 11L9 10L10 10L10 11L11 11L11 12L6 12L6 13L8 13L8 14L9 14L9 13L13 13L13 12L14 12L14 14L13 14L13 16L14 16L14 17L10 17L10 16L11 16L11 14L10 14L10 15L9 15L9 17L8 17L8 18L9 18L9 20L10 20L10 18L13 18L13 19L12 19L12 20L13 20L13 21L14 21L14 18L15 18L15 17L17 17L17 18L16 18L16 21L19 21L19 20L20 20L20 19L21 19L21 16L18 16L18 15L19 15L19 14L20 14L20 15L21 15L21 14L20 14L20 13L21 13L21 10L20 10L20 9L21 9L21 8L19 8L19 9L18 9L18 8L15 8L15 9L13 9L13 8L12 8L12 9L11 9L11 6L10 6L10 7L9 7L9 4L10 4L10 5L11 5L11 4L13 4L13 3L12 3L12 2L11 2L11 4L10 4L10 2L9 2L9 0ZM12 6L12 7L13 7L13 6ZM6 9L6 10L7 10L7 9ZM15 9L15 10L12 10L12 11L14 11L14 12L15 12L15 13L16 13L16 12L17 12L17 13L18 13L18 12L20 12L20 10L18 10L18 12L17 12L17 9ZM2 10L2 12L3 12L3 10ZM16 14L16 15L17 15L17 14ZM17 16L17 17L18 17L18 16ZM9 17L9 18L10 18L10 17ZM17 18L17 20L18 20L18 19L20 19L20 18ZM0 0L0 7L7 7L7 0ZM1 1L1 6L6 6L6 1ZM2 2L2 5L5 5L5 2ZM14 0L14 7L21 7L21 0ZM15 1L15 6L20 6L20 1ZM16 2L16 5L19 5L19 2ZM0 14L0 21L7 21L7 14ZM1 15L1 20L6 20L6 15ZM2 16L2 19L5 19L5 16Z" fill="#282828"/></g></g></svg>
