<?xml version="1.0" encoding="UTF-8"?>
<svg xmlns="http://www.w3.org/2000/svg" version="1.1" width="400" height="400" viewBox="0 0 400 400"><rect x="0" y="0" width="400" height="400" fill="#f5f5f5"/><g transform="scale(14.815)"><g transform="translate(3,3)"><path fill-rule="evenodd" d="M9 0L9 2L8 2L8 4L9 4L9 6L8 6L8 7L9 7L9 9L10 9L10 7L11 7L11 6L12 6L12 7L13 7L13 5L12 5L12 3L10 3L10 2L12 2L12 1L13 1L13 0L12 0L12 1L11 1L11 0ZM10 4L10 6L9 6L9 7L10 7L10 6L11 6L11 4ZM3 8L3 10L1 10L1 9L0 9L0 11L1 11L1 12L2 12L2 13L3 13L3 12L4 12L4 13L8 13L8 15L9 15L9 14L11 14L11 15L13 15L13 16L10 16L10 17L9 17L9 16L8 16L8 18L9 18L9 20L10 20L10 21L17 21L17 20L18 20L18 21L20 21L20 20L21 20L21 18L19 18L19 19L20 19L20 20L18 20L18 18L17 18L17 17L19 17L19 16L20 16L20 17L21 17L21 14L19 14L19 13L21 13L21 12L20 12L20 10L21 10L21 9L19 9L19 8L17 8L17 9L15 9L15 10L13 10L13 11L12 11L12 10L11 10L11 11L10 11L10 10L9 10L9 11L10 11L10 13L9 13L9 12L8 12L8 8L6 8L6 9L5 9L5 8ZM11 8L11 9L12 9L12 8ZM6 9L6 10L7 10L7 9ZM17 9L17 10L16 10L16 11L17 11L17 10L18 10L18 11L19 11L19 9ZM4 11L4 12L5 12L5 11ZM6 11L6 12L7 12L7 11ZM11 11L11 14L12 14L12 13L13 13L13 12L15 12L15 11L13 11L13 12L12 12L12 11ZM14 13L14 14L13 14L13 15L14 15L14 14L15 14L15 17L14 17L14 16L13 16L13 17L12 17L12 18L11 18L11 20L12 20L12 18L15 18L15 17L16 17L16 16L18 16L18 13ZM14 19L14 20L15 20L15 19ZM16 19L16 20L17 20L17 19ZM0 0L0 7L7 7L7 0ZM1 1L1 6L6 6L6 1ZM2 2L2 5L5 5L5 2ZM14 0L14 7L21 7L21 0ZM15 1L15 6L20 6L20 1ZM16 2L16 5L19 5L19 2ZM0 14L0 21L7 21L7 14ZM1 15L1 20L6 20L6 15ZM2 16L2 19L5 19L5 16Z" fill="#282828"/></g></g></svg>
