<?xml version="1.0" encoding="UTF-8"?>
<svg xmlns="http://www.w3.org/2000/svg" version="1.1" width="400" height="400" viewBox="0 0 400 400"><rect x="0" y="0" width="400" height="400" fill="#f5f5f5"/><g transform="scale(14.815)"><g transform="translate(3,3)"><path fill-rule="evenodd" d="M8 0L8 3L9 3L9 4L10 4L10 5L8 5L8 9L9 9L9 10L10 10L10 11L9 11L9 12L8 12L8 11L7 11L7 10L5 10L5 8L2 8L2 9L3 9L3 10L2 10L2 12L5 12L5 13L8 13L8 14L9 14L9 15L11 15L11 18L10 18L10 16L8 16L8 19L9 19L9 18L10 18L10 20L9 20L9 21L10 21L10 20L11 20L11 21L12 21L12 20L13 20L13 21L16 21L16 20L15 20L15 19L16 19L16 18L15 18L15 19L14 19L14 15L15 15L15 16L16 16L16 17L17 17L17 18L18 18L18 17L19 17L19 16L20 16L20 15L21 15L21 12L20 12L20 15L19 15L19 14L18 14L18 17L17 17L17 14L16 14L16 12L14 12L14 11L13 11L13 10L15 10L15 11L16 11L16 10L15 10L15 9L16 9L16 8L12 8L12 10L10 10L10 9L9 9L9 8L10 8L10 7L11 7L11 6L12 6L12 7L13 7L13 6L12 6L12 5L13 5L13 3L12 3L12 2L13 2L13 0L11 0L11 1L12 1L12 2L11 2L11 4L10 4L10 3L9 3L9 1L10 1L10 0ZM11 4L11 5L12 5L12 4ZM9 6L9 7L10 7L10 6ZM6 8L6 9L7 9L7 8ZM18 8L18 10L17 10L17 11L18 11L18 13L19 13L19 11L21 11L21 8ZM0 9L0 11L1 11L1 9ZM19 9L19 10L18 10L18 11L19 11L19 10L20 10L20 9ZM3 10L3 11L5 11L5 12L7 12L7 11L5 11L5 10ZM10 11L10 12L11 12L11 11ZM12 12L12 19L11 19L11 20L12 20L12 19L13 19L13 15L14 15L14 14L13 14L13 12ZM10 13L10 14L11 14L11 13ZM15 14L15 15L16 15L16 14ZM17 19L17 20L18 20L18 21L19 21L19 20L20 20L20 19L19 19L19 20L18 20L18 19ZM0 0L0 7L7 7L7 0ZM1 1L1 6L6 6L6 1ZM2 2L2 5L5 5L5 2ZM14 0L14 7L21 7L21 0ZM15 1L15 6L20 6L20 1ZM16 2L16 5L19 5L19 2ZM0 14L0 21L7 21L7 14ZM1 15L1 20L6 20L6 15ZM2 16L2 19L5 19L5 16Z" fill="#282828"/></g></g></svg>
