<?xml version="1.0" encoding="UTF-8"?>
<svg xmlns="http://www.w3.org/2000/svg" version="1.1" width="400" height="400" viewBox="0 0 400 400"><rect x="0" y="0" width="400" height="400" fill="#f5f5f5"/><g transform="scale(14.815)"><g transform="translate(3,3)"><path fill-rule="evenodd" d="M8 0L8 1L9 1L9 2L10 2L10 4L9 4L9 3L8 3L8 4L9 4L9 6L8 6L8 7L9 7L9 8L8 8L8 9L7 9L7 8L4 8L4 9L3 9L3 8L2 8L2 9L0 9L0 10L2 10L2 12L0 12L0 13L2 13L2 12L3 12L3 13L4 13L4 11L5 11L5 9L7 9L7 10L6 10L6 11L7 11L7 10L10 10L10 11L11 11L11 12L12 12L12 11L13 11L13 14L12 14L12 13L11 13L11 15L10 15L10 16L9 16L9 15L8 15L8 17L9 17L9 18L8 18L8 19L9 19L9 21L10 21L10 16L11 16L11 19L12 19L12 20L11 20L11 21L12 21L12 20L13 20L13 21L15 21L15 17L16 17L16 16L18 16L18 18L20 18L20 19L21 19L21 18L20 18L20 17L21 17L21 16L20 16L20 17L19 17L19 16L18 16L18 15L19 15L19 14L21 14L21 12L20 12L20 13L19 13L19 12L18 12L18 15L16 15L16 13L17 13L17 12L16 12L16 13L15 13L15 14L14 14L14 12L15 12L15 10L13 10L13 9L14 9L14 8L13 8L13 6L12 6L12 5L13 5L13 3L11 3L11 2L13 2L13 1L11 1L11 0L10 0L10 1L9 1L9 0ZM9 6L9 7L10 7L10 6ZM11 6L11 7L12 7L12 6ZM17 8L17 9L18 9L18 8ZM20 8L20 9L21 9L21 8ZM2 9L2 10L3 10L3 9ZM10 9L10 10L11 10L11 9ZM16 10L16 11L17 11L17 10ZM18 10L18 11L20 11L20 10ZM8 11L8 14L10 14L10 13L9 13L9 11ZM5 12L5 13L7 13L7 12ZM12 15L12 19L13 19L13 20L14 20L14 18L13 18L13 15ZM14 15L14 17L15 17L15 15ZM16 18L16 19L17 19L17 18ZM18 19L18 21L19 21L19 19ZM16 20L16 21L17 21L17 20ZM20 20L20 21L21 21L21 20ZM0 0L0 7L7 7L7 0ZM1 1L1 6L6 6L6 1ZM2 2L2 5L5 5L5 2ZM14 0L14 7L21 7L21 0ZM15 1L15 6L20 6L20 1ZM16 2L16 5L19 5L19 2ZM0 14L0 21L7 21L7 14ZM1 15L1 20L6 20L6 15ZM2 16L2 19L5 19L5 16Z" fill="#282828"/></g></g></svg>
