<?xml version="1.0" encoding="UTF-8"?>
<svg xmlns="http://www.w3.org/2000/svg" version="1.1" width="400" height="400" viewBox="0 0 400 400"><rect x="0" y="0" width="400" height="400" fill="#f5f5f5"/><g transform="scale(14.815)"><g transform="translate(3,3)"><path fill-rule="evenodd" d="M8 0L8 1L9 1L9 2L8 2L8 3L9 3L9 4L8 4L8 5L9 5L9 6L8 6L8 8L10 8L10 9L9 9L9 10L10 10L10 11L11 11L11 12L9 12L9 11L8 11L8 12L9 12L9 13L8 13L8 14L9 14L9 13L10 13L10 15L8 15L8 16L10 16L10 18L9 18L9 19L10 19L10 20L9 20L9 21L10 21L10 20L12 20L12 21L16 21L16 19L17 19L17 20L18 20L18 21L19 21L19 20L20 20L20 19L21 19L21 18L19 18L19 20L18 20L18 17L19 17L19 16L21 16L21 13L20 13L20 12L21 12L21 11L20 11L20 10L21 10L21 8L20 8L20 10L19 10L19 8L18 8L18 9L17 9L17 8L16 8L16 9L15 9L15 8L14 8L14 9L15 9L15 10L14 10L14 12L15 12L15 13L17 13L17 14L16 14L16 15L17 15L17 14L18 14L18 17L17 17L17 16L16 16L16 17L14 17L14 14L13 14L13 16L12 16L12 18L11 18L11 16L10 16L10 15L11 15L11 12L12 12L12 13L13 13L13 11L12 11L12 8L11 8L11 6L12 6L12 7L13 7L13 6L12 6L12 3L11 3L11 2L13 2L13 0L10 0L10 1L9 1L9 0ZM9 4L9 5L10 5L10 4ZM9 6L9 7L10 7L10 6ZM5 8L5 9L7 9L7 10L6 10L6 11L7 11L7 10L8 10L8 9L7 9L7 8ZM0 9L0 11L1 11L1 9ZM2 9L2 11L3 11L3 12L4 12L4 13L5 13L5 12L4 12L4 11L5 11L5 10L4 10L4 9ZM16 10L16 12L17 12L17 13L18 13L18 12L17 12L17 10ZM18 10L18 11L19 11L19 12L20 12L20 11L19 11L19 10ZM6 12L6 13L7 13L7 12ZM19 14L19 15L20 15L20 14ZM16 17L16 18L17 18L17 17ZM13 18L13 20L15 20L15 19L14 19L14 18ZM0 0L0 7L7 7L7 0ZM1 1L1 6L6 6L6 1ZM2 2L2 5L5 5L5 2ZM14 0L14 7L21 7L21 0ZM15 1L15 6L20 6L20 1ZM16 2L16 5L19 5L19 2ZM0 14L0 21L7 21L7 14ZM1 15L1 20L6 20L6 15ZM2 16L2 19L5 19L5 16Z" fill="#282828"/></g></g></svg>
