<?xml version="1.0" encoding="UTF-8"?>
<svg xmlns="http://www.w3.org/2000/svg" version="1.1" width="400" height="400" viewBox="0 0 400 400"><rect x="0" y="0" width="400" height="400" fill="#f5f5f5"/><g transform="scale(14.815)"><g transform="translate(3,3)"><path fill-rule="evenodd" d="M8 1L8 2L9 2L9 1ZM12 1L12 2L11 2L11 3L9 3L9 5L8 5L8 8L4 8L4 9L1 9L1 10L2 10L2 13L4 13L4 12L5 12L5 11L7 11L7 12L6 12L6 13L8 13L8 17L9 17L9 18L10 18L10 20L9 20L9 21L13 21L13 20L11 20L11 19L12 19L12 17L14 17L14 20L15 20L15 19L16 19L16 20L17 20L17 19L18 19L18 21L21 21L21 20L20 20L20 19L19 19L19 18L21 18L21 16L20 16L20 15L21 15L21 14L20 14L20 15L19 15L19 16L18 16L18 14L19 14L19 13L20 13L20 12L21 12L21 10L20 10L20 8L19 8L19 9L17 9L17 10L16 10L16 8L14 8L14 9L13 9L13 8L11 8L11 10L10 10L10 9L8 9L8 8L10 8L10 7L11 7L11 6L12 6L12 7L13 7L13 5L12 5L12 4L13 4L13 3L12 3L12 2L13 2L13 1ZM10 4L10 5L9 5L9 7L10 7L10 6L11 6L11 4ZM4 9L4 11L3 11L3 12L4 12L4 11L5 11L5 10L8 10L8 11L9 11L9 13L11 13L11 14L14 14L14 16L15 16L15 15L16 15L16 16L17 16L17 17L16 17L16 18L17 18L17 17L18 17L18 18L19 18L19 17L18 17L18 16L17 16L17 13L19 13L19 12L20 12L20 10L18 10L18 11L19 11L19 12L16 12L16 11L13 11L13 12L12 12L12 13L11 13L11 12L10 12L10 11L9 11L9 10L8 10L8 9ZM14 9L14 10L15 10L15 9ZM0 11L0 13L1 13L1 11ZM13 12L13 13L15 13L15 12ZM9 14L9 15L10 15L10 16L11 16L11 17L12 17L12 16L13 16L13 15L10 15L10 14ZM0 0L0 7L7 7L7 0ZM1 1L1 6L6 6L6 1ZM2 2L2 5L5 5L5 2ZM14 0L14 7L21 7L21 0ZM15 1L15 6L20 6L20 1ZM16 2L16 5L19 5L19 2ZM0 14L0 21L7 21L7 14ZM1 15L1 20L6 20L6 15ZM2 16L2 19L5 19L5 16Z" fill="#282828"/></g></g></svg>
