<?xml version="1.0" encoding="UTF-8"?>
<svg xmlns="http://www.w3.org/2000/svg" version="1.1" width="400" height="400" viewBox="0 0 400 400"><rect x="0" y="0" width="400" height="400" fill="#f5f5f5"/><g transform="scale(14.815)"><g transform="translate(3,3)"><path fill-rule="evenodd" d="M8 0L8 1L9 1L9 2L10 2L10 3L11 3L11 4L12 4L12 5L10 5L10 4L9 4L9 3L8 3L8 4L9 4L9 6L8 6L8 7L9 7L9 6L10 6L10 7L11 7L11 8L13 8L13 9L11 9L11 10L10 10L10 11L9 11L9 12L10 12L10 11L11 11L11 12L12 12L12 14L13 14L13 11L11 11L11 10L14 10L14 11L15 11L15 9L14 9L14 8L13 8L13 6L12 6L12 5L13 5L13 4L12 4L12 3L11 3L11 2L13 2L13 0L11 0L11 2L10 2L10 0ZM11 6L11 7L12 7L12 6ZM2 8L2 9L1 9L1 10L0 10L0 11L1 11L1 10L2 10L2 9L3 9L3 8ZM4 8L4 9L5 9L5 10L6 10L6 11L8 11L8 10L6 10L6 9L7 9L7 8ZM8 8L8 9L10 9L10 8ZM17 8L17 10L16 10L16 11L18 11L18 12L16 12L16 13L14 13L14 16L13 16L13 17L12 17L12 16L11 16L11 14L10 14L10 15L8 15L8 17L9 17L9 18L8 18L8 19L10 19L10 17L11 17L11 18L12 18L12 19L11 19L11 20L10 20L10 21L11 21L11 20L12 20L12 21L14 21L14 16L15 16L15 17L16 17L16 16L18 16L18 18L20 18L20 19L21 19L21 18L20 18L20 17L21 17L21 16L20 16L20 17L19 17L19 16L18 16L18 15L19 15L19 13L21 13L21 11L20 11L20 10L18 10L18 8ZM20 8L20 9L21 9L21 8ZM3 10L3 11L4 11L4 10ZM0 12L0 13L2 13L2 12ZM4 12L4 13L5 13L5 12ZM6 12L6 13L8 13L8 14L9 14L9 13L8 13L8 12ZM16 13L16 15L18 15L18 13ZM9 16L9 17L10 17L10 16ZM16 18L16 19L17 19L17 18ZM12 19L12 20L13 20L13 19ZM18 19L18 21L19 21L19 19ZM16 20L16 21L17 21L17 20ZM20 20L20 21L21 21L21 20ZM0 0L0 7L7 7L7 0ZM1 1L1 6L6 6L6 1ZM2 2L2 5L5 5L5 2ZM14 0L14 7L21 7L21 0ZM15 1L15 6L20 6L20 1ZM16 2L16 5L19 5L19 2ZM0 14L0 21L7 21L7 14ZM1 15L1 20L6 20L6 15ZM2 16L2 19L5 19L5 16Z" fill="#282828"/></g></g></svg>
