<?xml version="1.0" encoding="UTF-8"?>
<svg xmlns="http://www.w3.org/2000/svg" version="1.1" width="400" height="400" viewBox="0 0 400 400"><rect x="0" y="0" width="400" height="400" fill="#f5f5f5"/><g transform="scale(14.815)"><g transform="translate(3,3)"><path fill-rule="evenodd" d="M11 0L11 1L12 1L12 2L10 2L10 1L8 1L8 2L9 2L9 5L8 5L8 8L4 8L4 9L3 9L3 10L2 10L2 12L0 12L0 13L2 13L2 12L4 12L4 13L5 13L5 11L4 11L4 10L5 10L5 9L7 9L7 10L6 10L6 11L7 11L7 10L10 10L10 13L9 13L9 11L8 11L8 17L9 17L9 21L12 21L12 20L13 20L13 21L15 21L15 19L16 19L16 20L17 20L17 19L18 19L18 21L21 21L21 20L20 20L20 19L19 19L19 18L21 18L21 16L20 16L20 15L21 15L21 14L20 14L20 15L19 15L19 16L18 16L18 14L19 14L19 13L21 13L21 11L20 11L20 8L19 8L19 9L18 9L18 12L17 12L17 10L16 10L16 8L14 8L14 9L13 9L13 6L12 6L12 5L11 5L11 3L13 3L13 1L12 1L12 0ZM9 5L9 8L8 8L8 9L10 9L10 10L11 10L11 14L10 14L10 15L9 15L9 17L10 17L10 15L11 15L11 16L12 16L12 18L11 18L11 19L10 19L10 20L11 20L11 19L12 19L12 18L13 18L13 20L14 20L14 19L15 19L15 17L13 17L13 16L12 16L12 15L14 15L14 16L15 16L15 15L16 15L16 16L17 16L17 17L16 17L16 18L17 18L17 17L18 17L18 18L19 18L19 17L18 17L18 16L17 16L17 12L16 12L16 11L15 11L15 9L14 9L14 10L12 10L12 6L11 6L11 5ZM10 6L10 8L11 8L11 6ZM0 10L0 11L1 11L1 10ZM14 11L14 12L15 12L15 11ZM6 12L6 13L7 13L7 12ZM12 12L12 13L13 13L13 12ZM18 12L18 13L19 13L19 12ZM14 13L14 15L15 15L15 13ZM11 14L11 15L12 15L12 14ZM0 0L0 7L7 7L7 0ZM1 1L1 6L6 6L6 1ZM2 2L2 5L5 5L5 2ZM14 0L14 7L21 7L21 0ZM15 1L15 6L20 6L20 1ZM16 2L16 5L19 5L19 2ZM0 14L0 21L7 21L7 14ZM1 15L1 20L6 20L6 15ZM2 16L2 19L5 19L5 16Z" fill="#282828"/></g></g></svg>
