<?xml version="1.0" encoding="UTF-8"?>
<svg xmlns="http://www.w3.org/2000/svg" version="1.1" width="400" height="400" viewBox="0 0 400 400"><rect x="0" y="0" width="400" height="400" fill="#f5f5f5"/><g transform="scale(14.815)"><g transform="translate(3,3)"><path fill-rule="evenodd" d="M9 0L9 1L8 1L8 7L9 7L9 8L5 8L5 9L4 9L4 10L3 10L3 11L2 11L2 9L3 9L3 8L2 8L2 9L0 9L0 10L1 10L1 12L0 12L0 13L1 13L1 12L3 12L3 13L4 13L4 12L6 12L6 13L7 13L7 12L9 12L9 11L10 11L10 12L11 12L11 13L10 13L10 14L11 14L11 13L12 13L12 14L13 14L13 15L14 15L14 16L13 16L13 17L14 17L14 18L12 18L12 20L10 20L10 19L9 19L9 18L10 18L10 17L11 17L11 15L10 15L10 16L9 16L9 13L8 13L8 16L9 16L9 18L8 18L8 19L9 19L9 21L12 21L12 20L13 20L13 21L21 21L21 20L20 20L20 19L21 19L21 18L19 18L19 17L21 17L21 16L20 16L20 14L21 14L21 9L20 9L20 8L15 8L15 10L13 10L13 12L14 12L14 11L15 11L15 13L19 13L19 14L17 14L17 15L16 15L16 16L17 16L17 18L16 18L16 17L15 17L15 15L14 15L14 13L12 13L12 8L10 8L10 7L11 7L11 6L12 6L12 7L13 7L13 6L12 6L12 3L13 3L13 1L11 1L11 0ZM9 2L9 4L10 4L10 6L9 6L9 7L10 7L10 6L11 6L11 4L10 4L10 3L11 3L11 2ZM13 8L13 9L14 9L14 8ZM6 9L6 10L9 10L9 9ZM16 9L16 10L17 10L17 11L16 11L16 12L17 12L17 11L18 11L18 12L19 12L19 10L20 10L20 9L19 9L19 10L17 10L17 9ZM10 10L10 11L11 11L11 10ZM3 11L3 12L4 12L4 11ZM6 11L6 12L7 12L7 11ZM17 15L17 16L19 16L19 15ZM14 18L14 20L15 20L15 18ZM18 18L18 19L19 19L19 18ZM16 19L16 20L17 20L17 19ZM0 0L0 7L7 7L7 0ZM1 1L1 6L6 6L6 1ZM2 2L2 5L5 5L5 2ZM14 0L14 7L21 7L21 0ZM15 1L15 6L20 6L20 1ZM16 2L16 5L19 5L19 2ZM0 14L0 21L7 21L7 14ZM1 15L1 20L6 20L6 15ZM2 16L2 19L5 19L5 16Z" fill="#282828"/></g></g></svg>
