<?xml version="1.0" encoding="UTF-8"?>
<svg xmlns="http://www.w3.org/2000/svg" version="1.1" width="400" height="400" viewBox="0 0 400 400"><rect x="0" y="0" width="400" height="400" fill="#f5f5f5"/><g transform="scale(14.815)"><g transform="translate(3,3)"><path fill-rule="evenodd" d="M10 0L10 1L9 1L9 4L8 4L8 5L9 5L9 4L11 4L11 5L10 5L10 7L11 7L11 8L9 8L9 6L8 6L8 8L6 8L6 9L4 9L4 8L2 8L2 9L1 9L1 10L2 10L2 11L1 11L1 12L0 12L0 13L2 13L2 11L3 11L3 10L2 10L2 9L4 9L4 10L6 10L6 11L5 11L5 12L3 12L3 13L5 13L5 12L6 12L6 13L7 13L7 12L6 12L6 11L7 11L7 10L6 10L6 9L8 9L8 10L9 10L9 11L8 11L8 12L9 12L9 11L10 11L10 14L9 14L9 13L8 13L8 15L10 15L10 16L9 16L9 17L8 17L8 19L10 19L10 21L14 21L14 20L16 20L16 21L17 21L17 20L16 20L16 18L20 18L20 17L21 17L21 16L20 16L20 15L21 15L21 14L19 14L19 13L20 13L20 12L21 12L21 9L18 9L18 10L20 10L20 12L19 12L19 11L15 11L15 8L12 8L12 7L13 7L13 5L12 5L12 3L13 3L13 2L12 2L12 3L11 3L11 2L10 2L10 1L11 1L11 0ZM12 0L12 1L13 1L13 0ZM11 5L11 7L12 7L12 5ZM16 8L16 9L17 9L17 8ZM11 9L11 10L14 10L14 9ZM11 11L11 12L12 12L12 13L11 13L11 14L12 14L12 15L11 15L11 17L9 17L9 18L11 18L11 20L14 20L14 19L12 19L12 18L11 18L11 17L12 17L12 16L13 16L13 17L14 17L14 18L15 18L15 17L14 17L14 16L15 16L15 14L16 14L16 15L17 15L17 16L18 16L18 17L20 17L20 16L18 16L18 15L19 15L19 14L18 14L18 12L16 12L16 13L13 13L13 12L15 12L15 11ZM12 13L12 14L13 14L13 13ZM13 15L13 16L14 16L14 15ZM18 19L18 20L19 20L19 21L20 21L20 20L21 20L21 19ZM0 0L0 7L7 7L7 0ZM1 1L1 6L6 6L6 1ZM2 2L2 5L5 5L5 2ZM14 0L14 7L21 7L21 0ZM15 1L15 6L20 6L20 1ZM16 2L16 5L19 5L19 2ZM0 14L0 21L7 21L7 14ZM1 15L1 20L6 20L6 15ZM2 16L2 19L5 19L5 16Z" fill="#282828"/></g></g></svg>
