<?xml version="1.0" encoding="UTF-8"?>
<svg xmlns="http://www.w3.org/2000/svg" version="1.1" width="400" height="400" viewBox="0 0 400 400"><rect x="0" y="0" width="400" height="400" fill="#f5f5f5"/><g transform="scale(14.815)"><g transform="translate(3,3)"><path fill-rule="evenodd" d="M11 0L11 3L10 3L10 2L9 2L9 1L8 1L8 2L9 2L9 4L10 4L10 5L8 5L8 8L4 8L4 9L1 9L1 10L0 10L0 11L1 11L1 12L0 12L0 13L1 13L1 12L2 12L2 11L3 11L3 12L4 12L4 13L5 13L5 11L4 11L4 10L5 10L5 9L8 9L8 10L9 10L9 11L8 11L8 12L6 12L6 13L8 13L8 17L10 17L10 18L9 18L9 19L10 19L10 20L9 20L9 21L10 21L10 20L11 20L11 17L14 17L14 18L12 18L12 19L14 19L14 18L15 18L15 19L16 19L16 20L17 20L17 19L18 19L18 21L21 21L21 20L20 20L20 19L19 19L19 18L21 18L21 16L20 16L20 15L21 15L21 12L20 12L20 10L21 10L21 9L20 9L20 8L19 8L19 9L18 9L18 10L16 10L16 8L14 8L14 9L13 9L13 11L12 11L12 10L9 10L9 9L8 9L8 8L10 8L10 7L11 7L11 9L12 9L12 8L13 8L13 6L12 6L12 5L13 5L13 4L12 4L12 5L11 5L11 3L12 3L12 2L13 2L13 0ZM9 6L9 7L10 7L10 6ZM11 6L11 7L12 7L12 6ZM14 9L14 12L13 12L13 13L14 13L14 14L15 14L15 15L14 15L14 16L15 16L15 15L16 15L16 16L17 16L17 17L16 17L16 18L17 18L17 17L18 17L18 18L19 18L19 17L18 17L18 16L19 16L19 15L20 15L20 13L19 13L19 14L18 14L18 16L17 16L17 12L18 12L18 11L19 11L19 10L20 10L20 9L19 9L19 10L18 10L18 11L17 11L17 12L16 12L16 11L15 11L15 9ZM6 10L6 11L7 11L7 10ZM10 11L10 12L11 12L11 11ZM10 13L10 15L12 15L12 16L13 16L13 15L12 15L12 13ZM10 16L10 17L11 17L11 16ZM13 20L13 21L15 21L15 20ZM0 0L0 7L7 7L7 0ZM1 1L1 6L6 6L6 1ZM2 2L2 5L5 5L5 2ZM14 0L14 7L21 7L21 0ZM15 1L15 6L20 6L20 1ZM16 2L16 5L19 5L19 2ZM0 14L0 21L7 21L7 14ZM1 15L1 20L6 20L6 15ZM2 16L2 19L5 19L5 16Z" fill="#282828"/></g></g></svg>
