<?xml version="1.0" encoding="UTF-8"?>
<svg xmlns="http://www.w3.org/2000/svg" version="1.1" width="400" height="400" viewBox="0 0 400 400"><rect x="0" y="0" width="400" height="400" fill="#f5f5f5"/><g transform="scale(14.815)"><g transform="translate(3,3)"><path fill-rule="evenodd" d="M8 0L8 2L9 2L9 3L8 3L8 7L9 7L9 8L10 8L10 9L7 9L7 8L6 8L6 9L7 9L7 10L6 10L6 11L5 11L5 12L6 12L6 13L8 13L8 14L10 14L10 15L11 15L11 12L10 12L10 11L11 11L11 9L12 9L12 16L9 16L9 17L8 17L8 18L9 18L9 19L10 19L10 20L9 20L9 21L10 21L10 20L11 20L11 21L15 21L15 17L17 17L17 18L16 18L16 21L19 21L19 20L20 20L20 19L21 19L21 16L18 16L18 15L19 15L19 14L20 14L20 15L21 15L21 14L20 14L20 12L21 12L21 11L20 11L20 9L21 9L21 8L19 8L19 9L18 9L18 8L15 8L15 9L18 9L18 11L19 11L19 14L17 14L17 13L18 13L18 12L16 12L16 13L15 13L15 11L13 11L13 10L14 10L14 9L13 9L13 0L12 0L12 4L11 4L11 3L10 3L10 2L9 2L9 0ZM10 0L10 1L11 1L11 0ZM9 3L9 5L10 5L10 6L9 6L9 7L10 7L10 8L12 8L12 5L10 5L10 3ZM10 6L10 7L11 7L11 6ZM3 8L3 9L4 9L4 10L1 10L1 9L0 9L0 10L1 10L1 11L2 11L2 13L4 13L4 12L3 12L3 11L4 11L4 10L5 10L5 9L4 9L4 8ZM7 10L7 11L6 11L6 12L7 12L7 11L10 11L10 10ZM0 12L0 13L1 13L1 12ZM13 12L13 13L14 13L14 12ZM16 14L16 15L17 15L17 14ZM13 15L13 16L12 16L12 18L11 18L11 17L9 17L9 18L11 18L11 19L12 19L12 20L13 20L13 19L14 19L14 18L13 18L13 16L14 16L14 17L15 17L15 16L14 16L14 15ZM17 16L17 17L18 17L18 16ZM12 18L12 19L13 19L13 18ZM17 18L17 20L18 20L18 19L20 19L20 18ZM0 0L0 7L7 7L7 0ZM1 1L1 6L6 6L6 1ZM2 2L2 5L5 5L5 2ZM14 0L14 7L21 7L21 0ZM15 1L15 6L20 6L20 1ZM16 2L16 5L19 5L19 2ZM0 14L0 21L7 21L7 14ZM1 15L1 20L6 20L6 15ZM2 16L2 19L5 19L5 16Z" fill="#282828"/></g></g></svg>
