<?xml version="1.0" encoding="UTF-8"?>
<svg xmlns="http://www.w3.org/2000/svg" version="1.1" width="400" height="400" viewBox="0 0 400 400"><rect x="0" y="0" width="400" height="400" fill="#f5f5f5"/><g transform="scale(14.815)"><g transform="translate(3,3)"><path fill-rule="evenodd" d="M9 0L9 1L8 1L8 2L10 2L10 3L11 3L11 1L12 1L12 0L11 0L11 1L10 1L10 0ZM12 2L12 4L11 4L11 5L12 5L12 7L13 7L13 5L12 5L12 4L13 4L13 2ZM9 4L9 5L8 5L8 8L4 8L4 9L2 9L2 11L3 11L3 13L4 13L4 12L5 12L5 13L7 13L7 12L8 12L8 11L9 11L9 13L8 13L8 17L9 17L9 19L11 19L11 21L12 21L12 20L13 20L13 21L14 21L14 18L15 18L15 19L16 19L16 20L17 20L17 19L18 19L18 21L21 21L21 20L20 20L20 19L19 19L19 18L21 18L21 16L20 16L20 15L21 15L21 13L20 13L20 12L21 12L21 11L20 11L20 10L21 10L21 9L20 9L20 8L19 8L19 9L17 9L17 10L16 10L16 8L14 8L14 10L13 10L13 8L11 8L11 6L10 6L10 4ZM9 6L9 8L8 8L8 9L6 9L6 10L8 10L8 9L9 9L9 10L10 10L10 12L12 12L12 11L13 11L13 10L11 10L11 8L10 8L10 6ZM0 9L0 11L1 11L1 9ZM19 9L19 10L20 10L20 9ZM3 10L3 11L4 11L4 10ZM6 11L6 12L7 12L7 11ZM15 11L15 12L14 12L14 13L15 13L15 15L16 15L16 16L17 16L17 17L16 17L16 18L17 18L17 17L18 17L18 18L19 18L19 17L18 17L18 16L19 16L19 15L20 15L20 14L18 14L18 13L19 13L19 12L20 12L20 11L19 11L19 12L18 12L18 13L17 13L17 12L16 12L16 11ZM0 12L0 13L1 13L1 12ZM11 13L11 14L9 14L9 15L10 15L10 16L9 16L9 17L12 17L12 19L13 19L13 18L14 18L14 17L13 17L13 15L14 15L14 14L13 14L13 13ZM11 14L11 16L12 16L12 14ZM17 14L17 16L18 16L18 14ZM9 20L9 21L10 21L10 20ZM0 0L0 7L7 7L7 0ZM1 1L1 6L6 6L6 1ZM2 2L2 5L5 5L5 2ZM14 0L14 7L21 7L21 0ZM15 1L15 6L20 6L20 1ZM16 2L16 5L19 5L19 2ZM0 14L0 21L7 21L7 14ZM1 15L1 20L6 20L6 15ZM2 16L2 19L5 19L5 16Z" fill="#282828"/></g></g></svg>
