<?xml version="1.0" encoding="UTF-8"?>
<svg xmlns="http://www.w3.org/2000/svg" version="1.1" width="400" height="400" viewBox="0 0 400 400"><rect x="0" y="0" width="400" height="400" fill="#f5f5f5"/><g transform="scale(14.815)"><g transform="translate(3,3)"><path fill-rule="evenodd" d="M8 0L8 2L10 2L10 4L11 4L11 5L12 5L12 9L10 9L10 8L11 8L11 6L10 6L10 7L9 7L9 3L8 3L8 7L9 7L9 9L10 9L10 10L6 10L6 9L7 9L7 8L6 8L6 9L5 9L5 10L4 10L4 11L3 11L3 10L2 10L2 9L1 9L1 10L0 10L0 11L3 11L3 12L4 12L4 11L5 11L5 10L6 10L6 11L7 11L7 12L5 12L5 13L8 13L8 14L9 14L9 15L10 15L10 16L9 16L9 17L8 17L8 18L10 18L10 19L9 19L9 20L10 20L10 21L12 21L12 20L13 20L13 21L14 21L14 20L13 20L13 19L15 19L15 17L17 17L17 18L16 18L16 21L19 21L19 20L20 20L20 19L21 19L21 16L18 16L18 15L19 15L19 13L21 13L21 12L19 12L19 13L18 13L18 12L16 12L16 13L15 13L15 17L14 17L14 18L13 18L13 17L12 17L12 20L10 20L10 19L11 19L11 17L10 17L10 16L11 16L11 15L13 15L13 14L14 14L14 13L12 13L12 12L13 12L13 10L14 10L14 11L15 11L15 9L18 9L18 8L15 8L15 9L13 9L13 1L12 1L12 0ZM11 2L11 3L12 3L12 2ZM3 8L3 9L4 9L4 8ZM19 8L19 9L20 9L20 10L18 10L18 11L21 11L21 8ZM10 10L10 11L8 11L8 13L9 13L9 14L10 14L10 15L11 15L11 14L12 14L12 13L11 13L11 12L12 12L12 10ZM10 11L10 12L9 12L9 13L10 13L10 12L11 12L11 11ZM1 12L1 13L2 13L2 12ZM17 13L17 14L16 14L16 15L17 15L17 14L18 14L18 13ZM20 14L20 15L21 15L21 14ZM17 16L17 17L18 17L18 16ZM17 18L17 20L18 20L18 19L20 19L20 18ZM0 0L0 7L7 7L7 0ZM1 1L1 6L6 6L6 1ZM2 2L2 5L5 5L5 2ZM14 0L14 7L21 7L21 0ZM15 1L15 6L20 6L20 1ZM16 2L16 5L19 5L19 2ZM0 14L0 21L7 21L7 14ZM1 15L1 20L6 20L6 15ZM2 16L2 19L5 19L5 16Z" fill="#282828"/></g></g></svg>
