<?xml version="1.0" encoding="UTF-8"?>
<svg xmlns="http://www.w3.org/2000/svg" version="1.1" width="400" height="400" viewBox="0 0 400 400"><rect x="0" y="0" width="400" height="400" fill="#f5f5f5"/><g transform="scale(14.815)"><g transform="translate(3,3)"><path fill-rule="evenodd" d="M9 0L9 1L8 1L8 7L9 7L9 5L11 5L11 6L10 6L10 8L11 8L11 10L9 10L9 8L5 8L5 9L3 9L3 8L2 8L2 10L1 10L1 9L0 9L0 10L1 10L1 11L2 11L2 12L3 12L3 13L5 13L5 12L6 12L6 13L8 13L8 16L9 16L9 18L8 18L8 19L10 19L10 18L11 18L11 16L13 16L13 17L12 17L12 18L13 18L13 19L11 19L11 20L10 20L10 21L13 21L13 19L14 19L14 18L15 18L15 20L14 20L14 21L21 21L21 20L20 20L20 19L21 19L21 18L19 18L19 17L21 17L21 16L20 16L20 14L21 14L21 12L20 12L20 13L18 13L18 10L16 10L16 9L20 9L20 8L15 8L15 13L13 13L13 14L11 14L11 13L10 13L10 15L9 15L9 11L10 11L10 12L12 12L12 11L13 11L13 12L14 12L14 8L13 8L13 5L12 5L12 4L13 4L13 3L12 3L12 2L13 2L13 1L12 1L12 0L11 0L11 1L10 1L10 0ZM9 1L9 3L11 3L11 4L12 4L12 3L11 3L11 2L12 2L12 1L11 1L11 2L10 2L10 1ZM11 6L11 7L12 7L12 6ZM6 9L6 10L8 10L8 11L6 11L6 12L8 12L8 11L9 11L9 10L8 10L8 9ZM12 9L12 10L13 10L13 9ZM2 10L2 11L4 11L4 10ZM20 10L20 11L21 11L21 10ZM16 11L16 12L17 12L17 11ZM15 13L15 14L13 14L13 15L14 15L14 17L16 17L16 18L17 18L17 16L19 16L19 15L17 15L17 14L18 14L18 13ZM10 15L10 16L11 16L11 15ZM16 15L16 16L17 16L17 15ZM18 18L18 19L19 19L19 18ZM16 19L16 20L17 20L17 19ZM0 0L0 7L7 7L7 0ZM1 1L1 6L6 6L6 1ZM2 2L2 5L5 5L5 2ZM14 0L14 7L21 7L21 0ZM15 1L15 6L20 6L20 1ZM16 2L16 5L19 5L19 2ZM0 14L0 21L7 21L7 14ZM1 15L1 20L6 20L6 15ZM2 16L2 19L5 19L5 16Z" fill="#282828"/></g></g></svg>
