<?xml version="1.0" encoding="UTF-8"?>
<svg xmlns="http://www.w3.org/2000/svg" version="1.1" width="400" height="400" viewBox="0 0 400 400"><rect x="0" y="0" width="400" height="400" fill="#f5f5f5"/><g transform="scale(14.815)"><g transform="translate(3,3)"><path fill-rule="evenodd" d="M8 1L8 7L9 7L9 4L10 4L10 5L11 5L11 3L12 3L12 2L13 2L13 1L12 1L12 2L11 2L11 3L10 3L10 2L9 2L9 1ZM12 4L12 5L13 5L13 4ZM10 6L10 7L11 7L11 6ZM12 6L12 7L13 7L13 6ZM2 8L2 9L1 9L1 11L0 11L0 13L4 13L4 12L5 12L5 11L4 11L4 9L3 9L3 8ZM5 8L5 10L6 10L6 11L7 11L7 12L6 12L6 13L7 13L7 12L8 12L8 16L10 16L10 17L9 17L9 18L8 18L8 19L10 19L10 20L9 20L9 21L10 21L10 20L12 20L12 21L14 21L14 18L15 18L15 21L21 21L21 20L20 20L20 19L21 19L21 18L19 18L19 17L21 17L21 16L20 16L20 12L21 12L21 11L20 11L20 8L15 8L15 9L14 9L14 8ZM2 9L2 11L1 11L1 12L2 12L2 11L3 11L3 9ZM6 9L6 10L7 10L7 11L8 11L8 10L9 10L9 9ZM11 9L11 10L12 10L12 9ZM16 9L16 10L17 10L17 9ZM13 10L13 11L9 11L9 13L10 13L10 12L11 12L11 13L12 13L12 14L13 14L13 15L14 15L14 16L15 16L15 17L16 17L16 18L17 18L17 16L19 16L19 15L17 15L17 14L18 14L18 13L19 13L19 11L18 11L18 12L17 12L17 11L16 11L16 12L17 12L17 13L15 13L15 12L14 12L14 11L15 11L15 10ZM12 12L12 13L13 13L13 14L14 14L14 15L15 15L15 13L14 13L14 12ZM10 15L10 16L12 16L12 17L10 17L10 18L12 18L12 17L13 17L13 16L12 16L12 15ZM16 15L16 16L17 16L17 15ZM18 18L18 19L19 19L19 18ZM12 19L12 20L13 20L13 19ZM16 19L16 20L17 20L17 19ZM0 0L0 7L7 7L7 0ZM1 1L1 6L6 6L6 1ZM2 2L2 5L5 5L5 2ZM14 0L14 7L21 7L21 0ZM15 1L15 6L20 6L20 1ZM16 2L16 5L19 5L19 2ZM0 14L0 21L7 21L7 14ZM1 15L1 20L6 20L6 15ZM2 16L2 19L5 19L5 16Z" fill="#282828"/></g></g></svg>
