<?xml version="1.0" encoding="UTF-8"?>
<svg xmlns="http://www.w3.org/2000/svg" version="1.1" width="400" height="400" viewBox="0 0 400 400"><rect x="0" y="0" width="400" height="400" fill="#f5f5f5"/><g transform="scale(14.815)"><g transform="translate(3,3)"><path fill-rule="evenodd" d="M8 0L8 1L9 1L9 2L10 2L10 3L8 3L8 4L9 4L9 6L8 6L8 7L9 7L9 8L8 8L8 11L7 11L7 10L6 10L6 9L7 9L7 8L4 8L4 9L5 9L5 10L6 10L6 11L4 11L4 10L3 10L3 11L2 11L2 9L3 9L3 8L2 8L2 9L1 9L1 10L0 10L0 13L1 13L1 11L2 11L2 12L5 12L5 13L7 13L7 12L8 12L8 11L10 11L10 12L9 12L9 13L8 13L8 14L9 14L9 15L8 15L8 17L9 17L9 18L8 18L8 19L10 19L10 20L11 20L11 21L13 21L13 20L12 20L12 19L10 19L10 18L11 18L11 17L9 17L9 15L11 15L11 14L12 14L12 12L13 12L13 16L14 16L14 15L15 15L15 17L16 17L16 16L18 16L18 18L20 18L20 19L21 19L21 18L20 18L20 17L21 17L21 16L20 16L20 17L19 17L19 16L18 16L18 15L19 15L19 14L20 14L20 13L19 13L19 14L18 14L18 15L16 15L16 13L17 13L17 12L16 12L16 13L15 13L15 14L14 14L14 11L13 11L13 9L14 9L14 10L15 10L15 9L14 9L14 8L13 8L13 9L11 9L11 10L9 10L9 8L10 8L10 7L11 7L11 8L12 8L12 7L13 7L13 6L12 6L12 5L13 5L13 4L12 4L12 3L11 3L11 1L12 1L12 2L13 2L13 1L12 1L12 0ZM10 4L10 5L12 5L12 4ZM9 6L9 7L10 7L10 6ZM11 6L11 7L12 7L12 6ZM17 8L17 10L16 10L16 11L18 11L18 10L19 10L19 12L20 12L20 10L21 10L21 8L20 8L20 9L18 9L18 8ZM11 10L11 12L10 12L10 13L9 13L9 14L10 14L10 13L11 13L11 12L12 12L12 10ZM6 11L6 12L7 12L7 11ZM13 18L13 19L14 19L14 21L15 21L15 18ZM16 18L16 19L17 19L17 18ZM18 19L18 21L19 21L19 19ZM16 20L16 21L17 21L17 20ZM20 20L20 21L21 21L21 20ZM0 0L0 7L7 7L7 0ZM1 1L1 6L6 6L6 1ZM2 2L2 5L5 5L5 2ZM14 0L14 7L21 7L21 0ZM15 1L15 6L20 6L20 1ZM16 2L16 5L19 5L19 2ZM0 14L0 21L7 21L7 14ZM1 15L1 20L6 20L6 15ZM2 16L2 19L5 19L5 16Z" fill="#282828"/></g></g></svg>
