<?xml version="1.0" encoding="UTF-8"?>
<svg xmlns="http://www.w3.org/2000/svg" version="1.1" width="400" height="400" viewBox="0 0 400 400"><rect x="0" y="0" width="400" height="400" fill="#f5f5f5"/><g transform="scale(14.815)"><g transform="translate(3,3)"><path fill-rule="evenodd" d="M9 0L9 1L8 1L8 7L9 7L9 8L5 8L5 10L2 10L2 11L4 11L4 12L3 12L3 13L4 13L4 12L5 12L5 13L7 13L7 12L5 12L5 10L6 10L6 11L7 11L7 10L8 10L8 11L9 11L9 12L8 12L8 16L9 16L9 13L10 13L10 17L11 17L11 16L12 16L12 19L11 19L11 20L10 20L10 21L11 21L11 20L12 20L12 21L13 21L13 20L12 20L12 19L14 19L14 18L13 18L13 16L14 16L14 17L15 17L15 20L14 20L14 21L21 21L21 20L20 20L20 19L21 19L21 18L19 18L19 17L21 17L21 16L20 16L20 14L19 14L19 9L20 9L20 8L15 8L15 12L14 12L14 13L17 13L17 15L16 15L16 16L17 16L17 18L16 18L16 17L15 17L15 14L14 14L14 15L12 15L12 14L13 14L13 12L11 12L11 13L10 13L10 11L9 11L9 10L8 10L8 9L9 9L9 8L10 8L10 7L11 7L11 6L12 6L12 7L13 7L13 6L12 6L12 4L13 4L13 1L11 1L11 0ZM10 1L10 3L11 3L11 4L10 4L10 5L11 5L11 4L12 4L12 3L11 3L11 1ZM9 6L9 7L10 7L10 6ZM2 8L2 9L3 9L3 8ZM11 8L11 9L10 9L10 10L11 10L11 11L13 11L13 10L14 10L14 8ZM0 9L0 11L1 11L1 9ZM6 9L6 10L7 10L7 9ZM11 9L11 10L12 10L12 9ZM16 9L16 10L18 10L18 9ZM16 11L16 12L17 12L17 13L18 13L18 12L17 12L17 11ZM0 12L0 13L2 13L2 12ZM17 15L17 16L19 16L19 15ZM8 18L8 19L10 19L10 18ZM18 18L18 19L19 19L19 18ZM16 19L16 20L17 20L17 19ZM0 0L0 7L7 7L7 0ZM1 1L1 6L6 6L6 1ZM2 2L2 5L5 5L5 2ZM14 0L14 7L21 7L21 0ZM15 1L15 6L20 6L20 1ZM16 2L16 5L19 5L19 2ZM0 14L0 21L7 21L7 14ZM1 15L1 20L6 20L6 15ZM2 16L2 19L5 19L5 16Z" fill="#282828"/></g></g></svg>
