<?xml version="1.0" encoding="UTF-8"?>
<svg xmlns="http://www.w3.org/2000/svg" version="1.1" width="400" height="400" viewBox="0 0 400 400"><rect x="0" y="0" width="400" height="400" fill="#f5f5f5"/><g transform="scale(14.815)"><g transform="translate(3,3)"><path fill-rule="evenodd" d="M8 0L8 1L11 1L11 2L12 2L12 5L13 5L13 2L12 2L12 1L13 1L13 0ZM8 3L8 4L9 4L9 6L8 6L8 7L9 7L9 6L10 6L10 8L8 8L8 9L7 9L7 8L4 8L4 9L3 9L3 8L2 8L2 9L0 9L0 11L1 11L1 10L2 10L2 12L0 12L0 13L5 13L5 12L4 12L4 11L5 11L5 9L7 9L7 10L6 10L6 11L7 11L7 12L6 12L6 13L8 13L8 14L9 14L9 13L10 13L10 14L11 14L11 13L12 13L12 15L11 15L11 17L10 17L10 16L9 16L9 15L8 15L8 17L9 17L9 18L8 18L8 19L9 19L9 20L10 20L10 19L9 19L9 18L11 18L11 17L13 17L13 18L15 18L15 17L16 17L16 16L18 16L18 18L20 18L20 19L21 19L21 18L20 18L20 17L21 17L21 16L20 16L20 17L19 17L19 16L18 16L18 15L19 15L19 14L18 14L18 12L16 12L16 13L15 13L15 12L13 12L13 13L12 13L12 12L11 12L11 13L10 13L10 10L9 10L9 9L12 9L12 8L11 8L11 6L10 6L10 4L11 4L11 3L10 3L10 4L9 4L9 3ZM12 6L12 7L13 7L13 6ZM13 8L13 9L14 9L14 11L15 11L15 9L14 9L14 8ZM17 8L17 10L16 10L16 11L19 11L19 12L20 12L20 13L21 13L21 12L20 12L20 11L21 11L21 10L20 10L20 9L21 9L21 8L20 8L20 9L19 9L19 10L18 10L18 8ZM2 9L2 10L3 10L3 9ZM8 10L8 11L9 11L9 10ZM11 10L11 11L13 11L13 10ZM19 10L19 11L20 11L20 10ZM14 13L14 14L13 14L13 15L12 15L12 16L13 16L13 17L15 17L15 15L14 15L14 14L15 14L15 13ZM16 13L16 15L18 15L18 14L17 14L17 13ZM13 15L13 16L14 16L14 15ZM16 18L16 19L17 19L17 18ZM11 19L11 20L12 20L12 21L14 21L14 20L13 20L13 19ZM18 19L18 21L19 21L19 19ZM16 20L16 21L17 21L17 20ZM20 20L20 21L21 21L21 20ZM0 0L0 7L7 7L7 0ZM1 1L1 6L6 6L6 1ZM2 2L2 5L5 5L5 2ZM14 0L14 7L21 7L21 0ZM15 1L15 6L20 6L20 1ZM16 2L16 5L19 5L19 2ZM0 14L0 21L7 21L7 14ZM1 15L1 20L6 20L6 15ZM2 16L2 19L5 19L5 16Z" fill="#282828"/></g></g></svg>
