<?xml version="1.0" encoding="UTF-8"?>
<svg xmlns="http://www.w3.org/2000/svg" version="1.1" width="400" height="400" viewBox="0 0 400 400"><rect x="0" y="0" width="400" height="400" fill="#f5f5f5"/><g transform="scale(14.815)"><g transform="translate(3,3)"><path fill-rule="evenodd" d="M9 0L9 1L8 1L8 7L9 7L9 6L10 6L10 7L11 7L11 6L12 6L12 8L11 8L11 9L9 9L9 8L5 8L5 10L4 10L4 9L3 9L3 8L2 8L2 10L1 10L1 9L0 9L0 11L1 11L1 12L0 12L0 13L4 13L4 12L5 12L5 13L8 13L8 16L9 16L9 18L8 18L8 19L10 19L10 20L11 20L11 21L14 21L14 20L15 20L15 21L21 21L21 20L20 20L20 19L21 19L21 18L19 18L19 17L21 17L21 16L20 16L20 14L19 14L19 13L20 13L20 12L19 12L19 13L18 13L18 11L19 11L19 10L20 10L20 11L21 11L21 9L20 9L20 8L15 8L15 11L13 11L13 10L14 10L14 8L13 8L13 6L12 6L12 5L13 5L13 4L12 4L12 3L11 3L11 2L10 2L10 0ZM11 0L11 1L12 1L12 2L13 2L13 1L12 1L12 0ZM10 3L10 4L11 4L11 5L10 5L10 6L11 6L11 5L12 5L12 4L11 4L11 3ZM12 8L12 9L13 9L13 8ZM6 9L6 10L5 10L5 11L6 11L6 12L7 12L7 11L9 11L9 12L10 12L10 13L12 13L12 11L11 11L11 10L10 10L10 11L9 11L9 9L8 9L8 10L7 10L7 9ZM16 9L16 10L18 10L18 9ZM3 10L3 11L2 11L2 12L3 12L3 11L4 11L4 10ZM6 10L6 11L7 11L7 10ZM10 11L10 12L11 12L11 11ZM16 11L16 12L17 12L17 11ZM13 12L13 13L14 13L14 14L15 14L15 16L14 16L14 15L12 15L12 16L11 16L11 20L12 20L12 18L14 18L14 19L13 19L13 20L14 20L14 19L15 19L15 17L16 17L16 18L17 18L17 16L19 16L19 15L17 15L17 13L15 13L15 12ZM16 15L16 16L17 16L17 15ZM18 18L18 19L19 19L19 18ZM16 19L16 20L17 20L17 19ZM0 0L0 7L7 7L7 0ZM1 1L1 6L6 6L6 1ZM2 2L2 5L5 5L5 2ZM14 0L14 7L21 7L21 0ZM15 1L15 6L20 6L20 1ZM16 2L16 5L19 5L19 2ZM0 14L0 21L7 21L7 14ZM1 15L1 20L6 20L6 15ZM2 16L2 19L5 19L5 16Z" fill="#282828"/></g></g></svg>
