<?xml version="1.0" encoding="UTF-8"?>
<svg xmlns="http://www.w3.org/2000/svg" version="1.1" width="400" height="400" viewBox="0 0 400 400"><rect x="0" y="0" width="400" height="400" fill="#f5f5f5"/><g transform="scale(14.815)"><g transform="translate(3,3)"><path fill-rule="evenodd" d="M11 0L11 1L10 1L10 2L11 2L11 3L12 3L12 4L10 4L10 5L13 5L13 2L11 2L11 1L13 1L13 0ZM8 2L8 4L9 4L9 2ZM8 6L8 7L9 7L9 8L10 8L10 9L9 9L9 10L10 10L10 9L11 9L11 8L12 8L12 9L13 9L13 11L9 11L9 13L8 13L8 12L6 12L6 11L7 11L7 10L8 10L8 8L6 8L6 9L5 9L5 8L3 8L3 10L1 10L1 11L2 11L2 12L1 12L1 13L3 13L3 12L4 12L4 13L5 13L5 12L6 12L6 13L8 13L8 15L9 15L9 13L10 13L10 14L11 14L11 15L10 15L10 16L8 16L8 18L9 18L9 17L10 17L10 20L9 20L9 21L10 21L10 20L11 20L11 19L12 19L12 18L13 18L13 20L14 20L14 21L17 21L17 20L18 20L18 21L20 21L20 20L21 20L21 18L19 18L19 19L20 19L20 20L18 20L18 18L17 18L17 17L19 17L19 16L20 16L20 17L21 17L21 14L20 14L20 12L19 12L19 11L20 11L20 10L21 10L21 9L19 9L19 8L17 8L17 9L15 9L15 13L17 13L17 12L19 12L19 13L18 13L18 16L16 16L16 17L13 17L13 16L14 16L14 15L13 15L13 16L12 16L12 14L13 14L13 13L14 13L14 9L13 9L13 8L12 8L12 7L13 7L13 6L12 6L12 7L11 7L11 6L10 6L10 7L9 7L9 6ZM6 9L6 10L7 10L7 9ZM18 9L18 11L19 11L19 9ZM4 10L4 11L5 11L5 10ZM16 10L16 11L17 11L17 10ZM11 12L11 13L13 13L13 12ZM11 16L11 17L12 17L12 16ZM16 19L16 20L17 20L17 19ZM0 0L0 7L7 7L7 0ZM1 1L1 6L6 6L6 1ZM2 2L2 5L5 5L5 2ZM14 0L14 7L21 7L21 0ZM15 1L15 6L20 6L20 1ZM16 2L16 5L19 5L19 2ZM0 14L0 21L7 21L7 14ZM1 15L1 20L6 20L6 15ZM2 16L2 19L5 19L5 16Z" fill="#282828"/></g></g></svg>
