<?xml version="1.0" encoding="UTF-8"?>
<svg xmlns="http://www.w3.org/2000/svg" version="1.1" width="400" height="400" viewBox="0 0 400 400"><rect x="0" y="0" width="400" height="400" fill="#f5f5f5"/><g transform="scale(14.815)"><g transform="translate(3,3)"><path fill-rule="evenodd" d="M8 0L8 3L9 3L9 0ZM11 0L11 2L10 2L10 5L8 5L8 9L7 9L7 8L6 8L6 9L5 9L5 8L2 8L2 9L1 9L1 10L0 10L0 12L1 12L1 13L2 13L2 12L3 12L3 13L7 13L7 12L9 12L9 13L8 13L8 14L10 14L10 16L12 16L12 15L13 15L13 17L15 17L15 16L16 16L16 17L17 17L17 18L18 18L18 17L19 17L19 16L20 16L20 15L21 15L21 14L20 14L20 13L21 13L21 12L17 12L17 13L19 13L19 14L18 14L18 17L17 17L17 14L16 14L16 12L15 12L15 11L16 11L16 10L15 10L15 11L14 11L14 13L13 13L13 10L14 10L14 9L16 9L16 8L13 8L13 10L12 10L12 9L11 9L11 8L12 8L12 7L13 7L13 6L12 6L12 5L13 5L13 1L12 1L12 0ZM11 2L11 4L12 4L12 2ZM9 6L9 9L10 9L10 10L9 10L9 11L10 11L10 10L11 10L11 11L12 11L12 10L11 10L11 9L10 9L10 8L11 8L11 7L12 7L12 6L11 6L11 7L10 7L10 6ZM18 8L18 9L17 9L17 10L18 10L18 11L19 11L19 10L18 10L18 9L20 9L20 10L21 10L21 8ZM2 9L2 10L1 10L1 11L3 11L3 9ZM4 9L4 10L5 10L5 9ZM6 9L6 10L7 10L7 11L6 11L6 12L7 12L7 11L8 11L8 10L7 10L7 9ZM4 11L4 12L5 12L5 11ZM10 12L10 14L11 14L11 13L12 13L12 12ZM13 14L13 15L14 15L14 14ZM15 14L15 15L16 15L16 14ZM19 14L19 15L20 15L20 14ZM8 16L8 19L9 19L9 21L10 21L10 19L9 19L9 16ZM10 17L10 18L12 18L12 17ZM13 18L13 20L12 20L12 19L11 19L11 20L12 20L12 21L13 21L13 20L14 20L14 21L16 21L16 20L14 20L14 19L16 19L16 18ZM17 19L17 20L18 20L18 21L19 21L19 20L20 20L20 19L19 19L19 20L18 20L18 19ZM0 0L0 7L7 7L7 0ZM1 1L1 6L6 6L6 1ZM2 2L2 5L5 5L5 2ZM14 0L14 7L21 7L21 0ZM15 1L15 6L20 6L20 1ZM16 2L16 5L19 5L19 2ZM0 14L0 21L7 21L7 14ZM1 15L1 20L6 20L6 15ZM2 16L2 19L5 19L5 16Z" fill="#282828"/></g></g></svg>
