<?xml version="1.0" encoding="UTF-8"?>
<svg xmlns="http://www.w3.org/2000/svg" version="1.1" width="400" height="400" viewBox="0 0 400 400"><rect x="0" y="0" width="400" height="400" fill="#f5f5f5"/><g transform="scale(14.815)"><g transform="translate(3,3)"><path fill-rule="evenodd" d="M11 0L11 1L9 1L9 2L8 2L8 4L9 4L9 6L8 6L8 7L9 7L9 8L10 8L10 7L11 7L11 6L12 6L12 7L13 7L13 6L12 6L12 2L13 2L13 1L12 1L12 0ZM11 1L11 2L9 2L9 4L10 4L10 3L11 3L11 2L12 2L12 1ZM10 5L10 6L9 6L9 7L10 7L10 6L11 6L11 5ZM3 8L3 9L1 9L1 10L0 10L0 11L1 11L1 12L0 12L0 13L3 13L3 12L4 12L4 13L7 13L7 12L6 12L6 11L7 11L7 10L6 10L6 11L5 11L5 10L4 10L4 11L2 11L2 10L3 10L3 9L5 9L5 8ZM6 8L6 9L8 9L8 10L10 10L10 11L8 11L8 12L9 12L9 13L8 13L8 15L9 15L9 16L8 16L8 18L9 18L9 19L10 19L10 20L11 20L11 21L13 21L13 19L14 19L14 21L17 21L17 20L18 20L18 21L20 21L20 20L21 20L21 18L19 18L19 19L20 19L20 20L18 20L18 18L17 18L17 17L19 17L19 16L20 16L20 17L21 17L21 14L19 14L19 13L20 13L20 12L21 12L21 10L20 10L20 9L19 9L19 8L17 8L17 9L15 9L15 12L13 12L13 10L14 10L14 9L13 9L13 8L11 8L11 9L8 9L8 8ZM17 9L17 10L16 10L16 11L17 11L17 12L18 12L18 13L19 13L19 12L20 12L20 11L18 11L18 10L19 10L19 9ZM11 10L11 11L10 11L10 14L9 14L9 15L10 15L10 18L11 18L11 16L12 16L12 17L13 17L13 15L14 15L14 16L15 16L15 17L16 17L16 16L18 16L18 14L17 14L17 13L13 13L13 12L12 12L12 10ZM11 12L11 15L12 15L12 12ZM14 18L14 19L15 19L15 18ZM11 19L11 20L12 20L12 19ZM16 19L16 20L17 20L17 19ZM0 0L0 7L7 7L7 0ZM1 1L1 6L6 6L6 1ZM2 2L2 5L5 5L5 2ZM14 0L14 7L21 7L21 0ZM15 1L15 6L20 6L20 1ZM16 2L16 5L19 5L19 2ZM0 14L0 21L7 21L7 14ZM1 15L1 20L6 20L6 15ZM2 16L2 19L5 19L5 16Z" fill="#282828"/></g></g></svg>
