<?xml version="1.0" encoding="UTF-8"?>
<svg xmlns="http://www.w3.org/2000/svg" version="1.1" width="400" height="400" viewBox="0 0 400 400"><rect x="0" y="0" width="400" height="400" fill="#f5f5f5"/><g transform="scale(14.815)"><g transform="translate(3,3)"><path fill-rule="evenodd" d="M8 0L8 2L10 2L10 3L11 3L11 2L13 2L13 0L11 0L11 2L10 2L10 1L9 1L9 0ZM8 3L8 7L9 7L9 8L11 8L11 9L9 9L9 10L5 10L5 9L4 9L4 8L3 8L3 11L2 11L2 12L1 12L1 10L2 10L2 9L0 9L0 13L2 13L2 12L3 12L3 13L4 13L4 11L7 11L7 12L5 12L5 13L8 13L8 14L9 14L9 16L10 16L10 17L8 17L8 18L9 18L9 20L11 20L11 19L12 19L12 18L14 18L14 19L13 19L13 20L14 20L14 21L15 21L15 18L14 18L14 17L17 17L17 18L16 18L16 21L19 21L19 20L20 20L20 19L21 19L21 16L18 16L18 15L19 15L19 14L20 14L20 15L21 15L21 14L20 14L20 12L21 12L21 10L20 10L20 9L21 9L21 8L19 8L19 10L18 10L18 11L17 11L17 12L16 12L16 13L15 13L15 12L14 12L14 13L15 13L15 14L14 14L14 17L12 17L12 18L10 18L10 17L11 17L11 13L12 13L12 16L13 16L13 13L12 13L12 12L13 12L13 11L12 11L12 12L11 12L11 11L10 11L10 14L9 14L9 10L11 10L11 9L12 9L12 10L13 10L13 8L12 8L12 7L13 7L13 5L12 5L12 7L11 7L11 4L10 4L10 5L9 5L9 3ZM12 3L12 4L13 4L13 3ZM9 6L9 7L10 7L10 6ZM6 8L6 9L7 9L7 8ZM15 8L15 9L18 9L18 8ZM14 10L14 11L15 11L15 10ZM19 10L19 11L18 11L18 12L17 12L17 14L16 14L16 15L17 15L17 14L18 14L18 12L20 12L20 10ZM17 16L17 17L18 17L18 16ZM17 18L17 20L18 20L18 19L20 19L20 18ZM0 0L0 7L7 7L7 0ZM1 1L1 6L6 6L6 1ZM2 2L2 5L5 5L5 2ZM14 0L14 7L21 7L21 0ZM15 1L15 6L20 6L20 1ZM16 2L16 5L19 5L19 2ZM0 14L0 21L7 21L7 14ZM1 15L1 20L6 20L6 15ZM2 16L2 19L5 19L5 16Z" fill="#282828"/></g></g></svg>
