<?xml version="1.0" encoding="UTF-8"?>
<svg xmlns="http://www.w3.org/2000/svg" version="1.1" width="400" height="400" viewBox="0 0 400 400"><rect x="0" y="0" width="400" height="400" fill="#f5f5f5"/><g transform="scale(14.815)"><g transform="translate(3,3)"><path fill-rule="evenodd" d="M9 0L9 1L8 1L8 7L9 7L9 3L10 3L10 5L11 5L11 6L10 6L10 9L12 9L12 8L11 8L11 6L12 6L12 7L13 7L13 6L12 6L12 5L13 5L13 3L12 3L12 2L13 2L13 1L11 1L11 0ZM10 2L10 3L11 3L11 2ZM2 8L2 10L1 10L1 11L2 11L2 10L4 10L4 12L2 12L2 13L4 13L4 12L5 12L5 13L7 13L7 12L6 12L6 11L9 11L9 8L5 8L5 9L3 9L3 8ZM13 8L13 10L12 10L12 11L11 11L11 10L10 10L10 14L9 14L9 13L8 13L8 16L9 16L9 17L10 17L10 19L11 19L11 21L12 21L12 19L11 19L11 18L13 18L13 19L14 19L14 20L13 20L13 21L14 21L14 20L15 20L15 21L21 21L21 20L20 20L20 19L21 19L21 18L19 18L19 17L21 17L21 16L20 16L20 13L21 13L21 12L20 12L20 13L19 13L19 11L20 11L20 10L21 10L21 9L20 9L20 8L15 8L15 9L14 9L14 8ZM6 9L6 10L8 10L8 9ZM16 9L16 10L18 10L18 11L16 11L16 12L17 12L17 13L15 13L15 12L13 12L13 11L12 11L12 12L13 12L13 14L12 14L12 15L11 15L11 14L10 14L10 15L9 15L9 16L10 16L10 17L11 17L11 16L12 16L12 17L13 17L13 18L14 18L14 19L15 19L15 17L16 17L16 18L17 18L17 16L19 16L19 15L17 15L17 14L19 14L19 13L18 13L18 11L19 11L19 10L18 10L18 9ZM13 14L13 17L15 17L15 16L14 16L14 14ZM10 15L10 16L11 16L11 15ZM16 15L16 16L17 16L17 15ZM8 18L8 19L9 19L9 18ZM18 18L18 19L19 19L19 18ZM16 19L16 20L17 20L17 19ZM9 20L9 21L10 21L10 20ZM0 0L0 7L7 7L7 0ZM1 1L1 6L6 6L6 1ZM2 2L2 5L5 5L5 2ZM14 0L14 7L21 7L21 0ZM15 1L15 6L20 6L20 1ZM16 2L16 5L19 5L19 2ZM0 14L0 21L7 21L7 14ZM1 15L1 20L6 20L6 15ZM2 16L2 19L5 19L5 16Z" fill="#282828"/></g></g></svg>
