<?xml version="1.0" encoding="UTF-8"?>
<svg xmlns="http://www.w3.org/2000/svg" version="1.1" width="400" height="400" viewBox="0 0 400 400"><rect x="0" y="0" width="400" height="400" fill="#f5f5f5"/><g transform="scale(14.815)"><g transform="translate(3,3)"><path fill-rule="evenodd" d="M9 0L9 4L8 4L8 5L9 5L9 6L8 6L8 8L6 8L6 9L5 9L5 10L6 10L6 11L5 11L5 12L4 12L4 13L7 13L7 12L6 12L6 11L7 11L7 10L8 10L8 12L9 12L9 13L8 13L8 15L10 15L10 16L9 16L9 17L8 17L8 19L9 19L9 18L10 18L10 20L9 20L9 21L10 21L10 20L12 20L12 21L13 21L13 20L12 20L12 19L13 19L13 17L14 17L14 16L12 16L12 19L11 19L11 17L10 17L10 16L11 16L11 15L12 15L12 13L13 13L13 11L14 11L14 13L16 13L16 12L17 12L17 11L18 11L18 13L19 13L19 15L18 15L18 16L17 16L17 15L16 15L16 14L15 14L15 18L14 18L14 19L15 19L15 20L16 20L16 21L17 21L17 20L16 20L16 18L20 18L20 17L21 17L21 16L20 16L20 15L21 15L21 14L20 14L20 13L19 13L19 12L20 12L20 11L21 11L21 9L19 9L19 10L18 10L18 9L17 9L17 8L16 8L16 9L17 9L17 11L15 11L15 10L12 10L12 9L11 9L11 6L12 6L12 7L13 7L13 6L12 6L12 5L13 5L13 2L11 2L11 1L10 1L10 0ZM11 3L11 5L10 5L10 6L9 6L9 7L10 7L10 6L11 6L11 5L12 5L12 3ZM2 8L2 9L1 9L1 10L0 10L0 11L1 11L1 13L2 13L2 12L3 12L3 11L4 11L4 10L3 10L3 9L4 9L4 8ZM9 8L9 10L11 10L11 12L10 12L10 11L9 11L9 12L10 12L10 13L9 13L9 14L11 14L11 13L12 13L12 10L11 10L11 9L10 9L10 8ZM13 8L13 9L15 9L15 8ZM6 9L6 10L7 10L7 9ZM2 10L2 11L3 11L3 10ZM19 10L19 11L20 11L20 10ZM18 16L18 17L20 17L20 16ZM18 19L18 20L19 20L19 21L20 21L20 20L21 20L21 19ZM0 0L0 7L7 7L7 0ZM1 1L1 6L6 6L6 1ZM2 2L2 5L5 5L5 2ZM14 0L14 7L21 7L21 0ZM15 1L15 6L20 6L20 1ZM16 2L16 5L19 5L19 2ZM0 14L0 21L7 21L7 14ZM1 15L1 20L6 20L6 15ZM2 16L2 19L5 19L5 16Z" fill="#282828"/></g></g></svg>
