<?xml version="1.0" encoding="UTF-8"?>
<svg xmlns="http://www.w3.org/2000/svg" version="1.1" width="400" height="400" viewBox="0 0 400 400"><rect x="0" y="0" width="400" height="400" fill="#f5f5f5"/><g transform="scale(14.815)"><g transform="translate(3,3)"><path fill-rule="evenodd" d="M9 0L9 2L10 2L10 3L9 3L9 4L8 4L8 5L9 5L9 6L8 6L8 8L6 8L6 9L5 9L5 10L4 10L4 8L2 8L2 9L3 9L3 11L1 11L1 10L0 10L0 12L4 12L4 11L5 11L5 13L8 13L8 15L9 15L9 16L10 16L10 17L8 17L8 19L9 19L9 18L10 18L10 20L9 20L9 21L12 21L12 20L13 20L13 21L15 21L15 20L16 20L16 21L17 21L17 20L16 20L16 18L20 18L20 17L21 17L21 16L20 16L20 15L21 15L21 14L19 14L19 15L18 15L18 16L17 16L17 15L16 15L16 14L15 14L15 15L14 15L14 11L15 11L15 13L16 13L16 12L17 12L17 14L18 14L18 12L21 12L21 11L19 11L19 10L20 10L20 9L19 9L19 10L17 10L17 11L15 11L15 8L13 8L13 9L12 9L12 7L13 7L13 6L12 6L12 3L13 3L13 1L10 1L10 0ZM11 2L11 3L10 3L10 4L9 4L9 5L10 5L10 4L11 4L11 3L12 3L12 2ZM9 6L9 9L11 9L11 10L12 10L12 9L11 9L11 8L10 8L10 6ZM11 6L11 7L12 7L12 6ZM16 8L16 9L17 9L17 8ZM6 9L6 10L5 10L5 11L6 11L6 12L7 12L7 11L6 11L6 10L7 10L7 9ZM13 9L13 11L14 11L14 9ZM8 10L8 13L10 13L10 12L11 12L11 13L13 13L13 12L11 12L11 11L9 11L9 10ZM17 11L17 12L18 12L18 11ZM9 14L9 15L10 15L10 16L11 16L11 17L10 17L10 18L11 18L11 19L13 19L13 18L14 18L14 17L15 17L15 16L14 16L14 15L13 15L13 14L11 14L11 15L10 15L10 14ZM11 15L11 16L12 16L12 15ZM18 16L18 17L20 17L20 16ZM11 17L11 18L13 18L13 17ZM14 19L14 20L15 20L15 19ZM18 19L18 20L19 20L19 21L20 21L20 20L21 20L21 19ZM0 0L0 7L7 7L7 0ZM1 1L1 6L6 6L6 1ZM2 2L2 5L5 5L5 2ZM14 0L14 7L21 7L21 0ZM15 1L15 6L20 6L20 1ZM16 2L16 5L19 5L19 2ZM0 14L0 21L7 21L7 14ZM1 15L1 20L6 20L6 15ZM2 16L2 19L5 19L5 16Z" fill="#282828"/></g></g></svg>
