<?xml version="1.0" encoding="UTF-8"?>
<svg xmlns="http://www.w3.org/2000/svg" version="1.1" width="400" height="400" viewBox="0 0 400 400"><rect x="0" y="0" width="400" height="400" fill="#f5f5f5"/><g transform="scale(14.815)"><g transform="translate(3,3)"><path fill-rule="evenodd" d="M8 1L8 2L10 2L10 3L9 3L9 5L8 5L8 8L4 8L4 9L3 9L3 10L2 10L2 9L0 9L0 10L2 10L2 11L1 11L1 12L2 12L2 11L3 11L3 13L4 13L4 12L5 12L5 13L8 13L8 17L9 17L9 18L10 18L10 17L9 17L9 15L10 15L10 16L11 16L11 17L14 17L14 16L13 16L13 15L10 15L10 9L11 9L11 12L12 12L12 13L13 13L13 14L14 14L14 15L15 15L15 18L14 18L14 21L15 21L15 19L16 19L16 20L17 20L17 19L18 19L18 21L21 21L21 20L20 20L20 19L19 19L19 18L21 18L21 16L20 16L20 15L21 15L21 13L20 13L20 11L21 11L21 10L20 10L20 8L19 8L19 9L17 9L17 10L16 10L16 8L14 8L14 9L15 9L15 10L12 10L12 9L13 9L13 5L11 5L11 4L13 4L13 2L10 2L10 1ZM10 3L10 4L11 4L11 3ZM10 5L10 6L9 6L9 8L8 8L8 10L7 10L7 9L6 9L6 10L5 10L5 11L6 11L6 12L7 12L7 11L8 11L8 13L9 13L9 9L10 9L10 8L12 8L12 6L11 6L11 5ZM10 6L10 7L11 7L11 6ZM6 10L6 11L7 11L7 10ZM17 10L17 11L18 11L18 12L16 12L16 11L12 11L12 12L13 12L13 13L14 13L14 14L15 14L15 15L16 15L16 16L17 16L17 17L16 17L16 18L17 18L17 17L18 17L18 18L19 18L19 17L18 17L18 16L19 16L19 15L20 15L20 13L19 13L19 11L20 11L20 10ZM14 12L14 13L15 13L15 12ZM17 14L17 16L18 16L18 14ZM10 19L10 20L9 20L9 21L10 21L10 20L11 20L11 21L13 21L13 20L12 20L12 19ZM0 0L0 7L7 7L7 0ZM1 1L1 6L6 6L6 1ZM2 2L2 5L5 5L5 2ZM14 0L14 7L21 7L21 0ZM15 1L15 6L20 6L20 1ZM16 2L16 5L19 5L19 2ZM0 14L0 21L7 21L7 14ZM1 15L1 20L6 20L6 15ZM2 16L2 19L5 19L5 16Z" fill="#282828"/></g></g></svg>
