<?xml version="1.0" encoding="UTF-8"?>
<svg xmlns="http://www.w3.org/2000/svg" version="1.1" width="400" height="400" viewBox="0 0 400 400"><rect x="0" y="0" width="400" height="400" fill="#f5f5f5"/><g transform="scale(14.815)"><g transform="translate(3,3)"><path fill-rule="evenodd" d="M12 0L12 2L13 2L13 0ZM10 1L10 2L9 2L9 3L10 3L10 4L8 4L8 5L9 5L9 6L8 6L8 8L6 8L6 9L4 9L4 8L2 8L2 9L1 9L1 10L0 10L0 11L1 11L1 12L2 12L2 13L3 13L3 12L4 12L4 13L8 13L8 15L11 15L11 14L10 14L10 13L12 13L12 12L11 12L11 10L12 10L12 11L13 11L13 13L14 13L14 14L12 14L12 16L11 16L11 17L8 17L8 19L9 19L9 21L11 21L11 20L10 20L10 18L11 18L11 19L12 19L12 21L13 21L13 20L14 20L14 21L15 21L15 20L16 20L16 21L17 21L17 20L16 20L16 18L20 18L20 17L21 17L21 16L20 16L20 15L21 15L21 14L19 14L19 15L18 15L18 16L17 16L17 15L16 15L16 14L15 14L15 13L16 13L16 12L17 12L17 14L18 14L18 13L19 13L19 12L17 12L17 11L19 11L19 10L20 10L20 12L21 12L21 10L20 10L20 9L17 9L17 8L16 8L16 9L17 9L17 11L15 11L15 8L11 8L11 6L10 6L10 5L11 5L11 4L12 4L12 5L13 5L13 4L12 4L12 3L11 3L11 1ZM9 6L9 7L10 7L10 6ZM12 6L12 7L13 7L13 6ZM6 9L6 10L7 10L7 11L6 11L6 12L8 12L8 11L10 11L10 10L11 10L11 9L8 9L8 10L7 10L7 9ZM12 9L12 10L13 10L13 11L14 11L14 12L15 12L15 11L14 11L14 10L13 10L13 9ZM2 10L2 12L3 12L3 11L4 11L4 10ZM13 15L13 16L12 16L12 17L13 17L13 16L14 16L14 18L12 18L12 19L15 19L15 15ZM18 16L18 17L20 17L20 16ZM18 19L18 20L19 20L19 21L20 21L20 20L21 20L21 19ZM0 0L0 7L7 7L7 0ZM1 1L1 6L6 6L6 1ZM2 2L2 5L5 5L5 2ZM14 0L14 7L21 7L21 0ZM15 1L15 6L20 6L20 1ZM16 2L16 5L19 5L19 2ZM0 14L0 21L7 21L7 14ZM1 15L1 20L6 20L6 15ZM2 16L2 19L5 19L5 16Z" fill="#282828"/></g></g></svg>
