<?xml version="1.0" encoding="UTF-8"?>
<svg xmlns="http://www.w3.org/2000/svg" version="1.1" width="400" height="400" viewBox="0 0 400 400"><rect x="0" y="0" width="400" height="400" fill="#f5f5f5"/><g transform="scale(14.815)"><g transform="translate(3,3)"><path fill-rule="evenodd" d="M8 0L8 1L9 1L9 2L8 2L8 3L9 3L9 4L8 4L8 5L9 5L9 6L8 6L8 8L9 8L9 10L8 10L8 9L7 9L7 8L5 8L5 9L4 9L4 10L3 10L3 9L2 9L2 10L1 10L1 11L0 11L0 12L3 12L3 13L4 13L4 12L5 12L5 11L7 11L7 10L8 10L8 11L10 11L10 12L8 12L8 14L9 14L9 15L8 15L8 16L9 16L9 15L10 15L10 14L11 14L11 15L12 15L12 16L11 16L11 17L9 17L9 20L10 20L10 18L11 18L11 17L12 17L12 19L11 19L11 21L12 21L12 19L13 19L13 18L14 18L14 19L15 19L15 21L16 21L16 19L17 19L17 20L18 20L18 21L19 21L19 20L20 20L20 19L21 19L21 18L19 18L19 20L18 20L18 17L19 17L19 16L21 16L21 14L20 14L20 15L19 15L19 13L18 13L18 17L17 17L17 16L16 16L16 17L15 17L15 16L14 16L14 15L15 15L15 13L17 13L17 12L16 12L16 10L17 10L17 11L18 11L18 12L21 12L21 10L20 10L20 9L21 9L21 8L20 8L20 9L19 9L19 8L18 8L18 9L17 9L17 8L16 8L16 9L15 9L15 8L14 8L14 9L15 9L15 12L14 12L14 11L12 11L12 13L14 13L14 14L13 14L13 15L12 15L12 14L11 14L11 9L10 9L10 8L12 8L12 7L13 7L13 5L12 5L12 4L13 4L13 3L12 3L12 2L11 2L11 1L13 1L13 0L11 0L11 1L10 1L10 0ZM10 3L10 4L11 4L11 3ZM10 5L10 6L9 6L9 8L10 8L10 6L11 6L11 7L12 7L12 6L11 6L11 5ZM5 9L5 10L7 10L7 9ZM18 9L18 10L19 10L19 9ZM2 10L2 11L3 11L3 12L4 12L4 11L3 11L3 10ZM6 12L6 13L7 13L7 12ZM9 13L9 14L10 14L10 13ZM16 14L16 15L17 15L17 14ZM12 16L12 17L13 17L13 16ZM16 17L16 18L17 18L17 17ZM0 0L0 7L7 7L7 0ZM1 1L1 6L6 6L6 1ZM2 2L2 5L5 5L5 2ZM14 0L14 7L21 7L21 0ZM15 1L15 6L20 6L20 1ZM16 2L16 5L19 5L19 2ZM0 14L0 21L7 21L7 14ZM1 15L1 20L6 20L6 15ZM2 16L2 19L5 19L5 16Z" fill="#282828"/></g></g></svg>
