<?xml version="1.0" encoding="UTF-8"?>
<svg xmlns="http://www.w3.org/2000/svg" version="1.1" width="400" height="400" viewBox="0 0 400 400"><rect x="0" y="0" width="400" height="400" fill="#f5f5f5"/><g transform="scale(14.815)"><g transform="translate(3,3)"><path fill-rule="evenodd" d="M8 0L8 2L10 2L10 1L11 1L11 6L10 6L10 8L9 8L9 9L7 9L7 8L6 8L6 9L7 9L7 10L6 10L6 11L7 11L7 12L4 12L4 11L3 11L3 10L5 10L5 9L4 9L4 8L3 8L3 10L2 10L2 9L0 9L0 11L1 11L1 12L0 12L0 13L8 13L8 14L9 14L9 12L10 12L10 11L11 11L11 12L13 12L13 11L12 11L12 10L15 10L15 9L17 9L17 10L21 10L21 8L19 8L19 9L18 9L18 8L15 8L15 9L13 9L13 5L12 5L12 1L11 1L11 0ZM8 3L8 7L9 7L9 3ZM11 6L11 8L10 8L10 10L9 10L9 11L10 11L10 10L12 10L12 6ZM1 10L1 11L2 11L2 10ZM7 10L7 11L8 11L8 10ZM14 11L14 13L13 13L13 15L12 15L12 14L11 14L11 13L10 13L10 15L12 15L12 16L9 16L9 17L8 17L8 18L9 18L9 20L10 20L10 21L13 21L13 20L10 20L10 18L9 18L9 17L12 17L12 16L13 16L13 18L14 18L14 16L15 16L15 17L17 17L17 18L16 18L16 21L19 21L19 20L20 20L20 19L21 19L21 16L18 16L18 15L19 15L19 14L20 14L20 15L21 15L21 13L19 13L19 14L17 14L17 13L18 13L18 12L21 12L21 11L17 11L17 12L16 12L16 13L15 13L15 11ZM14 13L14 14L15 14L15 13ZM16 14L16 15L17 15L17 14ZM13 15L13 16L14 16L14 15ZM17 16L17 17L18 17L18 16ZM11 18L11 19L12 19L12 18ZM17 18L17 20L18 20L18 19L20 19L20 18ZM14 20L14 21L15 21L15 20ZM0 0L0 7L7 7L7 0ZM1 1L1 6L6 6L6 1ZM2 2L2 5L5 5L5 2ZM14 0L14 7L21 7L21 0ZM15 1L15 6L20 6L20 1ZM16 2L16 5L19 5L19 2ZM0 14L0 21L7 21L7 14ZM1 15L1 20L6 20L6 15ZM2 16L2 19L5 19L5 16Z" fill="#282828"/></g></g></svg>
