<?xml version="1.0" encoding="UTF-8"?>
<svg xmlns="http://www.w3.org/2000/svg" version="1.1" width="400" height="400" viewBox="0 0 400 400"><rect x="0" y="0" width="400" height="400" fill="#f5f5f5"/><g transform="scale(14.815)"><g transform="translate(3,3)"><path fill-rule="evenodd" d="M10 0L10 1L8 1L8 7L9 7L9 8L5 8L5 9L3 9L3 8L2 8L2 9L3 9L3 10L0 10L0 11L1 11L1 13L2 13L2 11L3 11L3 10L4 10L4 11L5 11L5 12L4 12L4 13L7 13L7 12L6 12L6 11L9 11L9 13L8 13L8 16L9 16L9 18L8 18L8 19L9 19L9 18L11 18L11 19L10 19L10 20L9 20L9 21L10 21L10 20L12 20L12 13L11 13L11 12L13 12L13 13L14 13L14 14L13 14L13 15L14 15L14 14L15 14L15 13L17 13L17 15L16 15L16 16L17 16L17 18L16 18L16 17L15 17L15 18L13 18L13 19L15 19L15 21L21 21L21 20L20 20L20 19L21 19L21 18L19 18L19 17L21 17L21 16L20 16L20 14L21 14L21 13L20 13L20 11L21 11L21 10L20 10L20 11L18 11L18 12L16 12L16 11L17 11L17 10L16 10L16 9L18 9L18 10L19 10L19 9L20 9L20 8L15 8L15 9L14 9L14 8L13 8L13 10L14 10L14 12L13 12L13 11L9 11L9 10L6 10L6 11L5 11L5 9L10 9L10 10L12 10L12 7L13 7L13 4L12 4L12 3L13 3L13 2L11 2L11 1L12 1L12 0ZM9 2L9 5L10 5L10 6L9 6L9 7L10 7L10 8L11 8L11 7L12 7L12 4L11 4L11 3L10 3L10 2ZM10 4L10 5L11 5L11 4ZM10 6L10 7L11 7L11 6ZM14 12L14 13L15 13L15 12ZM18 12L18 13L19 13L19 14L20 14L20 13L19 13L19 12ZM9 14L9 15L10 15L10 16L11 16L11 14ZM17 15L17 16L19 16L19 15ZM13 16L13 17L14 17L14 16ZM18 18L18 19L19 19L19 18ZM16 19L16 20L17 20L17 19ZM0 0L0 7L7 7L7 0ZM1 1L1 6L6 6L6 1ZM2 2L2 5L5 5L5 2ZM14 0L14 7L21 7L21 0ZM15 1L15 6L20 6L20 1ZM16 2L16 5L19 5L19 2ZM0 14L0 21L7 21L7 14ZM1 15L1 20L6 20L6 15ZM2 16L2 19L5 19L5 16Z" fill="#282828"/></g></g></svg>
