<?xml version="1.0" encoding="UTF-8"?>
<svg xmlns="http://www.w3.org/2000/svg" version="1.1" width="400" height="400" viewBox="0 0 400 400"><rect x="0" y="0" width="400" height="400" fill="#f5f5f5"/><g transform="scale(14.815)"><g transform="translate(3,3)"><path fill-rule="evenodd" d="M8 0L8 2L9 2L9 3L8 3L8 7L9 7L9 6L10 6L10 9L8 9L8 10L10 10L10 11L9 11L9 12L8 12L8 14L9 14L9 13L10 13L10 11L11 11L11 12L12 12L12 11L13 11L13 12L14 12L14 15L13 15L13 14L12 14L12 16L11 16L11 15L9 15L9 16L11 16L11 18L10 18L10 17L8 17L8 18L9 18L9 19L11 19L11 18L12 18L12 20L13 20L13 18L14 18L14 19L15 19L15 17L17 17L17 18L16 18L16 21L19 21L19 20L20 20L20 19L21 19L21 16L18 16L18 15L19 15L19 13L18 13L18 14L17 14L17 12L18 12L18 11L19 11L19 12L20 12L20 15L21 15L21 11L20 11L20 9L21 9L21 8L19 8L19 9L18 9L18 8L15 8L15 9L17 9L17 10L18 10L18 11L17 11L17 12L16 12L16 13L15 13L15 11L14 11L14 10L12 10L12 11L11 11L11 9L13 9L13 8L12 8L12 7L13 7L13 5L11 5L11 4L12 4L12 3L11 3L11 2L9 2L9 0ZM12 1L12 2L13 2L13 1ZM9 3L9 5L10 5L10 3ZM11 6L11 7L12 7L12 6ZM3 8L3 9L4 9L4 11L7 11L7 10L5 10L5 9L4 9L4 8ZM6 8L6 9L7 9L7 8ZM0 9L0 11L1 11L1 12L0 12L0 13L2 13L2 12L3 12L3 13L5 13L5 12L3 12L3 10L2 10L2 9ZM6 12L6 13L7 13L7 12ZM16 14L16 15L17 15L17 14ZM12 16L12 18L13 18L13 16ZM17 16L17 17L18 17L18 16ZM17 18L17 20L18 20L18 19L20 19L20 18ZM10 20L10 21L11 21L11 20ZM14 20L14 21L15 21L15 20ZM0 0L0 7L7 7L7 0ZM1 1L1 6L6 6L6 1ZM2 2L2 5L5 5L5 2ZM14 0L14 7L21 7L21 0ZM15 1L15 6L20 6L20 1ZM16 2L16 5L19 5L19 2ZM0 14L0 21L7 21L7 14ZM1 15L1 20L6 20L6 15ZM2 16L2 19L5 19L5 16Z" fill="#282828"/></g></g></svg>
