<?xml version="1.0" encoding="UTF-8"?>
<svg xmlns="http://www.w3.org/2000/svg" version="1.1" width="400" height="400" viewBox="0 0 400 400"><rect x="0" y="0" width="400" height="400" fill="#f5f5f5"/><g transform="scale(14.815)"><g transform="translate(3,3)"><path fill-rule="evenodd" d="M9 0L9 1L8 1L8 2L9 2L9 4L10 4L10 5L8 5L8 8L4 8L4 9L0 9L0 12L2 12L2 13L7 13L7 12L5 12L5 11L4 11L4 12L3 12L3 11L1 11L1 10L4 10L4 9L5 9L5 10L6 10L6 11L7 11L7 10L9 10L9 11L11 11L11 12L8 12L8 17L9 17L9 13L10 13L10 14L13 14L13 15L12 15L12 18L11 18L11 16L10 16L10 18L9 18L9 21L11 21L11 19L13 19L13 20L12 20L12 21L13 21L13 20L15 20L15 19L16 19L16 20L17 20L17 19L18 19L18 21L21 21L21 20L20 20L20 19L19 19L19 18L21 18L21 16L20 16L20 15L21 15L21 14L20 14L20 13L19 13L19 14L20 14L20 15L19 15L19 16L18 16L18 14L17 14L17 16L16 16L16 15L14 15L14 14L13 14L13 13L15 13L15 12L14 12L14 11L16 11L16 12L18 12L18 11L20 11L20 12L21 12L21 11L20 11L20 8L19 8L19 10L18 10L18 11L17 11L17 10L16 10L16 8L14 8L14 9L13 9L13 10L12 10L12 11L11 11L11 9L10 9L10 10L9 10L9 9L8 9L8 8L10 8L10 7L11 7L11 6L12 6L12 8L13 8L13 5L12 5L12 4L13 4L13 2L12 2L12 4L10 4L10 3L11 3L11 1L10 1L10 0ZM12 0L12 1L13 1L13 0ZM9 1L9 2L10 2L10 1ZM9 6L9 7L10 7L10 6ZM6 9L6 10L7 10L7 9ZM13 10L13 11L12 11L12 12L11 12L11 13L12 13L12 12L13 12L13 11L14 11L14 10ZM13 16L13 18L14 18L14 19L15 19L15 18L14 18L14 17L15 17L15 16ZM17 16L17 17L16 17L16 18L17 18L17 17L18 17L18 18L19 18L19 17L18 17L18 16ZM10 18L10 19L11 19L11 18ZM0 0L0 7L7 7L7 0ZM1 1L1 6L6 6L6 1ZM2 2L2 5L5 5L5 2ZM14 0L14 7L21 7L21 0ZM15 1L15 6L20 6L20 1ZM16 2L16 5L19 5L19 2ZM0 14L0 21L7 21L7 14ZM1 15L1 20L6 20L6 15ZM2 16L2 19L5 19L5 16Z" fill="#282828"/></g></g></svg>
