<?xml version="1.0" encoding="UTF-8"?>
<svg xmlns="http://www.w3.org/2000/svg" version="1.1" width="400" height="400" viewBox="0 0 400 400"><rect x="0" y="0" width="400" height="400" fill="#f5f5f5"/><g transform="scale(14.815)"><g transform="translate(3,3)"><path fill-rule="evenodd" d="M9 0L9 1L8 1L8 7L9 7L9 8L5 8L5 9L4 9L4 10L2 10L2 9L3 9L3 8L2 8L2 9L0 9L0 11L2 11L2 12L1 12L1 13L3 13L3 11L4 11L4 10L5 10L5 9L9 9L9 12L8 12L8 11L7 11L7 10L6 10L6 11L5 11L5 13L8 13L8 16L9 16L9 15L10 15L10 14L11 14L11 16L10 16L10 17L9 17L9 18L8 18L8 19L9 19L9 21L12 21L12 20L13 20L13 21L14 21L14 20L13 20L13 15L14 15L14 18L15 18L15 21L21 21L21 20L20 20L20 19L21 19L21 18L19 18L19 17L21 17L21 16L20 16L20 14L18 14L18 13L19 13L19 11L20 11L20 8L15 8L15 10L14 10L14 8L13 8L13 5L12 5L12 7L11 7L11 4L12 4L12 2L13 2L13 1L11 1L11 0ZM10 2L10 4L9 4L9 7L10 7L10 8L9 8L9 9L10 9L10 11L11 11L11 10L13 10L13 12L11 12L11 14L12 14L12 15L13 15L13 14L12 14L12 13L14 13L14 14L15 14L15 17L16 17L16 18L17 18L17 16L19 16L19 15L17 15L17 13L18 13L18 12L17 12L17 11L19 11L19 10L18 10L18 9L16 9L16 10L17 10L17 11L16 11L16 12L17 12L17 13L14 13L14 12L15 12L15 11L14 11L14 10L13 10L13 8L11 8L11 7L10 7L10 4L11 4L11 2ZM6 11L6 12L7 12L7 11ZM9 13L9 14L10 14L10 13ZM16 15L16 16L17 16L17 15ZM18 18L18 19L19 19L19 18ZM11 19L11 20L12 20L12 19ZM16 19L16 20L17 20L17 19ZM0 0L0 7L7 7L7 0ZM1 1L1 6L6 6L6 1ZM2 2L2 5L5 5L5 2ZM14 0L14 7L21 7L21 0ZM15 1L15 6L20 6L20 1ZM16 2L16 5L19 5L19 2ZM0 14L0 21L7 21L7 14ZM1 15L1 20L6 20L6 15ZM2 16L2 19L5 19L5 16Z" fill="#282828"/></g></g></svg>
