<?xml version="1.0" encoding="UTF-8"?>
<svg xmlns="http://www.w3.org/2000/svg" version="1.1" width="400" height="400" viewBox="0 0 400 400"><rect x="0" y="0" width="400" height="400" fill="#f5f5f5"/><g transform="scale(14.815)"><g transform="translate(3,3)"><path fill-rule="evenodd" d="M9 0L9 1L8 1L8 2L9 2L9 3L10 3L10 7L9 7L9 5L8 5L8 8L4 8L4 9L1 9L1 11L0 11L0 13L3 13L3 12L1 12L1 11L2 11L2 10L4 10L4 12L6 12L6 13L8 13L8 17L9 17L9 19L10 19L10 18L11 18L11 21L15 21L15 19L16 19L16 20L17 20L17 19L18 19L18 21L21 21L21 20L20 20L20 19L19 19L19 18L21 18L21 16L20 16L20 15L21 15L21 14L20 14L20 15L19 15L19 16L18 16L18 14L17 14L17 16L16 16L16 15L15 15L15 17L14 17L14 16L12 16L12 14L13 14L13 15L14 15L14 14L15 14L15 11L16 11L16 12L17 12L17 13L21 13L21 11L20 11L20 12L19 12L19 11L18 11L18 12L17 12L17 10L21 10L21 9L20 9L20 8L19 8L19 9L17 9L17 10L16 10L16 8L14 8L14 9L15 9L15 11L14 11L14 14L13 14L13 13L12 13L12 12L13 12L13 6L12 6L12 7L11 7L11 3L12 3L12 5L13 5L13 1L12 1L12 0L11 0L11 2L9 2L9 1L10 1L10 0ZM10 7L10 8L8 8L8 9L4 9L4 10L9 10L9 9L11 9L11 10L10 10L10 11L9 11L9 12L8 12L8 11L6 11L6 12L8 12L8 13L9 13L9 15L11 15L11 14L12 14L12 13L10 13L10 11L11 11L11 12L12 12L12 11L11 11L11 10L12 10L12 8L11 8L11 7ZM9 16L9 17L11 17L11 18L12 18L12 19L13 19L13 20L14 20L14 19L15 19L15 18L14 18L14 17L13 17L13 18L12 18L12 17L11 17L11 16ZM17 16L17 17L16 17L16 18L17 18L17 17L18 17L18 18L19 18L19 17L18 17L18 16ZM0 0L0 7L7 7L7 0ZM1 1L1 6L6 6L6 1ZM2 2L2 5L5 5L5 2ZM14 0L14 7L21 7L21 0ZM15 1L15 6L20 6L20 1ZM16 2L16 5L19 5L19 2ZM0 14L0 21L7 21L7 14ZM1 15L1 20L6 20L6 15ZM2 16L2 19L5 19L5 16Z" fill="#282828"/></g></g></svg>
