<?xml version="1.0" encoding="UTF-8"?>
<svg xmlns="http://www.w3.org/2000/svg" version="1.1" width="400" height="400" viewBox="0 0 400 400"><rect x="0" y="0" width="400" height="400" fill="#f5f5f5"/><g transform="scale(14.815)"><g transform="translate(3,3)"><path fill-rule="evenodd" d="M10 0L10 1L8 1L8 2L9 2L9 5L8 5L8 8L4 8L4 9L1 9L1 11L0 11L0 13L3 13L3 12L5 12L5 11L8 11L8 12L9 12L9 13L8 13L8 17L9 17L9 21L11 21L11 20L13 20L13 21L15 21L15 19L16 19L16 20L17 20L17 19L18 19L18 21L21 21L21 20L20 20L20 19L19 19L19 18L21 18L21 16L20 16L20 15L21 15L21 14L20 14L20 11L21 11L21 10L18 10L18 9L17 9L17 10L16 10L16 8L14 8L14 9L15 9L15 10L12 10L12 11L11 11L11 12L12 12L12 13L10 13L10 12L9 12L9 11L8 11L8 10L5 10L5 9L8 9L8 8L9 8L9 10L11 10L11 5L12 5L12 4L13 4L13 3L12 3L12 2L13 2L13 1L12 1L12 0ZM10 1L10 3L11 3L11 4L12 4L12 3L11 3L11 1ZM9 5L9 7L10 7L10 5ZM12 6L12 9L13 9L13 6ZM19 8L19 9L20 9L20 8ZM4 10L4 11L5 11L5 10ZM17 10L17 11L18 11L18 10ZM1 11L1 12L3 12L3 11ZM12 11L12 12L13 12L13 13L15 13L15 15L16 15L16 16L17 16L17 17L16 17L16 18L17 18L17 17L18 17L18 18L19 18L19 17L18 17L18 16L19 16L19 15L20 15L20 14L18 14L18 16L17 16L17 13L18 13L18 12L16 12L16 11L15 11L15 12L14 12L14 11ZM6 12L6 13L7 13L7 12ZM9 14L9 17L12 17L12 18L11 18L11 19L12 19L12 18L14 18L14 19L13 19L13 20L14 20L14 19L15 19L15 18L14 18L14 17L15 17L15 16L14 16L14 15L13 15L13 14ZM10 15L10 16L12 16L12 15ZM13 16L13 17L14 17L14 16ZM0 0L0 7L7 7L7 0ZM1 1L1 6L6 6L6 1ZM2 2L2 5L5 5L5 2ZM14 0L14 7L21 7L21 0ZM15 1L15 6L20 6L20 1ZM16 2L16 5L19 5L19 2ZM0 14L0 21L7 21L7 14ZM1 15L1 20L6 20L6 15ZM2 16L2 19L5 19L5 16Z" fill="#282828"/></g></g></svg>
