<?xml version="1.0" encoding="UTF-8"?>
<svg xmlns="http://www.w3.org/2000/svg" version="1.1" width="400" height="400" viewBox="0 0 400 400"><rect x="0" y="0" width="400" height="400" fill="#f5f5f5"/><g transform="scale(14.815)"><g transform="translate(3,3)"><path fill-rule="evenodd" d="M9 0L9 4L8 4L8 5L9 5L9 6L8 6L8 8L6 8L6 9L5 9L5 10L4 10L4 8L2 8L2 9L0 9L0 10L1 10L1 12L2 12L2 11L3 11L3 12L4 12L4 13L7 13L7 12L10 12L10 11L11 11L11 10L12 10L12 11L13 11L13 10L14 10L14 11L15 11L15 12L14 12L14 14L12 14L12 13L13 13L13 12L12 12L12 13L10 13L10 14L9 14L9 13L8 13L8 15L9 15L9 17L8 17L8 19L11 19L11 20L14 20L14 21L15 21L15 20L16 20L16 21L17 21L17 20L16 20L16 18L20 18L20 17L21 17L21 16L20 16L20 15L21 15L21 14L20 14L20 13L19 13L19 15L18 15L18 16L17 16L17 15L16 15L16 14L15 14L15 13L16 13L16 12L17 12L17 14L18 14L18 12L17 12L17 11L18 11L18 9L17 9L17 8L16 8L16 9L17 9L17 11L15 11L15 10L14 10L14 9L15 9L15 8L13 8L13 9L12 9L12 8L11 8L11 9L10 9L10 7L11 7L11 6L12 6L12 7L13 7L13 6L12 6L12 5L13 5L13 4L11 4L11 3L13 3L13 2L10 2L10 0ZM9 4L9 5L10 5L10 6L9 6L9 7L10 7L10 6L11 6L11 5L10 5L10 4ZM6 9L6 10L7 10L7 9ZM9 9L9 10L8 10L8 11L10 11L10 9ZM19 9L19 10L20 10L20 9ZM3 10L3 11L4 11L4 12L5 12L5 11L4 11L4 10ZM6 11L6 12L7 12L7 11ZM20 11L20 12L21 12L21 11ZM10 14L10 17L9 17L9 18L11 18L11 15L12 15L12 16L13 16L13 17L12 17L12 18L13 18L13 19L14 19L14 18L15 18L15 16L13 16L13 15L12 15L12 14ZM14 14L14 15L15 15L15 14ZM18 16L18 17L20 17L20 16ZM13 17L13 18L14 18L14 17ZM18 19L18 20L19 20L19 21L20 21L20 20L21 20L21 19ZM9 20L9 21L10 21L10 20ZM0 0L0 7L7 7L7 0ZM1 1L1 6L6 6L6 1ZM2 2L2 5L5 5L5 2ZM14 0L14 7L21 7L21 0ZM15 1L15 6L20 6L20 1ZM16 2L16 5L19 5L19 2ZM0 14L0 21L7 21L7 14ZM1 15L1 20L6 20L6 15ZM2 16L2 19L5 19L5 16Z" fill="#282828"/></g></g></svg>
