<?xml version="1.0" encoding="UTF-8"?>
<svg xmlns="http://www.w3.org/2000/svg" version="1.1" width="400" height="400" viewBox="0 0 400 400"><rect x="0" y="0" width="400" height="400" fill="#f5f5f5"/><g transform="scale(14.815)"><g transform="translate(3,3)"><path fill-rule="evenodd" d="M9 0L9 1L10 1L10 2L9 2L9 3L10 3L10 4L12 4L12 5L13 5L13 2L11 2L11 1L13 1L13 0L11 0L11 1L10 1L10 0ZM8 4L8 5L9 5L9 4ZM10 5L10 7L11 7L11 9L12 9L12 8L13 8L13 9L14 9L14 10L15 10L15 8L13 8L13 6L12 6L12 7L11 7L11 5ZM8 6L8 8L6 8L6 9L4 9L4 8L2 8L2 9L0 9L0 11L1 11L1 10L2 10L2 9L3 9L3 11L2 11L2 13L3 13L3 12L4 12L4 11L7 11L7 12L5 12L5 13L8 13L8 15L9 15L9 16L10 16L10 17L8 17L8 19L9 19L9 20L10 20L10 21L11 21L11 20L12 20L12 21L13 21L13 20L14 20L14 21L15 21L15 20L16 20L16 21L17 21L17 20L16 20L16 18L20 18L20 17L21 17L21 16L20 16L20 15L21 15L21 14L20 14L20 13L18 13L18 12L19 12L19 11L20 11L20 12L21 12L21 11L20 11L20 9L17 9L17 8L16 8L16 9L17 9L17 11L15 11L15 13L13 13L13 12L11 12L11 11L13 11L13 10L11 10L11 11L10 11L10 10L9 10L9 13L8 13L8 10L6 10L6 9L10 9L10 8L9 8L9 6ZM17 11L17 12L16 12L16 13L15 13L15 14L13 14L13 15L12 15L12 16L11 16L11 15L10 15L10 14L9 14L9 15L10 15L10 16L11 16L11 17L10 17L10 18L11 18L11 19L15 19L15 17L14 17L14 16L15 16L15 14L16 14L16 15L17 15L17 16L18 16L18 17L20 17L20 16L18 16L18 15L19 15L19 14L18 14L18 13L17 13L17 12L18 12L18 11ZM0 12L0 13L1 13L1 12ZM13 15L13 16L14 16L14 15ZM12 17L12 18L13 18L13 17ZM18 19L18 20L19 20L19 21L20 21L20 20L21 20L21 19ZM0 0L0 7L7 7L7 0ZM1 1L1 6L6 6L6 1ZM2 2L2 5L5 5L5 2ZM14 0L14 7L21 7L21 0ZM15 1L15 6L20 6L20 1ZM16 2L16 5L19 5L19 2ZM0 14L0 21L7 21L7 14ZM1 15L1 20L6 20L6 15ZM2 16L2 19L5 19L5 16Z" fill="#282828"/></g></g></svg>
