<?xml version="1.0" encoding="UTF-8"?>
<svg xmlns="http://www.w3.org/2000/svg" version="1.1" width="400" height="400" viewBox="0 0 400 400"><rect x="0" y="0" width="400" height="400" fill="#f5f5f5"/><g transform="scale(14.815)"><g transform="translate(3,3)"><path fill-rule="evenodd" d="M8 0L8 2L9 2L9 3L8 3L8 7L9 7L9 8L10 8L10 7L11 7L11 8L12 8L12 9L7 9L7 8L6 8L6 9L4 9L4 8L3 8L3 10L2 10L2 11L0 11L0 13L1 13L1 12L2 12L2 11L4 11L4 12L3 12L3 13L4 13L4 12L5 12L5 13L7 13L7 12L14 12L14 9L13 9L13 8L12 8L12 7L13 7L13 6L12 6L12 7L11 7L11 6L10 6L10 7L9 7L9 4L10 4L10 5L11 5L11 4L12 4L12 5L13 5L13 3L12 3L12 2L13 2L13 0L10 0L10 1L9 1L9 0ZM10 1L10 4L11 4L11 2L12 2L12 1ZM15 8L15 9L18 9L18 11L17 11L17 12L16 12L16 13L15 13L15 14L14 14L14 13L12 13L12 15L13 15L13 17L14 17L14 18L15 18L15 17L17 17L17 18L16 18L16 21L19 21L19 20L20 20L20 19L21 19L21 16L18 16L18 15L19 15L19 14L20 14L20 15L21 15L21 14L20 14L20 13L21 13L21 8L19 8L19 9L18 9L18 8ZM0 9L0 10L1 10L1 9ZM6 9L6 10L4 10L4 11L5 11L5 12L7 12L7 11L6 11L6 10L7 10L7 9ZM19 9L19 12L18 12L18 13L20 13L20 9ZM8 10L8 11L12 11L12 10ZM8 13L8 14L10 14L10 15L11 15L11 13ZM16 14L16 15L17 15L17 14ZM9 16L9 17L8 17L8 18L9 18L9 19L10 19L10 16ZM14 16L14 17L15 17L15 16ZM17 16L17 17L18 17L18 16ZM11 18L11 20L12 20L12 21L15 21L15 20L13 20L13 19L12 19L12 18ZM17 18L17 20L18 20L18 19L20 19L20 18ZM0 0L0 7L7 7L7 0ZM1 1L1 6L6 6L6 1ZM2 2L2 5L5 5L5 2ZM14 0L14 7L21 7L21 0ZM15 1L15 6L20 6L20 1ZM16 2L16 5L19 5L19 2ZM0 14L0 21L7 21L7 14ZM1 15L1 20L6 20L6 15ZM2 16L2 19L5 19L5 16Z" fill="#282828"/></g></g></svg>
