<?xml version="1.0" encoding="UTF-8"?>
<svg xmlns="http://www.w3.org/2000/svg" version="1.1" width="400" height="400" viewBox="0 0 400 400"><rect x="0" y="0" width="400" height="400" fill="#f5f5f5"/><g transform="scale(14.815)"><g transform="translate(3,3)"><path fill-rule="evenodd" d="M8 0L8 1L9 1L9 0ZM10 0L10 1L11 1L11 0ZM12 0L12 2L13 2L13 0ZM10 2L10 4L9 4L9 3L8 3L8 4L9 4L9 5L10 5L10 7L11 7L11 8L12 8L12 9L11 9L11 10L10 10L10 11L11 11L11 13L8 13L8 14L9 14L9 15L8 15L8 17L9 17L9 18L8 18L8 19L9 19L9 18L10 18L10 19L11 19L11 21L15 21L15 17L16 17L16 16L18 16L18 18L20 18L20 19L21 19L21 18L20 18L20 17L21 17L21 16L20 16L20 17L19 17L19 16L18 16L18 15L19 15L19 14L18 14L18 15L16 15L16 13L17 13L17 12L18 12L18 13L20 13L20 12L18 12L18 10L19 10L19 11L21 11L21 8L20 8L20 10L19 10L19 9L18 9L18 8L17 8L17 10L16 10L16 11L17 11L17 12L16 12L16 13L15 13L15 14L14 14L14 13L13 13L13 11L14 11L14 10L13 10L13 9L14 9L14 8L12 8L12 7L13 7L13 4L12 4L12 5L11 5L11 2ZM8 6L8 7L9 7L9 6ZM11 6L11 7L12 7L12 6ZM2 8L2 9L3 9L3 10L2 10L2 13L4 13L4 12L6 12L6 13L7 13L7 12L8 12L8 11L9 11L9 8L8 8L8 10L5 10L5 9L7 9L7 8L4 8L4 9L3 9L3 8ZM0 9L0 11L1 11L1 9ZM3 10L3 11L5 11L5 10ZM12 10L12 11L13 11L13 10ZM6 11L6 12L7 12L7 11ZM0 12L0 13L1 13L1 12ZM12 13L12 14L11 14L11 15L9 15L9 17L10 17L10 18L11 18L11 19L12 19L12 20L14 20L14 17L15 17L15 16L14 16L14 14L13 14L13 13ZM12 14L12 15L11 15L11 18L12 18L12 17L14 17L14 16L12 16L12 15L13 15L13 14ZM16 18L16 19L17 19L17 18ZM18 19L18 21L19 21L19 19ZM9 20L9 21L10 21L10 20ZM16 20L16 21L17 21L17 20ZM20 20L20 21L21 21L21 20ZM0 0L0 7L7 7L7 0ZM1 1L1 6L6 6L6 1ZM2 2L2 5L5 5L5 2ZM14 0L14 7L21 7L21 0ZM15 1L15 6L20 6L20 1ZM16 2L16 5L19 5L19 2ZM0 14L0 21L7 21L7 14ZM1 15L1 20L6 20L6 15ZM2 16L2 19L5 19L5 16Z" fill="#282828"/></g></g></svg>
