<?xml version="1.0" encoding="UTF-8"?>
<svg xmlns="http://www.w3.org/2000/svg" version="1.1" width="400" height="400" viewBox="0 0 400 400"><rect x="0" y="0" width="400" height="400" fill="#f5f5f5"/><g transform="scale(14.815)"><g transform="translate(3,3)"><path fill-rule="evenodd" d="M9 0L9 1L12 1L12 2L11 2L11 3L10 3L10 4L8 4L8 5L9 5L9 6L8 6L8 8L6 8L6 9L8 9L8 10L6 10L6 11L5 11L5 10L4 10L4 11L3 11L3 10L2 10L2 9L4 9L4 8L2 8L2 9L0 9L0 10L2 10L2 11L3 11L3 12L1 12L1 13L5 13L5 12L6 12L6 13L7 13L7 12L8 12L8 10L9 10L9 12L10 12L10 13L11 13L11 12L10 12L10 11L11 11L11 10L12 10L12 11L14 11L14 10L13 10L13 9L15 9L15 8L13 8L13 1L12 1L12 0ZM11 3L11 4L10 4L10 5L12 5L12 3ZM9 6L9 8L11 8L11 9L9 9L9 10L11 10L11 9L13 9L13 8L12 8L12 6L11 6L11 7L10 7L10 6ZM16 8L16 9L17 9L17 8ZM18 9L18 10L21 10L21 9ZM6 11L6 12L7 12L7 11ZM15 11L15 13L14 13L14 12L12 12L12 13L14 13L14 14L13 14L13 15L15 15L15 16L14 16L14 17L13 17L13 16L12 16L12 17L10 17L10 16L11 16L11 15L12 15L12 14L10 14L10 16L9 16L9 17L8 17L8 19L9 19L9 20L11 20L11 21L15 21L15 20L16 20L16 21L17 21L17 20L16 20L16 18L20 18L20 17L21 17L21 16L20 16L20 15L21 15L21 14L19 14L19 15L18 15L18 16L17 16L17 15L16 15L16 14L15 14L15 13L16 13L16 12L17 12L17 14L18 14L18 12L19 12L19 13L20 13L20 12L21 12L21 11L18 11L18 12L17 12L17 11ZM8 13L8 15L9 15L9 13ZM18 16L18 17L20 17L20 16ZM9 17L9 19L11 19L11 20L12 20L12 19L13 19L13 17L12 17L12 18L10 18L10 17ZM14 17L14 19L15 19L15 17ZM18 19L18 20L19 20L19 21L20 21L20 20L21 20L21 19ZM0 0L0 7L7 7L7 0ZM1 1L1 6L6 6L6 1ZM2 2L2 5L5 5L5 2ZM14 0L14 7L21 7L21 0ZM15 1L15 6L20 6L20 1ZM16 2L16 5L19 5L19 2ZM0 14L0 21L7 21L7 14ZM1 15L1 20L6 20L6 15ZM2 16L2 19L5 19L5 16Z" fill="#282828"/></g></g></svg>
