<?xml version="1.0" encoding="UTF-8"?>
<svg xmlns="http://www.w3.org/2000/svg" version="1.1" width="400" height="400" viewBox="0 0 400 400"><rect x="0" y="0" width="400" height="400" fill="#f5f5f5"/><g transform="scale(14.815)"><g transform="translate(3,3)"><path fill-rule="evenodd" d="M11 0L11 2L10 2L10 1L8 1L8 7L9 7L9 8L5 8L5 9L4 9L4 10L1 10L1 9L0 9L0 10L1 10L1 11L2 11L2 12L0 12L0 13L3 13L3 12L5 12L5 13L8 13L8 16L10 16L10 19L9 19L9 18L8 18L8 19L9 19L9 21L11 21L11 20L10 20L10 19L11 19L11 18L12 18L12 14L14 14L14 15L13 15L13 17L14 17L14 16L15 16L15 13L17 13L17 15L16 15L16 16L17 16L17 18L16 18L16 17L15 17L15 19L14 19L14 18L13 18L13 20L12 20L12 21L13 21L13 20L14 20L14 21L21 21L21 20L20 20L20 19L21 19L21 18L19 18L19 17L21 17L21 16L20 16L20 14L18 14L18 13L17 13L17 12L19 12L19 11L21 11L21 10L19 10L19 11L18 11L18 9L20 9L20 8L15 8L15 9L14 9L14 8L12 8L12 7L13 7L13 6L12 6L12 5L13 5L13 4L12 4L12 3L13 3L13 2L12 2L12 0ZM11 2L11 3L9 3L9 5L10 5L10 4L11 4L11 5L12 5L12 4L11 4L11 3L12 3L12 2ZM9 6L9 7L10 7L10 6ZM11 6L11 7L12 7L12 6ZM2 8L2 9L3 9L3 8ZM9 8L9 10L7 10L7 9L6 9L6 10L7 10L7 11L6 11L6 12L7 12L7 11L8 11L8 13L9 13L9 12L11 12L11 11L9 11L9 10L10 10L10 8ZM11 9L11 10L12 10L12 13L11 13L11 14L12 14L12 13L13 13L13 9ZM16 9L16 10L17 10L17 9ZM14 11L14 13L15 13L15 11ZM16 11L16 12L17 12L17 11ZM9 14L9 15L10 15L10 16L11 16L11 15L10 15L10 14ZM17 15L17 16L19 16L19 15ZM18 18L18 19L19 19L19 18ZM16 19L16 20L17 20L17 19ZM0 0L0 7L7 7L7 0ZM1 1L1 6L6 6L6 1ZM2 2L2 5L5 5L5 2ZM14 0L14 7L21 7L21 0ZM15 1L15 6L20 6L20 1ZM16 2L16 5L19 5L19 2ZM0 14L0 21L7 21L7 14ZM1 15L1 20L6 20L6 15ZM2 16L2 19L5 19L5 16Z" fill="#282828"/></g></g></svg>
