<?xml version="1.0" encoding="UTF-8"?>
<svg xmlns="http://www.w3.org/2000/svg" version="1.1" width="400" height="400" viewBox="0 0 400 400"><rect x="0" y="0" width="400" height="400" fill="#f5f5f5"/><g transform="scale(14.815)"><g transform="translate(3,3)"><path fill-rule="evenodd" d="M8 0L8 1L9 1L9 2L8 2L8 3L9 3L9 2L11 2L11 3L10 3L10 4L8 4L8 5L10 5L10 7L9 7L9 6L8 6L8 8L9 8L9 10L8 10L8 11L7 11L7 10L5 10L5 9L7 9L7 8L5 8L5 9L3 9L3 11L2 11L2 12L1 12L1 10L2 10L2 9L0 9L0 13L3 13L3 12L4 12L4 11L7 11L7 12L5 12L5 13L8 13L8 14L9 14L9 13L8 13L8 11L9 11L9 12L10 12L10 13L11 13L11 12L10 12L10 11L9 11L9 10L11 10L11 11L12 11L12 14L13 14L13 12L14 12L14 15L15 15L15 13L17 13L17 12L16 12L16 10L17 10L17 11L18 11L18 17L17 17L17 16L16 16L16 17L15 17L15 16L14 16L14 17L15 17L15 18L12 18L12 17L13 17L13 15L11 15L11 14L10 14L10 16L9 16L9 15L8 15L8 16L9 16L9 17L10 17L10 18L9 18L9 19L10 19L10 18L12 18L12 19L13 19L13 20L14 20L14 19L15 19L15 21L16 21L16 19L17 19L17 20L18 20L18 21L19 21L19 20L20 20L20 19L21 19L21 18L19 18L19 20L18 20L18 17L19 17L19 16L21 16L21 12L19 12L19 11L18 11L18 10L19 10L19 8L18 8L18 10L17 10L17 8L16 8L16 9L15 9L15 8L14 8L14 10L13 10L13 6L12 6L12 8L11 8L11 5L12 5L12 4L13 4L13 2L12 2L12 1L9 1L9 0ZM11 3L11 4L12 4L12 3ZM20 8L20 9L21 9L21 8ZM12 10L12 11L13 11L13 10ZM14 11L14 12L15 12L15 11ZM19 13L19 15L20 15L20 13ZM16 14L16 15L17 15L17 14ZM10 16L10 17L12 17L12 16ZM16 17L16 18L17 18L17 17ZM10 20L10 21L11 21L11 20ZM0 0L0 7L7 7L7 0ZM1 1L1 6L6 6L6 1ZM2 2L2 5L5 5L5 2ZM14 0L14 7L21 7L21 0ZM15 1L15 6L20 6L20 1ZM16 2L16 5L19 5L19 2ZM0 14L0 21L7 21L7 14ZM1 15L1 20L6 20L6 15ZM2 16L2 19L5 19L5 16Z" fill="#282828"/></g></g></svg>
