<?xml version="1.0" encoding="UTF-8"?>
<svg xmlns="http://www.w3.org/2000/svg" version="1.1" width="400" height="400" viewBox="0 0 400 400"><rect x="0" y="0" width="400" height="400" fill="#f5f5f5"/><g transform="scale(14.815)"><g transform="translate(3,3)"><path fill-rule="evenodd" d="M12 0L12 7L13 7L13 0ZM9 1L9 2L10 2L10 1ZM10 3L10 7L9 7L9 6L8 6L8 8L6 8L6 9L5 9L5 10L3 10L3 9L4 9L4 8L2 8L2 10L0 10L0 12L1 12L1 13L5 13L5 12L6 12L6 13L7 13L7 12L6 12L6 11L7 11L7 10L6 10L6 9L8 9L8 12L9 12L9 11L10 11L10 12L12 12L12 13L8 13L8 15L9 15L9 17L8 17L8 19L10 19L10 20L9 20L9 21L12 21L12 20L11 20L11 19L12 19L12 18L11 18L11 17L12 17L12 16L11 16L11 17L10 17L10 15L12 15L12 14L14 14L14 15L15 15L15 16L13 16L13 18L14 18L14 20L16 20L16 21L17 21L17 20L16 20L16 18L20 18L20 17L21 17L21 16L20 16L20 15L21 15L21 13L20 13L20 12L21 12L21 11L20 11L20 10L19 10L19 9L18 9L18 10L17 10L17 11L15 11L15 8L11 8L11 9L13 9L13 10L12 10L12 11L11 11L11 10L9 10L9 9L10 9L10 7L11 7L11 3ZM8 4L8 5L9 5L9 4ZM16 8L16 9L17 9L17 8ZM2 10L2 11L3 11L3 12L5 12L5 11L3 11L3 10ZM18 10L18 11L17 11L17 12L16 12L16 13L14 13L14 14L16 14L16 15L17 15L17 16L18 16L18 17L20 17L20 16L18 16L18 15L19 15L19 14L20 14L20 13L19 13L19 12L20 12L20 11L19 11L19 10ZM13 11L13 12L15 12L15 11ZM17 13L17 14L18 14L18 13ZM9 14L9 15L10 15L10 14ZM9 17L9 18L10 18L10 17ZM14 17L14 18L15 18L15 17ZM18 19L18 20L19 20L19 21L20 21L20 20L21 20L21 19ZM0 0L0 7L7 7L7 0ZM1 1L1 6L6 6L6 1ZM2 2L2 5L5 5L5 2ZM14 0L14 7L21 7L21 0ZM15 1L15 6L20 6L20 1ZM16 2L16 5L19 5L19 2ZM0 14L0 21L7 21L7 14ZM1 15L1 20L6 20L6 15ZM2 16L2 19L5 19L5 16Z" fill="#282828"/></g></g></svg>
