<?xml version="1.0" encoding="UTF-8"?>
<svg xmlns="http://www.w3.org/2000/svg" version="1.1" width="400" height="400" viewBox="0 0 400 400"><rect x="0" y="0" width="400" height="400" fill="#f5f5f5"/><g transform="scale(14.815)"><g transform="translate(3,3)"><path fill-rule="evenodd" d="M8 0L8 2L10 2L10 3L8 3L8 7L9 7L9 5L10 5L10 4L11 4L11 6L10 6L10 9L11 9L11 11L10 11L10 10L9 10L9 9L7 9L7 8L6 8L6 9L4 9L4 8L3 8L3 9L2 9L2 10L1 10L1 9L0 9L0 10L1 10L1 11L0 11L0 12L3 12L3 13L4 13L4 12L5 12L5 11L2 11L2 10L3 10L3 9L4 9L4 10L6 10L6 11L7 11L7 12L6 12L6 13L8 13L8 14L9 14L9 12L8 12L8 10L9 10L9 11L10 11L10 12L11 12L11 11L12 11L12 12L13 12L13 13L12 13L12 14L13 14L13 15L12 15L12 16L14 16L14 14L15 14L15 17L17 17L17 18L16 18L16 21L19 21L19 20L20 20L20 19L21 19L21 16L18 16L18 15L19 15L19 14L20 14L20 15L21 15L21 11L18 11L18 10L19 10L19 9L21 9L21 8L19 8L19 9L18 9L18 8L15 8L15 9L17 9L17 11L18 11L18 12L16 12L16 13L15 13L15 12L14 12L14 11L15 11L15 10L14 10L14 11L12 11L12 10L13 10L13 6L12 6L12 5L13 5L13 4L12 4L12 3L13 3L13 1L12 1L12 0ZM10 1L10 2L11 2L11 1ZM11 6L11 8L12 8L12 6ZM6 9L6 10L7 10L7 9ZM18 12L18 13L17 13L17 14L16 14L16 15L17 15L17 14L19 14L19 12ZM10 13L10 16L9 16L9 17L8 17L8 18L10 18L10 19L9 19L9 21L10 21L10 20L11 20L11 19L13 19L13 20L12 20L12 21L15 21L15 20L14 20L14 19L15 19L15 18L14 18L14 17L12 17L12 18L11 18L11 13ZM13 13L13 14L14 14L14 13ZM17 16L17 17L18 17L18 16ZM17 18L17 20L18 20L18 19L20 19L20 18ZM0 0L0 7L7 7L7 0ZM1 1L1 6L6 6L6 1ZM2 2L2 5L5 5L5 2ZM14 0L14 7L21 7L21 0ZM15 1L15 6L20 6L20 1ZM16 2L16 5L19 5L19 2ZM0 14L0 21L7 21L7 14ZM1 15L1 20L6 20L6 15ZM2 16L2 19L5 19L5 16Z" fill="#282828"/></g></g></svg>
