<?xml version="1.0" encoding="UTF-8"?>
<svg xmlns="http://www.w3.org/2000/svg" version="1.1" width="400" height="400" viewBox="0 0 400 400"><rect x="0" y="0" width="400" height="400" fill="#f5f5f5"/><g transform="scale(14.815)"><g transform="translate(3,3)"><path fill-rule="evenodd" d="M8 0L8 1L9 1L9 2L8 2L8 3L9 3L9 2L10 2L10 1L9 1L9 0ZM11 1L11 2L12 2L12 3L13 3L13 1ZM10 3L10 4L11 4L11 6L10 6L10 5L9 5L9 4L8 4L8 5L9 5L9 6L8 6L8 8L12 8L12 7L13 7L13 6L12 6L12 4L11 4L11 3ZM9 6L9 7L10 7L10 6ZM11 6L11 7L12 7L12 6ZM5 8L5 10L4 10L4 9L2 9L2 10L1 10L1 9L0 9L0 10L1 10L1 11L0 11L0 13L1 13L1 12L2 12L2 13L3 13L3 12L4 12L4 13L8 13L8 14L10 14L10 15L8 15L8 16L9 16L9 17L11 17L11 18L10 18L10 19L9 19L9 21L11 21L11 20L12 20L12 21L13 21L13 20L15 20L15 21L16 21L16 19L17 19L17 20L18 20L18 21L19 21L19 20L20 20L20 19L21 19L21 18L19 18L19 20L18 20L18 17L19 17L19 16L21 16L21 13L19 13L19 14L18 14L18 17L17 17L17 16L16 16L16 17L11 17L11 16L10 16L10 15L12 15L12 16L14 16L14 14L13 14L13 13L14 13L14 11L13 11L13 10L14 10L14 9L15 9L15 13L17 13L17 12L20 12L20 11L21 11L21 8L20 8L20 9L19 9L19 8L18 8L18 9L17 9L17 8L16 8L16 9L15 9L15 8L14 8L14 9L11 9L11 10L10 10L10 9L8 9L8 12L6 12L6 11L7 11L7 10L6 10L6 9L7 9L7 8ZM18 9L18 10L16 10L16 12L17 12L17 11L19 11L19 9ZM5 10L5 11L4 11L4 12L5 12L5 11L6 11L6 10ZM9 11L9 12L10 12L10 14L12 14L12 15L13 15L13 14L12 14L12 12L13 12L13 11ZM16 14L16 15L17 15L17 14ZM19 14L19 15L20 15L20 14ZM16 17L16 18L17 18L17 17ZM12 18L12 20L13 20L13 19L15 19L15 18ZM10 19L10 20L11 20L11 19ZM0 0L0 7L7 7L7 0ZM1 1L1 6L6 6L6 1ZM2 2L2 5L5 5L5 2ZM14 0L14 7L21 7L21 0ZM15 1L15 6L20 6L20 1ZM16 2L16 5L19 5L19 2ZM0 14L0 21L7 21L7 14ZM1 15L1 20L6 20L6 15ZM2 16L2 19L5 19L5 16Z" fill="#282828"/></g></g></svg>
