<?xml version="1.0" encoding="UTF-8"?>
<svg xmlns="http://www.w3.org/2000/svg" version="1.1" width="400" height="400" viewBox="0 0 400 400"><rect x="0" y="0" width="400" height="400" fill="#f5f5f5"/><g transform="scale(14.815)"><g transform="translate(3,3)"><path fill-rule="evenodd" d="M9 0L9 1L12 1L12 3L11 3L11 4L9 4L9 2L8 2L8 4L9 4L9 5L10 5L10 7L9 7L9 6L8 6L8 7L9 7L9 9L10 9L10 8L12 8L12 9L13 9L13 10L11 10L11 12L13 12L13 13L12 13L12 14L11 14L11 13L10 13L10 10L8 10L8 8L6 8L6 9L5 9L5 8L3 8L3 9L1 9L1 10L0 10L0 13L3 13L3 12L4 12L4 13L7 13L7 12L9 12L9 13L8 13L8 15L10 15L10 16L8 16L8 18L9 18L9 19L13 19L13 21L14 21L14 20L15 20L15 21L17 21L17 20L18 20L18 21L20 21L20 20L21 20L21 18L19 18L19 19L20 19L20 20L18 20L18 18L17 18L17 17L19 17L19 16L20 16L20 17L21 17L21 14L19 14L19 12L20 12L20 13L21 13L21 9L19 9L19 8L17 8L17 9L13 9L13 5L11 5L11 4L13 4L13 0ZM11 6L11 7L12 7L12 6ZM3 9L3 10L4 10L4 11L5 11L5 12L7 12L7 11L8 11L8 10L7 10L7 9L6 9L6 10L7 10L7 11L5 11L5 9ZM17 9L17 10L16 10L16 11L17 11L17 12L19 12L19 11L20 11L20 10L18 10L18 9ZM1 10L1 12L3 12L3 11L2 11L2 10ZM13 10L13 11L14 11L14 12L15 12L15 11L14 11L14 10ZM17 10L17 11L18 11L18 10ZM9 13L9 14L10 14L10 13ZM14 13L14 14L12 14L12 15L13 15L13 17L16 17L16 16L18 16L18 14L17 14L17 13ZM9 17L9 18L11 18L11 17ZM13 18L13 19L15 19L15 18ZM16 19L16 20L17 20L17 19ZM9 20L9 21L10 21L10 20ZM11 20L11 21L12 21L12 20ZM0 0L0 7L7 7L7 0ZM1 1L1 6L6 6L6 1ZM2 2L2 5L5 5L5 2ZM14 0L14 7L21 7L21 0ZM15 1L15 6L20 6L20 1ZM16 2L16 5L19 5L19 2ZM0 14L0 21L7 21L7 14ZM1 15L1 20L6 20L6 15ZM2 16L2 19L5 19L5 16Z" fill="#282828"/></g></g></svg>
