<?xml version="1.0" encoding="UTF-8"?>
<svg xmlns="http://www.w3.org/2000/svg" version="1.1" width="400" height="400" viewBox="0 0 400 400"><rect x="0" y="0" width="400" height="400" fill="#f5f5f5"/><g transform="scale(14.815)"><g transform="translate(3,3)"><path fill-rule="evenodd" d="M11 0L11 1L12 1L12 2L13 2L13 0ZM8 1L8 7L9 7L9 6L10 6L10 8L5 8L5 9L4 9L4 10L3 10L3 8L2 8L2 10L0 10L0 12L1 12L1 11L2 11L2 12L3 12L3 11L4 11L4 13L5 13L5 12L6 12L6 13L7 13L7 12L6 12L6 11L8 11L8 16L9 16L9 17L10 17L10 18L8 18L8 19L10 19L10 21L11 21L11 17L12 17L12 19L13 19L13 20L15 20L15 21L21 21L21 20L20 20L20 19L21 19L21 18L19 18L19 17L21 17L21 16L20 16L20 14L21 14L21 13L18 13L18 14L17 14L17 15L16 15L16 16L17 16L17 18L16 18L16 17L14 17L14 16L15 16L15 15L14 15L14 13L13 13L13 12L15 12L15 13L17 13L17 12L19 12L19 11L21 11L21 9L20 9L20 8L15 8L15 10L14 10L14 8L13 8L13 6L12 6L12 8L11 8L11 5L12 5L12 3L10 3L10 1ZM9 3L9 5L10 5L10 3ZM12 8L12 9L10 9L10 12L9 12L9 14L10 14L10 15L9 15L9 16L12 16L12 17L13 17L13 16L14 16L14 15L13 15L13 14L12 14L12 15L11 15L11 14L10 14L10 12L12 12L12 9L13 9L13 8ZM5 9L5 10L8 10L8 11L9 11L9 10L8 10L8 9ZM16 9L16 10L17 10L17 11L16 11L16 12L17 12L17 11L19 11L19 9ZM17 15L17 16L19 16L19 15ZM13 18L13 19L15 19L15 18ZM18 18L18 19L19 19L19 18ZM16 19L16 20L17 20L17 19ZM0 0L0 7L7 7L7 0ZM1 1L1 6L6 6L6 1ZM2 2L2 5L5 5L5 2ZM14 0L14 7L21 7L21 0ZM15 1L15 6L20 6L20 1ZM16 2L16 5L19 5L19 2ZM0 14L0 21L7 21L7 14ZM1 15L1 20L6 20L6 15ZM2 16L2 19L5 19L5 16Z" fill="#282828"/></g></g></svg>
