<?xml version="1.0" encoding="UTF-8"?>
<svg xmlns="http://www.w3.org/2000/svg" version="1.1" width="400" height="400" viewBox="0 0 400 400"><rect x="0" y="0" width="400" height="400" fill="#f5f5f5"/><g transform="scale(14.815)"><g transform="translate(3,3)"><path fill-rule="evenodd" d="M9 0L9 1L10 1L10 2L8 2L8 4L9 4L9 5L10 5L10 7L9 7L9 6L8 6L8 7L9 7L9 9L8 9L8 8L6 8L6 9L5 9L5 8L3 8L3 9L2 9L2 10L1 10L1 9L0 9L0 12L1 12L1 11L2 11L2 13L3 13L3 12L4 12L4 13L5 13L5 11L4 11L4 9L5 9L5 10L6 10L6 11L7 11L7 10L6 10L6 9L8 9L8 10L9 10L9 9L10 9L10 8L11 8L11 10L12 10L12 11L8 11L8 12L6 12L6 13L8 13L8 15L12 15L12 14L13 14L13 12L15 12L15 13L18 13L18 16L16 16L16 17L15 17L15 21L17 21L17 20L18 20L18 21L20 21L20 20L21 20L21 18L19 18L19 19L20 19L20 20L18 20L18 18L17 18L17 17L19 17L19 16L20 16L20 17L21 17L21 13L20 13L20 14L19 14L19 11L20 11L20 10L21 10L21 9L20 9L20 10L19 10L19 11L18 11L18 9L19 9L19 8L17 8L17 9L13 9L13 10L12 10L12 8L11 8L11 6L12 6L12 7L13 7L13 6L12 6L12 5L13 5L13 4L12 4L12 2L13 2L13 0L11 0L11 1L10 1L10 0ZM10 2L10 3L9 3L9 4L10 4L10 5L11 5L11 4L10 4L10 3L11 3L11 2ZM13 10L13 11L15 11L15 10ZM16 10L16 11L17 11L17 12L18 12L18 11L17 11L17 10ZM8 12L8 13L9 13L9 14L10 14L10 12ZM11 13L11 14L12 14L12 13ZM14 14L14 15L13 15L13 16L14 16L14 15L15 15L15 14ZM8 16L8 18L9 18L9 16ZM11 16L11 17L10 17L10 19L11 19L11 20L10 20L10 21L14 21L14 18L12 18L12 19L11 19L11 17L12 17L12 16ZM16 19L16 20L17 20L17 19ZM0 0L0 7L7 7L7 0ZM1 1L1 6L6 6L6 1ZM2 2L2 5L5 5L5 2ZM14 0L14 7L21 7L21 0ZM15 1L15 6L20 6L20 1ZM16 2L16 5L19 5L19 2ZM0 14L0 21L7 21L7 14ZM1 15L1 20L6 20L6 15ZM2 16L2 19L5 19L5 16Z" fill="#282828"/></g></g></svg>
