<?xml version="1.0" encoding="UTF-8"?>
<svg xmlns="http://www.w3.org/2000/svg" version="1.1" width="400" height="400" viewBox="0 0 400 400"><rect x="0" y="0" width="400" height="400" fill="#f5f5f5"/><g transform="scale(14.815)"><g transform="translate(3,3)"><path fill-rule="evenodd" d="M9 0L9 1L8 1L8 7L9 7L9 4L10 4L10 5L12 5L12 3L13 3L13 2L12 2L12 3L11 3L11 4L10 4L10 3L9 3L9 1L10 1L10 0ZM10 6L10 7L11 7L11 6ZM12 6L12 8L13 8L13 9L14 9L14 10L11 10L11 8L5 8L5 9L3 9L3 8L2 8L2 9L0 9L0 11L1 11L1 12L2 12L2 13L4 13L4 12L5 12L5 10L6 10L6 11L7 11L7 12L6 12L6 13L8 13L8 16L9 16L9 17L10 17L10 16L9 16L9 13L8 13L8 11L9 11L9 10L10 10L10 13L11 13L11 14L10 14L10 15L11 15L11 14L12 14L12 13L14 13L14 16L13 16L13 17L11 17L11 18L12 18L12 19L11 19L11 20L10 20L10 19L9 19L9 18L8 18L8 19L9 19L9 20L10 20L10 21L12 21L12 20L14 20L14 19L13 19L13 17L15 17L15 21L21 21L21 20L20 20L20 19L21 19L21 18L19 18L19 17L21 17L21 16L20 16L20 13L18 13L18 11L19 11L19 10L21 10L21 9L20 9L20 8L15 8L15 9L14 9L14 8L13 8L13 6ZM2 9L2 10L1 10L1 11L2 11L2 12L4 12L4 10L3 10L3 9ZM6 9L6 10L7 10L7 11L8 11L8 10L7 10L7 9ZM16 9L16 10L17 10L17 9ZM18 9L18 10L19 10L19 9ZM11 11L11 13L12 13L12 11ZM13 11L13 12L14 12L14 13L15 13L15 17L16 17L16 18L17 18L17 16L19 16L19 15L17 15L17 14L18 14L18 13L15 13L15 11ZM16 11L16 12L17 12L17 11ZM20 11L20 12L21 12L21 11ZM16 15L16 16L17 16L17 15ZM18 18L18 19L19 19L19 18ZM16 19L16 20L17 20L17 19ZM0 0L0 7L7 7L7 0ZM1 1L1 6L6 6L6 1ZM2 2L2 5L5 5L5 2ZM14 0L14 7L21 7L21 0ZM15 1L15 6L20 6L20 1ZM16 2L16 5L19 5L19 2ZM0 14L0 21L7 21L7 14ZM1 15L1 20L6 20L6 15ZM2 16L2 19L5 19L5 16Z" fill="#282828"/></g></g></svg>
