<?xml version="1.0" encoding="UTF-8"?>
<svg xmlns="http://www.w3.org/2000/svg" version="1.1" width="400" height="400" viewBox="0 0 400 400"><rect x="0" y="0" width="400" height="400" fill="#f5f5f5"/><g transform="scale(14.815)"><g transform="translate(3,3)"><path fill-rule="evenodd" d="M8 0L8 3L9 3L9 1L10 1L10 4L9 4L9 5L8 5L8 10L6 10L6 11L4 11L4 10L2 10L2 9L5 9L5 8L2 8L2 9L1 9L1 10L2 10L2 11L0 11L0 13L2 13L2 12L3 12L3 13L4 13L4 12L5 12L5 13L8 13L8 14L9 14L9 13L10 13L10 15L9 15L9 16L8 16L8 19L10 19L10 20L9 20L9 21L14 21L14 19L16 19L16 18L13 18L13 17L14 17L14 16L16 16L16 17L17 17L17 18L18 18L18 17L19 17L19 16L20 16L20 15L21 15L21 12L19 12L19 11L21 11L21 8L18 8L18 10L19 10L19 11L17 11L17 12L18 12L18 13L19 13L19 14L18 14L18 17L17 17L17 14L16 14L16 12L15 12L15 11L16 11L16 10L15 10L15 11L12 11L12 12L11 12L11 11L9 11L9 6L10 6L10 7L11 7L11 9L12 9L12 7L13 7L13 6L12 6L12 5L13 5L13 3L11 3L11 2L12 2L12 1L11 1L11 0ZM10 4L10 5L11 5L11 4ZM11 6L11 7L12 7L12 6ZM6 8L6 9L7 9L7 8ZM13 8L13 10L14 10L14 9L16 9L16 8ZM19 9L19 10L20 10L20 9ZM3 11L3 12L4 12L4 11ZM6 11L6 12L7 12L7 11ZM8 11L8 13L9 13L9 11ZM10 12L10 13L11 13L11 12ZM13 12L13 13L15 13L15 12ZM13 14L13 16L12 16L12 15L10 15L10 18L11 18L11 16L12 16L12 17L13 17L13 16L14 16L14 15L16 15L16 14ZM19 14L19 15L20 15L20 14ZM12 18L12 19L11 19L11 20L13 20L13 18ZM17 19L17 20L18 20L18 21L19 21L19 20L20 20L20 19L19 19L19 20L18 20L18 19ZM15 20L15 21L16 21L16 20ZM0 0L0 7L7 7L7 0ZM1 1L1 6L6 6L6 1ZM2 2L2 5L5 5L5 2ZM14 0L14 7L21 7L21 0ZM15 1L15 6L20 6L20 1ZM16 2L16 5L19 5L19 2ZM0 14L0 21L7 21L7 14ZM1 15L1 20L6 20L6 15ZM2 16L2 19L5 19L5 16Z" fill="#282828"/></g></g></svg>
