<?xml version="1.0" encoding="UTF-8"?>
<svg xmlns="http://www.w3.org/2000/svg" version="1.1" width="400" height="400" viewBox="0 0 400 400"><rect x="0" y="0" width="400" height="400" fill="#f5f5f5"/><g transform="scale(14.815)"><g transform="translate(3,3)"><path fill-rule="evenodd" d="M8 0L8 3L10 3L10 4L9 4L9 5L8 5L8 9L7 9L7 8L6 8L6 9L7 9L7 10L6 10L6 11L5 11L5 12L4 12L4 11L1 11L1 12L0 12L0 13L8 13L8 14L9 14L9 15L10 15L10 14L13 14L13 13L12 13L12 12L11 12L11 10L12 10L12 11L13 11L13 12L14 12L14 11L16 11L16 10L14 10L14 9L16 9L16 8L13 8L13 6L12 6L12 8L10 8L10 11L9 11L9 10L8 10L8 9L9 9L9 5L11 5L11 3L13 3L13 1L12 1L12 2L11 2L11 0ZM9 1L9 2L10 2L10 3L11 3L11 2L10 2L10 1ZM12 4L12 5L13 5L13 4ZM10 6L10 7L11 7L11 6ZM2 8L2 9L3 9L3 10L4 10L4 9L5 9L5 8ZM12 8L12 9L13 9L13 8ZM18 8L18 9L17 9L17 11L18 11L18 13L19 13L19 14L18 14L18 17L17 17L17 14L16 14L16 12L15 12L15 14L16 14L16 15L11 15L11 16L10 16L10 17L9 17L9 16L8 16L8 19L9 19L9 18L10 18L10 20L11 20L11 21L12 21L12 19L14 19L14 21L16 21L16 20L15 20L15 19L16 19L16 18L15 18L15 19L14 19L14 17L15 17L15 16L16 16L16 17L17 17L17 18L18 18L18 17L19 17L19 16L20 16L20 15L21 15L21 12L20 12L20 13L19 13L19 11L21 11L21 10L20 10L20 9L21 9L21 8ZM18 9L18 11L19 11L19 9ZM13 10L13 11L14 11L14 10ZM6 11L6 12L7 12L7 11ZM8 12L8 13L10 13L10 12ZM19 14L19 15L20 15L20 14ZM11 16L11 17L12 17L12 16ZM13 16L13 17L14 17L14 16ZM11 18L11 19L12 19L12 18ZM17 19L17 20L18 20L18 21L19 21L19 20L20 20L20 19L19 19L19 20L18 20L18 19ZM0 0L0 7L7 7L7 0ZM1 1L1 6L6 6L6 1ZM2 2L2 5L5 5L5 2ZM14 0L14 7L21 7L21 0ZM15 1L15 6L20 6L20 1ZM16 2L16 5L19 5L19 2ZM0 14L0 21L7 21L7 14ZM1 15L1 20L6 20L6 15ZM2 16L2 19L5 19L5 16Z" fill="#282828"/></g></g></svg>
