<?xml version="1.0" encoding="UTF-8"?>
<svg xmlns="http://www.w3.org/2000/svg" version="1.1" width="400" height="400" viewBox="0 0 400 400"><rect x="0" y="0" width="400" height="400" fill="#f5f5f5"/><g transform="scale(14.815)"><g transform="translate(3,3)"><path fill-rule="evenodd" d="M10 0L10 1L9 1L9 2L8 2L8 4L9 4L9 6L8 6L8 7L9 7L9 6L10 6L10 7L11 7L11 6L10 6L10 5L12 5L12 11L11 11L11 10L10 10L10 9L9 9L9 10L5 10L5 8L3 8L3 9L4 9L4 10L3 10L3 11L2 11L2 9L0 9L0 11L2 11L2 12L1 12L1 13L2 13L2 12L3 12L3 13L5 13L5 11L7 11L7 12L6 12L6 13L7 13L7 12L9 12L9 13L8 13L8 15L10 15L10 13L11 13L11 16L14 16L14 15L15 15L15 13L17 13L17 12L18 12L18 11L19 11L19 8L17 8L17 9L15 9L15 10L14 10L14 9L13 9L13 4L10 4L10 3L9 3L9 2L11 2L11 3L13 3L13 2L11 2L11 0ZM12 0L12 1L13 1L13 0ZM6 8L6 9L8 9L8 8ZM17 9L17 10L16 10L16 11L17 11L17 10L18 10L18 9ZM9 10L9 11L10 11L10 12L11 12L11 11L10 11L10 10ZM13 10L13 11L14 11L14 10ZM20 10L20 11L21 11L21 10ZM12 12L12 13L13 13L13 14L14 14L14 13L15 13L15 12ZM19 12L19 13L21 13L21 12ZM18 14L18 16L16 16L16 17L15 17L15 18L14 18L14 17L12 17L12 18L11 18L11 17L10 17L10 16L8 16L8 18L9 18L9 17L10 17L10 19L11 19L11 21L12 21L12 20L13 20L13 21L14 21L14 20L15 20L15 21L17 21L17 20L18 20L18 21L20 21L20 20L21 20L21 18L19 18L19 19L20 19L20 20L18 20L18 18L17 18L17 17L19 17L19 16L20 16L20 17L21 17L21 14ZM12 18L12 19L13 19L13 18ZM16 19L16 20L17 20L17 19ZM9 20L9 21L10 21L10 20ZM0 0L0 7L7 7L7 0ZM1 1L1 6L6 6L6 1ZM2 2L2 5L5 5L5 2ZM14 0L14 7L21 7L21 0ZM15 1L15 6L20 6L20 1ZM16 2L16 5L19 5L19 2ZM0 14L0 21L7 21L7 14ZM1 15L1 20L6 20L6 15ZM2 16L2 19L5 19L5 16Z" fill="#282828"/></g></g></svg>
