<?xml version="1.0" encoding="UTF-8"?>
<svg xmlns="http://www.w3.org/2000/svg" version="1.1" width="400" height="400" viewBox="0 0 400 400"><rect x="0" y="0" width="400" height="400" fill="#f5f5f5"/><g transform="scale(14.815)"><g transform="translate(3,3)"><path fill-rule="evenodd" d="M11 0L11 1L12 1L12 3L10 3L10 5L11 5L11 6L10 6L10 7L9 7L9 6L8 6L8 8L6 8L6 9L4 9L4 8L2 8L2 9L1 9L1 10L0 10L0 13L2 13L2 12L3 12L3 13L5 13L5 12L6 12L6 13L7 13L7 12L8 12L8 15L9 15L9 11L10 11L10 10L11 10L11 9L12 9L12 8L13 8L13 11L14 11L14 12L15 12L15 13L16 13L16 12L17 12L17 11L14 11L14 9L15 9L15 8L13 8L13 5L12 5L12 4L13 4L13 0ZM8 4L8 5L9 5L9 4ZM11 6L11 7L12 7L12 6ZM9 8L9 9L8 9L8 11L9 11L9 10L10 10L10 9L11 9L11 8ZM16 8L16 9L17 9L17 10L19 10L19 12L18 12L18 14L19 14L19 15L18 15L18 16L17 16L17 15L16 15L16 14L15 14L15 15L14 15L14 13L13 13L13 12L12 12L12 13L11 13L11 12L10 12L10 14L12 14L12 15L14 15L14 16L15 16L15 20L14 20L14 21L15 21L15 20L16 20L16 21L17 21L17 20L16 20L16 18L20 18L20 17L21 17L21 16L20 16L20 15L21 15L21 14L19 14L19 13L21 13L21 11L20 11L20 10L21 10L21 9L20 9L20 10L19 10L19 9L17 9L17 8ZM6 9L6 10L7 10L7 9ZM1 10L1 12L2 12L2 10ZM3 10L3 11L5 11L5 10ZM6 11L6 12L7 12L7 11ZM10 15L10 16L9 16L9 17L8 17L8 19L9 19L9 17L13 17L13 18L14 18L14 17L13 17L13 16L11 16L11 15ZM18 16L18 17L20 17L20 16ZM11 18L11 21L13 21L13 19L12 19L12 18ZM18 19L18 20L19 20L19 21L20 21L20 20L21 20L21 19ZM0 0L0 7L7 7L7 0ZM1 1L1 6L6 6L6 1ZM2 2L2 5L5 5L5 2ZM14 0L14 7L21 7L21 0ZM15 1L15 6L20 6L20 1ZM16 2L16 5L19 5L19 2ZM0 14L0 21L7 21L7 14ZM1 15L1 20L6 20L6 15ZM2 16L2 19L5 19L5 16Z" fill="#282828"/></g></g></svg>
