<?xml version="1.0" encoding="UTF-8"?>
<svg xmlns="http://www.w3.org/2000/svg" version="1.1" width="400" height="400" viewBox="0 0 400 400"><rect x="0" y="0" width="400" height="400" fill="#f5f5f5"/><g transform="scale(14.815)"><g transform="translate(3,3)"><path fill-rule="evenodd" d="M8 0L8 1L9 1L9 0ZM11 0L11 1L10 1L10 2L8 2L8 3L9 3L9 4L8 4L8 5L9 5L9 4L10 4L10 5L11 5L11 6L10 6L10 7L9 7L9 6L8 6L8 8L9 8L9 9L7 9L7 8L5 8L5 9L4 9L4 10L6 10L6 11L4 11L4 12L0 12L0 13L8 13L8 14L9 14L9 15L8 15L8 16L9 16L9 18L10 18L10 19L11 19L11 20L10 20L10 21L11 21L11 20L12 20L12 21L16 21L16 19L17 19L17 20L18 20L18 21L19 21L19 20L20 20L20 19L21 19L21 18L19 18L19 20L18 20L18 17L19 17L19 16L21 16L21 14L20 14L20 15L19 15L19 12L18 12L18 11L17 11L17 12L16 12L16 10L19 10L19 11L21 11L21 8L20 8L20 9L19 9L19 8L18 8L18 9L17 9L17 8L16 8L16 9L15 9L15 8L14 8L14 9L13 9L13 6L12 6L12 5L13 5L13 4L11 4L11 1L12 1L12 0ZM12 2L12 3L13 3L13 2ZM11 6L11 7L10 7L10 10L9 10L9 12L12 12L12 13L13 13L13 14L15 14L15 15L14 15L14 16L13 16L13 15L11 15L11 14L10 14L10 16L12 16L12 17L10 17L10 18L11 18L11 19L12 19L12 18L14 18L14 16L15 16L15 17L16 17L16 18L17 18L17 17L18 17L18 14L17 14L17 13L18 13L18 12L17 12L17 13L15 13L15 10L14 10L14 12L13 12L13 11L10 11L10 10L11 10L11 7L12 7L12 6ZM2 9L2 10L0 10L0 11L2 11L2 10L3 10L3 9ZM6 9L6 10L7 10L7 11L6 11L6 12L8 12L8 10L7 10L7 9ZM12 9L12 10L13 10L13 9ZM16 14L16 15L17 15L17 14ZM16 16L16 17L17 17L17 16ZM13 19L13 20L14 20L14 19ZM0 0L0 7L7 7L7 0ZM1 1L1 6L6 6L6 1ZM2 2L2 5L5 5L5 2ZM14 0L14 7L21 7L21 0ZM15 1L15 6L20 6L20 1ZM16 2L16 5L19 5L19 2ZM0 14L0 21L7 21L7 14ZM1 15L1 20L6 20L6 15ZM2 16L2 19L5 19L5 16Z" fill="#282828"/></g></g></svg>
