<?xml version="1.0" encoding="UTF-8"?>
<svg xmlns="http://www.w3.org/2000/svg" version="1.1" width="400" height="400" viewBox="0 0 400 400"><rect x="0" y="0" width="400" height="400" fill="#f5f5f5"/><g transform="scale(14.815)"><g transform="translate(3,3)"><path fill-rule="evenodd" d="M10 0L10 1L11 1L11 0ZM8 1L8 7L9 7L9 8L5 8L5 9L4 9L4 10L2 10L2 9L3 9L3 8L2 8L2 9L1 9L1 10L0 10L0 13L1 13L1 11L2 11L2 12L3 12L3 11L5 11L5 10L6 10L6 11L8 11L8 12L9 12L9 13L8 13L8 16L10 16L10 17L9 17L9 18L8 18L8 19L10 19L10 17L11 17L11 19L12 19L12 20L14 20L14 21L21 21L21 20L20 20L20 19L21 19L21 18L19 18L19 17L21 17L21 16L20 16L20 14L21 14L21 12L20 12L20 8L15 8L15 11L14 11L14 10L13 10L13 12L12 12L12 11L11 11L11 10L10 10L10 11L8 11L8 10L9 10L9 9L10 9L10 8L11 8L11 9L12 9L12 8L13 8L13 9L14 9L14 8L13 8L13 1L12 1L12 8L11 8L11 6L10 6L10 7L9 7L9 4L11 4L11 2L10 2L10 3L9 3L9 1ZM6 9L6 10L8 10L8 9ZM16 9L16 10L17 10L17 11L16 11L16 12L17 12L17 13L15 13L15 12L13 12L13 13L12 13L12 12L10 12L10 13L9 13L9 14L10 14L10 16L11 16L11 17L13 17L13 18L12 18L12 19L13 19L13 18L15 18L15 17L16 17L16 18L17 18L17 16L19 16L19 15L17 15L17 13L18 13L18 14L20 14L20 13L19 13L19 12L18 12L18 10L17 10L17 9ZM4 12L4 13L5 13L5 12ZM6 12L6 13L7 13L7 12ZM13 13L13 14L14 14L14 13ZM11 15L11 16L12 16L12 15ZM13 15L13 16L15 16L15 15ZM16 15L16 16L17 16L17 15ZM18 18L18 19L19 19L19 18ZM16 19L16 20L17 20L17 19ZM9 20L9 21L11 21L11 20ZM0 0L0 7L7 7L7 0ZM1 1L1 6L6 6L6 1ZM2 2L2 5L5 5L5 2ZM14 0L14 7L21 7L21 0ZM15 1L15 6L20 6L20 1ZM16 2L16 5L19 5L19 2ZM0 14L0 21L7 21L7 14ZM1 15L1 20L6 20L6 15ZM2 16L2 19L5 19L5 16Z" fill="#282828"/></g></g></svg>
