<?xml version="1.0" encoding="UTF-8"?>
<svg xmlns="http://www.w3.org/2000/svg" version="1.1" width="400" height="400" viewBox="0 0 400 400"><rect x="0" y="0" width="400" height="400" fill="#f5f5f5"/><g transform="scale(14.815)"><g transform="translate(3,3)"><path fill-rule="evenodd" d="M9 0L9 1L10 1L10 3L9 3L9 2L8 2L8 4L10 4L10 5L9 5L9 6L8 6L8 7L9 7L9 9L8 9L8 8L6 8L6 9L5 9L5 8L3 8L3 9L5 9L5 11L4 11L4 10L1 10L1 9L0 9L0 10L1 10L1 11L0 11L0 12L2 12L2 13L3 13L3 12L5 12L5 13L7 13L7 12L6 12L6 11L7 11L7 10L9 10L9 13L8 13L8 15L9 15L9 14L10 14L10 12L11 12L11 15L12 15L12 14L13 14L13 13L18 13L18 16L16 16L16 17L15 17L15 18L14 18L14 19L13 19L13 16L10 16L10 17L12 17L12 19L13 19L13 21L14 21L14 19L15 19L15 21L17 21L17 20L18 20L18 21L20 21L20 20L21 20L21 18L19 18L19 19L20 19L20 20L18 20L18 18L17 18L17 17L19 17L19 16L20 16L20 17L21 17L21 14L20 14L20 13L21 13L21 12L20 12L20 11L19 11L19 12L20 12L20 13L18 13L18 12L17 12L17 11L16 11L16 10L17 10L17 9L19 9L19 10L21 10L21 9L19 9L19 8L17 8L17 9L13 9L13 10L15 10L15 11L13 11L13 12L11 12L11 11L12 11L12 10L11 10L11 11L10 11L10 8L11 8L11 9L12 9L12 8L13 8L13 6L12 6L12 5L11 5L11 4L10 4L10 3L11 3L11 2L12 2L12 4L13 4L13 0ZM10 5L10 6L9 6L9 7L10 7L10 6L11 6L11 8L12 8L12 6L11 6L11 5ZM6 9L6 10L7 10L7 9ZM2 11L2 12L3 12L3 11ZM8 16L8 18L9 18L9 19L10 19L10 20L9 20L9 21L12 21L12 20L11 20L11 18L9 18L9 16ZM16 19L16 20L17 20L17 19ZM0 0L0 7L7 7L7 0ZM1 1L1 6L6 6L6 1ZM2 2L2 5L5 5L5 2ZM14 0L14 7L21 7L21 0ZM15 1L15 6L20 6L20 1ZM16 2L16 5L19 5L19 2ZM0 14L0 21L7 21L7 14ZM1 15L1 20L6 20L6 15ZM2 16L2 19L5 19L5 16Z" fill="#282828"/></g></g></svg>
