<?xml version="1.0" encoding="UTF-8"?>
<svg xmlns="http://www.w3.org/2000/svg" version="1.1" width="400" height="400" viewBox="0 0 400 400"><rect x="0" y="0" width="400" height="400" fill="#f5f5f5"/><g transform="scale(14.815)"><g transform="translate(3,3)"><path fill-rule="evenodd" d="M8 0L8 3L9 3L9 2L10 2L10 7L9 7L9 5L8 5L8 9L7 9L7 8L6 8L6 9L5 9L5 8L2 8L2 9L3 9L3 10L4 10L4 11L3 11L3 12L0 12L0 13L4 13L4 11L5 11L5 10L6 10L6 11L7 11L7 12L6 12L6 13L8 13L8 14L9 14L9 15L11 15L11 16L10 16L10 17L9 17L9 16L8 16L8 19L9 19L9 18L12 18L12 21L14 21L14 20L15 20L15 21L16 21L16 20L15 20L15 19L16 19L16 18L15 18L15 19L14 19L14 17L15 17L15 16L16 16L16 17L17 17L17 18L18 18L18 17L19 17L19 16L20 16L20 15L21 15L21 13L20 13L20 12L19 12L19 13L18 13L18 10L19 10L19 11L20 11L20 10L21 10L21 8L18 8L18 9L17 9L17 13L18 13L18 17L17 17L17 14L16 14L16 12L15 12L15 11L16 11L16 10L15 10L15 9L16 9L16 8L13 8L13 5L12 5L12 4L13 4L13 1L12 1L12 0ZM11 3L11 4L12 4L12 3ZM11 5L11 7L10 7L10 8L9 8L9 9L8 9L8 10L7 10L7 9L6 9L6 10L7 10L7 11L8 11L8 13L9 13L9 14L12 14L12 13L9 13L9 11L8 11L8 10L10 10L10 12L14 12L14 13L15 13L15 12L14 12L14 11L15 11L15 10L14 10L14 9L13 9L13 8L12 8L12 9L13 9L13 10L14 10L14 11L11 11L11 7L12 7L12 5ZM0 9L0 10L1 10L1 11L2 11L2 10L1 10L1 9ZM19 9L19 10L20 10L20 9ZM19 13L19 15L20 15L20 13ZM14 14L14 15L13 15L13 16L11 16L11 17L12 17L12 18L13 18L13 16L15 16L15 15L16 15L16 14ZM10 19L10 20L9 20L9 21L11 21L11 19ZM17 19L17 20L18 20L18 21L19 21L19 20L20 20L20 19L19 19L19 20L18 20L18 19ZM0 0L0 7L7 7L7 0ZM1 1L1 6L6 6L6 1ZM2 2L2 5L5 5L5 2ZM14 0L14 7L21 7L21 0ZM15 1L15 6L20 6L20 1ZM16 2L16 5L19 5L19 2ZM0 14L0 21L7 21L7 14ZM1 15L1 20L6 20L6 15ZM2 16L2 19L5 19L5 16Z" fill="#282828"/></g></g></svg>
