<?xml version="1.0" encoding="UTF-8"?>
<svg xmlns="http://www.w3.org/2000/svg" version="1.1" width="400" height="400" viewBox="0 0 400 400"><rect x="0" y="0" width="400" height="400" fill="#f5f5f5"/><g transform="scale(14.815)"><g transform="translate(3,3)"><path fill-rule="evenodd" d="M8 0L8 2L9 2L9 3L8 3L8 7L9 7L9 6L10 6L10 7L11 7L11 6L12 6L12 7L13 7L13 2L12 2L12 0L11 0L11 1L9 1L9 0ZM11 2L11 4L10 4L10 3L9 3L9 4L10 4L10 6L11 6L11 5L12 5L12 2ZM3 8L3 9L2 9L2 10L1 10L1 9L0 9L0 10L1 10L1 11L0 11L0 12L1 12L1 13L4 13L4 11L5 11L5 13L7 13L7 12L6 12L6 11L7 11L7 10L8 10L8 11L9 11L9 12L8 12L8 14L9 14L9 17L8 17L8 18L9 18L9 19L10 19L10 18L11 18L11 17L10 17L10 16L11 16L11 15L10 15L10 14L9 14L9 13L11 13L11 12L10 12L10 10L11 10L11 11L12 11L12 13L13 13L13 14L14 14L14 15L12 15L12 16L13 16L13 18L14 18L14 19L15 19L15 17L17 17L17 18L16 18L16 21L19 21L19 20L20 20L20 19L21 19L21 16L18 16L18 15L19 15L19 14L20 14L20 15L21 15L21 13L20 13L20 12L21 12L21 11L20 11L20 10L19 10L19 9L21 9L21 8L19 8L19 9L18 9L18 8L15 8L15 9L14 9L14 10L15 10L15 9L17 9L17 12L16 12L16 13L15 13L15 12L14 12L14 11L13 11L13 8L11 8L11 9L10 9L10 8L9 8L9 9L7 9L7 8L6 8L6 9L7 9L7 10L6 10L6 11L5 11L5 10L4 10L4 11L3 11L3 12L2 12L2 10L3 10L3 9L4 9L4 8ZM18 10L18 12L20 12L20 11L19 11L19 10ZM17 13L17 14L16 14L16 15L17 15L17 14L19 14L19 13ZM14 15L14 17L15 17L15 15ZM17 16L17 17L18 17L18 16ZM17 18L17 20L18 20L18 19L20 19L20 18ZM11 20L11 21L12 21L12 20ZM13 20L13 21L15 21L15 20ZM0 0L0 7L7 7L7 0ZM1 1L1 6L6 6L6 1ZM2 2L2 5L5 5L5 2ZM14 0L14 7L21 7L21 0ZM15 1L15 6L20 6L20 1ZM16 2L16 5L19 5L19 2ZM0 14L0 21L7 21L7 14ZM1 15L1 20L6 20L6 15ZM2 16L2 19L5 19L5 16Z" fill="#282828"/></g></g></svg>
