<?xml version="1.0" encoding="UTF-8"?>
<svg xmlns="http://www.w3.org/2000/svg" version="1.1" width="400" height="400" viewBox="0 0 400 400"><rect x="0" y="0" width="400" height="400" fill="#f5f5f5"/><g transform="scale(14.815)"><g transform="translate(3,3)"><path fill-rule="evenodd" d="M12 0L12 1L10 1L10 3L11 3L11 4L12 4L12 5L13 5L13 4L12 4L12 3L13 3L13 2L12 2L12 1L13 1L13 0ZM11 2L11 3L12 3L12 2ZM8 4L8 5L10 5L10 4ZM8 6L8 8L6 8L6 9L7 9L7 10L6 10L6 11L8 11L8 12L9 12L9 11L11 11L11 10L9 10L9 9L10 9L10 8L12 8L12 9L14 9L14 10L12 10L12 11L14 11L14 12L13 12L13 13L12 13L12 12L11 12L11 13L10 13L10 15L11 15L11 16L10 16L10 17L8 17L8 19L9 19L9 18L10 18L10 21L11 21L11 18L10 18L10 17L11 17L11 16L13 16L13 17L14 17L14 15L15 15L15 19L14 19L14 18L13 18L13 20L12 20L12 21L13 21L13 20L14 20L14 21L15 21L15 20L16 20L16 21L17 21L17 20L16 20L16 18L20 18L20 17L21 17L21 16L20 16L20 15L21 15L21 13L20 13L20 12L21 12L21 11L20 11L20 9L17 9L17 8L16 8L16 9L17 9L17 11L14 11L14 10L15 10L15 8L12 8L12 7L13 7L13 6L12 6L12 7L11 7L11 6L10 6L10 8L9 8L9 6ZM2 8L2 9L1 9L1 10L2 10L2 9L3 9L3 12L2 12L2 13L3 13L3 12L4 12L4 11L5 11L5 9L4 9L4 8ZM8 10L8 11L9 11L9 10ZM0 11L0 13L1 13L1 11ZM17 11L17 12L16 12L16 13L15 13L15 12L14 12L14 14L16 14L16 15L17 15L17 16L18 16L18 17L20 17L20 16L18 16L18 15L19 15L19 14L20 14L20 13L19 13L19 12L18 12L18 11ZM5 12L5 13L7 13L7 12ZM8 13L8 15L9 15L9 13ZM11 13L11 15L13 15L13 14L12 14L12 13ZM17 13L17 14L18 14L18 13ZM18 19L18 20L19 20L19 21L20 21L20 20L21 20L21 19ZM0 0L0 7L7 7L7 0ZM1 1L1 6L6 6L6 1ZM2 2L2 5L5 5L5 2ZM14 0L14 7L21 7L21 0ZM15 1L15 6L20 6L20 1ZM16 2L16 5L19 5L19 2ZM0 14L0 21L7 21L7 14ZM1 15L1 20L6 20L6 15ZM2 16L2 19L5 19L5 16Z" fill="#282828"/></g></g></svg>
