<?xml version="1.0" encoding="UTF-8"?>
<svg xmlns="http://www.w3.org/2000/svg" version="1.1" width="400" height="400" viewBox="0 0 400 400"><rect x="0" y="0" width="400" height="400" fill="#f5f5f5"/><g transform="scale(14.815)"><g transform="translate(3,3)"><path fill-rule="evenodd" d="M11 0L11 1L8 1L8 7L9 7L9 8L5 8L5 9L4 9L4 10L3 10L3 8L2 8L2 10L1 10L1 12L0 12L0 13L1 13L1 12L3 12L3 11L5 11L5 10L6 10L6 11L7 11L7 10L6 10L6 9L9 9L9 10L8 10L8 11L9 11L9 10L10 10L10 12L9 12L9 13L8 13L8 12L6 12L6 13L8 13L8 16L9 16L9 18L8 18L8 19L10 19L10 16L9 16L9 14L12 14L12 13L10 13L10 12L13 12L13 11L14 11L14 13L13 13L13 14L14 14L14 13L17 13L17 15L16 15L16 16L17 16L17 18L16 18L16 17L15 17L15 16L14 16L14 15L13 15L13 16L14 16L14 17L15 17L15 18L14 18L14 19L15 19L15 20L14 20L14 21L21 21L21 20L20 20L20 19L21 19L21 18L19 18L19 17L21 17L21 16L20 16L20 14L18 14L18 13L17 13L17 12L20 12L20 13L21 13L21 11L17 11L17 10L16 10L16 9L20 9L20 8L15 8L15 9L14 9L14 8L13 8L13 9L14 9L14 10L13 10L13 11L11 11L11 9L12 9L12 7L13 7L13 6L12 6L12 4L13 4L13 3L12 3L12 4L11 4L11 6L10 6L10 7L9 7L9 5L10 5L10 4L9 4L9 2L10 2L10 3L11 3L11 1L13 1L13 0ZM11 6L11 7L10 7L10 8L9 8L9 9L11 9L11 7L12 7L12 6ZM14 10L14 11L15 11L15 10ZM16 11L16 12L17 12L17 11ZM4 12L4 13L5 13L5 12ZM17 15L17 16L19 16L19 15ZM12 17L12 19L13 19L13 17ZM18 18L18 19L19 19L19 18ZM16 19L16 20L17 20L17 19ZM10 20L10 21L11 21L11 20ZM12 20L12 21L13 21L13 20ZM0 0L0 7L7 7L7 0ZM1 1L1 6L6 6L6 1ZM2 2L2 5L5 5L5 2ZM14 0L14 7L21 7L21 0ZM15 1L15 6L20 6L20 1ZM16 2L16 5L19 5L19 2ZM0 14L0 21L7 21L7 14ZM1 15L1 20L6 20L6 15ZM2 16L2 19L5 19L5 16Z" fill="#282828"/></g></g></svg>
