<?xml version="1.0" encoding="UTF-8"?>
<svg xmlns="http://www.w3.org/2000/svg" version="1.1" width="400" height="400" viewBox="0 0 400 400"><rect x="0" y="0" width="400" height="400" fill="#f5f5f5"/><g transform="scale(14.815)"><g transform="translate(3,3)"><path fill-rule="evenodd" d="M10 0L10 1L9 1L9 2L8 2L8 4L9 4L9 6L8 6L8 7L9 7L9 9L8 9L8 8L6 8L6 9L5 9L5 8L3 8L3 9L1 9L1 10L2 10L2 11L3 11L3 12L4 12L4 13L8 13L8 15L9 15L9 14L12 14L12 16L11 16L11 15L10 15L10 16L8 16L8 18L9 18L9 19L14 19L14 21L17 21L17 20L18 20L18 21L20 21L20 20L21 20L21 18L19 18L19 19L20 19L20 20L18 20L18 18L17 18L17 17L19 17L19 16L20 16L20 17L21 17L21 14L20 14L20 13L21 13L21 12L20 12L20 11L21 11L21 10L19 10L19 8L17 8L17 9L14 9L14 10L15 10L15 12L14 12L14 11L12 11L12 10L13 10L13 9L12 9L12 10L11 10L11 6L12 6L12 7L13 7L13 6L12 6L12 5L13 5L13 3L12 3L12 2L11 2L11 0ZM12 0L12 1L13 1L13 0ZM10 2L10 3L9 3L9 4L10 4L10 5L12 5L12 3L11 3L11 2ZM9 6L9 7L10 7L10 6ZM3 9L3 10L4 10L4 12L5 12L5 9ZM6 9L6 10L7 10L7 9ZM9 9L9 11L8 11L8 13L9 13L9 12L10 12L10 13L11 13L11 12L12 12L12 14L13 14L13 16L12 16L12 17L11 17L11 16L10 16L10 18L15 18L15 17L16 17L16 16L18 16L18 14L17 14L17 13L19 13L19 11L18 11L18 12L17 12L17 13L14 13L14 12L12 12L12 11L11 11L11 10L10 10L10 9ZM17 9L17 10L16 10L16 11L17 11L17 10L18 10L18 9ZM0 11L0 12L1 12L1 11ZM6 11L6 12L7 12L7 11ZM13 13L13 14L14 14L14 16L13 16L13 17L15 17L15 14L14 14L14 13ZM16 19L16 20L17 20L17 19ZM9 20L9 21L10 21L10 20ZM11 20L11 21L13 21L13 20ZM0 0L0 7L7 7L7 0ZM1 1L1 6L6 6L6 1ZM2 2L2 5L5 5L5 2ZM14 0L14 7L21 7L21 0ZM15 1L15 6L20 6L20 1ZM16 2L16 5L19 5L19 2ZM0 14L0 21L7 21L7 14ZM1 15L1 20L6 20L6 15ZM2 16L2 19L5 19L5 16Z" fill="#282828"/></g></g></svg>
