<?xml version="1.0" encoding="UTF-8"?>
<svg xmlns="http://www.w3.org/2000/svg" version="1.1" width="400" height="400" viewBox="0 0 400 400"><rect x="0" y="0" width="400" height="400" fill="#f5f5f5"/><g transform="scale(14.815)"><g transform="translate(3,3)"><path fill-rule="evenodd" d="M8 0L8 1L9 1L9 2L8 2L8 3L9 3L9 4L8 4L8 5L9 5L9 4L10 4L10 8L9 8L9 6L8 6L8 8L9 8L9 9L10 9L10 10L9 10L9 11L10 11L10 10L12 10L12 11L14 11L14 12L11 12L11 13L9 13L9 12L8 12L8 14L10 14L10 17L9 17L9 19L10 19L10 20L9 20L9 21L10 21L10 20L11 20L11 21L13 21L13 20L14 20L14 21L16 21L16 19L17 19L17 20L18 20L18 21L19 21L19 20L20 20L20 19L21 19L21 18L19 18L19 20L18 20L18 17L19 17L19 16L21 16L21 12L20 12L20 15L19 15L19 13L18 13L18 17L17 17L17 16L16 16L16 17L15 17L15 13L17 13L17 12L19 12L19 11L21 11L21 8L20 8L20 9L19 9L19 8L18 8L18 9L17 9L17 8L16 8L16 9L15 9L15 8L14 8L14 9L15 9L15 11L14 11L14 10L12 10L12 9L10 9L10 8L11 8L11 4L12 4L12 5L13 5L13 4L12 4L12 3L13 3L13 2L12 2L12 1L11 1L11 3L10 3L10 0ZM12 6L12 8L13 8L13 6ZM5 8L5 9L7 9L7 10L6 10L6 11L8 11L8 9L7 9L7 8ZM0 9L0 11L1 11L1 12L0 12L0 13L1 13L1 12L2 12L2 11L5 11L5 10L4 10L4 9L2 9L2 11L1 11L1 9ZM18 9L18 10L19 10L19 9ZM16 10L16 12L17 12L17 10ZM4 12L4 13L7 13L7 12ZM11 13L11 14L12 14L12 15L11 15L11 17L10 17L10 19L14 19L14 20L15 20L15 19L14 19L14 18L15 18L15 17L14 17L14 16L13 16L13 15L14 15L14 14L12 14L12 13ZM16 14L16 15L17 15L17 14ZM8 15L8 16L9 16L9 15ZM13 17L13 18L14 18L14 17ZM16 17L16 18L17 18L17 17ZM0 0L0 7L7 7L7 0ZM1 1L1 6L6 6L6 1ZM2 2L2 5L5 5L5 2ZM14 0L14 7L21 7L21 0ZM15 1L15 6L20 6L20 1ZM16 2L16 5L19 5L19 2ZM0 14L0 21L7 21L7 14ZM1 15L1 20L6 20L6 15ZM2 16L2 19L5 19L5 16Z" fill="#282828"/></g></g></svg>
