<?xml version="1.0" encoding="UTF-8"?>
<svg xmlns="http://www.w3.org/2000/svg" version="1.1" width="400" height="400" viewBox="0 0 400 400"><rect x="0" y="0" width="400" height="400" fill="#f5f5f5"/><g transform="scale(14.815)"><g transform="translate(3,3)"><path fill-rule="evenodd" d="M9 0L9 1L8 1L8 2L10 2L10 3L9 3L9 4L10 4L10 5L8 5L8 8L4 8L4 9L3 9L3 10L2 10L2 9L1 9L1 10L0 10L0 11L1 11L1 10L2 10L2 12L0 12L0 13L3 13L3 12L4 12L4 11L5 11L5 12L6 12L6 13L8 13L8 17L9 17L9 20L10 20L10 21L12 21L12 20L14 20L14 21L15 21L15 19L16 19L16 20L17 20L17 19L18 19L18 21L21 21L21 20L20 20L20 19L19 19L19 18L21 18L21 16L20 16L20 15L21 15L21 13L20 13L20 11L19 11L19 10L16 10L16 8L14 8L14 9L13 9L13 5L12 5L12 4L13 4L13 3L12 3L12 2L13 2L13 1L12 1L12 0L11 0L11 1L12 1L12 2L10 2L10 0ZM10 5L10 6L9 6L9 7L10 7L10 6L11 6L11 8L8 8L8 9L4 9L4 10L5 10L5 11L6 11L6 12L7 12L7 11L6 11L6 10L9 10L9 11L8 11L8 12L9 12L9 11L10 11L10 13L11 13L11 14L10 14L10 15L11 15L11 16L12 16L12 18L11 18L11 17L10 17L10 16L9 16L9 17L10 17L10 18L11 18L11 20L12 20L12 19L14 19L14 18L15 18L15 17L14 17L14 16L15 16L15 15L16 15L16 16L17 16L17 17L16 17L16 18L17 18L17 17L18 17L18 18L19 18L19 17L18 17L18 16L19 16L19 15L20 15L20 14L19 14L19 12L16 12L16 11L15 11L15 12L14 12L14 11L13 11L13 10L12 10L12 12L11 12L11 11L10 11L10 10L9 10L9 9L12 9L12 5ZM19 8L19 9L20 9L20 8ZM14 9L14 10L15 10L15 9ZM13 12L13 13L12 13L12 14L11 14L11 15L12 15L12 16L13 16L13 15L14 15L14 14L15 14L15 13L14 13L14 12ZM17 13L17 16L18 16L18 13ZM12 14L12 15L13 15L13 14ZM13 17L13 18L14 18L14 17ZM0 0L0 7L7 7L7 0ZM1 1L1 6L6 6L6 1ZM2 2L2 5L5 5L5 2ZM14 0L14 7L21 7L21 0ZM15 1L15 6L20 6L20 1ZM16 2L16 5L19 5L19 2ZM0 14L0 21L7 21L7 14ZM1 15L1 20L6 20L6 15ZM2 16L2 19L5 19L5 16Z" fill="#282828"/></g></g></svg>
