<?xml version="1.0" encoding="UTF-8"?>
<svg xmlns="http://www.w3.org/2000/svg" version="1.1" width="400" height="400" viewBox="0 0 400 400"><rect x="0" y="0" width="400" height="400" fill="#f5f5f5"/><g transform="scale(14.815)"><g transform="translate(3,3)"><path fill-rule="evenodd" d="M9 0L9 2L8 2L8 4L9 4L9 6L8 6L8 7L9 7L9 9L8 9L8 8L6 8L6 9L5 9L5 8L3 8L3 9L2 9L2 10L1 10L1 11L0 11L0 13L1 13L1 11L2 11L2 12L4 12L4 13L5 13L5 12L4 12L4 11L2 11L2 10L3 10L3 9L5 9L5 10L6 10L6 11L7 11L7 10L6 10L6 9L8 9L8 11L9 11L9 10L10 10L10 9L11 9L11 11L10 11L10 13L11 13L11 16L10 16L10 17L11 17L11 16L13 16L13 17L12 17L12 18L13 18L13 19L11 19L11 20L10 20L10 19L9 19L9 21L11 21L11 20L12 20L12 21L17 21L17 20L18 20L18 21L20 21L20 20L21 20L21 18L19 18L19 19L20 19L20 20L18 20L18 18L17 18L17 17L19 17L19 16L20 16L20 17L21 17L21 13L20 13L20 14L19 14L19 12L20 12L20 11L21 11L21 10L20 10L20 9L19 9L19 8L17 8L17 9L15 9L15 11L13 11L13 10L12 10L12 8L13 8L13 5L12 5L12 4L13 4L13 2L12 2L12 0L11 0L11 1L10 1L10 0ZM10 2L10 3L9 3L9 4L10 4L10 3L11 3L11 4L12 4L12 3L11 3L11 2ZM10 5L10 6L9 6L9 7L10 7L10 8L11 8L11 7L12 7L12 5ZM10 6L10 7L11 7L11 6ZM18 9L18 10L16 10L16 11L17 11L17 13L15 13L15 12L13 12L13 13L12 13L12 14L15 14L15 17L13 17L13 18L14 18L14 19L15 19L15 17L16 17L16 16L18 16L18 10L19 10L19 11L20 11L20 10L19 10L19 9ZM6 12L6 13L7 13L7 12ZM8 12L8 15L10 15L10 14L9 14L9 12ZM13 15L13 16L14 16L14 15ZM8 16L8 18L9 18L9 16ZM16 19L16 20L17 20L17 19ZM0 0L0 7L7 7L7 0ZM1 1L1 6L6 6L6 1ZM2 2L2 5L5 5L5 2ZM14 0L14 7L21 7L21 0ZM15 1L15 6L20 6L20 1ZM16 2L16 5L19 5L19 2ZM0 14L0 21L7 21L7 14ZM1 15L1 20L6 20L6 15ZM2 16L2 19L5 19L5 16Z" fill="#282828"/></g></g></svg>
