<?xml version="1.0" encoding="UTF-8"?>
<svg xmlns="http://www.w3.org/2000/svg" version="1.1" width="400" height="400" viewBox="0 0 400 400"><rect x="0" y="0" width="400" height="400" fill="#f5f5f5"/><g transform="scale(14.815)"><g transform="translate(3,3)"><path fill-rule="evenodd" d="M8 0L8 3L9 3L9 0ZM11 1L11 3L10 3L10 7L11 7L11 10L10 10L10 9L9 9L9 5L8 5L8 9L7 9L7 8L6 8L6 9L5 9L5 8L2 8L2 9L1 9L1 10L2 10L2 11L0 11L0 13L1 13L1 12L2 12L2 13L5 13L5 10L6 10L6 11L8 11L8 14L9 14L9 16L8 16L8 19L10 19L10 18L9 18L9 16L12 16L12 17L11 17L11 18L12 18L12 17L14 17L14 19L16 19L16 18L15 18L15 16L16 16L16 17L17 17L17 18L18 18L18 17L19 17L19 16L20 16L20 15L21 15L21 11L20 11L20 10L21 10L21 8L18 8L18 9L17 9L17 10L19 10L19 11L17 11L17 12L20 12L20 13L17 13L17 14L16 14L16 12L14 12L14 9L16 9L16 8L13 8L13 1ZM11 5L11 7L12 7L12 5ZM2 9L2 10L3 10L3 11L2 11L2 12L3 12L3 11L4 11L4 10L3 10L3 9ZM6 9L6 10L7 10L7 9ZM8 9L8 10L9 10L9 14L10 14L10 15L11 15L11 14L10 14L10 13L11 13L11 12L12 12L12 11L13 11L13 10L11 10L11 12L10 12L10 10L9 10L9 9ZM19 9L19 10L20 10L20 9ZM15 10L15 11L16 11L16 10ZM6 12L6 13L7 13L7 12ZM13 12L13 13L14 13L14 14L15 14L15 15L12 15L12 16L15 16L15 15L16 15L16 14L15 14L15 13L14 13L14 12ZM17 14L17 17L18 17L18 14ZM19 14L19 15L20 15L20 14ZM11 19L11 20L13 20L13 21L14 21L14 20L13 20L13 19ZM17 19L17 20L18 20L18 21L19 21L19 20L20 20L20 19L19 19L19 20L18 20L18 19ZM15 20L15 21L16 21L16 20ZM0 0L0 7L7 7L7 0ZM1 1L1 6L6 6L6 1ZM2 2L2 5L5 5L5 2ZM14 0L14 7L21 7L21 0ZM15 1L15 6L20 6L20 1ZM16 2L16 5L19 5L19 2ZM0 14L0 21L7 21L7 14ZM1 15L1 20L6 20L6 15ZM2 16L2 19L5 19L5 16Z" fill="#282828"/></g></g></svg>
