<?xml version="1.0" encoding="UTF-8"?>
<svg xmlns="http://www.w3.org/2000/svg" version="1.1" width="400" height="400" viewBox="0 0 400 400"><rect x="0" y="0" width="400" height="400" fill="#f5f5f5"/><g transform="scale(14.815)"><g transform="translate(3,3)"><path fill-rule="evenodd" d="M10 0L10 1L9 1L9 2L8 2L8 4L9 4L9 5L10 5L10 7L9 7L9 6L8 6L8 7L9 7L9 8L10 8L10 10L11 10L11 11L10 11L10 12L11 12L11 14L10 14L10 15L11 15L11 16L8 16L8 18L9 18L9 20L10 20L10 21L12 21L12 20L10 20L10 18L11 18L11 19L13 19L13 20L14 20L14 19L15 19L15 21L17 21L17 20L18 20L18 21L20 21L20 20L21 20L21 18L19 18L19 19L20 19L20 20L18 20L18 18L17 18L17 17L19 17L19 16L20 16L20 17L21 17L21 14L18 14L18 16L16 16L16 17L15 17L15 18L14 18L14 16L13 16L13 15L12 15L12 14L14 14L14 15L15 15L15 14L14 14L14 13L19 13L19 10L20 10L20 11L21 11L21 9L19 9L19 8L17 8L17 9L13 9L13 8L12 8L12 7L13 7L13 3L11 3L11 0ZM9 2L9 3L10 3L10 5L11 5L11 3L10 3L10 2ZM11 6L11 7L12 7L12 6ZM3 8L3 9L5 9L5 8ZM6 8L6 9L8 9L8 10L6 10L6 11L7 11L7 12L5 12L5 10L3 10L3 11L0 11L0 12L1 12L1 13L3 13L3 12L5 12L5 13L7 13L7 12L8 12L8 15L9 15L9 9L8 9L8 8ZM11 8L11 9L12 9L12 10L13 10L13 12L14 12L14 11L15 11L15 10L13 10L13 9L12 9L12 8ZM1 9L1 10L2 10L2 9ZM17 9L17 10L16 10L16 11L17 11L17 10L19 10L19 9ZM11 11L11 12L12 12L12 11ZM20 12L20 13L21 13L21 12ZM12 17L12 18L13 18L13 19L14 19L14 18L13 18L13 17ZM16 19L16 20L17 20L17 19ZM0 0L0 7L7 7L7 0ZM1 1L1 6L6 6L6 1ZM2 2L2 5L5 5L5 2ZM14 0L14 7L21 7L21 0ZM15 1L15 6L20 6L20 1ZM16 2L16 5L19 5L19 2ZM0 14L0 21L7 21L7 14ZM1 15L1 20L6 20L6 15ZM2 16L2 19L5 19L5 16Z" fill="#282828"/></g></g></svg>
