<?xml version="1.0" encoding="UTF-8"?>
<svg xmlns="http://www.w3.org/2000/svg" version="1.1" width="400" height="400" viewBox="0 0 400 400"><rect x="0" y="0" width="400" height="400" fill="#f5f5f5"/><g transform="scale(14.815)"><g transform="translate(3,3)"><path fill-rule="evenodd" d="M8 0L8 3L9 3L9 4L10 4L10 2L11 2L11 1L13 1L13 0L11 0L11 1L10 1L10 2L9 2L9 0ZM12 2L12 3L11 3L11 5L10 5L10 7L9 7L9 5L8 5L8 9L7 9L7 8L6 8L6 9L5 9L5 8L2 8L2 9L0 9L0 12L2 12L2 13L8 13L8 14L9 14L9 15L10 15L10 16L11 16L11 17L12 17L12 16L13 16L13 18L15 18L15 19L16 19L16 18L15 18L15 17L14 17L14 16L16 16L16 17L17 17L17 18L18 18L18 17L19 17L19 16L20 16L20 15L21 15L21 13L19 13L19 10L20 10L20 9L21 9L21 8L18 8L18 9L17 9L17 11L18 11L18 13L19 13L19 14L18 14L18 17L17 17L17 14L16 14L16 12L15 12L15 11L16 11L16 10L14 10L14 9L16 9L16 8L12 8L12 9L11 9L11 10L10 10L10 8L11 8L11 6L12 6L12 7L13 7L13 6L12 6L12 5L13 5L13 2ZM4 9L4 10L3 10L3 11L4 11L4 12L5 12L5 11L6 11L6 12L8 12L8 11L10 11L10 10L9 10L9 9L8 9L8 11L6 11L6 10L7 10L7 9L6 9L6 10L5 10L5 9ZM12 9L12 10L11 10L11 11L12 11L12 13L11 13L11 12L9 12L9 13L11 13L11 14L10 14L10 15L11 15L11 16L12 16L12 15L13 15L13 16L14 16L14 15L13 15L13 14L12 14L12 13L14 13L14 12L13 12L13 9ZM18 9L18 10L19 10L19 9ZM4 10L4 11L5 11L5 10ZM15 14L15 15L16 15L16 14ZM19 14L19 15L20 15L20 14ZM8 16L8 19L11 19L11 20L10 20L10 21L14 21L14 19L12 19L12 18L10 18L10 17L9 17L9 16ZM17 19L17 20L18 20L18 21L19 21L19 20L20 20L20 19L19 19L19 20L18 20L18 19ZM15 20L15 21L16 21L16 20ZM0 0L0 7L7 7L7 0ZM1 1L1 6L6 6L6 1ZM2 2L2 5L5 5L5 2ZM14 0L14 7L21 7L21 0ZM15 1L15 6L20 6L20 1ZM16 2L16 5L19 5L19 2ZM0 14L0 21L7 21L7 14ZM1 15L1 20L6 20L6 15ZM2 16L2 19L5 19L5 16Z" fill="#282828"/></g></g></svg>
