<?xml version="1.0" encoding="UTF-8"?>
<svg xmlns="http://www.w3.org/2000/svg" version="1.1" width="400" height="400" viewBox="0 0 400 400"><rect x="0" y="0" width="400" height="400" fill="#f5f5f5"/><g transform="scale(14.815)"><g transform="translate(3,3)"><path fill-rule="evenodd" d="M8 0L8 3L9 3L9 5L8 5L8 9L7 9L7 8L6 8L6 9L7 9L7 10L5 10L5 11L3 11L3 10L4 10L4 9L5 9L5 8L2 8L2 9L0 9L0 12L2 12L2 11L3 11L3 12L4 12L4 13L8 13L8 14L9 14L9 16L8 16L8 19L10 19L10 20L9 20L9 21L10 21L10 20L11 20L11 19L12 19L12 20L13 20L13 18L14 18L14 19L16 19L16 18L14 18L14 17L15 17L15 16L16 16L16 17L17 17L17 18L18 18L18 17L19 17L19 16L20 16L20 15L21 15L21 12L20 12L20 11L21 11L21 8L18 8L18 9L17 9L17 11L18 11L18 13L17 13L17 14L16 14L16 12L15 12L15 11L16 11L16 10L14 10L14 9L16 9L16 8L12 8L12 7L13 7L13 2L12 2L12 0L10 0L10 2L9 2L9 0ZM10 2L10 3L11 3L11 4L10 4L10 6L9 6L9 7L10 7L10 8L9 8L9 9L11 9L11 7L12 7L12 6L11 6L11 5L12 5L12 3L11 3L11 2ZM10 6L10 7L11 7L11 6ZM18 9L18 10L20 10L20 9ZM7 10L7 11L6 11L6 12L8 12L8 13L10 13L10 12L11 12L11 14L10 14L10 16L9 16L9 17L10 17L10 18L11 18L11 14L12 14L12 15L14 15L14 14L15 14L15 15L16 15L16 14L15 14L15 13L14 13L14 14L13 14L13 13L12 13L12 12L13 12L13 10L9 10L9 11L10 11L10 12L8 12L8 10ZM18 13L18 14L17 14L17 17L18 17L18 14L19 14L19 15L20 15L20 14L19 14L19 13ZM12 16L12 18L13 18L13 17L14 17L14 16ZM17 19L17 20L18 20L18 21L19 21L19 20L20 20L20 19L19 19L19 20L18 20L18 19ZM14 20L14 21L16 21L16 20ZM0 0L0 7L7 7L7 0ZM1 1L1 6L6 6L6 1ZM2 2L2 5L5 5L5 2ZM14 0L14 7L21 7L21 0ZM15 1L15 6L20 6L20 1ZM16 2L16 5L19 5L19 2ZM0 14L0 21L7 21L7 14ZM1 15L1 20L6 20L6 15ZM2 16L2 19L5 19L5 16Z" fill="#282828"/></g></g></svg>
