<?xml version="1.0" encoding="UTF-8"?>
<svg xmlns="http://www.w3.org/2000/svg" version="1.1" width="400" height="400" viewBox="0 0 400 400"><rect x="0" y="0" width="400" height="400" fill="#f5f5f5"/><g transform="scale(14.815)"><g transform="translate(3,3)"><path fill-rule="evenodd" d="M9 0L9 1L8 1L8 7L9 7L9 5L10 5L10 3L9 3L9 1L10 1L10 0ZM12 0L12 1L11 1L11 2L12 2L12 3L11 3L11 4L12 4L12 5L11 5L11 6L10 6L10 7L11 7L11 8L5 8L5 10L4 10L4 9L3 9L3 8L2 8L2 9L0 9L0 11L2 11L2 12L0 12L0 13L2 13L2 12L3 12L3 13L5 13L5 12L6 12L6 13L8 13L8 16L10 16L10 17L9 17L9 18L8 18L8 19L10 19L10 20L9 20L9 21L10 21L10 20L11 20L11 17L13 17L13 18L14 18L14 20L13 20L13 19L12 19L12 20L13 20L13 21L21 21L21 20L20 20L20 19L21 19L21 18L19 18L19 17L21 17L21 16L20 16L20 14L21 14L21 9L20 9L20 8L15 8L15 11L14 11L14 10L13 10L13 11L11 11L11 13L12 13L12 14L11 14L11 15L10 15L10 11L8 11L8 10L9 10L9 9L11 9L11 8L12 8L12 9L14 9L14 8L12 8L12 7L13 7L13 2L12 2L12 1L13 1L13 0ZM11 6L11 7L12 7L12 6ZM6 9L6 10L5 10L5 11L4 11L4 12L5 12L5 11L6 11L6 12L8 12L8 11L6 11L6 10L7 10L7 9ZM16 9L16 10L17 10L17 11L16 11L16 12L17 12L17 11L18 11L18 13L19 13L19 14L20 14L20 9L19 9L19 10L17 10L17 9ZM13 11L13 12L12 12L12 13L15 13L15 17L16 17L16 18L17 18L17 16L19 16L19 15L17 15L17 13L15 13L15 12L14 12L14 11ZM13 14L13 15L11 15L11 16L13 16L13 17L14 17L14 16L13 16L13 15L14 15L14 14ZM16 15L16 16L17 16L17 15ZM18 18L18 19L19 19L19 18ZM16 19L16 20L17 20L17 19ZM0 0L0 7L7 7L7 0ZM1 1L1 6L6 6L6 1ZM2 2L2 5L5 5L5 2ZM14 0L14 7L21 7L21 0ZM15 1L15 6L20 6L20 1ZM16 2L16 5L19 5L19 2ZM0 14L0 21L7 21L7 14ZM1 15L1 20L6 20L6 15ZM2 16L2 19L5 19L5 16Z" fill="#282828"/></g></g></svg>
