<?xml version="1.0" encoding="UTF-8"?>
<svg xmlns="http://www.w3.org/2000/svg" version="1.1" width="400" height="400" viewBox="0 0 400 400"><rect x="0" y="0" width="400" height="400" fill="#f5f5f5"/><g transform="scale(14.815)"><g transform="translate(3,3)"><path fill-rule="evenodd" d="M8 0L8 3L10 3L10 4L9 4L9 5L8 5L8 11L9 11L9 10L11 10L11 12L12 12L12 13L9 13L9 12L5 12L5 11L7 11L7 10L5 10L5 11L4 11L4 9L5 9L5 8L2 8L2 10L1 10L1 9L0 9L0 12L1 12L1 13L3 13L3 12L4 12L4 13L8 13L8 14L10 14L10 15L12 15L12 16L13 16L13 15L15 15L15 16L14 16L14 17L12 17L12 18L14 18L14 17L15 17L15 16L16 16L16 17L17 17L17 18L18 18L18 17L19 17L19 16L20 16L20 15L21 15L21 13L20 13L20 10L21 10L21 8L18 8L18 10L17 10L17 12L19 12L19 13L18 13L18 17L17 17L17 14L16 14L16 12L15 12L15 13L14 13L14 14L12 14L12 13L13 13L13 12L12 12L12 9L14 9L14 10L13 10L13 11L16 11L16 10L15 10L15 9L16 9L16 8L13 8L13 5L12 5L12 9L11 9L11 5L10 5L10 4L12 4L12 2L13 2L13 1L11 1L11 0ZM10 1L10 2L11 2L11 1ZM9 5L9 9L10 9L10 5ZM6 8L6 9L7 9L7 8ZM2 10L2 11L1 11L1 12L3 12L3 10ZM18 10L18 11L19 11L19 10ZM19 13L19 15L20 15L20 13ZM15 14L15 15L16 15L16 14ZM8 16L8 19L9 19L9 20L10 20L10 21L16 21L16 20L15 20L15 19L16 19L16 18L15 18L15 19L12 19L12 20L11 20L11 16L10 16L10 17L9 17L9 16ZM9 18L9 19L10 19L10 18ZM17 19L17 20L18 20L18 21L19 21L19 20L20 20L20 19L19 19L19 20L18 20L18 19ZM0 0L0 7L7 7L7 0ZM1 1L1 6L6 6L6 1ZM2 2L2 5L5 5L5 2ZM14 0L14 7L21 7L21 0ZM15 1L15 6L20 6L20 1ZM16 2L16 5L19 5L19 2ZM0 14L0 21L7 21L7 14ZM1 15L1 20L6 20L6 15ZM2 16L2 19L5 19L5 16Z" fill="#282828"/></g></g></svg>
