<?xml version="1.0" encoding="UTF-8"?>
<svg xmlns="http://www.w3.org/2000/svg" version="1.1" width="400" height="400" viewBox="0 0 400 400"><rect x="0" y="0" width="400" height="400" fill="#f5f5f5"/><g transform="scale(14.815)"><g transform="translate(3,3)"><path fill-rule="evenodd" d="M9 0L9 1L10 1L10 2L8 2L8 4L10 4L10 5L9 5L9 6L8 6L8 7L9 7L9 8L10 8L10 7L11 7L11 9L10 9L10 10L8 10L8 8L6 8L6 9L5 9L5 8L3 8L3 9L5 9L5 10L6 10L6 11L4 11L4 12L3 12L3 10L2 10L2 13L4 13L4 12L6 12L6 13L8 13L8 15L9 15L9 14L11 14L11 15L12 15L12 14L13 14L13 15L14 15L14 16L11 16L11 17L10 17L10 18L12 18L12 19L13 19L13 20L11 20L11 19L9 19L9 20L10 20L10 21L13 21L13 20L14 20L14 19L13 19L13 18L12 18L12 17L14 17L14 16L15 16L15 15L14 15L14 14L15 14L15 13L17 13L17 11L16 11L16 10L18 10L18 11L19 11L19 12L18 12L18 13L19 13L19 14L18 14L18 16L16 16L16 17L15 17L15 21L17 21L17 20L18 20L18 21L20 21L20 20L21 20L21 18L19 18L19 19L20 19L20 20L18 20L18 18L17 18L17 17L19 17L19 16L20 16L20 17L21 17L21 13L20 13L20 12L21 12L21 9L19 9L19 8L17 8L17 9L15 9L15 11L14 11L14 10L13 10L13 0L11 0L11 1L10 1L10 0ZM10 2L10 4L11 4L11 5L10 5L10 6L9 6L9 7L10 7L10 6L11 6L11 7L12 7L12 2ZM0 9L0 10L1 10L1 9ZM6 9L6 10L7 10L7 11L6 11L6 12L8 12L8 13L9 13L9 12L8 12L8 10L7 10L7 9ZM11 9L11 10L10 10L10 11L12 11L12 12L11 12L11 13L13 13L13 14L14 14L14 13L15 13L15 12L14 12L14 11L13 11L13 10L12 10L12 9ZM18 9L18 10L19 10L19 9ZM0 11L0 13L1 13L1 11ZM8 16L8 18L9 18L9 16ZM16 19L16 20L17 20L17 19ZM0 0L0 7L7 7L7 0ZM1 1L1 6L6 6L6 1ZM2 2L2 5L5 5L5 2ZM14 0L14 7L21 7L21 0ZM15 1L15 6L20 6L20 1ZM16 2L16 5L19 5L19 2ZM0 14L0 21L7 21L7 14ZM1 15L1 20L6 20L6 15ZM2 16L2 19L5 19L5 16Z" fill="#282828"/></g></g></svg>
