<?xml version="1.0" encoding="UTF-8"?>
<svg xmlns="http://www.w3.org/2000/svg" version="1.1" width="400" height="400" viewBox="0 0 400 400"><rect x="0" y="0" width="400" height="400" fill="#f5f5f5"/><g transform="scale(14.815)"><g transform="translate(3,3)"><path fill-rule="evenodd" d="M8 0L8 1L10 1L10 0ZM11 0L11 1L12 1L12 3L10 3L10 4L8 4L8 5L10 5L10 10L9 10L9 11L8 11L8 10L6 10L6 11L7 11L7 12L5 12L5 11L2 11L2 12L1 12L1 13L2 13L2 12L4 12L4 13L8 13L8 14L10 14L10 15L8 15L8 16L9 16L9 20L10 20L10 21L11 21L11 20L14 20L14 19L12 19L12 18L13 18L13 17L14 17L14 16L15 16L15 13L17 13L17 12L19 12L19 13L18 13L18 17L17 17L17 16L16 16L16 17L15 17L15 21L16 21L16 19L17 19L17 20L18 20L18 21L19 21L19 20L20 20L20 19L21 19L21 18L19 18L19 20L18 20L18 17L19 17L19 16L21 16L21 12L19 12L19 11L21 11L21 8L20 8L20 9L19 9L19 8L18 8L18 9L17 9L17 8L16 8L16 9L15 9L15 8L14 8L14 9L13 9L13 6L12 6L12 3L13 3L13 1L12 1L12 0ZM8 2L8 3L9 3L9 2ZM8 6L8 8L9 8L9 6ZM11 6L11 7L12 7L12 6ZM5 8L5 9L3 9L3 10L5 10L5 9L7 9L7 8ZM11 8L11 9L12 9L12 8ZM1 9L1 10L0 10L0 11L1 11L1 10L2 10L2 9ZM13 10L13 11L9 11L9 12L8 12L8 13L9 13L9 12L10 12L10 13L11 13L11 12L13 12L13 13L12 13L12 14L11 14L11 15L10 15L10 17L12 17L12 16L13 16L13 15L14 15L14 14L13 14L13 13L14 13L14 12L15 12L15 10ZM16 10L16 12L17 12L17 11L18 11L18 10ZM19 13L19 15L20 15L20 13ZM12 14L12 15L13 15L13 14ZM16 14L16 15L17 15L17 14ZM16 17L16 18L17 18L17 17ZM10 18L10 19L11 19L11 18ZM0 0L0 7L7 7L7 0ZM1 1L1 6L6 6L6 1ZM2 2L2 5L5 5L5 2ZM14 0L14 7L21 7L21 0ZM15 1L15 6L20 6L20 1ZM16 2L16 5L19 5L19 2ZM0 14L0 21L7 21L7 14ZM1 15L1 20L6 20L6 15ZM2 16L2 19L5 19L5 16Z" fill="#004b96"/></g></g></svg>
