<?xml version="1.0" encoding="UTF-8"?>
<svg xmlns="http://www.w3.org/2000/svg" version="1.1" width="400" height="400" viewBox="0 0 400 400"><rect x="0" y="0" width="400" height="400" fill="#f5f5f5"/><g transform="scale(14.815)"><g transform="translate(3,3)"><path fill-rule="evenodd" d="M10 0L10 1L9 1L9 2L10 2L10 1L12 1L12 0ZM12 2L12 4L10 4L10 3L9 3L9 4L8 4L8 5L9 5L9 6L8 6L8 8L6 8L6 9L4 9L4 8L2 8L2 9L0 9L0 10L2 10L2 11L1 11L1 12L0 12L0 13L2 13L2 12L3 12L3 13L5 13L5 12L6 12L6 13L8 13L8 15L10 15L10 16L9 16L9 17L8 17L8 19L9 19L9 20L10 20L10 21L15 21L15 20L16 20L16 21L17 21L17 20L16 20L16 18L20 18L20 17L21 17L21 16L20 16L20 15L21 15L21 14L19 14L19 15L18 15L18 16L17 16L17 15L16 15L16 14L13 14L13 12L14 12L14 13L16 13L16 12L17 12L17 14L18 14L18 13L21 13L21 12L20 12L20 11L19 11L19 12L17 12L17 11L18 11L18 10L19 10L19 9L18 9L18 10L17 10L17 11L15 11L15 12L14 12L14 11L13 11L13 10L11 10L11 9L12 9L12 8L11 8L11 6L10 6L10 5L13 5L13 2ZM9 4L9 5L10 5L10 4ZM9 6L9 10L8 10L8 9L6 9L6 10L4 10L4 9L2 9L2 10L4 10L4 11L6 11L6 12L7 12L7 11L6 11L6 10L8 10L8 13L9 13L9 14L10 14L10 15L11 15L11 16L12 16L12 18L11 18L11 19L10 19L10 18L9 18L9 19L10 19L10 20L15 20L15 17L14 17L14 15L11 15L11 14L12 14L12 13L9 13L9 10L10 10L10 6ZM12 6L12 7L13 7L13 6ZM13 8L13 9L15 9L15 8ZM16 8L16 9L17 9L17 8ZM12 11L12 12L13 12L13 11ZM18 16L18 17L20 17L20 16ZM12 18L12 19L14 19L14 18ZM18 19L18 20L19 20L19 21L20 21L20 20L21 20L21 19ZM0 0L0 7L7 7L7 0ZM1 1L1 6L6 6L6 1ZM2 2L2 5L5 5L5 2ZM14 0L14 7L21 7L21 0ZM15 1L15 6L20 6L20 1ZM16 2L16 5L19 5L19 2ZM0 14L0 21L7 21L7 14ZM1 15L1 20L6 20L6 15ZM2 16L2 19L5 19L5 16Z" fill="#282828"/></g></g></svg>
