<?xml version="1.0" encoding="UTF-8"?>
<svg xmlns="http://www.w3.org/2000/svg" version="1.1" width="400" height="400" viewBox="0 0 400 400"><rect x="0" y="0" width="400" height="400" fill="#f5f5f5"/><g transform="scale(14.815)"><g transform="translate(3,3)"><path fill-rule="evenodd" d="M11 0L11 1L8 1L8 7L9 7L9 3L11 3L11 4L10 4L10 7L11 7L11 11L13 11L13 12L14 12L14 10L15 10L15 13L17 13L17 15L16 15L16 16L17 16L17 18L16 18L16 17L13 17L13 16L12 16L12 15L15 15L15 14L12 14L12 12L11 12L11 13L10 13L10 9L9 9L9 8L5 8L5 10L4 10L4 9L3 9L3 8L2 8L2 9L0 9L0 12L1 12L1 13L2 13L2 12L3 12L3 13L8 13L8 16L9 16L9 17L10 17L10 18L11 18L11 19L12 19L12 18L13 18L13 19L15 19L15 20L12 20L12 21L21 21L21 20L20 20L20 19L21 19L21 18L19 18L19 17L21 17L21 16L20 16L20 13L21 13L21 12L18 12L18 9L20 9L20 10L19 10L19 11L21 11L21 9L20 9L20 8L15 8L15 9L14 9L14 8L13 8L13 9L12 9L12 7L13 7L13 6L12 6L12 7L11 7L11 5L12 5L12 2L13 2L13 0ZM6 9L6 10L5 10L5 12L7 12L7 11L6 11L6 10L7 10L7 9ZM16 9L16 10L17 10L17 9ZM1 10L1 12L2 12L2 11L3 11L3 12L4 12L4 10ZM8 11L8 12L9 12L9 11ZM16 11L16 12L17 12L17 11ZM10 14L10 17L11 17L11 14ZM17 15L17 16L19 16L19 15ZM8 18L8 19L9 19L9 18ZM18 18L18 19L19 19L19 18ZM16 19L16 20L17 20L17 19ZM9 20L9 21L10 21L10 20ZM0 0L0 7L7 7L7 0ZM1 1L1 6L6 6L6 1ZM2 2L2 5L5 5L5 2ZM14 0L14 7L21 7L21 0ZM15 1L15 6L20 6L20 1ZM16 2L16 5L19 5L19 2ZM0 14L0 21L7 21L7 14ZM1 15L1 20L6 20L6 15ZM2 16L2 19L5 19L5 16Z" fill="#282828"/></g></g></svg>
