<?xml version="1.0" encoding="UTF-8"?>
<svg xmlns="http://www.w3.org/2000/svg" version="1.1" width="400" height="400" viewBox="0 0 400 400"><rect x="0" y="0" width="400" height="400" fill="#f5f5f5"/><g transform="scale(14.815)"><g transform="translate(3,3)"><path fill-rule="evenodd" d="M10 0L10 1L9 1L9 2L10 2L10 3L9 3L9 4L8 4L8 5L9 5L9 4L10 4L10 8L9 8L9 6L8 6L8 8L6 8L6 9L7 9L7 10L5 10L5 9L4 9L4 8L2 8L2 9L0 9L0 10L2 10L2 11L4 11L4 12L1 12L1 11L0 11L0 13L8 13L8 15L9 15L9 17L8 17L8 19L9 19L9 18L11 18L11 17L12 17L12 19L15 19L15 20L16 20L16 21L17 21L17 20L16 20L16 18L20 18L20 17L21 17L21 16L20 16L20 15L21 15L21 14L20 14L20 13L19 13L19 11L21 11L21 10L19 10L19 9L18 9L18 10L17 10L17 11L15 11L15 8L13 8L13 9L12 9L12 7L13 7L13 6L12 6L12 5L13 5L13 4L12 4L12 3L13 3L13 1L12 1L12 0ZM11 2L11 3L10 3L10 4L11 4L11 5L12 5L12 4L11 4L11 3L12 3L12 2ZM11 6L11 7L12 7L12 6ZM16 8L16 9L17 9L17 8ZM3 9L3 10L4 10L4 11L5 11L5 12L8 12L8 11L9 11L9 10L10 10L10 9L9 9L9 10L8 10L8 11L5 11L5 10L4 10L4 9ZM11 9L11 10L12 10L12 11L10 11L10 12L9 12L9 13L10 13L10 14L13 14L13 15L12 15L12 16L13 16L13 18L14 18L14 15L15 15L15 14L16 14L16 15L17 15L17 16L18 16L18 17L20 17L20 16L18 16L18 15L19 15L19 14L17 14L17 13L18 13L18 12L16 12L16 13L15 13L15 12L14 12L14 10L12 10L12 9ZM12 11L12 13L13 13L13 11ZM14 13L14 14L15 14L15 13ZM10 19L10 20L9 20L9 21L10 21L10 20L11 20L11 21L12 21L12 20L11 20L11 19ZM18 19L18 20L19 20L19 21L20 21L20 20L21 20L21 19ZM0 0L0 7L7 7L7 0ZM1 1L1 6L6 6L6 1ZM2 2L2 5L5 5L5 2ZM14 0L14 7L21 7L21 0ZM15 1L15 6L20 6L20 1ZM16 2L16 5L19 5L19 2ZM0 14L0 21L7 21L7 14ZM1 15L1 20L6 20L6 15ZM2 16L2 19L5 19L5 16Z" fill="#282828"/></g></g></svg>
