<?xml version="1.0" encoding="UTF-8"?>
<svg xmlns="http://www.w3.org/2000/svg" version="1.1" width="400" height="400" viewBox="0 0 400 400"><rect x="0" y="0" width="400" height="400" fill="#f5f5f5"/><g transform="scale(14.815)"><g transform="translate(3,3)"><path fill-rule="evenodd" d="M8 1L8 7L9 7L9 8L5 8L5 9L9 9L9 10L6 10L6 11L9 11L9 10L12 10L12 11L14 11L14 10L15 10L15 13L14 13L14 12L13 12L13 13L12 13L12 14L11 14L11 13L10 13L10 12L11 12L11 11L10 11L10 12L6 12L6 13L8 13L8 16L9 16L9 18L8 18L8 19L10 19L10 21L11 21L11 19L12 19L12 21L13 21L13 20L14 20L14 19L13 19L13 18L14 18L14 17L15 17L15 21L21 21L21 20L20 20L20 19L21 19L21 18L19 18L19 17L21 17L21 16L20 16L20 13L21 13L21 12L20 12L20 11L19 11L19 10L21 10L21 9L20 9L20 8L15 8L15 9L14 9L14 8L13 8L13 5L12 5L12 7L11 7L11 6L10 6L10 7L9 7L9 5L11 5L11 1L10 1L10 3L9 3L9 1ZM12 1L12 4L13 4L13 1ZM2 8L2 9L0 9L0 10L2 10L2 9L3 9L3 10L4 10L4 9L3 9L3 8ZM10 8L10 9L11 9L11 8ZM12 8L12 9L13 9L13 8ZM16 9L16 10L17 10L17 11L16 11L16 12L17 12L17 11L18 11L18 12L19 12L19 13L18 13L18 14L19 14L19 13L20 13L20 12L19 12L19 11L18 11L18 10L19 10L19 9ZM0 11L0 13L1 13L1 12L2 12L2 13L4 13L4 12L5 12L5 11L4 11L4 12L3 12L3 11ZM15 13L15 17L16 17L16 18L17 18L17 16L19 16L19 15L17 15L17 13ZM10 14L10 16L11 16L11 14ZM12 15L12 16L13 16L13 17L14 17L14 15ZM16 15L16 16L17 16L17 15ZM11 17L11 18L10 18L10 19L11 19L11 18L12 18L12 17ZM18 18L18 19L19 19L19 18ZM16 19L16 20L17 20L17 19ZM0 0L0 7L7 7L7 0ZM1 1L1 6L6 6L6 1ZM2 2L2 5L5 5L5 2ZM14 0L14 7L21 7L21 0ZM15 1L15 6L20 6L20 1ZM16 2L16 5L19 5L19 2ZM0 14L0 21L7 21L7 14ZM1 15L1 20L6 20L6 15ZM2 16L2 19L5 19L5 16Z" fill="#282828"/></g></g></svg>
