<?xml version="1.0" encoding="UTF-8"?>
<svg xmlns="http://www.w3.org/2000/svg" version="1.1" width="400" height="400" viewBox="0 0 400 400"><rect x="0" y="0" width="400" height="400" fill="#f5f5f5"/><g transform="scale(14.815)"><g transform="translate(3,3)"><path fill-rule="evenodd" d="M8 0L8 2L9 2L9 3L8 3L8 7L9 7L9 3L10 3L10 5L11 5L11 6L10 6L10 8L9 8L9 9L10 9L10 10L8 10L8 11L7 11L7 10L6 10L6 9L7 9L7 8L6 8L6 9L4 9L4 8L3 8L3 9L4 9L4 10L5 10L5 11L3 11L3 12L2 12L2 11L0 11L0 13L1 13L1 12L2 12L2 13L3 13L3 12L5 12L5 11L7 11L7 12L6 12L6 13L7 13L7 12L8 12L8 11L9 11L9 13L8 13L8 14L11 14L11 12L13 12L13 11L12 11L12 10L15 10L15 9L18 9L18 8L15 8L15 9L11 9L11 6L12 6L12 8L13 8L13 6L12 6L12 4L13 4L13 3L12 3L12 2L13 2L13 0L12 0L12 2L11 2L11 3L10 3L10 0ZM11 3L11 4L12 4L12 3ZM19 8L19 10L17 10L17 11L18 11L18 12L19 12L19 14L17 14L17 12L16 12L16 13L15 13L15 16L12 16L12 15L14 15L14 14L13 14L13 13L12 13L12 15L9 15L9 17L8 17L8 18L10 18L10 19L9 19L9 20L10 20L10 19L11 19L11 18L10 18L10 16L11 16L11 17L17 17L17 18L16 18L16 21L19 21L19 20L20 20L20 19L21 19L21 16L18 16L18 15L19 15L19 14L20 14L20 15L21 15L21 14L20 14L20 13L21 13L21 12L19 12L19 10L21 10L21 8ZM10 10L10 11L11 11L11 10ZM14 11L14 12L15 12L15 11ZM16 14L16 15L17 15L17 14ZM17 16L17 17L18 17L18 16ZM13 18L13 20L11 20L11 21L15 21L15 20L14 20L14 19L15 19L15 18ZM17 18L17 20L18 20L18 19L20 19L20 18ZM0 0L0 7L7 7L7 0ZM1 1L1 6L6 6L6 1ZM2 2L2 5L5 5L5 2ZM14 0L14 7L21 7L21 0ZM15 1L15 6L20 6L20 1ZM16 2L16 5L19 5L19 2ZM0 14L0 21L7 21L7 14ZM1 15L1 20L6 20L6 15ZM2 16L2 19L5 19L5 16Z" fill="#282828"/></g></g></svg>
