<?xml version="1.0" encoding="UTF-8"?>
<svg xmlns="http://www.w3.org/2000/svg" version="1.1" width="400" height="400" viewBox="0 0 400 400"><rect x="0" y="0" width="400" height="400" fill="#f5f5f5"/><g transform="scale(14.815)"><g transform="translate(3,3)"><path fill-rule="evenodd" d="M9 0L9 1L8 1L8 2L9 2L9 1L10 1L10 3L9 3L9 5L8 5L8 8L4 8L4 9L2 9L2 10L1 10L1 9L0 9L0 10L1 10L1 11L0 11L0 13L1 13L1 12L3 12L3 11L4 11L4 9L5 9L5 10L6 10L6 11L5 11L5 12L4 12L4 13L7 13L7 12L8 12L8 17L9 17L9 19L10 19L10 17L11 17L11 20L10 20L10 21L14 21L14 20L15 20L15 19L16 19L16 20L17 20L17 19L18 19L18 21L21 21L21 20L20 20L20 19L19 19L19 18L21 18L21 16L20 16L20 15L21 15L21 12L19 12L19 11L20 11L20 10L21 10L21 9L20 9L20 8L19 8L19 9L17 9L17 10L16 10L16 8L14 8L14 9L13 9L13 10L12 10L12 13L13 13L13 11L14 11L14 12L15 12L15 11L16 11L16 12L17 12L17 13L18 13L18 14L17 14L17 16L16 16L16 15L15 15L15 13L14 13L14 14L13 14L13 15L14 15L14 16L12 16L12 14L10 14L10 13L11 13L11 12L10 12L10 11L11 11L11 9L8 9L8 8L9 8L9 5L10 5L10 8L12 8L12 7L13 7L13 4L12 4L12 3L11 3L11 1L12 1L12 2L13 2L13 1L12 1L12 0ZM10 3L10 5L12 5L12 4L11 4L11 3ZM11 6L11 7L12 7L12 6ZM6 9L6 10L8 10L8 9ZM14 9L14 10L15 10L15 9ZM19 9L19 10L20 10L20 9ZM2 10L2 11L3 11L3 10ZM9 10L9 11L8 11L8 12L9 12L9 13L10 13L10 12L9 12L9 11L10 11L10 10ZM6 11L6 12L7 12L7 11ZM18 12L18 13L19 13L19 14L18 14L18 16L17 16L17 17L16 17L16 18L17 18L17 17L18 17L18 18L19 18L19 17L18 17L18 16L19 16L19 15L20 15L20 13L19 13L19 12ZM9 14L9 15L10 15L10 14ZM9 16L9 17L10 17L10 16ZM14 16L14 17L13 17L13 18L12 18L12 20L13 20L13 18L14 18L14 19L15 19L15 18L14 18L14 17L15 17L15 16ZM0 0L0 7L7 7L7 0ZM1 1L1 6L6 6L6 1ZM2 2L2 5L5 5L5 2ZM14 0L14 7L21 7L21 0ZM15 1L15 6L20 6L20 1ZM16 2L16 5L19 5L19 2ZM0 14L0 21L7 21L7 14ZM1 15L1 20L6 20L6 15ZM2 16L2 19L5 19L5 16Z" fill="#282828"/></g></g></svg>
