<?xml version="1.0" encoding="UTF-8"?>
<svg xmlns="http://www.w3.org/2000/svg" version="1.1" width="400" height="400" viewBox="0 0 400 400"><rect x="0" y="0" width="400" height="400" fill="#f5f5f5"/><g transform="scale(14.815)"><g transform="translate(3,3)"><path fill-rule="evenodd" d="M8 0L8 3L9 3L9 5L8 5L8 9L7 9L7 8L6 8L6 9L5 9L5 8L2 8L2 9L0 9L0 10L2 10L2 11L4 11L4 12L1 12L1 13L4 13L4 12L5 12L5 13L7 13L7 12L6 12L6 11L7 11L7 10L8 10L8 12L10 12L10 11L11 11L11 13L12 13L12 14L11 14L11 16L10 16L10 15L9 15L9 16L8 16L8 19L9 19L9 21L10 21L10 19L11 19L11 21L12 21L12 20L13 20L13 21L16 21L16 20L15 20L15 19L16 19L16 18L15 18L15 16L16 16L16 17L17 17L17 18L18 18L18 17L19 17L19 16L20 16L20 15L21 15L21 12L20 12L20 11L21 11L21 8L18 8L18 9L17 9L17 12L19 12L19 13L17 13L17 14L16 14L16 12L15 12L15 11L16 11L16 10L15 10L15 9L16 9L16 8L13 8L13 11L11 11L11 10L12 10L12 9L11 9L11 10L10 10L10 11L9 11L9 10L8 10L8 9L10 9L10 8L12 8L12 7L13 7L13 6L12 6L12 5L11 5L11 4L12 4L12 3L11 3L11 2L10 2L10 0ZM12 0L12 1L13 1L13 0ZM9 2L9 3L10 3L10 4L11 4L11 3L10 3L10 2ZM9 6L9 7L10 7L10 6ZM11 6L11 7L12 7L12 6ZM2 9L2 10L4 10L4 11L5 11L5 9ZM6 9L6 10L7 10L7 9ZM18 9L18 10L19 10L19 11L20 11L20 10L19 10L19 9ZM14 12L14 13L13 13L13 16L15 16L15 15L16 15L16 14L15 14L15 12ZM8 13L8 14L9 14L9 13ZM17 14L17 17L18 17L18 14ZM19 14L19 15L20 15L20 14ZM11 16L11 17L9 17L9 19L10 19L10 18L11 18L11 19L13 19L13 20L14 20L14 19L13 19L13 17L12 17L12 16ZM11 17L11 18L12 18L12 17ZM17 19L17 20L18 20L18 21L19 21L19 20L20 20L20 19L19 19L19 20L18 20L18 19ZM0 0L0 7L7 7L7 0ZM1 1L1 6L6 6L6 1ZM2 2L2 5L5 5L5 2ZM14 0L14 7L21 7L21 0ZM15 1L15 6L20 6L20 1ZM16 2L16 5L19 5L19 2ZM0 14L0 21L7 21L7 14ZM1 15L1 20L6 20L6 15ZM2 16L2 19L5 19L5 16Z" fill="#282828"/></g></g></svg>
