<?xml version="1.0" encoding="UTF-8"?>
<svg xmlns="http://www.w3.org/2000/svg" version="1.1" width="400" height="400" viewBox="0 0 400 400"><rect x="0" y="0" width="400" height="400" fill="#f5f5f5"/><g transform="scale(14.815)"><g transform="translate(3,3)"><path fill-rule="evenodd" d="M8 0L8 1L9 1L9 2L8 2L8 3L9 3L9 4L8 4L8 5L9 5L9 4L10 4L10 2L11 2L11 5L12 5L12 7L11 7L11 6L10 6L10 7L9 7L9 6L8 6L8 8L9 8L9 11L8 11L8 9L7 9L7 8L5 8L5 9L4 9L4 10L5 10L5 9L7 9L7 10L6 10L6 11L4 11L4 12L3 12L3 11L2 11L2 10L3 10L3 9L1 9L1 10L0 10L0 13L1 13L1 11L2 11L2 13L4 13L4 12L5 12L5 13L8 13L8 14L9 14L9 15L8 15L8 16L9 16L9 21L14 21L14 20L15 20L15 21L16 21L16 19L17 19L17 20L18 20L18 21L19 21L19 20L20 20L20 19L21 19L21 18L19 18L19 20L18 20L18 17L19 17L19 16L21 16L21 13L20 13L20 12L21 12L21 10L20 10L20 9L21 9L21 8L20 8L20 9L19 9L19 8L18 8L18 9L19 9L19 10L18 10L18 11L17 11L17 12L16 12L16 10L17 10L17 8L16 8L16 9L15 9L15 8L14 8L14 9L13 9L13 10L14 10L14 11L12 11L12 9L11 9L11 11L10 11L10 8L12 8L12 7L13 7L13 5L12 5L12 3L13 3L13 2L11 2L11 1L10 1L10 0ZM6 11L6 12L8 12L8 13L9 13L9 12L10 12L10 11L9 11L9 12L8 12L8 11ZM11 11L11 13L10 13L10 16L11 16L11 17L10 17L10 18L12 18L12 19L13 19L13 20L14 20L14 18L15 18L15 17L16 17L16 18L17 18L17 17L18 17L18 12L19 12L19 11L18 11L18 12L17 12L17 13L15 13L15 11L14 11L14 12L12 12L12 11ZM11 13L11 15L14 15L14 16L13 16L13 17L12 17L12 18L14 18L14 16L15 16L15 14L12 14L12 13ZM19 13L19 15L20 15L20 13ZM16 14L16 15L17 15L17 14ZM16 16L16 17L17 17L17 16ZM10 19L10 20L11 20L11 19ZM0 0L0 7L7 7L7 0ZM1 1L1 6L6 6L6 1ZM2 2L2 5L5 5L5 2ZM14 0L14 7L21 7L21 0ZM15 1L15 6L20 6L20 1ZM16 2L16 5L19 5L19 2ZM0 14L0 21L7 21L7 14ZM1 15L1 20L6 20L6 15ZM2 16L2 19L5 19L5 16Z" fill="#282828"/></g></g></svg>
