<?xml version="1.0" encoding="UTF-8"?>
<svg xmlns="http://www.w3.org/2000/svg" version="1.1" width="400" height="400" viewBox="0 0 400 400"><rect x="0" y="0" width="400" height="400" fill="#f5f5f5"/><g transform="scale(14.815)"><g transform="translate(3,3)"><path fill-rule="evenodd" d="M8 0L8 3L9 3L9 5L8 5L8 9L9 9L9 8L10 8L10 7L11 7L11 9L10 9L10 10L6 10L6 9L7 9L7 8L6 8L6 9L5 9L5 8L2 8L2 9L1 9L1 11L0 11L0 12L1 12L1 13L2 13L2 12L4 12L4 13L8 13L8 14L9 14L9 12L5 12L5 11L4 11L4 10L6 10L6 11L11 11L11 12L10 12L10 14L11 14L11 15L9 15L9 16L8 16L8 19L9 19L9 21L10 21L10 19L11 19L11 20L12 20L12 21L13 21L13 20L12 20L12 18L13 18L13 19L14 19L14 18L15 18L15 19L16 19L16 18L15 18L15 17L14 17L14 15L13 15L13 17L12 17L12 18L11 18L11 17L10 17L10 18L9 18L9 16L12 16L12 14L14 14L14 13L15 13L15 14L16 14L16 15L15 15L15 16L16 16L16 17L17 17L17 18L18 18L18 17L19 17L19 16L20 16L20 15L21 15L21 14L20 14L20 13L21 13L21 11L18 11L18 12L17 12L17 13L18 13L18 12L20 12L20 13L19 13L19 14L18 14L18 17L17 17L17 14L16 14L16 12L15 12L15 11L16 11L16 10L15 10L15 9L16 9L16 8L13 8L13 0L12 0L12 2L11 2L11 0L10 0L10 2L9 2L9 0ZM10 2L10 5L9 5L9 7L10 7L10 5L11 5L11 4L12 4L12 3L11 3L11 2ZM11 6L11 7L12 7L12 6ZM18 8L18 9L17 9L17 10L19 10L19 9L21 9L21 8ZM11 9L11 11L12 11L12 13L11 13L11 14L12 14L12 13L14 13L14 11L15 11L15 10L14 10L14 9L13 9L13 11L12 11L12 9ZM1 11L1 12L2 12L2 11ZM19 14L19 15L20 15L20 14ZM17 19L17 20L18 20L18 21L19 21L19 20L20 20L20 19L19 19L19 20L18 20L18 19ZM14 20L14 21L16 21L16 20ZM0 0L0 7L7 7L7 0ZM1 1L1 6L6 6L6 1ZM2 2L2 5L5 5L5 2ZM14 0L14 7L21 7L21 0ZM15 1L15 6L20 6L20 1ZM16 2L16 5L19 5L19 2ZM0 14L0 21L7 21L7 14ZM1 15L1 20L6 20L6 15ZM2 16L2 19L5 19L5 16Z" fill="#282828"/></g></g></svg>
