<?xml version="1.0" encoding="UTF-8"?>
<svg xmlns="http://www.w3.org/2000/svg" version="1.1" width="400" height="400" viewBox="0 0 400 400"><rect x="0" y="0" width="400" height="400" fill="#f5f5f5"/><g transform="scale(14.815)"><g transform="translate(3,3)"><path fill-rule="evenodd" d="M9 0L9 1L10 1L10 0ZM12 0L12 1L13 1L13 0ZM10 2L10 4L11 4L11 6L10 6L10 5L9 5L9 4L8 4L8 5L9 5L9 6L8 6L8 8L6 8L6 9L4 9L4 8L2 8L2 10L1 10L1 9L0 9L0 13L1 13L1 11L2 11L2 13L4 13L4 12L5 12L5 13L8 13L8 15L11 15L11 16L10 16L10 17L8 17L8 19L9 19L9 21L11 21L11 20L13 20L13 19L12 19L12 18L11 18L11 16L12 16L12 15L11 15L11 14L9 14L9 11L8 11L8 10L9 10L9 6L10 6L10 9L11 9L11 10L10 10L10 13L12 13L12 14L13 14L13 13L14 13L14 12L15 12L15 13L16 13L16 12L17 12L17 13L18 13L18 12L19 12L19 11L20 11L20 13L19 13L19 15L18 15L18 16L17 16L17 15L16 15L16 14L15 14L15 15L13 15L13 17L15 17L15 20L16 20L16 21L17 21L17 20L16 20L16 18L20 18L20 17L21 17L21 16L20 16L20 15L21 15L21 11L20 11L20 10L21 10L21 9L20 9L20 10L19 10L19 9L17 9L17 8L16 8L16 9L17 9L17 10L19 10L19 11L15 11L15 8L13 8L13 3L11 3L11 2ZM11 6L11 7L12 7L12 6ZM11 8L11 9L12 9L12 8ZM3 9L3 10L2 10L2 11L5 11L5 10L4 10L4 9ZM6 9L6 10L7 10L7 9ZM12 10L12 11L11 11L11 12L12 12L12 11L13 11L13 12L14 12L14 10ZM6 11L6 12L8 12L8 11ZM18 16L18 17L20 17L20 16ZM9 18L9 19L10 19L10 20L11 20L11 18ZM18 19L18 20L19 20L19 21L20 21L20 20L21 20L21 19ZM0 0L0 7L7 7L7 0ZM1 1L1 6L6 6L6 1ZM2 2L2 5L5 5L5 2ZM14 0L14 7L21 7L21 0ZM15 1L15 6L20 6L20 1ZM16 2L16 5L19 5L19 2ZM0 14L0 21L7 21L7 14ZM1 15L1 20L6 20L6 15ZM2 16L2 19L5 19L5 16Z" fill="#282828"/></g></g></svg>
