<?xml version="1.0" encoding="UTF-8"?>
<svg xmlns="http://www.w3.org/2000/svg" version="1.1" width="400" height="400" viewBox="0 0 400 400"><rect x="0" y="0" width="400" height="400" fill="#f5f5f5"/><g transform="scale(14.815)"><g transform="translate(3,3)"><path fill-rule="evenodd" d="M9 0L9 1L8 1L8 7L9 7L9 6L10 6L10 7L11 7L11 8L5 8L5 9L3 9L3 8L2 8L2 9L3 9L3 10L2 10L2 11L1 11L1 9L0 9L0 12L2 12L2 11L5 11L5 9L7 9L7 10L6 10L6 11L7 11L7 12L6 12L6 13L8 13L8 16L9 16L9 15L10 15L10 17L11 17L11 18L12 18L12 19L11 19L11 20L9 20L9 21L11 21L11 20L12 20L12 21L14 21L14 20L12 20L12 19L15 19L15 21L21 21L21 20L20 20L20 19L21 19L21 18L19 18L19 17L21 17L21 16L20 16L20 12L21 12L21 11L20 11L20 10L21 10L21 9L20 9L20 8L15 8L15 11L14 11L14 12L13 12L13 11L12 11L12 10L14 10L14 8L13 8L13 9L12 9L12 7L13 7L13 5L12 5L12 4L13 4L13 2L12 2L12 4L10 4L10 3L11 3L11 1L10 1L10 0ZM12 0L12 1L13 1L13 0ZM9 1L9 3L10 3L10 1ZM9 4L9 5L10 5L10 6L11 6L11 7L12 7L12 6L11 6L11 5L10 5L10 4ZM8 9L8 10L7 10L7 11L8 11L8 13L9 13L9 14L11 14L11 17L14 17L14 16L15 16L15 17L16 17L16 18L17 18L17 16L19 16L19 15L17 15L17 14L19 14L19 13L18 13L18 12L17 12L17 11L16 11L16 12L17 12L17 13L15 13L15 15L14 15L14 14L13 14L13 15L12 15L12 14L11 14L11 12L12 12L12 13L13 13L13 12L12 12L12 11L11 11L11 10L12 10L12 9ZM16 9L16 10L17 10L17 9ZM9 10L9 12L11 12L11 11L10 11L10 10ZM3 12L3 13L5 13L5 12ZM16 15L16 16L17 16L17 15ZM8 18L8 19L10 19L10 18ZM18 18L18 19L19 19L19 18ZM16 19L16 20L17 20L17 19ZM0 0L0 7L7 7L7 0ZM1 1L1 6L6 6L6 1ZM2 2L2 5L5 5L5 2ZM14 0L14 7L21 7L21 0ZM15 1L15 6L20 6L20 1ZM16 2L16 5L19 5L19 2ZM0 14L0 21L7 21L7 14ZM1 15L1 20L6 20L6 15ZM2 16L2 19L5 19L5 16Z" fill="#282828"/></g></g></svg>
