<?xml version="1.0" encoding="UTF-8"?>
<svg xmlns="http://www.w3.org/2000/svg" version="1.1" width="400" height="400" viewBox="0 0 400 400"><rect x="0" y="0" width="400" height="400" fill="#f5f5f5"/><g transform="scale(14.815)"><g transform="translate(3,3)"><path fill-rule="evenodd" d="M8 1L8 7L9 7L9 4L10 4L10 5L11 5L11 6L10 6L10 7L11 7L11 9L12 9L12 8L13 8L13 9L14 9L14 8L13 8L13 5L12 5L12 2L11 2L11 1L10 1L10 3L9 3L9 1ZM10 3L10 4L11 4L11 3ZM11 6L11 7L12 7L12 6ZM2 8L2 9L1 9L1 10L0 10L0 11L1 11L1 12L2 12L2 13L4 13L4 11L7 11L7 12L5 12L5 13L8 13L8 16L9 16L9 18L8 18L8 19L9 19L9 18L10 18L10 17L11 17L11 19L10 19L10 20L11 20L11 21L21 21L21 20L20 20L20 19L21 19L21 18L19 18L19 17L21 17L21 16L20 16L20 14L21 14L21 13L20 13L20 14L19 14L19 13L17 13L17 12L16 12L16 11L19 11L19 10L20 10L20 11L21 11L21 9L20 9L20 8L15 8L15 10L13 10L13 11L15 11L15 13L17 13L17 15L16 15L16 16L17 16L17 18L16 18L16 17L15 17L15 18L14 18L14 15L15 15L15 14L14 14L14 15L12 15L12 14L13 14L13 13L14 13L14 12L12 12L12 13L11 13L11 11L12 11L12 10L10 10L10 9L9 9L9 8L5 8L5 10L3 10L3 8ZM6 9L6 10L8 10L8 9ZM16 9L16 10L19 10L19 9ZM1 10L1 11L2 11L2 12L3 12L3 10ZM9 10L9 11L10 11L10 10ZM9 12L9 13L10 13L10 15L9 15L9 16L10 16L10 15L11 15L11 16L12 16L12 15L11 15L11 13L10 13L10 12ZM17 15L17 16L19 16L19 15ZM12 17L12 19L11 19L11 20L12 20L12 19L13 19L13 20L14 20L14 18L13 18L13 17ZM18 18L18 19L19 19L19 18ZM16 19L16 20L17 20L17 19ZM0 0L0 7L7 7L7 0ZM1 1L1 6L6 6L6 1ZM2 2L2 5L5 5L5 2ZM14 0L14 7L21 7L21 0ZM15 1L15 6L20 6L20 1ZM16 2L16 5L19 5L19 2ZM0 14L0 21L7 21L7 14ZM1 15L1 20L6 20L6 15ZM2 16L2 19L5 19L5 16Z" fill="#282828"/></g></g></svg>
