<?xml version="1.0" encoding="UTF-8"?>
<svg xmlns="http://www.w3.org/2000/svg" version="1.1" width="400" height="400" viewBox="0 0 400 400"><rect x="0" y="0" width="400" height="400" fill="#f5f5f5"/><g transform="scale(14.815)"><g transform="translate(3,3)"><path fill-rule="evenodd" d="M9 0L9 2L8 2L8 4L10 4L10 7L9 7L9 6L8 6L8 7L9 7L9 8L10 8L10 9L11 9L11 11L12 11L12 12L10 12L10 14L9 14L9 12L8 12L8 11L9 11L9 9L8 9L8 8L6 8L6 9L5 9L5 8L3 8L3 9L0 9L0 13L4 13L4 12L5 12L5 13L7 13L7 12L8 12L8 15L9 15L9 16L8 16L8 18L9 18L9 20L10 20L10 19L11 19L11 21L14 21L14 20L13 20L13 19L12 19L12 18L14 18L14 19L15 19L15 21L17 21L17 20L18 20L18 21L20 21L20 20L21 20L21 18L19 18L19 19L20 19L20 20L18 20L18 18L17 18L17 17L19 17L19 16L20 16L20 17L21 17L21 14L20 14L20 11L18 11L18 10L21 10L21 9L19 9L19 8L17 8L17 9L15 9L15 10L14 10L14 9L13 9L13 1L12 1L12 4L11 4L11 3L10 3L10 2L11 2L11 1L10 1L10 0ZM11 6L11 7L10 7L10 8L11 8L11 9L12 9L12 6ZM4 9L4 10L2 10L2 11L1 11L1 12L2 12L2 11L6 11L6 12L7 12L7 11L8 11L8 9L6 9L6 10L5 10L5 9ZM17 9L17 10L16 10L16 11L17 11L17 10L18 10L18 9ZM6 10L6 11L7 11L7 10ZM13 10L13 11L14 11L14 10ZM11 13L11 14L10 14L10 15L11 15L11 14L12 14L12 17L11 17L11 16L10 16L10 17L9 17L9 18L12 18L12 17L13 17L13 15L14 15L14 17L16 17L16 16L18 16L18 13L14 13L14 14L13 14L13 13ZM14 14L14 15L15 15L15 14ZM16 19L16 20L17 20L17 19ZM0 0L0 7L7 7L7 0ZM1 1L1 6L6 6L6 1ZM2 2L2 5L5 5L5 2ZM14 0L14 7L21 7L21 0ZM15 1L15 6L20 6L20 1ZM16 2L16 5L19 5L19 2ZM0 14L0 21L7 21L7 14ZM1 15L1 20L6 20L6 15ZM2 16L2 19L5 19L5 16Z" fill="#282828"/></g></g></svg>
