<?xml version="1.0" encoding="UTF-8"?>
<svg xmlns="http://www.w3.org/2000/svg" version="1.1" width="400" height="400" viewBox="0 0 400 400"><rect x="0" y="0" width="400" height="400" fill="#f5f5f5"/><g transform="scale(14.815)"><g transform="translate(3,3)"><path fill-rule="evenodd" d="M9 0L9 1L8 1L8 7L9 7L9 5L10 5L10 8L5 8L5 9L3 9L3 8L2 8L2 10L1 10L1 9L0 9L0 12L1 12L1 11L3 11L3 12L4 12L4 13L7 13L7 12L8 12L8 16L9 16L9 17L10 17L10 18L8 18L8 19L9 19L9 21L11 21L11 20L10 20L10 19L11 19L11 17L12 17L12 21L13 21L13 20L14 20L14 21L21 21L21 20L20 20L20 19L21 19L21 18L19 18L19 17L21 17L21 16L20 16L20 14L19 14L19 13L18 13L18 14L17 14L17 15L16 15L16 16L17 16L17 18L16 18L16 17L13 17L13 16L11 16L11 15L10 15L10 14L11 14L11 13L12 13L12 15L14 15L14 14L15 14L15 13L17 13L17 12L16 12L16 11L17 11L17 10L18 10L18 12L19 12L19 9L20 9L20 10L21 10L21 9L20 9L20 8L15 8L15 9L14 9L14 8L12 8L12 7L13 7L13 6L12 6L12 5L13 5L13 4L12 4L12 3L13 3L13 2L12 2L12 1L10 1L10 0ZM9 1L9 2L10 2L10 1ZM11 2L11 3L9 3L9 4L11 4L11 3L12 3L12 2ZM11 6L11 7L12 7L12 6ZM10 8L10 10L14 10L14 13L13 13L13 12L12 12L12 13L13 13L13 14L14 14L14 13L15 13L15 10L14 10L14 9L12 9L12 8ZM5 9L5 11L4 11L4 10L3 10L3 11L4 11L4 12L5 12L5 11L6 11L6 12L7 12L7 11L8 11L8 12L9 12L9 13L10 13L10 12L11 12L11 11L10 11L10 12L9 12L9 11L8 11L8 10L9 10L9 9L8 9L8 10L7 10L7 9ZM16 9L16 10L17 10L17 9ZM6 10L6 11L7 11L7 10ZM20 11L20 13L21 13L21 11ZM17 15L17 16L19 16L19 15ZM13 18L13 19L14 19L14 18ZM18 18L18 19L19 19L19 18ZM16 19L16 20L17 20L17 19ZM0 0L0 7L7 7L7 0ZM1 1L1 6L6 6L6 1ZM2 2L2 5L5 5L5 2ZM14 0L14 7L21 7L21 0ZM15 1L15 6L20 6L20 1ZM16 2L16 5L19 5L19 2ZM0 14L0 21L7 21L7 14ZM1 15L1 20L6 20L6 15ZM2 16L2 19L5 19L5 16Z" fill="#282828"/></g></g></svg>
