<?xml version="1.0" encoding="UTF-8"?>
<svg xmlns="http://www.w3.org/2000/svg" version="1.1" width="400" height="400" viewBox="0 0 400 400"><rect x="0" y="0" width="400" height="400" fill="#f5f5f5"/><g transform="scale(14.815)"><g transform="translate(3,3)"><path fill-rule="evenodd" d="M9 0L9 1L8 1L8 7L9 7L9 5L10 5L10 7L11 7L11 6L12 6L12 8L13 8L13 10L12 10L12 9L11 9L11 8L10 8L10 9L9 9L9 8L5 8L5 9L3 9L3 8L2 8L2 10L6 10L6 11L4 11L4 13L7 13L7 12L6 12L6 11L7 11L7 10L6 10L6 9L8 9L8 10L9 10L9 12L8 12L8 16L9 16L9 13L10 13L10 14L12 14L12 15L10 15L10 17L9 17L9 18L8 18L8 19L10 19L10 20L9 20L9 21L10 21L10 20L11 20L11 21L14 21L14 19L13 19L13 20L11 20L11 19L12 19L12 18L11 18L11 19L10 19L10 17L11 17L11 16L12 16L12 15L13 15L13 16L15 16L15 14L13 14L13 13L14 13L14 12L13 12L13 11L15 11L15 13L17 13L17 15L16 15L16 16L17 16L17 18L16 18L16 17L15 17L15 21L21 21L21 20L20 20L20 19L21 19L21 18L19 18L19 17L21 17L21 16L20 16L20 14L21 14L21 12L20 12L20 11L18 11L18 9L19 9L19 10L21 10L21 9L20 9L20 8L15 8L15 9L14 9L14 8L13 8L13 3L12 3L12 2L13 2L13 0ZM9 1L9 3L10 3L10 5L11 5L11 3L10 3L10 2L11 2L11 1ZM0 9L0 10L1 10L1 9ZM16 9L16 10L17 10L17 9ZM0 11L0 12L1 12L1 11ZM2 11L2 12L3 12L3 11ZM10 11L10 12L11 12L11 13L13 13L13 12L11 12L11 11ZM16 11L16 12L17 12L17 13L18 13L18 14L20 14L20 13L18 13L18 11ZM17 15L17 16L19 16L19 15ZM13 17L13 18L14 18L14 17ZM18 18L18 19L19 19L19 18ZM16 19L16 20L17 20L17 19ZM0 0L0 7L7 7L7 0ZM1 1L1 6L6 6L6 1ZM2 2L2 5L5 5L5 2ZM14 0L14 7L21 7L21 0ZM15 1L15 6L20 6L20 1ZM16 2L16 5L19 5L19 2ZM0 14L0 21L7 21L7 14ZM1 15L1 20L6 20L6 15ZM2 16L2 19L5 19L5 16Z" fill="#282828"/></g></g></svg>
