<?xml version="1.0" encoding="UTF-8"?>
<svg xmlns="http://www.w3.org/2000/svg" version="1.1" width="400" height="400" viewBox="0 0 400 400"><rect x="0" y="0" width="400" height="400" fill="#f5f5f5"/><g transform="scale(14.815)"><g transform="translate(3,3)"><path fill-rule="evenodd" d="M8 0L8 1L9 1L9 2L8 2L8 3L12 3L12 4L10 4L10 5L11 5L11 6L10 6L10 8L9 8L9 6L8 6L8 8L9 8L9 9L7 9L7 8L5 8L5 9L3 9L3 10L2 10L2 9L1 9L1 11L3 11L3 10L4 10L4 12L3 12L3 13L5 13L5 12L6 12L6 13L8 13L8 14L10 14L10 19L9 19L9 20L11 20L11 19L12 19L12 20L13 20L13 19L12 19L12 18L11 18L11 15L13 15L13 16L12 16L12 17L13 17L13 18L14 18L14 19L15 19L15 21L16 21L16 19L17 19L17 20L18 20L18 21L19 21L19 20L20 20L20 19L21 19L21 18L19 18L19 20L18 20L18 17L19 17L19 16L21 16L21 12L20 12L20 13L19 13L19 12L18 12L18 13L19 13L19 14L18 14L18 17L17 17L17 16L16 16L16 17L14 17L14 16L15 16L15 13L17 13L17 12L16 12L16 10L17 10L17 11L21 11L21 8L20 8L20 9L19 9L19 8L18 8L18 9L19 9L19 10L17 10L17 8L16 8L16 9L15 9L15 8L14 8L14 9L13 9L13 10L12 10L12 7L13 7L13 6L12 6L12 4L13 4L13 0L11 0L11 1L9 1L9 0ZM8 4L8 5L9 5L9 4ZM11 6L11 7L12 7L12 6ZM10 8L10 9L9 9L9 10L7 10L7 9L5 9L5 11L6 11L6 12L7 12L7 11L8 11L8 12L9 12L9 13L10 13L10 14L13 14L13 13L10 13L10 12L13 12L13 11L14 11L14 13L15 13L15 10L13 10L13 11L12 11L12 10L11 10L11 11L10 11L10 9L11 9L11 8ZM6 10L6 11L7 11L7 10ZM1 12L1 13L2 13L2 12ZM16 14L16 15L17 15L17 14ZM19 14L19 15L20 15L20 14ZM8 15L8 16L9 16L9 15ZM16 17L16 18L17 18L17 17ZM0 0L0 7L7 7L7 0ZM1 1L1 6L6 6L6 1ZM2 2L2 5L5 5L5 2ZM14 0L14 7L21 7L21 0ZM15 1L15 6L20 6L20 1ZM16 2L16 5L19 5L19 2ZM0 14L0 21L7 21L7 14ZM1 15L1 20L6 20L6 15ZM2 16L2 19L5 19L5 16Z" fill="#282828"/></g></g></svg>
