<?xml version="1.0" encoding="UTF-8"?>
<svg xmlns="http://www.w3.org/2000/svg" version="1.1" width="400" height="400" viewBox="0 0 400 400"><rect x="0" y="0" width="400" height="400" fill="#f5f5f5"/><g transform="scale(14.815)"><g transform="translate(3,3)"><path fill-rule="evenodd" d="M12 0L12 1L13 1L13 0ZM8 1L8 7L9 7L9 6L10 6L10 7L11 7L11 5L13 5L13 3L12 3L12 4L11 4L11 2L10 2L10 1ZM9 2L9 5L11 5L11 4L10 4L10 2ZM12 6L12 8L11 8L11 9L10 9L10 10L8 10L8 9L9 9L9 8L5 8L5 11L7 11L7 12L6 12L6 13L7 13L7 12L9 12L9 13L8 13L8 16L9 16L9 13L10 13L10 15L13 15L13 14L11 14L11 13L13 13L13 12L14 12L14 11L15 11L15 13L17 13L17 12L16 12L16 11L17 11L17 10L16 10L16 9L19 9L19 12L18 12L18 14L17 14L17 15L16 15L16 16L17 16L17 18L16 18L16 17L15 17L15 15L14 15L14 16L12 16L12 17L11 17L11 16L10 16L10 17L9 17L9 18L8 18L8 19L11 19L11 20L9 20L9 21L11 21L11 20L13 20L13 21L14 21L14 20L13 20L13 19L11 19L11 18L12 18L12 17L13 17L13 18L14 18L14 19L15 19L15 21L21 21L21 20L20 20L20 19L21 19L21 18L19 18L19 17L21 17L21 16L20 16L20 14L21 14L21 13L20 13L20 14L19 14L19 12L21 12L21 11L20 11L20 8L15 8L15 10L14 10L14 8L13 8L13 6ZM2 8L2 10L1 10L1 9L0 9L0 10L1 10L1 11L2 11L2 10L3 10L3 12L2 12L2 13L5 13L5 12L4 12L4 9L3 9L3 8ZM12 8L12 9L11 9L11 10L10 10L10 11L9 11L9 12L10 12L10 11L11 11L11 10L12 10L12 12L13 12L13 11L14 11L14 10L13 10L13 8ZM6 9L6 10L7 10L7 9ZM17 15L17 16L19 16L19 15ZM10 17L10 18L11 18L11 17ZM18 18L18 19L19 19L19 18ZM16 19L16 20L17 20L17 19ZM0 0L0 7L7 7L7 0ZM1 1L1 6L6 6L6 1ZM2 2L2 5L5 5L5 2ZM14 0L14 7L21 7L21 0ZM15 1L15 6L20 6L20 1ZM16 2L16 5L19 5L19 2ZM0 14L0 21L7 21L7 14ZM1 15L1 20L6 20L6 15ZM2 16L2 19L5 19L5 16Z" fill="#282828"/></g></g></svg>
