<?xml version="1.0" encoding="UTF-8"?>
<svg xmlns="http://www.w3.org/2000/svg" version="1.1" width="400" height="400" viewBox="0 0 400 400"><rect x="0" y="0" width="400" height="400" fill="#f5f5f5"/><g transform="scale(14.815)"><g transform="translate(3,3)"><path fill-rule="evenodd" d="M10 0L10 3L9 3L9 1L8 1L8 7L9 7L9 8L5 8L5 9L3 9L3 8L2 8L2 9L3 9L3 10L1 10L1 12L2 12L2 13L3 13L3 12L4 12L4 13L5 13L5 12L4 12L4 11L7 11L7 12L6 12L6 13L7 13L7 12L8 12L8 16L9 16L9 18L8 18L8 19L10 19L10 21L12 21L12 19L13 19L13 20L15 20L15 21L21 21L21 20L20 20L20 19L21 19L21 18L19 18L19 17L21 17L21 16L20 16L20 14L18 14L18 12L19 12L19 13L20 13L20 12L21 12L21 10L19 10L19 11L18 11L18 10L16 10L16 9L20 9L20 8L15 8L15 11L13 11L13 12L12 12L12 11L10 11L10 10L9 10L9 11L10 11L10 13L9 13L9 12L8 12L8 10L6 10L6 9L9 9L9 8L10 8L10 9L11 9L11 6L12 6L12 7L13 7L13 5L12 5L12 4L13 4L13 3L12 3L12 4L11 4L11 5L9 5L9 4L10 4L10 3L11 3L11 2L12 2L12 1L13 1L13 0L12 0L12 1L11 1L11 0ZM9 6L9 7L10 7L10 6ZM12 8L12 9L13 9L13 10L14 10L14 8ZM3 10L3 11L2 11L2 12L3 12L3 11L4 11L4 10ZM16 11L16 12L18 12L18 11ZM19 11L19 12L20 12L20 11ZM11 12L11 13L10 13L10 14L9 14L9 15L11 15L11 16L10 16L10 18L11 18L11 17L12 17L12 18L13 18L13 19L14 19L14 17L12 17L12 15L13 15L13 16L15 16L15 17L16 17L16 18L17 18L17 16L19 16L19 15L17 15L17 13L15 13L15 12L14 12L14 13L15 13L15 15L14 15L14 14L13 14L13 13L12 13L12 12ZM11 14L11 15L12 15L12 14ZM16 15L16 16L17 16L17 15ZM18 18L18 19L19 19L19 18ZM16 19L16 20L17 20L17 19ZM0 0L0 7L7 7L7 0ZM1 1L1 6L6 6L6 1ZM2 2L2 5L5 5L5 2ZM14 0L14 7L21 7L21 0ZM15 1L15 6L20 6L20 1ZM16 2L16 5L19 5L19 2ZM0 14L0 21L7 21L7 14ZM1 15L1 20L6 20L6 15ZM2 16L2 19L5 19L5 16Z" fill="#282828"/></g></g></svg>
