<?xml version="1.0" encoding="UTF-8"?>
<svg xmlns="http://www.w3.org/2000/svg" version="1.1" width="400" height="400" viewBox="0 0 400 400"><rect x="0" y="0" width="400" height="400" fill="#f5f5f5"/><g transform="scale(14.815)"><g transform="translate(3,3)"><path fill-rule="evenodd" d="M10 0L10 1L11 1L11 0ZM12 0L12 2L9 2L9 4L8 4L8 5L9 5L9 6L8 6L8 8L6 8L6 9L7 9L7 10L4 10L4 8L2 8L2 10L0 10L0 12L1 12L1 13L2 13L2 11L3 11L3 12L4 12L4 13L5 13L5 12L6 12L6 13L7 13L7 12L8 12L8 11L7 11L7 10L9 10L9 12L10 12L10 13L8 13L8 15L9 15L9 14L10 14L10 16L9 16L9 17L8 17L8 19L9 19L9 20L10 20L10 19L9 19L9 17L10 17L10 16L11 16L11 17L13 17L13 18L11 18L11 19L12 19L12 20L11 20L11 21L13 21L13 20L14 20L14 19L15 19L15 20L16 20L16 21L17 21L17 20L16 20L16 18L20 18L20 17L21 17L21 16L20 16L20 15L21 15L21 14L20 14L20 13L21 13L21 11L20 11L20 10L21 10L21 9L18 9L18 10L17 10L17 11L15 11L15 13L16 13L16 12L18 12L18 13L19 13L19 15L18 15L18 16L17 16L17 15L16 15L16 14L15 14L15 15L14 15L14 17L13 17L13 16L11 16L11 15L13 15L13 14L14 14L14 13L13 13L13 14L11 14L11 13L12 13L12 12L11 12L11 11L10 11L10 10L9 10L9 6L10 6L10 9L11 9L11 10L13 10L13 12L14 12L14 9L15 9L15 8L11 8L11 6L10 6L10 4L12 4L12 5L13 5L13 0ZM12 6L12 7L13 7L13 6ZM16 8L16 9L17 9L17 8ZM6 11L6 12L7 12L7 11ZM19 12L19 13L20 13L20 12ZM18 16L18 17L20 17L20 16ZM14 17L14 18L13 18L13 19L14 19L14 18L15 18L15 17ZM18 19L18 20L19 20L19 21L20 21L20 20L21 20L21 19ZM0 0L0 7L7 7L7 0ZM1 1L1 6L6 6L6 1ZM2 2L2 5L5 5L5 2ZM14 0L14 7L21 7L21 0ZM15 1L15 6L20 6L20 1ZM16 2L16 5L19 5L19 2ZM0 14L0 21L7 21L7 14ZM1 15L1 20L6 20L6 15ZM2 16L2 19L5 19L5 16Z" fill="#282828"/></g></g></svg>
