<?xml version="1.0" encoding="UTF-8"?>
<svg xmlns="http://www.w3.org/2000/svg" version="1.1" width="400" height="400" viewBox="0 0 400 400"><rect x="0" y="0" width="400" height="400" fill="#f5f5f5"/><g transform="scale(14.815)"><g transform="translate(3,3)"><path fill-rule="evenodd" d="M9 0L9 1L8 1L8 2L9 2L9 4L10 4L10 5L8 5L8 8L4 8L4 11L2 11L2 9L1 9L1 11L2 11L2 13L4 13L4 11L5 11L5 10L6 10L6 11L8 11L8 8L9 8L9 11L10 11L10 9L11 9L11 10L12 10L12 12L6 12L6 13L8 13L8 17L9 17L9 16L10 16L10 15L11 15L11 17L10 17L10 19L9 19L9 20L11 20L11 21L15 21L15 20L14 20L14 18L11 18L11 17L15 17L15 19L16 19L16 20L17 20L17 19L18 19L18 21L21 21L21 20L20 20L20 19L19 19L19 18L21 18L21 16L20 16L20 15L21 15L21 14L20 14L20 13L19 13L19 14L20 14L20 15L19 15L19 16L18 16L18 14L17 14L17 16L16 16L16 15L14 15L14 14L15 14L15 11L16 11L16 12L17 12L17 13L18 13L18 12L21 12L21 11L18 11L18 10L21 10L21 9L20 9L20 8L19 8L19 9L18 9L18 10L16 10L16 8L14 8L14 9L13 9L13 6L12 6L12 5L11 5L11 4L12 4L12 3L11 3L11 0ZM9 1L9 2L10 2L10 1ZM12 1L12 2L13 2L13 1ZM10 3L10 4L11 4L11 3ZM10 5L10 6L9 6L9 7L10 7L10 6L11 6L11 9L12 9L12 10L13 10L13 12L12 12L12 13L10 13L10 14L11 14L11 15L12 15L12 14L13 14L13 12L14 12L14 11L15 11L15 9L14 9L14 10L13 10L13 9L12 9L12 6L11 6L11 5ZM6 9L6 10L7 10L7 9ZM17 16L17 17L16 17L16 18L17 18L17 17L18 17L18 18L19 18L19 17L18 17L18 16ZM11 19L11 20L13 20L13 19ZM0 0L0 7L7 7L7 0ZM1 1L1 6L6 6L6 1ZM2 2L2 5L5 5L5 2ZM14 0L14 7L21 7L21 0ZM15 1L15 6L20 6L20 1ZM16 2L16 5L19 5L19 2ZM0 14L0 21L7 21L7 14ZM1 15L1 20L6 20L6 15ZM2 16L2 19L5 19L5 16Z" fill="#282828"/></g></g></svg>
