<?xml version="1.0" encoding="UTF-8"?>
<svg xmlns="http://www.w3.org/2000/svg" version="1.1" width="400" height="400" viewBox="0 0 400 400"><rect x="0" y="0" width="400" height="400" fill="#f5f5f5"/><g transform="scale(14.815)"><g transform="translate(3,3)"><path fill-rule="evenodd" d="M8 0L8 1L9 1L9 2L8 2L8 3L10 3L10 4L12 4L12 5L13 5L13 4L12 4L12 3L13 3L13 2L12 2L12 3L11 3L11 1L9 1L9 0ZM12 0L12 1L13 1L13 0ZM8 4L8 5L9 5L9 6L8 6L8 8L9 8L9 9L8 9L8 10L6 10L6 9L7 9L7 8L5 8L5 10L3 10L3 9L2 9L2 10L1 10L1 9L0 9L0 11L1 11L1 12L3 12L3 13L5 13L5 12L4 12L4 11L5 11L5 10L6 10L6 11L8 11L8 12L6 12L6 13L8 13L8 14L9 14L9 15L8 15L8 16L9 16L9 17L10 17L10 18L9 18L9 19L10 19L10 18L12 18L12 17L13 17L13 19L14 19L14 20L15 20L15 21L16 21L16 19L17 19L17 20L18 20L18 21L19 21L19 20L20 20L20 19L21 19L21 18L19 18L19 20L18 20L18 17L19 17L19 16L21 16L21 12L20 12L20 13L18 13L18 17L17 17L17 16L16 16L16 17L14 17L14 16L15 16L15 15L12 15L12 16L11 16L11 17L10 17L10 16L9 16L9 15L11 15L11 14L12 14L12 13L14 13L14 14L15 14L15 13L17 13L17 12L18 12L18 11L17 11L17 12L16 12L16 10L18 10L18 9L19 9L19 8L18 8L18 9L17 9L17 8L16 8L16 9L15 9L15 8L14 8L14 10L15 10L15 13L14 13L14 11L13 11L13 10L12 10L12 8L11 8L11 9L10 9L10 8L9 8L9 6L10 6L10 7L11 7L11 6L10 6L10 5L9 5L9 4ZM12 6L12 7L13 7L13 6ZM20 8L20 9L21 9L21 8ZM9 9L9 14L11 14L11 13L12 13L12 10L10 10L10 9ZM19 10L19 11L20 11L20 10ZM10 11L10 13L11 13L11 11ZM16 14L16 15L17 15L17 14ZM19 14L19 15L20 15L20 14ZM16 17L16 18L17 18L17 17ZM14 18L14 19L15 19L15 18ZM11 19L11 20L10 20L10 21L13 21L13 20L12 20L12 19ZM0 0L0 7L7 7L7 0ZM1 1L1 6L6 6L6 1ZM2 2L2 5L5 5L5 2ZM14 0L14 7L21 7L21 0ZM15 1L15 6L20 6L20 1ZM16 2L16 5L19 5L19 2ZM0 14L0 21L7 21L7 14ZM1 15L1 20L6 20L6 15ZM2 16L2 19L5 19L5 16Z" fill="#282828"/></g></g></svg>
