<?xml version="1.0" encoding="UTF-8"?>
<svg xmlns="http://www.w3.org/2000/svg" version="1.1" width="400" height="400" viewBox="0 0 400 400"><rect x="0" y="0" width="400" height="400" fill="#f5f5f5"/><g transform="scale(14.815)"><g transform="translate(3,3)"><path fill-rule="evenodd" d="M8 0L8 3L10 3L10 2L11 2L11 4L10 4L10 5L8 5L8 9L9 9L9 10L8 10L8 11L7 11L7 10L6 10L6 9L7 9L7 8L6 8L6 9L5 9L5 8L2 8L2 9L0 9L0 13L1 13L1 11L3 11L3 12L2 12L2 13L3 13L3 12L5 12L5 13L8 13L8 14L9 14L9 16L8 16L8 19L9 19L9 21L12 21L12 20L13 20L13 21L16 21L16 20L15 20L15 19L16 19L16 18L15 18L15 19L13 19L13 18L14 18L14 15L15 15L15 16L16 16L16 17L17 17L17 18L18 18L18 17L19 17L19 16L20 16L20 15L21 15L21 14L20 14L20 13L21 13L21 12L20 12L20 11L19 11L19 12L18 12L18 10L20 10L20 9L21 9L21 8L18 8L18 10L17 10L17 13L19 13L19 14L18 14L18 17L17 17L17 14L16 14L16 12L15 12L15 11L16 11L16 10L15 10L15 9L16 9L16 8L13 8L13 6L12 6L12 8L13 8L13 9L14 9L14 10L15 10L15 11L13 11L13 12L12 12L12 11L10 11L10 12L8 12L8 11L9 11L9 10L10 10L10 9L9 9L9 6L10 6L10 8L11 8L11 6L10 6L10 5L13 5L13 0L12 0L12 2L11 2L11 0L10 0L10 2L9 2L9 0ZM11 9L11 10L12 10L12 9ZM3 10L3 11L5 11L5 10ZM6 11L6 12L7 12L7 11ZM10 12L10 20L11 20L11 19L12 19L12 18L13 18L13 17L12 17L12 15L14 15L14 14L13 14L13 13L12 13L12 12ZM14 12L14 13L15 13L15 12ZM15 14L15 15L16 15L16 14ZM19 14L19 15L20 15L20 14ZM11 17L11 18L12 18L12 17ZM17 19L17 20L18 20L18 21L19 21L19 20L20 20L20 19L19 19L19 20L18 20L18 19ZM0 0L0 7L7 7L7 0ZM1 1L1 6L6 6L6 1ZM2 2L2 5L5 5L5 2ZM14 0L14 7L21 7L21 0ZM15 1L15 6L20 6L20 1ZM16 2L16 5L19 5L19 2ZM0 14L0 21L7 21L7 14ZM1 15L1 20L6 20L6 15ZM2 16L2 19L5 19L5 16Z" fill="#282828"/></g></g></svg>
