<?xml version="1.0" encoding="UTF-8"?>
<svg xmlns="http://www.w3.org/2000/svg" version="1.1" width="400" height="400" viewBox="0 0 400 400"><rect x="0" y="0" width="400" height="400" fill="#f5f5f5"/><g transform="scale(14.815)"><g transform="translate(3,3)"><path fill-rule="evenodd" d="M8 0L8 1L9 1L9 2L8 2L8 3L9 3L9 4L8 4L8 5L9 5L9 6L8 6L8 8L10 8L10 7L11 7L11 5L13 5L13 1L12 1L12 3L9 3L9 2L11 2L11 0L10 0L10 1L9 1L9 0ZM9 6L9 7L10 7L10 6ZM12 6L12 7L13 7L13 6ZM5 8L5 9L4 9L4 10L5 10L5 11L4 11L4 13L7 13L7 12L5 12L5 11L8 11L8 14L9 14L9 13L10 13L10 14L11 14L11 13L10 13L10 11L8 11L8 10L5 10L5 9L7 9L7 8ZM12 8L12 9L9 9L9 10L11 10L11 11L12 11L12 10L14 10L14 9L15 9L15 11L14 11L14 12L13 12L13 14L15 14L15 13L18 13L18 12L16 12L16 10L18 10L18 9L19 9L19 10L20 10L20 11L21 11L21 10L20 10L20 9L21 9L21 8L20 8L20 9L19 9L19 8L18 8L18 9L17 9L17 8L16 8L16 9L15 9L15 8L14 8L14 9L13 9L13 8ZM0 9L0 10L1 10L1 13L3 13L3 12L2 12L2 11L3 11L3 9L2 9L2 10L1 10L1 9ZM20 12L20 15L19 15L19 14L18 14L18 17L17 17L17 16L16 16L16 17L15 17L15 19L14 19L14 17L13 17L13 16L14 16L14 15L13 15L13 16L12 16L12 15L10 15L10 16L9 16L9 15L8 15L8 16L9 16L9 19L10 19L10 21L13 21L13 20L11 20L11 19L10 19L10 17L11 17L11 16L12 16L12 19L14 19L14 21L16 21L16 19L17 19L17 20L18 20L18 21L19 21L19 20L20 20L20 19L21 19L21 18L19 18L19 20L18 20L18 17L19 17L19 16L21 16L21 12ZM16 14L16 15L17 15L17 14ZM16 17L16 18L17 18L17 17ZM0 0L0 7L7 7L7 0ZM1 1L1 6L6 6L6 1ZM2 2L2 5L5 5L5 2ZM14 0L14 7L21 7L21 0ZM15 1L15 6L20 6L20 1ZM16 2L16 5L19 5L19 2ZM0 14L0 21L7 21L7 14ZM1 15L1 20L6 20L6 15ZM2 16L2 19L5 19L5 16Z" fill="#282828"/></g></g></svg>
