<?xml version="1.0" encoding="UTF-8"?>
<svg xmlns="http://www.w3.org/2000/svg" version="1.1" width="400" height="400" viewBox="0 0 400 400"><rect x="0" y="0" width="400" height="400" fill="#f5f5f5"/><g transform="scale(14.815)"><g transform="translate(3,3)"><path fill-rule="evenodd" d="M8 0L8 3L11 3L11 4L10 4L10 7L9 7L9 5L8 5L8 9L7 9L7 8L6 8L6 9L7 9L7 10L5 10L5 11L4 11L4 9L5 9L5 8L2 8L2 9L3 9L3 10L2 10L2 11L3 11L3 13L5 13L5 12L6 12L6 13L8 13L8 14L9 14L9 16L8 16L8 19L9 19L9 21L11 21L11 20L12 20L12 19L11 19L11 18L12 18L12 17L13 17L13 21L16 21L16 20L15 20L15 19L16 19L16 18L15 18L15 19L14 19L14 17L15 17L15 16L16 16L16 17L17 17L17 18L18 18L18 17L19 17L19 16L20 16L20 15L21 15L21 14L20 14L20 13L19 13L19 12L21 12L21 10L19 10L19 9L21 9L21 8L18 8L18 10L17 10L17 13L19 13L19 14L18 14L18 17L17 17L17 14L16 14L16 12L15 12L15 11L16 11L16 10L15 10L15 11L14 11L14 9L16 9L16 8L12 8L12 7L13 7L13 6L12 6L12 7L11 7L11 4L12 4L12 5L13 5L13 4L12 4L12 3L11 3L11 1L10 1L10 0ZM12 0L12 1L13 1L13 0ZM10 7L10 9L11 9L11 10L12 10L12 12L13 12L13 13L12 13L12 15L13 15L13 13L15 13L15 12L13 12L13 10L12 10L12 8L11 8L11 7ZM7 10L7 11L6 11L6 12L8 12L8 13L9 13L9 14L10 14L10 16L9 16L9 18L11 18L11 17L12 17L12 16L11 16L11 13L9 13L9 12L11 12L11 11L10 11L10 10L9 10L9 12L8 12L8 10ZM18 10L18 12L19 12L19 10ZM0 11L0 13L2 13L2 12L1 12L1 11ZM14 14L14 16L15 16L15 15L16 15L16 14ZM19 14L19 15L20 15L20 14ZM17 19L17 20L18 20L18 21L19 21L19 20L20 20L20 19L19 19L19 20L18 20L18 19ZM0 0L0 7L7 7L7 0ZM1 1L1 6L6 6L6 1ZM2 2L2 5L5 5L5 2ZM14 0L14 7L21 7L21 0ZM15 1L15 6L20 6L20 1ZM16 2L16 5L19 5L19 2ZM0 14L0 21L7 21L7 14ZM1 15L1 20L6 20L6 15ZM2 16L2 19L5 19L5 16Z" fill="#282828"/></g></g></svg>
