<?xml version="1.0" encoding="UTF-8"?>
<svg xmlns="http://www.w3.org/2000/svg" version="1.1" width="400" height="400" viewBox="0 0 400 400"><rect x="0" y="0" width="400" height="400" fill="#f5f5f5"/><g transform="scale(14.815)"><g transform="translate(3,3)"><path fill-rule="evenodd" d="M9 0L9 1L8 1L8 2L9 2L9 5L8 5L8 8L4 8L4 9L2 9L2 10L1 10L1 11L0 11L0 13L1 13L1 11L2 11L2 12L3 12L3 13L7 13L7 12L6 12L6 11L7 11L7 10L6 10L6 9L8 9L8 17L9 17L9 18L10 18L10 19L9 19L9 21L14 21L14 20L15 20L15 19L16 19L16 20L17 20L17 19L18 19L18 21L21 21L21 20L20 20L20 19L19 19L19 18L21 18L21 16L20 16L20 15L21 15L21 13L19 13L19 12L18 12L18 13L17 13L17 16L16 16L16 15L15 15L15 16L14 16L14 15L12 15L12 14L10 14L10 11L9 11L9 10L11 10L11 11L12 11L12 13L13 13L13 11L14 11L14 12L15 12L15 11L16 11L16 12L17 12L17 11L20 11L20 10L21 10L21 9L20 9L20 8L19 8L19 9L18 9L18 10L16 10L16 8L14 8L14 9L13 9L13 4L12 4L12 3L11 3L11 2L12 2L12 1L13 1L13 0L12 0L12 1L10 1L10 0ZM10 3L10 5L9 5L9 7L10 7L10 8L8 8L8 9L12 9L12 10L13 10L13 9L12 9L12 8L11 8L11 7L12 7L12 5L11 5L11 3ZM10 6L10 7L11 7L11 6ZM4 9L4 12L5 12L5 11L6 11L6 10L5 10L5 9ZM14 10L14 11L15 11L15 10ZM14 13L14 14L15 14L15 13ZM9 14L9 15L10 15L10 16L9 16L9 17L10 17L10 18L12 18L12 19L10 19L10 20L12 20L12 19L15 19L15 18L14 18L14 16L12 16L12 17L10 17L10 16L11 16L11 15L10 15L10 14ZM18 14L18 16L17 16L17 17L16 17L16 18L17 18L17 17L18 17L18 18L19 18L19 17L18 17L18 16L19 16L19 15L20 15L20 14ZM12 17L12 18L13 18L13 17ZM0 0L0 7L7 7L7 0ZM1 1L1 6L6 6L6 1ZM2 2L2 5L5 5L5 2ZM14 0L14 7L21 7L21 0ZM15 1L15 6L20 6L20 1ZM16 2L16 5L19 5L19 2ZM0 14L0 21L7 21L7 14ZM1 15L1 20L6 20L6 15ZM2 16L2 19L5 19L5 16Z" fill="#282828"/></g></g></svg>
