<?xml version="1.0" encoding="UTF-8"?>
<svg xmlns="http://www.w3.org/2000/svg" version="1.1" width="400" height="400" viewBox="0 0 400 400"><rect x="0" y="0" width="400" height="400" fill="#f5f5f5"/><g transform="scale(14.815)"><g transform="translate(3,3)"><path fill-rule="evenodd" d="M9 0L9 1L11 1L11 0ZM12 0L12 3L10 3L10 2L8 2L8 4L9 4L9 6L8 6L8 7L9 7L9 6L10 6L10 9L12 9L12 8L13 8L13 6L12 6L12 4L13 4L13 0ZM10 4L10 6L11 6L11 7L12 7L12 6L11 6L11 4ZM3 8L3 9L0 9L0 10L2 10L2 12L1 12L1 11L0 11L0 12L1 12L1 13L8 13L8 15L10 15L10 13L11 13L11 15L12 15L12 14L13 14L13 16L12 16L12 17L13 17L13 16L14 16L14 18L12 18L12 19L14 19L14 20L13 20L13 21L17 21L17 20L18 20L18 21L20 21L20 20L21 20L21 18L19 18L19 19L20 19L20 20L18 20L18 18L17 18L17 17L19 17L19 16L20 16L20 17L21 17L21 14L19 14L19 12L18 12L18 10L17 10L17 9L19 9L19 8L17 8L17 9L15 9L15 10L14 10L14 9L13 9L13 10L11 10L11 11L10 11L10 10L9 10L9 11L8 11L8 8L6 8L6 9L5 9L5 8ZM6 9L6 10L3 10L3 11L4 11L4 12L5 12L5 11L6 11L6 12L8 12L8 13L9 13L9 12L8 12L8 11L6 11L6 10L7 10L7 9ZM20 9L20 10L19 10L19 11L21 11L21 9ZM16 10L16 11L17 11L17 10ZM11 11L11 12L12 12L12 13L13 13L13 12L14 12L14 14L15 14L15 15L14 15L14 16L15 16L15 17L16 17L16 16L18 16L18 12L17 12L17 13L15 13L15 12L14 12L14 11ZM20 12L20 13L21 13L21 12ZM8 16L8 18L9 18L9 19L10 19L10 20L9 20L9 21L12 21L12 20L11 20L11 19L10 19L10 17L9 17L9 16ZM14 18L14 19L15 19L15 18ZM16 19L16 20L17 20L17 19ZM0 0L0 7L7 7L7 0ZM1 1L1 6L6 6L6 1ZM2 2L2 5L5 5L5 2ZM14 0L14 7L21 7L21 0ZM15 1L15 6L20 6L20 1ZM16 2L16 5L19 5L19 2ZM0 14L0 21L7 21L7 14ZM1 15L1 20L6 20L6 15ZM2 16L2 19L5 19L5 16Z" fill="#282828"/></g></g></svg>
