<?xml version="1.0" encoding="UTF-8"?>
<svg xmlns="http://www.w3.org/2000/svg" version="1.1" width="400" height="400" viewBox="0 0 400 400"><rect x="0" y="0" width="400" height="400" fill="#ffffff"/><g transform="scale(7.843)"><g transform="translate(15,15)"><path fill-rule="evenodd" d="M9 0L9 2L8 2L8 4L9 4L9 5L10 5L10 7L9 7L9 6L8 6L8 7L9 7L9 9L8 9L8 8L6 8L6 9L8 9L8 10L6 10L6 11L7 11L7 12L6 12L6 13L7 13L7 12L8 12L8 10L9 10L9 13L8 13L8 15L9 15L9 16L8 16L8 18L9 18L9 19L10 19L10 20L9 20L9 21L12 21L12 19L13 19L13 21L14 21L14 19L15 19L15 21L17 21L17 20L18 20L18 21L20 21L20 20L21 20L21 18L19 18L19 19L20 19L20 20L18 20L18 18L17 18L17 17L19 17L19 16L20 16L20 17L21 17L21 14L18 14L18 13L19 13L19 11L18 11L18 10L19 10L19 8L17 8L17 9L15 9L15 10L13 10L13 8L12 8L12 10L11 10L11 8L10 8L10 7L11 7L11 4L10 4L10 3L9 3L9 2L12 2L12 4L13 4L13 1L12 1L12 0ZM12 5L12 7L13 7L13 5ZM3 8L3 10L2 10L2 13L4 13L4 11L3 11L3 10L5 10L5 8ZM0 9L0 10L1 10L1 9ZM17 9L17 10L16 10L16 11L17 11L17 10L18 10L18 9ZM20 9L20 11L21 11L21 9ZM10 10L10 11L11 11L11 12L10 12L10 13L11 13L11 15L12 15L12 18L13 18L13 19L14 19L14 18L15 18L15 17L16 17L16 16L18 16L18 14L17 14L17 13L18 13L18 12L17 12L17 13L15 13L15 16L14 16L14 17L13 17L13 15L12 15L12 13L13 13L13 14L14 14L14 13L13 13L13 12L12 12L12 11L13 11L13 10L12 10L12 11L11 11L11 10ZM0 11L0 13L1 13L1 11ZM14 11L14 12L15 12L15 11ZM20 12L20 13L21 13L21 12ZM9 14L9 15L10 15L10 14ZM9 16L9 18L10 18L10 17L11 17L11 16ZM16 19L16 20L17 20L17 19ZM0 0L0 7L7 7L7 0ZM1 1L1 6L6 6L6 1ZM2 2L2 5L5 5L5 2ZM14 0L14 7L21 7L21 0ZM15 1L15 6L20 6L20 1ZM16 2L16 5L19 5L19 2ZM0 14L0 21L7 21L7 14ZM1 15L1 20L6 20L6 15ZM2 16L2 19L5 19L5 16Z" fill="#004b96"/></g></g></svg>
