<?xml version="1.0" encoding="UTF-8"?>
<svg xmlns="http://www.w3.org/2000/svg" version="1.1" width="400" height="400" viewBox="0 0 400 400"><rect x="0" y="0" width="400" height="400" fill="#f5f5f5"/><g transform="scale(14.815)"><g transform="translate(3,3)"><path fill-rule="evenodd" d="M12 0L12 1L11 1L11 2L10 2L10 1L8 1L8 7L9 7L9 8L5 8L5 9L7 9L7 10L6 10L6 11L7 11L7 10L8 10L8 11L9 11L9 12L5 12L5 10L4 10L4 12L2 12L2 11L1 11L1 12L0 12L0 13L8 13L8 16L9 16L9 18L8 18L8 19L9 19L9 18L12 18L12 17L10 17L10 15L11 15L11 14L12 14L12 16L13 16L13 17L14 17L14 18L13 18L13 20L14 20L14 21L21 21L21 20L20 20L20 19L21 19L21 18L19 18L19 17L21 17L21 16L20 16L20 13L18 13L18 14L17 14L17 15L16 15L16 16L17 16L17 18L16 18L16 17L14 17L14 16L15 16L15 14L14 14L14 13L17 13L17 12L19 12L19 11L17 11L17 10L18 10L18 9L19 9L19 10L21 10L21 9L20 9L20 8L15 8L15 9L14 9L14 8L13 8L13 4L12 4L12 5L10 5L10 4L11 4L11 2L12 2L12 3L13 3L13 0ZM9 2L9 4L10 4L10 2ZM9 5L9 7L10 7L10 5ZM11 6L11 7L12 7L12 6ZM2 8L2 9L1 9L1 10L3 10L3 8ZM9 8L9 9L8 9L8 10L9 10L9 9L10 9L10 8ZM11 9L11 10L10 10L10 11L12 11L12 12L13 12L13 11L15 11L15 10L14 10L14 9L13 9L13 10L12 10L12 9ZM16 9L16 10L17 10L17 9ZM16 11L16 12L17 12L17 11ZM20 11L20 12L21 12L21 11ZM9 12L9 15L10 15L10 12ZM13 15L13 16L14 16L14 15ZM17 15L17 16L19 16L19 15ZM18 18L18 19L19 19L19 18ZM10 19L10 20L9 20L9 21L10 21L10 20L12 20L12 19ZM14 19L14 20L15 20L15 19ZM16 19L16 20L17 20L17 19ZM0 0L0 7L7 7L7 0ZM1 1L1 6L6 6L6 1ZM2 2L2 5L5 5L5 2ZM14 0L14 7L21 7L21 0ZM15 1L15 6L20 6L20 1ZM16 2L16 5L19 5L19 2ZM0 14L0 21L7 21L7 14ZM1 15L1 20L6 20L6 15ZM2 16L2 19L5 19L5 16Z" fill="#282828"/></g></g></svg>
