<?xml version="1.0" encoding="UTF-8"?>
<svg xmlns="http://www.w3.org/2000/svg" version="1.1" width="400" height="400" viewBox="0 0 400 400"><rect x="0" y="0" width="400" height="400" fill="#f5f5f5"/><g transform="scale(14.815)"><g transform="translate(3,3)"><path fill-rule="evenodd" d="M12 0L12 1L10 1L10 7L9 7L9 1L8 1L8 7L9 7L9 8L5 8L5 9L4 9L4 10L3 10L3 8L2 8L2 11L4 11L4 10L5 10L5 12L3 12L3 13L5 13L5 12L6 12L6 13L8 13L8 16L9 16L9 14L11 14L11 15L10 15L10 16L11 16L11 15L12 15L12 16L13 16L13 15L14 15L14 17L15 17L15 20L14 20L14 19L13 19L13 18L12 18L12 19L11 19L11 20L10 20L10 21L12 21L12 19L13 19L13 21L21 21L21 20L20 20L20 19L21 19L21 18L19 18L19 17L21 17L21 16L20 16L20 12L21 12L21 11L20 11L20 10L21 10L21 9L20 9L20 8L15 8L15 10L13 10L13 9L14 9L14 8L13 8L13 9L12 9L12 7L13 7L13 5L12 5L12 4L13 4L13 3L11 3L11 2L12 2L12 1L13 1L13 0ZM11 5L11 7L10 7L10 9L6 9L6 10L8 10L8 11L6 11L6 12L8 12L8 13L9 13L9 11L10 11L10 13L11 13L11 14L12 14L12 15L13 15L13 14L12 14L12 13L13 13L13 11L12 11L12 13L11 13L11 11L10 11L10 10L11 10L11 7L12 7L12 5ZM0 9L0 10L1 10L1 9ZM16 9L16 10L17 10L17 11L16 11L16 12L17 12L17 13L15 13L15 12L14 12L14 14L15 14L15 17L16 17L16 18L17 18L17 16L19 16L19 15L17 15L17 13L18 13L18 14L19 14L19 13L18 13L18 11L19 11L19 12L20 12L20 11L19 11L19 9L18 9L18 10L17 10L17 9ZM0 11L0 12L1 12L1 13L2 13L2 12L1 12L1 11ZM16 15L16 16L17 16L17 15ZM9 17L9 18L8 18L8 19L10 19L10 17ZM18 18L18 19L19 19L19 18ZM16 19L16 20L17 20L17 19ZM0 0L0 7L7 7L7 0ZM1 1L1 6L6 6L6 1ZM2 2L2 5L5 5L5 2ZM14 0L14 7L21 7L21 0ZM15 1L15 6L20 6L20 1ZM16 2L16 5L19 5L19 2ZM0 14L0 21L7 21L7 14ZM1 15L1 20L6 20L6 15ZM2 16L2 19L5 19L5 16Z" fill="#282828"/></g></g></svg>
