<?xml version="1.0" encoding="UTF-8"?>
<svg xmlns="http://www.w3.org/2000/svg" version="1.1" width="400" height="400" viewBox="0 0 400 400"><rect x="0" y="0" width="400" height="400" fill="#f5f5f5"/><g transform="scale(14.815)"><g transform="translate(3,3)"><path fill-rule="evenodd" d="M9 0L9 2L8 2L8 4L9 4L9 6L8 6L8 7L9 7L9 8L10 8L10 9L8 9L8 8L6 8L6 9L8 9L8 10L5 10L5 11L4 11L4 9L5 9L5 8L3 8L3 10L1 10L1 9L0 9L0 10L1 10L1 12L0 12L0 13L3 13L3 12L5 12L5 13L8 13L8 15L9 15L9 16L8 16L8 18L11 18L11 19L9 19L9 21L14 21L14 20L15 20L15 21L17 21L17 20L18 20L18 21L20 21L20 20L21 20L21 18L19 18L19 19L20 19L20 20L18 20L18 18L17 18L17 17L19 17L19 16L20 16L20 17L21 17L21 14L19 14L19 13L21 13L21 11L20 11L20 10L21 10L21 9L20 9L20 10L17 10L17 9L19 9L19 8L17 8L17 9L15 9L15 11L14 11L14 13L13 13L13 14L15 14L15 13L17 13L17 14L18 14L18 16L16 16L16 17L15 17L15 15L13 15L13 16L10 16L10 13L11 13L11 15L12 15L12 11L13 11L13 10L12 10L12 9L13 9L13 6L12 6L12 4L13 4L13 0L12 0L12 2L11 2L11 3L9 3L9 2L10 2L10 1L11 1L11 0ZM10 4L10 6L9 6L9 7L10 7L10 8L11 8L11 9L12 9L12 6L11 6L11 4ZM10 6L10 7L11 7L11 6ZM10 10L10 11L9 11L9 13L10 13L10 12L11 12L11 10ZM16 10L16 11L17 11L17 10ZM2 11L2 12L3 12L3 11ZM6 11L6 12L8 12L8 11ZM17 12L17 13L19 13L19 12ZM9 16L9 17L10 17L10 16ZM13 16L13 17L12 17L12 18L13 18L13 20L14 20L14 18L15 18L15 17L14 17L14 16ZM13 17L13 18L14 18L14 17ZM11 19L11 20L12 20L12 19ZM16 19L16 20L17 20L17 19ZM0 0L0 7L7 7L7 0ZM1 1L1 6L6 6L6 1ZM2 2L2 5L5 5L5 2ZM14 0L14 7L21 7L21 0ZM15 1L15 6L20 6L20 1ZM16 2L16 5L19 5L19 2ZM0 14L0 21L7 21L7 14ZM1 15L1 20L6 20L6 15ZM2 16L2 19L5 19L5 16Z" fill="#282828"/></g></g></svg>
