<?xml version="1.0" encoding="UTF-8"?>
<svg xmlns="http://www.w3.org/2000/svg" version="1.1" width="400" height="400" viewBox="0 0 400 400"><rect x="0" y="0" width="400" height="400" fill="#f5f5f5"/><g transform="scale(14.815)"><g transform="translate(3,3)"><path fill-rule="evenodd" d="M9 0L9 1L10 1L10 0ZM11 0L11 3L10 3L10 4L8 4L8 5L9 5L9 6L8 6L8 8L6 8L6 9L5 9L5 10L4 10L4 8L2 8L2 9L0 9L0 13L1 13L1 10L2 10L2 12L4 12L4 13L5 13L5 11L8 11L8 10L6 10L6 9L9 9L9 11L10 11L10 12L9 12L9 13L8 13L8 15L9 15L9 14L10 14L10 13L11 13L11 10L10 10L10 9L12 9L12 10L14 10L14 9L15 9L15 8L13 8L13 1L12 1L12 0ZM10 4L10 6L9 6L9 9L10 9L10 8L12 8L12 6L11 6L11 5L12 5L12 4ZM10 6L10 7L11 7L11 6ZM16 8L16 9L17 9L17 8ZM18 9L18 10L17 10L17 11L13 11L13 12L12 12L12 14L11 14L11 16L12 16L12 17L11 17L11 18L10 18L10 20L9 20L9 21L10 21L10 20L11 20L11 19L12 19L12 18L13 18L13 19L15 19L15 20L14 20L14 21L15 21L15 20L16 20L16 21L17 21L17 20L16 20L16 18L20 18L20 17L21 17L21 16L20 16L20 15L21 15L21 14L20 14L20 11L19 11L19 12L17 12L17 11L18 11L18 10L19 10L19 9ZM6 12L6 13L7 13L7 12ZM16 12L16 13L15 13L15 14L16 14L16 15L17 15L17 16L18 16L18 17L20 17L20 16L18 16L18 15L19 15L19 13L18 13L18 14L17 14L17 12ZM13 13L13 14L14 14L14 13ZM9 16L9 17L8 17L8 19L9 19L9 17L10 17L10 16ZM13 17L13 18L15 18L15 17ZM18 19L18 20L19 20L19 21L20 21L20 20L21 20L21 19ZM0 0L0 7L7 7L7 0ZM1 1L1 6L6 6L6 1ZM2 2L2 5L5 5L5 2ZM14 0L14 7L21 7L21 0ZM15 1L15 6L20 6L20 1ZM16 2L16 5L19 5L19 2ZM0 14L0 21L7 21L7 14ZM1 15L1 20L6 20L6 15ZM2 16L2 19L5 19L5 16Z" fill="#282828"/></g></g></svg>
