<?xml version="1.0" encoding="UTF-8"?>
<svg xmlns="http://www.w3.org/2000/svg" version="1.1" width="400" height="400" viewBox="0 0 400 400"><rect x="0" y="0" width="400" height="400" fill="#f5f5f5"/><g transform="scale(14.815)"><g transform="translate(3,3)"><path fill-rule="evenodd" d="M9 0L9 4L8 4L8 5L11 5L11 6L10 6L10 7L11 7L11 6L12 6L12 7L13 7L13 5L12 5L12 4L11 4L11 3L12 3L12 2L11 2L11 1L10 1L10 0ZM12 0L12 1L13 1L13 0ZM8 6L8 8L6 8L6 9L5 9L5 10L4 10L4 8L2 8L2 9L3 9L3 10L4 10L4 11L3 11L3 12L2 12L2 11L1 11L1 12L2 12L2 13L7 13L7 12L4 12L4 11L8 11L8 10L6 10L6 9L13 9L13 10L12 10L12 13L8 13L8 15L9 15L9 16L10 16L10 17L8 17L8 19L9 19L9 20L12 20L12 21L14 21L14 20L16 20L16 21L17 21L17 20L16 20L16 18L20 18L20 17L21 17L21 16L20 16L20 15L21 15L21 11L20 11L20 10L19 10L19 9L17 9L17 8L16 8L16 9L17 9L17 10L19 10L19 11L20 11L20 12L18 12L18 11L15 11L15 12L14 12L14 14L12 14L12 13L13 13L13 10L15 10L15 8L9 8L9 6ZM0 9L0 10L1 10L1 9ZM9 10L9 11L10 11L10 12L11 12L11 11L10 11L10 10ZM16 12L16 13L15 13L15 14L16 14L16 15L17 15L17 16L18 16L18 17L20 17L20 16L18 16L18 15L19 15L19 14L20 14L20 13L19 13L19 14L18 14L18 12ZM9 14L9 15L10 15L10 16L11 16L11 15L12 15L12 17L13 17L13 16L14 16L14 18L13 18L13 19L12 19L12 20L14 20L14 19L15 19L15 16L14 16L14 15L12 15L12 14L11 14L11 15L10 15L10 14ZM10 17L10 18L9 18L9 19L11 19L11 17ZM18 19L18 20L19 20L19 21L20 21L20 20L21 20L21 19ZM0 0L0 7L7 7L7 0ZM1 1L1 6L6 6L6 1ZM2 2L2 5L5 5L5 2ZM14 0L14 7L21 7L21 0ZM15 1L15 6L20 6L20 1ZM16 2L16 5L19 5L19 2ZM0 14L0 21L7 21L7 14ZM1 15L1 20L6 20L6 15ZM2 16L2 19L5 19L5 16Z" fill="#282828"/></g></g></svg>
