<?xml version="1.0" encoding="UTF-8"?>
<svg xmlns="http://www.w3.org/2000/svg" version="1.1" width="400" height="400" viewBox="0 0 400 400"><rect x="0" y="0" width="400" height="400" fill="#f5f5f5"/><g transform="scale(14.815)"><g transform="translate(3,3)"><path fill-rule="evenodd" d="M9 0L9 1L10 1L10 3L9 3L9 2L8 2L8 4L9 4L9 5L10 5L10 7L11 7L11 8L12 8L12 10L13 10L13 11L12 11L12 12L11 12L11 11L8 11L8 10L9 10L9 9L10 9L10 10L11 10L11 9L10 9L10 8L9 8L9 9L8 9L8 8L6 8L6 9L8 9L8 10L6 10L6 11L7 11L7 12L6 12L6 13L7 13L7 12L8 12L8 15L9 15L9 16L8 16L8 18L9 18L9 21L11 21L11 20L12 20L12 21L14 21L14 20L13 20L13 18L15 18L15 21L17 21L17 20L18 20L18 21L20 21L20 20L21 20L21 18L19 18L19 19L20 19L20 20L18 20L18 18L17 18L17 17L19 17L19 16L20 16L20 17L21 17L21 13L20 13L20 14L18 14L18 13L19 13L19 12L21 12L21 10L20 10L20 9L19 9L19 8L17 8L17 9L13 9L13 2L12 2L12 4L10 4L10 3L11 3L11 1L10 1L10 0ZM8 6L8 7L9 7L9 6ZM11 6L11 7L12 7L12 6ZM3 8L3 9L1 9L1 11L0 11L0 12L2 12L2 13L4 13L4 12L5 12L5 8ZM18 9L18 10L19 10L19 11L20 11L20 10L19 10L19 9ZM2 10L2 11L3 11L3 12L4 12L4 11L3 11L3 10ZM14 10L14 11L13 11L13 12L12 12L12 13L10 13L10 12L9 12L9 13L10 13L10 14L9 14L9 15L10 15L10 14L11 14L11 16L10 16L10 17L9 17L9 18L10 18L10 19L11 19L11 18L12 18L12 17L13 17L13 16L14 16L14 17L16 17L16 16L18 16L18 14L17 14L17 13L14 13L14 12L15 12L15 10ZM16 10L16 11L17 11L17 10ZM12 13L12 14L13 14L13 15L12 15L12 16L11 16L11 17L10 17L10 18L11 18L11 17L12 17L12 16L13 16L13 15L14 15L14 13ZM16 19L16 20L17 20L17 19ZM0 0L0 7L7 7L7 0ZM1 1L1 6L6 6L6 1ZM2 2L2 5L5 5L5 2ZM14 0L14 7L21 7L21 0ZM15 1L15 6L20 6L20 1ZM16 2L16 5L19 5L19 2ZM0 14L0 21L7 21L7 14ZM1 15L1 20L6 20L6 15ZM2 16L2 19L5 19L5 16Z" fill="#282828"/></g></g></svg>
