<?xml version="1.0" encoding="UTF-8"?>
<svg xmlns="http://www.w3.org/2000/svg" version="1.1" width="400" height="400" viewBox="0 0 400 400"><rect x="0" y="0" width="400" height="400" fill="#f5f5f5"/><g transform="scale(14.815)"><g transform="translate(3,3)"><path fill-rule="evenodd" d="M9 0L9 3L11 3L11 4L10 4L10 8L9 8L9 6L8 6L8 8L6 8L6 9L7 9L7 10L6 10L6 11L5 11L5 10L4 10L4 11L3 11L3 9L4 9L4 8L2 8L2 12L1 12L1 10L0 10L0 12L1 12L1 13L3 13L3 12L4 12L4 11L5 11L5 12L6 12L6 13L7 13L7 12L6 12L6 11L7 11L7 10L8 10L8 9L9 9L9 11L8 11L8 15L9 15L9 14L11 14L11 15L12 15L12 18L10 18L10 16L9 16L9 17L8 17L8 19L9 19L9 18L10 18L10 19L12 19L12 20L13 20L13 21L14 21L14 20L16 20L16 21L17 21L17 20L16 20L16 18L20 18L20 17L21 17L21 16L20 16L20 15L21 15L21 13L19 13L19 12L17 12L17 11L18 11L18 10L19 10L19 11L20 11L20 12L21 12L21 11L20 11L20 10L21 10L21 9L20 9L20 10L19 10L19 9L17 9L17 8L16 8L16 9L17 9L17 11L14 11L14 10L12 10L12 11L13 11L13 12L11 12L11 11L10 11L10 10L11 10L11 9L10 9L10 8L11 8L11 6L12 6L12 7L13 7L13 5L11 5L11 4L13 4L13 3L12 3L12 1L13 1L13 0L12 0L12 1L11 1L11 0ZM10 1L10 2L11 2L11 1ZM8 4L8 5L9 5L9 4ZM13 8L13 9L15 9L15 8ZM9 11L9 12L10 12L10 11ZM14 12L14 14L13 14L13 13L12 13L12 15L14 15L14 16L13 16L13 18L12 18L12 19L13 19L13 20L14 20L14 19L15 19L15 18L14 18L14 16L15 16L15 14L16 14L16 15L17 15L17 16L18 16L18 17L20 17L20 16L18 16L18 15L19 15L19 13L18 13L18 14L17 14L17 12L16 12L16 13L15 13L15 12ZM13 18L13 19L14 19L14 18ZM18 19L18 20L19 20L19 21L20 21L20 20L21 20L21 19ZM0 0L0 7L7 7L7 0ZM1 1L1 6L6 6L6 1ZM2 2L2 5L5 5L5 2ZM14 0L14 7L21 7L21 0ZM15 1L15 6L20 6L20 1ZM16 2L16 5L19 5L19 2ZM0 14L0 21L7 21L7 14ZM1 15L1 20L6 20L6 15ZM2 16L2 19L5 19L5 16Z" fill="#282828"/></g></g></svg>
