<?xml version="1.0" encoding="UTF-8"?>
<svg xmlns="http://www.w3.org/2000/svg" version="1.1" width="400" height="400" viewBox="0 0 400 400"><rect x="0" y="0" width="400" height="400" fill="#f5f5f5"/><g transform="scale(14.815)"><g transform="translate(3,3)"><path fill-rule="evenodd" d="M9 0L9 2L8 2L8 4L9 4L9 3L10 3L10 2L11 2L11 3L12 3L12 5L11 5L11 4L10 4L10 9L8 9L8 8L6 8L6 9L8 9L8 10L6 10L6 11L7 11L7 12L5 12L5 11L3 11L3 9L5 9L5 8L3 8L3 9L1 9L1 10L0 10L0 11L2 11L2 12L0 12L0 13L4 13L4 12L5 12L5 13L7 13L7 12L10 12L10 13L8 13L8 15L9 15L9 16L8 16L8 18L10 18L10 19L9 19L9 20L11 20L11 17L12 17L12 21L13 21L13 19L14 19L14 20L15 20L15 21L17 21L17 20L18 20L18 21L20 21L20 20L21 20L21 18L19 18L19 19L20 19L20 20L18 20L18 18L17 18L17 17L19 17L19 16L20 16L20 17L21 17L21 14L18 14L18 13L20 13L20 12L19 12L19 10L20 10L20 9L19 9L19 8L17 8L17 9L13 9L13 12L12 12L12 13L13 13L13 14L14 14L14 15L13 15L13 17L12 17L12 16L11 16L11 15L9 15L9 14L11 14L11 12L10 12L10 11L9 11L9 10L11 10L11 11L12 11L12 7L13 7L13 6L12 6L12 5L13 5L13 3L12 3L12 2L11 2L11 1L12 1L12 0L11 0L11 1L10 1L10 0ZM8 6L8 7L9 7L9 6ZM11 6L11 7L12 7L12 6ZM16 10L16 11L17 11L17 12L18 12L18 10ZM15 13L15 15L14 15L14 17L13 17L13 18L14 18L14 19L15 19L15 18L14 18L14 17L16 17L16 16L18 16L18 14L17 14L17 13ZM9 16L9 17L11 17L11 16ZM16 19L16 20L17 20L17 19ZM0 0L0 7L7 7L7 0ZM1 1L1 6L6 6L6 1ZM2 2L2 5L5 5L5 2ZM14 0L14 7L21 7L21 0ZM15 1L15 6L20 6L20 1ZM16 2L16 5L19 5L19 2ZM0 14L0 21L7 21L7 14ZM1 15L1 20L6 20L6 15ZM2 16L2 19L5 19L5 16Z" fill="#282828"/></g></g></svg>
