<?xml version="1.0" encoding="UTF-8"?>
<svg xmlns="http://www.w3.org/2000/svg" version="1.1" width="400" height="400" viewBox="0 0 400 400"><rect x="0" y="0" width="400" height="400" fill="#f5f5f5"/><g transform="scale(14.815)"><g transform="translate(3,3)"><path fill-rule="evenodd" d="M10 0L10 1L11 1L11 2L9 2L9 1L8 1L8 7L9 7L9 6L10 6L10 8L5 8L5 9L7 9L7 10L4 10L4 9L3 9L3 8L2 8L2 9L1 9L1 10L0 10L0 13L1 13L1 12L2 12L2 11L3 11L3 10L4 10L4 12L3 12L3 13L4 13L4 12L6 12L6 13L8 13L8 16L9 16L9 13L10 13L10 12L12 12L12 15L11 15L11 14L10 14L10 16L13 16L13 17L12 17L12 18L11 18L11 17L9 17L9 18L8 18L8 19L10 19L10 20L9 20L9 21L12 21L12 20L13 20L13 21L14 21L14 20L13 20L13 19L15 19L15 21L21 21L21 20L20 20L20 19L21 19L21 18L19 18L19 17L21 17L21 16L20 16L20 14L18 14L18 13L17 13L17 12L21 12L21 9L20 9L20 8L15 8L15 12L14 12L14 14L15 14L15 13L17 13L17 15L16 15L16 16L17 16L17 18L16 18L16 17L15 17L15 18L14 18L14 16L13 16L13 10L12 10L12 9L14 9L14 8L13 8L13 2L12 2L12 1L11 1L11 0ZM11 2L11 3L9 3L9 5L10 5L10 6L11 6L11 7L12 7L12 6L11 6L11 5L10 5L10 4L11 4L11 3L12 3L12 2ZM11 8L11 9L12 9L12 8ZM8 9L8 11L6 11L6 12L8 12L8 13L9 13L9 12L10 12L10 11L12 11L12 10L10 10L10 11L9 11L9 9ZM16 9L16 10L18 10L18 9ZM19 9L19 11L20 11L20 9ZM8 11L8 12L9 12L9 11ZM16 11L16 12L17 12L17 11ZM17 15L17 16L19 16L19 15ZM10 18L10 19L11 19L11 18ZM12 18L12 19L13 19L13 18ZM18 18L18 19L19 19L19 18ZM16 19L16 20L17 20L17 19ZM0 0L0 7L7 7L7 0ZM1 1L1 6L6 6L6 1ZM2 2L2 5L5 5L5 2ZM14 0L14 7L21 7L21 0ZM15 1L15 6L20 6L20 1ZM16 2L16 5L19 5L19 2ZM0 14L0 21L7 21L7 14ZM1 15L1 20L6 20L6 15ZM2 16L2 19L5 19L5 16Z" fill="#282828"/></g></g></svg>
