<?xml version="1.0" encoding="UTF-8"?>
<svg xmlns="http://www.w3.org/2000/svg" version="1.1" width="400" height="400" viewBox="0 0 400 400"><rect x="0" y="0" width="400" height="400" fill="#f5f5f5"/><g transform="scale(14.815)"><g transform="translate(3,3)"><path fill-rule="evenodd" d="M8 0L8 3L10 3L10 4L9 4L9 5L8 5L8 9L7 9L7 8L6 8L6 9L7 9L7 10L6 10L6 11L7 11L7 12L6 12L6 13L7 13L7 12L8 12L8 11L7 11L7 10L8 10L8 9L9 9L9 5L10 5L10 7L11 7L11 8L10 8L10 9L12 9L12 10L9 10L9 11L10 11L10 12L9 12L9 13L8 13L8 14L10 14L10 15L11 15L11 16L12 16L12 13L13 13L13 14L16 14L16 15L13 15L13 17L11 17L11 19L10 19L10 18L9 18L9 16L8 16L8 19L9 19L9 21L10 21L10 20L11 20L11 19L12 19L12 18L13 18L13 19L14 19L14 20L13 20L13 21L14 21L14 20L15 20L15 21L16 21L16 20L15 20L15 19L16 19L16 18L14 18L14 17L15 17L15 16L16 16L16 17L17 17L17 18L18 18L18 17L19 17L19 16L20 16L20 15L21 15L21 13L19 13L19 12L21 12L21 10L20 10L20 9L21 9L21 8L18 8L18 9L17 9L17 11L18 11L18 12L17 12L17 14L16 14L16 12L15 12L15 11L16 11L16 10L13 10L13 9L16 9L16 8L12 8L12 7L13 7L13 6L12 6L12 7L11 7L11 4L12 4L12 5L13 5L13 4L12 4L12 2L13 2L13 1L12 1L12 0L11 0L11 2L10 2L10 1L9 1L9 0ZM2 8L2 9L3 9L3 10L5 10L5 8ZM0 9L0 11L2 11L2 12L3 12L3 13L5 13L5 11L4 11L4 12L3 12L3 11L2 11L2 10L1 10L1 9ZM18 9L18 10L19 10L19 9ZM10 12L10 13L12 13L12 12ZM13 12L13 13L15 13L15 12ZM18 13L18 14L17 14L17 17L18 17L18 14L19 14L19 15L20 15L20 14L19 14L19 13ZM17 19L17 20L18 20L18 21L19 21L19 20L20 20L20 19L19 19L19 20L18 20L18 19ZM0 0L0 7L7 7L7 0ZM1 1L1 6L6 6L6 1ZM2 2L2 5L5 5L5 2ZM14 0L14 7L21 7L21 0ZM15 1L15 6L20 6L20 1ZM16 2L16 5L19 5L19 2ZM0 14L0 21L7 21L7 14ZM1 15L1 20L6 20L6 15ZM2 16L2 19L5 19L5 16Z" fill="#282828"/></g></g></svg>
