<?xml version="1.0" encoding="UTF-8"?>
<svg xmlns="http://www.w3.org/2000/svg" version="1.1" width="400" height="400" viewBox="0 0 400 400"><rect x="0" y="0" width="400" height="400" fill="#f5f5f5"/><g transform="scale(14.815)"><g transform="translate(3,3)"><path fill-rule="evenodd" d="M9 1L9 2L8 2L8 4L9 4L9 6L8 6L8 7L9 7L9 8L10 8L10 9L9 9L9 10L8 10L8 8L6 8L6 9L7 9L7 10L6 10L6 11L4 11L4 10L5 10L5 8L3 8L3 9L1 9L1 10L0 10L0 13L3 13L3 11L4 11L4 13L7 13L7 12L6 12L6 11L8 11L8 15L9 15L9 13L10 13L10 16L8 16L8 18L9 18L9 17L10 17L10 19L12 19L12 20L10 20L10 21L13 21L13 20L14 20L14 21L17 21L17 20L18 20L18 21L20 21L20 20L21 20L21 18L19 18L19 19L20 19L20 20L18 20L18 18L17 18L17 17L19 17L19 16L20 16L20 17L21 17L21 13L20 13L20 14L18 14L18 16L16 16L16 17L15 17L15 16L14 16L14 17L15 17L15 18L14 18L14 19L13 19L13 17L12 17L12 18L11 18L11 16L12 16L12 15L14 15L14 14L13 14L13 13L14 13L14 12L13 12L13 11L15 11L15 13L17 13L17 11L18 11L18 13L19 13L19 8L17 8L17 9L15 9L15 10L13 10L13 8L12 8L12 9L11 9L11 8L10 8L10 7L11 7L11 4L12 4L12 7L13 7L13 4L12 4L12 2L13 2L13 1L12 1L12 2L11 2L11 3L10 3L10 1ZM9 3L9 4L10 4L10 3ZM9 6L9 7L10 7L10 6ZM10 9L10 10L11 10L11 9ZM20 9L20 10L21 10L21 9ZM1 10L1 12L2 12L2 11L3 11L3 10ZM16 10L16 11L17 11L17 10ZM10 11L10 12L12 12L12 11ZM11 13L11 15L12 15L12 13ZM14 19L14 20L15 20L15 19ZM16 19L16 20L17 20L17 19ZM0 0L0 7L7 7L7 0ZM1 1L1 6L6 6L6 1ZM2 2L2 5L5 5L5 2ZM14 0L14 7L21 7L21 0ZM15 1L15 6L20 6L20 1ZM16 2L16 5L19 5L19 2ZM0 14L0 21L7 21L7 14ZM1 15L1 20L6 20L6 15ZM2 16L2 19L5 19L5 16Z" fill="#282828"/></g></g></svg>
