<?xml version="1.0" encoding="UTF-8"?>
<svg xmlns="http://www.w3.org/2000/svg" version="1.1" width="400" height="400" viewBox="0 0 400 400"><rect x="0" y="0" width="400" height="400" fill="#f5f5f5"/><g transform="scale(14.815)"><g transform="translate(3,3)"><path fill-rule="evenodd" d="M9 0L9 4L8 4L8 5L10 5L10 7L11 7L11 6L12 6L12 8L11 8L11 9L10 9L10 8L9 8L9 6L8 6L8 8L6 8L6 9L8 9L8 10L11 10L11 9L12 9L12 10L15 10L15 8L13 8L13 6L12 6L12 5L13 5L13 3L12 3L12 2L13 2L13 0L11 0L11 1L10 1L10 0ZM11 1L11 2L12 2L12 1ZM10 3L10 4L12 4L12 3ZM2 8L2 9L0 9L0 11L1 11L1 10L3 10L3 11L2 11L2 12L1 12L1 13L3 13L3 12L4 12L4 13L8 13L8 15L9 15L9 16L10 16L10 20L9 20L9 21L10 21L10 20L11 20L11 21L12 21L12 20L11 20L11 16L12 16L12 15L11 15L11 16L10 16L10 14L13 14L13 13L16 13L16 12L17 12L17 14L19 14L19 15L18 15L18 16L17 16L17 15L16 15L16 14L15 14L15 15L14 15L14 16L15 16L15 18L14 18L14 19L13 19L13 21L14 21L14 20L16 20L16 21L17 21L17 20L16 20L16 18L20 18L20 17L21 17L21 16L20 16L20 15L21 15L21 12L20 12L20 11L21 11L21 9L19 9L19 10L17 10L17 11L15 11L15 12L14 12L14 11L13 11L13 12L12 12L12 11L11 11L11 12L10 12L10 11L9 11L9 12L6 12L6 11L7 11L7 10L6 10L6 11L5 11L5 12L4 12L4 10L3 10L3 9L4 9L4 8ZM16 8L16 9L17 9L17 8ZM19 10L19 11L17 11L17 12L18 12L18 13L19 13L19 14L20 14L20 12L19 12L19 11L20 11L20 10ZM9 12L9 13L10 13L10 12ZM18 16L18 17L20 17L20 16ZM8 17L8 19L9 19L9 17ZM18 19L18 20L19 20L19 21L20 21L20 20L21 20L21 19ZM0 0L0 7L7 7L7 0ZM1 1L1 6L6 6L6 1ZM2 2L2 5L5 5L5 2ZM14 0L14 7L21 7L21 0ZM15 1L15 6L20 6L20 1ZM16 2L16 5L19 5L19 2ZM0 14L0 21L7 21L7 14ZM1 15L1 20L6 20L6 15ZM2 16L2 19L5 19L5 16Z" fill="#282828"/></g></g></svg>
