<?xml version="1.0" encoding="UTF-8"?>
<svg xmlns="http://www.w3.org/2000/svg" version="1.1" width="400" height="400" viewBox="0 0 400 400"><rect x="0" y="0" width="400" height="400" fill="#f5f5f5"/><g transform="scale(14.815)"><g transform="translate(3,3)"><path fill-rule="evenodd" d="M9 0L9 1L8 1L8 7L9 7L9 8L5 8L5 9L3 9L3 8L2 8L2 9L1 9L1 10L0 10L0 11L1 11L1 12L0 12L0 13L1 13L1 12L3 12L3 13L5 13L5 9L7 9L7 10L6 10L6 11L8 11L8 9L9 9L9 8L12 8L12 7L13 7L13 4L12 4L12 3L13 3L13 0L12 0L12 3L11 3L11 2L10 2L10 1L11 1L11 0ZM10 3L10 4L11 4L11 3ZM10 5L10 6L9 6L9 7L10 7L10 6L11 6L11 7L12 7L12 6L11 6L11 5ZM13 8L13 11L12 11L12 14L9 14L9 13L10 13L10 12L11 12L11 10L10 10L10 12L6 12L6 13L8 13L8 16L9 16L9 18L8 18L8 19L9 19L9 18L10 18L10 20L9 20L9 21L10 21L10 20L11 20L11 21L14 21L14 20L13 20L13 18L15 18L15 21L21 21L21 20L20 20L20 19L21 19L21 18L19 18L19 17L21 17L21 16L20 16L20 13L21 13L21 9L20 9L20 8L15 8L15 9L14 9L14 8ZM16 9L16 10L18 10L18 9ZM19 9L19 10L20 10L20 9ZM1 10L1 11L2 11L2 10ZM3 10L3 12L4 12L4 10ZM16 11L16 12L17 12L17 11ZM18 11L18 13L20 13L20 11ZM14 12L14 15L13 15L13 14L12 14L12 15L13 15L13 16L11 16L11 19L12 19L12 18L13 18L13 16L14 16L14 17L16 17L16 18L17 18L17 16L19 16L19 15L17 15L17 13L15 13L15 12ZM14 15L14 16L15 16L15 15ZM16 15L16 16L17 16L17 15ZM18 18L18 19L19 19L19 18ZM16 19L16 20L17 20L17 19ZM0 0L0 7L7 7L7 0ZM1 1L1 6L6 6L6 1ZM2 2L2 5L5 5L5 2ZM14 0L14 7L21 7L21 0ZM15 1L15 6L20 6L20 1ZM16 2L16 5L19 5L19 2ZM0 14L0 21L7 21L7 14ZM1 15L1 20L6 20L6 15ZM2 16L2 19L5 19L5 16Z" fill="#282828"/></g></g></svg>
