<?xml version="1.0" encoding="UTF-8"?>
<svg xmlns="http://www.w3.org/2000/svg" version="1.1" width="400" height="400" viewBox="0 0 400 400"><rect x="0" y="0" width="400" height="400" fill="#f5f5f5"/><g transform="scale(14.815)"><g transform="translate(3,3)"><path fill-rule="evenodd" d="M9 0L9 1L8 1L8 7L9 7L9 5L13 5L13 4L9 4L9 3L12 3L12 2L9 2L9 1L11 1L11 0ZM12 0L12 1L13 1L13 0ZM10 6L10 7L11 7L11 8L10 8L10 10L9 10L9 8L5 8L5 9L3 9L3 8L2 8L2 9L0 9L0 10L1 10L1 11L0 11L0 12L1 12L1 13L2 13L2 12L3 12L3 13L4 13L4 12L5 12L5 11L7 11L7 12L6 12L6 13L7 13L7 12L8 12L8 16L9 16L9 18L8 18L8 19L9 19L9 18L10 18L10 21L11 21L11 19L13 19L13 17L12 17L12 18L10 18L10 15L11 15L11 16L14 16L14 19L15 19L15 20L14 20L14 21L21 21L21 20L20 20L20 19L21 19L21 18L19 18L19 17L21 17L21 16L20 16L20 14L19 14L19 13L20 13L20 10L21 10L21 9L20 9L20 8L15 8L15 9L14 9L14 8L13 8L13 6L12 6L12 7L11 7L11 6ZM12 8L12 9L11 9L11 10L12 10L12 11L11 11L11 12L12 12L12 11L14 11L14 14L12 14L12 15L14 15L14 14L15 14L15 17L16 17L16 18L17 18L17 16L19 16L19 15L17 15L17 14L18 14L18 12L17 12L17 11L16 11L16 12L17 12L17 13L15 13L15 11L14 11L14 9L13 9L13 8ZM6 9L6 10L7 10L7 11L9 11L9 13L10 13L10 11L9 11L9 10L8 10L8 9ZM16 9L16 10L17 10L17 9ZM18 9L18 10L19 10L19 9ZM2 10L2 11L1 11L1 12L2 12L2 11L5 11L5 10ZM9 14L9 15L10 15L10 14ZM16 15L16 16L17 16L17 15ZM18 18L18 19L19 19L19 18ZM16 19L16 20L17 20L17 19ZM12 20L12 21L13 21L13 20ZM0 0L0 7L7 7L7 0ZM1 1L1 6L6 6L6 1ZM2 2L2 5L5 5L5 2ZM14 0L14 7L21 7L21 0ZM15 1L15 6L20 6L20 1ZM16 2L16 5L19 5L19 2ZM0 14L0 21L7 21L7 14ZM1 15L1 20L6 20L6 15ZM2 16L2 19L5 19L5 16Z" fill="#282828"/></g></g></svg>
