<?xml version="1.0" encoding="UTF-8"?>
<svg xmlns="http://www.w3.org/2000/svg" version="1.1" width="400" height="400" viewBox="0 0 400 400"><rect x="0" y="0" width="400" height="400" fill="#f5f5f5"/><g transform="scale(14.815)"><g transform="translate(3,3)"><path fill-rule="evenodd" d="M8 0L8 2L9 2L9 1L10 1L10 0ZM12 1L12 3L11 3L11 2L10 2L10 3L8 3L8 7L9 7L9 9L10 9L10 11L9 11L9 10L6 10L6 9L7 9L7 8L6 8L6 9L4 9L4 8L3 8L3 10L2 10L2 9L0 9L0 12L1 12L1 11L3 11L3 12L4 12L4 13L8 13L8 14L12 14L12 17L13 17L13 18L14 18L14 19L12 19L12 18L9 18L9 17L8 17L8 18L9 18L9 19L12 19L12 20L9 20L9 21L12 21L12 20L14 20L14 21L15 21L15 18L14 18L14 17L17 17L17 18L16 18L16 21L19 21L19 20L20 20L20 19L21 19L21 16L18 16L18 15L19 15L19 14L20 14L20 15L21 15L21 14L20 14L20 12L16 12L16 13L13 13L13 14L12 14L12 13L11 13L11 12L10 12L10 11L12 11L12 9L11 9L11 8L10 8L10 7L11 7L11 6L10 6L10 7L9 7L9 5L10 5L10 3L11 3L11 5L13 5L13 4L12 4L12 3L13 3L13 1ZM12 6L12 8L13 8L13 6ZM15 8L15 9L18 9L18 8ZM19 8L19 9L20 9L20 11L21 11L21 8ZM13 9L13 11L14 11L14 12L15 12L15 10L14 10L14 9ZM4 10L4 12L5 12L5 10ZM17 10L17 11L19 11L19 10ZM6 11L6 12L7 12L7 11ZM8 12L8 13L10 13L10 12ZM13 14L13 16L14 16L14 15L15 15L15 14ZM16 14L16 15L17 15L17 14ZM9 15L9 16L10 16L10 17L11 17L11 15ZM17 16L17 17L18 17L18 16ZM17 18L17 20L18 20L18 19L20 19L20 18ZM0 0L0 7L7 7L7 0ZM1 1L1 6L6 6L6 1ZM2 2L2 5L5 5L5 2ZM14 0L14 7L21 7L21 0ZM15 1L15 6L20 6L20 1ZM16 2L16 5L19 5L19 2ZM0 14L0 21L7 21L7 14ZM1 15L1 20L6 20L6 15ZM2 16L2 19L5 19L5 16Z" fill="#282828"/></g></g></svg>
