<?xml version="1.0" encoding="UTF-8"?>
<svg xmlns="http://www.w3.org/2000/svg" version="1.1" width="400" height="400" viewBox="0 0 400 400"><rect x="0" y="0" width="400" height="400" fill="#f5f5f5"/><g transform="scale(14.815)"><g transform="translate(3,3)"><path fill-rule="evenodd" d="M8 0L8 1L10 1L10 2L8 2L8 3L9 3L9 4L8 4L8 5L12 5L12 7L11 7L11 6L10 6L10 8L9 8L9 6L8 6L8 8L9 8L9 9L7 9L7 8L5 8L5 9L3 9L3 10L2 10L2 9L0 9L0 11L2 11L2 13L4 13L4 11L5 11L5 10L6 10L6 11L8 11L8 10L9 10L9 9L10 9L10 10L12 10L12 12L11 12L11 11L9 11L9 12L11 12L11 15L10 15L10 13L8 13L8 12L6 12L6 13L8 13L8 14L9 14L9 15L8 15L8 16L9 16L9 18L10 18L10 19L11 19L11 18L12 18L12 17L13 17L13 18L14 18L14 19L12 19L12 20L11 20L11 21L16 21L16 19L17 19L17 20L18 20L18 21L19 21L19 20L20 20L20 19L21 19L21 18L19 18L19 20L18 20L18 17L19 17L19 16L21 16L21 10L20 10L20 15L19 15L19 11L18 11L18 10L17 10L17 8L16 8L16 9L15 9L15 8L14 8L14 9L13 9L13 5L12 5L12 4L13 4L13 3L12 3L12 2L13 2L13 0L11 0L11 1L10 1L10 0ZM11 1L11 2L12 2L12 1ZM11 8L11 9L12 9L12 10L13 10L13 9L12 9L12 8ZM18 8L18 9L19 9L19 8ZM20 8L20 9L21 9L21 8ZM6 9L6 10L7 10L7 9ZM14 9L14 10L15 10L15 9ZM3 10L3 11L4 11L4 10ZM16 10L16 12L18 12L18 11L17 11L17 10ZM13 11L13 12L14 12L14 13L13 13L13 15L14 15L14 13L15 13L15 17L16 17L16 18L17 18L17 17L18 17L18 13L15 13L15 12L14 12L14 11ZM0 12L0 13L1 13L1 12ZM16 14L16 15L17 15L17 14ZM9 15L9 16L10 16L10 15ZM16 16L16 17L17 17L17 16ZM14 19L14 20L15 20L15 19ZM0 0L0 7L7 7L7 0ZM1 1L1 6L6 6L6 1ZM2 2L2 5L5 5L5 2ZM14 0L14 7L21 7L21 0ZM15 1L15 6L20 6L20 1ZM16 2L16 5L19 5L19 2ZM0 14L0 21L7 21L7 14ZM1 15L1 20L6 20L6 15ZM2 16L2 19L5 19L5 16Z" fill="#282828"/></g></g></svg>
