<?xml version="1.0" encoding="UTF-8"?>
<svg xmlns="http://www.w3.org/2000/svg" version="1.1" width="400" height="400" viewBox="0 0 400 400"><rect x="0" y="0" width="400" height="400" fill="#f5f5f5"/><g transform="scale(14.815)"><g transform="translate(3,3)"><path fill-rule="evenodd" d="M8 0L8 1L10 1L10 0ZM11 0L11 1L13 1L13 0ZM11 2L11 3L12 3L12 7L13 7L13 3L12 3L12 2ZM8 3L8 4L9 4L9 6L8 6L8 7L9 7L9 8L8 8L8 9L9 9L9 8L10 8L10 10L6 10L6 9L7 9L7 8L4 8L4 9L3 9L3 8L2 8L2 9L3 9L3 10L1 10L1 9L0 9L0 10L1 10L1 11L0 11L0 12L1 12L1 13L3 13L3 12L6 12L6 13L8 13L8 14L9 14L9 15L8 15L8 17L9 17L9 18L8 18L8 19L9 19L9 20L10 20L10 21L11 21L11 20L12 20L12 21L13 21L13 20L12 20L12 19L13 19L13 18L15 18L15 17L16 17L16 16L18 16L18 18L20 18L20 19L21 19L21 18L20 18L20 17L21 17L21 16L20 16L20 17L19 17L19 16L18 16L18 15L19 15L19 14L18 14L18 15L16 15L16 13L20 13L20 14L21 14L21 12L20 12L20 10L21 10L21 8L20 8L20 10L19 10L19 9L18 9L18 8L17 8L17 10L16 10L16 11L17 11L17 10L19 10L19 12L16 12L16 13L15 13L15 11L14 11L14 10L15 10L15 9L14 9L14 8L13 8L13 10L12 10L12 11L14 11L14 12L13 12L13 13L12 13L12 12L11 12L11 9L12 9L12 8L10 8L10 7L11 7L11 5L10 5L10 3ZM9 6L9 7L10 7L10 6ZM4 10L4 11L5 11L5 10ZM1 11L1 12L3 12L3 11ZM6 11L6 12L7 12L7 11ZM8 11L8 13L11 13L11 15L12 15L12 13L11 13L11 12L9 12L9 11ZM14 13L14 14L13 14L13 15L14 15L14 16L12 16L12 17L14 17L14 16L15 16L15 13ZM9 15L9 17L11 17L11 16L10 16L10 15ZM10 18L10 20L11 20L11 19L12 19L12 18ZM16 18L16 19L17 19L17 18ZM14 19L14 20L15 20L15 19ZM18 19L18 21L19 21L19 19ZM16 20L16 21L17 21L17 20ZM20 20L20 21L21 21L21 20ZM0 0L0 7L7 7L7 0ZM1 1L1 6L6 6L6 1ZM2 2L2 5L5 5L5 2ZM14 0L14 7L21 7L21 0ZM15 1L15 6L20 6L20 1ZM16 2L16 5L19 5L19 2ZM0 14L0 21L7 21L7 14ZM1 15L1 20L6 20L6 15ZM2 16L2 19L5 19L5 16Z" fill="#282828"/></g></g></svg>
