<?xml version="1.0" encoding="UTF-8"?>
<svg xmlns="http://www.w3.org/2000/svg" version="1.1" width="400" height="400" viewBox="0 0 400 400"><rect x="0" y="0" width="400" height="400" fill="#f5f5f5"/><g transform="scale(14.815)"><g transform="translate(3,3)"><path fill-rule="evenodd" d="M9 0L9 2L8 2L8 4L9 4L9 6L8 6L8 7L9 7L9 6L10 6L10 7L11 7L11 4L13 4L13 3L10 3L10 0ZM12 1L12 2L13 2L13 1ZM12 5L12 7L13 7L13 5ZM3 8L3 9L2 9L2 10L1 10L1 9L0 9L0 10L1 10L1 11L2 11L2 13L3 13L3 12L4 12L4 13L5 13L5 12L4 12L4 9L5 9L5 11L7 11L7 10L8 10L8 11L9 11L9 9L10 9L10 15L9 15L9 12L8 12L8 15L9 15L9 16L8 16L8 18L9 18L9 17L10 17L10 16L11 16L11 15L12 15L12 14L13 14L13 16L12 16L12 18L10 18L10 19L9 19L9 21L10 21L10 19L12 19L12 18L13 18L13 20L12 20L12 21L14 21L14 20L15 20L15 21L17 21L17 20L18 20L18 21L20 21L20 20L21 20L21 18L19 18L19 19L20 19L20 20L18 20L18 18L17 18L17 17L19 17L19 16L20 16L20 17L21 17L21 14L19 14L19 13L21 13L21 11L20 11L20 9L19 9L19 8L17 8L17 9L15 9L15 12L14 12L14 11L12 11L12 12L14 12L14 13L11 13L11 10L12 10L12 9L13 9L13 10L14 10L14 9L13 9L13 8L11 8L11 9L10 9L10 8L9 8L9 9L8 9L8 8L6 8L6 9L5 9L5 8ZM6 9L6 10L7 10L7 9ZM18 9L18 10L16 10L16 11L18 11L18 12L19 12L19 9ZM0 12L0 13L1 13L1 12ZM6 12L6 13L7 13L7 12ZM14 13L14 15L15 15L15 17L13 17L13 18L15 18L15 17L16 17L16 16L18 16L18 13ZM16 19L16 20L17 20L17 19ZM0 0L0 7L7 7L7 0ZM1 1L1 6L6 6L6 1ZM2 2L2 5L5 5L5 2ZM14 0L14 7L21 7L21 0ZM15 1L15 6L20 6L20 1ZM16 2L16 5L19 5L19 2ZM0 14L0 21L7 21L7 14ZM1 15L1 20L6 20L6 15ZM2 16L2 19L5 19L5 16Z" fill="#282828"/></g></g></svg>
