<?xml version="1.0" encoding="UTF-8"?>
<svg xmlns="http://www.w3.org/2000/svg" version="1.1" width="400" height="400" viewBox="0 0 400 400"><rect x="0" y="0" width="400" height="400" fill="#ffffff"/><g transform="scale(7.843)"><g transform="translate(15,15)"><path fill-rule="evenodd" d="M9 0L9 4L8 4L8 5L10 5L10 3L11 3L11 5L13 5L13 4L12 4L12 2L13 2L13 0L12 0L12 1L11 1L11 2L10 2L10 0ZM8 6L8 8L6 8L6 9L7 9L7 10L6 10L6 11L5 11L5 9L4 9L4 8L2 8L2 9L1 9L1 10L0 10L0 11L2 11L2 10L3 10L3 12L0 12L0 13L7 13L7 12L8 12L8 15L9 15L9 17L8 17L8 19L10 19L10 20L9 20L9 21L10 21L10 20L11 20L11 21L12 21L12 20L11 20L11 19L13 19L13 18L12 18L12 16L13 16L13 15L14 15L14 14L15 14L15 17L14 17L14 20L16 20L16 21L17 21L17 20L16 20L16 18L20 18L20 17L21 17L21 16L20 16L20 15L21 15L21 13L19 13L19 15L18 15L18 16L17 16L17 15L16 15L16 14L15 14L15 13L16 13L16 12L17 12L17 14L18 14L18 12L19 12L19 10L21 10L21 9L17 9L17 8L16 8L16 9L17 9L17 10L18 10L18 11L15 11L15 8L13 8L13 9L12 9L12 7L13 7L13 6L12 6L12 7L11 7L11 6L10 6L10 7L9 7L9 6ZM10 7L10 8L9 8L9 9L11 9L11 10L10 10L10 11L9 11L9 10L7 10L7 11L6 11L6 12L7 12L7 11L9 11L9 12L10 12L10 14L9 14L9 15L10 15L10 16L12 16L12 14L13 14L13 12L12 12L12 9L11 9L11 7ZM13 10L13 11L14 11L14 13L15 13L15 11L14 11L14 10ZM20 11L20 12L21 12L21 11ZM11 12L11 13L12 13L12 12ZM18 16L18 17L20 17L20 16ZM10 17L10 19L11 19L11 17ZM18 19L18 20L19 20L19 21L20 21L20 20L21 20L21 19ZM0 0L0 7L7 7L7 0ZM1 1L1 6L6 6L6 1ZM2 2L2 5L5 5L5 2ZM14 0L14 7L21 7L21 0ZM15 1L15 6L20 6L20 1ZM16 2L16 5L19 5L19 2ZM0 14L0 21L7 21L7 14ZM1 15L1 20L6 20L6 15ZM2 16L2 19L5 19L5 16Z" fill="#004b96"/></g></g></svg>
