<?xml version="1.0" encoding="UTF-8"?>
<svg xmlns="http://www.w3.org/2000/svg" version="1.1" width="400" height="400" viewBox="0 0 400 400"><rect x="0" y="0" width="400" height="400" fill="#f5f5f5"/><g transform="scale(14.815)"><g transform="translate(3,3)"><path fill-rule="evenodd" d="M9 0L9 1L11 1L11 0ZM8 2L8 4L9 4L9 6L8 6L8 7L9 7L9 8L11 8L11 10L12 10L12 9L13 9L13 6L12 6L12 8L11 8L11 6L10 6L10 3L11 3L11 5L13 5L13 3L11 3L11 2ZM9 6L9 7L10 7L10 6ZM3 8L3 9L2 9L2 10L0 10L0 11L1 11L1 12L4 12L4 13L5 13L5 12L4 12L4 11L7 11L7 12L6 12L6 13L8 13L8 15L9 15L9 16L8 16L8 18L9 18L9 17L10 17L10 15L9 15L9 13L10 13L10 12L9 12L9 13L8 13L8 11L10 11L10 10L9 10L9 9L8 9L8 8L6 8L6 9L5 9L5 8ZM17 8L17 9L14 9L14 10L13 10L13 12L12 12L12 13L11 13L11 15L12 15L12 16L11 16L11 17L12 17L12 18L10 18L10 20L9 20L9 21L11 21L11 19L12 19L12 21L13 21L13 19L12 19L12 18L13 18L13 17L12 17L12 16L13 16L13 15L14 15L14 17L15 17L15 19L14 19L14 21L17 21L17 20L18 20L18 21L20 21L20 20L21 20L21 18L19 18L19 19L20 19L20 20L18 20L18 18L17 18L17 17L19 17L19 16L20 16L20 17L21 17L21 14L20 14L20 11L18 11L18 10L21 10L21 9L19 9L19 8ZM3 9L3 11L4 11L4 9ZM6 9L6 10L8 10L8 9ZM16 10L16 11L17 11L17 10ZM14 11L14 13L13 13L13 14L12 14L12 15L13 15L13 14L14 14L14 15L15 15L15 17L16 17L16 16L18 16L18 14L19 14L19 13L18 13L18 12L17 12L17 13L15 13L15 11ZM14 13L14 14L15 14L15 13ZM17 13L17 14L18 14L18 13ZM16 19L16 20L17 20L17 19ZM0 0L0 7L7 7L7 0ZM1 1L1 6L6 6L6 1ZM2 2L2 5L5 5L5 2ZM14 0L14 7L21 7L21 0ZM15 1L15 6L20 6L20 1ZM16 2L16 5L19 5L19 2ZM0 14L0 21L7 21L7 14ZM1 15L1 20L6 20L6 15ZM2 16L2 19L5 19L5 16Z" fill="#282828"/></g></g></svg>
