<?xml version="1.0" encoding="UTF-8"?>
<svg xmlns="http://www.w3.org/2000/svg" version="1.1" width="400" height="400" viewBox="0 0 400 400"><rect x="0" y="0" width="400" height="400" fill="#f5f5f5"/><g transform="scale(14.815)"><g transform="translate(3,3)"><path fill-rule="evenodd" d="M8 0L8 1L9 1L9 0ZM10 0L10 1L11 1L11 0ZM12 0L12 3L13 3L13 0ZM8 2L8 3L10 3L10 4L8 4L8 5L9 5L9 6L8 6L8 8L9 8L9 10L10 10L10 12L11 12L11 13L10 13L10 15L8 15L8 16L10 16L10 18L9 18L9 19L10 19L10 20L9 20L9 21L10 21L10 20L12 20L12 21L16 21L16 19L17 19L17 20L18 20L18 21L19 21L19 20L20 20L20 19L21 19L21 18L19 18L19 20L18 20L18 17L19 17L19 16L21 16L21 12L20 12L20 13L19 13L19 12L18 12L18 11L17 11L17 12L16 12L16 10L19 10L19 11L21 11L21 10L19 10L19 8L18 8L18 9L17 9L17 8L16 8L16 9L15 9L15 8L14 8L14 9L13 9L13 10L10 10L10 8L11 8L11 9L12 9L12 7L13 7L13 6L12 6L12 5L13 5L13 4L11 4L11 2ZM10 4L10 6L9 6L9 7L10 7L10 6L11 6L11 7L12 7L12 6L11 6L11 4ZM5 8L5 9L3 9L3 11L2 11L2 13L7 13L7 12L8 12L8 9L7 9L7 8ZM20 8L20 9L21 9L21 8ZM5 9L5 11L3 11L3 12L5 12L5 11L6 11L6 12L7 12L7 11L6 11L6 10L7 10L7 9ZM13 10L13 11L11 11L11 12L12 12L12 13L13 13L13 11L14 11L14 10ZM0 11L0 12L1 12L1 11ZM17 12L17 13L15 13L15 14L14 14L14 15L15 15L15 17L16 17L16 18L17 18L17 17L18 17L18 12ZM8 13L8 14L9 14L9 13ZM11 14L11 15L10 15L10 16L11 16L11 15L12 15L12 14ZM16 14L16 15L17 15L17 14ZM19 14L19 15L20 15L20 14ZM12 16L12 17L11 17L11 19L13 19L13 20L15 20L15 19L14 19L14 17L13 17L13 16ZM16 16L16 17L17 17L17 16ZM12 17L12 18L13 18L13 17ZM0 0L0 7L7 7L7 0ZM1 1L1 6L6 6L6 1ZM2 2L2 5L5 5L5 2ZM14 0L14 7L21 7L21 0ZM15 1L15 6L20 6L20 1ZM16 2L16 5L19 5L19 2ZM0 14L0 21L7 21L7 14ZM1 15L1 20L6 20L6 15ZM2 16L2 19L5 19L5 16Z" fill="#282828"/></g></g></svg>
