<?xml version="1.0" encoding="UTF-8"?>
<svg xmlns="http://www.w3.org/2000/svg" version="1.1" width="400" height="400" viewBox="0 0 400 400"><rect x="0" y="0" width="400" height="400" fill="#f5f5f5"/><g transform="scale(14.815)"><g transform="translate(3,3)"><path fill-rule="evenodd" d="M8 0L8 1L10 1L10 2L8 2L8 3L9 3L9 4L8 4L8 5L9 5L9 4L11 4L11 5L10 5L10 7L9 7L9 6L8 6L8 8L10 8L10 9L9 9L9 12L8 12L8 14L9 14L9 15L8 15L8 16L9 16L9 17L11 17L11 18L12 18L12 19L10 19L10 18L9 18L9 20L10 20L10 21L14 21L14 19L13 19L13 18L14 18L14 17L15 17L15 21L16 21L16 19L17 19L17 20L18 20L18 21L19 21L19 20L20 20L20 19L21 19L21 18L19 18L19 20L18 20L18 17L19 17L19 16L21 16L21 14L20 14L20 13L19 13L19 12L20 12L20 10L21 10L21 8L20 8L20 10L18 10L18 9L19 9L19 8L18 8L18 9L17 9L17 8L16 8L16 9L15 9L15 8L14 8L14 9L15 9L15 11L14 11L14 10L13 10L13 6L12 6L12 8L10 8L10 7L11 7L11 5L13 5L13 4L11 4L11 3L12 3L12 2L13 2L13 1L12 1L12 0L11 0L11 1L10 1L10 0ZM10 2L10 3L11 3L11 2ZM5 8L5 9L4 9L4 10L6 10L6 11L7 11L7 10L8 10L8 9L7 9L7 8ZM1 9L1 10L0 10L0 11L1 11L1 13L4 13L4 12L5 12L5 11L4 11L4 12L2 12L2 11L3 11L3 10L2 10L2 9ZM6 9L6 10L7 10L7 9ZM11 9L11 10L10 10L10 13L9 13L9 14L10 14L10 13L11 13L11 14L12 14L12 15L11 15L11 17L12 17L12 16L13 16L13 17L14 17L14 16L13 16L13 15L15 15L15 17L16 17L16 18L17 18L17 17L18 17L18 14L17 14L17 13L15 13L15 12L14 12L14 11L13 11L13 12L12 12L12 11L11 11L11 10L12 10L12 9ZM1 10L1 11L2 11L2 10ZM16 10L16 12L19 12L19 11L17 11L17 10ZM6 12L6 13L7 13L7 12ZM11 12L11 13L12 13L12 12ZM14 13L14 14L15 14L15 13ZM16 14L16 15L17 15L17 14ZM19 14L19 15L20 15L20 14ZM16 16L16 17L17 17L17 16ZM12 19L12 20L13 20L13 19ZM0 0L0 7L7 7L7 0ZM1 1L1 6L6 6L6 1ZM2 2L2 5L5 5L5 2ZM14 0L14 7L21 7L21 0ZM15 1L15 6L20 6L20 1ZM16 2L16 5L19 5L19 2ZM0 14L0 21L7 21L7 14ZM1 15L1 20L6 20L6 15ZM2 16L2 19L5 19L5 16Z" fill="#282828"/></g></g></svg>
