<?xml version="1.0" encoding="UTF-8"?>
<svg xmlns="http://www.w3.org/2000/svg" version="1.1" width="400" height="400" viewBox="0 0 400 400"><rect x="0" y="0" width="400" height="400" fill="#f5f5f5"/><g transform="scale(14.815)"><g transform="translate(3,3)"><path fill-rule="evenodd" d="M11 0L11 1L12 1L12 0ZM9 1L9 4L8 4L8 5L9 5L9 6L8 6L8 8L6 8L6 9L7 9L7 10L6 10L6 11L4 11L4 10L5 10L5 9L4 9L4 8L2 8L2 9L3 9L3 11L2 11L2 10L1 10L1 11L0 11L0 12L1 12L1 11L2 11L2 12L3 12L3 13L5 13L5 12L6 12L6 13L8 13L8 15L9 15L9 14L12 14L12 15L11 15L11 16L9 16L9 17L8 17L8 19L9 19L9 20L10 20L10 19L12 19L12 20L13 20L13 21L14 21L14 20L16 20L16 21L17 21L17 20L16 20L16 18L20 18L20 17L21 17L21 16L20 16L20 15L21 15L21 14L19 14L19 13L21 13L21 12L20 12L20 10L19 10L19 9L17 9L17 8L16 8L16 9L17 9L17 10L19 10L19 12L18 12L18 11L15 11L15 13L14 13L14 9L15 9L15 8L13 8L13 6L12 6L12 7L11 7L11 6L10 6L10 5L9 5L9 4L10 4L10 3L11 3L11 5L12 5L12 4L13 4L13 3L11 3L11 2L10 2L10 1ZM9 6L9 10L7 10L7 11L6 11L6 12L8 12L8 11L10 11L10 12L9 12L9 13L12 13L12 14L13 14L13 15L14 15L14 17L13 17L13 16L11 16L11 17L9 17L9 19L10 19L10 18L11 18L11 17L13 17L13 18L12 18L12 19L13 19L13 18L14 18L14 17L15 17L15 15L14 15L14 13L12 13L12 12L11 12L11 11L10 11L10 9L12 9L12 8L10 8L10 6ZM12 10L12 11L13 11L13 10ZM16 12L16 13L15 13L15 14L16 14L16 15L17 15L17 16L18 16L18 17L20 17L20 16L18 16L18 15L19 15L19 14L17 14L17 13L18 13L18 12ZM18 19L18 20L19 20L19 21L20 21L20 20L21 20L21 19ZM0 0L0 7L7 7L7 0ZM1 1L1 6L6 6L6 1ZM2 2L2 5L5 5L5 2ZM14 0L14 7L21 7L21 0ZM15 1L15 6L20 6L20 1ZM16 2L16 5L19 5L19 2ZM0 14L0 21L7 21L7 14ZM1 15L1 20L6 20L6 15ZM2 16L2 19L5 19L5 16Z" fill="#282828"/></g></g></svg>
