<?xml version="1.0" encoding="UTF-8"?>
<svg xmlns="http://www.w3.org/2000/svg" version="1.1" width="400" height="400" viewBox="0 0 400 400"><rect x="0" y="0" width="400" height="400" fill="#f5f5f5"/><g transform="scale(14.815)"><g transform="translate(3,3)"><path fill-rule="evenodd" d="M8 0L8 2L9 2L9 0ZM10 0L10 3L11 3L11 1L12 1L12 0ZM12 2L12 3L13 3L13 2ZM8 3L8 7L9 7L9 3ZM11 4L11 5L12 5L12 8L10 8L10 10L9 10L9 9L7 9L7 8L6 8L6 9L7 9L7 10L5 10L5 9L4 9L4 8L3 8L3 9L1 9L1 10L2 10L2 11L0 11L0 13L1 13L1 12L2 12L2 13L5 13L5 12L6 12L6 13L8 13L8 14L9 14L9 12L10 12L10 10L11 10L11 9L12 9L12 8L13 8L13 4ZM10 6L10 7L11 7L11 6ZM15 8L15 9L13 9L13 10L12 10L12 11L11 11L11 12L12 12L12 11L13 11L13 13L11 13L11 14L10 14L10 15L11 15L11 16L10 16L10 17L8 17L8 18L10 18L10 19L9 19L9 20L10 20L10 21L11 21L11 19L12 19L12 20L13 20L13 21L15 21L15 20L13 20L13 18L12 18L12 17L13 17L13 16L12 16L12 15L14 15L14 16L15 16L15 17L17 17L17 18L16 18L16 21L19 21L19 20L20 20L20 19L21 19L21 16L18 16L18 15L19 15L19 14L18 14L18 13L19 13L19 12L18 12L18 10L19 10L19 11L20 11L20 12L21 12L21 10L20 10L20 9L21 9L21 8L19 8L19 9L18 9L18 8ZM15 9L15 10L14 10L14 12L15 12L15 13L16 13L16 12L17 12L17 9ZM4 10L4 11L5 11L5 10ZM7 10L7 11L6 11L6 12L9 12L9 10ZM13 13L13 14L14 14L14 15L15 15L15 14L14 14L14 13ZM20 13L20 15L21 15L21 13ZM11 14L11 15L12 15L12 14ZM16 14L16 15L17 15L17 14ZM17 16L17 17L18 17L18 16ZM10 17L10 18L11 18L11 17ZM17 18L17 20L18 20L18 19L20 19L20 18ZM0 0L0 7L7 7L7 0ZM1 1L1 6L6 6L6 1ZM2 2L2 5L5 5L5 2ZM14 0L14 7L21 7L21 0ZM15 1L15 6L20 6L20 1ZM16 2L16 5L19 5L19 2ZM0 14L0 21L7 21L7 14ZM1 15L1 20L6 20L6 15ZM2 16L2 19L5 19L5 16Z" fill="#282828"/></g></g></svg>
