<?xml version="1.0" encoding="UTF-8"?>
<svg xmlns="http://www.w3.org/2000/svg" version="1.1" width="400" height="400" viewBox="0 0 400 400"><rect x="0" y="0" width="400" height="400" fill="#f5f5f5"/><g transform="scale(14.815)"><g transform="translate(3,3)"><path fill-rule="evenodd" d="M8 0L8 2L10 2L10 3L11 3L11 4L9 4L9 3L8 3L8 7L9 7L9 8L10 8L10 7L11 7L11 9L8 9L8 10L6 10L6 11L5 11L5 10L4 10L4 12L2 12L2 13L4 13L4 12L6 12L6 13L7 13L7 12L6 12L6 11L8 11L8 12L9 12L9 11L10 11L10 10L11 10L11 11L13 11L13 12L15 12L15 9L18 9L18 10L17 10L17 12L16 12L16 13L12 13L12 12L11 12L11 13L8 13L8 14L10 14L10 15L11 15L11 16L9 16L9 17L8 17L8 18L9 18L9 19L10 19L10 18L11 18L11 21L12 21L12 19L13 19L13 21L14 21L14 20L15 20L15 19L13 19L13 18L14 18L14 16L15 16L15 17L17 17L17 18L16 18L16 21L19 21L19 20L20 20L20 19L21 19L21 16L18 16L18 15L19 15L19 14L17 14L17 13L20 13L20 15L21 15L21 13L20 13L20 12L21 12L21 11L20 11L20 10L21 10L21 8L19 8L19 9L18 9L18 8L15 8L15 9L13 9L13 6L12 6L12 5L13 5L13 3L11 3L11 2L13 2L13 0L12 0L12 1L11 1L11 2L10 2L10 0ZM9 5L9 7L10 7L10 6L11 6L11 7L12 7L12 6L11 6L11 5ZM3 8L3 9L1 9L1 10L2 10L2 11L3 11L3 9L4 9L4 8ZM6 8L6 9L7 9L7 8ZM11 9L11 10L13 10L13 11L14 11L14 10L13 10L13 9ZM19 9L19 10L20 10L20 9ZM8 10L8 11L9 11L9 10ZM0 11L0 12L1 12L1 11ZM18 11L18 12L20 12L20 11ZM11 13L11 14L12 14L12 13ZM14 14L14 15L15 15L15 14ZM16 14L16 15L17 15L17 14ZM11 16L11 17L13 17L13 16ZM17 16L17 17L18 17L18 16ZM9 17L9 18L10 18L10 17ZM17 18L17 20L18 20L18 19L20 19L20 18ZM9 20L9 21L10 21L10 20ZM0 0L0 7L7 7L7 0ZM1 1L1 6L6 6L6 1ZM2 2L2 5L5 5L5 2ZM14 0L14 7L21 7L21 0ZM15 1L15 6L20 6L20 1ZM16 2L16 5L19 5L19 2ZM0 14L0 21L7 21L7 14ZM1 15L1 20L6 20L6 15ZM2 16L2 19L5 19L5 16Z" fill="#282828"/></g></g></svg>
