<?xml version="1.0" encoding="UTF-8"?>
<svg xmlns="http://www.w3.org/2000/svg" version="1.1" width="400" height="400" viewBox="0 0 400 400"><rect x="0" y="0" width="400" height="400" fill="#f5f5f5"/><g transform="scale(14.815)"><g transform="translate(3,3)"><path fill-rule="evenodd" d="M10 0L10 1L11 1L11 2L9 2L9 1L8 1L8 7L9 7L9 6L10 6L10 7L11 7L11 6L12 6L12 7L13 7L13 3L12 3L12 4L11 4L11 2L13 2L13 0ZM9 4L9 5L10 5L10 6L11 6L11 4ZM2 8L2 9L1 9L1 10L0 10L0 11L4 11L4 13L7 13L7 12L5 12L5 10L4 10L4 9L3 9L3 8ZM5 8L5 9L8 9L8 10L6 10L6 11L8 11L8 12L9 12L9 13L8 13L8 16L9 16L9 15L10 15L10 14L11 14L11 13L12 13L12 15L14 15L14 16L15 16L15 15L14 15L14 13L13 13L13 12L10 12L10 11L12 11L12 8L11 8L11 10L10 10L10 11L9 11L9 9L10 9L10 8ZM13 8L13 10L14 10L14 11L15 11L15 13L18 13L18 14L17 14L17 15L16 15L16 16L17 16L17 18L16 18L16 17L13 17L13 18L14 18L14 20L13 20L13 19L12 19L12 21L21 21L21 20L20 20L20 19L21 19L21 18L19 18L19 17L21 17L21 16L20 16L20 14L21 14L21 13L20 13L20 14L19 14L19 13L18 13L18 12L20 12L20 10L16 10L16 9L20 9L20 8L15 8L15 10L14 10L14 8ZM16 11L16 12L17 12L17 11ZM2 12L2 13L3 13L3 12ZM9 13L9 14L10 14L10 13ZM17 15L17 16L19 16L19 15ZM10 16L10 17L9 17L9 18L8 18L8 19L9 19L9 20L10 20L10 21L11 21L11 16ZM18 18L18 19L19 19L19 18ZM16 19L16 20L17 20L17 19ZM0 0L0 7L7 7L7 0ZM1 1L1 6L6 6L6 1ZM2 2L2 5L5 5L5 2ZM14 0L14 7L21 7L21 0ZM15 1L15 6L20 6L20 1ZM16 2L16 5L19 5L19 2ZM0 14L0 21L7 21L7 14ZM1 15L1 20L6 20L6 15ZM2 16L2 19L5 19L5 16Z" fill="#282828"/></g></g></svg>
