<?xml version="1.0" encoding="UTF-8"?>
<svg xmlns="http://www.w3.org/2000/svg" version="1.1" width="400" height="400" viewBox="0 0 400 400"><rect x="0" y="0" width="400" height="400" fill="#f5f5f5"/><g transform="scale(14.815)"><g transform="translate(3,3)"><path fill-rule="evenodd" d="M8 0L8 1L10 1L10 2L9 2L9 3L8 3L8 4L9 4L9 6L8 6L8 7L9 7L9 8L8 8L8 9L9 9L9 10L10 10L10 11L9 11L9 12L8 12L8 10L4 10L4 9L7 9L7 8L4 8L4 9L3 9L3 8L2 8L2 9L0 9L0 10L2 10L2 11L0 11L0 13L4 13L4 12L5 12L5 13L8 13L8 14L9 14L9 12L10 12L10 14L12 14L12 15L15 15L15 17L16 17L16 16L18 16L18 18L20 18L20 19L21 19L21 18L20 18L20 17L21 17L21 16L20 16L20 17L19 17L19 16L18 16L18 15L19 15L19 13L17 13L17 12L20 12L20 14L21 14L21 11L20 11L20 10L21 10L21 8L20 8L20 9L19 9L19 10L18 10L18 8L17 8L17 10L16 10L16 11L17 11L17 12L16 12L16 13L15 13L15 12L14 12L14 11L15 11L15 10L14 10L14 8L13 8L13 6L12 6L12 7L11 7L11 6L10 6L10 5L12 5L12 1L13 1L13 0L11 0L11 1L10 1L10 0ZM9 3L9 4L11 4L11 3ZM9 6L9 7L10 7L10 8L11 8L11 7L10 7L10 6ZM12 8L12 9L10 9L10 10L13 10L13 8ZM17 10L17 11L18 11L18 10ZM2 11L2 12L3 12L3 11ZM5 11L5 12L7 12L7 11ZM10 11L10 12L12 12L12 11ZM13 12L13 14L15 14L15 13L14 13L14 12ZM16 13L16 15L18 15L18 14L17 14L17 13ZM8 15L8 17L9 17L9 18L8 18L8 19L10 19L10 20L9 20L9 21L11 21L11 19L10 19L10 18L12 18L12 17L9 17L9 16L10 16L10 15ZM13 17L13 19L12 19L12 21L13 21L13 19L14 19L14 17ZM16 18L16 19L17 19L17 18ZM18 19L18 21L19 21L19 19ZM16 20L16 21L17 21L17 20ZM20 20L20 21L21 21L21 20ZM0 0L0 7L7 7L7 0ZM1 1L1 6L6 6L6 1ZM2 2L2 5L5 5L5 2ZM14 0L14 7L21 7L21 0ZM15 1L15 6L20 6L20 1ZM16 2L16 5L19 5L19 2ZM0 14L0 21L7 21L7 14ZM1 15L1 20L6 20L6 15ZM2 16L2 19L5 19L5 16Z" fill="#282828"/></g></g></svg>
