<?xml version="1.0" encoding="UTF-8"?>
<svg xmlns="http://www.w3.org/2000/svg" version="1.1" width="400" height="400" viewBox="0 0 400 400"><rect x="0" y="0" width="400" height="400" fill="#f5f5f5"/><g transform="scale(14.815)"><g transform="translate(3,3)"><path fill-rule="evenodd" d="M9 0L9 1L8 1L8 2L9 2L9 3L10 3L10 9L8 9L8 8L9 8L9 5L8 5L8 8L4 8L4 10L3 10L3 9L2 9L2 10L1 10L1 11L0 11L0 13L3 13L3 12L5 12L5 13L7 13L7 12L6 12L6 11L9 11L9 12L8 12L8 17L10 17L10 18L9 18L9 19L10 19L10 20L11 20L11 21L12 21L12 20L14 20L14 21L15 21L15 20L14 20L14 19L10 19L10 18L11 18L11 17L12 17L12 18L13 18L13 16L14 16L14 15L12 15L12 14L11 14L11 15L12 15L12 16L11 16L11 17L10 17L10 16L9 16L9 15L10 15L10 13L15 13L15 12L13 12L13 11L12 11L12 9L11 9L11 8L13 8L13 3L12 3L12 4L11 4L11 2L12 2L12 1L13 1L13 0L12 0L12 1L11 1L11 2L10 2L10 0ZM11 5L11 7L12 7L12 5ZM14 8L14 9L13 9L13 10L14 10L14 11L16 11L16 12L18 12L18 13L17 13L17 16L16 16L16 15L15 15L15 19L16 19L16 20L17 20L17 19L18 19L18 21L21 21L21 20L20 20L20 19L19 19L19 18L21 18L21 16L20 16L20 15L21 15L21 14L20 14L20 15L19 15L19 16L18 16L18 13L20 13L20 12L19 12L19 11L20 11L20 10L18 10L18 9L17 9L17 10L16 10L16 8ZM19 8L19 9L20 9L20 8ZM5 9L5 11L6 11L6 10L8 10L8 9ZM2 10L2 11L1 11L1 12L2 12L2 11L3 11L3 10ZM9 10L9 11L10 11L10 12L12 12L12 11L11 11L11 10ZM17 16L17 17L16 17L16 18L17 18L17 17L18 17L18 18L19 18L19 17L18 17L18 16ZM0 0L0 7L7 7L7 0ZM1 1L1 6L6 6L6 1ZM2 2L2 5L5 5L5 2ZM14 0L14 7L21 7L21 0ZM15 1L15 6L20 6L20 1ZM16 2L16 5L19 5L19 2ZM0 14L0 21L7 21L7 14ZM1 15L1 20L6 20L6 15ZM2 16L2 19L5 19L5 16Z" fill="#282828"/></g></g></svg>
