<?xml version="1.0" encoding="UTF-8"?>
<svg xmlns="http://www.w3.org/2000/svg" version="1.1" width="400" height="400" viewBox="0 0 400 400"><rect x="0" y="0" width="400" height="400" fill="#f5f5f5"/><g transform="scale(14.815)"><g transform="translate(3,3)"><path fill-rule="evenodd" d="M8 0L8 3L10 3L10 4L12 4L12 5L10 5L10 7L9 7L9 5L8 5L8 10L10 10L10 12L11 12L11 11L12 11L12 10L10 10L10 9L9 9L9 8L11 8L11 6L12 6L12 9L13 9L13 11L14 11L14 12L13 12L13 13L12 13L12 14L11 14L11 15L10 15L10 13L9 13L9 12L4 12L4 11L3 11L3 10L4 10L4 9L5 9L5 10L6 10L6 11L7 11L7 10L6 10L6 9L7 9L7 8L6 8L6 9L5 9L5 8L2 8L2 9L0 9L0 10L1 10L1 11L0 11L0 12L1 12L1 13L2 13L2 12L1 12L1 11L3 11L3 13L8 13L8 14L9 14L9 16L8 16L8 19L9 19L9 20L10 20L10 17L12 17L12 18L11 18L11 19L12 19L12 21L16 21L16 20L15 20L15 19L16 19L16 18L15 18L15 17L13 17L13 16L11 16L11 15L15 15L15 16L16 16L16 17L17 17L17 18L18 18L18 17L19 17L19 16L20 16L20 15L21 15L21 12L20 12L20 9L21 9L21 8L18 8L18 9L17 9L17 11L18 11L18 12L17 12L17 14L16 14L16 12L15 12L15 11L16 11L16 10L15 10L15 9L16 9L16 8L13 8L13 4L12 4L12 3L11 3L11 2L9 2L9 0ZM10 0L10 1L13 1L13 0ZM18 10L18 11L19 11L19 10ZM14 12L14 13L13 13L13 14L15 14L15 15L16 15L16 14L15 14L15 12ZM18 13L18 14L17 14L17 17L18 17L18 14L19 14L19 15L20 15L20 13ZM13 18L13 19L14 19L14 18ZM17 19L17 20L18 20L18 21L19 21L19 20L20 20L20 19L19 19L19 20L18 20L18 19ZM0 0L0 7L7 7L7 0ZM1 1L1 6L6 6L6 1ZM2 2L2 5L5 5L5 2ZM14 0L14 7L21 7L21 0ZM15 1L15 6L20 6L20 1ZM16 2L16 5L19 5L19 2ZM0 14L0 21L7 21L7 14ZM1 15L1 20L6 20L6 15ZM2 16L2 19L5 19L5 16Z" fill="#282828"/></g></g></svg>
