<?xml version="1.0" encoding="UTF-8"?>
<svg xmlns="http://www.w3.org/2000/svg" version="1.1" width="400" height="400" viewBox="0 0 400 400"><rect x="0" y="0" width="400" height="400" fill="#f5f5f5"/><g transform="scale(14.815)"><g transform="translate(3,3)"><path fill-rule="evenodd" d="M8 0L8 2L9 2L9 3L8 3L8 7L9 7L9 9L7 9L7 8L6 8L6 9L7 9L7 10L5 10L5 9L4 9L4 8L3 8L3 9L1 9L1 13L4 13L4 11L7 11L7 12L5 12L5 13L7 13L7 12L8 12L8 11L9 11L9 12L10 12L10 11L11 11L11 14L12 14L12 16L11 16L11 17L8 17L8 18L9 18L9 20L11 20L11 21L12 21L12 18L11 18L11 17L13 17L13 20L14 20L14 21L15 21L15 18L14 18L14 15L15 15L15 17L17 17L17 18L16 18L16 21L19 21L19 20L20 20L20 19L21 19L21 16L18 16L18 15L19 15L19 14L20 14L20 15L21 15L21 14L20 14L20 13L21 13L21 12L19 12L19 10L20 10L20 9L21 9L21 8L19 8L19 10L18 10L18 8L15 8L15 9L17 9L17 10L18 10L18 12L16 12L16 13L15 13L15 12L14 12L14 11L15 11L15 10L13 10L13 9L11 9L11 5L12 5L12 8L13 8L13 4L12 4L12 3L13 3L13 2L12 2L12 1L13 1L13 0L11 0L11 2L12 2L12 3L10 3L10 0ZM9 5L9 7L10 7L10 5ZM9 9L9 10L10 10L10 9ZM2 10L2 12L3 12L3 11L4 11L4 10ZM13 12L13 15L14 15L14 12ZM8 13L8 14L10 14L10 13ZM17 13L17 14L16 14L16 15L17 15L17 14L19 14L19 13ZM17 16L17 17L18 17L18 16ZM10 18L10 19L11 19L11 18ZM17 18L17 20L18 20L18 19L20 19L20 18ZM0 0L0 7L7 7L7 0ZM1 1L1 6L6 6L6 1ZM2 2L2 5L5 5L5 2ZM14 0L14 7L21 7L21 0ZM15 1L15 6L20 6L20 1ZM16 2L16 5L19 5L19 2ZM0 14L0 21L7 21L7 14ZM1 15L1 20L6 20L6 15ZM2 16L2 19L5 19L5 16Z" fill="#282828"/></g></g></svg>
