<?xml version="1.0" encoding="UTF-8"?>
<svg xmlns="http://www.w3.org/2000/svg" version="1.1" width="400" height="400" viewBox="0 0 400 400"><rect x="0" y="0" width="400" height="400" fill="#f5f5f5"/><g transform="scale(14.815)"><g transform="translate(3,3)"><path fill-rule="evenodd" d="M8 0L8 3L9 3L9 5L8 5L8 9L7 9L7 8L6 8L6 9L5 9L5 8L2 8L2 9L3 9L3 11L4 11L4 12L1 12L1 11L2 11L2 10L0 10L0 12L1 12L1 13L7 13L7 12L5 12L5 11L4 11L4 10L6 10L6 11L8 11L8 12L9 12L9 13L8 13L8 14L9 14L9 16L8 16L8 19L9 19L9 18L10 18L10 20L11 20L11 19L12 19L12 20L13 20L13 21L16 21L16 20L14 20L14 19L13 19L13 18L14 18L14 17L15 17L15 16L16 16L16 17L17 17L17 18L18 18L18 17L19 17L19 16L20 16L20 15L21 15L21 14L20 14L20 15L19 15L19 13L21 13L21 10L20 10L20 9L21 9L21 8L18 8L18 10L17 10L17 12L18 12L18 10L20 10L20 12L19 12L19 13L18 13L18 17L17 17L17 14L16 14L16 12L15 12L15 14L13 14L13 11L12 11L12 8L13 8L13 9L14 9L14 11L16 11L16 10L15 10L15 9L16 9L16 8L13 8L13 6L12 6L12 5L11 5L11 4L13 4L13 2L10 2L10 3L9 3L9 0ZM10 0L10 1L12 1L12 0ZM10 3L10 4L11 4L11 3ZM10 5L10 6L9 6L9 10L8 10L8 11L9 11L9 10L11 10L11 9L10 9L10 8L12 8L12 6L11 6L11 5ZM10 6L10 7L11 7L11 6ZM6 9L6 10L7 10L7 9ZM9 13L9 14L11 14L11 16L10 16L10 18L13 18L13 17L14 17L14 15L13 15L13 14L11 14L11 13ZM15 14L15 15L16 15L16 14ZM12 15L12 16L11 16L11 17L12 17L12 16L13 16L13 15ZM15 18L15 19L16 19L16 18ZM17 19L17 20L18 20L18 21L19 21L19 20L20 20L20 19L19 19L19 20L18 20L18 19ZM0 0L0 7L7 7L7 0ZM1 1L1 6L6 6L6 1ZM2 2L2 5L5 5L5 2ZM14 0L14 7L21 7L21 0ZM15 1L15 6L20 6L20 1ZM16 2L16 5L19 5L19 2ZM0 14L0 21L7 21L7 14ZM1 15L1 20L6 20L6 15ZM2 16L2 19L5 19L5 16Z" fill="#282828"/></g></g></svg>
