<?xml version="1.0" encoding="UTF-8"?>
<svg xmlns="http://www.w3.org/2000/svg" version="1.1" width="400" height="400" viewBox="0 0 400 400"><rect x="0" y="0" width="400" height="400" fill="#f5f5f5"/><g transform="scale(14.815)"><g transform="translate(3,3)"><path fill-rule="evenodd" d="M8 0L8 1L9 1L9 0ZM10 0L10 1L12 1L12 2L8 2L8 3L9 3L9 4L8 4L8 5L9 5L9 4L11 4L11 3L13 3L13 1L12 1L12 0ZM12 4L12 5L11 5L11 6L10 6L10 7L9 7L9 6L8 6L8 8L10 8L10 7L11 7L11 8L12 8L12 7L13 7L13 6L12 6L12 5L13 5L13 4ZM11 6L11 7L12 7L12 6ZM5 8L5 9L3 9L3 10L2 10L2 9L0 9L0 10L1 10L1 11L0 11L0 13L5 13L5 12L6 12L6 13L7 13L7 12L6 12L6 11L8 11L8 14L11 14L11 15L10 15L10 16L11 16L11 17L9 17L9 19L11 19L11 20L10 20L10 21L11 21L11 20L12 20L12 21L13 21L13 20L14 20L14 21L16 21L16 19L17 19L17 20L18 20L18 21L19 21L19 20L20 20L20 19L21 19L21 18L19 18L19 20L18 20L18 17L19 17L19 16L21 16L21 12L20 12L20 11L21 11L21 8L20 8L20 11L19 11L19 12L20 12L20 13L17 13L17 12L16 12L16 10L19 10L19 8L18 8L18 9L17 9L17 8L16 8L16 9L15 9L15 8L14 8L14 9L13 9L13 10L12 10L12 11L10 11L10 12L9 12L9 11L8 11L8 10L6 10L6 9L7 9L7 8ZM10 9L10 10L11 10L11 9ZM14 9L14 10L15 10L15 9ZM3 10L3 12L4 12L4 10ZM12 11L12 12L13 12L13 13L12 13L12 14L15 14L15 15L14 15L14 16L15 16L15 17L13 17L13 15L12 15L12 17L11 17L11 19L12 19L12 20L13 20L13 19L14 19L14 18L15 18L15 17L16 17L16 18L17 18L17 17L18 17L18 14L17 14L17 13L15 13L15 11L14 11L14 12L13 12L13 11ZM16 14L16 15L17 15L17 14ZM19 14L19 15L20 15L20 14ZM8 15L8 16L9 16L9 15ZM16 16L16 17L17 17L17 16ZM12 17L12 18L13 18L13 17ZM0 0L0 7L7 7L7 0ZM1 1L1 6L6 6L6 1ZM2 2L2 5L5 5L5 2ZM14 0L14 7L21 7L21 0ZM15 1L15 6L20 6L20 1ZM16 2L16 5L19 5L19 2ZM0 14L0 21L7 21L7 14ZM1 15L1 20L6 20L6 15ZM2 16L2 19L5 19L5 16Z" fill="#282828"/></g></g></svg>
