<?xml version="1.0" encoding="UTF-8"?>
<svg xmlns="http://www.w3.org/2000/svg" version="1.1" width="400" height="400" viewBox="0 0 400 400"><rect x="0" y="0" width="400" height="400" fill="#f5f5f5"/><g transform="scale(14.815)"><g transform="translate(3,3)"><path fill-rule="evenodd" d="M8 0L8 1L9 1L9 2L8 2L8 3L9 3L9 4L8 4L8 5L9 5L9 4L10 4L10 7L9 7L9 6L8 6L8 8L10 8L10 7L11 7L11 9L10 9L10 10L9 10L9 11L8 11L8 12L12 12L12 13L11 13L11 16L10 16L10 15L8 15L8 16L10 16L10 18L9 18L9 20L10 20L10 21L13 21L13 20L14 20L14 19L15 19L15 21L16 21L16 19L17 19L17 20L18 20L18 21L19 21L19 20L20 20L20 19L21 19L21 18L19 18L19 20L18 20L18 17L19 17L19 16L21 16L21 13L20 13L20 15L19 15L19 14L18 14L18 17L17 17L17 16L16 16L16 17L15 17L15 18L13 18L13 17L12 17L12 15L13 15L13 14L15 14L15 13L17 13L17 12L16 12L16 10L17 10L17 11L18 11L18 13L19 13L19 8L18 8L18 9L17 9L17 8L16 8L16 9L15 9L15 8L14 8L14 9L13 9L13 8L12 8L12 7L13 7L13 6L12 6L12 5L11 5L11 4L10 4L10 1L11 1L11 3L12 3L12 4L13 4L13 3L12 3L12 1L13 1L13 0L12 0L12 1L11 1L11 0ZM11 6L11 7L12 7L12 6ZM5 8L5 9L2 9L2 10L0 10L0 12L1 12L1 13L2 13L2 12L4 12L4 13L5 13L5 12L4 12L4 11L5 11L5 10L6 10L6 11L7 11L7 10L6 10L6 9L7 9L7 8ZM20 8L20 9L21 9L21 8ZM11 9L11 11L12 11L12 12L13 12L13 10L12 10L12 9ZM14 9L14 10L15 10L15 9ZM2 10L2 11L1 11L1 12L2 12L2 11L4 11L4 10ZM14 11L14 12L15 12L15 11ZM20 11L20 12L21 12L21 11ZM6 12L6 13L7 13L7 12ZM8 13L8 14L9 14L9 13ZM16 14L16 15L17 15L17 14ZM16 17L16 18L17 18L17 17ZM10 18L10 20L12 20L12 18ZM0 0L0 7L7 7L7 0ZM1 1L1 6L6 6L6 1ZM2 2L2 5L5 5L5 2ZM14 0L14 7L21 7L21 0ZM15 1L15 6L20 6L20 1ZM16 2L16 5L19 5L19 2ZM0 14L0 21L7 21L7 14ZM1 15L1 20L6 20L6 15ZM2 16L2 19L5 19L5 16Z" fill="#282828"/></g></g></svg>
