<?xml version="1.0" encoding="UTF-8"?>
<svg xmlns="http://www.w3.org/2000/svg" version="1.1" width="400" height="400" viewBox="0 0 400 400"><rect x="0" y="0" width="400" height="400" fill="#f5f5f5"/><g transform="scale(14.815)"><g transform="translate(3,3)"><path fill-rule="evenodd" d="M8 0L8 1L9 1L9 2L8 2L8 3L9 3L9 4L8 4L8 5L9 5L9 6L8 6L8 8L9 8L9 9L10 9L10 7L11 7L11 9L12 9L12 10L13 10L13 8L12 8L12 7L13 7L13 3L12 3L12 2L13 2L13 0L11 0L11 2L10 2L10 1L9 1L9 0ZM10 3L10 6L9 6L9 7L10 7L10 6L11 6L11 7L12 7L12 5L11 5L11 3ZM5 8L5 10L4 10L4 9L3 9L3 10L2 10L2 9L0 9L0 10L2 10L2 11L3 11L3 12L4 12L4 11L5 11L5 10L6 10L6 11L7 11L7 12L6 12L6 13L7 13L7 12L8 12L8 14L10 14L10 15L8 15L8 16L11 16L11 17L9 17L9 21L12 21L12 20L11 20L11 19L13 19L13 20L15 20L15 21L16 21L16 19L17 19L17 20L18 20L18 21L19 21L19 20L20 20L20 19L21 19L21 18L19 18L19 20L18 20L18 17L19 17L19 16L21 16L21 14L20 14L20 15L19 15L19 14L18 14L18 17L17 17L17 16L16 16L16 17L14 17L14 19L13 19L13 17L12 17L12 15L13 15L13 14L15 14L15 13L20 13L20 12L21 12L21 11L19 11L19 12L16 12L16 10L17 10L17 8L16 8L16 9L15 9L15 8L14 8L14 9L15 9L15 11L14 11L14 12L15 12L15 13L13 13L13 12L12 12L12 11L11 11L11 10L8 10L8 11L7 11L7 10L6 10L6 9L7 9L7 8ZM18 8L18 10L19 10L19 8ZM20 8L20 10L21 10L21 8ZM3 10L3 11L4 11L4 10ZM0 11L0 13L2 13L2 12L1 12L1 11ZM8 11L8 12L9 12L9 13L11 13L11 15L12 15L12 14L13 14L13 13L12 13L12 12L10 12L10 11ZM16 14L16 15L17 15L17 14ZM14 15L14 16L15 16L15 15ZM16 17L16 18L17 18L17 17ZM0 0L0 7L7 7L7 0ZM1 1L1 6L6 6L6 1ZM2 2L2 5L5 5L5 2ZM14 0L14 7L21 7L21 0ZM15 1L15 6L20 6L20 1ZM16 2L16 5L19 5L19 2ZM0 14L0 21L7 21L7 14ZM1 15L1 20L6 20L6 15ZM2 16L2 19L5 19L5 16Z" fill="#282828"/></g></g></svg>
