<?xml version="1.0" encoding="UTF-8"?>
<svg xmlns="http://www.w3.org/2000/svg" version="1.1" width="400" height="400" viewBox="0 0 400 400"><rect x="0" y="0" width="400" height="400" fill="#f5f5f5"/><g transform="scale(14.815)"><g transform="translate(3,3)"><path fill-rule="evenodd" d="M8 0L8 1L9 1L9 0ZM10 0L10 1L11 1L11 0ZM12 0L12 3L13 3L13 0ZM9 2L9 3L8 3L8 4L9 4L9 3L10 3L10 5L9 5L9 6L8 6L8 7L9 7L9 6L10 6L10 7L11 7L11 8L13 8L13 11L15 11L15 10L14 10L14 8L13 8L13 6L12 6L12 4L11 4L11 3L10 3L10 2ZM11 6L11 7L12 7L12 6ZM2 8L2 9L0 9L0 13L1 13L1 12L3 12L3 13L5 13L5 11L4 11L4 10L5 10L5 9L7 9L7 8L4 8L4 10L3 10L3 8ZM8 8L8 10L6 10L6 11L8 11L8 12L6 12L6 13L8 13L8 14L11 14L11 15L12 15L12 17L11 17L11 16L10 16L10 17L9 17L9 15L8 15L8 17L9 17L9 18L8 18L8 19L9 19L9 21L10 21L10 20L11 20L11 19L10 19L10 17L11 17L11 18L12 18L12 17L13 17L13 19L12 19L12 20L13 20L13 21L15 21L15 20L14 20L14 17L13 17L13 15L15 15L15 17L16 17L16 16L18 16L18 18L20 18L20 19L21 19L21 18L20 18L20 17L21 17L21 16L20 16L20 17L19 17L19 16L18 16L18 15L19 15L19 14L18 14L18 15L16 15L16 13L17 13L17 12L16 12L16 13L15 13L15 12L14 12L14 13L13 13L13 12L12 12L12 10L11 10L11 9L9 9L9 8ZM17 8L17 10L16 10L16 11L17 11L17 10L18 10L18 11L19 11L19 13L20 13L20 9L21 9L21 8L20 8L20 9L19 9L19 10L18 10L18 8ZM2 10L2 11L3 11L3 12L4 12L4 11L3 11L3 10ZM8 10L8 11L10 11L10 10ZM8 12L8 13L9 13L9 12ZM10 12L10 13L11 13L11 14L12 14L12 15L13 15L13 14L12 14L12 13L11 13L11 12ZM14 13L14 14L15 14L15 13ZM16 18L16 19L17 19L17 18ZM18 19L18 21L19 21L19 19ZM16 20L16 21L17 21L17 20ZM20 20L20 21L21 21L21 20ZM0 0L0 7L7 7L7 0ZM1 1L1 6L6 6L6 1ZM2 2L2 5L5 5L5 2ZM14 0L14 7L21 7L21 0ZM15 1L15 6L20 6L20 1ZM16 2L16 5L19 5L19 2ZM0 14L0 21L7 21L7 14ZM1 15L1 20L6 20L6 15ZM2 16L2 19L5 19L5 16Z" fill="#282828"/></g></g></svg>
