<?xml version="1.0" encoding="UTF-8"?>
<svg xmlns="http://www.w3.org/2000/svg" version="1.1" width="400" height="400" viewBox="0 0 400 400"><rect x="0" y="0" width="400" height="400" fill="#f5f5f5"/><g transform="scale(14.815)"><g transform="translate(3,3)"><path fill-rule="evenodd" d="M8 0L8 1L9 1L9 2L8 2L8 3L9 3L9 4L8 4L8 5L9 5L9 6L8 6L8 8L9 8L9 13L8 13L8 14L10 14L10 15L8 15L8 16L9 16L9 21L12 21L12 20L11 20L11 19L13 19L13 18L11 18L11 19L10 19L10 16L12 16L12 13L11 13L11 12L13 12L13 14L14 14L14 12L13 12L13 11L12 11L12 10L11 10L11 9L13 9L13 8L11 8L11 9L10 9L10 8L9 8L9 6L10 6L10 7L11 7L11 6L12 6L12 7L13 7L13 6L12 6L12 2L13 2L13 0L10 0L10 1L9 1L9 0ZM10 2L10 3L11 3L11 2ZM9 4L9 5L10 5L10 4ZM5 8L5 9L7 9L7 10L6 10L6 11L5 11L5 10L3 10L3 9L2 9L2 10L1 10L1 11L0 11L0 12L1 12L1 11L3 11L3 12L2 12L2 13L3 13L3 12L4 12L4 11L5 11L5 13L7 13L7 12L6 12L6 11L8 11L8 9L7 9L7 8ZM14 8L14 9L15 9L15 10L14 10L14 11L15 11L15 13L17 13L17 14L16 14L16 15L17 15L17 14L18 14L18 17L17 17L17 16L16 16L16 17L15 17L15 16L14 16L14 15L13 15L13 17L14 17L14 18L15 18L15 21L16 21L16 19L17 19L17 20L18 20L18 21L19 21L19 20L20 20L20 19L21 19L21 18L19 18L19 20L18 20L18 17L19 17L19 16L21 16L21 14L20 14L20 13L21 13L21 10L18 10L18 9L19 9L19 8L18 8L18 9L17 9L17 8L16 8L16 9L15 9L15 8ZM20 8L20 9L21 9L21 8ZM16 10L16 12L17 12L17 10ZM10 11L10 12L11 12L11 11ZM19 11L19 13L18 13L18 14L19 14L19 15L20 15L20 14L19 14L19 13L20 13L20 11ZM16 17L16 18L17 18L17 17ZM0 0L0 7L7 7L7 0ZM1 1L1 6L6 6L6 1ZM2 2L2 5L5 5L5 2ZM14 0L14 7L21 7L21 0ZM15 1L15 6L20 6L20 1ZM16 2L16 5L19 5L19 2ZM0 14L0 21L7 21L7 14ZM1 15L1 20L6 20L6 15ZM2 16L2 19L5 19L5 16Z" fill="#282828"/></g></g></svg>
