<?xml version="1.0" encoding="UTF-8"?>
<svg xmlns="http://www.w3.org/2000/svg" version="1.1" width="400" height="400" viewBox="0 0 400 400"><rect x="0" y="0" width="400" height="400" fill="#f5f5f5"/><g transform="scale(14.815)"><g transform="translate(3,3)"><path fill-rule="evenodd" d="M8 0L8 3L10 3L10 4L9 4L9 5L8 5L8 9L7 9L7 8L6 8L6 9L7 9L7 10L5 10L5 8L2 8L2 9L1 9L1 10L0 10L0 11L1 11L1 13L3 13L3 11L4 11L4 12L5 12L5 13L7 13L7 12L6 12L6 11L8 11L8 9L9 9L9 5L10 5L10 7L11 7L11 4L12 4L12 8L10 8L10 9L11 9L11 10L10 10L10 12L11 12L11 14L9 14L9 12L8 12L8 14L9 14L9 15L10 15L10 16L8 16L8 19L9 19L9 20L10 20L10 21L12 21L12 18L11 18L11 19L10 19L10 16L11 16L11 17L14 17L14 18L13 18L13 20L14 20L14 21L16 21L16 20L14 20L14 19L16 19L16 18L15 18L15 17L14 17L14 15L13 15L13 14L12 14L12 10L13 10L13 13L14 13L14 14L16 14L16 15L15 15L15 16L16 16L16 17L17 17L17 18L18 18L18 17L19 17L19 16L20 16L20 15L21 15L21 14L20 14L20 13L21 13L21 8L18 8L18 9L17 9L17 11L18 11L18 10L19 10L19 11L20 11L20 13L19 13L19 12L17 12L17 14L16 14L16 12L15 12L15 11L16 11L16 10L14 10L14 9L16 9L16 8L13 8L13 2L12 2L12 3L10 3L10 2L11 2L11 1L12 1L12 0L11 0L11 1L10 1L10 2L9 2L9 0ZM12 8L12 9L13 9L13 8ZM3 9L3 10L2 10L2 11L3 11L3 10L4 10L4 9ZM19 9L19 10L20 10L20 9ZM11 14L11 16L13 16L13 15L12 15L12 14ZM17 14L17 17L18 17L18 14ZM19 14L19 15L20 15L20 14ZM17 19L17 20L18 20L18 21L19 21L19 20L20 20L20 19L19 19L19 20L18 20L18 19ZM0 0L0 7L7 7L7 0ZM1 1L1 6L6 6L6 1ZM2 2L2 5L5 5L5 2ZM14 0L14 7L21 7L21 0ZM15 1L15 6L20 6L20 1ZM16 2L16 5L19 5L19 2ZM0 14L0 21L7 21L7 14ZM1 15L1 20L6 20L6 15ZM2 16L2 19L5 19L5 16Z" fill="#282828"/></g></g></svg>
