<?xml version="1.0" encoding="UTF-8"?>
<svg xmlns="http://www.w3.org/2000/svg" version="1.1" width="400" height="400" viewBox="0 0 400 400"><rect x="0" y="0" width="400" height="400" fill="#f5f5f5"/><g transform="scale(14.815)"><g transform="translate(3,3)"><path fill-rule="evenodd" d="M11 0L11 1L10 1L10 2L9 2L9 1L8 1L8 7L9 7L9 5L11 5L11 4L13 4L13 1L12 1L12 0ZM11 1L11 2L10 2L10 3L9 3L9 4L10 4L10 3L11 3L11 2L12 2L12 1ZM10 6L10 7L11 7L11 6ZM12 6L12 8L11 8L11 9L9 9L9 8L5 8L5 9L4 9L4 11L5 11L5 12L3 12L3 11L2 11L2 12L1 12L1 10L2 10L2 9L3 9L3 8L2 8L2 9L1 9L1 10L0 10L0 12L1 12L1 13L7 13L7 12L8 12L8 16L9 16L9 18L8 18L8 19L9 19L9 18L10 18L10 19L12 19L12 21L14 21L14 18L13 18L13 17L14 17L14 16L13 16L13 17L11 17L11 18L10 18L10 16L9 16L9 14L11 14L11 15L12 15L12 14L13 14L13 11L12 11L12 10L13 10L13 9L14 9L14 8L13 8L13 6ZM12 8L12 9L11 9L11 10L9 10L9 9L8 9L8 10L9 10L9 11L10 11L10 13L11 13L11 14L12 14L12 12L11 12L11 10L12 10L12 9L13 9L13 8ZM15 8L15 13L18 13L18 12L20 12L20 11L21 11L21 10L20 10L20 8ZM6 9L6 10L7 10L7 9ZM16 9L16 10L17 10L17 11L16 11L16 12L17 12L17 11L18 11L18 10L17 10L17 9ZM19 10L19 11L20 11L20 10ZM6 11L6 12L7 12L7 11ZM20 13L20 14L17 14L17 15L16 15L16 16L17 16L17 18L16 18L16 17L15 17L15 21L21 21L21 20L20 20L20 19L21 19L21 18L19 18L19 17L21 17L21 16L20 16L20 14L21 14L21 13ZM14 14L14 15L15 15L15 14ZM17 15L17 16L19 16L19 15ZM18 18L18 19L19 19L19 18ZM16 19L16 20L17 20L17 19ZM10 20L10 21L11 21L11 20ZM0 0L0 7L7 7L7 0ZM1 1L1 6L6 6L6 1ZM2 2L2 5L5 5L5 2ZM14 0L14 7L21 7L21 0ZM15 1L15 6L20 6L20 1ZM16 2L16 5L19 5L19 2ZM0 14L0 21L7 21L7 14ZM1 15L1 20L6 20L6 15ZM2 16L2 19L5 19L5 16Z" fill="#282828"/></g></g></svg>
