<?xml version="1.0" encoding="UTF-8"?>
<svg xmlns="http://www.w3.org/2000/svg" version="1.1" width="400" height="400" viewBox="0 0 400 400"><rect x="0" y="0" width="400" height="400" fill="#f5f5f5"/><g transform="scale(14.815)"><g transform="translate(3,3)"><path fill-rule="evenodd" d="M9 0L9 1L8 1L8 7L9 7L9 2L10 2L10 4L11 4L11 5L10 5L10 7L11 7L11 9L10 9L10 8L5 8L5 9L10 9L10 10L8 10L8 11L7 11L7 10L4 10L4 9L3 9L3 8L2 8L2 9L1 9L1 10L0 10L0 11L2 11L2 9L3 9L3 12L0 12L0 13L4 13L4 11L7 11L7 12L6 12L6 13L7 13L7 12L8 12L8 16L9 16L9 18L8 18L8 19L9 19L9 20L10 20L10 21L21 21L21 20L20 20L20 19L21 19L21 18L19 18L19 17L21 17L21 16L20 16L20 13L21 13L21 12L20 12L20 13L19 13L19 14L18 14L18 12L19 12L19 11L18 11L18 10L16 10L16 9L19 9L19 10L21 10L21 9L20 9L20 8L15 8L15 9L14 9L14 8L13 8L13 9L14 9L14 10L15 10L15 13L14 13L14 11L12 11L12 7L13 7L13 5L12 5L12 2L13 2L13 0L12 0L12 2L11 2L11 1L10 1L10 0ZM11 5L11 7L12 7L12 5ZM10 10L10 11L11 11L11 12L12 12L12 13L13 13L13 12L12 12L12 11L11 11L11 10ZM16 11L16 12L17 12L17 11ZM9 12L9 13L10 13L10 12ZM15 13L15 16L14 16L14 15L13 15L13 16L12 16L12 14L9 14L9 16L12 16L12 18L14 18L14 17L16 17L16 18L17 18L17 16L19 16L19 15L17 15L17 13ZM16 15L16 16L17 16L17 15ZM9 18L9 19L11 19L11 20L13 20L13 19L11 19L11 18ZM18 18L18 19L19 19L19 18ZM16 19L16 20L17 20L17 19ZM0 0L0 7L7 7L7 0ZM1 1L1 6L6 6L6 1ZM2 2L2 5L5 5L5 2ZM14 0L14 7L21 7L21 0ZM15 1L15 6L20 6L20 1ZM16 2L16 5L19 5L19 2ZM0 14L0 21L7 21L7 14ZM1 15L1 20L6 20L6 15ZM2 16L2 19L5 19L5 16Z" fill="#282828"/></g></g></svg>
