<?xml version="1.0" encoding="UTF-8"?>
<svg xmlns="http://www.w3.org/2000/svg" version="1.1" width="400" height="400" viewBox="0 0 400 400"><rect x="0" y="0" width="400" height="400" fill="#f5f5f5"/><g transform="scale(14.815)"><g transform="translate(3,3)"><path fill-rule="evenodd" d="M9 0L9 1L8 1L8 7L9 7L9 5L10 5L10 0ZM11 0L11 1L12 1L12 0ZM12 2L12 3L11 3L11 4L12 4L12 5L11 5L11 6L10 6L10 8L5 8L5 9L7 9L7 10L4 10L4 9L3 9L3 8L2 8L2 9L3 9L3 13L4 13L4 11L5 11L5 12L6 12L6 13L7 13L7 12L9 12L9 11L11 11L11 12L10 12L10 13L8 13L8 16L10 16L10 15L11 15L11 14L13 14L13 15L12 15L12 16L11 16L11 18L10 18L10 17L9 17L9 18L8 18L8 19L12 19L12 16L13 16L13 20L12 20L12 21L14 21L14 19L15 19L15 21L21 21L21 20L20 20L20 19L21 19L21 18L19 18L19 17L21 17L21 16L20 16L20 14L21 14L21 13L20 13L20 14L19 14L19 13L17 13L17 12L19 12L19 11L20 11L20 12L21 12L21 9L20 9L20 8L15 8L15 9L14 9L14 8L13 8L13 4L12 4L12 3L13 3L13 2ZM11 6L11 7L12 7L12 6ZM10 8L10 9L9 9L9 10L8 10L8 11L9 11L9 10L10 10L10 9L11 9L11 11L12 11L12 10L13 10L13 9L12 9L12 8ZM0 9L0 10L1 10L1 13L2 13L2 10L1 10L1 9ZM16 9L16 10L18 10L18 11L19 11L19 10L20 10L20 9ZM14 10L14 11L13 11L13 13L14 13L14 14L15 14L15 15L14 15L14 16L15 16L15 17L14 17L14 18L15 18L15 17L16 17L16 18L17 18L17 16L19 16L19 15L17 15L17 13L15 13L15 10ZM6 11L6 12L7 12L7 11ZM16 11L16 12L17 12L17 11ZM11 12L11 13L10 13L10 14L11 14L11 13L12 13L12 12ZM16 15L16 16L17 16L17 15ZM18 18L18 19L19 19L19 18ZM16 19L16 20L17 20L17 19ZM10 20L10 21L11 21L11 20ZM0 0L0 7L7 7L7 0ZM1 1L1 6L6 6L6 1ZM2 2L2 5L5 5L5 2ZM14 0L14 7L21 7L21 0ZM15 1L15 6L20 6L20 1ZM16 2L16 5L19 5L19 2ZM0 14L0 21L7 21L7 14ZM1 15L1 20L6 20L6 15ZM2 16L2 19L5 19L5 16Z" fill="#282828"/></g></g></svg>
