<?xml version="1.0" encoding="UTF-8"?>
<svg xmlns="http://www.w3.org/2000/svg" version="1.1" width="400" height="400" viewBox="0 0 400 400"><rect x="0" y="0" width="400" height="400" fill="#f5f5f5"/><g transform="scale(14.815)"><g transform="translate(3,3)"><path fill-rule="evenodd" d="M8 0L8 1L9 1L9 0ZM10 0L10 1L11 1L11 3L9 3L9 2L8 2L8 3L9 3L9 4L8 4L8 5L10 5L10 9L13 9L13 5L12 5L12 7L11 7L11 3L12 3L12 4L13 4L13 3L12 3L12 1L13 1L13 0L12 0L12 1L11 1L11 0ZM8 6L8 8L9 8L9 6ZM5 8L5 9L3 9L3 10L2 10L2 9L1 9L1 10L0 10L0 13L2 13L2 11L4 11L4 10L5 10L5 9L7 9L7 10L6 10L6 11L5 11L5 12L4 12L4 13L5 13L5 12L6 12L6 13L7 13L7 12L6 12L6 11L7 11L7 10L8 10L8 12L10 12L10 13L11 13L11 14L9 14L9 13L8 13L8 14L9 14L9 15L8 15L8 16L10 16L10 15L12 15L12 13L11 13L11 12L10 12L10 10L8 10L8 9L7 9L7 8ZM14 8L14 9L15 9L15 12L14 12L14 11L13 11L13 10L12 10L12 12L14 12L14 13L17 13L17 14L16 14L16 15L17 15L17 14L18 14L18 17L17 17L17 16L16 16L16 17L15 17L15 19L14 19L14 20L15 20L15 21L16 21L16 19L17 19L17 20L18 20L18 21L19 21L19 20L20 20L20 19L21 19L21 18L19 18L19 20L18 20L18 17L19 17L19 16L21 16L21 12L20 12L20 11L21 11L21 10L20 10L20 11L19 11L19 10L18 10L18 9L19 9L19 8L18 8L18 9L17 9L17 8L16 8L16 9L15 9L15 8ZM20 8L20 9L21 9L21 8ZM1 10L1 11L2 11L2 10ZM16 10L16 12L17 12L17 13L18 13L18 14L19 14L19 15L20 15L20 12L18 12L18 11L17 11L17 10ZM14 14L14 15L13 15L13 16L14 16L14 15L15 15L15 14ZM10 17L10 18L9 18L9 20L11 20L11 21L12 21L12 19L13 19L13 17ZM16 17L16 18L17 18L17 17ZM11 18L11 19L12 19L12 18ZM0 0L0 7L7 7L7 0ZM1 1L1 6L6 6L6 1ZM2 2L2 5L5 5L5 2ZM14 0L14 7L21 7L21 0ZM15 1L15 6L20 6L20 1ZM16 2L16 5L19 5L19 2ZM0 14L0 21L7 21L7 14ZM1 15L1 20L6 20L6 15ZM2 16L2 19L5 19L5 16Z" fill="#282828"/></g></g></svg>
