<?xml version="1.0" encoding="UTF-8"?>
<svg xmlns="http://www.w3.org/2000/svg" version="1.1" width="400" height="400" viewBox="0 0 400 400"><rect x="0" y="0" width="400" height="400" fill="#f5f5f5"/><g transform="scale(14.815)"><g transform="translate(3,3)"><path fill-rule="evenodd" d="M8 0L8 1L9 1L9 0ZM10 0L10 1L12 1L12 3L11 3L11 5L12 5L12 3L13 3L13 1L12 1L12 0ZM8 2L8 3L9 3L9 4L8 4L8 5L10 5L10 2ZM8 6L8 8L9 8L9 9L8 9L8 10L9 10L9 9L10 9L10 12L8 12L8 14L9 14L9 13L11 13L11 12L12 12L12 11L11 11L11 10L12 10L12 9L13 9L13 14L14 14L14 12L15 12L15 13L19 13L19 14L18 14L18 17L17 17L17 16L16 16L16 17L15 17L15 16L14 16L14 15L12 15L12 16L11 16L11 15L10 15L10 16L9 16L9 15L8 15L8 16L9 16L9 20L10 20L10 16L11 16L11 17L12 17L12 18L11 18L11 19L15 19L15 21L16 21L16 19L17 19L17 20L18 20L18 21L19 21L19 20L20 20L20 19L21 19L21 18L19 18L19 20L18 20L18 17L19 17L19 16L21 16L21 14L20 14L20 13L19 13L19 12L20 12L20 11L19 11L19 10L21 10L21 8L20 8L20 9L19 9L19 8L18 8L18 10L17 10L17 8L16 8L16 9L15 9L15 8L14 8L14 9L13 9L13 8L12 8L12 9L11 9L11 8L10 8L10 7L11 7L11 6L10 6L10 7L9 7L9 6ZM12 6L12 7L13 7L13 6ZM5 8L5 9L4 9L4 10L2 10L2 9L1 9L1 12L0 12L0 13L1 13L1 12L2 12L2 11L3 11L3 13L4 13L4 11L5 11L5 9L7 9L7 8ZM6 10L6 11L7 11L7 10ZM16 10L16 12L18 12L18 11L17 11L17 10ZM6 12L6 13L7 13L7 12ZM16 14L16 15L17 15L17 14ZM19 14L19 15L20 15L20 14ZM13 16L13 17L14 17L14 18L15 18L15 17L14 17L14 16ZM16 17L16 18L17 18L17 17ZM0 0L0 7L7 7L7 0ZM1 1L1 6L6 6L6 1ZM2 2L2 5L5 5L5 2ZM14 0L14 7L21 7L21 0ZM15 1L15 6L20 6L20 1ZM16 2L16 5L19 5L19 2ZM0 14L0 21L7 21L7 14ZM1 15L1 20L6 20L6 15ZM2 16L2 19L5 19L5 16Z" fill="#282828"/></g></g></svg>
