<?xml version="1.0" encoding="UTF-8"?>
<svg xmlns="http://www.w3.org/2000/svg" version="1.1" width="400" height="400" viewBox="0 0 400 400"><rect x="0" y="0" width="400" height="400" fill="#f5f5f5"/><g transform="scale(14.815)"><g transform="translate(3,3)"><path fill-rule="evenodd" d="M8 0L8 2L9 2L9 3L8 3L8 7L9 7L9 9L12 9L12 11L11 11L11 10L10 10L10 11L9 11L9 10L8 10L8 9L7 9L7 8L6 8L6 9L5 9L5 10L4 10L4 12L2 12L2 10L3 10L3 9L4 9L4 8L3 8L3 9L2 9L2 10L1 10L1 9L0 9L0 10L1 10L1 11L0 11L0 13L1 13L1 12L2 12L2 13L7 13L7 12L5 12L5 10L6 10L6 11L7 11L7 10L8 10L8 12L11 12L11 15L9 15L9 16L10 16L10 17L11 17L11 18L12 18L12 19L11 19L11 20L9 20L9 21L11 21L11 20L12 20L12 21L14 21L14 20L15 20L15 19L14 19L14 18L15 18L15 17L17 17L17 18L16 18L16 21L19 21L19 20L20 20L20 19L21 19L21 16L18 16L18 15L19 15L19 12L20 12L20 11L19 11L19 10L21 10L21 8L19 8L19 10L18 10L18 8L15 8L15 9L17 9L17 10L18 10L18 11L19 11L19 12L16 12L16 13L14 13L14 14L15 14L15 17L14 17L14 18L12 18L12 17L13 17L13 15L12 15L12 14L13 14L13 13L12 13L12 12L13 12L13 9L12 9L12 8L13 8L13 5L12 5L12 4L13 4L13 3L12 3L12 2L13 2L13 1L10 1L10 0ZM9 3L9 7L10 7L10 4L11 4L11 3ZM11 5L11 8L12 8L12 5ZM6 9L6 10L7 10L7 9ZM14 10L14 11L15 11L15 10ZM8 13L8 14L10 14L10 13ZM20 13L20 15L21 15L21 13ZM16 14L16 15L17 15L17 14ZM11 16L11 17L12 17L12 16ZM17 16L17 17L18 17L18 16ZM8 17L8 18L9 18L9 19L10 19L10 18L9 18L9 17ZM17 18L17 20L18 20L18 19L20 19L20 18ZM0 0L0 7L7 7L7 0ZM1 1L1 6L6 6L6 1ZM2 2L2 5L5 5L5 2ZM14 0L14 7L21 7L21 0ZM15 1L15 6L20 6L20 1ZM16 2L16 5L19 5L19 2ZM0 14L0 21L7 21L7 14ZM1 15L1 20L6 20L6 15ZM2 16L2 19L5 19L5 16Z" fill="#282828"/></g></g></svg>
