<?xml version="1.0" encoding="UTF-8"?>
<svg xmlns="http://www.w3.org/2000/svg" version="1.1" width="400" height="400" viewBox="0 0 400 400"><rect x="0" y="0" width="400" height="400" fill="#f5f5f5"/><g transform="scale(14.815)"><g transform="translate(3,3)"><path fill-rule="evenodd" d="M8 1L8 7L9 7L9 8L5 8L5 9L3 9L3 8L2 8L2 9L3 9L3 10L4 10L4 11L7 11L7 10L8 10L8 11L9 11L9 12L5 12L5 13L8 13L8 16L9 16L9 18L8 18L8 19L9 19L9 20L10 20L10 21L14 21L14 20L15 20L15 21L21 21L21 20L20 20L20 19L21 19L21 18L19 18L19 17L21 17L21 16L20 16L20 14L21 14L21 12L20 12L20 11L19 11L19 9L20 9L20 8L15 8L15 12L14 12L14 14L13 14L13 11L12 11L12 15L10 15L10 14L9 14L9 12L11 12L11 11L10 11L10 8L11 8L11 9L13 9L13 10L14 10L14 8L12 8L12 7L13 7L13 3L12 3L12 1L11 1L11 3L10 3L10 2L9 2L9 1ZM9 3L9 4L10 4L10 3ZM11 4L11 5L10 5L10 6L9 6L9 7L10 7L10 6L11 6L11 7L12 7L12 4ZM0 9L0 11L1 11L1 12L0 12L0 13L1 13L1 12L2 12L2 13L3 13L3 12L2 12L2 10L1 10L1 9ZM5 9L5 10L7 10L7 9ZM8 9L8 10L9 10L9 9ZM16 9L16 10L17 10L17 11L16 11L16 12L17 12L17 11L18 11L18 13L15 13L15 14L14 14L14 15L15 15L15 16L13 16L13 17L12 17L12 16L10 16L10 17L11 17L11 19L10 19L10 20L13 20L13 19L12 19L12 18L14 18L14 19L15 19L15 18L14 18L14 17L16 17L16 18L17 18L17 16L19 16L19 15L17 15L17 14L18 14L18 13L19 13L19 14L20 14L20 13L19 13L19 11L18 11L18 10L17 10L17 9ZM16 15L16 16L17 16L17 15ZM18 18L18 19L19 19L19 18ZM16 19L16 20L17 20L17 19ZM0 0L0 7L7 7L7 0ZM1 1L1 6L6 6L6 1ZM2 2L2 5L5 5L5 2ZM14 0L14 7L21 7L21 0ZM15 1L15 6L20 6L20 1ZM16 2L16 5L19 5L19 2ZM0 14L0 21L7 21L7 14ZM1 15L1 20L6 20L6 15ZM2 16L2 19L5 19L5 16Z" fill="#282828"/></g></g></svg>
