<?xml version="1.0" encoding="UTF-8"?>
<svg xmlns="http://www.w3.org/2000/svg" version="1.1" width="400" height="400" viewBox="0 0 400 400"><rect x="0" y="0" width="400" height="400" fill="#f5f5f5"/><g transform="scale(14.815)"><g transform="translate(3,3)"><path fill-rule="evenodd" d="M9 1L9 2L8 2L8 4L9 4L9 3L10 3L10 5L11 5L11 6L10 6L10 7L9 7L9 6L8 6L8 7L9 7L9 8L10 8L10 9L11 9L11 10L9 10L9 13L8 13L8 8L6 8L6 9L7 9L7 10L5 10L5 8L3 8L3 9L2 9L2 10L1 10L1 9L0 9L0 10L1 10L1 11L5 11L5 12L6 12L6 13L8 13L8 15L9 15L9 14L10 14L10 17L9 17L9 16L8 16L8 18L10 18L10 19L11 19L11 20L9 20L9 21L14 21L14 20L12 20L12 19L13 19L13 18L12 18L12 17L11 17L11 16L13 16L13 17L14 17L14 14L15 14L15 13L17 13L17 14L18 14L18 16L16 16L16 17L15 17L15 18L14 18L14 19L15 19L15 21L17 21L17 20L18 20L18 21L20 21L20 20L21 20L21 18L19 18L19 19L20 19L20 20L18 20L18 18L17 18L17 17L19 17L19 16L20 16L20 17L21 17L21 13L20 13L20 12L21 12L21 11L20 11L20 9L19 9L19 8L17 8L17 9L15 9L15 10L14 10L14 9L12 9L12 7L13 7L13 6L12 6L12 5L13 5L13 4L12 4L12 2L13 2L13 1L12 1L12 2L10 2L10 1ZM11 4L11 5L12 5L12 4ZM11 6L11 7L12 7L12 6ZM17 9L17 10L16 10L16 11L17 11L17 13L19 13L19 14L20 14L20 13L19 13L19 10L18 10L18 9ZM12 10L12 11L11 11L11 12L10 12L10 13L12 13L12 11L13 11L13 12L14 12L14 13L15 13L15 12L14 12L14 10ZM6 11L6 12L7 12L7 11ZM0 12L0 13L1 13L1 12ZM3 12L3 13L4 13L4 12ZM11 14L11 15L12 15L12 14ZM11 18L11 19L12 19L12 18ZM16 19L16 20L17 20L17 19ZM0 0L0 7L7 7L7 0ZM1 1L1 6L6 6L6 1ZM2 2L2 5L5 5L5 2ZM14 0L14 7L21 7L21 0ZM15 1L15 6L20 6L20 1ZM16 2L16 5L19 5L19 2ZM0 14L0 21L7 21L7 14ZM1 15L1 20L6 20L6 15ZM2 16L2 19L5 19L5 16Z" fill="#282828"/></g></g></svg>
