<?xml version="1.0" encoding="UTF-8"?>
<svg xmlns="http://www.w3.org/2000/svg" version="1.1" width="400" height="400" viewBox="0 0 400 400"><rect x="0" y="0" width="400" height="400" fill="#f5f5f5"/><g transform="scale(14.815)"><g transform="translate(3,3)"><path fill-rule="evenodd" d="M9 0L9 1L10 1L10 0ZM11 0L11 2L9 2L9 3L11 3L11 2L12 2L12 4L10 4L10 5L9 5L9 4L8 4L8 5L9 5L9 6L8 6L8 8L6 8L6 9L5 9L5 10L4 10L4 11L3 11L3 10L2 10L2 9L4 9L4 8L2 8L2 9L1 9L1 12L0 12L0 13L1 13L1 12L2 12L2 13L3 13L3 12L4 12L4 13L7 13L7 12L9 12L9 13L8 13L8 15L9 15L9 13L10 13L10 12L9 12L9 11L10 11L10 9L9 9L9 6L10 6L10 8L13 8L13 10L14 10L14 9L15 9L15 8L13 8L13 5L12 5L12 4L13 4L13 2L12 2L12 0ZM10 5L10 6L11 6L11 7L12 7L12 5ZM16 8L16 9L17 9L17 8ZM6 9L6 10L5 10L5 11L4 11L4 12L7 12L7 11L9 11L9 9ZM11 9L11 11L12 11L12 9ZM6 10L6 11L7 11L7 10ZM17 10L17 11L13 11L13 12L12 12L12 13L11 13L11 14L10 14L10 16L9 16L9 17L8 17L8 19L9 19L9 20L11 20L11 21L15 21L15 20L16 20L16 21L17 21L17 20L16 20L16 18L20 18L20 17L21 17L21 16L20 16L20 15L21 15L21 10ZM2 11L2 12L3 12L3 11ZM18 11L18 12L16 12L16 13L15 13L15 12L13 12L13 13L15 13L15 14L16 14L16 15L17 15L17 16L18 16L18 17L20 17L20 16L18 16L18 15L19 15L19 14L20 14L20 12L19 12L19 11ZM18 12L18 13L17 13L17 14L19 14L19 12ZM12 14L12 15L11 15L11 16L13 16L13 15L14 15L14 16L15 16L15 15L14 15L14 14ZM11 17L11 20L12 20L12 19L13 19L13 20L15 20L15 18L14 18L14 19L13 19L13 18L12 18L12 17ZM18 19L18 20L19 20L19 21L20 21L20 20L21 20L21 19ZM0 0L0 7L7 7L7 0ZM1 1L1 6L6 6L6 1ZM2 2L2 5L5 5L5 2ZM14 0L14 7L21 7L21 0ZM15 1L15 6L20 6L20 1ZM16 2L16 5L19 5L19 2ZM0 14L0 21L7 21L7 14ZM1 15L1 20L6 20L6 15ZM2 16L2 19L5 19L5 16Z" fill="#282828"/></g></g></svg>
