<?xml version="1.0" encoding="UTF-8"?>
<svg xmlns="http://www.w3.org/2000/svg" version="1.1" width="400" height="400" viewBox="0 0 400 400"><rect x="0" y="0" width="400" height="400" fill="#f5f5f5"/><g transform="scale(14.815)"><g transform="translate(3,3)"><path fill-rule="evenodd" d="M8 0L8 2L9 2L9 3L8 3L8 7L9 7L9 9L10 9L10 10L8 10L8 9L7 9L7 8L6 8L6 9L7 9L7 10L6 10L6 11L5 11L5 10L4 10L4 11L3 11L3 12L2 12L2 10L3 10L3 9L4 9L4 8L3 8L3 9L1 9L1 10L0 10L0 11L1 11L1 12L2 12L2 13L5 13L5 12L6 12L6 13L7 13L7 12L6 12L6 11L7 11L7 10L8 10L8 12L9 12L9 11L10 11L10 10L11 10L11 11L14 11L14 12L12 12L12 13L11 13L11 12L10 12L10 14L12 14L12 13L13 13L13 16L14 16L14 17L13 17L13 19L15 19L15 18L14 18L14 17L17 17L17 18L16 18L16 21L19 21L19 20L20 20L20 19L21 19L21 16L18 16L18 15L19 15L19 14L20 14L20 15L21 15L21 13L19 13L19 10L20 10L20 11L21 11L21 10L20 10L20 9L21 9L21 8L19 8L19 10L18 10L18 12L16 12L16 13L15 13L15 14L14 14L14 12L15 12L15 11L14 11L14 10L15 10L15 9L18 9L18 8L15 8L15 9L13 9L13 8L12 8L12 9L11 9L11 8L10 8L10 7L11 7L11 6L12 6L12 7L13 7L13 6L12 6L12 5L13 5L13 2L11 2L11 3L10 3L10 2L9 2L9 1L12 1L12 0ZM11 3L11 4L12 4L12 3ZM9 6L9 7L10 7L10 6ZM12 9L12 10L13 10L13 9ZM4 11L4 12L5 12L5 11ZM8 13L8 14L9 14L9 13ZM17 13L17 14L16 14L16 15L17 15L17 14L19 14L19 13ZM11 15L11 16L10 16L10 17L11 17L11 18L9 18L9 17L8 17L8 18L9 18L9 21L10 21L10 19L11 19L11 21L15 21L15 20L12 20L12 17L11 17L11 16L12 16L12 15ZM14 15L14 16L15 16L15 15ZM17 16L17 17L18 17L18 16ZM17 18L17 20L18 20L18 19L20 19L20 18ZM0 0L0 7L7 7L7 0ZM1 1L1 6L6 6L6 1ZM2 2L2 5L5 5L5 2ZM14 0L14 7L21 7L21 0ZM15 1L15 6L20 6L20 1ZM16 2L16 5L19 5L19 2ZM0 14L0 21L7 21L7 14ZM1 15L1 20L6 20L6 15ZM2 16L2 19L5 19L5 16Z" fill="#282828"/></g></g></svg>
