<?xml version="1.0" encoding="UTF-8"?>
<svg xmlns="http://www.w3.org/2000/svg" version="1.1" width="400" height="400" viewBox="0 0 400 400"><rect x="0" y="0" width="400" height="400" fill="#f5f5f5"/><g transform="scale(14.815)"><g transform="translate(3,3)"><path fill-rule="evenodd" d="M9 0L9 2L8 2L8 4L9 4L9 6L8 6L8 7L9 7L9 8L10 8L10 9L12 9L12 10L11 10L11 12L12 12L12 13L13 13L13 11L14 11L14 12L15 12L15 13L14 13L14 14L13 14L13 15L14 15L14 17L13 17L13 16L12 16L12 15L11 15L11 16L10 16L10 15L9 15L9 14L10 14L10 13L8 13L8 12L9 12L9 11L10 11L10 10L9 10L9 9L8 9L8 8L6 8L6 9L5 9L5 8L3 8L3 9L2 9L2 10L3 10L3 9L4 9L4 11L1 11L1 12L0 12L0 13L3 13L3 12L5 12L5 13L8 13L8 15L9 15L9 16L8 16L8 18L9 18L9 17L10 17L10 20L12 20L12 21L13 21L13 20L14 20L14 21L17 21L17 20L18 20L18 21L20 21L20 20L21 20L21 18L19 18L19 19L20 19L20 20L18 20L18 18L17 18L17 17L19 17L19 16L20 16L20 17L21 17L21 13L20 13L20 12L19 12L19 11L18 11L18 10L20 10L20 9L19 9L19 8L17 8L17 9L15 9L15 11L14 11L14 9L13 9L13 8L10 8L10 7L11 7L11 5L12 5L12 3L13 3L13 0L12 0L12 3L11 3L11 0ZM10 4L10 5L11 5L11 4ZM9 6L9 7L10 7L10 6ZM12 6L12 7L13 7L13 6ZM6 9L6 10L5 10L5 11L6 11L6 12L7 12L7 11L8 11L8 9ZM6 10L6 11L7 11L7 10ZM16 10L16 11L17 11L17 12L18 12L18 11L17 11L17 10ZM15 13L15 14L14 14L14 15L15 15L15 17L14 17L14 18L13 18L13 19L12 19L12 20L13 20L13 19L14 19L14 18L15 18L15 17L16 17L16 16L18 16L18 14L20 14L20 13ZM11 16L11 17L12 17L12 16ZM16 19L16 20L17 20L17 19ZM0 0L0 7L7 7L7 0ZM1 1L1 6L6 6L6 1ZM2 2L2 5L5 5L5 2ZM14 0L14 7L21 7L21 0ZM15 1L15 6L20 6L20 1ZM16 2L16 5L19 5L19 2ZM0 14L0 21L7 21L7 14ZM1 15L1 20L6 20L6 15ZM2 16L2 19L5 19L5 16Z" fill="#004b96"/></g></g></svg>
