<?xml version="1.0" encoding="UTF-8"?>
<svg xmlns="http://www.w3.org/2000/svg" version="1.1" width="400" height="400" viewBox="0 0 400 400"><rect x="0" y="0" width="400" height="400" fill="#f5f5f5"/><g transform="scale(14.815)"><g transform="translate(3,3)"><path fill-rule="evenodd" d="M10 0L10 1L9 1L9 3L10 3L10 2L11 2L11 4L10 4L10 5L9 5L9 4L8 4L8 5L9 5L9 6L8 6L8 8L6 8L6 9L4 9L4 8L2 8L2 10L3 10L3 11L5 11L5 10L6 10L6 11L8 11L8 12L6 12L6 13L8 13L8 15L9 15L9 13L10 13L10 14L11 14L11 15L10 15L10 17L8 17L8 19L9 19L9 20L10 20L10 21L12 21L12 19L13 19L13 20L14 20L14 21L15 21L15 20L16 20L16 21L17 21L17 20L16 20L16 18L20 18L20 17L21 17L21 16L20 16L20 15L21 15L21 14L20 14L20 12L21 12L21 11L19 11L19 12L18 12L18 10L21 10L21 9L17 9L17 8L16 8L16 9L17 9L17 11L15 11L15 12L14 12L14 14L15 14L15 15L12 15L12 13L13 13L13 12L12 12L12 13L11 13L11 11L10 11L10 12L9 12L9 6L10 6L10 8L12 8L12 9L10 9L10 10L12 10L12 11L13 11L13 10L14 10L14 9L15 9L15 8L13 8L13 6L12 6L12 5L13 5L13 4L12 4L12 3L13 3L13 1L11 1L11 0ZM11 4L11 5L10 5L10 6L11 6L11 7L12 7L12 6L11 6L11 5L12 5L12 4ZM6 9L6 10L8 10L8 9ZM12 9L12 10L13 10L13 9ZM1 11L1 13L3 13L3 12L2 12L2 11ZM4 12L4 13L5 13L5 12ZM8 12L8 13L9 13L9 12ZM16 12L16 13L15 13L15 14L16 14L16 15L17 15L17 16L18 16L18 17L20 17L20 16L18 16L18 15L19 15L19 14L18 14L18 13L17 13L17 12ZM11 15L11 17L10 17L10 20L11 20L11 18L13 18L13 19L14 19L14 20L15 20L15 19L14 19L14 18L13 18L13 17L14 17L14 16L13 16L13 17L12 17L12 15ZM18 19L18 20L19 20L19 21L20 21L20 20L21 20L21 19ZM0 0L0 7L7 7L7 0ZM1 1L1 6L6 6L6 1ZM2 2L2 5L5 5L5 2ZM14 0L14 7L21 7L21 0ZM15 1L15 6L20 6L20 1ZM16 2L16 5L19 5L19 2ZM0 14L0 21L7 21L7 14ZM1 15L1 20L6 20L6 15ZM2 16L2 19L5 19L5 16Z" fill="#282828"/></g></g></svg>
