<?xml version="1.0" encoding="UTF-8"?>
<svg xmlns="http://www.w3.org/2000/svg" version="1.1" width="400" height="400" viewBox="0 0 400 400"><rect x="0" y="0" width="400" height="400" fill="#f5f5f5"/><g transform="scale(14.815)"><g transform="translate(3,3)"><path fill-rule="evenodd" d="M8 0L8 1L9 1L9 2L8 2L8 3L10 3L10 2L11 2L11 3L12 3L12 5L11 5L11 4L8 4L8 5L9 5L9 6L8 6L8 8L9 8L9 9L8 9L8 10L6 10L6 9L7 9L7 8L5 8L5 9L2 9L2 12L4 12L4 13L5 13L5 12L6 12L6 13L7 13L7 12L9 12L9 13L8 13L8 14L9 14L9 15L8 15L8 16L9 16L9 18L10 18L10 19L9 19L9 21L10 21L10 19L11 19L11 18L13 18L13 19L12 19L12 20L11 20L11 21L12 21L12 20L13 20L13 19L15 19L15 20L14 20L14 21L16 21L16 19L17 19L17 20L18 20L18 21L19 21L19 20L20 20L20 19L21 19L21 18L19 18L19 20L18 20L18 17L19 17L19 16L21 16L21 13L20 13L20 12L21 12L21 11L18 11L18 10L20 10L20 9L21 9L21 8L20 8L20 9L19 9L19 8L18 8L18 9L17 9L17 8L16 8L16 9L15 9L15 8L14 8L14 10L12 10L12 9L13 9L13 8L12 8L12 9L10 9L10 8L11 8L11 6L12 6L12 7L13 7L13 6L12 6L12 5L13 5L13 2L11 2L11 0L10 0L10 1L9 1L9 0ZM12 0L12 1L13 1L13 0ZM10 5L10 6L9 6L9 8L10 8L10 6L11 6L11 5ZM0 10L0 12L1 12L1 10ZM3 10L3 11L4 11L4 12L5 12L5 11L6 11L6 12L7 12L7 11L6 11L6 10L5 10L5 11L4 11L4 10ZM10 10L10 11L9 11L9 12L11 12L11 11L12 11L12 12L14 12L14 13L15 13L15 14L14 14L14 16L15 16L15 17L16 17L16 18L17 18L17 17L18 17L18 14L19 14L19 15L20 15L20 13L15 13L15 12L14 12L14 11L15 11L15 10L14 10L14 11L12 11L12 10ZM16 10L16 12L18 12L18 11L17 11L17 10ZM9 13L9 14L10 14L10 15L11 15L11 16L10 16L10 18L11 18L11 16L13 16L13 15L11 15L11 14L12 14L12 13L11 13L11 14L10 14L10 13ZM16 14L16 15L17 15L17 14ZM16 16L16 17L17 17L17 16ZM13 17L13 18L14 18L14 17ZM0 0L0 7L7 7L7 0ZM1 1L1 6L6 6L6 1ZM2 2L2 5L5 5L5 2ZM14 0L14 7L21 7L21 0ZM15 1L15 6L20 6L20 1ZM16 2L16 5L19 5L19 2ZM0 14L0 21L7 21L7 14ZM1 15L1 20L6 20L6 15ZM2 16L2 19L5 19L5 16Z" fill="#282828"/></g></g></svg>
