<?xml version="1.0" encoding="UTF-8"?>
<svg xmlns="http://www.w3.org/2000/svg" version="1.1" width="400" height="400" viewBox="0 0 400 400"><rect x="0" y="0" width="400" height="400" fill="#f5f5f5"/><g transform="scale(14.815)"><g transform="translate(3,3)"><path fill-rule="evenodd" d="M9 0L9 4L8 4L8 5L10 5L10 3L11 3L11 4L13 4L13 3L12 3L12 0L11 0L11 2L10 2L10 0ZM11 5L11 6L10 6L10 8L9 8L9 6L8 6L8 8L6 8L6 9L4 9L4 8L2 8L2 9L1 9L1 10L0 10L0 12L2 12L2 13L7 13L7 12L10 12L10 13L11 13L11 12L10 12L10 11L11 11L11 9L10 9L10 8L12 8L12 10L14 10L14 11L13 11L13 12L14 12L14 13L12 13L12 15L10 15L10 14L9 14L9 13L8 13L8 15L10 15L10 16L9 16L9 17L8 17L8 19L9 19L9 21L10 21L10 19L11 19L11 17L10 17L10 16L12 16L12 17L13 17L13 18L12 18L12 20L11 20L11 21L12 21L12 20L13 20L13 18L14 18L14 19L15 19L15 20L14 20L14 21L15 21L15 20L16 20L16 21L17 21L17 20L16 20L16 18L20 18L20 17L21 17L21 16L20 16L20 15L21 15L21 14L19 14L19 15L18 15L18 16L17 16L17 15L16 15L16 14L14 14L14 13L16 13L16 12L17 12L17 13L19 13L19 12L20 12L20 11L21 11L21 10L20 10L20 9L17 9L17 8L16 8L16 9L17 9L17 11L15 11L15 8L13 8L13 5ZM11 6L11 7L12 7L12 6ZM3 9L3 10L4 10L4 11L5 11L5 12L7 12L7 11L6 11L6 10L7 10L7 9L6 9L6 10L4 10L4 9ZM8 9L8 11L9 11L9 10L10 10L10 9ZM18 10L18 11L17 11L17 12L18 12L18 11L19 11L19 10ZM2 11L2 12L3 12L3 11ZM13 14L13 15L14 15L14 14ZM13 16L13 17L14 17L14 18L15 18L15 17L14 17L14 16ZM18 16L18 17L20 17L20 16ZM9 17L9 18L10 18L10 17ZM18 19L18 20L19 20L19 21L20 21L20 20L21 20L21 19ZM0 0L0 7L7 7L7 0ZM1 1L1 6L6 6L6 1ZM2 2L2 5L5 5L5 2ZM14 0L14 7L21 7L21 0ZM15 1L15 6L20 6L20 1ZM16 2L16 5L19 5L19 2ZM0 14L0 21L7 21L7 14ZM1 15L1 20L6 20L6 15ZM2 16L2 19L5 19L5 16Z" fill="#282828"/></g></g></svg>
