<?xml version="1.0" encoding="UTF-8"?>
<svg xmlns="http://www.w3.org/2000/svg" version="1.1" width="400" height="400" viewBox="0 0 400 400"><rect x="0" y="0" width="400" height="400" fill="#f5f5f5"/><g transform="scale(14.815)"><g transform="translate(3,3)"><path fill-rule="evenodd" d="M8 0L8 1L11 1L11 0ZM12 0L12 1L13 1L13 0ZM8 2L8 3L9 3L9 4L8 4L8 5L9 5L9 6L8 6L8 8L10 8L10 7L11 7L11 5L12 5L12 7L13 7L13 3L12 3L12 2L11 2L11 3L10 3L10 2ZM9 6L9 7L10 7L10 6ZM5 8L5 9L4 9L4 12L2 12L2 13L4 13L4 12L6 12L6 13L7 13L7 12L8 12L8 10L9 10L9 11L10 11L10 12L9 12L9 13L8 13L8 14L9 14L9 15L8 15L8 16L10 16L10 17L9 17L9 19L10 19L10 18L11 18L11 19L12 19L12 21L13 21L13 20L14 20L14 21L16 21L16 19L17 19L17 20L18 20L18 21L19 21L19 20L20 20L20 19L21 19L21 18L19 18L19 20L18 20L18 17L19 17L19 16L21 16L21 13L20 13L20 15L19 15L19 14L18 14L18 13L17 13L17 12L18 12L18 11L19 11L19 12L21 12L21 8L20 8L20 9L19 9L19 8L18 8L18 9L19 9L19 10L18 10L18 11L17 11L17 12L16 12L16 10L17 10L17 8L16 8L16 9L15 9L15 8L14 8L14 10L13 10L13 11L11 11L11 10L12 10L12 9L13 9L13 8L11 8L11 9L10 9L10 10L9 10L9 9L7 9L7 8ZM0 9L0 10L2 10L2 11L3 11L3 10L2 10L2 9ZM6 9L6 10L5 10L5 11L6 11L6 12L7 12L7 11L6 11L6 10L7 10L7 9ZM14 10L14 11L13 11L13 12L11 12L11 13L10 13L10 16L12 16L12 15L11 15L11 14L13 14L13 15L15 15L15 16L14 16L14 17L16 17L16 18L17 18L17 17L18 17L18 14L17 14L17 13L13 13L13 12L15 12L15 10ZM0 11L0 12L1 12L1 11ZM16 14L16 15L17 15L17 14ZM16 16L16 17L17 17L17 16ZM12 18L12 19L13 19L13 18ZM14 19L14 20L15 20L15 19ZM9 20L9 21L10 21L10 20ZM0 0L0 7L7 7L7 0ZM1 1L1 6L6 6L6 1ZM2 2L2 5L5 5L5 2ZM14 0L14 7L21 7L21 0ZM15 1L15 6L20 6L20 1ZM16 2L16 5L19 5L19 2ZM0 14L0 21L7 21L7 14ZM1 15L1 20L6 20L6 15ZM2 16L2 19L5 19L5 16Z" fill="#282828"/></g></g></svg>
