<?xml version="1.0" encoding="UTF-8"?>
<svg xmlns="http://www.w3.org/2000/svg" version="1.1" width="400" height="400" viewBox="0 0 400 400"><rect x="0" y="0" width="400" height="400" fill="#f5f5f5"/><g transform="scale(14.815)"><g transform="translate(3,3)"><path fill-rule="evenodd" d="M12 0L12 1L11 1L11 2L12 2L12 3L13 3L13 0ZM8 1L8 7L9 7L9 5L10 5L10 4L11 4L11 3L10 3L10 4L9 4L9 1ZM12 4L12 5L11 5L11 6L10 6L10 7L11 7L11 6L12 6L12 7L13 7L13 6L12 6L12 5L13 5L13 4ZM2 8L2 10L1 10L1 11L2 11L2 10L3 10L3 11L7 11L7 12L6 12L6 13L8 13L8 16L9 16L9 15L10 15L10 14L11 14L11 13L13 13L13 15L11 15L11 16L10 16L10 17L9 17L9 18L8 18L8 19L9 19L9 21L10 21L10 19L11 19L11 18L10 18L10 17L12 17L12 18L13 18L13 17L12 17L12 16L13 16L13 15L14 15L14 16L15 16L15 14L14 14L14 13L17 13L17 15L16 15L16 16L17 16L17 18L16 18L16 17L15 17L15 20L14 20L14 19L13 19L13 20L12 20L12 21L21 21L21 20L20 20L20 19L21 19L21 18L19 18L19 17L21 17L21 16L20 16L20 14L21 14L21 13L20 13L20 14L18 14L18 13L19 13L19 12L20 12L20 11L21 11L21 10L20 10L20 8L15 8L15 10L14 10L14 8L11 8L11 9L10 9L10 10L6 10L6 9L9 9L9 8L5 8L5 10L3 10L3 8ZM11 9L11 10L12 10L12 9ZM16 9L16 10L19 10L19 11L20 11L20 10L19 10L19 9ZM13 10L13 11L10 11L10 12L8 12L8 13L9 13L9 14L10 14L10 12L13 12L13 13L14 13L14 12L13 12L13 11L14 11L14 10ZM16 11L16 12L17 12L17 13L18 13L18 12L17 12L17 11ZM1 12L1 13L2 13L2 12ZM3 12L3 13L4 13L4 12ZM17 15L17 16L19 16L19 15ZM9 18L9 19L10 19L10 18ZM18 18L18 19L19 19L19 18ZM16 19L16 20L17 20L17 19ZM0 0L0 7L7 7L7 0ZM1 1L1 6L6 6L6 1ZM2 2L2 5L5 5L5 2ZM14 0L14 7L21 7L21 0ZM15 1L15 6L20 6L20 1ZM16 2L16 5L19 5L19 2ZM0 14L0 21L7 21L7 14ZM1 15L1 20L6 20L6 15ZM2 16L2 19L5 19L5 16Z" fill="#282828"/></g></g></svg>
