<?xml version="1.0" encoding="UTF-8"?>
<svg xmlns="http://www.w3.org/2000/svg" version="1.1" width="400" height="400" viewBox="0 0 400 400"><rect x="0" y="0" width="400" height="400" fill="#f5f5f5"/><g transform="scale(14.815)"><g transform="translate(3,3)"><path fill-rule="evenodd" d="M10 0L10 2L9 2L9 1L8 1L8 2L9 2L9 4L10 4L10 5L11 5L11 3L13 3L13 2L11 2L11 1L13 1L13 0ZM12 4L12 5L13 5L13 4ZM8 5L8 8L4 8L4 9L0 9L0 10L1 10L1 12L2 12L2 13L4 13L4 12L5 12L5 13L8 13L8 17L9 17L9 19L13 19L13 20L10 20L10 21L13 21L13 20L14 20L14 21L15 21L15 19L16 19L16 20L17 20L17 19L18 19L18 21L21 21L21 20L20 20L20 19L19 19L19 18L21 18L21 16L20 16L20 15L21 15L21 14L20 14L20 15L19 15L19 16L18 16L18 12L17 12L17 11L19 11L19 10L16 10L16 8L14 8L14 9L13 9L13 6L12 6L12 9L13 9L13 10L11 10L11 9L9 9L9 10L11 10L11 11L10 11L10 14L9 14L9 13L8 13L8 12L9 12L9 11L8 11L8 12L6 12L6 11L7 11L7 10L5 10L5 11L3 11L3 12L2 12L2 10L4 10L4 9L8 9L8 8L11 8L11 6L10 6L10 7L9 7L9 5ZM19 8L19 9L20 9L20 11L21 11L21 9L20 9L20 8ZM14 9L14 10L13 10L13 11L14 11L14 12L15 12L15 15L14 15L14 13L13 13L13 15L14 15L14 17L13 17L13 16L12 16L12 17L13 17L13 19L14 19L14 17L15 17L15 15L16 15L16 16L17 16L17 17L16 17L16 18L17 18L17 17L18 17L18 18L19 18L19 17L18 17L18 16L17 16L17 12L16 12L16 11L15 11L15 9ZM11 12L11 14L10 14L10 15L9 15L9 17L11 17L11 15L12 15L12 12ZM19 12L19 13L20 13L20 12ZM0 0L0 7L7 7L7 0ZM1 1L1 6L6 6L6 1ZM2 2L2 5L5 5L5 2ZM14 0L14 7L21 7L21 0ZM15 1L15 6L20 6L20 1ZM16 2L16 5L19 5L19 2ZM0 14L0 21L7 21L7 14ZM1 15L1 20L6 20L6 15ZM2 16L2 19L5 19L5 16Z" fill="#282828"/></g></g></svg>
