<?xml version="1.0" encoding="UTF-8"?>
<svg xmlns="http://www.w3.org/2000/svg" version="1.1" width="400" height="400" viewBox="0 0 400 400"><rect x="0" y="0" width="400" height="400" fill="#f5f5f5"/><g transform="scale(14.815)"><g transform="translate(3,3)"><path fill-rule="evenodd" d="M9 0L9 2L8 2L8 4L9 4L9 5L11 5L11 4L12 4L12 5L13 5L13 3L12 3L12 1L11 1L11 0ZM10 1L10 3L9 3L9 4L11 4L11 1ZM8 6L8 7L9 7L9 8L10 8L10 7L11 7L11 6L10 6L10 7L9 7L9 6ZM12 6L12 7L13 7L13 6ZM3 8L3 9L5 9L5 10L4 10L4 11L7 11L7 12L3 12L3 10L1 10L1 9L0 9L0 13L2 13L2 12L3 12L3 13L7 13L7 12L8 12L8 8L6 8L6 9L5 9L5 8ZM12 8L12 10L11 10L11 13L12 13L12 14L10 14L10 15L12 15L12 16L10 16L10 18L11 18L11 19L10 19L10 20L11 20L11 21L12 21L12 20L14 20L14 21L17 21L17 20L18 20L18 21L20 21L20 20L21 20L21 18L19 18L19 19L20 19L20 20L18 20L18 18L17 18L17 17L19 17L19 16L20 16L20 17L21 17L21 14L20 14L20 13L21 13L21 12L20 12L20 11L21 11L21 9L20 9L20 10L19 10L19 12L18 12L18 13L17 13L17 11L18 11L18 10L17 10L17 9L19 9L19 8L17 8L17 9L15 9L15 10L13 10L13 8ZM6 9L6 10L7 10L7 9ZM16 10L16 11L17 11L17 10ZM9 11L9 12L10 12L10 11ZM12 12L12 13L13 13L13 16L12 16L12 18L13 18L13 19L14 19L14 20L15 20L15 17L16 17L16 16L18 16L18 14L17 14L17 13L15 13L15 12ZM19 12L19 13L20 13L20 12ZM8 13L8 15L9 15L9 13ZM14 14L14 16L13 16L13 17L14 17L14 16L15 16L15 14ZM8 16L8 18L9 18L9 16ZM11 19L11 20L12 20L12 19ZM16 19L16 20L17 20L17 19ZM0 0L0 7L7 7L7 0ZM1 1L1 6L6 6L6 1ZM2 2L2 5L5 5L5 2ZM14 0L14 7L21 7L21 0ZM15 1L15 6L20 6L20 1ZM16 2L16 5L19 5L19 2ZM0 14L0 21L7 21L7 14ZM1 15L1 20L6 20L6 15ZM2 16L2 19L5 19L5 16Z" fill="#282828"/></g></g></svg>
