<?xml version="1.0" encoding="UTF-8"?>
<svg xmlns="http://www.w3.org/2000/svg" version="1.1" width="400" height="400" viewBox="0 0 400 400"><rect x="0" y="0" width="400" height="400" fill="#f5f5f5"/><g transform="scale(14.815)"><g transform="translate(3,3)"><path fill-rule="evenodd" d="M9 0L9 1L8 1L8 2L9 2L9 5L8 5L8 8L4 8L4 9L1 9L1 10L0 10L0 11L1 11L1 12L0 12L0 13L1 13L1 12L2 12L2 13L3 13L3 11L4 11L4 13L5 13L5 12L6 12L6 13L8 13L8 17L9 17L9 20L10 20L10 21L11 21L11 20L10 20L10 18L12 18L12 19L14 19L14 20L13 20L13 21L14 21L14 20L15 20L15 19L16 19L16 20L17 20L17 19L18 19L18 21L21 21L21 20L20 20L20 19L19 19L19 18L21 18L21 16L20 16L20 15L21 15L21 10L19 10L19 9L20 9L20 8L19 8L19 9L17 9L17 10L16 10L16 8L14 8L14 10L13 10L13 8L12 8L12 7L13 7L13 2L12 2L12 1L10 1L10 0ZM10 3L10 4L11 4L11 5L9 5L9 8L8 8L8 9L5 9L5 11L6 11L6 12L8 12L8 13L10 13L10 11L11 11L11 10L12 10L12 8L11 8L11 10L10 10L10 9L9 9L9 8L10 8L10 6L11 6L11 7L12 7L12 6L11 6L11 5L12 5L12 3ZM8 9L8 10L6 10L6 11L8 11L8 12L9 12L9 11L10 11L10 10L9 10L9 9ZM1 10L1 11L3 11L3 10ZM8 10L8 11L9 11L9 10ZM18 10L18 12L19 12L19 10ZM15 11L15 15L14 15L14 14L13 14L13 13L12 13L12 12L11 12L11 13L12 13L12 14L13 14L13 15L11 15L11 14L10 14L10 15L9 15L9 16L10 16L10 17L12 17L12 18L14 18L14 19L15 19L15 18L14 18L14 17L15 17L15 15L16 15L16 16L17 16L17 17L16 17L16 18L17 18L17 17L18 17L18 18L19 18L19 17L18 17L18 16L19 16L19 15L20 15L20 13L17 13L17 12L16 12L16 11ZM17 14L17 16L18 16L18 14ZM10 15L10 16L11 16L11 15ZM13 15L13 16L12 16L12 17L13 17L13 16L14 16L14 15ZM0 0L0 7L7 7L7 0ZM1 1L1 6L6 6L6 1ZM2 2L2 5L5 5L5 2ZM14 0L14 7L21 7L21 0ZM15 1L15 6L20 6L20 1ZM16 2L16 5L19 5L19 2ZM0 14L0 21L7 21L7 14ZM1 15L1 20L6 20L6 15ZM2 16L2 19L5 19L5 16Z" fill="#282828"/></g></g></svg>
