<?xml version="1.0" encoding="UTF-8"?>
<svg xmlns="http://www.w3.org/2000/svg" version="1.1" width="400" height="400" viewBox="0 0 400 400"><rect x="0" y="0" width="400" height="400" fill="#f5f5f5"/><g transform="scale(14.815)"><g transform="translate(3,3)"><path fill-rule="evenodd" d="M9 0L9 3L10 3L10 4L8 4L8 5L9 5L9 6L8 6L8 8L6 8L6 9L5 9L5 10L4 10L4 11L2 11L2 9L4 9L4 8L2 8L2 9L1 9L1 11L0 11L0 13L1 13L1 12L4 12L4 11L5 11L5 12L6 12L6 13L8 13L8 15L9 15L9 13L8 13L8 9L9 9L9 11L10 11L10 10L12 10L12 11L13 11L13 12L14 12L14 13L16 13L16 12L17 12L17 11L18 11L18 10L19 10L19 12L18 12L18 13L19 13L19 15L18 15L18 16L17 16L17 15L16 15L16 14L13 14L13 13L12 13L12 12L10 12L10 13L12 13L12 14L10 14L10 16L11 16L11 17L8 17L8 19L10 19L10 18L13 18L13 19L12 19L12 20L11 20L11 21L12 21L12 20L13 20L13 21L15 21L15 20L16 20L16 21L17 21L17 20L16 20L16 18L20 18L20 17L21 17L21 16L20 16L20 15L21 15L21 14L20 14L20 13L21 13L21 11L20 11L20 10L21 10L21 9L20 9L20 10L19 10L19 9L18 9L18 10L17 10L17 11L15 11L15 8L13 8L13 6L12 6L12 7L11 7L11 5L13 5L13 2L12 2L12 1L13 1L13 0ZM11 2L11 3L12 3L12 2ZM10 4L10 5L11 5L11 4ZM9 6L9 7L10 7L10 8L9 8L9 9L13 9L13 11L14 11L14 12L15 12L15 11L14 11L14 9L13 9L13 8L11 8L11 7L10 7L10 6ZM16 8L16 9L17 9L17 8ZM6 9L6 10L5 10L5 11L6 11L6 12L7 12L7 11L6 11L6 10L7 10L7 9ZM19 12L19 13L20 13L20 12ZM13 15L13 16L12 16L12 17L13 17L13 16L14 16L14 15ZM18 16L18 17L20 17L20 16ZM13 19L13 20L14 20L14 19ZM18 19L18 20L19 20L19 21L20 21L20 20L21 20L21 19ZM9 20L9 21L10 21L10 20ZM0 0L0 7L7 7L7 0ZM1 1L1 6L6 6L6 1ZM2 2L2 5L5 5L5 2ZM14 0L14 7L21 7L21 0ZM15 1L15 6L20 6L20 1ZM16 2L16 5L19 5L19 2ZM0 14L0 21L7 21L7 14ZM1 15L1 20L6 20L6 15ZM2 16L2 19L5 19L5 16Z" fill="#282828"/></g></g></svg>
