<?xml version="1.0" encoding="UTF-8"?>
<svg xmlns="http://www.w3.org/2000/svg" version="1.1" width="400" height="400" viewBox="0 0 400 400"><rect x="0" y="0" width="400" height="400" fill="#f5f5f5"/><g transform="scale(14.815)"><g transform="translate(3,3)"><path fill-rule="evenodd" d="M11 0L11 1L10 1L10 3L9 3L9 1L8 1L8 7L9 7L9 8L5 8L5 10L6 10L6 11L7 11L7 12L6 12L6 13L7 13L7 12L8 12L8 16L9 16L9 18L8 18L8 19L9 19L9 18L10 18L10 16L9 16L9 15L13 15L13 16L14 16L14 15L13 15L13 14L14 14L14 13L17 13L17 12L16 12L16 11L18 11L18 12L19 12L19 11L20 11L20 12L21 12L21 10L20 10L20 8L15 8L15 12L14 12L14 8L13 8L13 9L12 9L12 8L10 8L10 7L11 7L11 5L12 5L12 7L13 7L13 5L12 5L12 4L13 4L13 2L12 2L12 1L13 1L13 0ZM10 3L10 5L9 5L9 7L10 7L10 5L11 5L11 3ZM2 8L2 9L3 9L3 10L1 10L1 9L0 9L0 10L1 10L1 12L2 12L2 11L3 11L3 12L5 12L5 11L3 11L3 10L4 10L4 9L3 9L3 8ZM9 8L9 10L8 10L8 9L6 9L6 10L7 10L7 11L8 11L8 12L9 12L9 10L10 10L10 14L12 14L12 13L11 13L11 10L12 10L12 11L13 11L13 10L12 10L12 9L11 9L11 10L10 10L10 8ZM16 9L16 10L18 10L18 11L19 11L19 9ZM19 13L19 14L17 14L17 15L16 15L16 16L17 16L17 18L16 18L16 17L14 17L14 19L13 19L13 18L12 18L12 19L11 19L11 21L13 21L13 20L15 20L15 21L21 21L21 20L20 20L20 19L21 19L21 18L19 18L19 17L21 17L21 16L20 16L20 14L21 14L21 13ZM17 15L17 16L19 16L19 15ZM11 16L11 17L12 17L12 16ZM18 18L18 19L19 19L19 18ZM16 19L16 20L17 20L17 19ZM0 0L0 7L7 7L7 0ZM1 1L1 6L6 6L6 1ZM2 2L2 5L5 5L5 2ZM14 0L14 7L21 7L21 0ZM15 1L15 6L20 6L20 1ZM16 2L16 5L19 5L19 2ZM0 14L0 21L7 21L7 14ZM1 15L1 20L6 20L6 15ZM2 16L2 19L5 19L5 16Z" fill="#282828"/></g></g></svg>
