<?xml version="1.0" encoding="UTF-8"?>
<svg xmlns="http://www.w3.org/2000/svg" version="1.1" width="400" height="400" viewBox="0 0 400 400"><rect x="0" y="0" width="400" height="400" fill="#f5f5f5"/><g transform="scale(14.815)"><g transform="translate(3,3)"><path fill-rule="evenodd" d="M12 0L12 1L11 1L11 2L10 2L10 1L9 1L9 2L8 2L8 4L10 4L10 5L9 5L9 6L8 6L8 7L9 7L9 6L10 6L10 7L11 7L11 8L12 8L12 9L10 9L10 10L6 10L6 9L8 9L8 8L6 8L6 9L5 9L5 8L3 8L3 9L0 9L0 10L1 10L1 12L0 12L0 13L1 13L1 12L4 12L4 13L5 13L5 12L4 12L4 11L9 11L9 12L8 12L8 15L9 15L9 16L8 16L8 18L9 18L9 19L10 19L10 20L9 20L9 21L10 21L10 20L11 20L11 21L13 21L13 20L14 20L14 21L17 21L17 20L18 20L18 21L20 21L20 20L21 20L21 18L19 18L19 19L20 19L20 20L18 20L18 18L17 18L17 17L19 17L19 16L20 16L20 17L21 17L21 9L19 9L19 8L17 8L17 9L13 9L13 6L12 6L12 4L13 4L13 3L11 3L11 2L12 2L12 1L13 1L13 0ZM9 2L9 3L10 3L10 4L11 4L11 3L10 3L10 2ZM11 6L11 7L12 7L12 6ZM4 9L4 10L3 10L3 11L4 11L4 10L5 10L5 9ZM17 9L17 10L16 10L16 11L17 11L17 12L18 12L18 13L14 13L14 12L15 12L15 10L12 10L12 11L13 11L13 12L11 12L11 10L10 10L10 13L11 13L11 14L10 14L10 16L11 16L11 18L10 18L10 17L9 17L9 18L10 18L10 19L11 19L11 20L13 20L13 19L14 19L14 20L15 20L15 19L14 19L14 18L12 18L12 17L13 17L13 16L15 16L15 17L16 17L16 16L18 16L18 14L20 14L20 13L19 13L19 9ZM17 10L17 11L18 11L18 10ZM6 12L6 13L7 13L7 12ZM12 13L12 14L11 14L11 16L12 16L12 15L13 15L13 14L14 14L14 13ZM11 18L11 19L12 19L12 18ZM16 19L16 20L17 20L17 19ZM0 0L0 7L7 7L7 0ZM1 1L1 6L6 6L6 1ZM2 2L2 5L5 5L5 2ZM14 0L14 7L21 7L21 0ZM15 1L15 6L20 6L20 1ZM16 2L16 5L19 5L19 2ZM0 14L0 21L7 21L7 14ZM1 15L1 20L6 20L6 15ZM2 16L2 19L5 19L5 16Z" fill="#282828"/></g></g></svg>
