<?xml version="1.0" encoding="UTF-8"?>
<svg xmlns="http://www.w3.org/2000/svg" version="1.1" width="400" height="400" viewBox="0 0 400 400"><rect x="0" y="0" width="400" height="400" fill="#f5f5f5"/><g transform="scale(14.815)"><g transform="translate(3,3)"><path fill-rule="evenodd" d="M9 0L9 1L8 1L8 7L9 7L9 8L5 8L5 9L8 9L8 10L4 10L4 9L3 9L3 8L2 8L2 9L0 9L0 12L1 12L1 10L3 10L3 11L2 11L2 12L3 12L3 13L4 13L4 12L5 12L5 11L7 11L7 12L6 12L6 13L8 13L8 16L9 16L9 18L8 18L8 19L9 19L9 18L10 18L10 19L12 19L12 20L9 20L9 21L13 21L13 20L14 20L14 17L13 17L13 16L12 16L12 17L13 17L13 19L12 19L12 18L10 18L10 16L11 16L11 15L14 15L14 16L15 16L15 14L13 14L13 13L17 13L17 12L16 12L16 11L17 11L17 10L16 10L16 9L20 9L20 11L19 11L19 10L18 10L18 13L19 13L19 14L17 14L17 15L16 15L16 16L17 16L17 18L16 18L16 17L15 17L15 21L21 21L21 20L20 20L20 19L21 19L21 18L19 18L19 17L21 17L21 16L20 16L20 11L21 11L21 9L20 9L20 8L15 8L15 9L14 9L14 8L13 8L13 9L11 9L11 11L13 11L13 13L12 13L12 14L10 14L10 13L11 13L11 12L9 12L9 13L8 13L8 11L10 11L10 10L9 10L9 8L10 8L10 7L11 7L11 8L12 8L12 7L13 7L13 4L12 4L12 3L13 3L13 2L12 2L12 1L13 1L13 0L12 0L12 1L11 1L11 0ZM10 1L10 2L9 2L9 3L10 3L10 2L11 2L11 3L12 3L12 2L11 2L11 1ZM9 4L9 5L10 5L10 6L9 6L9 7L10 7L10 6L11 6L11 7L12 7L12 4L11 4L11 5L10 5L10 4ZM13 9L13 10L14 10L14 12L15 12L15 10L14 10L14 9ZM9 14L9 15L10 15L10 14ZM17 15L17 16L19 16L19 15ZM18 18L18 19L19 19L19 18ZM16 19L16 20L17 20L17 19ZM0 0L0 7L7 7L7 0ZM1 1L1 6L6 6L6 1ZM2 2L2 5L5 5L5 2ZM14 0L14 7L21 7L21 0ZM15 1L15 6L20 6L20 1ZM16 2L16 5L19 5L19 2ZM0 14L0 21L7 21L7 14ZM1 15L1 20L6 20L6 15ZM2 16L2 19L5 19L5 16Z" fill="#282828"/></g></g></svg>
