<?xml version="1.0" encoding="UTF-8"?>
<svg xmlns="http://www.w3.org/2000/svg" version="1.1" width="400" height="400" viewBox="0 0 400 400"><rect x="0" y="0" width="400" height="400" fill="#f5f5f5"/><g transform="scale(14.815)"><g transform="translate(3,3)"><path fill-rule="evenodd" d="M9 1L9 4L8 4L8 5L9 5L9 4L11 4L11 3L12 3L12 5L13 5L13 3L12 3L12 2L10 2L10 1ZM10 5L10 7L11 7L11 5ZM8 6L8 8L6 8L6 9L7 9L7 10L6 10L6 11L5 11L5 9L4 9L4 8L2 8L2 10L1 10L1 9L0 9L0 11L2 11L2 10L3 10L3 9L4 9L4 11L3 11L3 12L0 12L0 13L3 13L3 12L5 12L5 13L7 13L7 12L8 12L8 15L9 15L9 13L10 13L10 17L8 17L8 19L9 19L9 21L12 21L12 20L13 20L13 19L14 19L14 17L15 17L15 20L16 20L16 21L17 21L17 20L16 20L16 18L20 18L20 17L21 17L21 16L20 16L20 15L21 15L21 13L19 13L19 12L20 12L20 11L21 11L21 9L17 9L17 8L16 8L16 9L17 9L17 11L14 11L14 10L15 10L15 8L13 8L13 6L12 6L12 8L10 8L10 9L9 9L9 6ZM12 8L12 9L11 9L11 10L10 10L10 11L9 11L9 12L10 12L10 13L12 13L12 15L15 15L15 14L16 14L16 15L17 15L17 16L18 16L18 17L20 17L20 16L18 16L18 15L19 15L19 13L18 13L18 14L17 14L17 12L16 12L16 13L15 13L15 12L14 12L14 11L13 11L13 10L14 10L14 9L13 9L13 8ZM12 9L12 10L13 10L13 9ZM7 10L7 11L6 11L6 12L7 12L7 11L8 11L8 10ZM19 10L19 11L20 11L20 10ZM10 11L10 12L13 12L13 13L14 13L14 12L13 12L13 11ZM11 16L11 17L10 17L10 18L11 18L11 19L10 19L10 20L12 20L12 18L11 18L11 17L14 17L14 16ZM18 19L18 20L19 20L19 21L20 21L20 20L21 20L21 19ZM0 0L0 7L7 7L7 0ZM1 1L1 6L6 6L6 1ZM2 2L2 5L5 5L5 2ZM14 0L14 7L21 7L21 0ZM15 1L15 6L20 6L20 1ZM16 2L16 5L19 5L19 2ZM0 14L0 21L7 21L7 14ZM1 15L1 20L6 20L6 15ZM2 16L2 19L5 19L5 16Z" fill="#282828"/></g></g></svg>
