<?xml version="1.0" encoding="UTF-8"?>
<svg xmlns="http://www.w3.org/2000/svg" version="1.1" width="400" height="400" viewBox="0 0 400 400"><rect x="0" y="0" width="400" height="400" fill="#f5f5f5"/><g transform="scale(14.815)"><g transform="translate(3,3)"><path fill-rule="evenodd" d="M10 0L10 1L11 1L11 0ZM8 1L8 7L9 7L9 8L5 8L5 9L3 9L3 8L2 8L2 9L1 9L1 11L0 11L0 13L1 13L1 11L2 11L2 12L4 12L4 13L5 13L5 12L6 12L6 13L7 13L7 12L6 12L6 11L10 11L10 13L9 13L9 12L8 12L8 16L9 16L9 18L8 18L8 19L9 19L9 18L11 18L11 17L12 17L12 18L13 18L13 19L10 19L10 21L11 21L11 20L12 20L12 21L21 21L21 20L20 20L20 19L21 19L21 18L19 18L19 17L21 17L21 16L20 16L20 14L21 14L21 13L20 13L20 10L21 10L21 9L20 9L20 8L15 8L15 9L14 9L14 8L13 8L13 6L12 6L12 5L13 5L13 4L12 4L12 3L13 3L13 1L12 1L12 3L11 3L11 2L10 2L10 3L9 3L9 1ZM10 3L10 4L9 4L9 5L10 5L10 4L11 4L11 5L12 5L12 4L11 4L11 3ZM9 6L9 7L10 7L10 6ZM11 6L11 7L12 7L12 6ZM10 8L10 9L6 9L6 10L11 10L11 13L10 13L10 14L9 14L9 16L11 16L11 15L10 15L10 14L12 14L12 15L13 15L13 17L14 17L14 19L13 19L13 20L15 20L15 17L16 17L16 18L17 18L17 16L19 16L19 15L17 15L17 14L18 14L18 12L19 12L19 11L18 11L18 12L17 12L17 11L16 11L16 12L17 12L17 13L15 13L15 15L13 15L13 14L14 14L14 12L15 12L15 10L14 10L14 9L11 9L11 8ZM16 9L16 10L17 10L17 9ZM3 10L3 11L5 11L5 10ZM12 10L12 11L13 11L13 10ZM19 13L19 14L20 14L20 13ZM16 15L16 16L17 16L17 15ZM14 16L14 17L15 17L15 16ZM18 18L18 19L19 19L19 18ZM16 19L16 20L17 20L17 19ZM0 0L0 7L7 7L7 0ZM1 1L1 6L6 6L6 1ZM2 2L2 5L5 5L5 2ZM14 0L14 7L21 7L21 0ZM15 1L15 6L20 6L20 1ZM16 2L16 5L19 5L19 2ZM0 14L0 21L7 21L7 14ZM1 15L1 20L6 20L6 15ZM2 16L2 19L5 19L5 16Z" fill="#282828"/></g></g></svg>
