<?xml version="1.0" encoding="UTF-8"?>
<svg xmlns="http://www.w3.org/2000/svg" version="1.1" width="400" height="400" viewBox="0 0 400 400"><rect x="0" y="0" width="400" height="400" fill="#f5f5f5"/><g transform="scale(14.815)"><g transform="translate(3,3)"><path fill-rule="evenodd" d="M8 0L8 1L9 1L9 2L8 2L8 3L10 3L10 4L11 4L11 5L12 5L12 7L13 7L13 5L12 5L12 4L11 4L11 3L13 3L13 0L10 0L10 1L9 1L9 0ZM11 1L11 2L12 2L12 1ZM8 4L8 5L9 5L9 6L8 6L8 8L9 8L9 6L10 6L10 8L11 8L11 6L10 6L10 5L9 5L9 4ZM5 8L5 9L3 9L3 10L2 10L2 9L1 9L1 11L0 11L0 13L1 13L1 11L2 11L2 13L3 13L3 12L4 12L4 13L5 13L5 12L6 12L6 13L8 13L8 14L9 14L9 15L8 15L8 16L9 16L9 17L10 17L10 18L9 18L9 19L10 19L10 18L11 18L11 21L12 21L12 18L14 18L14 19L15 19L15 21L16 21L16 19L17 19L17 20L18 20L18 21L19 21L19 20L20 20L20 19L21 19L21 18L19 18L19 20L18 20L18 17L19 17L19 16L21 16L21 13L20 13L20 15L19 15L19 12L18 12L18 11L20 11L20 12L21 12L21 8L20 8L20 10L17 10L17 8L16 8L16 9L15 9L15 8L14 8L14 9L15 9L15 13L17 13L17 14L16 14L16 15L17 15L17 14L18 14L18 17L17 17L17 16L16 16L16 17L15 17L15 15L13 15L13 16L14 16L14 17L12 17L12 15L11 15L11 14L10 14L10 13L8 13L8 12L9 12L9 11L10 11L10 12L11 12L11 13L12 13L12 14L13 14L13 13L14 13L14 11L13 11L13 10L12 10L12 11L11 11L11 9L7 9L7 8ZM18 8L18 9L19 9L19 8ZM6 9L6 10L3 10L3 11L4 11L4 12L5 12L5 11L6 11L6 12L8 12L8 10L7 10L7 9ZM6 10L6 11L7 11L7 10ZM16 10L16 12L17 12L17 13L18 13L18 12L17 12L17 10ZM12 11L12 13L13 13L13 11ZM10 15L10 16L11 16L11 15ZM16 17L16 18L17 18L17 17ZM0 0L0 7L7 7L7 0ZM1 1L1 6L6 6L6 1ZM2 2L2 5L5 5L5 2ZM14 0L14 7L21 7L21 0ZM15 1L15 6L20 6L20 1ZM16 2L16 5L19 5L19 2ZM0 14L0 21L7 21L7 14ZM1 15L1 20L6 20L6 15ZM2 16L2 19L5 19L5 16Z" fill="#282828"/></g></g></svg>
