<?xml version="1.0" encoding="UTF-8"?>
<svg xmlns="http://www.w3.org/2000/svg" version="1.1" width="400" height="400" viewBox="0 0 400 400"><rect x="0" y="0" width="400" height="400" fill="#f5f5f5"/><g transform="scale(14.815)"><g transform="translate(3,3)"><path fill-rule="evenodd" d="M8 0L8 3L9 3L9 2L10 2L10 4L9 4L9 5L8 5L8 10L6 10L6 11L8 11L8 12L6 12L6 13L8 13L8 14L9 14L9 16L8 16L8 19L9 19L9 18L10 18L10 19L12 19L12 17L13 17L13 16L12 16L12 17L11 17L11 16L10 16L10 15L11 15L11 14L12 14L12 15L15 15L15 16L16 16L16 17L17 17L17 18L18 18L18 17L19 17L19 16L20 16L20 15L21 15L21 13L20 13L20 12L21 12L21 8L18 8L18 9L17 9L17 10L19 10L19 11L20 11L20 12L18 12L18 11L17 11L17 12L18 12L18 17L17 17L17 14L16 14L16 12L14 12L14 13L15 13L15 14L12 14L12 13L13 13L13 12L12 12L12 11L13 11L13 9L14 9L14 11L16 11L16 10L15 10L15 9L16 9L16 8L13 8L13 6L12 6L12 5L13 5L13 2L12 2L12 1L13 1L13 0L12 0L12 1L11 1L11 2L10 2L10 0ZM11 2L11 4L10 4L10 6L9 6L9 8L10 8L10 6L11 6L11 9L10 9L10 10L8 10L8 11L9 11L9 12L11 12L11 11L12 11L12 10L11 10L11 9L13 9L13 8L12 8L12 6L11 6L11 5L12 5L12 2ZM2 8L2 9L3 9L3 10L1 10L1 9L0 9L0 13L3 13L3 12L2 12L2 11L4 11L4 9L5 9L5 8ZM6 8L6 9L7 9L7 8ZM10 10L10 11L11 11L11 10ZM4 12L4 13L5 13L5 12ZM10 13L10 14L11 14L11 13ZM19 13L19 15L20 15L20 13ZM15 14L15 15L16 15L16 14ZM9 16L9 17L10 17L10 18L11 18L11 17L10 17L10 16ZM14 17L14 19L13 19L13 21L16 21L16 20L15 20L15 19L16 19L16 18L15 18L15 17ZM17 19L17 20L18 20L18 21L19 21L19 20L20 20L20 19L19 19L19 20L18 20L18 19ZM9 20L9 21L10 21L10 20ZM11 20L11 21L12 21L12 20ZM0 0L0 7L7 7L7 0ZM1 1L1 6L6 6L6 1ZM2 2L2 5L5 5L5 2ZM14 0L14 7L21 7L21 0ZM15 1L15 6L20 6L20 1ZM16 2L16 5L19 5L19 2ZM0 14L0 21L7 21L7 14ZM1 15L1 20L6 20L6 15ZM2 16L2 19L5 19L5 16Z" fill="#282828"/></g></g></svg>
