<?xml version="1.0" encoding="UTF-8"?>
<svg xmlns="http://www.w3.org/2000/svg" version="1.1" width="400" height="400" viewBox="0 0 400 400"><rect x="0" y="0" width="400" height="400" fill="#f5f5f5"/><g transform="scale(14.815)"><g transform="translate(3,3)"><path fill-rule="evenodd" d="M8 0L8 1L11 1L11 2L8 2L8 3L9 3L9 4L8 4L8 5L10 5L10 4L11 4L11 6L10 6L10 8L11 8L11 6L12 6L12 9L10 9L10 10L8 10L8 9L7 9L7 8L5 8L5 9L3 9L3 10L2 10L2 11L3 11L3 10L5 10L5 11L7 11L7 12L6 12L6 13L8 13L8 14L10 14L10 15L8 15L8 16L9 16L9 17L11 17L11 19L10 19L10 18L9 18L9 20L10 20L10 21L16 21L16 19L17 19L17 20L18 20L18 21L19 21L19 20L20 20L20 19L21 19L21 18L19 18L19 20L18 20L18 17L19 17L19 16L21 16L21 8L20 8L20 10L19 10L19 12L18 12L18 10L17 10L17 8L16 8L16 9L15 9L15 8L14 8L14 11L15 11L15 12L12 12L12 13L11 13L11 11L12 11L12 9L13 9L13 6L12 6L12 4L13 4L13 3L11 3L11 2L13 2L13 1L11 1L11 0ZM8 6L8 8L9 8L9 6ZM18 8L18 9L19 9L19 8ZM0 9L0 12L1 12L1 9ZM6 9L6 10L7 10L7 11L8 11L8 10L7 10L7 9ZM16 10L16 12L17 12L17 13L14 13L14 14L13 14L13 13L12 13L12 14L11 14L11 13L10 13L10 14L11 14L11 15L10 15L10 16L13 16L13 17L12 17L12 18L13 18L13 17L14 17L14 16L15 16L15 17L16 17L16 18L17 18L17 17L18 17L18 14L17 14L17 13L18 13L18 12L17 12L17 10ZM9 11L9 12L10 12L10 11ZM2 12L2 13L3 13L3 12ZM4 12L4 13L5 13L5 12ZM16 14L16 15L17 15L17 14ZM19 14L19 15L20 15L20 14ZM13 15L13 16L14 16L14 15ZM16 16L16 17L17 17L17 16ZM14 18L14 20L15 20L15 18ZM11 19L11 20L12 20L12 19ZM0 0L0 7L7 7L7 0ZM1 1L1 6L6 6L6 1ZM2 2L2 5L5 5L5 2ZM14 0L14 7L21 7L21 0ZM15 1L15 6L20 6L20 1ZM16 2L16 5L19 5L19 2ZM0 14L0 21L7 21L7 14ZM1 15L1 20L6 20L6 15ZM2 16L2 19L5 19L5 16Z" fill="#282828"/></g></g></svg>
