<?xml version="1.0" encoding="UTF-8"?>
<svg xmlns="http://www.w3.org/2000/svg" version="1.1" width="400" height="400" viewBox="0 0 400 400"><rect x="0" y="0" width="400" height="400" fill="#f5f5f5"/><g transform="scale(14.815)"><g transform="translate(3,3)"><path fill-rule="evenodd" d="M8 0L8 3L10 3L10 4L9 4L9 5L8 5L8 10L11 10L11 12L10 12L10 13L11 13L11 15L10 15L10 14L9 14L9 12L8 12L8 11L7 11L7 10L6 10L6 9L7 9L7 8L6 8L6 9L5 9L5 8L2 8L2 9L0 9L0 10L1 10L1 11L0 11L0 12L2 12L2 13L5 13L5 11L7 11L7 12L6 12L6 13L7 13L7 12L8 12L8 14L9 14L9 16L8 16L8 19L9 19L9 18L11 18L11 19L10 19L10 20L9 20L9 21L10 21L10 20L11 20L11 19L13 19L13 20L14 20L14 21L16 21L16 20L15 20L15 19L16 19L16 18L14 18L14 19L13 19L13 18L12 18L12 16L13 16L13 17L14 17L14 16L16 16L16 17L17 17L17 18L18 18L18 17L19 17L19 16L20 16L20 15L21 15L21 13L19 13L19 12L20 12L20 11L21 11L21 10L20 10L20 9L21 9L21 8L18 8L18 9L17 9L17 10L18 10L18 11L19 11L19 12L17 12L17 14L16 14L16 12L14 12L14 13L12 13L12 11L14 11L14 9L16 9L16 8L13 8L13 6L12 6L12 5L13 5L13 4L12 4L12 5L11 5L11 3L12 3L12 2L11 2L11 3L10 3L10 0ZM12 0L12 1L13 1L13 0ZM9 5L9 9L10 9L10 6L11 6L11 7L12 7L12 6L11 6L11 5ZM11 8L11 10L12 10L12 8ZM4 9L4 10L3 10L3 11L4 11L4 10L5 10L5 9ZM18 9L18 10L19 10L19 11L20 11L20 10L19 10L19 9ZM15 10L15 11L16 11L16 10ZM14 13L14 14L13 14L13 16L14 16L14 15L16 15L16 14L15 14L15 13ZM18 13L18 14L17 14L17 17L18 17L18 14L19 14L19 15L20 15L20 14L19 14L19 13ZM11 15L11 16L10 16L10 17L11 17L11 16L12 16L12 15ZM17 19L17 20L18 20L18 21L19 21L19 20L20 20L20 19L19 19L19 20L18 20L18 19ZM0 0L0 7L7 7L7 0ZM1 1L1 6L6 6L6 1ZM2 2L2 5L5 5L5 2ZM14 0L14 7L21 7L21 0ZM15 1L15 6L20 6L20 1ZM16 2L16 5L19 5L19 2ZM0 14L0 21L7 21L7 14ZM1 15L1 20L6 20L6 15ZM2 16L2 19L5 19L5 16Z" fill="#282828"/></g></g></svg>
