<?xml version="1.0" encoding="UTF-8"?>
<svg xmlns="http://www.w3.org/2000/svg" version="1.1" width="400" height="400" viewBox="0 0 400 400"><rect x="0" y="0" width="400" height="400" fill="#f5f5f5"/><g transform="scale(14.815)"><g transform="translate(3,3)"><path fill-rule="evenodd" d="M8 0L8 1L9 1L9 0ZM10 0L10 2L9 2L9 3L8 3L8 4L10 4L10 5L9 5L9 6L8 6L8 7L9 7L9 8L8 8L8 9L7 9L7 8L4 8L4 9L3 9L3 8L2 8L2 11L3 11L3 13L4 13L4 11L5 11L5 12L6 12L6 13L8 13L8 14L11 14L11 13L10 13L10 12L11 12L11 10L10 10L10 9L9 9L9 8L10 8L10 7L11 7L11 8L12 8L12 9L14 9L14 11L13 11L13 10L12 10L12 11L13 11L13 12L14 12L14 13L13 13L13 14L12 14L12 15L11 15L11 16L10 16L10 19L9 19L9 18L8 18L8 19L9 19L9 21L10 21L10 20L11 20L11 21L15 21L15 20L13 20L13 19L14 19L14 18L15 18L15 17L16 17L16 16L18 16L18 18L20 18L20 19L21 19L21 18L20 18L20 17L21 17L21 16L20 16L20 17L19 17L19 16L18 16L18 15L19 15L19 13L18 13L18 12L20 12L20 11L21 11L21 8L20 8L20 9L18 9L18 8L17 8L17 9L18 9L18 11L17 11L17 10L16 10L16 11L17 11L17 12L16 12L16 13L15 13L15 9L14 9L14 8L12 8L12 7L13 7L13 3L12 3L12 5L11 5L11 2L13 2L13 0ZM10 5L10 6L9 6L9 7L10 7L10 6L11 6L11 7L12 7L12 6L11 6L11 5ZM5 9L5 11L6 11L6 12L8 12L8 13L9 13L9 12L8 12L8 11L9 11L9 9L8 9L8 10L7 10L7 9ZM0 10L0 11L1 11L1 10ZM6 10L6 11L7 11L7 10ZM0 12L0 13L2 13L2 12ZM16 13L16 15L18 15L18 13ZM8 15L8 17L9 17L9 15ZM12 15L12 16L11 16L11 17L12 17L12 16L13 16L13 18L12 18L12 19L13 19L13 18L14 18L14 15ZM16 18L16 19L17 19L17 18ZM18 19L18 21L19 21L19 19ZM16 20L16 21L17 21L17 20ZM20 20L20 21L21 21L21 20ZM0 0L0 7L7 7L7 0ZM1 1L1 6L6 6L6 1ZM2 2L2 5L5 5L5 2ZM14 0L14 7L21 7L21 0ZM15 1L15 6L20 6L20 1ZM16 2L16 5L19 5L19 2ZM0 14L0 21L7 21L7 14ZM1 15L1 20L6 20L6 15ZM2 16L2 19L5 19L5 16Z" fill="#282828"/></g></g></svg>
