<?xml version="1.0" encoding="UTF-8"?>
<svg xmlns="http://www.w3.org/2000/svg" version="1.1" width="400" height="400" viewBox="0 0 400 400"><rect x="0" y="0" width="400" height="400" fill="#f5f5f5"/><g transform="scale(14.815)"><g transform="translate(3,3)"><path fill-rule="evenodd" d="M8 0L8 2L9 2L9 1L11 1L11 0ZM10 2L10 3L8 3L8 7L9 7L9 8L10 8L10 10L9 10L9 9L8 9L8 10L5 10L5 9L4 9L4 8L3 8L3 9L2 9L2 10L1 10L1 12L0 12L0 13L2 13L2 12L3 12L3 13L8 13L8 14L10 14L10 12L9 12L9 11L12 11L12 12L11 12L11 14L13 14L13 15L11 15L11 16L12 16L12 17L11 17L11 21L13 21L13 19L14 19L14 20L15 20L15 18L14 18L14 17L13 17L13 15L14 15L14 14L15 14L15 17L17 17L17 18L16 18L16 21L19 21L19 20L20 20L20 19L21 19L21 16L18 16L18 15L19 15L19 14L20 14L20 15L21 15L21 12L20 12L20 10L19 10L19 9L21 9L21 8L19 8L19 9L18 9L18 8L15 8L15 9L13 9L13 10L12 10L12 8L10 8L10 7L11 7L11 4L12 4L12 2ZM9 6L9 7L10 7L10 6ZM12 6L12 7L13 7L13 6ZM6 8L6 9L7 9L7 8ZM3 9L3 10L2 10L2 11L3 11L3 12L7 12L7 11L4 11L4 9ZM15 9L15 13L16 13L16 12L17 12L17 9ZM8 10L8 11L9 11L9 10ZM13 10L13 11L14 11L14 10ZM18 11L18 12L19 12L19 13L17 13L17 14L16 14L16 15L17 15L17 14L19 14L19 13L20 13L20 12L19 12L19 11ZM12 12L12 13L13 13L13 14L14 14L14 12ZM17 16L17 17L18 17L18 16ZM8 17L8 18L9 18L9 19L10 19L10 17ZM12 17L12 19L13 19L13 17ZM17 18L17 20L18 20L18 19L20 19L20 18ZM0 0L0 7L7 7L7 0ZM1 1L1 6L6 6L6 1ZM2 2L2 5L5 5L5 2ZM14 0L14 7L21 7L21 0ZM15 1L15 6L20 6L20 1ZM16 2L16 5L19 5L19 2ZM0 14L0 21L7 21L7 14ZM1 15L1 20L6 20L6 15ZM2 16L2 19L5 19L5 16Z" fill="#282828"/></g></g></svg>
