<?xml version="1.0" encoding="UTF-8"?>
<svg xmlns="http://www.w3.org/2000/svg" version="1.1" width="400" height="400" viewBox="0 0 400 400"><rect x="0" y="0" width="400" height="400" fill="#f5f5f5"/><g transform="scale(14.815)"><g transform="translate(3,3)"><path fill-rule="evenodd" d="M9 0L9 1L10 1L10 2L11 2L11 1L10 1L10 0ZM8 2L8 4L9 4L9 5L10 5L10 7L9 7L9 6L8 6L8 7L9 7L9 9L10 9L10 10L8 10L8 8L6 8L6 9L5 9L5 8L3 8L3 9L2 9L2 10L1 10L1 11L2 11L2 12L3 12L3 13L4 13L4 12L5 12L5 13L7 13L7 12L6 12L6 11L10 11L10 10L11 10L11 8L12 8L12 10L14 10L14 9L13 9L13 4L11 4L11 3L9 3L9 2ZM12 2L12 3L13 3L13 2ZM11 6L11 7L10 7L10 8L11 8L11 7L12 7L12 6ZM17 8L17 9L15 9L15 13L17 13L17 14L18 14L18 16L16 16L16 17L13 17L13 16L14 16L14 15L15 15L15 14L14 14L14 11L13 11L13 14L14 14L14 15L13 15L13 16L11 16L11 15L12 15L12 13L11 13L11 15L10 15L10 14L9 14L9 13L8 13L8 15L10 15L10 16L11 16L11 17L12 17L12 18L11 18L11 20L10 20L10 17L9 17L9 16L8 16L8 18L9 18L9 20L10 20L10 21L11 21L11 20L12 20L12 21L13 21L13 20L12 20L12 18L13 18L13 19L14 19L14 18L15 18L15 21L17 21L17 20L18 20L18 21L20 21L20 20L21 20L21 18L19 18L19 19L20 19L20 20L18 20L18 18L17 18L17 17L19 17L19 16L20 16L20 17L21 17L21 12L20 12L20 11L21 11L21 9L19 9L19 8ZM3 9L3 10L2 10L2 11L5 11L5 9ZM6 9L6 10L7 10L7 9ZM16 10L16 11L17 11L17 12L18 12L18 13L19 13L19 14L20 14L20 13L19 13L19 12L18 12L18 11L20 11L20 10L18 10L18 11L17 11L17 10ZM11 11L11 12L12 12L12 11ZM0 12L0 13L1 13L1 12ZM16 19L16 20L17 20L17 19ZM0 0L0 7L7 7L7 0ZM1 1L1 6L6 6L6 1ZM2 2L2 5L5 5L5 2ZM14 0L14 7L21 7L21 0ZM15 1L15 6L20 6L20 1ZM16 2L16 5L19 5L19 2ZM0 14L0 21L7 21L7 14ZM1 15L1 20L6 20L6 15ZM2 16L2 19L5 19L5 16Z" fill="#282828"/></g></g></svg>
