<?xml version="1.0" encoding="UTF-8"?>
<svg xmlns="http://www.w3.org/2000/svg" version="1.1" width="400" height="400" viewBox="0 0 400 400"><rect x="0" y="0" width="400" height="400" fill="#f5f5f5"/><g transform="scale(14.815)"><g transform="translate(3,3)"><path fill-rule="evenodd" d="M9 0L9 2L8 2L8 4L9 4L9 2L10 2L10 3L13 3L13 0L12 0L12 2L11 2L11 0ZM10 4L10 8L9 8L9 10L8 10L8 11L9 11L9 13L8 13L8 12L6 12L6 11L7 11L7 10L6 10L6 9L8 9L8 8L6 8L6 9L5 9L5 8L3 8L3 9L1 9L1 10L0 10L0 13L3 13L3 12L4 12L4 13L8 13L8 15L10 15L10 16L8 16L8 18L9 18L9 20L10 20L10 21L11 21L11 20L10 20L10 18L9 18L9 17L10 17L10 16L11 16L11 19L13 19L13 17L14 17L14 20L15 20L15 21L17 21L17 20L18 20L18 21L20 21L20 20L21 20L21 18L19 18L19 19L20 19L20 20L18 20L18 18L17 18L17 17L19 17L19 16L20 16L20 17L21 17L21 14L18 14L18 13L20 13L20 12L21 12L21 11L20 11L20 10L21 10L21 9L19 9L19 8L17 8L17 9L14 9L14 10L15 10L15 12L14 12L14 13L13 13L13 12L12 12L12 11L13 11L13 10L11 10L11 13L13 13L13 17L12 17L12 16L11 16L11 15L10 15L10 14L9 14L9 13L10 13L10 9L11 9L11 8L13 8L13 5L12 5L12 7L11 7L11 4ZM8 6L8 7L9 7L9 6ZM17 9L17 10L16 10L16 11L17 11L17 12L18 12L18 11L19 11L19 10L18 10L18 9ZM2 10L2 12L3 12L3 11L4 11L4 12L5 12L5 10ZM15 13L15 15L14 15L14 16L15 16L15 17L16 17L16 16L18 16L18 14L17 14L17 13ZM16 19L16 20L17 20L17 19ZM0 0L0 7L7 7L7 0ZM1 1L1 6L6 6L6 1ZM2 2L2 5L5 5L5 2ZM14 0L14 7L21 7L21 0ZM15 1L15 6L20 6L20 1ZM16 2L16 5L19 5L19 2ZM0 14L0 21L7 21L7 14ZM1 15L1 20L6 20L6 15ZM2 16L2 19L5 19L5 16Z" fill="#282828"/></g></g></svg>
