<?xml version="1.0" encoding="UTF-8"?>
<svg xmlns="http://www.w3.org/2000/svg" version="1.1" width="400" height="400" viewBox="0 0 400 400"><rect x="0" y="0" width="400" height="400" fill="#f5f5f5"/><g transform="scale(14.815)"><g transform="translate(3,3)"><path fill-rule="evenodd" d="M8 0L8 3L9 3L9 5L8 5L8 9L7 9L7 8L6 8L6 9L7 9L7 10L5 10L5 8L2 8L2 9L0 9L0 10L1 10L1 11L0 11L0 13L1 13L1 11L3 11L3 9L4 9L4 10L5 10L5 11L7 11L7 10L9 10L9 11L10 11L10 9L9 9L9 8L10 8L10 7L11 7L11 5L12 5L12 8L11 8L11 10L12 10L12 11L11 11L11 12L9 12L9 13L8 13L8 14L9 14L9 16L8 16L8 19L9 19L9 16L10 16L10 19L11 19L11 16L12 16L12 19L13 19L13 17L14 17L14 18L15 18L15 19L14 19L14 20L13 20L13 21L16 21L16 20L15 20L15 19L16 19L16 18L15 18L15 17L14 17L14 16L16 16L16 17L17 17L17 18L18 18L18 17L19 17L19 16L20 16L20 15L21 15L21 11L20 11L20 9L21 9L21 8L18 8L18 9L17 9L17 12L18 12L18 13L19 13L19 14L18 14L18 17L17 17L17 14L16 14L16 12L14 12L14 10L15 10L15 11L16 11L16 10L15 10L15 9L16 9L16 8L13 8L13 3L12 3L12 2L13 2L13 0L12 0L12 2L11 2L11 3L12 3L12 4L10 4L10 3L9 3L9 2L10 2L10 1L11 1L11 0L10 0L10 1L9 1L9 0ZM9 5L9 7L10 7L10 5ZM12 8L12 9L13 9L13 8ZM18 9L18 10L19 10L19 9ZM12 11L12 13L10 13L10 16L11 16L11 15L14 15L14 14L15 14L15 15L16 15L16 14L15 14L15 13L14 13L14 14L12 14L12 13L13 13L13 11ZM18 11L18 12L19 12L19 13L20 13L20 11ZM2 12L2 13L5 13L5 12ZM6 12L6 13L7 13L7 12ZM19 14L19 15L20 15L20 14ZM17 19L17 20L18 20L18 21L19 21L19 20L20 20L20 19L19 19L19 20L18 20L18 19ZM9 20L9 21L12 21L12 20ZM0 0L0 7L7 7L7 0ZM1 1L1 6L6 6L6 1ZM2 2L2 5L5 5L5 2ZM14 0L14 7L21 7L21 0ZM15 1L15 6L20 6L20 1ZM16 2L16 5L19 5L19 2ZM0 14L0 21L7 21L7 14ZM1 15L1 20L6 20L6 15ZM2 16L2 19L5 19L5 16Z" fill="#282828"/></g></g></svg>
