<?xml version="1.0" encoding="UTF-8"?>
<svg xmlns="http://www.w3.org/2000/svg" version="1.1" width="400" height="400" viewBox="0 0 400 400"><rect x="0" y="0" width="400" height="400" fill="#f5f5f5"/><g transform="scale(14.815)"><g transform="translate(3,3)"><path fill-rule="evenodd" d="M8 0L8 1L9 1L9 0ZM10 0L10 1L11 1L11 0ZM12 0L12 2L11 2L11 3L10 3L10 2L8 2L8 3L9 3L9 4L8 4L8 5L9 5L9 6L8 6L8 8L9 8L9 9L8 9L8 10L3 10L3 9L2 9L2 10L3 10L3 11L1 11L1 13L3 13L3 11L4 11L4 13L5 13L5 11L7 11L7 12L6 12L6 13L7 13L7 12L8 12L8 11L9 11L9 9L11 9L11 10L10 10L10 12L11 12L11 13L10 13L10 14L9 14L9 13L8 13L8 14L9 14L9 15L8 15L8 16L9 16L9 17L11 17L11 20L10 20L10 21L11 21L11 20L12 20L12 21L16 21L16 19L17 19L17 20L18 20L18 21L19 21L19 20L20 20L20 19L21 19L21 18L19 18L19 20L18 20L18 17L19 17L19 16L21 16L21 13L20 13L20 12L19 12L19 11L20 11L20 10L17 10L17 8L16 8L16 9L15 9L15 8L14 8L14 9L11 9L11 8L10 8L10 7L11 7L11 5L12 5L12 4L13 4L13 0ZM11 3L11 4L12 4L12 3ZM9 6L9 7L10 7L10 6ZM12 6L12 7L13 7L13 6ZM5 8L5 9L7 9L7 8ZM18 8L18 9L19 9L19 8ZM20 8L20 9L21 9L21 8ZM0 9L0 10L1 10L1 9ZM14 9L14 10L12 10L12 11L14 11L14 13L13 13L13 14L12 14L12 13L11 13L11 15L9 15L9 16L13 16L13 18L15 18L15 17L16 17L16 18L17 18L17 17L18 17L18 14L17 14L17 13L18 13L18 12L17 12L17 10L16 10L16 12L17 12L17 13L15 13L15 9ZM14 13L14 14L15 14L15 13ZM19 13L19 15L20 15L20 13ZM16 14L16 15L17 15L17 14ZM16 16L16 17L17 17L17 16ZM9 18L9 19L10 19L10 18ZM12 19L12 20L14 20L14 19ZM0 0L0 7L7 7L7 0ZM1 1L1 6L6 6L6 1ZM2 2L2 5L5 5L5 2ZM14 0L14 7L21 7L21 0ZM15 1L15 6L20 6L20 1ZM16 2L16 5L19 5L19 2ZM0 14L0 21L7 21L7 14ZM1 15L1 20L6 20L6 15ZM2 16L2 19L5 19L5 16Z" fill="#282828"/></g></g></svg>
