<?xml version="1.0" encoding="UTF-8"?>
<svg xmlns="http://www.w3.org/2000/svg" version="1.1" width="400" height="400" viewBox="0 0 400 400"><rect x="0" y="0" width="400" height="400" fill="#f5f5f5"/><g transform="scale(14.815)"><g transform="translate(3,3)"><path fill-rule="evenodd" d="M8 0L8 3L9 3L9 4L10 4L10 5L11 5L11 6L10 6L10 8L9 8L9 5L8 5L8 9L7 9L7 8L6 8L6 9L7 9L7 10L6 10L6 11L5 11L5 12L4 12L4 11L3 11L3 10L4 10L4 9L5 9L5 8L2 8L2 9L3 9L3 10L1 10L1 11L0 11L0 13L1 13L1 11L2 11L2 12L3 12L3 13L8 13L8 14L10 14L10 13L13 13L13 15L10 15L10 16L8 16L8 19L9 19L9 17L10 17L10 21L12 21L12 19L11 19L11 17L12 17L12 18L13 18L13 17L14 17L14 16L16 16L16 17L17 17L17 18L18 18L18 17L19 17L19 16L20 16L20 15L21 15L21 14L20 14L20 13L21 13L21 12L20 12L20 11L21 11L21 10L19 10L19 9L21 9L21 8L18 8L18 10L17 10L17 13L18 13L18 12L20 12L20 13L19 13L19 14L18 14L18 17L17 17L17 14L16 14L16 12L14 12L14 13L13 13L13 12L11 12L11 11L10 11L10 13L9 13L9 12L8 12L8 11L7 11L7 10L9 10L9 9L10 9L10 8L11 8L11 6L12 6L12 9L16 9L16 8L13 8L13 5L12 5L12 3L13 3L13 2L11 2L11 4L10 4L10 3L9 3L9 2L10 2L10 1L11 1L11 0ZM12 0L12 1L13 1L13 0ZM12 10L12 11L16 11L16 10ZM18 10L18 11L19 11L19 10ZM6 11L6 12L7 12L7 11ZM14 14L14 15L16 15L16 14ZM19 14L19 15L20 15L20 14ZM10 16L10 17L11 17L11 16ZM12 16L12 17L13 17L13 16ZM15 18L15 19L16 19L16 18ZM17 19L17 20L18 20L18 21L19 21L19 20L20 20L20 19L19 19L19 20L18 20L18 19ZM14 20L14 21L16 21L16 20ZM0 0L0 7L7 7L7 0ZM1 1L1 6L6 6L6 1ZM2 2L2 5L5 5L5 2ZM14 0L14 7L21 7L21 0ZM15 1L15 6L20 6L20 1ZM16 2L16 5L19 5L19 2ZM0 14L0 21L7 21L7 14ZM1 15L1 20L6 20L6 15ZM2 16L2 19L5 19L5 16Z" fill="#282828"/></g></g></svg>
