<?xml version="1.0" encoding="UTF-8"?>
<svg xmlns="http://www.w3.org/2000/svg" version="1.1" width="400" height="400" viewBox="0 0 400 400"><rect x="0" y="0" width="400" height="400" fill="#f5f5f5"/><g transform="scale(14.815)"><g transform="translate(3,3)"><path fill-rule="evenodd" d="M10 0L10 1L9 1L9 3L10 3L10 4L8 4L8 5L9 5L9 6L8 6L8 8L6 8L6 9L4 9L4 8L2 8L2 10L1 10L1 11L4 11L4 12L2 12L2 13L7 13L7 12L5 12L5 11L7 11L7 10L6 10L6 9L8 9L8 11L9 11L9 13L8 13L8 15L9 15L9 17L8 17L8 19L9 19L9 20L10 20L10 21L11 21L11 20L13 20L13 19L14 19L14 20L16 20L16 21L17 21L17 20L16 20L16 18L20 18L20 17L21 17L21 16L20 16L20 15L21 15L21 14L19 14L19 13L21 13L21 9L18 9L18 10L17 10L17 11L15 11L15 10L14 10L14 9L15 9L15 8L13 8L13 3L12 3L12 2L13 2L13 1L11 1L11 0ZM10 2L10 3L11 3L11 2ZM10 4L10 6L9 6L9 8L11 8L11 7L12 7L12 6L11 6L11 5L12 5L12 4ZM10 6L10 7L11 7L11 6ZM16 8L16 9L17 9L17 8ZM9 9L9 10L12 10L12 9ZM18 10L18 11L20 11L20 10ZM10 11L10 13L9 13L9 15L10 15L10 16L11 16L11 13L12 13L12 15L14 15L14 18L15 18L15 15L14 15L14 12L15 12L15 11L12 11L12 12L11 12L11 11ZM0 12L0 13L1 13L1 12ZM12 12L12 13L13 13L13 12ZM16 12L16 13L15 13L15 14L16 14L16 15L17 15L17 16L18 16L18 17L20 17L20 16L18 16L18 15L19 15L19 14L17 14L17 13L18 13L18 12ZM9 17L9 19L12 19L12 18L13 18L13 17L12 17L12 18L10 18L10 17ZM18 19L18 20L19 20L19 21L20 21L20 20L21 20L21 19ZM0 0L0 7L7 7L7 0ZM1 1L1 6L6 6L6 1ZM2 2L2 5L5 5L5 2ZM14 0L14 7L21 7L21 0ZM15 1L15 6L20 6L20 1ZM16 2L16 5L19 5L19 2ZM0 14L0 21L7 21L7 14ZM1 15L1 20L6 20L6 15ZM2 16L2 19L5 19L5 16Z" fill="#282828"/></g></g></svg>
