<?xml version="1.0" encoding="UTF-8"?>
<svg xmlns="http://www.w3.org/2000/svg" version="1.1" width="400" height="400" viewBox="0 0 400 400"><rect x="0" y="0" width="400" height="400" fill="#f5f5f5"/><g transform="scale(14.815)"><g transform="translate(3,3)"><path fill-rule="evenodd" d="M8 0L8 2L9 2L9 0ZM12 0L12 2L11 2L11 1L10 1L10 7L9 7L9 3L8 3L8 7L9 7L9 9L10 9L10 10L9 10L9 11L8 11L8 12L6 12L6 13L8 13L8 14L9 14L9 15L10 15L10 17L11 17L11 15L13 15L13 16L12 16L12 18L11 18L11 19L10 19L10 18L9 18L9 17L8 17L8 18L9 18L9 20L11 20L11 21L12 21L12 19L13 19L13 18L15 18L15 17L17 17L17 18L16 18L16 21L19 21L19 20L20 20L20 19L21 19L21 16L18 16L18 15L19 15L19 12L21 12L21 10L20 10L20 9L21 9L21 8L19 8L19 9L18 9L18 8L15 8L15 9L14 9L14 11L12 11L12 7L13 7L13 0ZM11 3L11 4L12 4L12 3ZM11 5L11 7L12 7L12 5ZM3 8L3 10L2 10L2 11L4 11L4 12L1 12L1 11L0 11L0 13L4 13L4 12L5 12L5 11L4 11L4 10L5 10L5 9L4 9L4 8ZM6 8L6 9L7 9L7 8ZM0 9L0 10L1 10L1 9ZM15 9L15 11L14 11L14 12L12 12L12 14L13 14L13 15L14 15L14 16L13 16L13 17L14 17L14 16L15 16L15 15L14 15L14 14L15 14L15 13L16 13L16 12L17 12L17 10L18 10L18 12L19 12L19 10L18 10L18 9ZM6 10L6 11L7 11L7 10ZM10 11L10 13L9 13L9 14L10 14L10 15L11 15L11 14L10 14L10 13L11 13L11 11ZM13 13L13 14L14 14L14 13ZM17 13L17 14L16 14L16 15L17 15L17 14L18 14L18 13ZM20 13L20 15L21 15L21 13ZM17 16L17 17L18 17L18 16ZM17 18L17 20L18 20L18 19L20 19L20 18ZM14 19L14 20L15 20L15 19ZM0 0L0 7L7 7L7 0ZM1 1L1 6L6 6L6 1ZM2 2L2 5L5 5L5 2ZM14 0L14 7L21 7L21 0ZM15 1L15 6L20 6L20 1ZM16 2L16 5L19 5L19 2ZM0 14L0 21L7 21L7 14ZM1 15L1 20L6 20L6 15ZM2 16L2 19L5 19L5 16Z" fill="#282828"/></g></g></svg>
