<?xml version="1.0" encoding="UTF-8"?>
<svg xmlns="http://www.w3.org/2000/svg" version="1.1" width="400" height="400" viewBox="0 0 400 400"><rect x="0" y="0" width="400" height="400" fill="#f5f5f5"/><g transform="scale(14.815)"><g transform="translate(3,3)"><path fill-rule="evenodd" d="M8 0L8 3L9 3L9 5L8 5L8 9L7 9L7 8L6 8L6 9L5 9L5 8L2 8L2 9L4 9L4 10L3 10L3 11L2 11L2 10L0 10L0 11L2 11L2 12L1 12L1 13L3 13L3 12L4 12L4 11L5 11L5 10L6 10L6 11L7 11L7 10L8 10L8 9L11 9L11 10L10 10L10 11L11 11L11 13L9 13L9 11L8 11L8 14L9 14L9 15L11 15L11 16L12 16L12 15L13 15L13 14L14 14L14 16L13 16L13 17L11 17L11 20L10 20L10 17L9 17L9 16L8 16L8 19L9 19L9 21L11 21L11 20L13 20L13 21L14 21L14 20L13 20L13 19L12 19L12 18L15 18L15 19L16 19L16 18L15 18L15 16L16 16L16 17L17 17L17 18L18 18L18 17L19 17L19 16L20 16L20 15L21 15L21 14L20 14L20 13L21 13L21 12L20 12L20 11L21 11L21 10L20 10L20 9L21 9L21 8L18 8L18 10L17 10L17 14L16 14L16 12L15 12L15 11L16 11L16 10L14 10L14 11L13 11L13 12L15 12L15 14L14 14L14 13L13 13L13 14L12 14L12 15L11 15L11 13L12 13L12 11L11 11L11 10L12 10L12 9L11 9L11 8L9 8L9 5L10 5L10 4L11 4L11 3L13 3L13 1L12 1L12 0L11 0L11 1L12 1L12 2L11 2L11 3L9 3L9 2L10 2L10 0ZM12 4L12 5L11 5L11 6L10 6L10 7L11 7L11 6L12 6L12 7L13 7L13 6L12 6L12 5L13 5L13 4ZM13 8L13 9L16 9L16 8ZM6 9L6 10L7 10L7 9ZM18 10L18 14L17 14L17 17L18 17L18 14L19 14L19 15L20 15L20 14L19 14L19 13L20 13L20 12L19 12L19 10ZM6 12L6 13L7 13L7 12ZM15 14L15 15L16 15L16 14ZM17 19L17 20L18 20L18 21L19 21L19 20L20 20L20 19L19 19L19 20L18 20L18 19ZM15 20L15 21L16 21L16 20ZM0 0L0 7L7 7L7 0ZM1 1L1 6L6 6L6 1ZM2 2L2 5L5 5L5 2ZM14 0L14 7L21 7L21 0ZM15 1L15 6L20 6L20 1ZM16 2L16 5L19 5L19 2ZM0 14L0 21L7 21L7 14ZM1 15L1 20L6 20L6 15ZM2 16L2 19L5 19L5 16Z" fill="#282828"/></g></g></svg>
