<?xml version="1.0" encoding="UTF-8"?>
<svg xmlns="http://www.w3.org/2000/svg" version="1.1" width="400" height="400" viewBox="0 0 400 400"><rect x="0" y="0" width="400" height="400" fill="#f5f5f5"/><g transform="scale(14.815)"><g transform="translate(3,3)"><path fill-rule="evenodd" d="M9 0L9 1L8 1L8 7L9 7L9 8L5 8L5 9L4 9L4 10L3 10L3 8L2 8L2 9L1 9L1 10L0 10L0 11L2 11L2 12L0 12L0 13L7 13L7 12L6 12L6 11L8 11L8 16L9 16L9 18L8 18L8 19L9 19L9 20L11 20L11 21L12 21L12 20L11 20L11 18L12 18L12 19L13 19L13 18L12 18L12 17L14 17L14 19L15 19L15 20L13 20L13 21L21 21L21 20L20 20L20 19L21 19L21 18L19 18L19 17L21 17L21 16L20 16L20 14L21 14L21 13L20 13L20 12L19 12L19 11L18 11L18 9L20 9L20 8L15 8L15 9L14 9L14 8L10 8L10 7L11 7L11 5L10 5L10 7L9 7L9 3L10 3L10 4L11 4L11 2L9 2L9 1L12 1L12 0ZM12 3L12 7L13 7L13 3ZM6 9L6 10L9 10L9 11L10 11L10 13L9 13L9 15L10 15L10 18L9 18L9 19L10 19L10 18L11 18L11 17L12 17L12 16L14 16L14 15L15 15L15 17L16 17L16 18L17 18L17 16L19 16L19 15L17 15L17 14L18 14L18 13L19 13L19 12L18 12L18 11L16 11L16 12L18 12L18 13L15 13L15 12L14 12L14 13L13 13L13 11L15 11L15 10L14 10L14 9L12 9L12 10L9 10L9 9ZM16 9L16 10L17 10L17 9ZM4 10L4 11L3 11L3 12L4 12L4 11L5 11L5 10ZM11 11L11 12L12 12L12 11ZM10 13L10 14L11 14L11 13ZM16 15L16 16L17 16L17 15ZM18 18L18 19L19 19L19 18ZM16 19L16 20L17 20L17 19ZM0 0L0 7L7 7L7 0ZM1 1L1 6L6 6L6 1ZM2 2L2 5L5 5L5 2ZM14 0L14 7L21 7L21 0ZM15 1L15 6L20 6L20 1ZM16 2L16 5L19 5L19 2ZM0 14L0 21L7 21L7 14ZM1 15L1 20L6 20L6 15ZM2 16L2 19L5 19L5 16Z" fill="#282828"/></g></g></svg>
