<?xml version="1.0" encoding="UTF-8"?>
<svg xmlns="http://www.w3.org/2000/svg" version="1.1" width="400" height="400" viewBox="0 0 400 400"><rect x="0" y="0" width="400" height="400" fill="#f5f5f5"/><g transform="scale(14.815)"><g transform="translate(3,3)"><path fill-rule="evenodd" d="M9 0L9 2L8 2L8 4L10 4L10 5L9 5L9 6L8 6L8 7L9 7L9 10L10 10L10 11L8 11L8 10L6 10L6 9L8 9L8 8L6 8L6 9L5 9L5 8L3 8L3 9L1 9L1 10L0 10L0 13L4 13L4 12L5 12L5 13L8 13L8 15L9 15L9 16L8 16L8 18L9 18L9 21L11 21L11 20L13 20L13 19L12 19L12 18L14 18L14 20L15 20L15 21L17 21L17 20L18 20L18 21L20 21L20 20L21 20L21 18L19 18L19 19L20 19L20 20L18 20L18 18L17 18L17 17L19 17L19 16L20 16L20 17L21 17L21 13L20 13L20 12L21 12L21 9L19 9L19 8L17 8L17 9L15 9L15 10L14 10L14 9L13 9L13 8L12 8L12 7L13 7L13 4L12 4L12 3L13 3L13 2L12 2L12 1L10 1L10 0ZM9 2L9 3L10 3L10 2ZM11 2L11 3L12 3L12 2ZM10 5L10 6L9 6L9 7L10 7L10 6L11 6L11 7L12 7L12 6L11 6L11 5ZM11 8L11 10L12 10L12 8ZM3 9L3 10L1 10L1 12L4 12L4 9ZM17 9L17 10L16 10L16 11L17 11L17 12L18 12L18 13L19 13L19 10L18 10L18 9ZM5 10L5 11L6 11L6 12L7 12L7 11L6 11L6 10ZM17 10L17 11L18 11L18 10ZM11 11L11 12L12 12L12 13L11 13L11 14L10 14L10 17L11 17L11 18L10 18L10 20L11 20L11 18L12 18L12 17L11 17L11 15L12 15L12 13L13 13L13 14L14 14L14 15L15 15L15 17L14 17L14 16L13 16L13 17L14 17L14 18L15 18L15 17L16 17L16 16L18 16L18 14L17 14L17 13L15 13L15 11L13 11L13 12L12 12L12 11ZM13 12L13 13L14 13L14 14L15 14L15 13L14 13L14 12ZM16 19L16 20L17 20L17 19ZM0 0L0 7L7 7L7 0ZM1 1L1 6L6 6L6 1ZM2 2L2 5L5 5L5 2ZM14 0L14 7L21 7L21 0ZM15 1L15 6L20 6L20 1ZM16 2L16 5L19 5L19 2ZM0 14L0 21L7 21L7 14ZM1 15L1 20L6 20L6 15ZM2 16L2 19L5 19L5 16Z" fill="#282828"/></g></g></svg>
