<?xml version="1.0" encoding="UTF-8"?>
<svg xmlns="http://www.w3.org/2000/svg" version="1.1" width="400" height="400" viewBox="0 0 400 400"><rect x="0" y="0" width="400" height="400" fill="#f5f5f5"/><g transform="scale(14.815)"><g transform="translate(3,3)"><path fill-rule="evenodd" d="M8 0L8 3L10 3L10 4L13 4L13 3L12 3L12 2L13 2L13 1L12 1L12 0L10 0L10 1L9 1L9 0ZM10 2L10 3L11 3L11 2ZM8 5L8 11L7 11L7 10L5 10L5 11L3 11L3 10L4 10L4 9L5 9L5 8L2 8L2 9L1 9L1 10L0 10L0 11L3 11L3 12L2 12L2 13L3 13L3 12L5 12L5 11L7 11L7 12L6 12L6 13L8 13L8 14L9 14L9 15L10 15L10 17L11 17L11 18L12 18L12 19L10 19L10 18L9 18L9 16L8 16L8 19L9 19L9 21L11 21L11 20L12 20L12 21L13 21L13 20L12 20L12 19L13 19L13 18L14 18L14 17L15 17L15 16L16 16L16 17L17 17L17 18L18 18L18 17L19 17L19 16L20 16L20 15L21 15L21 13L20 13L20 12L19 12L19 11L21 11L21 8L18 8L18 9L20 9L20 10L17 10L17 13L20 13L20 15L19 15L19 14L18 14L18 17L17 17L17 14L16 14L16 12L15 12L15 11L16 11L16 10L15 10L15 9L16 9L16 8L13 8L13 9L14 9L14 10L12 10L12 11L10 11L10 9L9 9L9 8L10 8L10 7L11 7L11 8L12 8L12 7L13 7L13 6L12 6L12 7L11 7L11 5ZM9 6L9 7L10 7L10 6ZM6 8L6 9L7 9L7 8ZM2 9L2 10L3 10L3 9ZM14 10L14 11L13 11L13 12L10 12L10 13L9 13L9 14L10 14L10 15L11 15L11 14L12 14L12 16L11 16L11 17L12 17L12 18L13 18L13 16L15 16L15 15L16 15L16 14L14 14L14 11L15 11L15 10ZM8 11L8 12L9 12L9 11ZM10 13L10 14L11 14L11 13ZM12 13L12 14L13 14L13 13ZM15 18L15 19L16 19L16 18ZM17 19L17 20L18 20L18 21L19 21L19 20L20 20L20 19L19 19L19 20L18 20L18 19ZM15 20L15 21L16 21L16 20ZM0 0L0 7L7 7L7 0ZM1 1L1 6L6 6L6 1ZM2 2L2 5L5 5L5 2ZM14 0L14 7L21 7L21 0ZM15 1L15 6L20 6L20 1ZM16 2L16 5L19 5L19 2ZM0 14L0 21L7 21L7 14ZM1 15L1 20L6 20L6 15ZM2 16L2 19L5 19L5 16Z" fill="#282828"/></g></g></svg>
