<?xml version="1.0" encoding="UTF-8"?>
<svg xmlns="http://www.w3.org/2000/svg" version="1.1" width="400" height="400" viewBox="0 0 400 400"><rect x="0" y="0" width="400" height="400" fill="#f5f5f5"/><g transform="scale(14.815)"><g transform="translate(3,3)"><path fill-rule="evenodd" d="M10 0L10 2L8 2L8 4L9 4L9 6L8 6L8 7L9 7L9 9L10 9L10 11L7 11L7 10L8 10L8 8L6 8L6 9L5 9L5 8L3 8L3 10L2 10L2 9L0 9L0 13L1 13L1 11L2 11L2 13L8 13L8 15L9 15L9 16L8 16L8 18L10 18L10 19L9 19L9 20L10 20L10 21L11 21L11 17L10 17L10 16L12 16L12 18L13 18L13 19L12 19L12 21L14 21L14 20L13 20L13 19L15 19L15 21L17 21L17 20L18 20L18 21L20 21L20 20L21 20L21 18L19 18L19 19L20 19L20 20L18 20L18 18L17 18L17 17L19 17L19 16L20 16L20 17L21 17L21 13L19 13L19 14L18 14L18 13L17 13L17 12L20 12L20 10L21 10L21 9L19 9L19 8L17 8L17 9L14 9L14 10L15 10L15 12L13 12L13 9L12 9L12 11L11 11L11 9L10 9L10 8L11 8L11 4L9 4L9 3L11 3L11 0ZM12 0L12 1L13 1L13 0ZM12 3L12 4L13 4L13 3ZM12 5L12 8L13 8L13 5ZM9 6L9 7L10 7L10 6ZM4 9L4 12L5 12L5 9ZM6 9L6 10L7 10L7 9ZM17 9L17 10L16 10L16 11L17 11L17 10L18 10L18 9ZM6 11L6 12L7 12L7 11ZM10 11L10 12L9 12L9 13L10 13L10 14L12 14L12 15L14 15L14 14L15 14L15 17L16 17L16 16L18 16L18 14L17 14L17 13L14 13L14 14L12 14L12 13L11 13L11 11ZM16 19L16 20L17 20L17 19ZM0 0L0 7L7 7L7 0ZM1 1L1 6L6 6L6 1ZM2 2L2 5L5 5L5 2ZM14 0L14 7L21 7L21 0ZM15 1L15 6L20 6L20 1ZM16 2L16 5L19 5L19 2ZM0 14L0 21L7 21L7 14ZM1 15L1 20L6 20L6 15ZM2 16L2 19L5 19L5 16Z" fill="#282828"/></g></g></svg>
