<?xml version="1.0" encoding="UTF-8"?>
<svg xmlns="http://www.w3.org/2000/svg" version="1.1" width="400" height="400" viewBox="0 0 400 400"><rect x="0" y="0" width="400" height="400" fill="#f5f5f5"/><g transform="scale(14.815)"><g transform="translate(3,3)"><path fill-rule="evenodd" d="M10 0L10 1L12 1L12 2L13 2L13 0ZM8 1L8 2L9 2L9 5L8 5L8 8L4 8L4 9L8 9L8 10L4 10L4 11L3 11L3 9L0 9L0 10L2 10L2 11L0 11L0 13L1 13L1 12L2 12L2 13L4 13L4 11L8 11L8 12L5 12L5 13L8 13L8 17L9 17L9 18L10 18L10 19L11 19L11 21L15 21L15 19L16 19L16 20L17 20L17 19L18 19L18 21L21 21L21 20L20 20L20 19L19 19L19 18L21 18L21 16L20 16L20 15L21 15L21 13L19 13L19 14L20 14L20 15L19 15L19 16L18 16L18 14L17 14L17 16L16 16L16 15L15 15L15 14L13 14L13 13L14 13L14 12L9 12L9 11L10 11L10 10L12 10L12 8L13 8L13 5L12 5L12 4L13 4L13 3L11 3L11 2L9 2L9 1ZM10 3L10 5L11 5L11 3ZM9 6L9 7L10 7L10 8L8 8L8 9L10 9L10 8L12 8L12 6L11 6L11 7L10 7L10 6ZM14 8L14 9L13 9L13 10L14 10L14 11L16 11L16 12L17 12L17 13L18 13L18 12L19 12L19 11L18 11L18 12L17 12L17 10L20 10L20 12L21 12L21 10L20 10L20 8L19 8L19 9L17 9L17 10L16 10L16 8ZM8 10L8 11L9 11L9 10ZM10 13L10 14L9 14L9 15L12 15L12 16L13 16L13 17L10 17L10 18L11 18L11 19L12 19L12 20L13 20L13 19L12 19L12 18L14 18L14 19L15 19L15 18L14 18L14 15L13 15L13 14L11 14L11 13ZM17 16L17 17L16 17L16 18L17 18L17 17L18 17L18 18L19 18L19 17L18 17L18 16ZM9 20L9 21L10 21L10 20ZM0 0L0 7L7 7L7 0ZM1 1L1 6L6 6L6 1ZM2 2L2 5L5 5L5 2ZM14 0L14 7L21 7L21 0ZM15 1L15 6L20 6L20 1ZM16 2L16 5L19 5L19 2ZM0 14L0 21L7 21L7 14ZM1 15L1 20L6 20L6 15ZM2 16L2 19L5 19L5 16Z" fill="#282828"/></g></g></svg>
