<?xml version="1.0" encoding="UTF-8"?>
<svg xmlns="http://www.w3.org/2000/svg" version="1.1" width="400" height="400" viewBox="0 0 400 400"><rect x="0" y="0" width="400" height="400" fill="#f5f5f5"/><g transform="scale(14.815)"><g transform="translate(3,3)"><path fill-rule="evenodd" d="M8 0L8 1L9 1L9 2L11 2L11 3L12 3L12 4L13 4L13 2L11 2L11 0L10 0L10 1L9 1L9 0ZM12 0L12 1L13 1L13 0ZM8 3L8 4L9 4L9 6L8 6L8 7L9 7L9 6L10 6L10 7L11 7L11 6L12 6L12 7L13 7L13 5L11 5L11 6L10 6L10 3ZM2 8L2 9L3 9L3 10L2 10L2 12L0 12L0 13L5 13L5 12L4 12L4 10L5 10L5 11L7 11L7 12L6 12L6 13L8 13L8 14L9 14L9 15L8 15L8 17L9 17L9 18L8 18L8 19L9 19L9 21L10 21L10 20L11 20L11 21L12 21L12 20L13 20L13 21L15 21L15 20L14 20L14 19L12 19L12 18L13 18L13 17L12 17L12 16L13 16L13 15L14 15L14 16L15 16L15 17L14 17L14 18L15 18L15 17L16 17L16 16L18 16L18 18L20 18L20 19L21 19L21 18L20 18L20 17L21 17L21 16L20 16L20 17L19 17L19 16L18 16L18 15L19 15L19 12L18 12L18 13L17 13L17 12L16 12L16 13L14 13L14 12L13 12L13 11L14 11L14 10L15 10L15 9L14 9L14 8L8 8L8 10L9 10L9 13L8 13L8 11L7 11L7 10L5 10L5 9L7 9L7 8L4 8L4 9L3 9L3 8ZM17 8L17 10L16 10L16 11L17 11L17 10L18 10L18 11L19 11L19 10L20 10L20 9L21 9L21 8L20 8L20 9L19 9L19 10L18 10L18 8ZM0 9L0 11L1 11L1 9ZM9 9L9 10L10 10L10 15L9 15L9 17L10 17L10 15L11 15L11 16L12 16L12 13L11 13L11 12L12 12L12 11L11 11L11 10L12 10L12 9ZM13 9L13 10L14 10L14 9ZM20 11L20 12L21 12L21 11ZM16 13L16 15L18 15L18 14L17 14L17 13ZM11 17L11 18L12 18L12 17ZM9 18L9 19L10 19L10 18ZM16 18L16 19L17 19L17 18ZM11 19L11 20L12 20L12 19ZM18 19L18 21L19 21L19 19ZM16 20L16 21L17 21L17 20ZM20 20L20 21L21 21L21 20ZM0 0L0 7L7 7L7 0ZM1 1L1 6L6 6L6 1ZM2 2L2 5L5 5L5 2ZM14 0L14 7L21 7L21 0ZM15 1L15 6L20 6L20 1ZM16 2L16 5L19 5L19 2ZM0 14L0 21L7 21L7 14ZM1 15L1 20L6 20L6 15ZM2 16L2 19L5 19L5 16Z" fill="#282828"/></g></g></svg>
