<?xml version="1.0" encoding="UTF-8"?>
<svg xmlns="http://www.w3.org/2000/svg" version="1.1" width="400" height="400" viewBox="0 0 400 400"><rect x="0" y="0" width="400" height="400" fill="#f5f5f5"/><g transform="scale(14.815)"><g transform="translate(3,3)"><path fill-rule="evenodd" d="M10 0L10 1L9 1L9 2L8 2L8 4L10 4L10 3L12 3L12 4L11 4L11 5L13 5L13 3L12 3L12 1L11 1L11 0ZM10 1L10 2L11 2L11 1ZM8 6L8 7L9 7L9 8L10 8L10 9L8 9L8 8L6 8L6 9L5 9L5 8L3 8L3 9L2 9L2 11L1 11L1 12L0 12L0 13L1 13L1 12L2 12L2 13L3 13L3 12L4 12L4 13L5 13L5 11L3 11L3 9L5 9L5 10L6 10L6 11L8 11L8 10L9 10L9 13L8 13L8 12L6 12L6 13L8 13L8 15L11 15L11 14L12 14L12 15L13 15L13 16L14 16L14 15L15 15L15 14L13 14L13 13L17 13L17 14L18 14L18 16L16 16L16 17L15 17L15 18L14 18L14 20L13 20L13 21L14 21L14 20L15 20L15 21L17 21L17 20L18 20L18 21L20 21L20 20L21 20L21 18L19 18L19 19L20 19L20 20L18 20L18 18L17 18L17 17L19 17L19 16L20 16L20 17L21 17L21 12L20 12L20 10L21 10L21 9L19 9L19 8L17 8L17 9L15 9L15 10L14 10L14 11L10 11L10 10L13 10L13 9L11 9L11 8L13 8L13 6L12 6L12 7L11 7L11 6L10 6L10 7L9 7L9 6ZM0 9L0 10L1 10L1 9ZM6 9L6 10L7 10L7 9ZM18 9L18 10L16 10L16 11L17 11L17 12L18 12L18 14L20 14L20 12L18 12L18 10L19 10L19 9ZM2 11L2 12L3 12L3 11ZM14 11L14 12L15 12L15 11ZM10 12L10 14L11 14L11 12ZM12 12L12 13L13 13L13 12ZM8 16L8 18L9 18L9 21L11 21L11 20L12 20L12 19L13 19L13 17L11 17L11 16ZM9 17L9 18L10 18L10 20L11 20L11 19L12 19L12 18L11 18L11 17ZM16 19L16 20L17 20L17 19ZM0 0L0 7L7 7L7 0ZM1 1L1 6L6 6L6 1ZM2 2L2 5L5 5L5 2ZM14 0L14 7L21 7L21 0ZM15 1L15 6L20 6L20 1ZM16 2L16 5L19 5L19 2ZM0 14L0 21L7 21L7 14ZM1 15L1 20L6 20L6 15ZM2 16L2 19L5 19L5 16Z" fill="#282828"/></g></g></svg>
