<?xml version="1.0" encoding="UTF-8"?>
<svg xmlns="http://www.w3.org/2000/svg" version="1.1" width="400" height="400" viewBox="0 0 400 400"><rect x="0" y="0" width="400" height="400" fill="#f5f5f5"/><g transform="scale(14.815)"><g transform="translate(3,3)"><path fill-rule="evenodd" d="M9 0L9 1L8 1L8 2L10 2L10 4L9 4L9 5L8 5L8 8L4 8L4 9L1 9L1 10L0 10L0 13L1 13L1 11L3 11L3 10L4 10L4 9L7 9L7 10L6 10L6 11L8 11L8 12L5 12L5 11L4 11L4 12L2 12L2 13L8 13L8 17L9 17L9 21L10 21L10 19L13 19L13 18L12 18L12 17L14 17L14 16L13 16L13 15L14 15L14 14L15 14L15 12L13 12L13 13L14 13L14 14L12 14L12 12L11 12L11 13L10 13L10 11L8 11L8 8L9 8L9 5L10 5L10 4L11 4L11 5L12 5L12 7L13 7L13 5L12 5L12 4L13 4L13 0L12 0L12 1L11 1L11 0ZM11 2L11 3L12 3L12 2ZM10 6L10 9L9 9L9 10L11 10L11 6ZM14 8L14 9L13 9L13 11L14 11L14 9L15 9L15 11L16 11L16 12L19 12L19 13L17 13L17 16L16 16L16 15L15 15L15 19L14 19L14 20L13 20L13 21L15 21L15 19L16 19L16 20L17 20L17 19L18 19L18 21L21 21L21 20L20 20L20 19L19 19L19 18L21 18L21 16L20 16L20 15L21 15L21 11L20 11L20 8L19 8L19 9L17 9L17 10L16 10L16 8ZM17 10L17 11L19 11L19 10ZM8 12L8 13L9 13L9 12ZM19 13L19 14L18 14L18 16L17 16L17 17L16 17L16 18L17 18L17 17L18 17L18 18L19 18L19 17L18 17L18 16L19 16L19 15L20 15L20 13ZM10 14L10 16L9 16L9 17L12 17L12 16L11 16L11 14ZM11 20L11 21L12 21L12 20ZM0 0L0 7L7 7L7 0ZM1 1L1 6L6 6L6 1ZM2 2L2 5L5 5L5 2ZM14 0L14 7L21 7L21 0ZM15 1L15 6L20 6L20 1ZM16 2L16 5L19 5L19 2ZM0 14L0 21L7 21L7 14ZM1 15L1 20L6 20L6 15ZM2 16L2 19L5 19L5 16Z" fill="#282828"/></g></g></svg>
