<?xml version="1.0" encoding="UTF-8"?>
<svg xmlns="http://www.w3.org/2000/svg" version="1.1" width="400" height="400" viewBox="0 0 400 400"><rect x="0" y="0" width="400" height="400" fill="#f5f5f5"/><g transform="scale(14.815)"><g transform="translate(3,3)"><path fill-rule="evenodd" d="M8 0L8 1L9 1L9 2L8 2L8 3L9 3L9 4L8 4L8 5L9 5L9 4L10 4L10 7L9 7L9 6L8 6L8 8L9 8L9 11L8 11L8 12L9 12L9 11L10 11L10 10L11 10L11 12L10 12L10 13L8 13L8 14L9 14L9 15L8 15L8 16L9 16L9 20L10 20L10 21L11 21L11 20L10 20L10 16L9 16L9 15L10 15L10 13L11 13L11 14L12 14L12 15L13 15L13 16L15 16L15 14L14 14L14 15L13 15L13 13L12 13L12 9L11 9L11 4L13 4L13 3L12 3L12 2L11 2L11 4L10 4L10 3L9 3L9 2L10 2L10 1L9 1L9 0ZM12 0L12 1L13 1L13 0ZM12 6L12 7L13 7L13 6ZM5 8L5 10L4 10L4 9L3 9L3 10L2 10L2 9L0 9L0 12L1 12L1 11L2 11L2 13L4 13L4 11L5 11L5 13L7 13L7 12L6 12L6 11L7 11L7 10L6 10L6 9L7 9L7 8ZM14 8L14 9L13 9L13 10L14 10L14 11L13 11L13 12L14 12L14 13L17 13L17 14L16 14L16 15L17 15L17 14L18 14L18 17L17 17L17 16L16 16L16 17L13 17L13 18L15 18L15 20L14 20L14 19L13 19L13 20L12 20L12 21L13 21L13 20L14 20L14 21L16 21L16 19L17 19L17 20L18 20L18 21L19 21L19 20L20 20L20 19L21 19L21 18L19 18L19 20L18 20L18 17L19 17L19 16L21 16L21 14L20 14L20 15L19 15L19 14L18 14L18 13L20 13L20 11L21 11L21 8L20 8L20 9L19 9L19 8L18 8L18 9L17 9L17 8L16 8L16 9L15 9L15 8ZM14 9L14 10L15 10L15 9ZM3 10L3 11L4 11L4 10ZM5 10L5 11L6 11L6 10ZM16 10L16 12L17 12L17 13L18 13L18 12L19 12L19 11L20 11L20 10L18 10L18 11L17 11L17 10ZM16 17L16 18L17 18L17 17ZM11 18L11 19L12 19L12 18ZM0 0L0 7L7 7L7 0ZM1 1L1 6L6 6L6 1ZM2 2L2 5L5 5L5 2ZM14 0L14 7L21 7L21 0ZM15 1L15 6L20 6L20 1ZM16 2L16 5L19 5L19 2ZM0 14L0 21L7 21L7 14ZM1 15L1 20L6 20L6 15ZM2 16L2 19L5 19L5 16Z" fill="#282828"/></g></g></svg>
