<?xml version="1.0" encoding="UTF-8"?>
<svg xmlns="http://www.w3.org/2000/svg" version="1.1" width="400" height="400" viewBox="0 0 400 400"><rect x="0" y="0" width="400" height="400" fill="#f5f5f5"/><g transform="scale(14.815)"><g transform="translate(3,3)"><path fill-rule="evenodd" d="M8 0L8 1L10 1L10 0ZM11 1L11 2L8 2L8 3L9 3L9 4L8 4L8 5L9 5L9 6L8 6L8 8L9 8L9 9L7 9L7 8L5 8L5 9L4 9L4 10L3 10L3 9L2 9L2 13L3 13L3 12L4 12L4 13L7 13L7 12L6 12L6 11L7 11L7 10L8 10L8 11L9 11L9 12L8 12L8 14L9 14L9 15L8 15L8 16L9 16L9 15L11 15L11 17L10 17L10 18L9 18L9 19L11 19L11 20L10 20L10 21L13 21L13 20L12 20L12 19L13 19L13 18L14 18L14 19L15 19L15 20L14 20L14 21L16 21L16 19L17 19L17 20L18 20L18 21L19 21L19 20L20 20L20 19L21 19L21 18L19 18L19 20L18 20L18 17L19 17L19 16L21 16L21 14L20 14L20 15L19 15L19 13L20 13L20 12L21 12L21 10L20 10L20 12L18 12L18 10L19 10L19 8L18 8L18 10L17 10L17 8L16 8L16 9L15 9L15 8L14 8L14 9L15 9L15 13L14 13L14 12L11 12L11 11L12 11L12 10L13 10L13 11L14 11L14 10L13 10L13 1ZM11 2L11 3L12 3L12 2ZM10 4L10 5L11 5L11 4ZM9 6L9 8L11 8L11 9L9 9L9 11L10 11L10 10L11 10L11 9L12 9L12 6L11 6L11 7L10 7L10 6ZM20 8L20 9L21 9L21 8ZM0 9L0 10L1 10L1 9ZM5 9L5 10L4 10L4 12L5 12L5 11L6 11L6 10L7 10L7 9ZM16 10L16 12L17 12L17 10ZM10 12L10 14L11 14L11 12ZM12 13L12 14L13 14L13 13ZM15 13L15 15L14 15L14 18L15 18L15 17L16 17L16 18L17 18L17 17L18 17L18 14L17 14L17 13ZM16 14L16 15L17 15L17 14ZM12 15L12 17L11 17L11 19L12 19L12 18L13 18L13 15ZM16 16L16 17L17 17L17 16ZM0 0L0 7L7 7L7 0ZM1 1L1 6L6 6L6 1ZM2 2L2 5L5 5L5 2ZM14 0L14 7L21 7L21 0ZM15 1L15 6L20 6L20 1ZM16 2L16 5L19 5L19 2ZM0 14L0 21L7 21L7 14ZM1 15L1 20L6 20L6 15ZM2 16L2 19L5 19L5 16Z" fill="#282828"/></g></g></svg>
