<?xml version="1.0" encoding="UTF-8"?>
<svg xmlns="http://www.w3.org/2000/svg" version="1.1" width="400" height="400" viewBox="0 0 400 400"><rect x="0" y="0" width="400" height="400" fill="#f5f5f5"/><g transform="scale(14.815)"><g transform="translate(3,3)"><path fill-rule="evenodd" d="M8 0L8 1L9 1L9 2L10 2L10 3L11 3L11 5L12 5L12 7L11 7L11 6L10 6L10 7L9 7L9 6L8 6L8 7L9 7L9 8L8 8L8 9L7 9L7 8L4 8L4 9L3 9L3 8L2 8L2 9L0 9L0 11L1 11L1 12L0 12L0 13L2 13L2 11L1 11L1 10L2 10L2 9L3 9L3 11L7 11L7 10L9 10L9 11L8 11L8 14L9 14L9 13L10 13L10 15L8 15L8 17L9 17L9 18L8 18L8 19L10 19L10 21L12 21L12 20L15 20L15 18L13 18L13 17L10 17L10 16L11 16L11 15L13 15L13 16L14 16L14 15L15 15L15 17L16 17L16 16L18 16L18 18L20 18L20 19L21 19L21 18L20 18L20 17L21 17L21 16L20 16L20 17L19 17L19 16L18 16L18 15L19 15L19 14L18 14L18 13L17 13L17 12L16 12L16 13L15 13L15 9L14 9L14 8L13 8L13 9L14 9L14 10L12 10L12 9L10 9L10 7L11 7L11 8L12 8L12 7L13 7L13 4L12 4L12 3L13 3L13 0L12 0L12 1L11 1L11 0ZM11 2L11 3L12 3L12 2ZM8 3L8 4L9 4L9 5L10 5L10 4L9 4L9 3ZM17 8L17 10L16 10L16 11L18 11L18 12L19 12L19 11L20 11L20 9L21 9L21 8L20 8L20 9L18 9L18 8ZM4 9L4 10L7 10L7 9ZM9 9L9 10L10 10L10 11L9 11L9 12L10 12L10 13L11 13L11 11L12 11L12 10L10 10L10 9ZM18 10L18 11L19 11L19 10ZM13 11L13 12L14 12L14 11ZM3 12L3 13L4 13L4 12ZM5 12L5 13L7 13L7 12ZM20 12L20 13L21 13L21 12ZM12 13L12 14L13 14L13 15L14 15L14 14L13 14L13 13ZM16 13L16 15L18 15L18 14L17 14L17 13ZM11 18L11 20L12 20L12 18ZM16 18L16 19L17 19L17 18ZM18 19L18 21L19 21L19 19ZM16 20L16 21L17 21L17 20ZM20 20L20 21L21 21L21 20ZM0 0L0 7L7 7L7 0ZM1 1L1 6L6 6L6 1ZM2 2L2 5L5 5L5 2ZM14 0L14 7L21 7L21 0ZM15 1L15 6L20 6L20 1ZM16 2L16 5L19 5L19 2ZM0 14L0 21L7 21L7 14ZM1 15L1 20L6 20L6 15ZM2 16L2 19L5 19L5 16Z" fill="#282828"/></g></g></svg>
