<?xml version="1.0" encoding="UTF-8"?>
<svg xmlns="http://www.w3.org/2000/svg" version="1.1" width="400" height="400" viewBox="0 0 400 400"><rect x="0" y="0" width="400" height="400" fill="#f5f5f5"/><g transform="scale(7.843)"><g transform="translate(15,15)"><path fill-rule="evenodd" d="M9 0L9 1L8 1L8 7L9 7L9 8L5 8L5 9L7 9L7 10L6 10L6 11L5 11L5 10L4 10L4 9L3 9L3 8L2 8L2 10L1 10L1 9L0 9L0 10L1 10L1 11L3 11L3 12L4 12L4 13L5 13L5 12L6 12L6 13L7 13L7 12L6 12L6 11L8 11L8 9L9 9L9 11L10 11L10 12L11 12L11 13L12 13L12 12L14 12L14 13L17 13L17 15L16 15L16 16L17 16L17 18L16 18L16 17L14 17L14 19L12 19L12 18L13 18L13 16L15 16L15 14L14 14L14 15L13 15L13 16L12 16L12 18L11 18L11 17L10 17L10 16L11 16L11 15L12 15L12 14L10 14L10 13L8 13L8 16L9 16L9 17L10 17L10 19L12 19L12 21L13 21L13 20L14 20L14 19L15 19L15 21L21 21L21 20L20 20L20 19L21 19L21 18L19 18L19 17L21 17L21 16L20 16L20 14L18 14L18 13L20 13L20 11L18 11L18 10L19 10L19 9L20 9L20 8L15 8L15 12L14 12L14 11L12 11L12 10L10 10L10 9L14 9L14 8L11 8L11 6L12 6L12 7L13 7L13 3L12 3L12 4L11 4L11 5L10 5L10 4L9 4L9 1L10 1L10 0ZM11 0L11 2L10 2L10 3L11 3L11 2L13 2L13 0ZM9 5L9 7L10 7L10 5ZM9 8L9 9L10 9L10 8ZM16 9L16 10L18 10L18 9ZM11 11L11 12L12 12L12 11ZM16 11L16 12L17 12L17 13L18 13L18 12L17 12L17 11ZM9 14L9 16L10 16L10 14ZM17 15L17 16L19 16L19 15ZM8 18L8 19L9 19L9 18ZM18 18L18 19L19 19L19 18ZM16 19L16 20L17 20L17 19ZM10 20L10 21L11 21L11 20ZM0 0L0 7L7 7L7 0ZM1 1L1 6L6 6L6 1ZM2 2L2 5L5 5L5 2ZM14 0L14 7L21 7L21 0ZM15 1L15 6L20 6L20 1ZM16 2L16 5L19 5L19 2ZM0 14L0 21L7 21L7 14ZM1 15L1 20L6 20L6 15ZM2 16L2 19L5 19L5 16Z" fill="#282828"/></g></g></svg>
