<?xml version="1.0" encoding="UTF-8"?>
<svg xmlns="http://www.w3.org/2000/svg" version="1.1" width="400" height="400" viewBox="0 0 400 400"><rect x="0" y="0" width="400" height="400" fill="#f5f5f5"/><g transform="scale(7.843)"><g transform="translate(15,15)"><path fill-rule="evenodd" d="M8 0L8 1L9 1L9 2L8 2L8 3L10 3L10 4L12 4L12 5L9 5L9 4L8 4L8 5L9 5L9 6L8 6L8 8L9 8L9 9L8 9L8 10L6 10L6 9L7 9L7 8L5 8L5 9L4 9L4 10L6 10L6 11L3 11L3 10L2 10L2 9L0 9L0 10L2 10L2 12L1 12L1 13L8 13L8 14L9 14L9 13L10 13L10 14L11 14L11 15L8 15L8 16L9 16L9 17L10 17L10 18L9 18L9 19L10 19L10 21L13 21L13 19L15 19L15 21L16 21L16 19L17 19L17 20L18 20L18 21L19 21L19 20L20 20L20 19L21 19L21 18L19 18L19 20L18 20L18 17L19 17L19 16L21 16L21 11L20 11L20 10L18 10L18 9L19 9L19 8L18 8L18 9L17 9L17 8L16 8L16 9L15 9L15 8L14 8L14 9L15 9L15 11L14 11L14 10L11 10L11 9L10 9L10 8L11 8L11 6L12 6L12 7L13 7L13 4L12 4L12 3L11 3L11 2L12 2L12 1L11 1L11 0L10 0L10 1L9 1L9 0ZM9 6L9 7L10 7L10 6ZM12 8L12 9L13 9L13 8ZM20 8L20 9L21 9L21 8ZM9 9L9 10L10 10L10 9ZM16 10L16 12L18 12L18 13L19 13L19 11L17 11L17 10ZM6 11L6 12L7 12L7 11ZM8 11L8 13L9 13L9 12L11 12L11 13L12 13L12 14L13 14L13 15L11 15L11 16L10 16L10 17L12 17L12 18L11 18L11 20L12 20L12 19L13 19L13 18L14 18L14 17L16 17L16 18L17 18L17 17L18 17L18 14L17 14L17 13L15 13L15 15L14 15L14 14L13 14L13 13L12 13L12 12L13 12L13 11L12 11L12 12L11 12L11 11ZM16 14L16 15L17 15L17 14ZM19 14L19 15L20 15L20 14ZM13 15L13 16L12 16L12 17L14 17L14 15ZM16 16L16 17L17 17L17 16ZM0 0L0 7L7 7L7 0ZM1 1L1 6L6 6L6 1ZM2 2L2 5L5 5L5 2ZM14 0L14 7L21 7L21 0ZM15 1L15 6L20 6L20 1ZM16 2L16 5L19 5L19 2ZM0 14L0 21L7 21L7 14ZM1 15L1 20L6 20L6 15ZM2 16L2 19L5 19L5 16Z" fill="#282828"/></g></g></svg>
