<?xml version="1.0" encoding="UTF-8"?>
<svg xmlns="http://www.w3.org/2000/svg" version="1.1" width="400" height="400" viewBox="0 0 400 400"><rect x="0" y="0" width="400" height="400" fill="#f5f5f5"/><g transform="scale(14.815)"><g transform="translate(3,3)"><path fill-rule="evenodd" d="M9 0L9 1L8 1L8 2L9 2L9 3L10 3L10 4L9 4L9 5L8 5L8 8L4 8L4 9L3 9L3 10L2 10L2 9L1 9L1 10L0 10L0 13L1 13L1 12L2 12L2 13L3 13L3 10L4 10L4 13L5 13L5 12L6 12L6 13L8 13L8 17L9 17L9 15L12 15L12 17L11 17L11 16L10 16L10 19L9 19L9 20L10 20L10 19L11 19L11 21L13 21L13 20L14 20L14 21L15 21L15 20L14 20L14 19L16 19L16 20L17 20L17 19L18 19L18 21L21 21L21 20L20 20L20 19L19 19L19 18L21 18L21 16L20 16L20 15L21 15L21 14L20 14L20 15L19 15L19 16L18 16L18 14L17 14L17 16L16 16L16 15L15 15L15 14L13 14L13 12L15 12L15 11L16 11L16 12L17 12L17 13L19 13L19 12L17 12L17 10L18 10L18 11L20 11L20 12L21 12L21 11L20 11L20 8L19 8L19 9L17 9L17 10L16 10L16 8L14 8L14 9L12 9L12 10L11 10L11 9L8 9L8 8L11 8L11 6L12 6L12 8L13 8L13 6L12 6L12 2L11 2L11 1L13 1L13 0ZM10 2L10 3L11 3L11 2ZM10 4L10 6L9 6L9 7L10 7L10 6L11 6L11 4ZM5 9L5 11L6 11L6 12L7 12L7 11L8 11L8 13L9 13L9 14L11 14L11 12L13 12L13 11L11 11L11 12L10 12L10 13L9 13L9 10L7 10L7 9ZM1 10L1 11L2 11L2 10ZM6 10L6 11L7 11L7 10ZM14 10L14 11L15 11L15 10ZM12 14L12 15L13 15L13 16L14 16L14 15L13 15L13 14ZM17 16L17 17L16 17L16 18L17 18L17 17L18 17L18 18L19 18L19 17L18 17L18 16ZM12 17L12 18L13 18L13 19L14 19L14 18L13 18L13 17ZM0 0L0 7L7 7L7 0ZM1 1L1 6L6 6L6 1ZM2 2L2 5L5 5L5 2ZM14 0L14 7L21 7L21 0ZM15 1L15 6L20 6L20 1ZM16 2L16 5L19 5L19 2ZM0 14L0 21L7 21L7 14ZM1 15L1 20L6 20L6 15ZM2 16L2 19L5 19L5 16Z" fill="#282828"/></g></g></svg>
