<?xml version="1.0" encoding="UTF-8"?>
<svg xmlns="http://www.w3.org/2000/svg" version="1.1" width="400" height="400" viewBox="0 0 400 400"><rect x="0" y="0" width="400" height="400" fill="#f5f5f5"/><g transform="scale(14.815)"><g transform="translate(3,3)"><path fill-rule="evenodd" d="M8 0L8 1L9 1L9 2L10 2L10 5L11 5L11 1L12 1L12 7L11 7L11 6L10 6L10 7L9 7L9 6L8 6L8 7L9 7L9 8L8 8L8 9L7 9L7 8L4 8L4 9L3 9L3 8L2 8L2 9L1 9L1 10L0 10L0 12L1 12L1 13L4 13L4 12L1 12L1 11L3 11L3 10L4 10L4 11L5 11L5 12L6 12L6 13L7 13L7 12L6 12L6 11L8 11L8 12L9 12L9 13L8 13L8 14L9 14L9 15L8 15L8 17L9 17L9 18L8 18L8 19L9 19L9 21L10 21L10 20L12 20L12 18L14 18L14 19L13 19L13 21L15 21L15 17L16 17L16 16L18 16L18 18L20 18L20 19L21 19L21 18L20 18L20 17L21 17L21 16L20 16L20 17L19 17L19 16L18 16L18 15L19 15L19 14L20 14L20 12L21 12L21 11L20 11L20 12L19 12L19 13L18 13L18 10L20 10L20 9L21 9L21 8L20 8L20 9L18 9L18 8L17 8L17 10L16 10L16 11L17 11L17 12L16 12L16 13L15 13L15 11L14 11L14 12L13 12L13 11L12 11L12 10L15 10L15 9L14 9L14 8L12 8L12 7L13 7L13 1L12 1L12 0L10 0L10 1L9 1L9 0ZM8 3L8 4L9 4L9 3ZM10 7L10 8L9 8L9 9L8 9L8 11L9 11L9 10L11 10L11 9L12 9L12 8L11 8L11 7ZM10 8L10 9L11 9L11 8ZM5 9L5 10L7 10L7 9ZM10 11L10 14L11 14L11 16L10 16L10 15L9 15L9 17L12 17L12 16L13 16L13 15L14 15L14 17L15 17L15 15L14 15L14 14L13 14L13 13L11 13L11 12L12 12L12 11ZM16 13L16 15L18 15L18 13ZM12 14L12 15L13 15L13 14ZM9 18L9 19L11 19L11 18ZM16 18L16 19L17 19L17 18ZM18 19L18 21L19 21L19 19ZM16 20L16 21L17 21L17 20ZM20 20L20 21L21 21L21 20ZM0 0L0 7L7 7L7 0ZM1 1L1 6L6 6L6 1ZM2 2L2 5L5 5L5 2ZM14 0L14 7L21 7L21 0ZM15 1L15 6L20 6L20 1ZM16 2L16 5L19 5L19 2ZM0 14L0 21L7 21L7 14ZM1 15L1 20L6 20L6 15ZM2 16L2 19L5 19L5 16Z" fill="#282828"/></g></g></svg>
