<?xml version="1.0" encoding="UTF-8"?>
<svg xmlns="http://www.w3.org/2000/svg" version="1.1" width="400" height="400" viewBox="0 0 400 400"><rect x="0" y="0" width="400" height="400" fill="#f5f5f5"/><g transform="scale(14.815)"><g transform="translate(3,3)"><path fill-rule="evenodd" d="M8 0L8 1L9 1L9 2L10 2L10 1L11 1L11 2L12 2L12 3L10 3L10 4L9 4L9 3L8 3L8 4L9 4L9 6L8 6L8 7L9 7L9 6L10 6L10 8L8 8L8 9L9 9L9 11L8 11L8 12L6 12L6 11L7 11L7 10L6 10L6 9L7 9L7 8L4 8L4 9L3 9L3 8L2 8L2 9L3 9L3 10L0 10L0 13L3 13L3 12L5 12L5 13L8 13L8 14L9 14L9 15L8 15L8 17L10 17L10 18L8 18L8 19L9 19L9 20L11 20L11 19L13 19L13 16L14 16L14 17L16 17L16 16L18 16L18 18L20 18L20 19L21 19L21 18L20 18L20 17L21 17L21 16L20 16L20 17L19 17L19 16L18 16L18 15L19 15L19 14L18 14L18 15L16 15L16 13L17 13L17 12L18 12L18 13L20 13L20 14L21 14L21 12L20 12L20 10L19 10L19 9L18 9L18 8L17 8L17 10L16 10L16 11L17 11L17 12L16 12L16 13L15 13L15 12L14 12L14 13L12 13L12 11L13 11L13 10L15 10L15 9L14 9L14 8L13 8L13 4L12 4L12 3L13 3L13 1L11 1L11 0L10 0L10 1L9 1L9 0ZM10 4L10 5L12 5L12 4ZM11 6L11 7L12 7L12 6ZM10 8L10 11L12 11L12 9L11 9L11 8ZM20 8L20 9L21 9L21 8ZM4 9L4 10L5 10L5 9ZM17 10L17 11L18 11L18 12L19 12L19 11L18 11L18 10ZM1 11L1 12L3 12L3 11ZM8 12L8 13L9 13L9 14L10 14L10 15L11 15L11 14L12 14L12 15L13 15L13 14L12 14L12 13L11 13L11 12L10 12L10 13L9 13L9 12ZM14 15L14 16L15 16L15 15ZM10 16L10 17L11 17L11 16ZM10 18L10 19L11 19L11 18ZM14 18L14 21L15 21L15 18ZM16 18L16 19L17 19L17 18ZM18 19L18 21L19 21L19 19ZM12 20L12 21L13 21L13 20ZM16 20L16 21L17 21L17 20ZM20 20L20 21L21 21L21 20ZM0 0L0 7L7 7L7 0ZM1 1L1 6L6 6L6 1ZM2 2L2 5L5 5L5 2ZM14 0L14 7L21 7L21 0ZM15 1L15 6L20 6L20 1ZM16 2L16 5L19 5L19 2ZM0 14L0 21L7 21L7 14ZM1 15L1 20L6 20L6 15ZM2 16L2 19L5 19L5 16Z" fill="#282828"/></g></g></svg>
