<?xml version="1.0" encoding="UTF-8"?>
<svg xmlns="http://www.w3.org/2000/svg" version="1.1" width="400" height="400" viewBox="0 0 400 400"><rect x="0" y="0" width="400" height="400" fill="#f5f5f5"/><g transform="scale(14.815)"><g transform="translate(3,3)"><path fill-rule="evenodd" d="M8 0L8 2L9 2L9 0ZM10 0L10 3L8 3L8 7L9 7L9 8L10 8L10 9L11 9L11 8L13 8L13 6L12 6L12 5L11 5L11 4L10 4L10 3L11 3L11 1L12 1L12 4L13 4L13 0ZM9 5L9 7L10 7L10 5ZM11 6L11 7L12 7L12 6ZM3 8L3 9L1 9L1 10L0 10L0 12L1 12L1 13L2 13L2 12L3 12L3 13L5 13L5 12L6 12L6 13L8 13L8 14L9 14L9 15L10 15L10 17L11 17L11 20L9 20L9 21L11 21L11 20L12 20L12 21L13 21L13 19L12 19L12 17L13 17L13 14L14 14L14 13L15 13L15 15L14 15L14 16L15 16L15 17L14 17L14 19L15 19L15 17L17 17L17 18L16 18L16 21L19 21L19 20L20 20L20 19L21 19L21 16L18 16L18 15L19 15L19 14L20 14L20 15L21 15L21 14L20 14L20 13L21 13L21 12L19 12L19 14L18 14L18 12L16 12L16 13L15 13L15 11L12 11L12 12L11 12L11 11L10 11L10 10L9 10L9 9L7 9L7 8L6 8L6 9L5 9L5 10L4 10L4 8ZM15 8L15 9L13 9L13 10L15 10L15 9L18 9L18 10L17 10L17 11L21 11L21 10L19 10L19 9L21 9L21 8L19 8L19 9L18 9L18 8ZM6 9L6 10L7 10L7 11L6 11L6 12L8 12L8 11L9 11L9 12L10 12L10 13L9 13L9 14L10 14L10 15L11 15L11 17L12 17L12 13L14 13L14 12L12 12L12 13L11 13L11 12L10 12L10 11L9 11L9 10L7 10L7 9ZM1 11L1 12L2 12L2 11ZM4 11L4 12L5 12L5 11ZM16 14L16 15L17 15L17 14ZM17 16L17 17L18 17L18 16ZM8 17L8 18L9 18L9 19L10 19L10 18L9 18L9 17ZM17 18L17 20L18 20L18 19L20 19L20 18ZM0 0L0 7L7 7L7 0ZM1 1L1 6L6 6L6 1ZM2 2L2 5L5 5L5 2ZM14 0L14 7L21 7L21 0ZM15 1L15 6L20 6L20 1ZM16 2L16 5L19 5L19 2ZM0 14L0 21L7 21L7 14ZM1 15L1 20L6 20L6 15ZM2 16L2 19L5 19L5 16Z" fill="#282828"/></g></g></svg>
