<?xml version="1.0" encoding="UTF-8"?>
<svg xmlns="http://www.w3.org/2000/svg" version="1.1" width="400" height="400" viewBox="0 0 400 400"><rect x="0" y="0" width="400" height="400" fill="#f5f5f5"/><g transform="scale(14.815)"><g transform="translate(3,3)"><path fill-rule="evenodd" d="M11 0L11 2L10 2L10 1L9 1L9 2L8 2L8 4L9 4L9 5L10 5L10 7L9 7L9 6L8 6L8 7L9 7L9 8L10 8L10 9L11 9L11 10L9 10L9 11L7 11L7 10L8 10L8 8L6 8L6 9L7 9L7 10L6 10L6 11L7 11L7 12L6 12L6 13L8 13L8 15L9 15L9 16L8 16L8 18L9 18L9 19L10 19L10 21L17 21L17 20L18 20L18 21L20 21L20 20L21 20L21 18L19 18L19 19L20 19L20 20L18 20L18 18L17 18L17 17L19 17L19 16L20 16L20 17L21 17L21 13L20 13L20 14L19 14L19 13L17 13L17 12L19 12L19 11L20 11L20 12L21 12L21 10L20 10L20 9L19 9L19 8L17 8L17 9L15 9L15 10L14 10L14 9L13 9L13 10L12 10L12 8L10 8L10 7L11 7L11 6L12 6L12 7L13 7L13 6L12 6L12 5L13 5L13 3L12 3L12 4L11 4L11 5L10 5L10 4L9 4L9 2L10 2L10 3L11 3L11 2L13 2L13 1L12 1L12 0ZM3 8L3 9L0 9L0 10L2 10L2 11L0 11L0 13L1 13L1 12L2 12L2 13L3 13L3 12L4 12L4 13L5 13L5 12L4 12L4 11L3 11L3 10L4 10L4 9L5 9L5 8ZM17 9L17 10L16 10L16 11L17 11L17 10L18 10L18 11L19 11L19 9ZM13 10L13 11L11 11L11 12L10 12L10 11L9 11L9 12L8 12L8 13L9 13L9 15L10 15L10 16L9 16L9 17L10 17L10 16L11 16L11 17L12 17L12 16L13 16L13 17L16 17L16 16L18 16L18 14L17 14L17 13L15 13L15 11L14 11L14 10ZM13 11L13 13L12 13L12 14L10 14L10 15L12 15L12 14L13 14L13 15L14 15L14 14L13 14L13 13L14 13L14 11ZM9 12L9 13L10 13L10 12ZM10 18L10 19L11 19L11 20L13 20L13 19L11 19L11 18ZM16 19L16 20L17 20L17 19ZM0 0L0 7L7 7L7 0ZM1 1L1 6L6 6L6 1ZM2 2L2 5L5 5L5 2ZM14 0L14 7L21 7L21 0ZM15 1L15 6L20 6L20 1ZM16 2L16 5L19 5L19 2ZM0 14L0 21L7 21L7 14ZM1 15L1 20L6 20L6 15ZM2 16L2 19L5 19L5 16Z" fill="#282828"/></g></g></svg>
