<?xml version="1.0" encoding="UTF-8"?>
<svg xmlns="http://www.w3.org/2000/svg" version="1.1" width="400" height="400" viewBox="0 0 400 400"><rect x="0" y="0" width="400" height="400" fill="#f5f5f5"/><g transform="scale(14.815)"><g transform="translate(3,3)"><path fill-rule="evenodd" d="M10 0L10 1L11 1L11 0ZM8 1L8 7L9 7L9 6L10 6L10 8L5 8L5 10L4 10L4 9L3 9L3 8L2 8L2 9L3 9L3 10L1 10L1 12L2 12L2 11L5 11L5 13L7 13L7 12L6 12L6 11L8 11L8 12L9 12L9 13L8 13L8 16L9 16L9 17L10 17L10 18L8 18L8 19L9 19L9 20L10 20L10 18L11 18L11 20L12 20L12 21L13 21L13 19L15 19L15 20L14 20L14 21L21 21L21 20L20 20L20 19L21 19L21 18L19 18L19 17L21 17L21 16L20 16L20 14L21 14L21 11L17 11L17 10L16 10L16 9L18 9L18 10L19 10L19 9L20 9L20 8L15 8L15 11L13 11L13 9L14 9L14 8L12 8L12 7L13 7L13 6L12 6L12 5L13 5L13 3L12 3L12 2L11 2L11 5L10 5L10 2L9 2L9 1ZM11 6L11 7L12 7L12 6ZM6 9L6 10L5 10L5 11L6 11L6 10L7 10L7 9ZM9 9L9 10L10 10L10 9ZM11 9L11 10L12 10L12 9ZM9 11L9 12L10 12L10 11ZM11 11L11 13L10 13L10 15L9 15L9 16L10 16L10 15L11 15L11 16L12 16L12 17L14 17L14 18L15 18L15 17L16 17L16 18L17 18L17 16L19 16L19 15L17 15L17 14L18 14L18 13L19 13L19 14L20 14L20 13L19 13L19 12L18 12L18 13L15 13L15 12L13 12L13 11ZM16 11L16 12L17 12L17 11ZM3 12L3 13L4 13L4 12ZM12 12L12 13L13 13L13 12ZM14 13L14 14L15 14L15 13ZM12 14L12 16L13 16L13 14ZM16 15L16 16L17 16L17 15ZM14 16L14 17L15 17L15 16ZM18 18L18 19L19 19L19 18ZM16 19L16 20L17 20L17 19ZM0 0L0 7L7 7L7 0ZM1 1L1 6L6 6L6 1ZM2 2L2 5L5 5L5 2ZM14 0L14 7L21 7L21 0ZM15 1L15 6L20 6L20 1ZM16 2L16 5L19 5L19 2ZM0 14L0 21L7 21L7 14ZM1 15L1 20L6 20L6 15ZM2 16L2 19L5 19L5 16Z" fill="#282828"/></g></g></svg>
