<?xml version="1.0" encoding="UTF-8"?>
<svg xmlns="http://www.w3.org/2000/svg" version="1.1" width="400" height="400" viewBox="0 0 400 400"><rect x="0" y="0" width="400" height="400" fill="#f5f5f5"/><g transform="scale(14.815)"><g transform="translate(3,3)"><path fill-rule="evenodd" d="M8 0L8 1L12 1L12 2L11 2L11 3L9 3L9 2L8 2L8 3L9 3L9 4L8 4L8 5L9 5L9 4L12 4L12 2L13 2L13 1L12 1L12 0ZM12 5L12 7L11 7L11 6L10 6L10 7L9 7L9 6L8 6L8 8L10 8L10 9L12 9L12 13L11 13L11 14L10 14L10 13L8 13L8 10L9 10L9 9L8 9L8 10L6 10L6 11L7 11L7 12L6 12L6 13L8 13L8 14L10 14L10 15L8 15L8 16L9 16L9 17L10 17L10 15L11 15L11 18L9 18L9 21L10 21L10 19L11 19L11 21L12 21L12 20L13 20L13 21L16 21L16 19L17 19L17 20L18 20L18 21L19 21L19 20L20 20L20 19L21 19L21 18L19 18L19 20L18 20L18 17L19 17L19 16L21 16L21 14L20 14L20 13L19 13L19 12L20 12L20 11L18 11L18 10L17 10L17 8L16 8L16 9L15 9L15 8L14 8L14 9L13 9L13 5ZM10 7L10 8L11 8L11 7ZM5 8L5 9L7 9L7 8ZM18 8L18 9L19 9L19 10L20 10L20 9L21 9L21 8L20 8L20 9L19 9L19 8ZM0 9L0 11L1 11L1 9ZM2 9L2 11L3 11L3 13L4 13L4 11L5 11L5 10L4 10L4 9ZM14 9L14 11L13 11L13 13L12 13L12 18L11 18L11 19L12 19L12 18L13 18L13 19L14 19L14 20L15 20L15 19L14 19L14 18L15 18L15 17L16 17L16 18L17 18L17 17L18 17L18 14L19 14L19 15L20 15L20 14L19 14L19 13L18 13L18 14L17 14L17 13L15 13L15 14L14 14L14 11L15 11L15 9ZM10 10L10 12L11 12L11 10ZM16 10L16 12L17 12L17 10ZM16 14L16 15L17 15L17 14ZM13 15L13 17L15 17L15 16L14 16L14 15ZM16 16L16 17L17 17L17 16ZM0 0L0 7L7 7L7 0ZM1 1L1 6L6 6L6 1ZM2 2L2 5L5 5L5 2ZM14 0L14 7L21 7L21 0ZM15 1L15 6L20 6L20 1ZM16 2L16 5L19 5L19 2ZM0 14L0 21L7 21L7 14ZM1 15L1 20L6 20L6 15ZM2 16L2 19L5 19L5 16Z" fill="#282828"/></g></g></svg>
