<?xml version="1.0" encoding="UTF-8"?>
<svg xmlns="http://www.w3.org/2000/svg" version="1.1" width="400" height="400" viewBox="0 0 400 400"><rect x="0" y="0" width="400" height="400" fill="#f5f5f5"/><g transform="scale(14.815)"><g transform="translate(3,3)"><path fill-rule="evenodd" d="M8 0L8 2L10 2L10 3L8 3L8 7L9 7L9 8L10 8L10 9L9 9L9 13L8 13L8 12L4 12L4 10L5 10L5 11L8 11L8 10L5 10L5 9L4 9L4 8L3 8L3 9L2 9L2 10L3 10L3 11L0 11L0 13L1 13L1 12L2 12L2 13L3 13L3 12L4 12L4 13L8 13L8 14L10 14L10 13L11 13L11 12L12 12L12 13L13 13L13 11L15 11L15 9L17 9L17 11L18 11L18 12L16 12L16 13L15 13L15 12L14 12L14 14L15 14L15 15L14 15L14 16L15 16L15 17L17 17L17 18L16 18L16 21L19 21L19 20L20 20L20 19L21 19L21 16L18 16L18 15L19 15L19 14L17 14L17 13L18 13L18 12L20 12L20 15L21 15L21 8L19 8L19 9L18 9L18 8L15 8L15 9L13 9L13 6L12 6L12 3L13 3L13 2L12 2L12 3L11 3L11 1L12 1L12 0L11 0L11 1L9 1L9 0ZM9 5L9 7L10 7L10 8L11 8L11 9L12 9L12 11L13 11L13 9L12 9L12 6L11 6L11 5ZM10 6L10 7L11 7L11 6ZM6 8L6 9L7 9L7 8ZM10 10L10 11L11 11L11 10ZM18 10L18 11L19 11L19 10ZM11 14L11 15L9 15L9 17L8 17L8 18L10 18L10 20L9 20L9 21L10 21L10 20L11 20L11 18L12 18L12 19L14 19L14 20L12 20L12 21L15 21L15 18L13 18L13 15L12 15L12 14ZM16 14L16 15L17 15L17 14ZM17 16L17 17L18 17L18 16ZM17 18L17 20L18 20L18 19L20 19L20 18ZM0 0L0 7L7 7L7 0ZM1 1L1 6L6 6L6 1ZM2 2L2 5L5 5L5 2ZM14 0L14 7L21 7L21 0ZM15 1L15 6L20 6L20 1ZM16 2L16 5L19 5L19 2ZM0 14L0 21L7 21L7 14ZM1 15L1 20L6 20L6 15ZM2 16L2 19L5 19L5 16Z" fill="#282828"/></g></g></svg>
