<?xml version="1.0" encoding="UTF-8"?>
<svg xmlns="http://www.w3.org/2000/svg" version="1.1" width="400" height="400" viewBox="0 0 400 400"><rect x="0" y="0" width="400" height="400" fill="#f5f5f5"/><g transform="scale(14.815)"><g transform="translate(3,3)"><path fill-rule="evenodd" d="M8 0L8 3L9 3L9 5L8 5L8 9L7 9L7 8L6 8L6 9L5 9L5 8L2 8L2 9L0 9L0 11L1 11L1 10L2 10L2 11L3 11L3 12L4 12L4 13L7 13L7 12L4 12L4 11L3 11L3 10L2 10L2 9L5 9L5 11L8 11L8 12L9 12L9 13L8 13L8 14L10 14L10 15L9 15L9 16L8 16L8 19L9 19L9 21L11 21L11 20L12 20L12 21L13 21L13 20L15 20L15 21L16 21L16 20L15 20L15 19L16 19L16 18L15 18L15 16L16 16L16 17L17 17L17 18L18 18L18 17L19 17L19 16L20 16L20 15L21 15L21 8L18 8L18 9L17 9L17 10L18 10L18 9L19 9L19 11L20 11L20 12L17 12L17 14L16 14L16 12L14 12L14 11L16 11L16 10L14 10L14 11L13 11L13 10L12 10L12 9L11 9L11 10L12 10L12 12L14 12L14 13L13 13L13 14L12 14L12 13L10 13L10 12L11 12L11 11L9 11L9 8L11 8L11 6L12 6L12 7L13 7L13 5L11 5L11 3L9 3L9 0ZM10 0L10 1L11 1L11 2L12 2L12 0ZM12 3L12 4L13 4L13 3ZM9 6L9 7L10 7L10 6ZM13 8L13 9L16 9L16 8ZM6 9L6 10L7 10L7 9ZM0 12L0 13L2 13L2 12ZM14 13L14 15L12 15L12 14L11 14L11 16L9 16L9 17L10 17L10 18L9 18L9 19L10 19L10 20L11 20L11 19L10 19L10 18L11 18L11 16L13 16L13 17L14 17L14 15L16 15L16 14L15 14L15 13ZM18 13L18 14L17 14L17 17L18 17L18 14L19 14L19 15L20 15L20 13ZM12 18L12 20L13 20L13 19L15 19L15 18ZM17 19L17 20L18 20L18 21L19 21L19 20L20 20L20 19L19 19L19 20L18 20L18 19ZM0 0L0 7L7 7L7 0ZM1 1L1 6L6 6L6 1ZM2 2L2 5L5 5L5 2ZM14 0L14 7L21 7L21 0ZM15 1L15 6L20 6L20 1ZM16 2L16 5L19 5L19 2ZM0 14L0 21L7 21L7 14ZM1 15L1 20L6 20L6 15ZM2 16L2 19L5 19L5 16Z" fill="#282828"/></g></g></svg>
