<?xml version="1.0" encoding="UTF-8"?>
<svg xmlns="http://www.w3.org/2000/svg" version="1.1" width="400" height="400" viewBox="0 0 400 400"><rect x="0" y="0" width="400" height="400" fill="#f5f5f5"/><g transform="scale(14.815)"><g transform="translate(3,3)"><path fill-rule="evenodd" d="M9 0L9 1L8 1L8 7L9 7L9 6L10 6L10 7L11 7L11 8L10 8L10 9L9 9L9 8L5 8L5 9L7 9L7 10L5 10L5 11L4 11L4 9L3 9L3 8L2 8L2 9L3 9L3 12L1 12L1 13L4 13L4 12L5 12L5 13L8 13L8 16L9 16L9 18L8 18L8 19L9 19L9 18L11 18L11 21L13 21L13 19L15 19L15 20L14 20L14 21L21 21L21 20L20 20L20 19L21 19L21 18L19 18L19 17L21 17L21 16L20 16L20 14L21 14L21 12L20 12L20 14L17 14L17 15L16 15L16 16L17 16L17 18L16 18L16 17L13 17L13 18L12 18L12 15L13 15L13 16L14 16L14 14L12 14L12 15L11 15L11 14L9 14L9 13L8 13L8 11L9 11L9 10L10 10L10 9L11 9L11 8L12 8L12 12L10 12L10 13L12 13L12 12L15 12L15 13L18 13L18 12L19 12L19 10L20 10L20 11L21 11L21 9L20 9L20 8L15 8L15 9L14 9L14 8L12 8L12 7L13 7L13 6L12 6L12 7L11 7L11 5L10 5L10 4L11 4L11 3L12 3L12 5L13 5L13 2L11 2L11 3L9 3L9 1L12 1L12 0ZM8 9L8 10L7 10L7 11L5 11L5 12L7 12L7 11L8 11L8 10L9 10L9 9ZM13 9L13 10L14 10L14 11L15 11L15 10L14 10L14 9ZM16 9L16 10L17 10L17 11L16 11L16 12L18 12L18 10L19 10L19 9L18 9L18 10L17 10L17 9ZM1 10L1 11L2 11L2 10ZM10 15L10 16L11 16L11 15ZM17 15L17 16L19 16L19 15ZM18 18L18 19L19 19L19 18ZM16 19L16 20L17 20L17 19ZM9 20L9 21L10 21L10 20ZM0 0L0 7L7 7L7 0ZM1 1L1 6L6 6L6 1ZM2 2L2 5L5 5L5 2ZM14 0L14 7L21 7L21 0ZM15 1L15 6L20 6L20 1ZM16 2L16 5L19 5L19 2ZM0 14L0 21L7 21L7 14ZM1 15L1 20L6 20L6 15ZM2 16L2 19L5 19L5 16Z" fill="#282828"/></g></g></svg>
