<?xml version="1.0" encoding="UTF-8"?>
<svg xmlns="http://www.w3.org/2000/svg" version="1.1" width="400" height="400" viewBox="0 0 400 400"><rect x="0" y="0" width="400" height="400" fill="#f5f5f5"/><g transform="scale(14.815)"><g transform="translate(3,3)"><path fill-rule="evenodd" d="M10 0L10 1L8 1L8 7L9 7L9 4L10 4L10 8L13 8L13 11L10 11L10 10L12 10L12 9L10 9L10 10L6 10L6 9L9 9L9 8L5 8L5 9L3 9L3 8L2 8L2 9L0 9L0 11L1 11L1 13L4 13L4 12L5 12L5 10L6 10L6 11L9 11L9 12L13 12L13 14L10 14L10 13L8 13L8 12L6 12L6 13L8 13L8 16L9 16L9 17L10 17L10 18L12 18L12 19L10 19L10 20L11 20L11 21L13 21L13 20L12 20L12 19L13 19L13 18L12 18L12 17L11 17L11 16L13 16L13 17L15 17L15 21L21 21L21 20L20 20L20 19L21 19L21 18L19 18L19 17L21 17L21 16L20 16L20 14L21 14L21 13L18 13L18 14L17 14L17 15L16 15L16 16L17 16L17 18L16 18L16 17L15 17L15 15L14 15L14 16L13 16L13 14L14 14L14 12L15 12L15 13L17 13L17 12L19 12L19 11L20 11L20 10L21 10L21 9L20 9L20 8L15 8L15 10L14 10L14 8L13 8L13 3L9 3L9 2L10 2L10 1L11 1L11 0ZM12 1L12 2L13 2L13 1ZM11 4L11 5L12 5L12 4ZM11 6L11 7L12 7L12 6ZM2 9L2 10L1 10L1 11L2 11L2 12L3 12L3 9ZM16 9L16 10L17 10L17 11L16 11L16 12L17 12L17 11L18 11L18 9ZM13 11L13 12L14 12L14 11ZM9 15L9 16L10 16L10 15ZM17 15L17 16L19 16L19 15ZM8 18L8 19L9 19L9 18ZM18 18L18 19L19 19L19 18ZM16 19L16 20L17 20L17 19ZM0 0L0 7L7 7L7 0ZM1 1L1 6L6 6L6 1ZM2 2L2 5L5 5L5 2ZM14 0L14 7L21 7L21 0ZM15 1L15 6L20 6L20 1ZM16 2L16 5L19 5L19 2ZM0 14L0 21L7 21L7 14ZM1 15L1 20L6 20L6 15ZM2 16L2 19L5 19L5 16Z" fill="#282828"/></g></g></svg>
